<?xml version="1.0" encoding="utf-8"?>
<!-- Generator: Adobe Illustrator 16.0.0, SVG Export Plug-In . SVG Version: 6.00 Build 0)  -->
<!DOCTYPE svg PUBLIC "-//W3C//DTD SVG 1.1//EN" "http://www.w3.org/Graphics/SVG/1.1/DTD/svg11.dtd">
<svg version="1.1" id="Layer_1" xmlns="http://www.w3.org/2000/svg" xmlns:xlink="http://www.w3.org/1999/xlink" x="0px" y="0px"
	 width="252.232px" height="252.26px" viewBox="0 -228.74 252.232 252.26" enable-background="new 0 -228.74 252.232 252.26"
	 xml:space="preserve">
<g>
	<path d="M232.139-170.77v-14.501l-2.087-0.822c-0.729-0.286-17.772-6.903-40.506-6.903c-24.356,0-45.332,7.425-62.404,22.062
		c-17.066-14.636-38.049-22.062-62.401-22.062c-22.74,0-39.78,6.618-40.492,6.903l-2.101,0.822v13.436
		c-6.879,1.286-11.167,3.587-11.167,7.354c0,19.582,0,138.444,0,138.444h101.97c3.527,3.151,8.688,5.153,14.455,5.153
		c5.773,0,10.927-2.001,14.45-5.153h99.395c0,0,0-131.576,0-138.444C241.243-167.54,237.771-169.541,232.139-170.77z
		 M126.044-36.958c-8.461-3.501-37.615-14.579-66.816-14.579c-11.538,0-21.762,1.772-30.463,5.267V-180.69
		c5.078-1.701,18.925-5.703,35.976-5.703c22.423,0,41.69,6.782,57.423,19.996v80.249l3.881-4.281V-36.958z M225.521-46.234
		c-9.349-3.759-20.082-5.653-31.974-5.653c-29.187,0-56.959,11.185-65.317,14.865v-53.414l3.899,4.281v-80.242
		c15.729-13.221,34.996-19.996,57.416-19.996c16.994,0,30.887,4.009,35.976,5.703V-46.234z"/>
	<path d="M41.84-163.009l1.368,5.173c34.433-9.133,65.409,7.769,65.724,7.94l2.602-4.681
		C110.207-155.312,78.395-172.7,41.84-163.009z"/>
	<path d="M41.84-147.865l1.368,5.174c34.433-9.141,65.409,7.768,65.724,7.933l2.602-4.667
		C110.207-140.176,78.395-157.556,41.84-147.865z"/>
	<path d="M41.84-133.63l1.368,5.175c34.433-9.126,65.409,7.769,65.724,7.939l2.602-4.673
		C110.207-125.933,78.395-143.313,41.84-133.63z"/>
	<path d="M41.84-118.029l1.368,5.174c34.433-9.134,65.409,7.775,65.724,7.939l2.602-4.667
		C110.207-110.339,78.395-127.727,41.84-118.029z"/>
	<path d="M41.84-103.578l1.368,5.174c34.433-9.119,65.409,7.775,65.724,7.954l2.602-4.688
		C110.207-95.874,78.395-113.255,41.84-103.578z"/>
	<path d="M41.84-88.728l1.368,5.174c34.433-9.133,65.409,7.769,65.724,7.933l2.602-4.667C110.207-81.038,78.395-98.411,41.84-88.728
		z"/>
	<path d="M41.84-73.834l1.368,5.167c34.433-9.133,65.409,7.769,65.724,7.939l2.602-4.66C110.207-66.145,78.395-83.532,41.84-73.834z
		"/>
	<path d="M146.938-149.502c0.314-0.172,31.287-17.066,65.72-7.94l1.372-5.174c-36.562-9.684-68.364,7.704-69.693,8.447
		L146.938-149.502z"/>
	<path d="M144.336-139.025l2.602,4.673c0.314-0.171,31.287-17.073,65.72-7.933l1.372-5.182
		C177.468-157.156,145.665-139.776,144.336-139.025z"/>
	<path d="M144.336-124.796l2.602,4.674c0.314-0.171,31.287-17.074,65.72-7.947l1.372-5.174
		C177.468-142.92,145.665-125.539,144.336-124.796z"/>
	<path d="M144.336-109.188l2.602,4.667c0.314-0.164,31.287-17.066,65.72-7.933l1.372-5.174
		C177.468-127.326,145.665-109.939,144.336-109.188z"/>
	<path d="M144.336-94.738l2.602,4.681c0.314-0.171,31.287-17.065,65.72-7.939l1.372-5.181
		C177.468-112.854,145.665-95.481,144.336-94.738z"/>
	<path d="M144.336-79.887l2.602,4.667c0.314-0.165,31.287-17.059,65.72-7.933l1.372-5.174
		C177.468-98.011,145.665-80.631,144.336-79.887z"/>
	<path d="M144.336-65.001l2.602,4.659c0.314-0.157,31.287-17.073,65.72-7.933l1.372-5.174
		C177.468-83.132,145.665-65.744,144.336-65.001z"/>
</g>
</svg>
