<?xml version="1.0" encoding="utf-8"?>
<!-- Generator: Adobe Illustrator 16.0.0, SVG Export Plug-In . SVG Version: 6.00 Build 0)  -->
<!DOCTYPE svg PUBLIC "-//W3C//DTD SVG 1.1//EN" "http://www.w3.org/Graphics/SVG/1.1/DTD/svg11.dtd">
<svg version="1.1" xmlns="http://www.w3.org/2000/svg" xmlns:xlink="http://www.w3.org/1999/xlink" x="0px" y="0px"
	 width="253.214px" height="258.285px" viewBox="0 -19.5 253.214 258.285" enable-background="new 0 -19.5 253.214 258.285"
	 xml:space="preserve">
<g id="Capa_1" display="none">
	<g id="_x34__18_" display="inline">
		<g>
			<path fill="#0000FF" d="M103.896,87.164c6.239,0,11.302-5.056,11.302-11.302c0-6.239-5.063-11.302-11.302-11.302
				c-6.238,0-11.302,5.063-11.302,11.302C92.595,82.108,97.658,87.164,103.896,87.164z M149.104,87.164
				c6.238,0,11.302-5.056,11.302-11.302c0-6.239-5.063-11.302-11.302-11.302c-6.239,0-11.302,5.063-11.302,11.302
				C137.802,82.108,142.865,87.164,149.104,87.164z M82.318,160.527c5.862,0.949,19.175,1.982,25.346,1.982
				c54.098,0,90.414-40.258,90.414-87.589c0-47.332-45.38-85.706-90.414-85.706c-54.173,0-97.949,38.374-97.949,85.706
				c0,27.418,10.45,50.7,30.138,67.465v42.728L82.318,160.527z M24.784,75.862c0-39.534,35.812-71.579,82.88-71.579
				c37.469,0,75.345,32.045,75.345,71.579s-29.573,71.578-75.345,71.578c-6.729,0-20.765-0.769-27.026-2.072l-25.715,17.141v-26.702
				C36.545,120.896,24.784,100.975,24.784,75.862z M212.763,58.065c0.144,2.163,0.384,4.302,0.384,6.495
				c0,4.792-0.459,9.486-1.138,14.12c10.141,11.875,16.207,26.499,16.207,42.39c0,25.112-15.008,47.173-37.672,59.945v26.702
				l-25.716-17.141c-6.261,1.304-12.763,2.072-19.492,2.072c-19.514,0-29.882-5.862-44.046-15.611
				c-4.106,0.331-8.258,0.542-12.462,0.542c-2.999,0-5.938-0.218-8.891-0.384c17.932,17.541,36.384,28.639,65.399,28.639
				c6.171,0,12.191-0.558,18.045-1.515l42.231,26.002v-42.736c22.897-15.688,37.672-40.039,37.672-67.465
				C243.285,95.678,231.532,73.684,212.763,58.065z M58.689,87.164c6.239,0,11.302-5.056,11.302-11.302
				c0-6.239-5.063-11.302-11.302-11.302s-11.302,5.063-11.302,11.302C47.388,82.108,52.451,87.164,58.689,87.164z"/>
		</g>
	</g>
</g>
<g id="Capa_1_copy_2" display="none">
	<g id="_x34__4_" display="inline">
		<g>
			<path fill="#00FF00" d="M103.896,87.164c6.239,0,11.302-5.056,11.302-11.302c0-6.239-5.063-11.302-11.302-11.302
				c-6.238,0-11.302,5.063-11.302,11.302C92.595,82.108,97.658,87.164,103.896,87.164z M149.104,87.164
				c6.238,0,11.302-5.056,11.302-11.302c0-6.239-5.063-11.302-11.302-11.302c-6.239,0-11.302,5.063-11.302,11.302
				C137.802,82.108,142.865,87.164,149.104,87.164z M82.318,160.527c5.862,0.949,19.175,1.982,25.346,1.982
				c54.098,0,90.414-40.258,90.414-87.589c0-47.332-45.38-85.706-90.414-85.706c-54.173,0-97.949,38.374-97.949,85.706
				c0,27.418,10.45,50.7,30.138,67.465v42.728L82.318,160.527z M24.784,75.862c0-39.534,35.812-71.579,82.88-71.579
				c37.469,0,75.345,32.045,75.345,71.579s-29.573,71.578-75.345,71.578c-6.729,0-20.765-0.769-27.026-2.072l-25.715,17.141v-26.702
				C36.545,120.896,24.784,100.975,24.784,75.862z M212.763,58.065c0.144,2.163,0.384,4.302,0.384,6.495
				c0,4.792-0.459,9.486-1.138,14.12c10.141,11.875,16.207,26.499,16.207,42.39c0,25.112-15.008,47.173-37.672,59.945v26.702
				l-25.716-17.141c-6.261,1.304-12.763,2.072-19.492,2.072c-19.514,0-29.882-5.862-44.046-15.611
				c-4.106,0.331-8.258,0.542-12.462,0.542c-2.999,0-5.938-0.218-8.891-0.384c17.932,17.541,36.384,28.639,65.399,28.639
				c6.171,0,12.191-0.558,18.045-1.515l42.231,26.002v-42.736c22.897-15.688,37.672-40.039,37.672-67.465
				C243.285,95.678,231.532,73.684,212.763,58.065z M58.689,87.164c6.239,0,11.302-5.056,11.302-11.302
				c0-6.239-5.063-11.302-11.302-11.302s-11.302,5.063-11.302,11.302C47.388,82.108,52.451,87.164,58.689,87.164z"/>
		</g>
	</g>
</g>
<g id="Capa_1_copy">
	<g id="_x34__1_">
		<g>
			<path fill="none" stroke="#000000" stroke-width="3" stroke-miterlimit="10" d="M103.896,87.164
				c6.239,0,11.302-5.056,11.302-11.302c0-6.239-5.063-11.302-11.302-11.302c-6.238,0-11.302,5.063-11.302,11.302
				C92.595,82.108,97.658,87.164,103.896,87.164z M149.104,87.164c6.238,0,11.302-5.056,11.302-11.302
				c0-6.239-5.063-11.302-11.302-11.302c-6.239,0-11.302,5.063-11.302,11.302C137.802,82.108,142.865,87.164,149.104,87.164z
				 M82.318,160.527c5.862,0.949,19.175,1.982,25.346,1.982c54.098,0,90.414-40.258,90.414-87.589
				c0-47.332-45.38-85.706-90.414-85.706c-54.173,0-97.949,38.374-97.949,85.706c0,27.418,10.45,50.7,30.138,67.465v42.728
				L82.318,160.527z M24.784,75.862c0-39.534,35.812-71.579,82.88-71.579c37.469,0,75.345,32.045,75.345,71.579
				s-29.573,71.578-75.345,71.578c-6.729,0-20.765-0.769-27.026-2.072l-25.715,17.141v-26.702
				C36.545,120.896,24.784,100.975,24.784,75.862z M212.763,58.065c0.144,2.163,0.384,4.302,0.384,6.495
				c0,4.792-0.459,9.486-1.138,14.12c10.141,11.875,16.207,26.499,16.207,42.39c0,25.112-15.008,47.173-37.672,59.945v26.702
				l-25.716-17.141c-6.261,1.304-12.763,2.072-19.492,2.072c-19.514,0-29.882-5.862-44.046-15.611
				c-4.106,0.331-8.258,0.542-12.462,0.542c-2.999,0-5.938-0.218-8.891-0.384c17.932,17.541,36.384,28.639,65.399,28.639
				c6.171,0,12.191-0.558,18.045-1.515l42.231,26.002v-42.736c22.897-15.688,37.672-40.039,37.672-67.465
				C243.285,95.678,231.532,73.684,212.763,58.065z M58.689,87.164c6.239,0,11.302-5.056,11.302-11.302
				c0-6.239-5.063-11.302-11.302-11.302s-11.302,5.063-11.302,11.302C47.388,82.108,52.451,87.164,58.689,87.164z"/>
		</g>
	</g>
</g>
</svg>
