<?xml version="1.0" encoding="utf-8"?>
<!-- Generator: Adobe Illustrator 16.0.0, SVG Export Plug-In . SVG Version: 6.00 Build 0)  -->
<!DOCTYPE svg PUBLIC "-//W3C//DTD SVG 1.1//EN" "http://www.w3.org/Graphics/SVG/1.1/DTD/svg11.dtd">
<svg version="1.1" id="Layer_1" xmlns="http://www.w3.org/2000/svg" xmlns:xlink="http://www.w3.org/1999/xlink" x="0px" y="0px"
	 width="250.064px" height="250.63px" viewBox="-6.265 -220.903 250.064 250.63"
	 enable-background="new -6.265 -220.903 250.064 250.63" xml:space="preserve">
<path stroke="#000000" stroke-miterlimit="10" d="M52.605,11.187"/>
<path stroke="#000000" stroke-miterlimit="10" d="M8.563-152.026L8.563-152.026z"/>
<line fill="none" stroke="#000000" stroke-miterlimit="10" x1="72.07" y1="-137.44" x2="82.683" y2="-137.44"/>
<path d="M209.245,10.777c6.84,0,12.59-3.42,16.229-9.6c4.721-8.15,4.721-19.79-0.149-28.38l-1.24-2.18
	c-4.73-8.37-15.71-28-27.061-44.66c-3.859-5.61-7.72-10.85-11.13-15.65c-5.609-7.57-12.52-16.95-12.59-19.79
	c0.44-12.29,0.141-70.79,0.07-79.74h2.04c3.49,0,6.399-2.83,6.399-6.4c0-3.49-2.909-6.33-6.399-6.33h-79.01
	c-3.49,0-6.33,2.84-6.33,6.33c0,3.57,2.84,6.4,6.33,6.4h2.109c-0.149,8.95-0.439,67.45,0,79.74c-0.069,2.84-6.99,12.22-12.59,19.79
	c-1.01,1.46-2.11,2.98-3.27,4.58c-0.141,0.19-0.28,0.39-0.421,0.58v-52.54h4c4.07,0,7.351-3.27,7.351-7.34
	c0-4.08-3.28-7.35-7.351-7.35h-70.35c-4,0-7.35,3.27-7.35,7.35c0,4.07,3.35,7.34,7.35,7.34h4.07v115.47
	c0,7.63,6.319,32.42,32.649,32.79 M53.665,11.247 M71.615-95.453h-41.03v-41.62h41.03V-95.453z M83.525-68.153
	c3.79-5.53,7.5-10.63,10.921-15.28c9.739-13.24,14.76-20.45,14.619-26.41c-0.359-10.91-0.22-68.17-0.069-79.16l53.899-0.14
	c0.07,10.98,0.301,68.39-0.069,79.3c-0.221,5.96,4.81,13.17,14.55,26.41c3.42,4.65,7.13,9.75,10.92,15.28
	c1.82,2.69,3.63,5.45,5.38,8.22H78.145C79.895-62.703,81.715-65.463,83.525-68.153z"/>
</svg>
