<?xml version="1.0" encoding="utf-8"?>
<!-- Generator: Adobe Illustrator 16.0.0, SVG Export Plug-In . SVG Version: 6.00 Build 0)  -->
<!DOCTYPE svg PUBLIC "-//W3C//DTD SVG 1.1//EN" "http://www.w3.org/Graphics/SVG/1.1/DTD/svg11.dtd">
<svg version="1.1" id="Capa_1" xmlns="http://www.w3.org/2000/svg" xmlns:xlink="http://www.w3.org/1999/xlink" x="0px" y="0px"
	 width="250.5px" height="250.5px" viewBox="0 0 250.5 250.5" enable-background="new 0 0 250.5 250.5" xml:space="preserve">
<g>
	<path fill="none" stroke="#000000" stroke-width="3" stroke-miterlimit="10" d="M22.096,95.079
		c1.223,4.193,2.919,8.236,5.066,12.03l-6.114,7.711c-1.997,2.52-1.771,6.114,0.474,8.386l10.532,10.531
		c2.271,2.271,5.864,2.47,8.385,0.475l7.662-6.065c3.942,2.271,8.135,4.043,12.503,5.291l1.147,9.858
		c0.375,3.194,3.07,5.59,6.264,5.59h14.899c3.194,0,5.89-2.396,6.264-5.59l1.098-9.509c4.693-1.223,9.185-3.044,13.403-5.415
		l7.412,5.864c2.52,1.997,6.114,1.772,8.385-0.474l10.532-10.531c2.271-2.271,2.471-5.864,0.475-8.386l-5.766-7.312
		c2.396-4.143,4.268-8.56,5.515-13.177l8.885-1.023c3.194-0.375,5.589-3.069,5.589-6.264V72.169c0-3.194-2.395-5.89-5.589-6.263
		l-8.761-1.024c-1.197-4.566-2.995-8.934-5.29-13.027l5.39-6.813c1.997-2.521,1.772-6.114-0.475-8.385L119.476,26.15
		c-2.271-2.271-5.865-2.471-8.385-0.474l-6.614,5.241c-4.292-2.521-8.885-4.442-13.702-5.74l-0.998-8.561
		c-0.374-3.193-3.07-5.589-6.264-5.589H68.615c-3.195,0-5.89,2.396-6.265,5.589l-0.998,8.561c-4.941,1.322-9.658,3.318-14.051,5.939
		l-6.862-5.44c-2.521-1.997-6.115-1.772-8.385,0.474L21.522,36.681c-2.271,2.271-2.471,5.865-0.474,8.386l5.74,7.263
		c-2.296,4.143-4.042,8.559-5.191,13.151l-9.184,1.049c-3.195,0.375-5.59,3.069-5.59,6.263v14.899c0,3.194,2.396,5.89,5.59,6.264
		L22.096,95.079z M76.076,54.775c13.577,0,24.633,11.056,24.633,24.631c0,13.576-11.056,24.632-24.633,24.632
		c-13.575,0-24.631-11.056-24.631-24.632C51.445,65.831,62.501,54.775,76.076,54.775z"/>
	<path fill="none" stroke="#000000" stroke-width="3" stroke-miterlimit="10" d="M223.37,98.748l-7.861-6.638
		c-2.421-2.047-5.99-1.948-8.286,0.225l-4.342,4.067c-3.668-1.772-7.562-3.02-11.58-3.744l-1.223-5.99
		c-0.624-3.094-3.495-5.24-6.638-4.991l-10.258,0.874c-3.145,0.275-5.615,2.846-5.715,6.014l-0.199,6.09
		c-3.943,1.423-7.662,3.369-11.055,5.815l-5.192-3.444c-2.645-1.748-6.163-1.249-8.21,1.172l-6.638,7.912
		c-2.046,2.421-1.947,5.99,0.224,8.286l4.542,4.84c-1.572,3.544-2.696,7.263-3.345,11.082l-6.488,1.323
		c-3.094,0.624-5.241,3.493-4.991,6.638l0.874,10.257c0.275,3.145,2.845,5.615,6.014,5.715l7.014,0.225
		c1.272,3.344,2.945,6.514,4.966,9.483l-3.917,5.915c-1.747,2.645-1.249,6.165,1.173,8.21l7.861,6.639
		c2.421,2.046,5.989,1.946,8.286-0.224l5.141-4.817c3.369,1.572,6.913,2.746,10.557,3.444l1.423,7.038
		c0.623,3.095,3.494,5.241,6.638,4.992l10.257-0.874c3.144-0.274,5.615-2.845,5.715-6.015l0.225-6.888
		c3.744-1.322,7.288-3.119,10.557-5.34l5.665,3.744c2.646,1.747,6.165,1.247,8.211-1.173l6.638-7.861
		c2.047-2.421,1.947-5.989-0.224-8.286l-4.567-4.841c1.672-3.544,2.895-7.288,3.594-11.13l6.239-1.273
		c3.094-0.624,5.242-3.494,4.992-6.638l-0.874-10.258c-0.275-3.144-2.846-5.615-6.014-5.715l-6.265-0.2
		c-1.297-3.644-3.044-7.087-5.216-10.282l3.419-5.141C226.29,104.339,225.791,100.794,223.37,98.748z M184.712,158.045
		c-11.08,0.948-20.863-7.313-21.787-18.393c-0.949-11.081,7.312-20.863,18.393-21.787c11.081-0.949,20.864,7.313,21.787,18.393
		C204.053,147.339,195.793,157.122,184.712,158.045z"/>
	<path fill="none" stroke="#000000" stroke-width="3" stroke-miterlimit="10" d="M57.984,185.647
		c-3.145,0.324-5.565,2.969-5.591,6.139l-0.075,6.313c-0.05,3.169,2.296,5.865,5.44,6.265l4.642,0.599
		c0.773,2.82,1.872,5.515,3.295,8.061l-2.995,3.693c-1.998,2.47-1.848,6.014,0.374,8.286l4.417,4.517
		c2.222,2.271,5.765,2.52,8.287,0.574l3.717-2.87c2.621,1.547,5.392,2.771,8.287,3.618l0.499,4.792
		c0.324,3.145,2.97,5.564,6.139,5.59l6.314,0.075c3.169,0.049,5.865-2.296,6.264-5.441l0.574-4.542
		c3.145-0.774,6.14-1.946,8.984-3.493l3.495,2.82c2.47,1.997,6.014,1.846,8.286-0.375l4.517-4.417
		c2.272-2.222,2.521-5.766,0.575-8.287l-2.671-3.469c1.647-2.745,2.92-5.665,3.793-8.735l4.143-0.424
		c3.145-0.324,5.565-2.971,5.59-6.14l0.075-6.314c0.05-3.169-2.296-5.865-5.44-6.264l-4.044-0.525
		c-0.773-3.043-1.92-5.988-3.419-8.734l2.521-3.095c1.997-2.472,1.848-6.014-0.374-8.286l-4.417-4.517
		c-2.222-2.271-5.766-2.521-8.286-0.574l-3.02,2.321c-2.845-1.722-5.89-3.045-9.083-3.943l-0.4-3.918
		c-0.324-3.145-2.969-5.566-6.139-5.591l-6.314-0.075c-3.169-0.05-5.865,2.296-6.264,5.44l-0.5,3.894
		c-3.294,0.849-6.463,2.146-9.409,3.843l-3.119-2.546c-2.471-1.996-6.015-1.846-8.286,0.375l-4.542,4.442
		c-2.271,2.222-2.521,5.766-0.574,8.287l2.67,3.444c-1.547,2.745-2.77,5.665-3.569,8.734L57.984,185.647z M98.737,178.509
		c9.059,0.1,16.321,7.562,16.222,16.622c-0.1,9.059-7.562,16.32-16.621,16.222c-9.06-0.101-16.322-7.562-16.222-16.622
		C82.216,185.672,89.678,178.409,98.737,178.509z"/>
</g>
</svg>
