<?xml version="1.0" encoding="utf-8"?>
<!-- Generator: Adobe Illustrator 16.0.0, SVG Export Plug-In . SVG Version: 6.00 Build 0)  -->
<!DOCTYPE svg PUBLIC "-//W3C//DTD SVG 1.1//EN" "http://www.w3.org/Graphics/SVG/1.1/DTD/svg11.dtd">
<svg version="1.1" id="Layer_1" xmlns="http://www.w3.org/2000/svg" xmlns:xlink="http://www.w3.org/1999/xlink" x="0px" y="0px"
	 width="253.5px" height="250.5px" viewBox="0 -218.5 253.5 250.5" enable-background="new 0 -218.5 253.5 250.5"
	 xml:space="preserve">
<g id="globe-2">
	<polygon fill="none" stroke="#000000" stroke-width="3" stroke-miterlimit="10" points="107.251,-165.709 107.251,-165.492 
		107.378,-165.654 	"/>
	<path fill="none" stroke="#000000" stroke-width="3" stroke-miterlimit="10" d="M127.127-208.472
		c-63.499,0-115.169,51.662-115.169,115.168c0,63.507,51.67,115.165,115.169,115.165c63.502,0,115.176-51.65,115.176-115.165
		C242.303-156.81,190.629-208.472,127.127-208.472z M232.34-93.304c0,2.017-0.175,3.985-0.302,5.979
		c-0.73-1.87-1.857-4.312-2.128-5.359c-0.381-1.591-2.77-7.145-2.77-7.145s-2.382-3.171-3.962-3.969
		c-1.581-0.794-2.779-2.779-5.558-4.355c-2.778-1.595-3.953-2.382-6.335-2.382s-4.747-3.179-7.542-4.763
		c-2.778-1.579-3.168-0.79-3.168-0.79s3.168,4.755,3.168,5.942c0,1.187,3.557,3.171,7.145,2.374c0,0,2.382,4.366,3.564,5.553
		c1.184,1.187-0.404,2.382-2.771,3.966c-2.381,1.576-1.984,1.187-3.191,2.373c-1.19,1.188-5.144,3.188-6.335,3.97
		c-1.19,0.786-5.945,3.167-8.32,0.786c-1.158-1.143-0.81-3.561-1.587-5.152c-0.794-1.587-9.114-13.877-13.084-19.422
		c-0.698-0.977-2.382-3.982-3.563-4.755c-1.184-0.806,2.786-0.806,2.786-0.806s0-2.779-0.405-4.756
		c-0.405-1.985,0.405-4.755,0.405-4.755s-3.97,2.373-5.177,3.171c-1.175,0.798-2.373-1.576-3.953-3.568
		c-1.588-1.978-3.176-4.367-3.564-6.351c-0.405-1.973,1.977-2.771,1.977-2.771l3.564-1.976c0,0,4.367-0.786,7.153-0.397
		c2.763,0.397,7.129,0.798,7.129,0.798s1.183-2.783-0.405-3.97c-1.58-1.187-5.159-3.171-6.747-2.77
		c-1.581,0.388,0.785-1.985,2.77-3.569l-4.397-0.798c0,0-3.985,1.985-5.185,2.382c-1.183,0.389-3.247,1.187-4.842,3.171
		c-1.581,1.985,0.626,4.755-0.953,5.553c-1.58,0.793-2.651,1.187-3.85,1.575c-1.184,0.397-4.954,0-4.954,0
		c-4.097,0-1.478,3.74-0.405,5.065l-3.168-3.87l-2.35-5.545c0,0-3.382-2.374-4.97-3.16c-1.588-0.798-6.47-3.573-6.47-3.573
		l0.342,3.573l4.588,4.648l0.412,0.107l2.382,3.167l-5.271,0.401v-3.139c-4.969-1.203-3.675-2.438-4.238-2.818
		c-1.175-0.79-3.93-2.783-3.93-2.783s-4.669,0.798-5.863,1.195s-1.529,1.588-3.894,2.374c-2.39,0.798-3.462,1.985-4.252,3.171
		s-3.374,4.755-4.942,6.339c-1.595,1.595-4.536,1.187-5.724,1.187c-1.194,0-6.919-1.584-6.919-1.584v-6.724
		c0,0,0.774-3.771,0.385-4.958l3.47-0.583l5.796-1.199l1.699-1.191l2.441-3.172c0,0-2.743-1.985-0.768-4.755
		c0.953-1.334,4.375-1.588,5.959-2.775c1.579-1.187,3.977-1.981,3.977-1.981s2.779-2.377,5.554-5.156c0,0,1.981-1.195,4.358-1.993
		c0,0,6.748,5.954,7.938,5.954c1.191,0,5.558-2.775,5.558-2.775s1.184-3.56,0.794-4.755c-0.397-1.187-2.382-5.153-2.382-5.153
		s-1.19,1.981-2.373,3.569c-1.184,1.584-1.985,3.569-1.985,3.569s-5.55-0.385-5.945-1.568c-0.405-1.199-1.184-3.156-1.588-4.334
		c-0.381-1.194-3.565-1.155-5.931-0.357c-2.39,0.794,0.385-4.275,0.385-4.275s2.39-2.993,3.966-2.993
		c1.58,0,5.169-2.032,6.732-2.422c1.595-0.401,6.358-2.211,8.327-2.211c1.985,0,4.367,0.854,5.565,0.854s5.946,0,5.946,0
		l8.311-0.667c0,0,7.146,2.64,4.756,4.235c0,0,2.795,1.714,3.978,2.901c1.111,1.12,3.993-1.032,5.645-1.953
		C212.509-163.784,232.34-130.85,232.34-93.304z M43.166-155.346c0,1.584-2.164,1.969,0,5.951c2.767,5.156,0.392,7.538,0.392,7.538
		s-6.748,4.755-7.935,5.553c-1.187,0.794-4.358,5.153-2.382,3.958c1.981-1.187,4.355-2.374,2.382,0.798
		c-1.984,3.176-5.553,8.324-6.343,10.313c-0.785,1.993-4.756,6.74-4.756,9.122s-1.583,7.145-1.187,9.13
		c0.271,1.381-0.607,5.453-1.302,7.129c0.54-22.289,8.042-42.834,20.431-59.637C42.871-155.453,43.166-155.346,43.166-155.346z
		 M55.903-170.548c9.7-8.951,21.065-16.088,33.602-20.915c-1.235,1.583-2.731,3.211-2.731,3.211s-2.774-0.008-7.935,5.553
		c-5.148,5.549-3.962,3.965-5.148,5.541c-1.188,1.58-0.794,1.985-3.577,3.978c-2.763,1.973-3.957,4.358-3.957,4.358l-4.367,1.583
		l-3.56-1.583c0,0-3.188,1.191-2.787-0.401C55.555-169.643,55.725-170.084,55.903-170.548z M103.429-161.295l-1.576-2.374
		l1.576-3.569l3.822,1.529v-7.082l3.648-1.977l3.032,4.358l4.668,5.161l-3.1,2.377l-8.256,1.584v-4.204L103.429-161.295z
		 M154.984-124.022c0.929-0.73,3.961,1.187,3.961,1.187s9.907,1.985,11.495,3.171c1.596,1.195,4.358,1.993,5.161,3.184
		c0.801,1.19,3.563,4.759,3.952,5.945c0.405,1.188,2.391,5.558,2.787,7.138c0.397,1.583,1.588,5.549,2.771,7.534
		c1.184,1.993,7.932,10.709,10.313,14.679l7.146-1.19c0,0-0.794,3.556-1.588,4.755c-0.794,1.183-3.176,4.358-4.358,5.946
		c-1.199,1.58-2.771,3.961-5.152,5.938c-2.373,1.977-2.391,3.961-3.572,5.557c-1.183,1.58-2.779,5.145-2.779,5.145
		s0.794,7.938,1.191,9.526c0.389,1.587-2.779,5.938-2.779,5.938l-3.572,3.581l-4.779,6.327l0.39,5.947c0,0-3.612,2.786-5.598,4.366
		c-1.969,1.58-1.667,2.771-3.247,4.367c-1.579,1.579-7.779,4.358-9.367,4.755c-1.579,0.397-10.329,1.588-10.329,1.588v-3.564
		l-0.182-3.962c0,0-1.199-4.763-2.397-6.351c-1.199-1.579-0.676-3.969-2.66-5.946c-1.983-1.984-2.714-3.565-3.112-4.763
		c-0.396-1.184,0.43-4.748,0.43-4.748s1.603-4.366,2.396-5.947c0.794-1.587,0-3.961-0.794-5.557
		c-0.793-1.588-1.175-5.557-1.175-6.74c0-1.183-3.19-3.175-4.382-4.366c-1.183-1.183-0.777-2.779-0.777-4.342
		c0-1.604-1.191-5.168-0.802-7.947c0.396-2.771-3.561-0.802-5.942,0s-3.957-0.802-3.957-3.183c0-2.382-4.359-0.381-7.142,1.19
		c-2.787,1.588-5.95,1.588-9.138,2.779c-3.16,1.191-4.739-1.183-4.739-1.183s-2.787-2.374-4.756-3.572
		c-1.988-1.183-3.974-3.557-5.564-5.542c-1.581-1.993-5.554-7.942-5.938-10.308c-0.397-2.39,0-3.982,0-6.756
		c0-2.771,0-4.358,0.393-6.339c0.397-1.984,1.584-4.366,2.779-6.351c1.186-1.984,5.553-4.358,6.731-5.152
		c1.187-0.79,3.965-3.164,3.965-4.756c0-1.588,1.597-2.373,2.375-3.969c0.806-1.583,3.576-5.542,7.148-3.958
		c0,0,3.159-0.393,4.347-0.79s4.357-1.576,5.926-2.373c1.588-0.794,5.538-1.171,5.538-1.171s3.119,1.247,4.307,1.247
		c1.187,0,5.057-0.695,5.057-0.695s1.795,5.748,1.795,6.946c0,1.195,1.183,2.374,3.176,3.168
		C141.885-122.836,151.015-120.843,154.984-124.022z M200.584-46.302c0,1.191-0.396,4.366-0.793,5.954
		c-0.413,1.588-1.199,4.366-1.588,5.938c-0.397,1.588-2.382,4.764-3.557,5.558c-1.191,0.793-3.185,3.175-4.367,3.572
		c-1.182,0.397-1.984-2.786-1.587-4.366c0.405-1.588,2.381-5.946,2.381-5.946s0.397-2.374,0.787-3.962
		c0.404-1.588,5.167-3.564,5.167-3.564l3.176-5.954C200.188-49.081,200.584-47.477,200.584-46.302z M24.624-69.928
		c0.512,0.135,1.242,0.508,2.274,1.429c1.496,1.302,2.382,1.969,4.366,2.771c1.977,0.802,2.771,1.977,5.152,3.168
		c2.382,1.199,1.596,0.413,4.756,3.969c3.179,3.557,2.782,3.557,3.572,5.557c0.785,1.985,1.981,3.953,2.778,5.16
		c0.798,1.191,3.172,1.969,4.358,2.771c1.187,0.801,3.168,1.579,4.354,1.579c1.195,0,4.768,3.573,6.749,3.97
		c1.983,0.397,1.983,4.366,1.983,4.366l-1.983,5.542l-1.593,5.947l1.593,4.755c0,0-2.391,1.993-3.959,1.993
		c-1.464,0-1.96,0.928-3.56,0.483C40.347-30.583,29.379-49.049,24.624-69.928z"/>
</g>
</svg>
