<?xml version="1.0" encoding="utf-8"?>
<!-- Generator: Adobe Illustrator 16.0.0, SVG Export Plug-In . SVG Version: 6.00 Build 0)  -->
<!DOCTYPE svg PUBLIC "-//W3C//DTD SVG 1.1//EN" "http://www.w3.org/Graphics/SVG/1.1/DTD/svg11.dtd">
<svg version="1.1" id="Layer_1" xmlns="http://www.w3.org/2000/svg" xmlns:xlink="http://www.w3.org/1999/xlink" x="0px" y="0px"
	 width="249.951px" height="250.095px" viewBox="-137.5 -260.5 249.951 250.095"
	 enable-background="new -137.5 -260.5 249.951 250.095" xml:space="preserve">
<path d="M40.877-27.849v8.926H-66.242v-8.926c0-4.917,4.01-8.927,8.926-8.927h17.972c0.47-11.141,7.701-20.443,17.735-24.008
	v-104.652c-4.703-2.973-7.854-8.186-7.854-14.166h7.854h17.853h7.854c0,5.98-3.146,11.193-7.854,14.166v104.652
	c10.034,3.565,17.261,12.867,17.732,24.008H31.95C36.867-36.776,40.877-32.766,40.877-27.849z M103.363-108.189
	C96.825-89.76,79.391-76.475,58.731-76.475c-20.661,0-38.097-13.302-44.635-31.714h10.305l30.153-79.921
	c1.299-3.478,7.035-3.478,8.351,0l30.154,79.921H103.363z M83.522-108.189l-24.791-65.698l-24.793,65.698H83.522z M-84.096-197.368
	c4.045,0,7.336-2.703,8.483-6.373c2.951-1.125,5.98-2.642,9.083-4.21c6.83-3.448,14.571-7.358,22.604-7.358
	c7.711,0,12.531,3.562,15.291,6.599c-0.104,0.767-0.231,1.535-0.231,2.328c0,8.935,7.249,16.184,16.184,16.184
	c8.936,0,16.18-7.249,16.18-16.184c0-0.793-0.123-1.552-0.228-2.319c2.755-3.029,7.567-6.607,15.291-6.607
	c8.038,0,15.778,3.91,22.596,7.358c3.11,1.569,6.137,3.085,9.091,4.21c1.144,3.67,4.439,6.373,8.484,6.373
	c4.984,0,9.012-4.032,9.012-9.014c0-4.982-4.027-9.014-9.012-9.014c-2.573,0-4.865,1.107-6.504,2.838
	c-2.215-0.929-4.595-2.119-7.044-3.357c-7.715-3.901-16.459-8.32-26.623-8.32c-8.893,0-15.081,3.382-19.292,7.026
	c-1.883-2.08-4.297-3.635-7.035-4.516c3.331-1.787,5.667-5.187,5.667-9.214c0-5.849-10.583-19.497-10.583-19.497
	s-10.586,13.647-10.586,19.497c0,4.036,2.34,7.427,5.67,9.214c-2.742,0.872-5.152,2.436-7.035,4.516
	c-4.207-3.644-10.4-7.026-19.292-7.026c-10.168,0-18.917,4.419-26.627,8.32c-2.455,1.238-4.83,2.428-7.035,3.348
	c-1.644-1.722-3.936-2.829-6.508-2.829c-4.98,0-9.013,4.032-9.013,9.014C-93.109-201.399-89.077-197.368-84.096-197.368z
	 M-84.096-76.475c-20.664,0-38.09-13.302-44.632-31.714h10.3l30.158-79.921c1.303-3.478,7.039-3.478,8.351,0l30.159,79.921h10.3
	C-46.005-89.777-63.43-76.475-84.096-76.475z M-59.308-108.189l-24.789-65.698l-24.788,65.698H-59.308z"/>
</svg>
