<?xml version="1.0" encoding="utf-8"?>
<!-- Generator: Adobe Illustrator 16.0.0, SVG Export Plug-In . SVG Version: 6.00 Build 0)  -->
<!DOCTYPE svg PUBLIC "-//W3C//DTD SVG 1.1//EN" "http://www.w3.org/Graphics/SVG/1.1/DTD/svg11.dtd">
<svg version="1.1" xmlns="http://www.w3.org/2000/svg" xmlns:xlink="http://www.w3.org/1999/xlink" x="0px" y="0px"
	 width="252.232px" height="252.26px" viewBox="0 0 252.232 252.26" enable-background="new 0 0 252.232 252.26"
	 xml:space="preserve">
<g id="Layer_2">
	<linearGradient id="SVGID_1_" gradientUnits="userSpaceOnUse" x1="13.6082" y1="32.5667" x2="239.9973" y2="207.5662">
		<stop  offset="0" style="stop-color:#626262"/>
		<stop  offset="0.0132" style="stop-color:#5D5D5D"/>
		<stop  offset="0.1014" style="stop-color:#404040"/>
		<stop  offset="0.2003" style="stop-color:#292929"/>
		<stop  offset="0.3125" style="stop-color:#161616"/>
		<stop  offset="0.4459" style="stop-color:#0A0A0A"/>
		<stop  offset="0.6212" style="stop-color:#020202"/>
		<stop  offset="1" style="stop-color:#000000"/>
	</linearGradient>
	<path fill="url(#SVGID_1_)" d="M252.579,179.385c0,21.65-18.754,39.203-41.888,39.203H42.233
		c-23.133,0-41.886-17.553-41.886-39.203V60.222c0-21.651,18.753-39.203,41.886-39.203h168.458
		c23.134,0,41.888,17.552,41.888,39.203V179.385z"/>
</g>
<g id="Layer_1">
	<g id="Layer_1_1_">
	</g>
	<g id="Layer_1_copy">
	</g>
	<g id="Layer_1_copy_2">
		<g>
			<path fill="#0000FF" d="M116.824,81.456H91.072v3h25.752V81.456 M17.905,51.92h-3v32.536h31.752v115.248h38.415v-3H49.657V81.456
				H17.905V51.92"/>
			<path fill="#0000FF" d="M140.539,155.8l-16.464,30.968c15.092,10.584,33.32,16.856,51.939,16.856
				c14.896,0,30.38-4.116,41.942-13.916c1.354-1.149,2.601-2.37,3.741-3.647c-0.243,0.219-0.49,0.436-0.741,0.647
				c-11.563,9.8-27.048,13.916-41.942,13.916c-18.619,0-36.85-6.272-51.939-16.856l14.426-27.134
				C141.178,156.356,140.858,156.079,140.539,155.8 M189.403,77.144c-3.822,0-8.335,1.208-11.668,3.624
				c-0.383,0.55-0.713,1.134-0.982,1.752c3.01-1.584,6.558-2.376,9.65-2.376c9.407,0,18.424,3.92,25.479,9.8l1.97-3.835
				C206.958,80.695,198.358,77.144,189.403,77.144 M145.167,60.774c-9.544,8.675-15.212,21.366-15.212,36.813
				c0,28.616,15.876,34.889,39.984,41.748c8.229,2.352,23.323,6.076,23.323,16.854c0,2.388-0.509,4.463-1.396,6.246
				c0.673-0.369,1.316-0.775,1.922-1.227c1.548-2.133,2.477-4.792,2.477-8.021c0-10.778-15.094-14.504-23.323-16.854
				c-24.108-6.859-39.984-13.132-39.984-41.748C132.955,80.837,137.448,69.269,145.167,60.774"/>
			<path fill="#00FF00" d="M88.072,193.703h-3v3h3V193.703 M119.824,78.456h-3v3h3V78.456 M20.905,48.92h-3v3h3V48.92"/>
			<path fill="#00FFFF" d="M116.824,78.456H91.072v3h25.752V78.456 M20.905,51.92h-3v29.536h31.752v115.248h35.415v-3H52.657V78.456
				H20.905V51.92"/>
			<path fill="#00FF00" d="M224.701,183.059c-0.243,0.219-0.491,0.437-0.742,0.648c-0.295,0.25-0.593,0.496-0.893,0.737
				c-0.438,0.55-0.896,1.087-1.366,1.615C222.771,185.104,223.771,184.1,224.701,183.059 M143.539,152.8l-2.038,3.833
				c0.321,0.274,0.646,0.548,0.972,0.819l2.028-3.819C144.178,153.356,143.858,153.079,143.539,152.8 M215.801,82.309l-1.948,3.8
				c0.349,0.273,0.691,0.553,1.03,0.835l1.97-3.835C216.505,82.837,216.155,82.571,215.801,82.309 M148.168,57.773
				c-1.048,0.953-2.049,1.954-3.001,3.001c0.524-0.477,1.063-0.943,1.611-1.396C147.229,58.831,147.692,58.296,148.168,57.773"/>
			<path fill="#00FFFF" d="M141.501,156.633l-14.426,27.135c15.092,10.584,33.32,16.855,51.939,16.855
				c14.896,0,30.38-4.116,41.942-13.916c0.251-0.213,0.498-0.431,0.741-0.646c0.473-0.528,0.928-1.065,1.366-1.615
				c-11.461,9.271-26.535,13.179-41.052,13.179c-18.619,0-36.85-6.271-51.939-16.855l12.396-23.314
				C142.146,157.181,141.822,156.908,141.501,156.633 M192.403,74.144c-5.168,0-11.597,2.208-14.668,6.624
				c3.333-2.416,7.846-3.624,11.668-3.624c8.955,0,17.555,3.551,24.447,8.965l1.948-3.8
				C209.095,77.348,200.908,74.144,192.403,74.144 M146.778,59.378c-0.548,0.452-1.087,0.919-1.611,1.396
				c-7.719,8.495-12.212,20.063-12.212,33.813c0,28.616,15.876,34.889,39.984,41.748c8.229,2.352,23.323,6.076,23.323,16.854
				c0,3.229-0.929,5.888-2.477,8.021c3.278-2.43,5.477-6.053,5.477-11.021c0-10.778-15.094-14.504-23.323-16.854
				c-24.108-6.859-39.984-13.132-39.984-41.748C135.955,78.682,139.911,67.701,146.778,59.378"/>
			<path fill="#FF0000" d="M91.072,84.456h-3v109.248h3V84.456 M122.824,45.92H20.905v3h98.919v29.536h3V45.92"/>
			<polyline fill="#FF00FF" points="91.072,81.456 88.072,81.456 88.072,84.456 91.072,84.456 91.072,81.456 			"/>
			<path fill="#FFFF00" d="M88.072,84.456h-3v109.248h3V84.456 M119.824,48.92H20.905v3h95.919v26.536h3V48.92"/>
			<polyline fill="#FFFFFF" points="116.824,51.92 20.905,51.92 20.905,78.456 52.657,78.456 52.657,193.703 85.072,193.703 
				85.072,84.456 88.072,84.456 88.072,81.456 91.072,81.456 91.072,78.456 116.824,78.456 116.824,51.92 			"/>
			<path fill="#FF0000" d="M146.539,149.8l-2.038,3.833c9.398,8.042,20.446,14.455,33.144,14.455c4.705,0,9.567-1.229,13.146-3.877
				c0.402-0.557,0.766-1.147,1.077-1.774c-3.299,1.807-7.315,2.651-11.224,2.651C167.511,165.088,156.144,158.228,146.539,149.8
				 M176.753,82.52c-0.706,0.372-1.384,0.788-2.018,1.248c-1.122,1.613-1.796,3.522-1.796,5.726
				c0,8.624,10.388,11.955,17.052,14.111l9.8,2.94c20.58,6.076,36.456,16.464,36.456,40.376c0,13.007-2.763,26.321-11.546,36.14
				c11.167-9.992,14.546-24.753,14.546-39.14c0-23.912-15.876-34.3-36.456-40.376l-9.8-2.94
				c-6.664-2.156-17.052-5.487-17.052-14.111C175.939,85.04,176.232,83.716,176.753,82.52 M186.915,42
				c-16.021,0-29.633,5.745-38.747,15.771C157.151,49.606,169.565,45,183.915,45c14.896,0,33.124,4.704,46.256,12.151
				l-13.318,25.957c0.349,0.273,0.69,0.553,1.03,0.835l15.288-29.792C220.039,46.704,201.811,42,186.915,42"/>
			<path fill="#FF00FF" d="M193.788,161.211c-0.604,0.449-1.249,0.855-1.922,1.226c-0.313,0.627-0.675,1.22-1.077,1.774
				C191.938,163.36,192.953,162.362,193.788,161.211 M177.735,80.767c-1.174,0.852-2.2,1.851-3,3
				c0.634-0.459,1.312-0.875,2.018-1.248C177.022,81.901,177.353,81.317,177.735,80.767"/>
			<path fill="#FFFF00" d="M144.501,153.633l-2.028,3.819c9.187,7.653,19.908,13.636,32.172,13.636
				c6.216,0,12.711-2.145,16.146-6.877c-3.577,2.648-8.439,3.877-13.146,3.877C164.947,168.088,153.899,161.675,144.501,153.633
				 M174.735,83.767c-2.82,2.044-4.796,4.952-4.796,8.726c0,8.623,10.388,11.955,17.052,14.111l9.8,2.94
				c20.58,6.076,36.456,16.464,36.456,40.376c0,12.308-2.473,24.891-10.181,34.524c0.3-0.241,0.598-0.487,0.893-0.737
				c0.251-0.213,0.499-0.431,0.742-0.648c8.783-9.816,11.546-23.133,11.546-36.14c0-23.912-15.876-34.3-36.456-40.376l-9.8-2.94
				c-6.664-2.156-17.052-5.488-17.052-14.111C172.939,87.289,173.613,85.381,174.735,83.767 M183.915,45
				c-14.35,0-26.764,4.606-35.747,12.771c-0.476,0.523-0.938,1.06-1.39,1.605c8.831-7.294,20.625-11.378,34.137-11.378
				c14.896,0,33.124,4.704,46.256,12.151l-11.369,22.157c0.354,0.262,0.703,0.528,1.051,0.8l13.318-25.957
				C217.039,49.704,198.811,45,183.915,45"/>
			<path fill="#FFFFFF" d="M180.915,48c-13.512,0-25.306,4.084-34.137,11.378c-6.867,8.323-10.823,19.304-10.823,32.209
				c0,28.616,15.876,34.889,39.984,41.748c8.229,2.352,23.323,6.076,23.323,16.854c0,4.968-2.196,8.591-5.477,11.021
				c-0.835,1.149-1.851,2.147-2.999,3c-3.436,4.733-9.931,6.877-16.146,6.877c-12.264,0-22.985-5.98-32.172-13.636l-12.396,23.313
				c15.092,10.584,33.32,16.856,51.939,16.856c14.517,0,29.591-3.909,41.052-13.178c7.708-9.637,10.181-22.22,10.181-34.525
				c0-23.912-15.876-34.3-36.456-40.376l-9.8-2.94c-6.664-2.156-17.052-5.488-17.052-14.112c0-3.772,1.976-6.681,4.796-8.725
				c0.8-1.15,1.826-2.149,3-3c3.071-4.416,9.5-6.624,14.668-6.624c8.505,0,16.689,3.205,23.396,8.165l11.37-22.157
				C214.039,52.704,195.811,48,180.915,48"/>
		</g>
	</g>
</g>
</svg>
