<?xml version="1.0" encoding="utf-8"?>
<!-- Generator: Adobe Illustrator 16.0.0, SVG Export Plug-In . SVG Version: 6.00 Build 0)  -->
<!DOCTYPE svg PUBLIC "-//W3C//DTD SVG 1.1//EN" "http://www.w3.org/Graphics/SVG/1.1/DTD/svg11.dtd">
<svg version="1.1" id="Layer_2" xmlns="http://www.w3.org/2000/svg" xmlns:xlink="http://www.w3.org/1999/xlink" x="0px" y="0px"
	 width="252.232px" height="252.26px" viewBox="0 0 252.232 252.26" enable-background="new 0 0 252.232 252.26"
	 xml:space="preserve">
<g id="Layer_1_copy_2_2_">
	<g id="Layer_1_3_">
	</g>
	<g id="Layer_1_copy_2_">
	</g>
	<path fill="#FF0000" d="M116.825,81.457H91.072v3h25.753V81.457 M17.904,51.921h-3v32.536h31.753v115.248h38.416v-3H49.657V81.457
		H17.904V51.921"/>
	<path fill="#FF0000" d="M140.539,155.8l-16.464,30.97c15.091,10.584,33.319,16.854,51.938,16.854
		c14.896,0,30.381-4.116,41.943-13.916c1.354-1.151,2.6-2.371,3.744-3.647c-0.246,0.219-0.492,0.434-0.744,0.647
		c-11.564,9.8-27.047,13.916-41.943,13.916c-18.619,0-36.848-6.271-51.938-16.854l14.427-27.136
		C141.177,156.357,140.857,156.08,140.539,155.8 M189.402,77.145c-3.822,0-8.336,1.208-11.668,3.624
		c-0.385,0.55-0.715,1.134-0.982,1.752c3.008-1.584,6.555-2.376,9.65-2.376c9.408,0,18.424,3.92,25.48,9.8l1.967-3.835
		C206.957,80.696,198.359,77.145,189.402,77.145 M145.168,60.774c-9.545,8.675-15.213,21.367-15.213,36.814
		c0,28.616,15.875,34.888,39.982,41.748c8.232,2.354,23.324,6.076,23.324,16.855c0,2.388-0.508,4.463-1.396,6.244
		c0.674-0.367,1.316-0.775,1.924-1.226c1.547-2.134,2.473-4.792,2.473-8.019c0-10.781-15.092-14.504-23.324-16.856
		c-24.105-6.858-39.982-13.132-39.982-41.748C132.955,80.836,137.447,69.269,145.168,60.774"/>
	<path fill="#00FF00" d="M88.072,193.704h-3v3h3V193.704 M119.825,78.457h-3v3h3V78.457 M20.904,48.921h-3v3h3V48.921"/>
	<path fill="#FFFF00" d="M116.825,78.457H91.072v3h25.753V78.457 M20.904,51.921h-3v29.536h31.753v115.248h35.416v-3H52.657V78.457
		H20.904V51.921"/>
	<path fill="#00FF00" d="M224.701,183.061c-0.244,0.219-0.492,0.434-0.744,0.647c-0.293,0.249-0.592,0.496-0.891,0.737
		c-0.438,0.549-0.893,1.086-1.365,1.613C222.769,185.102,223.769,184.1,224.701,183.061 M143.539,152.8l-2.037,3.834
		c0.32,0.274,0.645,0.548,0.971,0.817l2.029-3.817C144.177,153.357,143.857,153.08,143.539,152.8 M215.801,82.309l-1.949,3.8
		c0.35,0.273,0.691,0.552,1.031,0.835l1.969-3.835C216.506,82.838,216.156,82.571,215.801,82.309 M148.168,57.774
		c-1.047,0.952-2.049,1.953-3,3c0.525-0.478,1.063-0.942,1.609-1.396C147.228,58.832,147.691,58.298,148.168,57.774"/>
	<path fill="#FFFF00" d="M141.502,156.634l-14.427,27.136c15.091,10.584,33.319,16.854,51.938,16.854
		c14.896,0,30.381-4.116,41.943-13.916c0.252-0.214,0.498-0.431,0.744-0.647c0.473-0.529,0.926-1.066,1.363-1.615
		c-11.461,9.271-26.533,13.18-41.053,13.18c-18.619,0-36.848-6.271-51.938-16.855l12.395-23.315
		C142.146,157.182,141.822,156.908,141.502,156.634 M192.402,74.145c-5.168,0-11.6,2.208-14.668,6.624
		c3.332-2.416,7.846-3.624,11.668-3.624c8.957,0,17.555,3.552,24.447,8.965l1.951-3.8C209.094,77.349,200.908,74.145,192.402,74.145
		 M146.777,59.379c-0.549,0.454-1.084,0.917-1.609,1.396c-7.721,8.495-12.213,20.062-12.213,33.814
		c0,28.616,15.875,34.888,39.982,41.748c8.232,2.353,23.324,6.076,23.324,16.856c0,3.227-0.928,5.886-2.475,8.019
		c3.277-2.429,5.475-6.052,5.475-11.019c0-10.78-15.092-14.504-23.324-16.856c-24.107-6.858-39.982-13.132-39.982-41.748
		C135.955,78.683,139.91,67.702,146.777,59.379"/>
	<path fill="#0000FF" d="M91.072,84.457h-3v109.248h3V84.457 M122.825,45.921H20.904v3h98.921v29.536h3V45.921"/>
	<polyline fill="#FF00FF" points="91.072,81.457 88.072,81.457 88.072,84.457 91.072,84.457 91.072,81.457 	"/>
	<path fill="#00FFFF" d="M88.072,84.457h-3v109.248h3V84.457 M119.825,48.921H20.904v3h95.921v26.536h3V48.921"/>
	<polyline fill="#CCCCCC" points="116.825,51.921 20.904,51.921 20.904,78.457 52.656,78.457 52.656,193.704 85.072,193.704 
		85.072,84.457 88.072,84.457 88.072,81.457 91.072,81.457 91.072,78.457 116.825,78.457 116.825,51.921 	"/>
	<path fill="#0000FF" d="M146.539,149.8l-2.037,3.834c9.396,8.042,20.443,14.454,33.141,14.454c4.705,0,9.568-1.229,13.146-3.877
		c0.402-0.557,0.764-1.146,1.078-1.773c-3.299,1.805-7.316,2.65-11.225,2.65C167.51,165.088,156.142,158.229,146.539,149.8
		 M176.752,82.521c-0.707,0.373-1.385,0.788-2.018,1.248c-1.123,1.613-1.797,3.521-1.797,5.724c0,8.624,10.389,11.956,17.053,14.112
		l9.799,2.94c20.58,6.076,36.457,16.464,36.457,40.375c0,13.007-2.762,26.32-11.545,36.141
		c11.166-9.994,14.545-24.755,14.545-39.141c0-23.911-15.877-34.299-36.457-40.375l-9.799-2.94
		c-6.664-2.156-17.053-5.488-17.053-14.112C175.937,85.041,176.23,83.716,176.752,82.521 M186.914,42.001
		c-16.021,0-29.633,5.746-38.746,15.773c8.982-8.166,21.396-12.773,35.746-12.773c14.896,0,33.123,4.704,46.256,12.152
		L216.851,83.11c0.35,0.273,0.691,0.552,1.031,0.835l15.287-29.792C220.037,46.705,201.81,42.001,186.914,42.001"/>
	<path fill="#FF00FF" d="M193.789,161.211c-0.607,0.449-1.25,0.857-1.924,1.227c-0.313,0.627-0.676,1.219-1.076,1.773
		C191.935,163.361,192.953,162.361,193.789,161.211 M177.734,80.769c-1.176,0.85-2.201,1.85-3,3c0.633-0.46,1.311-0.875,2.018-1.248
		C177.019,81.902,177.349,81.319,177.734,80.769"/>
	<path fill="#00FFFF" d="M144.502,153.634l-2.029,3.817c9.186,7.656,19.908,13.637,32.17,13.637c6.217,0,12.711-2.143,16.146-6.877
		c-3.576,2.648-8.441,3.877-13.146,3.877C164.945,168.088,153.898,161.676,144.502,153.634 M174.734,83.769
		c-2.82,2.043-4.797,4.952-4.797,8.724c0,8.624,10.389,11.956,17.053,14.112l9.799,2.94c20.58,6.076,36.457,16.464,36.457,40.375
		c0,12.309-2.473,24.891-10.18,34.525c0.299-0.241,0.598-0.488,0.891-0.737c0.252-0.214,0.5-0.431,0.744-0.647
		c8.783-9.82,11.545-23.134,11.545-36.141c0-23.911-15.877-34.299-36.457-40.375l-9.799-2.94
		c-6.664-2.156-17.053-5.488-17.053-14.112C172.937,87.29,173.611,85.382,174.734,83.769 M183.914,45.001
		c-14.35,0-26.764,4.607-35.746,12.773c-0.477,0.523-0.939,1.058-1.391,1.604c8.83-7.292,20.627-11.377,34.137-11.377
		c14.896,0,33.123,4.704,46.256,12.152l-11.369,22.156c0.355,0.262,0.705,0.528,1.051,0.8l13.318-25.957
		C217.037,49.705,198.81,45.001,183.914,45.001"/>
	<path fill="#CCCCCC" d="M180.914,48.001c-13.51,0-25.307,4.085-34.137,11.377c-6.867,8.323-10.822,19.304-10.822,32.21
		c0,28.616,15.875,34.889,39.982,41.748c8.232,2.354,23.324,6.076,23.324,16.855c0,4.969-2.197,8.592-5.475,11.02
		c-0.836,1.15-1.852,2.148-3,3c-3.436,4.734-9.93,6.877-16.146,6.877c-12.262,0-22.984-5.98-32.172-13.637l-12.395,23.316
		c15.092,10.584,33.318,16.855,51.938,16.855c14.52,0,29.592-3.909,41.055-13.18c7.705-9.636,10.18-22.218,10.18-34.524
		c0-23.911-15.877-34.299-36.457-40.375l-9.799-2.94c-6.664-2.156-17.055-5.488-17.055-14.112c0-3.772,1.977-6.681,4.797-8.724
		c0.799-1.15,1.826-2.15,3-3c3.07-4.416,9.5-6.624,14.67-6.624c8.506,0,16.689,3.205,23.396,8.165l11.369-22.156
		C214.037,52.705,195.81,48.001,180.914,48.001"/>
</g>
</svg>
