<?xml version="1.0" encoding="utf-8"?>
<!-- Generator: Adobe Illustrator 16.0.0, SVG Export Plug-In . SVG Version: 6.00 Build 0)  -->
<!DOCTYPE svg PUBLIC "-//W3C//DTD SVG 1.1//EN" "http://www.w3.org/Graphics/SVG/1.1/DTD/svg11.dtd">
<svg version="1.1" id="Layer_1" xmlns="http://www.w3.org/2000/svg" xmlns:xlink="http://www.w3.org/1999/xlink" x="0px" y="0px"
	 width="253.5px" height="250.5px" viewBox="0 0 253.5 250.5" enable-background="new 0 0 253.5 250.5" xml:space="preserve">
<g id="Layer_1_1_">
</g>
<g id="Layer_1_copy">
</g>
<path fill="#0000FF" d="M195.615,177.006c-0.348,0.172-0.73,0.371-1.116,0.59l-1.472,2.758c0,0-0.61,0.254-1.412,0.652
	c-0.295,1.4-0.542,2.875-0.542,2.875s-1.976,4.357-2.382,5.945c-0.373,1.488,0.316,4.4,1.387,4.4c0.064,0,0.133-0.012,0.201-0.035
	c0.58-0.193,1.357-0.867,2.139-1.598c0.533-0.787,1.035-1.666,1.382-2.434c-0.905-0.443-1.448-2.979-1.106-4.334
	c0.404-1.588,2.381-5.945,2.381-5.945S195.32,178.408,195.615,177.006 M26.783,157.543c5.511,17.598,15.524,33.178,28.684,45.461
	c0.31,0.086,0.577,0.121,0.818,0.121c0.791,0,1.301-0.371,2.053-0.531l-0.945-2.82l0.585-2.186
	c-10.444-10.133-18.798-22.389-24.345-36.092c-0.297-0.143-0.675-0.313-1.216-0.584c-2.382-1.191-3.176-2.365-5.152-3.168
	C27.097,157.676,26.937,157.609,26.783,157.543 M91.916,106.428c-0.676,0.422-1.77,1.069-2.878,1.814
	c-1,1.775-1.911,3.753-2.249,5.442c-0.393,1.981-0.393,3.569-0.393,6.339c0,2.774-0.397,4.366,0,6.756
	c0.385,2.365,4.357,8.314,5.938,10.309c1.591,1.984,3.576,4.357,5.564,5.541c1.969,1.199,4.756,3.572,4.756,3.572
	s1.009,1.518,3.028,1.518c0.507,0,1.077-0.096,1.711-0.334c3.188-1.189,6.351-1.189,9.138-2.779
	c1.857-1.049,4.418-2.289,5.915-2.289c0.745,0,1.227,0.309,1.227,1.1c0,1.959,1.066,3.391,2.771,3.391
	c0.367,0,0.765-0.064,1.187-0.207c1.467-0.494,3.53-1.43,4.807-1.43c0.799,0,1.289,0.365,1.137,1.43
	c-0.391,2.779,0.802,6.342,0.802,7.947c0,1.563-0.405,3.158,0.776,4.342c1.191,1.191,4.383,3.184,4.383,4.365
	c0,1.184,0.382,5.152,1.175,6.74c0.794,1.596,1.588,3.969,0.794,5.557c-0.794,1.582-2.396,5.947-2.396,5.947
	s-0.824,3.564-0.43,4.748c0.398,1.199,1.129,2.779,3.112,4.764c1.983,1.977,1.461,4.367,2.66,5.945
	c1.198,1.588,2.397,6.352,2.397,6.352l0.182,3.961v3.564c0,0,8.75-1.191,10.328-1.588c1.108-0.277,4.463-1.713,6.926-3.094
	c0.351-0.645,0.775-1.295,1.689-2.027c0.617-0.492,1.394-1.102,2.168-1.707c0.047-0.088,0.094-0.176,0.143-0.266
	c-2.463,1.381-5.816,2.816-6.926,3.094c-1.578,0.396-10.328,1.588-10.328,1.588v-3.564l-0.182-3.961c0,0-1.199-4.764-2.397-6.352
	c-1.199-1.578-0.677-3.969-2.66-5.945c-1.983-1.984-2.714-3.564-3.112-4.764c-0.396-1.184,0.43-4.748,0.43-4.748
	s1.604-4.365,2.396-5.947c0.794-1.586,0-3.961-0.794-5.557c-0.793-1.588-1.175-5.557-1.175-6.74c0-1.182-3.189-3.174-4.383-4.365
	c-1.182-1.184-0.776-2.779-0.776-4.342c0-1.605-1.19-5.168-0.802-7.947c0.152-1.064-0.338-1.43-1.137-1.43
	c-1.275,0-3.34,0.936-4.807,1.43c-0.422,0.143-0.818,0.207-1.188,0.207c-1.703,0-2.771-1.432-2.771-3.391
	c0-0.793-0.481-1.1-1.227-1.1c-1.497,0-4.058,1.24-5.915,2.289c-2.787,1.59-5.95,1.59-9.138,2.779
	c-0.634,0.24-1.204,0.334-1.711,0.334c-2.02,0-3.028-1.518-3.028-1.518s-2.787-2.373-4.756-3.572
	c-1.988-1.182-3.974-3.557-5.564-5.541c-1.581-1.994-5.554-7.943-5.938-10.309c-0.397-2.39,0-3.982,0-6.756
	c0-2.771,0-4.358,0.393-6.339C90.992,108.668,91.403,107.547,91.916,106.428 M205.118,99.187c-0.444,0-0.542,0.197-0.542,0.197
	s3.168,4.755,3.168,5.942c0,0.997,2.511,2.558,5.441,2.558c0.558,0,1.129-0.057,1.703-0.184c0,0,0.854,1.566,1.793,3.078
	c0.293,0.169,0.604,0.349,0.938,0.541c2.778,1.576,3.978,3.561,5.558,4.355c1.58,0.798,3.963,3.969,3.963,3.969
	s0.379,0.881,0.858,2.043c-0.281-3.494-0.733-6.939-1.351-10.328c-1.347-0.926-2.567-2.643-5.028-4.039
	c-2.778-1.595-3.953-2.382-6.335-2.382c-2.383,0-4.747-3.179-7.542-4.763C206.355,99.384,205.563,99.187,205.118,99.187
	 M104.125,93.132c-0.514,0-1.003,0.104-1.464,0.283c-0.007,0.014-0.015,0.028-0.021,0.042c-0.778,1.596-2.375,2.381-2.375,3.969
	c0,0.293-0.094,0.613-0.255,0.944c0.11-0.07,0.208-0.133,0.29-0.188c1.187-0.79,3.965-3.164,3.965-4.756
	c0-0.1,0.006-0.197,0.019-0.291C104.23,93.133,104.177,93.132,104.125,93.132 M106.661,89.414c-0.113,0.044-0.226,0.092-0.336,0.145
	c0.085,0.002,0.171,0.005,0.259,0.006c0.02-0.036,0.038-0.072,0.056-0.109C106.646,89.443,106.654,89.429,106.661,89.414
	 M170.818,80.769c-1.926,0.138-3.584,0.437-3.584,0.437l-1.521,0.843c0.42,1.965,1.982,4.31,3.545,6.255
	c1.365,1.721,2.445,3.727,3.471,3.727c0.162,0,0.322-0.05,0.482-0.159c1.207-0.798,5.178-3.171,5.178-3.171s-0.812,2.77-0.406,4.755
	c0.334,1.63,0.394,3.806,0.403,4.519c0.531,0.317,0.968,0.648,1.216,1.017c0.801,1.19,3.563,4.759,3.953,5.945
	c0.404,1.188,2.391,5.558,2.786,7.138c0.205,0.818,0.622,2.271,1.142,3.759c2.416,3.594,4.398,6.626,4.768,7.361
	c0.216,0.441,0.346,0.945,0.441,1.469c1.092,1.492,2.289,3.129,3.402,4.689c0.176,0.018,0.352,0.025,0.53,0.025
	c2.244,0,4.72-1.281,5.532-1.816c1.191-0.782,5.145-2.782,6.335-3.97c1.03-1.014,0.892-0.877,2.315-1.799
	c-0.061-0.181-0.176-0.36-0.354-0.54c-0.038-0.038-0.077-0.08-0.118-0.125c-1.564,0.956-3.425,1.938-4.18,2.433
	c-0.813,0.537-3.287,1.817-5.531,1.817c-1.042,0-2.035-0.276-2.788-1.032c-1.158-1.143-0.81-3.561-1.587-5.152
	c-0.794-1.587-9.114-13.877-13.084-19.422c-0.698-0.977-2.382-3.982-3.563-4.755c-1.185-0.806,2.785-0.806,2.785-0.806
	s0-2.779-0.404-4.756c-0.405-1.985,0.404-4.755,0.404-4.755s-3.97,2.373-5.177,3.171c-0.16,0.108-0.319,0.159-0.481,0.159
	c-1.025,0-2.105-2.006-3.472-3.727C172.376,83.206,171.494,81.981,170.818,80.769 M40.505,78.561
	c-0.394,0.273-0.702,0.485-0.882,0.606c-0.647,0.434-1.887,1.929-2.557,3.003c0.949-0.662,2.183-1.527,3.319-2.325
	C40.465,79.477,40.513,79.049,40.505,78.561 M160.953,75.182c-3.376,0-2.191,2.54-1.069,4.175c0.071,0,0.144,0.001,0.214,0.001
	c0.733,0,1.416-0.044,1.811-0.176c0.1-0.032,0.199-0.064,0.297-0.097c-0.145-0.993-0.237-2.099,0.506-3.031
	c0.205-0.255,0.418-0.491,0.637-0.708C162.111,75.304,160.953,75.182,160.953,75.182 M106.281,74.815l-3.719,0.769
	c-0.134,0.91-0.281,1.629-0.281,1.629v6.724c0,0,5.725,1.584,6.919,1.584c0.287,0,0.677,0.024,1.125,0.038
	c0.557-0.266,1.159-0.428,1.799-0.428c0.355,0,0.722,0.05,1.098,0.159c0.115-0.033,0.229-0.07,0.341-0.112
	c0.99-1.296,1.892-2.564,2.304-3.184c0.111-0.168,0.229-0.336,0.355-0.502c-0.456,0.058-0.91,0.076-1.333,0.076
	c-0.684,0-1.286-0.047-1.688-0.047c-1.194,0-6.919-1.584-6.919-1.584L106.281,74.815 M38.786,69.305
	c-6.738,10.416-11.682,22.079-14.395,34.566c0.397-0.64,0.718-1.203,0.889-1.636c0.553-1.392,2.467-4.331,4.245-7.058
	c0.449-1.683,0.938-3.35,1.467-4.998c-0.534,0.238-1.16,0.592-1.751,0.946c-0.235,0.143-0.398,0.206-0.5,0.206
	c-0.748,0,1.837-3.465,2.882-4.164c0.119-0.08,0.294-0.2,0.512-0.35c1.769-4.926,3.896-9.683,6.35-14.24
	C37.88,70.835,38.383,70.041,38.786,69.305 M137.875,67.255c0,0-4.669,0.798-5.863,1.195c-1.193,0.397-1.529,1.588-3.894,2.374
	c-2.39,0.798-3.462,1.985-4.252,3.171c-0.2,0.3-0.515,0.752-0.897,1.286c0.346-0.163,0.727-0.316,1.149-0.458
	c2.364-0.786,2.699-1.977,3.894-2.374c1.195-0.397,5.863-1.195,5.863-1.195s0.818,0.593,1.756,1.26l-0.04-0.416
	c0,0,4.882,2.774,6.47,3.573c1.172,0.58,3.32,2.024,4.366,2.742l-1.493-1.986l-0.412-0.107l-4.588-4.648l-0.303-3.157
	C138.693,67.848,137.875,67.255,137.875,67.255 M143.591,64.1l0.343,3.573l4.588,4.648l0.412,0.107l1.493,1.986
	c0.371,0.255,0.604,0.418,0.604,0.418l2.35,5.545l2.438,2.979c0.021,0,0.043,0,0.065,0.001c-1.122-1.636-2.307-4.175,1.069-4.175
	c0,0,1.472,0.155,2.865,0.174l-2.438-2.979l-2.351-5.545c0,0-3.381-2.374-4.969-3.16C148.473,66.874,143.591,64.1,143.591,64.1
	 M180.736,62.5c0,0-3.985,1.985-5.186,2.382c-1.183,0.389-3.246,1.187-4.842,3.171c-0.344,0.431-0.508,0.899-0.57,1.376
	c0.533-0.246,1.021-0.419,1.412-0.548c1.199-0.397,5.186-2.382,5.186-2.382l4.396,0.798c-1.838,1.467-4.004,3.611-3.057,3.611
	c0.074,0,0.171-0.014,0.287-0.042c0.142-0.036,0.3-0.053,0.471-0.053c1.452,0,3.846,1.211,5.436,2.24
	c2.51,0.301,5.246,0.553,5.246,0.553s1.184-2.783-0.404-3.97c-1.438-1.081-4.535-2.823-6.276-2.823
	c-0.171,0-0.329,0.017-0.472,0.053c-0.115,0.029-0.211,0.042-0.286,0.042c-0.947,0,1.219-2.144,3.057-3.611L180.736,62.5
	 M119.338,61.375c-0.686,0.323-1.445,0.733-2.074,1.207c-0.666,0.499-1.655,0.833-2.65,1.151c0.189,1.46,1.459,2.378,1.459,2.378
	l-0.306,0.397l0.165-0.034l1.699-1.191l2.441-3.172C120.072,62.111,119.706,61.846,119.338,61.375 M109.286,52.134l-1.857,2.042
	l-0.152-0.229l-0.025,0.033v-0.072l-0.132-0.199l-3.69-1.476l-0.178,0.403v5.126l-0.132-0.053l0.132,0.199v-0.146l0.127,0.055
	l-0.102,0.13l0.152,0.229l3.815-4.196v4.204l6.238-1.197l-3.551-3.925L109.286,52.134 M59.416,46.61
	c-1.284,0.981-2.544,1.99-3.78,3.029c-0.074,0.208-0.141,0.412-0.193,0.611c-0.161,0.638,0.255,0.829,0.811,0.829
	c0.831,0,1.977-0.428,1.977-0.428l3.56,1.583l3.424-1.241c0.279-0.236,0.579-0.471,0.9-0.701c0.162-0.116,0.313-0.227,0.454-0.332
	c0.461-0.704,1.321-1.849,2.646-2.967l-3.424,1.241l-3.56-1.583c0,0-1.146,0.428-1.977,0.428
	C59.819,47.078,59.473,46.962,59.416,46.61 M136.668,39.027c-1.082,0-2.342,0.207-3.43,0.573c-0.174,0.058-0.32,0.084-0.442,0.084
	c-0.188,0-0.317-0.063-0.403-0.175c-1.091,0.454-2.129,0.823-2.804,0.823c-0.163,0-0.335,0.032-0.512,0.089
	c-0.595,1.292-1.33,3.263-0.281,3.263c0.122,0,0.269-0.027,0.442-0.084c1.088-0.367,2.348-0.573,3.43-0.573
	c1.271,0,2.295,0.285,2.501,0.931c0.252,0.735,0.649,1.772,1.013,2.74c0.781-0.39,1.832-0.863,2.971-1.246
	c0,0,1.42,1.252,3.07,2.608c0.498-0.77,0.838-1.336,0.838-1.336s0.25,0.498,0.59,1.194c0.293-0.528,0.645-1.098,1.037-1.625
	c0.145-0.193,0.287-0.391,0.43-0.591c-1.674-0.208-4.104-0.64-4.359-1.408c-0.404-1.199-1.184-3.156-1.588-4.334
	C138.963,39.312,137.938,39.027,136.668,39.027 M151.061,38.723c0,0-1.189,1.981-2.373,3.569c-0.394,0.526-0.744,1.097-1.037,1.625
	c0.617,1.268,1.535,3.192,1.793,3.959c0.188,0.58,0.008,1.717-0.229,2.734c1.612-0.82,3.437-1.979,3.437-1.979
	s1.184-3.56,0.793-4.755C153.045,42.689,151.061,38.723,151.061,38.723 M82.954,33.03c-0.193,0.08-0.386,0.161-0.578,0.242
	c-0.273,0.294-0.527,0.565-0.763,0.816C82.093,33.68,82.54,33.33,82.954,33.03 M131.127,7C98.362,7,68.745,20.756,47.752,42.796
	C68.427,23.106,96.393,11,127.127,11c63.502,0,115.176,51.662,115.176,115.168c0,30.738-12.103,58.697-31.791,79.369
	c22.038-20.99,35.791-50.6,35.791-83.369C246.303,58.662,194.629,7,131.127,7"/>
<polyline fill="#00FF00" points="107.251,53.763 107.251,53.909 107.276,53.948 107.378,53.818 107.251,53.763 "/>
<polyline fill="#00FFFF" points="107.251,53.909 107.251,53.98 107.276,53.948 107.251,53.909 "/>
<path fill="#00FF00" d="M210.512,205.537c-0.683,0.648-1.373,1.291-2.072,1.926c-0.633,0.699-1.274,1.389-1.926,2.072
	C207.879,208.234,209.211,206.902,210.512,205.537 M171.514,198.908c-0.557,0.436-1.092,0.855-1.541,1.215
	c-0.914,0.732-1.34,1.383-1.689,2.029c0.277-0.156,0.543-0.311,0.793-0.463c0.763-0.594,1.458-1.131,1.92-1.488
	c0.222-0.252,0.4-0.496,0.556-0.732L171.514,198.908 M196.352,175.139c-0.25,0.264-0.427,0.527-0.49,0.781
	c-0.084,0.336-0.166,0.709-0.245,1.086c0.366-0.182,0.692-0.334,0.938-0.445C196.512,176.057,196.426,175.541,196.352,175.139
	 M22.165,159.494c5.359,18.438,15.634,34.75,29.302,47.51c0.31,0.086,0.577,0.121,0.819,0.121c0.365,0,0.671-0.078,0.968-0.18
	C39.271,194.092,28.464,177.83,22.165,159.494 M201.118,103.187c-0.444,0-0.542,0.197-0.542,0.197s3.168,4.755,3.168,5.942
	c0,0.997,2.511,2.558,5.441,2.558c0.558,0,1.129-0.057,1.703-0.184c0,0,0.854,1.566,1.793,3.078
	c0.293,0.168,0.604,0.349,0.938,0.541c0.948,0.538,1.712,1.123,2.37,1.693c2.191-1.482,3.593-2.624,2.462-3.758
	c-0.476-0.476-1.142-1.463-1.771-2.476c-2.142-1.232-3.303-1.841-5.396-1.841c-2.383,0-4.747-3.179-7.542-4.763
	C202.355,103.384,201.563,103.187,201.118,103.187 M100.01,98.369c-0.791,0.499-2.26,1.354-3.624,2.324
	c-0.077,0.227-0.121,0.468-0.121,0.732c0,0.293-0.094,0.613-0.255,0.944c0.11-0.07,0.208-0.133,0.29-0.188
	C97.268,101.537,99.296,99.838,100.01,98.369 M173.895,95.502c-0.047,0.657-0.037,1.343,0.088,1.954
	c0.334,1.63,0.394,3.806,0.404,4.519c0.53,0.317,0.967,0.648,1.215,1.017c0.801,1.19,3.563,4.759,3.953,5.945
	c0.404,1.188,2.391,5.558,2.786,7.138c0.205,0.818,0.622,2.271,1.142,3.759c2.416,3.594,4.398,6.626,4.768,7.361
	c0.216,0.441,0.346,0.945,0.441,1.469c1.092,1.492,2.289,3.129,3.402,4.689c0.176,0.018,0.352,0.025,0.53,0.025
	c1.976,0,4.129-0.992,5.171-1.596c-0.521-0.766-1.1-1.586-1.701-2.43c-0.846-0.084-1.634-0.381-2.258-1.006
	c-0.837-0.826-0.887-2.319-1.145-3.685c-1.674-2.289-3.096-4.238-3.58-5.056c-0.572-0.959-1.146-2.382-1.631-3.774
	c-2.801-4.165-6.186-9.084-8.315-12.061c-0.698-0.977-2.382-3.982-3.563-4.755c-1.184-0.806,2.787-0.806,2.787-0.806
	s0-0.085-0.002-0.237c-1.187-0.707-2.845-1.342-3.945-2.167C174.311,95.711,174.126,95.608,173.895,95.502 M165.998,93.289
	c1.027,1.419,1.896,2.742,2.73,2.742c0.162,0,0.321-0.05,0.481-0.159c0.431-0.285,1.212-0.77,2.04-1.275
	C169.591,94.122,167.609,93.651,165.998,93.289 M113.222,85.291c-0.771,0.224-1.599,0.278-2.333,0.278
	c-0.195,0-0.384-0.004-0.563-0.009c-1.81,0.864-3.131,2.824-3.664,3.855c0.461-0.178,0.95-0.283,1.463-0.283
	c0.354,0,0.722,0.05,1.098,0.159c0.632-0.183,1.227-0.48,1.702-0.956c0.713-0.72,1.635-1.849,2.503-2.979
	C113.358,85.332,113.289,85.311,113.222,85.291 M37.066,82.171c-0.661,0.46-1.185,0.823-1.443,0.997
	c-0.647,0.434-1.887,1.929-2.558,3.003c1.494-1.041,3.689-2.583,5.104-3.579c-0.308,0.167-0.623,0.351-0.929,0.534
	c-0.235,0.143-0.398,0.206-0.499,0.206C36.457,83.331,36.654,82.83,37.066,82.171 M138.962,81.716c0,0-0.371,0.067-0.919,0.159
	v2.121l1.568-0.119C139.259,82.667,138.962,81.716,138.962,81.716 M159.818,79.356l0.729,0.891c-0.188-0.233-0.425-0.541-0.664-0.89
	C159.861,79.357,159.84,79.357,159.818,79.356 M122.969,75.282c-1.61,0.76-2.452,1.737-3.103,2.714
	c-0.2,0.3-0.515,0.752-0.897,1.286c0.346-0.163,0.727-0.316,1.149-0.458c0.068-0.023,0.136-0.046,0.201-0.069
	C121.244,77.628,122.233,76.305,122.969,75.282 M180.589,72.701c-2.548,0-5.354,0.505-5.354,0.505l-0.53,0.294
	c-0.748,0.795-1.134,1.409-0.626,1.409c0.074,0,0.171-0.014,0.287-0.042c0.142-0.036,0.3-0.053,0.471-0.053
	c1.452,0,3.846,1.211,5.436,2.24c2.511,0.301,5.246,0.553,5.246,0.553s1.184-2.783-0.404-3.97c-0.239-0.18-0.524-0.378-0.842-0.583
	c-0.662-0.08-1.308-0.163-1.883-0.245C181.835,72.732,181.221,72.701,180.589,72.701 M170.139,69.43
	c-1.082,0.498-2.361,1.295-3.429,2.624c-0.344,0.431-0.508,0.899-0.571,1.376c0.534-0.246,1.022-0.419,1.413-0.548
	c0.548-0.181,1.677-0.694,2.741-1.197C170.195,70.989,170.036,70.198,170.139,69.43 M139.591,68.1l0.04,0.416
	c0.779,0.556,1.641,1.164,2.174,1.523c0.563,0.381-0.729,1.615,4.238,2.818v3.139l5.271-0.401l-0.889-1.181
	c-1.046-0.717-3.193-2.162-4.365-2.742C144.473,70.874,139.591,68.1,139.591,68.1 M115.767,66.508l-5.17,1.069
	c0.115,1.549,1.476,2.534,1.476,2.534l-0.306,0.397l0.165-0.034l1.699-1.191L115.767,66.508 M144.618,49.948
	c0.364,0.788,0.688,1.521,0.823,1.928c0.189,0.58,0.009,1.717-0.229,2.734c1.612-0.82,3.436-1.979,3.436-1.979
	s0.313-0.943,0.564-2.021c-0.882,0.449-1.699,0.796-2.122,0.796C146.707,51.406,145.745,50.786,144.618,49.948 M107.096,48.987
	l-1.243,2.816l1.267,1.907l0.132,0.053V49.21L107.096,48.987 M69.235,46.973c-0.008,0.006-0.015,0.013-0.022,0.02l0.014-0.005
	C69.229,46.982,69.232,46.978,69.235,46.973 M136.182,46.698c-0.852,0.423-1.388,0.747-1.388,0.747
	c-0.979,0.981-1.96,1.913-2.817,2.707c0.067,0.183,0.138,0.366,0.205,0.546c0.781-0.39,1.832-0.863,2.971-1.246
	c0,0,2.005,1.768,4.021,3.377c0.351-0.713,0.878-1.683,1.517-2.537c0.144-0.193,0.287-0.391,0.429-0.591
	c-1.673-0.208-4.103-0.64-4.359-1.408C136.604,47.841,136.398,47.282,136.182,46.698 M47.752,42.796c-1.366,1.301-2.698,2.634-4,4
	c0.684-0.65,1.374-1.293,2.073-1.927C46.459,44.17,47.102,43.479,47.752,42.796 M147.061,42.723c0,0-0.918,1.529-1.943,2.978
	c0.902,0.113,1.586,0.16,1.586,0.16s0.357-0.885,0.947-1.944C147.311,43.221,147.061,42.723,147.061,42.723 M81.613,34.088
	c-0.83,0.707-1.756,1.587-2.774,2.686c-0.456,0.492-0.862,0.927-1.225,1.314c0.243-0.207,0.478-0.399,0.704-0.578
	C78.66,37.121,79.024,36.849,81.613,34.088 M186.85,33.071c-0.289,0.161-0.613,0.358-0.961,0.57
	c21.732,14.176,38.404,35.483,46.67,60.578C225.463,68.594,208.864,46.889,186.85,33.071"/>
<path fill="#00FFFF" d="M169.075,201.689c-0.25,0.152-0.517,0.307-0.793,0.463c-0.048,0.088-0.095,0.176-0.142,0.266
	C168.456,202.172,168.771,201.926,169.075,201.689 M171.551,199.469c-0.154,0.236-0.334,0.48-0.556,0.732
	c0.356-0.277,0.573-0.445,0.573-0.445L171.551,199.469 M191.615,181.006c-1.438,0.713-3.495,1.893-3.756,2.912
	c-0.389,1.588-0.786,3.963-0.786,3.963s-1.976,4.357-2.382,5.945c-0.373,1.488,0.316,4.4,1.387,4.4c0.064,0,0.133-0.012,0.201-0.035
	c1.183-0.396,3.176-2.777,4.367-3.57c0.504-0.342,1.158-1.123,1.771-2.027c-0.78,0.73-1.558,1.404-2.14,1.598
	c-0.067,0.023-0.135,0.035-0.2,0.035c-1.069,0-1.761-2.912-1.386-4.4c0.404-1.588,2.381-5.945,2.381-5.945
	S191.32,182.408,191.615,181.006 M196.203,174.402l-1.704,3.193c0.386-0.219,0.769-0.418,1.116-0.59
	c0.078-0.379,0.162-0.75,0.244-1.088c0.064-0.254,0.24-0.516,0.49-0.781C196.271,174.715,196.201,174.418,196.203,174.402
	 M20.624,153.545c0.457,2.006,0.972,3.99,1.541,5.949c6.299,18.336,17.105,34.596,31.089,47.451c0.522-0.18,1.02-0.424,1.772-0.424
	c1.568,0,3.959-1.992,3.959-1.992l-0.647-1.936c-0.752,0.16-1.262,0.531-2.053,0.531c-0.241,0-0.509-0.035-0.818-0.121
	c-13.159-12.283-23.173-27.863-28.684-45.461c-1.657-0.717-2.516-1.377-3.885-2.568C21.866,154.053,21.136,153.68,20.624,153.545
	 M210.807,121.793c-1.424,0.922-1.283,0.786-2.314,1.799c-1.19,1.188-5.145,3.188-6.335,3.97c-0.813,0.537-3.288,1.816-5.532,1.816
	c-0.18,0-0.355-0.008-0.529-0.025c0.602,0.844,1.178,1.666,1.7,2.431c0.144-0.082,0.265-0.157,0.361-0.222
	c1.19-0.782,5.145-2.782,6.335-3.971c1.207-1.187,0.811-0.797,3.191-2.373C209.691,123.874,211.141,122.81,210.807,121.793
	 M187.48,115.834c0.484,1.393,1.059,2.815,1.631,3.774c0.484,0.817,1.906,2.767,3.58,5.056c-0.099-0.523-0.228-1.028-0.442-1.469
	C191.881,122.46,189.898,119.428,187.48,115.834 M216.684,110.778c0.629,1.012,1.295,2,1.771,2.476
	c1.131,1.135-0.271,2.276-2.462,3.758c1.271,1.099,2.146,2.139,3.188,2.662c1.58,0.798,3.963,3.969,3.963,3.969
	s2.389,5.553,2.77,7.145c0.271,1.048,1.396,3.489,2.128,5.358c0.127-1.992,0.302-3.961,0.302-5.979c0-2.855-0.115-5.685-0.34-8.482
	c-0.48-1.162-0.859-2.043-0.859-2.043s-2.381-3.171-3.961-3.969c-1.582-0.794-2.779-2.779-5.559-4.355
	C217.287,111.127,216.977,110.947,216.684,110.778 M89.038,108.242c-1.42,0.956-2.862,2.075-3.47,3.091
	c-1.195,1.985-2.382,4.367-2.779,6.351c-0.393,1.981-0.393,3.569-0.393,6.339c0,2.774-0.397,4.366,0,6.756
	c0.385,2.365,4.357,8.314,5.938,10.309c1.591,1.984,3.576,4.357,5.564,5.541c1.969,1.199,4.756,3.572,4.756,3.572
	s1.009,1.518,3.029,1.518c0.506,0,1.076-0.096,1.71-0.334c3.188-1.191,6.351-1.191,9.138-2.779c1.857-1.049,4.418-2.291,5.915-2.291
	c0.745,0,1.227,0.309,1.227,1.1c0,1.959,1.066,3.393,2.771,3.393c0.367,0,0.765-0.066,1.187-0.209c1.467-0.494,3.53-1.43,4.807-1.43
	c0.797,0,1.289,0.365,1.137,1.43c-0.391,2.779,0.802,6.344,0.802,7.947c0,1.563-0.405,3.16,0.776,4.342
	c1.191,1.191,4.383,3.186,4.383,4.367s0.382,5.152,1.175,6.74c0.794,1.596,1.588,3.969,0.794,5.557
	c-0.794,1.58-2.396,5.947-2.396,5.947s-0.824,3.563-0.43,4.748c0.398,1.197,1.129,2.777,3.112,4.762
	c1.983,1.979,1.461,4.367,2.66,5.947c1.198,1.588,2.397,6.35,2.397,6.35l0.182,3.963v3.564c0,0,8.75-1.191,10.328-1.588
	c1.588-0.398,7.789-3.178,9.367-4.756c0.848-0.855,1.153-1.594,1.559-2.34c-2.463,1.381-5.816,2.818-6.926,3.096
	c-1.578,0.396-10.328,1.588-10.328,1.588v-3.564l-0.182-3.963c0,0-1.199-4.762-2.397-6.35c-1.199-1.58-0.677-3.969-2.66-5.947
	c-1.983-1.984-2.714-3.564-3.112-4.762c-0.396-1.186,0.43-4.748,0.43-4.748s1.604-4.367,2.396-5.947
	c0.794-1.588,0-3.961-0.794-5.557c-0.793-1.588-1.175-5.559-1.175-6.74c0-1.184-3.189-3.176-4.383-4.367
	c-1.182-1.182-0.776-2.779-0.776-4.342c0-1.604-1.19-5.168-0.802-7.947c0.152-1.064-0.338-1.43-1.137-1.43
	c-1.275,0-3.34,0.936-4.807,1.43c-0.422,0.143-0.819,0.209-1.187,0.209c-1.704,0-2.771-1.432-2.771-3.393
	c0-0.791-0.481-1.1-1.227-1.1c-1.497,0-4.058,1.24-5.915,2.291c-2.787,1.588-5.95,1.588-9.138,2.779
	c-0.634,0.238-1.204,0.334-1.711,0.334c-2.02,0-3.028-1.518-3.028-1.518s-2.787-2.375-4.756-3.572
	c-1.988-1.184-3.974-3.557-5.564-5.543c-1.581-1.992-5.554-7.941-5.938-10.308c-0.397-2.39,0-3.982,0-6.756
	c0-2.771,0-4.358,0.393-6.339C87.127,111.995,88.038,110.017,89.038,108.242 M102.661,93.414c-2.009,0.777-3.472,2.962-4.021,4.042
	c-0.649,1.331-1.867,2.098-2.254,3.237c1.364-0.97,2.833-1.825,3.624-2.324c0.161-0.331,0.255-0.651,0.255-0.944
	c0-1.588,1.597-2.373,2.375-3.969C102.646,93.443,102.654,93.429,102.661,93.414 M113.563,85.179
	c-0.112,0.042-0.226,0.079-0.341,0.112c0.067,0.02,0.137,0.042,0.205,0.065C113.473,85.297,113.518,85.238,113.563,85.179
	 M165.713,82.049l-2.043,1.133c0,0-2.382,0.798-1.977,2.771c0.389,1.984,1.977,4.374,3.563,6.351
	c0.257,0.323,0.503,0.657,0.74,0.985c1.61,0.361,3.593,0.833,5.253,1.308c1.493-0.914,3.137-1.896,3.137-1.896
	s-0.388,1.326-0.492,2.801c0.23,0.106,0.416,0.208,0.545,0.305c1.103,0.825,2.761,1.461,3.945,2.167
	c-0.011-0.713-0.068-2.888-0.402-4.519c-0.405-1.985,0.404-4.755,0.404-4.755s-3.97,2.373-5.177,3.171
	c-0.16,0.108-0.319,0.159-0.481,0.159c-1.025,0-2.105-2.006-3.472-3.727C167.695,86.359,166.133,84.014,165.713,82.049
	 M40.386,79.846c-1.137,0.798-2.37,1.663-3.319,2.325c-0.412,0.66-0.609,1.161-0.324,1.161c0.101,0,0.264-0.063,0.499-0.206
	c0.306-0.183,0.621-0.367,0.929-0.534c0.827-0.582,1.388-0.977,1.388-0.977S40.13,81.04,40.386,79.846 M162.204,79.085
	c-0.099,0.033-0.197,0.064-0.297,0.097c-0.396,0.132-1.076,0.176-1.812,0.176c-0.07,0-0.142,0-0.213-0.001
	c0.239,0.349,0.477,0.657,0.664,0.89l-0.729-0.891c-1.395-0.02-2.865-0.174-2.865-0.174c-3.376,0-2.191,2.54-1.069,4.175
	c0.071,0.001,0.144,0.001,0.214,0.001c0.733,0,1.416-0.044,1.811-0.176c1.197-0.388,2.27-0.782,3.85-1.575
	C162.594,81.184,162.367,80.206,162.204,79.085 M102.563,75.584l-0.427,0.088l-3.47,0.583c0.39,1.187-0.385,4.958-0.385,4.958v6.724
	c0,0,5.725,1.584,6.919,1.584c0.287,0,0.677,0.024,1.125,0.038c0.11-0.053,0.223-0.101,0.336-0.145
	c0.533-1.031,1.854-2.991,3.664-3.855c-0.448-0.014-0.838-0.038-1.125-0.038c-1.194,0-6.919-1.584-6.919-1.584v-6.724
	C102.281,77.214,102.429,76.494,102.563,75.584 M133.875,71.255c0,0-4.669,0.798-5.863,1.195c-1.194,0.397-1.529,1.588-3.894,2.374
	c-0.423,0.141-0.804,0.294-1.149,0.458c-0.735,1.023-1.725,2.346-2.649,3.473c2.184-0.785,2.533-1.919,3.692-2.304
	c1.194-0.397,5.863-1.195,5.863-1.195s2.755,1.993,3.93,2.783c0.563,0.381-0.729,1.615,4.238,2.818v1.018
	c0.548-0.092,0.919-0.159,0.919-0.159s0.297,0.951,0.649,2.161l3.703-0.282l-2.383-3.167l-0.412-0.107l-4.588-4.648l-0.302-3.157
	C134.693,71.848,133.875,71.255,133.875,71.255 M139.631,68.515l0.303,3.157l4.588,4.648l0.412,0.107l1.493,1.986
	c0.371,0.255,0.604,0.418,0.604,0.418l2.35,5.545l3.168,3.87c-1.072-1.326-3.691-5.065,0.405-5.065c0,0,1.472,0.155,2.864,0.174
	l-2.438-2.979l-2.35-5.545c0,0-0.232-0.163-0.604-0.418l0.888,1.181l-5.271,0.401v-3.139c-4.969-1.203-3.675-2.438-4.237-2.818
	C141.271,69.68,140.41,69.072,139.631,68.515 M38.467,67.98c-12.389,16.802-19.891,37.348-20.431,59.637
	c0.694-1.676,1.572-5.748,1.302-7.129c-0.396-1.985,1.187-6.748,1.187-9.13c0-1.865,2.434-5.179,3.867-7.486
	c2.713-12.488,7.656-24.151,14.395-34.566c0.202-0.37,0.38-0.725,0.38-1.179C39.166,68.126,38.871,68.019,38.467,67.98
	 M176.736,66.5c0,0-3.985,1.985-5.186,2.382c-0.392,0.128-0.879,0.302-1.412,0.548c-0.104,0.768,0.057,1.559,0.153,2.255
	c1.269-0.599,2.442-1.185,2.442-1.185l4.397,0.798c-0.854,0.682-1.78,1.511-2.431,2.202l0.531-0.294c0,0,2.807-0.505,5.354-0.505
	c0.631,0,1.246,0.031,1.799,0.108c0.575,0.083,1.221,0.166,1.883,0.245c-1.59-1.029-3.982-2.24-5.436-2.24
	c-0.171,0-0.329,0.017-0.471,0.053c-0.116,0.029-0.213,0.042-0.287,0.042c-0.947,0,1.219-2.144,3.057-3.611L176.736,66.5
	 M114.613,63.733c-1.373,0.44-2.756,0.85-3.309,1.624c-0.584,0.819-0.756,1.57-0.708,2.221l5.17-1.069l0.306-0.397
	C116.072,66.111,114.803,65.193,114.613,63.733 M107.244,53.98l-3.815,4.196l-0.152-0.229l-0.025,0.033v-0.072l-0.132-0.199
	l-3.69-1.476l-1.576,3.569l1.576,2.374l3.815-4.196v4.204l8.256-1.584l3.1-2.377l-1.117-1.235l-6.238,1.197V53.98 M55.636,49.639
	c-1.27,1.065-2.515,2.161-3.732,3.285c-0.179,0.464-0.349,0.905-0.461,1.326c-0.161,0.638,0.255,0.829,0.811,0.829
	c0.831,0,1.977-0.428,1.977-0.428l3.56,1.583l4.367-1.583c0,0,0.933-1.863,3.057-3.658l-3.424,1.241l-3.56-1.583
	c0,0-1.146,0.428-1.977,0.428c-0.556,0-0.972-0.191-0.811-0.829C55.495,50.05,55.562,49.847,55.636,49.639 M106.899,48.704
	l-3.648,1.977v1.956l0.178-0.403l3.69,1.476l-1.267-1.907l1.243-2.816L106.899,48.704 M69.227,46.987l-0.014,0.005
	c-1.324,1.118-2.185,2.263-2.646,2.967C68.472,48.536,68.595,47.988,69.227,46.987 M147.648,43.917
	c-0.59,1.059-0.946,1.944-0.946,1.944s-0.683-0.047-1.586-0.16c-0.142,0.2-0.285,0.398-0.429,0.591
	c-0.395,0.527-0.746,1.097-1.039,1.625c0.291,0.595,0.646,1.334,0.97,2.031c1.127,0.839,2.089,1.458,2.473,1.458
	c0.423,0,1.24-0.347,2.122-0.796c0.237-1.017,0.419-2.154,0.229-2.734C149.186,47.109,148.268,45.184,147.648,43.917
	 M129.077,40.422c-1.533,0.498-3.454,2.903-3.454,2.903s-2.387,4.359-0.827,4.359c0.122,0,0.269-0.027,0.442-0.084
	c1.087-0.367,2.348-0.573,3.43-0.573c1.271,0,2.295,0.286,2.501,0.931c0.205,0.598,0.506,1.396,0.808,2.193
	c0.857-0.794,1.838-1.726,2.817-2.707c0,0,0.536-0.324,1.388-0.747c-0.363-0.967-0.761-2.005-1.013-2.74
	c-0.206-0.646-1.229-0.931-2.501-0.931c-1.082,0-2.342,0.207-3.43,0.573c-0.174,0.058-0.32,0.084-0.442,0.084
	C127.747,43.685,128.482,41.714,129.077,40.422 M85.505,32.009c-0.855,0.329-1.706,0.67-2.551,1.021
	c-0.414,0.3-0.861,0.65-1.341,1.058c-2.589,2.761-2.953,3.034-3.295,3.422c2.917-2.294,4.455-2.29,4.455-2.29
	S84.27,33.593,85.505,32.009 M127.127,11c-30.734,0-58.7,12.105-79.375,31.796c-0.65,0.683-1.293,1.375-1.927,2.073
	C66.277,26.319,93.408,15,123.127,15c23.131,0,44.693,6.856,62.762,18.641c0.348-0.212,0.672-0.41,0.961-0.57
	c22.016,13.818,38.613,35.523,45.709,61.148c3.728,11.315,5.744,23.402,5.744,35.949c0,29.723-11.313,56.846-29.863,77.295
	c0.699-0.635,1.391-1.277,2.072-1.926c19.688-20.672,31.791-48.631,31.791-79.369C242.303,62.662,190.629,11,127.127,11"/>
<polyline fill="#FF00FF" points="103.251,57.763 103.251,57.909 103.276,57.948 103.378,57.818 103.251,57.763 "/>
<polyline fill="#FFFFFF" points="103.251,57.909 103.251,57.98 103.276,57.948 103.251,57.909 "/>
<path fill="#FF0000" d="M200.555,172.561c-0.479,0.217-1.264,0.586-2.056,1.035l-1.472,2.758c0,0-0.18,0.076-0.473,0.207
	c0.018,0.209,0.028,0.416,0.028,0.611c0,1.191-0.396,4.365-0.793,5.953c-0.413,1.588-1.199,4.367-1.588,5.938
	c-0.078,0.314-0.22,0.689-0.403,1.098c0.09,0.043,0.184,0.066,0.278,0.066c0.065,0,0.133-0.01,0.2-0.033
	c0.582-0.195,1.357-0.869,2.14-1.6c0.815-1.201,1.56-2.625,1.785-3.531c0.389-1.57,1.175-4.35,1.588-5.938
	c0.396-1.588,0.793-4.762,0.793-5.953C200.584,172.975,200.573,172.77,200.555,172.561 M30.783,153.543
	c0.846,2.701,1.797,5.352,2.85,7.953c1.013,0.482,1.098,0.637,3.54,3.385c3.179,3.557,2.782,3.557,3.572,5.557
	c0.785,1.986,1.981,3.953,2.778,5.16c0.798,1.191,3.172,1.969,4.358,2.771c1.187,0.801,3.168,1.58,4.354,1.58
	c1.195,0,4.768,3.572,6.749,3.969c1.983,0.396,1.983,4.367,1.983,4.367l-1.983,5.541l-1.008,3.762
	c0.492,0.477,0.988,0.949,1.489,1.416c0.31,0.086,0.577,0.121,0.818,0.121c0.791,0,1.301-0.371,2.053-0.531l-0.945-2.82l1.593-5.947
	l1.983-5.541c0,0,0-3.971-1.983-4.367c-1.981-0.396-5.554-3.969-6.749-3.969c-1.187,0-3.168-0.779-4.354-1.58
	c-1.187-0.803-3.561-1.58-4.358-2.771c-0.797-1.207-1.993-3.174-2.778-5.16c-0.79-2-0.394-2-3.572-5.557
	c-3.16-3.557-2.374-2.77-4.756-3.969c-2.382-1.191-3.176-2.365-5.152-3.168C31.097,153.676,30.937,153.609,30.783,153.543
	 M197.118,107.187c-0.444,0-0.542,0.197-0.542,0.197s3.168,4.755,3.168,5.942c0,0.997,2.511,2.558,5.441,2.558
	c0.558,0,1.129-0.057,1.703-0.184c0,0,2.229,4.089,3.445,5.429c0.909-0.555,1.719-1.101,2.156-1.537
	c1.031-1.014,0.892-0.877,2.314-1.799c-0.06-0.181-0.175-0.36-0.354-0.54c-0.475-0.476-1.143-1.463-1.771-2.476
	c-2.141-1.232-3.302-1.841-5.396-1.841c-2.382,0-4.747-3.179-7.542-4.763C198.355,107.384,197.563,107.187,197.118,107.187
	 M96.01,102.369c-0.666,0.42-1.812,1.092-2.972,1.873c-0.398,0.707-0.782,1.445-1.122,2.186c0.15-0.094,0.279-0.176,0.384-0.247
	C93.268,105.537,95.296,103.838,96.01,102.369 M35.99,85.887c-0.574,0-1.715,0.62-2.749,1.239c-0.235,0.143-0.398,0.206-0.5,0.206
	c-0.284,0-0.087-0.501,0.324-1.161c-0.356,0.249-0.674,0.469-0.931,0.646c-0.399,1.112-0.78,2.233-1.143,3.362
	c0.401-0.179,0.752-0.293,0.998-0.293c0.526,0,0.576,0.52-0.367,2.037c-0.596,0.953-1.334,2.084-2.098,3.254
	c-0.412,1.55-0.791,3.116-1.134,4.694c0.397-0.64,0.718-1.203,0.889-1.636c0.79-1.989,4.358-7.137,6.343-10.313
	C36.566,86.407,36.517,85.887,35.99,85.887 M125.599,85.164c0,0-3.95,0.377-5.538,1.171c-1.568,0.797-4.738,1.976-5.926,2.373
	c-1.188,0.397-4.347,0.79-4.347,0.79c-0.191-0.084-0.38-0.154-0.566-0.208c-0.771,0.224-1.599,0.278-2.333,0.278
	c-0.104,0-0.205-0.001-0.305-0.003c-0.744,1.425-2.126,2.205-2.301,3.569c0.482,0.02,0.985,0.133,1.505,0.364
	c0,0,3.159-0.393,4.347-0.79c1.188-0.397,4.357-1.576,5.926-2.373c1.588-0.794,5.538-1.171,5.538-1.171s3.119,1.247,4.307,1.247
	c1.187,0,5.057-0.695,5.057-0.695s1.795,5.748,1.795,6.946c0,1.195,1.184,2.374,3.176,3.168c1.149,0.474,4.785,1.36,8.393,1.36
	c2.521,0,5.027-0.433,6.66-1.741c0.147-0.117,0.352-0.166,0.586-0.166c1.234,0,3.375,1.353,3.375,1.353s9.906,1.985,11.494,3.171
	c1.597,1.195,4.358,1.993,5.162,3.184c0.801,1.19,3.563,4.759,3.951,5.945c0.405,1.188,2.391,5.558,2.787,7.138
	c0.396,1.583,1.588,5.549,2.771,7.533c1.184,1.994,7.932,10.709,10.313,14.68l7.146-1.189c0,0-0.795,3.557-1.588,4.754
	c-0.795,1.184-3.176,4.359-4.358,5.947c-1.199,1.58-2.771,3.961-5.151,5.938c-2.373,1.977-2.392,3.961-3.572,5.557
	c-1.184,1.58-2.779,5.145-2.779,5.145s0.794,7.939,1.191,9.527c0.389,1.586-2.779,5.938-2.779,5.938l-3.572,3.58l-4.779,6.328
	l0.334,5.098c0.207-0.162,0.418-0.326,0.627-0.49c0.385-0.734,0.791-1.461,1.832-2.295c0.449-0.359,0.984-0.779,1.541-1.215
	l-0.334-5.098l4.779-6.328l3.572-3.58c0,0,3.168-4.352,2.779-5.938c-0.397-1.588-1.191-9.527-1.191-9.527s1.597-3.563,2.779-5.145
	c1.182-1.596,1.199-3.58,3.572-5.557c2.381-1.977,3.952-4.357,5.151-5.938c1.183-1.588,3.563-4.764,4.358-5.947
	c0.793-1.197,1.588-4.754,1.588-4.754l-7.146,1.189c-0.768-1.279-1.988-3.051-3.33-4.934c-0.846-0.082-1.634-0.379-2.258-1.006
	c-0.837-0.826-0.887-2.318-1.145-3.684c-1.674-2.289-3.096-4.238-3.58-5.056c-0.572-0.959-1.146-2.382-1.631-3.774
	c-2.801-4.165-6.186-9.084-8.315-12.061c-0.698-0.977-2.382-3.982-3.563-4.755c-1.184-0.806,2.787-0.806,2.787-0.806
	s0-0.085-0.002-0.237c-1.187-0.707-2.845-1.342-3.945-2.167c-1.588-1.187-11.496-3.171-11.496-3.171s-2.139-1.353-3.375-1.353
	c-0.233,0-0.438,0.049-0.586,0.166c-1.633,1.308-4.139,1.741-6.659,1.741c-3.606,0-7.242-0.886-8.392-1.36
	c-1.994-0.794-3.177-1.973-3.177-3.168c0-1.198-1.795-6.946-1.795-6.946s-3.87,0.695-5.058,0.695
	C128.718,86.411,125.599,85.164,125.599,85.164 M118.969,79.282c-1.334,0.629-2.14,1.408-2.747,2.211
	c0.454-0.058,0.91-0.155,1.341-0.314C118.073,80.511,118.56,79.85,118.969,79.282 M176.589,76.701c-2.548,0-5.354,0.505-5.354,0.505
	l-1.521,0.843c0.185,0.856,0.583,1.784,1.104,2.72c0.578-0.042,1.183-0.069,1.771-0.069c0.631,0,1.246,0.031,1.799,0.108
	c2.764,0.397,7.129,0.798,7.129,0.798s1.184-2.783-0.404-3.97c-0.239-0.18-0.524-0.378-0.842-0.583
	c-0.662-0.08-1.308-0.163-1.883-0.245C177.835,76.732,177.221,76.701,176.589,76.701 M166.139,73.43
	c-0.875,0.402-1.877,1-2.793,1.915c0.25,0.008,0.504,0.013,0.752,0.013c0.733,0,1.416-0.044,1.811-0.176
	c0.1-0.032,0.199-0.065,0.297-0.097C166.127,74.551,166.064,73.985,166.139,73.43 M111.767,70.508l-5.203,1.076
	c-0.135,0.91-0.282,1.629-0.282,1.629v1.602l1.65-0.341l1.699-1.191L111.767,70.508 M42.785,65.306
	c-1.527,2.361-2.963,4.786-4.301,7.271c0.151,0.436,0.372,0.931,0.682,1.5c0.989,1.843,1.321,3.332,1.339,4.484
	c0.985-0.684,2.505-1.749,3.881-2.715c0.265-1.239,0.188-3.144-1.22-5.769C41.622,67.237,42.281,66.226,42.785,65.306
	 M132.182,50.698c-0.851,0.423-1.388,0.747-1.388,0.747c-2.774,2.779-5.554,5.156-5.554,5.156s-2.397,0.794-3.977,1.981
	c-0.666,0.499-1.655,0.833-2.65,1.151c0.088,0.676,0.407,1.236,0.725,1.642c1.035-0.487,1.902-0.774,1.902-0.774
	s2.779-2.377,5.554-5.156c0,0,1.981-1.195,4.358-1.993c0,0,6.748,5.954,7.938,5.954c1.191,0,5.559-2.775,5.559-2.775
	s0.313-0.943,0.563-2.021c-0.882,0.449-1.7,0.796-2.122,0.796c-0.542,0-2.234-1.233-3.919-2.577c-0.299,0.61-0.47,1.032-0.47,1.032
	s-5.551-0.385-5.945-1.568C132.604,51.841,132.398,51.282,132.182,50.698 M142.223,48.059c-0.32,0.495-0.705,1.075-1.105,1.641
	c0.902,0.113,1.586,0.16,1.586,0.16s0.171-0.422,0.471-1.032C142.854,48.574,142.533,48.315,142.223,48.059 M43.752,46.796
	C21.712,67.788,7.958,97.4,7.958,130.17c0,63.506,51.67,115.164,115.169,115.164c32.771,0,62.393-13.756,83.387-35.797
	c-20.677,19.691-48.646,31.797-79.387,31.797c-63.499,0-115.169-51.658-115.169-115.164C11.958,95.43,24.061,67.47,43.752,46.796
	 M111.251,49.98v-0.218l0.127,0.055L111.251,49.98 M111.251,45.209v4.553l-3.822-1.529l-0.178,0.403v0.573l2.035,2.925l1.958-2.154
	v4.204l6.238-1.197l-3.551-3.925L111.251,45.209 M77.614,38.087c-0.83,0.707-1.756,1.587-2.775,2.686
	c-5.148,5.549-3.962,3.965-5.148,5.541c-0.184,0.244-0.329,0.46-0.455,0.659c0.273-0.229,0.565-0.458,0.878-0.681
	c0.162-0.116,0.313-0.226,0.454-0.332c0.464-0.708,1.332-1.862,2.668-2.987c0.126-0.198,0.271-0.414,0.455-0.658
	C74.771,40.878,73.882,42.067,77.614,38.087 M148.648,31.7c-1.969,0-6.732,1.81-8.328,2.211c-1.563,0.39-5.151,2.422-6.731,2.422
	c-0.163,0-0.335,0.032-0.512,0.089c-0.487,1.06-1.07,2.577-0.685,3.087c1.469-0.611,3.03-1.375,3.928-1.599
	c1.596-0.401,6.359-2.211,8.328-2.211c1.984,0,4.367,0.854,5.564,0.854c1.198,0,5.946,0,5.946,0l8.312-0.667
	c0,0,7.146,2.64,4.756,4.235c0,0,2.795,1.714,3.978,2.901c0.22,0.222,0.51,0.315,0.846,0.315c1.359,0,3.476-1.53,4.8-2.269
	c24.588,15.433,42.42,40.705,47.801,70.287c0.174,0.119,0.349,0.225,0.529,0.316c1.579,0.798,3.961,3.969,3.961,3.969
	s0.379,0.881,0.859,2.043c-2.732-33.991-21.747-63.414-49.15-80.615c-1.324,0.738-3.439,2.269-4.8,2.269
	c-0.336,0-0.626-0.094-0.846-0.315c-1.183-1.187-3.978-2.901-3.978-2.901c2.39-1.596-4.756-4.235-4.756-4.235l-8.312,0.667
	c0,0-4.748,0-5.946,0C153.016,32.553,150.634,31.7,148.648,31.7 M86.954,29.03c-9.976,4.144-19.168,9.766-27.318,16.609
	c-0.074,0.208-0.141,0.412-0.193,0.611c-0.035,0.141-0.043,0.26-0.026,0.36c7.014-5.36,14.716-9.856,22.96-13.338
	c0.148-0.16,0.303-0.325,0.463-0.499C84.446,31.041,85.821,29.849,86.954,29.03"/>
<polyline fill="#FF00FF" points="111.251,49.763 111.251,49.98 111.378,49.818 111.251,49.763 "/>
<path fill="#FF00FF" d="M168.141,202.418c-0.774,0.604-1.551,1.213-2.168,1.705c-0.914,0.732-1.34,1.383-1.689,2.029
	c1.066-0.6,1.966-1.186,2.441-1.662C167.471,203.736,167.797,203.074,168.141,202.418 M57.978,197.588l-0.585,2.186l0.945,2.82
	c0.207-0.043,0.433-0.072,0.688-0.072c1.568,0,3.959-1.992,3.959-1.992l-0.647-1.936c-0.752,0.16-1.262,0.531-2.053,0.531
	c-0.241,0-0.509-0.035-0.818-0.121C58.966,198.537,58.47,198.064,57.978,197.588 M175.514,194.908
	c-0.557,0.436-1.092,0.855-1.541,1.215c-1.041,0.834-1.447,1.561-1.832,2.295c1.715-1.34,3.43-2.66,3.43-2.66L175.514,194.908
	 M196.418,188.594c-0.781,0.729-1.559,1.404-2.139,1.598c-0.068,0.023-0.137,0.035-0.201,0.035c-0.096,0-0.188-0.023-0.278-0.066
	c-0.347,0.768-0.849,1.646-1.382,2.434c0.809-0.756,1.622-1.57,2.229-1.973C195.15,190.279,195.805,189.498,196.418,188.594
	 M194.499,177.596c-1.211,0.686-2.44,1.549-2.64,2.322c-0.082,0.338-0.166,0.709-0.244,1.088c0.802-0.398,1.412-0.652,1.412-0.652
	L194.499,177.596 M200.203,170.402l-1.704,3.193c0.792-0.449,1.576-0.818,2.056-1.035
	C200.466,171.529,200.2,170.434,200.203,170.402 M24.624,149.545c0.617,2.707,1.338,5.375,2.159,7.998
	c0.153,0.066,0.313,0.133,0.481,0.201c1.977,0.803,2.771,1.977,5.152,3.168c0.541,0.271,0.919,0.441,1.216,0.584
	c-1.053-2.602-2.004-5.252-2.85-7.953c-1.657-0.717-2.516-1.377-3.885-2.568C25.866,150.053,25.136,149.68,24.624,149.545
	 M214.807,117.793c-1.424,0.922-1.283,0.786-2.314,1.799c-0.438,0.436-1.247,0.982-2.156,1.537c0.041,0.045,0.08,0.086,0.118,0.125
	c0.179,0.179,0.294,0.359,0.354,0.54c0.241-0.157,0.528-0.345,0.875-0.574C213.691,119.874,215.141,118.81,214.807,117.793
	 M226.648,111.358c0.617,3.389,1.069,6.834,1.352,10.328c0.727,1.753,1.682,4.144,1.91,5.102c0.271,1.048,1.396,3.489,2.128,5.358
	c0.127-1.992,0.302-3.961,0.302-5.979c0-2.855-0.115-5.685-0.34-8.482c-0.48-1.162-0.859-2.043-0.859-2.043
	s-2.382-3.171-3.961-3.969C226.998,111.583,226.823,111.477,226.648,111.358 M93.038,104.243c-1.421,0.956-2.862,2.074-3.47,3.091
	c-0.178,0.295-0.355,0.599-0.53,0.909c1.108-0.745,2.202-1.392,2.878-1.814C92.256,105.688,92.64,104.949,93.038,104.243
	 M29.525,95.178c-1.778,2.728-3.692,5.667-4.245,7.058c-0.171,0.433-0.491,0.996-0.889,1.636
	c-1.388,6.385-2.191,12.984-2.355,19.745c0.694-1.676,1.572-5.748,1.302-7.129c-0.396-1.985,1.187-6.748,1.187-9.13
	c0-1.865,2.434-5.179,3.867-7.486C28.734,98.294,29.113,96.728,29.525,95.178 M106.325,89.559c-1.811,0.864-3.131,2.824-3.664,3.855
	c0.461-0.179,0.95-0.283,1.464-0.283c0.052,0,0.105,0.001,0.158,0.003c0.175-1.365,1.557-2.144,2.301-3.569
	C106.496,89.564,106.41,89.562,106.325,89.559 M32.135,86.817c-0.218,0.15-0.393,0.271-0.512,0.35
	c-1.045,0.699-3.63,4.164-2.882,4.164c0.102,0,0.265-0.063,0.5-0.206c0.591-0.354,1.217-0.708,1.751-0.946
	C31.354,89.05,31.735,87.93,32.135,86.817 M155.818,83.356l0.729,0.891c-0.188-0.233-0.425-0.541-0.664-0.89
	C155.861,83.357,155.84,83.357,155.818,83.356 M117.563,81.179c-0.431,0.159-0.887,0.256-1.341,0.314
	c-0.126,0.167-0.244,0.334-0.355,0.502c-0.412,0.619-1.313,1.887-2.304,3.184c0.504-0.186,0.973-0.456,1.361-0.844
	C115.674,83.577,116.655,82.367,117.563,81.179 M169.713,78.049l-2.043,1.133c0,0-2.382,0.798-1.977,2.771
	c0.006,0.032,0.013,0.064,0.02,0.096l1.521-0.843c0,0,1.658-0.298,3.584-0.437C170.296,79.833,169.896,78.906,169.713,78.049
	 M44.386,75.846c-1.376,0.966-2.896,2.031-3.881,2.715c0.008,0.488-0.04,0.917-0.119,1.285c1.694-1.19,3.172-2.231,3.172-2.231
	S44.13,77.04,44.386,75.846 M166.204,75.085c-0.099,0.032-0.197,0.064-0.297,0.097c-0.396,0.132-1.076,0.176-1.812,0.176
	c-0.246,0-0.5-0.005-0.75-0.013c-0.219,0.218-0.432,0.453-0.637,0.708c-0.743,0.932-0.648,2.038-0.506,3.031
	c1.083-0.359,2.104-0.75,3.553-1.478C166.594,77.184,166.367,76.206,166.204,75.085 M135.591,72.1l0.04,0.416
	c0.779,0.556,1.641,1.164,2.174,1.523c0.563,0.381-0.729,1.615,4.238,2.818v3.139l5.271-0.401l-0.889-1.181
	c-1.046-0.717-3.193-2.162-4.365-2.742C140.473,74.874,135.591,72.1,135.591,72.1 M106.563,71.584l-0.428,0.088l-3.47,0.583
	c0.22,0.668,0.069,2.156-0.104,3.329l3.719-0.769v-1.602C106.281,73.214,106.429,72.494,106.563,71.584 M42.467,63.98
	c-1.28,1.736-2.508,3.511-3.681,5.325c-0.403,0.736-0.906,1.53-0.302,3.272c1.338-2.485,2.773-4.91,4.301-7.271
	c0.203-0.37,0.381-0.726,0.381-1.18C43.166,64.126,42.871,64.019,42.467,63.98 M118.613,59.733c-1.373,0.44-2.756,0.85-3.309,1.624
	c-0.632,0.885-0.781,1.691-0.691,2.376c0.995-0.318,1.984-0.652,2.65-1.151c0.629-0.473,1.389-0.884,2.074-1.207
	C119.021,60.969,118.701,60.409,118.613,59.733 M103.251,52.637l-1.398,3.166l1.267,1.907l0.132,0.053L103.251,52.637
	 M111.244,49.98l-1.958,2.154l0.646,0.928l3.551,3.925l2.018-0.387l3.1-2.377l-1.117-1.235l-6.238,1.197V49.98 M66.567,49.96
	c-0.142,0.104-0.292,0.216-0.454,0.332c-0.321,0.229-0.621,0.464-0.9,0.701l0.943-0.342C66.156,50.65,66.289,50.386,66.567,49.96
	 M143.061,46.723c0,0-0.34,0.566-0.838,1.336c0.312,0.255,0.631,0.514,0.95,0.769c0.134-0.273,0.294-0.584,0.478-0.912
	C143.311,47.221,143.061,46.723,143.061,46.723 M59.636,45.639c-1.27,1.065-2.515,2.162-3.732,3.285
	c-0.094,0.245-0.186,0.483-0.268,0.715c1.236-1.039,2.496-2.048,3.78-3.029c-0.017-0.1-0.009-0.219,0.026-0.36
	C59.495,46.05,59.562,45.847,59.636,45.639 M110.899,44.704l-3.648,1.977v1.956l0.178-0.403l3.822,1.529V45.21L110.899,44.704
	 M73.235,42.972c-1.336,1.125-2.204,2.279-2.668,2.987C72.48,44.529,72.596,43.983,73.235,42.972 M133.077,36.422
	c-1.533,0.498-3.454,2.903-3.454,2.903s-0.256,0.468-0.546,1.097c0.177-0.057,0.349-0.089,0.512-0.089
	c0.675,0,1.713-0.37,2.804-0.823C132.007,38.999,132.59,37.482,133.077,36.422 M89.505,28.009c-0.855,0.329-1.706,0.67-2.551,1.021
	c-1.133,0.82-2.508,2.012-4.115,3.744c-0.16,0.173-0.314,0.339-0.463,0.499c0.192-0.082,0.385-0.162,0.578-0.242
	c2.504-1.813,3.819-1.81,3.819-1.81S88.27,29.593,89.505,28.009"/>
<path fill="#FFFF00" d="M170.995,200.201c-0.462,0.357-1.157,0.895-1.92,1.488c0.712-0.434,1.296-0.846,1.649-1.199
	C170.82,200.393,170.911,200.295,170.995,200.201 M172.141,198.418c-0.209,0.164-0.42,0.328-0.627,0.49l0.037,0.561
	C171.784,199.107,171.96,198.762,172.141,198.418 M198.499,173.596c-0.813,0.459-1.638,1-2.147,1.541
	c0.074,0.402,0.16,0.92,0.203,1.424c0.293-0.133,0.473-0.207,0.473-0.207L198.499,173.596 M204.203,166.402l-3.176,5.951
	c0,0-0.18,0.076-0.473,0.207c0.019,0.209,0.028,0.416,0.028,0.611c0,1.191-0.396,4.365-0.793,5.953
	c-0.413,1.588-1.199,4.367-1.588,5.938c-0.228,0.906-0.97,2.33-1.785,3.531c0.81-0.754,1.623-1.568,2.229-1.973
	c1.174-0.793,3.158-3.969,3.557-5.559c0.389-1.57,1.175-4.35,1.588-5.938c0.396-1.588,0.793-4.762,0.793-5.953
	C204.584,168.014,204.2,166.441,204.203,166.402 M28.624,145.545c0.616,2.707,1.338,5.375,2.159,7.998
	c0.153,0.066,0.313,0.133,0.481,0.201c1.977,0.803,2.771,1.977,5.152,3.168c2.382,1.199,1.596,0.414,4.756,3.969
	c3.179,3.557,2.782,3.557,3.572,5.557c0.785,1.986,1.981,3.953,2.778,5.16c0.798,1.191,3.172,1.969,4.358,2.771
	c1.187,0.801,3.168,1.58,4.354,1.58c1.195,0,4.768,3.572,6.749,3.969c1.983,0.396,1.983,4.367,1.983,4.367l-1.983,5.541
	l-1.593,5.947l0.945,2.82c0.207-0.045,0.433-0.072,0.688-0.072c1.568,0,3.959-1.992,3.959-1.992l-1.593-4.756l1.593-5.947
	l1.983-5.541c0,0,0-3.971-1.983-4.367c-1.981-0.396-5.554-3.969-6.749-3.969c-1.187,0-3.168-0.779-4.354-1.58
	c-1.187-0.803-3.561-1.58-4.358-2.771c-0.797-1.207-1.993-3.174-2.778-5.16c-0.79-2-0.394-2-3.572-5.557
	c-3.16-3.557-2.374-2.77-4.756-3.969c-2.382-1.191-3.176-2.365-5.152-3.168c-1.984-0.803-2.87-1.469-4.366-2.771
	C29.866,146.053,29.136,145.68,28.624,145.545 M197.795,131.784c-1.042,0.604-3.195,1.597-5.171,1.597
	c-0.179,0-0.354-0.009-0.53-0.025c1.342,1.883,2.563,3.654,3.33,4.934l7.146-1.191c0,0-0.795,3.557-1.588,4.756
	c-0.795,1.184-3.176,4.357-4.358,5.945c-1.199,1.58-2.771,3.961-5.151,5.939c-2.373,1.977-2.392,3.961-3.572,5.557
	c-1.184,1.58-2.779,5.145-2.779,5.145s0.794,7.938,1.191,9.525c0.389,1.588-2.779,5.939-2.779,5.939l-3.572,3.58l-4.779,6.326
	l0.334,5.1c1.896-1.486,4.057-3.152,4.057-3.152l-0.391-5.947l4.779-6.326l3.572-3.58c0,0,3.168-4.352,2.779-5.939
	c-0.397-1.588-1.191-9.525-1.191-9.525s1.597-3.564,2.779-5.145c1.182-1.596,1.199-3.58,3.572-5.557
	c2.381-1.979,3.952-4.359,5.151-5.939c1.183-1.588,3.563-4.764,4.358-5.945c0.793-1.199,1.588-4.756,1.588-4.756l-7.146,1.19
	C199,133.581,198.439,132.725,197.795,131.784 M183.48,119.834c0.484,1.393,1.059,2.815,1.631,3.774
	c0.484,0.817,1.906,2.767,3.58,5.056c-0.099-0.523-0.228-1.027-0.442-1.469C187.881,126.46,185.898,123.428,183.48,119.834
	 M212.684,114.778c0.629,1.012,1.295,2,1.771,2.476c0.179,0.179,0.294,0.359,0.354,0.54c0.241-0.157,0.528-0.345,0.875-0.574
	c0.104-0.07,0.209-0.139,0.31-0.208c-0.658-0.57-1.423-1.155-2.37-1.693C213.287,115.127,212.977,114.946,212.684,114.778
	 M96.386,100.693c-1.191,0.846-2.304,1.78-2.817,2.64c-0.178,0.295-0.355,0.599-0.53,0.909c1.16-0.781,2.306-1.453,2.972-1.873
	c0.161-0.331,0.255-0.651,0.255-0.944C96.265,101.161,96.309,100.92,96.386,100.693 M39.99,81.887c-0.404,0-1.089,0.307-1.82,0.705
	c-1.415,0.996-3.61,2.538-5.104,3.579c-0.411,0.66-0.608,1.161-0.324,1.161c0.102,0,0.265-0.063,0.5-0.206
	c1.034-0.619,2.175-1.239,2.749-1.239c0.526,0,0.576,0.52-0.367,2.037c-1.984,3.176-5.553,8.324-6.343,10.313
	c-0.171,0.433-0.491,0.996-0.889,1.636c-1.388,6.385-2.191,12.984-2.355,19.745c0.694-1.676,1.572-5.748,1.302-7.129
	c-0.396-1.985,1.187-6.748,1.187-9.13c0-2.382,3.971-7.129,4.756-9.122c0.79-1.989,4.358-7.137,6.343-10.313
	C40.566,82.407,40.517,81.887,39.99,81.887 M129.6,81.164c0,0-3.951,0.377-5.539,1.171c-1.568,0.797-4.738,1.976-5.926,2.373
	c-1.188,0.397-4.347,0.79-4.347,0.79c-0.121-0.054-0.242-0.101-0.361-0.143c-0.868,1.129-1.79,2.259-2.503,2.979
	c-0.476,0.476-1.07,0.773-1.702,0.956c0.187,0.054,0.375,0.124,0.566,0.208c0,0,3.159-0.393,4.347-0.79
	c1.188-0.397,4.357-1.576,5.926-2.373c1.588-0.794,5.538-1.171,5.538-1.171s3.119,1.247,4.307,1.247
	c1.187,0,5.057-0.695,5.057-0.695s1.795,5.748,1.795,6.946c0,1.195,1.184,2.374,3.176,3.168c1.149,0.474,4.785,1.36,8.393,1.36
	c2.521,0,5.027-0.433,6.66-1.741c0.147-0.117,0.352-0.166,0.586-0.166c1.234,0,3.375,1.353,3.375,1.353s9.906,1.985,11.494,3.171
	c1.103,0.825,2.761,1.461,3.945,2.167c-0.011-0.713-0.068-2.888-0.402-4.519c-0.125-0.611-0.135-1.297-0.088-1.954
	c-0.619-0.284-1.563-0.595-2.645-0.905c-0.828,0.506-1.609,0.991-2.04,1.275c-0.159,0.108-0.319,0.159-0.481,0.159
	c-0.834,0-1.703-1.323-2.73-2.742c-1.743-0.391-3.053-0.653-3.053-0.653s-2.141-1.353-3.375-1.353c-0.234,0-0.438,0.049-0.586,0.166
	c-1.633,1.308-4.141,1.74-6.66,1.74c-3.605,0-7.242-0.885-8.393-1.359c-1.992-0.794-3.176-1.973-3.176-3.168
	c0-0.711-0.632-3.022-1.146-4.786l-1.567,0.119v-2.121c-1.221,0.205-3.317,0.536-4.138,0.536
	C132.718,82.411,129.6,81.164,129.6,81.164 M120.319,78.755c-0.065,0.023-0.133,0.046-0.201,0.069
	c-0.423,0.141-0.804,0.294-1.149,0.458c-0.409,0.568-0.896,1.229-1.406,1.897c0.504-0.186,0.973-0.456,1.361-0.844
	C119.336,79.919,119.818,79.366,120.319,78.755 M174.703,73.5l-3.033,1.682c0,0-2.382,0.798-1.977,2.771
	c0.006,0.032,0.013,0.064,0.02,0.096l1.521-0.843c0,0,2.807-0.505,5.354-0.505c0.631,0,1.246,0.031,1.799,0.108
	c0.575,0.083,1.221,0.166,1.883,0.245c-1.59-1.029-3.982-2.24-5.436-2.24c-0.171,0-0.329,0.017-0.471,0.053
	c-0.116,0.029-0.213,0.042-0.287,0.042C173.57,74.909,173.955,74.296,174.703,73.5 M170.293,71.685
	c-1.064,0.503-2.193,1.016-2.741,1.197c-0.391,0.128-0.879,0.302-1.413,0.548c-0.074,0.555-0.012,1.121,0.065,1.655
	c1.083-0.359,2.104-0.75,3.553-1.479C170.439,73.261,170.414,72.546,170.293,71.685 M110.597,67.577l-0.461,0.095l-3.47,0.583
	c0.22,0.668,0.069,2.156-0.103,3.329l5.203-1.076l0.306-0.397C112.072,70.111,110.712,69.127,110.597,67.577 M46.467,59.98
	c-1.28,1.736-2.508,3.512-3.682,5.326c-0.504,0.92-1.163,1.931,0.381,4.771c1.408,2.625,1.484,4.53,1.22,5.769
	c1.694-1.19,3.172-2.231,3.172-2.231s2.375-2.381-0.392-7.538c-2.164-3.982,0-4.367,0-5.951
	C47.166,60.126,46.871,60.019,46.467,59.98 M131.977,50.151c-1.572,1.455-2.735,2.449-2.735,2.449s-2.397,0.794-3.977,1.981
	c-1.584,1.187-5.006,1.441-5.959,2.775c-0.632,0.886-0.781,1.691-0.691,2.376c0.995-0.318,1.984-0.652,2.65-1.151
	c1.579-1.187,3.977-1.981,3.977-1.981s2.778-2.377,5.554-5.156c0,0,0.537-0.324,1.387-0.747
	C132.113,50.517,132.044,50.334,131.977,50.151 M143.173,48.828c-0.3,0.61-0.471,1.032-0.471,1.032s-0.683-0.047-1.586-0.16
	c-0.142,0.2-0.285,0.398-0.429,0.591c-0.639,0.854-1.166,1.824-1.517,2.537c1.685,1.344,3.377,2.577,3.919,2.577
	c0.422,0,1.24-0.347,2.122-0.796c0.237-1.017,0.419-2.154,0.229-2.734c-0.137-0.407-0.459-1.14-0.824-1.928
	C144.154,49.602,143.663,49.22,143.173,48.828 M107.251,48.637l-0.155,0.35l0.155,0.223V48.637 M70.567,45.96
	c-0.142,0.105-0.292,0.216-0.454,0.332c-0.313,0.223-0.604,0.452-0.878,0.681c-0.003,0.005-0.006,0.009-0.009,0.014l0.93-0.337
	C70.156,46.65,70.289,46.386,70.567,45.96 M45.825,44.869c-0.699,0.634-1.39,1.276-2.073,1.927
	C24.061,67.47,11.958,95.431,11.958,126.17c0,63.506,51.67,115.164,115.169,115.164c30.739,0,58.71-12.105,79.387-31.797
	c0.65-0.684,1.293-1.375,1.926-2.074c-20.453,18.553-47.588,29.871-77.313,29.871c-29.998,0-57.355-11.529-77.873-30.389
	c-0.297,0.102-0.603,0.182-0.968,0.182c-0.242,0-0.51-0.035-0.819-0.121c-13.668-12.76-23.943-29.074-29.302-47.512
	c-4.023-11.711-6.208-24.268-6.208-37.326C15.958,92.446,27.273,65.32,45.825,44.869 M114.899,40.704l-3.648,1.977v2.528
	l2.681,3.853l3.551,3.925l2.018-0.387l3.1-2.377l-4.668-5.161L114.899,40.704 M78.318,37.51c-0.227,0.178-0.461,0.371-0.704,0.578
	c-3.732,3.979-2.843,2.791-3.924,4.227c-0.184,0.244-0.329,0.46-0.455,0.658c0.273-0.229,0.565-0.458,0.878-0.681
	c2.783-1.993,2.39-2.397,3.577-3.978C78.021,37.875,78.168,37.681,78.318,37.51 M152.648,27.7c-1.969,0-6.732,1.81-8.328,2.211
	c-1.563,0.39-5.151,2.422-6.731,2.422c-1.575,0-3.966,2.993-3.966,2.993s-0.256,0.468-0.546,1.097
	c0.177-0.057,0.349-0.089,0.512-0.089c1.58,0,5.169-2.032,6.731-2.422c1.596-0.401,6.359-2.211,8.328-2.211
	c1.984,0,4.367,0.854,5.564,0.854c1.198,0,5.946,0,5.946,0l8.312-0.667c0,0,7.146,2.64,4.756,4.235c0,0,2.795,1.714,3.978,2.901
	c0.22,0.222,0.51,0.315,0.846,0.315c1.359,0,3.476-1.53,4.8-2.269c27.403,17.201,46.418,46.624,49.15,80.615
	c0.727,1.753,1.682,4.145,1.91,5.102c0.271,1.048,1.396,3.488,2.128,5.359c0.127-1.993,0.302-3.962,0.302-5.979
	c0-9.678-1.318-19.051-3.781-27.949c-8.266-25.095-24.938-46.402-46.67-60.578c-1.248,0.761-2.775,1.698-3.839,1.698
	c-0.336,0-0.626-0.094-0.846-0.315c-1.183-1.187-3.978-2.901-3.978-2.901c2.39-1.596-4.756-4.235-4.756-4.235l-8.312,0.667
	c0,0-4.748,0-5.946,0C157.016,28.554,154.634,27.7,152.648,27.7 M93.505,24.009c-12.536,4.826-23.901,11.963-33.602,20.915
	c-0.094,0.245-0.186,0.483-0.268,0.715c8.15-6.843,17.343-12.465,27.318-16.609c2.504-1.813,3.819-1.81,3.819-1.81
	S92.27,25.593,93.505,24.009"/>
<path fill="#CCCCCC" d="M174.389,92.701c0,0-1.645,0.982-3.138,1.896c1.081,0.31,2.024,0.621,2.644,0.905
	C174,94.028,174.389,92.701,174.389,92.701 M129.875,75.255c0,0-4.669,0.798-5.863,1.195c-1.159,0.385-1.509,1.519-3.692,2.304
	c-0.501,0.611-0.983,1.164-1.396,1.58c-0.389,0.389-0.857,0.659-1.361,0.844c-0.907,1.188-1.889,2.398-2.639,3.156
	c-0.389,0.389-0.857,0.659-1.361,0.844c-0.045,0.059-0.09,0.118-0.136,0.177c0.119,0.042,0.24,0.089,0.361,0.143
	c0,0,3.159-0.393,4.347-0.79c1.188-0.397,4.357-1.576,5.926-2.373c1.588-0.794,5.539-1.171,5.539-1.171s3.118,1.247,4.307,1.247
	c0.818,0,2.917-0.331,4.138-0.536v-1.018c-4.969-1.203-3.675-2.438-4.237-2.818C132.63,77.248,129.875,75.255,129.875,75.255
	 M172.736,70.5c0,0-1.176,0.586-2.443,1.185c0.121,0.861,0.146,1.576-0.536,1.922c-1.448,0.728-2.47,1.119-3.553,1.478
	c0.163,1.121,0.39,2.099-0.447,2.522c-1.448,0.728-2.47,1.119-3.553,1.478c0.163,1.121,0.39,2.099-0.447,2.522
	c-1.58,0.793-2.651,1.188-3.85,1.575c-0.396,0.132-1.076,0.176-1.812,0.176c-0.07,0-0.142,0-0.213-0.001
	c0.239,0.349,0.477,0.657,0.664,0.89l-0.729-0.891c-1.395-0.019-2.865-0.174-2.865-0.174c-4.098,0-1.479,3.74-0.405,5.065
	l-3.168-3.87l-2.351-5.545c0,0-0.231-0.163-0.604-0.418l0.889,1.181l-5.271,0.401v-3.139c-4.969-1.203-3.675-2.438-4.238-2.818
	c-0.533-0.359-1.395-0.967-2.174-1.523l0.303,3.157l4.588,4.648l0.412,0.107l2.381,3.167l-3.703,0.282
	c0.515,1.763,1.146,4.075,1.146,4.786c0,1.195,1.184,2.374,3.176,3.168c1.149,0.474,4.785,1.359,8.393,1.359
	c2.521,0,5.027-0.432,6.66-1.74c0.147-0.117,0.352-0.166,0.586-0.166c1.234,0,3.375,1.353,3.375,1.353s1.31,0.262,3.053,0.653
	c-0.236-0.328-0.482-0.662-0.74-0.985c-1.588-1.978-3.176-4.367-3.564-6.351c-0.404-1.973,1.978-2.771,1.978-2.771l2.043-1.133
	c-0.007-0.032-0.014-0.064-0.021-0.096c-0.404-1.973,1.978-2.771,1.978-2.771l2.043-1.133c-0.007-0.032-0.014-0.064-0.021-0.096
	c-0.404-1.973,1.978-2.771,1.978-2.771l3.033-1.682c0.649-0.691,1.576-1.52,2.431-2.202L172.736,70.5 M143.648,47.917
	c-0.183,0.328-0.342,0.639-0.477,0.912c0.49,0.392,0.98,0.774,1.445,1.119C144.295,49.251,143.939,48.512,143.648,47.917
	 M200.555,172.561c0.293-0.133,0.473-0.207,0.473-0.207l3.177-5.953c-0.003,0.041,0.381,1.613,0.381,2.77
	c0,1.191-0.396,4.367-0.793,5.955c-0.413,1.588-1.199,4.365-1.588,5.938c-0.397,1.588-2.382,4.764-3.558,5.559
	c-0.604,0.402-1.418,1.217-2.229,1.973c-0.613,0.904-1.268,1.686-1.771,2.027c-0.605,0.402-1.42,1.217-2.229,1.973
	c-0.613,0.904-1.268,1.686-1.771,2.027c-1.19,0.793-3.185,3.174-4.367,3.57c-0.067,0.023-0.135,0.035-0.2,0.035
	c-1.069,0-1.761-2.912-1.386-4.4c0.404-1.588,2.381-5.945,2.381-5.945s0.396-2.375,0.787-3.963c0.26-1.02,2.315-2.199,3.755-2.912
	c0.079-0.379,0.161-0.75,0.245-1.088c0.197-0.773,1.428-1.639,2.639-2.322l1.704-3.193c-0.002,0.016,0.067,0.313,0.147,0.736
	c0.512-0.541,1.334-1.084,2.147-1.543l1.704-3.193C200.2,170.434,200.466,171.529,200.555,172.561 M42.785,65.306
	c1.174-1.814,2.401-3.59,3.682-5.326c0.404,0.04,0.699,0.146,0.699,0.146c0,1.584-2.164,1.969,0,5.951
	c2.767,5.156,0.392,7.538,0.392,7.538s-1.478,1.042-3.172,2.231c-0.256,1.194-0.828,1.769-0.828,1.769s-1.478,1.042-3.172,2.231
	c-0.256,1.194-0.828,1.769-0.828,1.769s-0.561,0.395-1.388,0.977c0.731-0.398,1.416-0.705,1.82-0.705
	c0.526,0,0.576,0.52-0.367,2.037c-1.984,3.176-5.553,8.324-6.343,10.313c-0.785,1.993-4.756,6.74-4.756,9.122
	c0,2.382-1.583,7.145-1.187,9.13c0.271,1.381-0.607,5.453-1.302,7.129c0.164-6.761,0.968-13.36,2.355-19.745
	c-1.434,2.308-3.867,5.622-3.867,7.486c0,2.382-1.583,7.146-1.187,9.13c0.271,1.381-0.607,5.453-1.302,7.129
	c0.164-6.761,0.968-13.36,2.355-19.745c-1.434,2.308-3.867,5.622-3.867,7.486c0,2.382-1.583,7.146-1.187,9.13
	c0.271,1.381-0.607,5.452-1.302,7.129c0.54-22.289,8.042-42.834,20.431-59.637c0.404,0.04,0.699,0.146,0.699,0.146
	c0,0.454-0.178,0.809-0.38,1.179c1.173-1.814,2.4-3.589,3.681-5.325c0.404,0.04,0.699,0.146,0.699,0.146
	C43.166,64.58,42.988,64.936,42.785,65.306 M111.251,45.209v-2.528l3.648-1.977l3.032,4.358l4.668,5.161l-3.1,2.377l-2.018,0.387
	l1.117,1.235l-3.1,2.377l-2.018,0.387l1.117,1.235l-3.1,2.377l-8.256,1.584v-4.204l-3.815,4.196L97.85,59.8l1.576-3.569l3.69,1.476
	l-1.267-1.907l1.398-3.166v-1.956l3.648-1.977l0.196,0.283l0.155-0.35v-1.956l3.648-1.977L111.251,45.209 M59.636,45.639
	c0.082-0.232,0.174-0.47,0.268-0.715c9.7-8.951,21.065-16.088,33.602-20.915c-1.235,1.583-2.731,3.211-2.731,3.211
	s-1.315-0.003-3.819,1.81c0.845-0.351,1.695-0.691,2.551-1.021c-1.235,1.583-2.731,3.211-2.731,3.211s-1.315-0.003-3.819,1.81
	c0.845-0.351,1.695-0.691,2.551-1.021c-1.235,1.583-2.731,3.211-2.731,3.211s-1.538-0.005-4.455,2.29
	c-0.15,0.171-0.297,0.365-0.628,0.805c-1.188,1.58-0.794,1.985-3.577,3.978c-0.313,0.223-0.604,0.451-0.878,0.681
	c-0.64,1.01-0.755,1.556-2.668,2.987c-0.278,0.426-0.411,0.69-0.411,0.69l-0.93,0.337c-0.632,1.001-0.755,1.549-2.659,2.973
	c-0.278,0.426-0.411,0.69-0.411,0.69l-0.943,0.342c-2.124,1.795-3.057,3.658-3.057,3.658l-4.367,1.583l-3.56-1.583
	c0,0-1.146,0.428-1.977,0.428c-0.556,0-0.972-0.191-0.811-0.829c0.112-0.42,0.282-0.861,0.461-1.326
	c1.218-1.124,2.463-2.22,3.732-3.285c0.082-0.232,0.174-0.47,0.268-0.715C57.121,47.8,58.366,46.704,59.636,45.639 M123.127,15
	c-29.719,0-56.85,11.319-77.302,29.869C27.273,65.32,15.957,92.446,15.957,122.168c0,13.059,2.184,25.615,6.208,37.326
	c-0.569-1.959-1.084-3.943-1.541-5.949c0.512,0.135,1.242,0.508,2.274,1.428c1.369,1.193,2.228,1.852,3.885,2.57
	c-0.821-2.623-1.542-5.291-2.159-8c0.512,0.135,1.242,0.508,2.274,1.43c1.369,1.191,2.228,1.852,3.885,2.568
	c-0.821-2.623-1.543-5.291-2.159-7.998c0.512,0.135,1.242,0.508,2.274,1.428c1.496,1.303,2.382,1.969,4.366,2.771
	c1.977,0.803,2.771,1.977,5.152,3.168c2.382,1.199,1.596,0.414,4.756,3.969c3.179,3.557,2.782,3.557,3.572,5.557
	c0.785,1.986,1.981,3.953,2.778,5.16c0.798,1.191,3.172,1.969,4.358,2.771c1.187,0.801,3.168,1.58,4.354,1.58
	c1.195,0,4.768,3.572,6.749,3.969c1.983,0.396,1.983,4.367,1.983,4.367l-1.983,5.541l-1.593,5.947l1.593,4.756
	c0,0-2.391,1.992-3.959,1.992c-0.256,0-0.481,0.027-0.688,0.072l0.647,1.936c0,0-2.391,1.992-3.959,1.992
	c-0.256,0-0.481,0.027-0.688,0.072l0.647,1.936c0,0-2.391,1.992-3.959,1.992c-0.753,0-1.25,0.246-1.772,0.424
	c20.518,18.859,47.875,30.389,77.873,30.389c29.725,0,56.857-11.318,77.313-29.871c18.549-20.449,29.863-47.572,29.863-77.295
	c0-12.547-2.018-24.634-5.744-35.949c2.463,8.898,3.781,18.271,3.781,27.949c0,2.017-0.175,3.985-0.302,5.979
	c-0.729-1.869-1.856-4.312-2.128-5.358c-0.229-0.957-1.186-3.349-1.91-5.102c0.225,2.798,0.34,5.627,0.34,8.482
	c0,2.018-0.175,3.985-0.302,5.979c-0.729-1.869-1.856-4.312-2.128-5.358c-0.229-0.958-1.186-3.349-1.91-5.102
	c0.225,2.798,0.34,5.626,0.34,8.482c0,2.018-0.175,3.985-0.302,5.979c-0.729-1.869-1.856-4.312-2.128-5.358
	c-0.381-1.591-2.77-7.145-2.77-7.145s-2.383-3.171-3.963-3.969c-1.042-0.523-1.917-1.563-3.188-2.662
	c-0.102,0.068-0.204,0.138-0.31,0.208c-0.347,0.229-0.634,0.417-0.876,0.574c0.333,1.017-1.115,2.082-3.124,3.426
	c-0.347,0.229-0.634,0.417-0.876,0.574c0.333,1.017-1.115,2.082-3.124,3.426c-2.381,1.577-1.983,1.187-3.19,2.374
	c-1.19,1.188-5.145,3.188-6.336,3.969c-0.098,0.064-0.219,0.141-0.36,0.223c0.646,0.941,1.205,1.797,1.629,2.503l7.146-1.19
	c0,0-0.793,3.557-1.588,4.756c-0.793,1.184-3.176,4.357-4.357,5.945c-1.199,1.58-2.771,3.961-5.152,5.939
	c-2.373,1.977-2.391,3.961-3.572,5.557c-1.183,1.58-2.778,5.145-2.778,5.145s0.794,7.938,1.19,9.525
	c0.389,1.588-2.779,5.939-2.779,5.939l-3.571,3.58l-4.779,6.326l0.39,5.947c0,0-2.158,1.666-4.056,3.152l0.056,0.848
	c0,0-1.713,1.322-3.428,2.66c-0.182,0.346-0.357,0.691-0.591,1.051l0.019,0.289c0,0-0.217,0.168-0.573,0.445
	c-0.084,0.094-0.175,0.189-0.271,0.289c-0.354,0.352-0.938,0.766-1.65,1.197c-0.303,0.238-0.618,0.482-0.934,0.729
	c-0.345,0.656-0.671,1.32-1.416,2.074c-0.478,0.477-1.377,1.063-2.443,1.66c-0.403,0.744-0.711,1.482-1.557,2.34
	c-1.58,1.578-7.779,4.357-9.367,4.754c-1.58,0.396-10.33,1.588-10.33,1.588v-3.564l-0.182-3.961c0,0-1.199-4.764-2.396-6.352
	c-1.199-1.578-0.676-3.969-2.66-5.945c-1.983-1.984-2.715-3.564-3.112-4.764c-0.396-1.184,0.431-4.748,0.431-4.748
	s1.603-4.365,2.396-5.947c0.794-1.586,0-3.961-0.794-5.557c-0.793-1.588-1.176-5.557-1.176-6.74c0-1.182-3.189-3.174-4.381-4.365
	c-1.184-1.184-0.777-2.779-0.777-4.342c0-1.604-1.191-5.168-0.803-7.947c0.152-1.064-0.338-1.43-1.135-1.43
	c-1.276,0-3.341,0.936-4.808,1.43c-0.422,0.143-0.819,0.207-1.187,0.207c-1.704,0-2.771-1.432-2.771-3.391
	c0-0.793-0.481-1.1-1.227-1.1c-1.497,0-4.058,1.24-5.915,2.289c-2.787,1.59-5.95,1.59-9.138,2.779
	c-0.634,0.24-1.204,0.334-1.71,0.334c-2.021,0-3.029-1.516-3.029-1.516s-2.787-2.375-4.756-3.572
	c-1.988-1.184-3.974-3.557-5.564-5.543c-1.581-1.992-5.554-7.941-5.938-10.308c-0.397-2.39,0-3.981,0-6.756
	c0-2.771,0-4.358,0.393-6.339c0.397-1.984,1.584-4.366,2.779-6.351c0.607-1.017,2.05-2.135,3.47-3.091
	c0.175-0.31,0.353-0.614,0.53-0.909c0.607-1.017,2.049-2.135,3.47-3.091c0.175-0.31,0.353-0.614,0.53-0.909
	c0.514-0.86,1.626-1.794,2.817-2.64c0.387-1.139,1.604-1.906,2.254-3.237c0.55-1.08,2.013-3.265,4.021-4.042
	c0.533-1.031,1.854-2.991,3.664-3.855c-0.448-0.014-0.838-0.038-1.125-0.038c-1.194,0-6.919-1.584-6.919-1.584v-6.724
	c0,0,0.774-3.771,0.385-4.958l3.47-0.583l0.427-0.088c0.173-1.172,0.323-2.66,0.104-3.329l3.47-0.583l0.428-0.088
	c0.172-1.172,0.322-2.66,0.103-3.329l3.47-0.583l0.461-0.095c-0.048-0.651,0.124-1.402,0.708-2.221
	c0.553-0.773,1.936-1.184,3.309-1.624c-0.09-0.686,0.06-1.491,0.691-2.376c0.553-0.773,1.936-1.184,3.309-1.624
	c-0.09-0.686,0.06-1.491,0.691-2.376c0.953-1.334,4.375-1.588,5.959-2.775c1.579-1.188,3.977-1.981,3.977-1.981
	s1.164-0.995,2.736-2.449c-0.302-0.798-0.603-1.596-0.808-2.193c-0.206-0.646-1.229-0.931-2.501-0.931
	c-1.082,0-2.343,0.207-3.43,0.573c-0.174,0.058-0.32,0.084-0.442,0.084c-1.56,0,0.827-4.359,0.827-4.359s1.921-2.406,3.453-2.903
	c0.291-0.629,0.547-1.097,0.547-1.097s1.921-2.406,3.453-2.903c0.291-0.629,0.547-1.097,0.547-1.097s2.39-2.993,3.966-2.993
	c1.58,0,5.169-2.032,6.731-2.422c1.596-0.401,6.358-2.211,8.328-2.211c1.984,0,4.366,0.854,5.564,0.854c1.197,0,5.945,0,5.945,0
	l8.312-0.667c0,0,7.146,2.64,4.757,4.235c0,0,2.795,1.714,3.978,2.901c0.22,0.222,0.51,0.315,0.846,0.315
	c1.063,0,2.59-0.937,3.839-1.698C167.82,21.856,146.258,15,123.127,15"/>
</svg>
