<?xml version="1.0" encoding="utf-8"?>
<!-- Generator: Adobe Illustrator 16.0.0, SVG Export Plug-In . SVG Version: 6.00 Build 0)  -->
<!DOCTYPE svg PUBLIC "-//W3C//DTD SVG 1.1//EN" "http://www.w3.org/Graphics/SVG/1.1/DTD/svg11.dtd">
<svg version="1.1" id="Layer_1" xmlns="http://www.w3.org/2000/svg" xmlns:xlink="http://www.w3.org/1999/xlink" x="0px" y="0px"
	 width="250.064px" height="250.629px" viewBox="0 0 250.064 250.629" enable-background="new 0 0 250.064 250.629"
	 xml:space="preserve">
<g id="Layer_1_1_">
	<path stroke="#000000" stroke-miterlimit="10" d="M55.605,227.14"/>
</g>
<g id="Layer_1_copy">
	<path stroke="#000000" stroke-miterlimit="10" d="M52.605,230.14"/>
</g>
<path stroke="#000000" stroke-miterlimit="10" d="M49.605,233.14"/>
<path fill="#0000FF" d="M33.585,84.88h-3v38.62h38.03v-3h-35.03V84.88 M85.235,84.608c-0.636,0.177-1.307,0.271-2,0.271h-1v48.369
	c0.233-0.334,0.465-0.662,0.689-0.988c0.754-1.018,1.529-2.066,2.311-3.131V84.608 M89.235,64.19H18.885
	c-2.768,0-5.225,1.565-6.476,3.882c1.041-0.563,2.228-0.882,3.476-0.882h70.351c4.07,0,7.351,3.27,7.351,7.35
	c0,1.257-0.313,2.438-0.864,3.47c1.026-0.551,1.906-1.338,2.565-2.292c0.004-2.78,0.01-5.579,0.019-8.339
	C93.982,65.449,91.76,64.19,89.235,64.19 M111.942,32.934l-2.979,0.008c-0.137,15.862-0.232,66.029,0.102,76.168
	c0.141,5.96-4.88,13.17-14.619,26.41c-3.421,4.65-7.131,9.75-10.921,15.28c-1.811,2.69-3.63,5.45-5.38,8.22h110.608
	c-0.65-1.005-1.31-2.006-1.97-3H81.145c1.75-2.77,3.569-5.529,5.38-8.22c3.79-5.53,7.5-10.63,10.921-15.28
	c9.739-13.24,14.76-20.45,14.619-26.41C111.749,96.542,111.819,51.328,111.942,32.934 M176.406,31.33
	c-0.856,0.684-1.888,1.151-3.011,1.325c0.093,14.804,0.315,65.476-0.09,76.815c0.069,2.84,6.979,12.22,12.59,19.79
	c3.41,4.8,7.271,10.04,11.13,15.65c11.351,16.66,22.33,36.289,27.061,44.66l1.24,2.18c4.87,8.59,4.87,20.229,0.149,28.379
	c-0.57,0.968-1.191,1.869-1.861,2.697c1.875-1.498,3.514-3.408,4.861-5.697c4.721-8.149,4.721-19.789-0.149-28.379l-1.24-2.18
	c-4.729-8.371-15.71-28-27.061-44.66c-3.859-5.61-7.72-10.851-11.13-15.65c-5.609-7.57-12.521-16.95-12.59-19.79
	C176.698,95.526,176.502,47.944,176.406,31.33 M178.415,14h-79.01c-2.52,0-4.698,1.479-5.717,3.613C94.51,17.22,95.433,17,96.405,17
	h79.01c3.49,0,6.399,2.84,6.399,6.33c0,0.995-0.227,1.933-0.627,2.767c2.132-1.029,3.627-3.208,3.627-5.767
	C184.815,16.84,181.906,14,178.415,14"/>
<path fill="#00FF00" d="M223.614,222.827c-0.546,0.438-1.111,0.838-1.696,1.203c-0.411,0.631-0.847,1.231-1.304,1.799
	C221.696,224.963,222.699,223.961,223.614,222.827 M92.72,78.01c-0.688,0.368-1.44,0.631-2.237,0.766
	c-0.134,0.796-0.396,1.549-0.763,2.234C90.992,80.328,92.038,79.282,92.72,78.01 M12.409,68.072c-1.264,0.685-2.313,1.729-3,3
	c0.688-0.372,1.439-0.638,2.23-0.775C11.777,69.504,12.041,68.755,12.409,68.072 M181.188,26.097
	c-0.731,0.353-1.538,0.57-2.385,0.622c-0.052,0.851-0.268,1.653-0.615,2.378C179.49,28.468,180.556,27.409,181.188,26.097
	 M93.689,17.613c-1.312,0.625-2.375,1.689-3,3c0.731-0.35,1.542-0.562,2.395-0.605C93.126,19.155,93.339,18.346,93.689,17.613"/>
<path fill="#00FFFF" d="M30.585,84.88h-3V126.5h41.03v-3h-38.03V84.88 M82.235,84.88h-3v52.541c0.141-0.19,0.28-0.391,0.421-0.58
	c0.9-1.242,1.765-2.438,2.579-3.592V84.88 M86.235,67.19H15.885c-1.248,0-2.435,0.319-3.476,0.882
	c-0.369,0.684-0.633,1.432-0.769,2.225c0.405-0.07,0.82-0.107,1.244-0.107h70.351c4.07,0,7.351,3.27,7.351,7.35
	c0,0.421-0.035,0.834-0.103,1.235c0.797-0.135,1.55-0.397,2.237-0.766c0.552-1.032,0.864-2.212,0.864-3.47
	C93.585,70.46,90.305,67.19,86.235,67.19 M108.964,32.942l-2.969,0.008c-0.149,10.99-0.29,68.25,0.069,79.16
	c0.141,5.96-4.88,13.17-14.619,26.41c-3.421,4.65-7.131,9.75-10.921,15.28c-1.811,2.69-3.63,5.45-5.38,8.22h115.529
	c-0.633-1.002-1.273-2.003-1.921-3H78.145c1.75-2.77,3.569-5.529,5.38-8.22c3.79-5.53,7.5-10.63,10.921-15.28
	c9.739-13.24,14.76-20.45,14.619-26.41C108.731,98.971,108.827,48.804,108.964,32.942 M173.395,32.655
	c-0.319,0.049-0.646,0.075-0.979,0.075h-2.04c0.07,8.95,0.37,67.45-0.069,79.74c0.069,2.84,6.979,12.22,12.59,19.79
	c3.41,4.8,7.271,10.04,11.13,15.65c11.351,16.66,22.33,36.289,27.061,44.66l1.24,2.18c4.87,8.59,4.87,20.229,0.149,28.379
	c-0.182,0.308-0.366,0.607-0.559,0.9c0.585-0.365,1.15-0.766,1.696-1.203c0.67-0.83,1.291-1.729,1.861-2.697
	c4.721-8.149,4.721-19.789-0.149-28.379l-1.24-2.18c-4.729-8.371-15.71-28-27.061-44.66c-3.859-5.61-7.72-10.851-11.13-15.65
	c-5.609-7.57-12.521-16.95-12.59-19.79C173.711,98.131,173.488,47.459,173.395,32.655 M175.415,17h-79.01
	c-0.972,0-1.895,0.22-2.717,0.613c-0.351,0.732-0.563,1.542-0.605,2.395C93.19,20.003,93.297,20,93.405,20h79.01
	c3.49,0,6.399,2.84,6.399,6.33c0,0.13-0.004,0.26-0.013,0.389c0.848-0.051,1.653-0.269,2.386-0.622
	c0.4-0.834,0.627-1.772,0.627-2.767C181.815,19.84,178.906,17,175.415,17"/>
<path fill="#FF0000" d="M71.615,81.88h-38.03v3h35.03v35.62h3V81.88 M89.72,81.01c-1.036,0.556-2.224,0.87-3.485,0.87h-1v2.729
	C87.176,84.065,88.788,82.749,89.72,81.01 M9.41,71.072c-2.291,1.24-3.875,3.663-3.875,6.468c0,4.07,3.35,7.34,7.35,7.34h4.07
	v115.47c0,7.63,6.319,32.421,32.649,32.79l156.641-0.41c5.77,0,10.762-2.433,14.368-6.901c-3.188,2.547-7.063,3.902-11.368,3.902
	l-156.641,0.41c-26.33-0.37-32.649-25.16-32.649-32.79V81.881h-4.07c-4,0-7.35-3.27-7.35-7.34
	C8.535,73.283,8.853,72.103,9.41,71.072 M162.895,29.81l-50.932,0.132c-0.008,0.894-0.016,1.894-0.021,2.992l47.953-0.125
	c0.069,10.98,0.301,68.39-0.069,79.3c-0.221,5.96,4.811,13.17,14.55,26.41c3.42,4.649,7.13,9.75,10.92,15.28
	c0.498,0.734,0.994,1.477,1.489,2.22h4.97c-1.14-1.758-2.297-3.503-3.459-5.22c-3.79-5.53-7.5-10.631-10.92-15.28
	c-9.739-13.24-14.771-20.45-14.55-26.41C163.196,98.2,162.965,40.79,162.895,29.81 M178.188,29.097
	c-0.561,0.27-1.161,0.46-1.793,0.558c0.004,0.516,0.007,1.075,0.011,1.675C177.154,30.734,177.767,29.971,178.188,29.097
	 M90.689,20.613c-2.135,1.019-3.613,3.198-3.613,5.716c0,3.57,2.84,6.4,6.33,6.4h2.109c-0.069,4.131-0.168,18.82-0.211,34.649
	c0.809,1.181,1.28,2.612,1.28,4.161c0,1.556-0.479,2.994-1.299,4.178c-0.021,15.811,0.027,31.124,0.229,36.751
	c-0.061,2.458-5.254,9.817-10.28,16.659v1.119c0.233-0.334,0.465-0.662,0.689-0.988c5.601-7.57,12.521-16.95,12.591-19.79
	c-0.439-12.29-0.149-70.79,0-79.74h-2.109c-3.49,0-6.33-2.83-6.33-6.4C90.075,22.358,90.295,21.437,90.689,20.613"/>
<path fill="#FF00FF" d="M191.754,156.02h-4.97c0.66,0.994,1.318,1.995,1.97,3h4.921C193.042,158.018,192.401,157.017,191.754,156.02
	 M85.235,129.129c-0.78,1.064-1.557,2.113-2.311,3.131c-0.226,0.326-0.456,0.656-0.689,0.988v1.172
	c0.141-0.19,0.28-0.391,0.421-0.58c0.9-1.242,1.765-2.438,2.579-3.592V129.129 M71.615,120.5h-3v3h3V120.5 M33.585,81.88h-3v3h3
	V81.88 M85.235,81.88h-3v3h1c0.693,0,1.364-0.095,2-0.271V81.88 M95.304,67.379c-0.009,2.761-0.015,5.56-0.019,8.339
	c0.819-1.184,1.299-2.623,1.299-4.178C96.585,69.991,96.113,68.56,95.304,67.379 M111.964,29.942l-2.969,0.008
	c-0.011,0.777-0.021,1.786-0.031,2.992l2.979-0.008C111.948,31.836,111.956,30.836,111.964,29.942 M176.395,29.655
	c-0.319,0.049-0.646,0.075-0.979,0.075h-2.04c0.006,0.693,0.014,1.683,0.021,2.925c1.123-0.174,2.153-0.641,3.011-1.325
	C176.402,30.73,176.399,30.171,176.395,29.655"/>
<path fill="#FFFF00" d="M74.615,78.88h-41.03v3h38.03v38.62h3V78.88 M90.483,78.776c-0.405,0.069-0.822,0.104-1.248,0.104h-4v3h1
	c1.263,0,2.449-0.313,3.485-0.87C90.087,80.324,90.349,79.572,90.483,78.776 M11.64,70.297c-0.792,0.137-1.543,0.403-2.23,0.775
	c-0.557,1.031-0.875,2.211-0.875,3.468c0,4.07,3.35,7.34,7.35,7.34h4.07v115.47c0,7.63,6.319,32.42,32.649,32.79l156.641-0.41
	c4.307,0,8.181-1.354,11.368-3.901c0.457-0.567,0.893-1.168,1.304-1.799c-2.831,1.77-6.103,2.7-9.672,2.7l-156.64,0.41
	c-26.33-0.369-32.649-25.16-32.649-32.79V78.88h-4.069c-4,0-7.351-3.27-7.351-7.34C11.535,71.116,11.571,70.701,11.64,70.297
	 M165.895,26.81l-53.899,0.14c-0.011,0.777-0.021,1.786-0.031,2.992l50.932-0.132c0.069,10.98,0.301,68.39-0.069,79.3
	c-0.221,5.96,4.811,13.17,14.55,26.41c3.42,4.65,7.13,9.75,10.92,15.28c1.162,1.717,2.319,3.462,3.459,5.22h4.921
	c-1.75-2.77-3.56-5.529-5.38-8.22c-3.79-5.53-7.5-10.63-10.92-15.28c-9.739-13.24-14.771-20.45-14.55-26.41
	C166.196,95.2,165.965,37.79,165.895,26.81 M178.803,26.718c-0.129,0.008-0.259,0.012-0.389,0.012h-2.04
	c0.006,0.693,0.014,1.683,0.021,2.925c0.632-0.098,1.232-0.289,1.793-0.558C178.536,28.372,178.752,27.569,178.803,26.718
	 M93.083,20.008c-0.853,0.043-1.662,0.255-2.395,0.605c-0.395,0.824-0.613,1.745-0.613,2.716c0,3.57,2.84,6.4,6.33,6.4h2.109
	c-0.149,8.95-0.439,67.45,0,79.74c-0.069,2.84-6.99,12.22-12.591,19.79c-0.226,0.325-0.456,0.655-0.689,0.987v1.172
	c0.141-0.189,0.28-0.389,0.421-0.58c1.159-1.6,2.26-3.119,3.27-4.579c5.601-7.57,12.521-16.95,12.591-19.79
	c-0.439-12.29-0.149-70.79,0-79.74h-2.109c-3.49,0-6.33-2.83-6.33-6.4C93.075,20.222,93.078,20.115,93.083,20.008"/>
<path fill="#CCCCCC" d="M33.585,81.88v-3h41.03v41.62h-3v3h-3v3h-41.03V84.88h3v-3H33.585 M111.964,29.942
	c0.011-1.206,0.021-2.215,0.031-2.992l53.899-0.14c0.069,10.98,0.301,68.39-0.069,79.3c-0.221,5.96,4.81,13.17,14.55,26.41
	c3.42,4.65,7.13,9.75,10.92,15.28c1.82,2.69,3.63,5.45,5.38,8.22h-4.921c0.646,0.997,1.288,1.998,1.921,3h-4.921
	c0.646,0.997,1.288,1.998,1.921,3H75.145c1.75-2.77,3.569-5.529,5.38-8.22c3.79-5.53,7.5-10.63,10.921-15.28
	c9.739-13.24,14.76-20.45,14.619-26.41c-0.359-10.91-0.22-68.17-0.069-79.16l2.969-0.008c0.011-1.206,0.021-2.215,0.031-2.992
	L111.964,29.942 M172.415,20h-79.01c-0.108,0-0.215,0.003-0.322,0.008c-0.005,0.106-0.008,0.213-0.008,0.321
	c0,3.57,2.84,6.4,6.33,6.4h2.109c-0.149,8.95-0.439,67.45,0,79.74c-0.069,2.84-6.99,12.22-12.591,19.79
	c-1.01,1.46-2.109,2.979-3.27,4.579c-0.141,0.191-0.28,0.391-0.421,0.58v-1.172c-0.814,1.156-1.679,2.351-2.579,3.592
	c-0.141,0.191-0.28,0.391-0.421,0.58v-1.172c-0.814,1.156-1.679,2.351-2.579,3.592c-0.141,0.191-0.28,0.391-0.421,0.58v-52.54h3v-3
	h3v-3h4c0.426,0,0.843-0.036,1.248-0.104c0.066-0.401,0.103-0.814,0.103-1.235c0-4.08-3.279-7.35-7.351-7.35H12.883
	c-0.423,0-0.839,0.037-1.244,0.107c-0.069,0.404-0.105,0.819-0.105,1.243c0,4.07,3.35,7.34,7.35,7.34h4.07v115.47
	c0,7.63,6.319,32.421,32.649,32.79l156.641-0.41c3.569,0,6.841-0.931,9.672-2.7c0.191-0.293,0.377-0.593,0.559-0.9
	c4.721-8.149,4.721-19.789-0.149-28.379l-1.24-2.18c-4.729-8.371-15.71-28-27.061-44.66c-3.859-5.61-7.72-10.851-11.13-15.65
	c-5.609-7.57-12.521-16.95-12.59-19.79c0.439-12.29,0.141-70.79,0.069-79.74h2.04c0.333,0,0.66-0.026,0.979-0.075
	c-0.008-1.242-0.015-2.232-0.021-2.925h2.04c0.333,0,0.66-0.026,0.979-0.075c-0.008-1.242-0.015-2.232-0.021-2.925h2.04
	c0.13,0,0.26-0.004,0.388-0.012c0.009-0.128,0.013-0.258,0.013-0.389C178.815,22.84,175.906,20,172.415,20"/>
</svg>
