<?xml version="1.0" encoding="utf-8"?>
<!-- Generator: Adobe Illustrator 16.0.0, SVG Export Plug-In . SVG Version: 6.00 Build 0)  -->
<!DOCTYPE svg PUBLIC "-//W3C//DTD SVG 1.1//EN" "http://www.w3.org/Graphics/SVG/1.1/DTD/svg11.dtd">
<svg version="1.1" id="Layer_1" xmlns="http://www.w3.org/2000/svg" xmlns:xlink="http://www.w3.org/1999/xlink" x="0px" y="0px"
	 width="250.5px" height="250.5px" viewBox="0 0 250.5 250.5" enable-background="new 0 0 250.5 250.5" xml:space="preserve">
<g id="Capa_1">
</g>
<g id="Capa_1_copy">
</g>
<path fill="#0000FF" d="M93.639,135.313c-1.216,0.504-2.448,0.967-3.698,1.385l-0.762,6.599c-0.052,0.44-0.147,0.865-0.282,1.271
	c2.269-0.752,3.989-2.766,4.282-5.271L93.639,135.313 M131.738,117.573c0.387,1.984-0.192,4.099-1.699,5.626l3.541-3.541
	l-1.184-1.262C132.15,118.137,131.932,117.861,131.738,117.573 M131.645,97.732l-2.549,0.293c-1.152,3.296-2.625,6.475-4.379,9.507
	l5.766,7.312c0.117,0.147,0.227,0.299,0.328,0.453c-0.34-1.789,0.107-3.704,1.361-5.188l0.893-1.064l-4.348-5.514
	C129.805,101.654,130.783,99.718,131.645,97.732 M59.132,62.461c-0.815,0.506-1.6,1.059-2.348,1.653
	c-3.341,4.205-5.339,9.521-5.339,15.292c0,13.576,11.056,24.632,24.631,24.632c5.772,0,11.089-1.999,15.294-5.339
	c0.594-0.748,1.147-1.533,1.653-2.347c-3.765,2.336-8.202,3.687-12.947,3.687c-13.575,0-24.631-11.056-24.631-24.632
	C55.445,70.662,56.795,66.226,59.132,62.461 M20.01,62.119l-3.597,0.411c-2.505,0.293-4.519,2.014-5.271,4.282
	c0.406-0.135,0.831-0.23,1.271-0.282l6.239-0.712C19.06,64.568,19.513,63.334,20.01,62.119 M40.522,20.312
	c-1.624,0-3.239,0.623-4.468,1.839l-10.532,10.53c-0.016,0.016-0.031,0.032-0.047,0.047l6.579-6.578
	c1.229-1.216,2.844-1.839,4.468-1.839c1.377,0,2.76,0.448,3.917,1.365l6.862,5.44c3.294-1.965,6.771-3.58,10.387-4.822l0.301-2.579
	c-2.299,0.979-4.532,2.115-6.688,3.401l-6.862-5.44C43.283,20.76,41.899,20.312,40.522,20.312 M87.514,7.027H72.615
	c-2.755,0-5.138,1.781-5.982,4.319c0.625-0.208,1.292-0.319,1.982-0.319h14.898c3.194,0,5.891,2.396,6.264,5.589l0.998,8.561
	c4.817,1.298,9.409,3.22,13.702,5.74l6.614-5.241c1.161-0.919,2.549-1.374,3.932-1.374c1.619,0,3.229,0.623,4.453,1.848
	l10.506,10.506c2.246,2.271,2.472,5.865,0.475,8.385l-5.39,6.813c2.294,4.093,4.093,8.46,5.291,13.027l8.761,1.024
	c3.194,0.374,5.589,3.069,5.589,6.263v14.899c0,0.69-0.111,1.357-0.318,1.982c2.539-0.844,4.318-3.227,4.318-5.982V68.169
	c0-3.194-2.395-5.89-5.589-6.263l-8.761-1.024c-1.197-4.566-2.996-8.934-5.291-13.027l5.391-6.813
	c1.997-2.521,1.771-6.114-0.475-8.385L123.476,22.15c-1.225-1.225-2.834-1.848-4.453-1.848c-1.382,0-2.771,0.454-3.932,1.374
	l-6.614,5.241c-4.292-2.521-8.885-4.442-13.702-5.74l-0.998-8.561C93.404,9.422,90.708,7.027,87.514,7.027"/>
<path fill="#0000FF" d="M202.195,181.739c-1.277,0.745-2.59,1.429-3.937,2.048l-0.146,4.479c-0.02,0.602-0.123,1.18-0.301,1.727
	c2.442-0.801,4.217-3.051,4.301-5.727L202.195,181.739 M230.423,149.223l-2.956,0.604c-0.707,2.675-1.666,5.285-2.85,7.795
	l4.566,4.841c2.17,2.297,2.271,5.865,0.225,8.286l-4.544,5.381c0.71-0.365,1.36-0.875,1.905-1.52l6.639-7.861
	c2.047-2.421,1.947-5.989-0.225-8.286l-4.566-4.841C229.295,152.186,229.898,150.717,230.423,149.223 M135.255,127.611l-0.149,0.029
	c-2.256,0.455-4.008,2.104-4.694,4.184c0.226-0.074,0.458-0.135,0.694-0.184l3.181-0.647
	C134.564,129.854,134.889,128.727,135.255,127.611 M169.334,124.263c-0.85,0.466-1.659,0.99-2.426,1.568
	c-2.883,3.826-4.422,8.685-3.982,13.821c0.875,10.5,9.705,18.467,20.057,18.467c0.572,0,1.149-0.023,1.73-0.074
	c3.917-0.326,7.48-1.759,10.41-3.965c0.581-0.771,1.107-1.584,1.574-2.434c-2.395,1.313-5.094,2.158-7.984,2.397
	c-0.581,0.05-1.158,0.074-1.73,0.074c-10.351,0-19.18-7.968-20.055-18.468C166.574,131.55,167.484,127.625,169.334,124.263
	 M151.573,91.987c-1.78,0-3.535,0.761-4.763,2.212l-2.072,2.468c0.882-0.45,1.854-0.68,2.834-0.68c1.188,0,2.388,0.34,3.447,1.04
	l5.192,3.444c2.245-1.618,4.632-3.018,7.134-4.191l0.063-1.908c-1.094,0.653-2.159,1.353-3.195,2.099l-5.191-3.444
	C153.961,92.327,152.762,91.987,151.573,91.987 M187.936,77.658c-0.164,0-0.33,0.006-0.496,0.02l-10.258,0.874
	c-2.549,0.223-4.654,1.954-5.414,4.29c0.45-0.148,0.924-0.247,1.414-0.29l10.258-0.874c0.166-0.013,0.332-0.02,0.496-0.02
	c2.945,0,5.551,2.08,6.144,5.011l1.224,5.99c4.018,0.724,7.91,1.972,11.579,3.744l4.343-4.067c1.191-1.128,2.727-1.697,4.267-1.697
	c1.426,0,2.854,0.488,4.021,1.472l7.86,6.638c2.421,2.046,2.92,5.591,1.123,8.236l-3.419,5.141
	c2.172,3.195,3.919,6.639,5.216,10.282l6.265,0.2c3.168,0.1,5.739,2.571,6.014,5.715l0.875,10.258
	c0.066,0.853-0.041,1.683-0.297,2.455c2.713-0.884,4.526-3.554,4.297-6.455l-0.875-10.258c-0.274-3.144-2.846-5.615-6.014-5.715
	l-6.265-0.2c-1.297-3.644-3.044-7.087-5.216-10.282l3.419-5.141c1.797-2.645,1.298-6.189-1.123-8.236l-7.86-6.638
	c-1.164-0.984-2.595-1.472-4.021-1.472c-1.54,0-3.075,0.569-4.267,1.697l-4.343,4.067c-3.668-1.772-7.562-3.02-11.579-3.744
	l-1.224-5.99C193.486,79.738,190.88,77.658,187.936,77.658"/>
<path fill="#0000FF" d="M110.83,232.707c-1.184,0.568-2.392,1.075-3.625,1.516l-0.207,1.637c-0.05,0.394-0.136,0.774-0.254,1.141
	C108.716,236.361,110.276,234.757,110.83,232.707 M135.499,208.801c-0.263,0.063-0.532,0.109-0.808,0.137l-1.426,0.146
	c-0.703,1.729-1.541,3.4-2.51,5.014l2.671,3.469c1.761,2.279,1.726,5.396,0.021,7.615l3.403-3.33
	c2.272-2.222,2.521-5.766,0.575-8.287l-2.671-3.469C135.014,209.669,135.262,209.236,135.499,208.801 M87.628,184.036
	c-0.891,0.415-1.739,0.907-2.536,1.468c-1.841,2.615-2.938,5.792-2.976,9.227c-0.1,9.062,7.163,16.521,16.222,16.623
	c0.061,0,0.122,0,0.182,0c3.515,0,6.783-1.107,9.463-2.996c0.56-0.795,1.051-1.642,1.464-2.531c-2.108,0.98-4.457,1.527-6.927,1.527
	c-0.061,0-0.122,0-0.182,0c-9.06-0.102-16.322-7.563-16.222-16.623C86.143,188.339,86.682,186.074,87.628,184.036 M61.211,181.775
	c-2.143,0.498-3.849,2.096-4.516,4.144c0.412-0.134,0.842-0.226,1.288-0.272l1.561-0.16C60.032,184.219,60.59,182.98,61.211,181.775
	 M76.709,154.516c-1.573,0-3.137,0.596-4.343,1.774l-4.542,4.442c-0.217,0.211-0.416,0.437-0.596,0.67l1.138-1.112
	c1.206-1.179,2.771-1.774,4.344-1.774c1.388,0,2.783,0.463,3.942,1.399l3.119,2.546c1.846-1.063,3.779-1.97,5.776-2.708l0.132-1.028
	c0.065-0.517,0.193-1.011,0.374-1.477c-0.774,0.378-1.535,0.783-2.282,1.213l-3.119-2.546
	C79.493,154.98,78.098,154.516,76.709,154.516 M99.843,145.284c-2.73,0-5.093,1.776-5.91,4.301c0.604-0.194,1.246-0.301,1.91-0.3
	c0.033,0,0.066,0,0.099,0l6.314,0.074c3.17,0.025,5.815,2.447,6.139,5.592l0.4,3.918c3.194,0.898,6.238,2.221,9.083,3.943
	l3.02-2.321c1.137-0.88,2.483-1.31,3.822-1.31c1.627,0,3.245,0.637,4.463,1.883l4.418,4.518c2.222,2.271,2.371,5.814,0.373,8.286
	l-2.521,3.095c1.499,2.746,2.646,5.689,3.419,8.734l4.044,0.525c3.144,0.398,5.49,3.094,5.44,6.264l-0.075,6.313
	c-0.005,0.649-0.111,1.277-0.304,1.868c2.494-0.813,4.281-3.146,4.304-5.868l0.058-4.862c-0.802-0.237-1.566-0.642-2.242-1.213
	l-7.861-6.639c-2.096-1.77-2.75-4.643-1.758-7.098c-0.321-0.687-0.662-1.36-1.024-2.024l2.521-3.095
	c1.055-1.307,1.512-2.911,1.379-4.471c-0.83-1.404-1.586-2.851-2.26-4.334l-2.576-2.635l-5.517-0.177
	c-1.601-0.05-3.047-0.705-4.123-1.746l-3,2.306c-2.845-1.722-5.89-3.045-9.083-3.942l-0.4-3.918
	c-0.324-3.146-2.969-5.566-6.139-5.591l-6.314-0.075C99.909,145.284,99.876,145.284,99.843,145.284"/>
<path fill="#00FF00" d="M88.896,144.566c-0.625,0.207-1.292,0.318-1.982,0.318h-1.458l-0.278,2.41
	c-0.052,0.439-0.147,0.865-0.282,1.271C86.767,147.945,88.264,146.469,88.896,144.566 M130.039,123.199l-3.987,3.986
	c-0.004,0.004-0.009,0.01-0.013,0.014l3.969-3.968C130.02,123.22,130.029,123.209,130.039,123.199 M144.387,89.05
	c-0.404,0.135-0.83,0.23-1.27,0.282l-2.411,0.278v1.458c0,0.69-0.112,1.357-0.319,1.982C142.29,92.418,143.768,90.921,144.387,89.05
	 M11.142,66.812c-1.903,0.633-3.379,2.13-4,4c0.406-0.135,0.831-0.23,1.271-0.282l2.41-0.275v-1.461
	C10.823,68.103,10.935,67.437,11.142,66.812 M25.475,32.729l-3.953,3.953c-0.016,0.016-0.031,0.032-0.047,0.047l3.98-3.979
	C25.462,32.742,25.468,32.735,25.475,32.729 M66.633,11.346c-1.871,0.621-3.368,2.098-4,4c0.625-0.208,1.292-0.319,1.983-0.319
	h1.454l0.281-2.411C66.402,12.176,66.498,11.751,66.633,11.346"/>
<path fill="#00FFFF" d="M89.94,136.697c-1.207,0.404-2.428,0.768-3.664,1.09l-0.819,7.099h1.458c0.69,0,1.357-0.112,1.982-0.319
	c0.135-0.404,0.23-0.83,0.282-1.271L89.94,136.697 M129.096,98.026l-2.863,0.33c-1.249,4.617-3.12,9.034-5.516,13.177l5.766,7.312
	c1.983,2.505,1.8,6.068-0.43,8.34l3.987-3.986c1.507-1.527,2.086-3.642,1.7-5.626c-0.467-0.7-0.776-1.475-0.93-2.275
	c-0.102-0.154-0.211-0.306-0.328-0.453l-5.766-7.312C126.471,104.501,127.943,101.322,129.096,98.026 M18.652,65.817l-6.239,0.712
	c-0.44,0.052-0.866,0.147-1.271,0.282c-0.207,0.625-0.319,1.291-0.319,1.981v1.461l6.774-0.773
	C17.906,68.246,18.257,67.024,18.652,65.817 M56.784,64.114c-5.686,4.517-9.339,11.488-9.339,19.292
	c0,13.576,11.056,24.632,24.631,24.632c7.805,0,14.777-3.653,19.294-9.339c-4.205,3.341-9.521,5.339-15.294,5.339
	c-13.575,0-24.631-11.056-24.631-24.632C51.445,73.635,53.443,68.319,56.784,64.114 M36.522,24.312c-1.624,0-3.24,0.623-4.468,1.839
	l-6.579,6.578c-0.007,0.007-0.013,0.014-0.02,0.021l2.599-2.599c1.229-1.216,2.844-1.839,4.468-1.839
	c1.377,0,2.761,0.448,3.917,1.365l6.862,5.44c4.393-2.621,9.11-4.618,14.051-5.939l0.336-2.882
	c-3.616,1.242-7.093,2.856-10.387,4.822l-6.862-5.44C39.283,24.76,37.899,24.312,36.522,24.312 M83.514,11.027H68.615
	c-0.69,0-1.357,0.112-1.982,0.319c-0.135,0.405-0.23,0.83-0.282,1.27l-0.281,2.411h13.444c3.194,0,5.891,2.396,6.264,5.589
	l0.998,8.561c4.817,1.298,9.409,3.22,13.702,5.74l6.614-5.241c1.161-0.919,2.549-1.374,3.932-1.374c1.619,0,3.229,0.623,4.453,1.848
	l10.505,10.506c2.248,2.271,2.473,5.865,0.476,8.385l-5.39,6.813c2.295,4.093,4.093,8.46,5.29,13.027l8.762,1.024
	c3.193,0.374,5.589,3.069,5.589,6.263V89.61l2.411-0.278c0.439-0.052,0.865-0.147,1.27-0.282c0.209-0.625,0.319-1.292,0.319-1.982
	V72.169c0-3.194-2.396-5.89-5.589-6.263l-8.762-1.024c-1.196-4.566-2.994-8.934-5.29-13.027l5.39-6.813
	c1.997-2.521,1.772-6.114-0.476-8.385L119.476,26.15c-1.225-1.225-2.834-1.848-4.453-1.848c-1.382,0-2.771,0.454-3.932,1.374
	l-6.614,5.241c-4.292-2.521-8.885-4.442-13.702-5.74l-0.998-8.561C89.404,13.422,86.708,11.027,83.514,11.027"/>
<path fill="#00FF00" d="M197.813,189.992c-0.451,0.148-0.924,0.246-1.414,0.289l-2.228,0.189l-0.06,1.795
	c-0.019,0.602-0.123,1.18-0.299,1.727C195.707,193.371,197.2,191.879,197.813,189.992 M224.865,176.129
	c-0.309,0.159-0.629,0.292-0.957,0.396l-3.043,3.604c0.71-0.365,1.359-0.875,1.906-1.52L224.865,176.129 M239.146,141.034
	c-0.227,0.073-0.459,0.135-0.696,0.183l-3.07,0.626l0.063,0.735c0.066,0.852-0.041,1.683-0.297,2.455
	C237.063,144.41,238.531,142.895,239.146,141.034 M130.41,131.824c-1.918,0.624-3.385,2.14-4,4c0.227-0.074,0.458-0.135,0.695-0.184
	l3.07-0.625l-0.063-0.736C130.047,133.427,130.154,132.596,130.41,131.824 M144.738,96.667c-0.719,0.367-1.377,0.879-1.928,1.532
	l-2.072,2.468c0.316-0.161,0.644-0.294,0.979-0.398L144.738,96.667 M171.768,82.841c-1.894,0.621-3.386,2.113-4,4
	c0.451-0.148,0.926-0.247,1.416-0.29l2.226-0.189l0.059-1.796C171.486,83.965,171.59,83.387,171.768,82.841"/>
<path fill="#00FFFF" d="M198.26,183.787c-1.279,0.589-2.588,1.12-3.921,1.591l-0.166,5.093l2.228-0.189
	c0.49-0.043,0.963-0.141,1.414-0.289c0.179-0.547,0.281-1.125,0.301-1.727L198.26,183.787 M227.468,149.826l-3.256,0.665
	c-0.698,3.843-1.922,7.586-3.594,11.13l4.567,4.841c2.17,2.297,2.271,5.865,0.224,8.286l-1.5,1.777
	c0.327-0.104,0.647-0.237,0.957-0.396l4.544-5.381c2.047-2.421,1.947-5.989-0.225-8.286l-4.566-4.841
	C225.802,155.109,226.761,152.5,227.468,149.826 M134.285,130.993l-3.18,0.647c-0.238,0.049-0.471,0.109-0.695,0.184
	c-0.256,0.771-0.363,1.604-0.297,2.455l0.063,0.736l3.417-0.697C133.784,133.201,134.014,132.091,134.285,130.993 M166.908,125.831
	c-5.359,4.036-8.596,10.657-7.982,17.821c0.875,10.5,9.705,18.467,20.057,18.467c0.572,0,1.149-0.023,1.73-0.074
	c5.943-0.495,11.076-3.539,14.41-7.965c-2.93,2.206-6.494,3.639-10.41,3.965c-0.581,0.051-1.158,0.074-1.73,0.074
	c-10.352,0-19.182-7.969-20.057-18.467C162.484,134.516,164.025,129.656,166.908,125.831 M147.573,95.987
	c-0.98,0-1.952,0.23-2.833,0.68l-3.022,3.602c0.601-0.187,1.228-0.282,1.856-0.282c1.189,0,2.389,0.34,3.447,1.04l5.192,3.444
	c3.394-2.446,7.112-4.392,11.056-5.815l0.078-2.376c-2.5,1.174-4.889,2.573-7.134,4.191l-5.192-3.444
	C149.961,96.327,148.762,95.987,147.573,95.987 M183.936,81.658c-0.164,0-0.33,0.006-0.496,0.02l-10.258,0.874
	c-0.49,0.043-0.964,0.142-1.414,0.29c-0.179,0.546-0.283,1.125-0.302,1.725l-0.059,1.796l8.032-0.684
	c0.166-0.013,0.332-0.02,0.496-0.02c2.944,0,5.551,2.08,6.143,5.011l1.223,5.99c4.018,0.724,7.911,1.972,11.58,3.744l4.342-4.067
	c1.192-1.128,2.728-1.697,4.268-1.697c1.426,0,2.855,0.488,4.02,1.472l7.861,6.638c2.421,2.046,2.92,5.591,1.123,8.236l-3.419,5.141
	c2.172,3.195,3.919,6.639,5.216,10.282l6.266,0.2c3.168,0.1,5.738,2.57,6.014,5.715l0.812,9.521l3.07-0.626
	c0.237-0.048,0.47-0.108,0.696-0.183c0.254-0.771,0.363-1.604,0.295-2.455l-0.873-10.258c-0.275-3.144-2.846-5.615-6.014-5.715
	l-6.266-0.2c-1.297-3.644-3.044-7.087-5.216-10.282l3.419-5.141c1.797-2.645,1.298-6.189-1.123-8.236l-7.861-6.638
	c-1.164-0.984-2.594-1.472-4.02-1.472c-1.54,0-3.074,0.569-4.268,1.697l-4.342,4.067c-3.668-1.772-7.563-3.02-11.58-3.744
	l-1.223-5.99C189.486,83.738,186.88,81.658,183.936,81.658"/>
<path fill="#00FF00" d="M106.743,237c-0.604,0.195-1.247,0.301-1.911,0.301c-0.033,0-0.065,0-0.098-0.001l-1.411-0.017l-0.326,2.576
	c-0.05,0.394-0.136,0.774-0.254,1.141C104.622,240.393,106.125,238.909,106.743,237 M133.449,225.182l-1.113,1.088
	c-0.593,0.58-1.273,1.019-1.999,1.314c-0.212,0.564-0.509,1.104-0.888,1.598l3.404-3.33
	C133.07,225.641,133.27,225.415,133.449,225.182 M143.98,200.666c-0.412,0.134-0.842,0.227-1.289,0.271l-2.39,0.246l-0.02,1.615
	c-0.005,0.649-0.111,1.277-0.304,1.868C141.879,204.048,143.368,202.547,143.98,200.666 M56.696,185.919
	c-1.899,0.618-3.388,2.119-4,4c0.412-0.134,0.843-0.226,1.288-0.272l2.39-0.246l0.019-1.614
	C56.398,187.137,56.504,186.509,56.696,185.919 M67.228,161.402l-3.404,3.33c-0.217,0.211-0.416,0.437-0.596,0.67l1.138-1.112
	c0.588-0.575,1.262-1.013,1.98-1.308C66.558,162.425,66.852,161.893,67.228,161.402 M93.933,149.584c-1.878,0.607-3.381,2.09-4,4
	c0.604-0.195,1.246-0.301,1.91-0.3c0.033,0,0.066,0,0.099,0l1.406,0.017l0.331-2.576C93.728,150.331,93.814,149.95,93.933,149.584"
	/>
<path fill="#00FFFF" d="M107.205,234.223c-1.188,0.426-2.399,0.791-3.633,1.094l-0.249,1.968l1.411,0.017
	c0.033,0,0.065,0.001,0.098,0.001c0.665,0,1.307-0.104,1.911-0.301c0.119-0.366,0.205-0.748,0.254-1.142L107.205,234.223
	 M133.268,209.084l-2.718,0.277c-0.873,3.07-2.146,5.99-3.793,8.736l2.671,3.469c1.368,1.771,1.651,4.05,0.91,6.019
	c0.727-0.296,1.406-0.735,1.999-1.315l1.113-1.088c1.704-2.219,1.739-5.334-0.021-7.615l-2.672-3.469
	C131.725,212.484,132.563,210.813,133.268,209.084 M85.092,185.503c-4.165,2.935-6.915,7.752-6.976,13.228
	c-0.1,9.061,7.163,16.521,16.222,16.621c0.061,0,0.122,0.002,0.182,0.002c5.55,0,10.482-2.762,13.463-6.996
	c-2.681,1.888-5.948,2.996-9.463,2.996c-0.061,0-0.121,0-0.182-0.002c-9.06-0.101-16.322-7.562-16.222-16.621
	C82.154,191.295,83.251,188.119,85.092,185.503 M59.545,185.486l-1.561,0.16c-0.446,0.047-0.876,0.139-1.288,0.272
	c-0.192,0.59-0.297,1.218-0.303,1.867l-0.019,1.614l1.977-0.203C58.679,187.934,59.08,186.697,59.545,185.486 M72.709,158.516
	c-1.573,0-3.138,0.596-4.344,1.775l-1.138,1.113c-0.375,0.488-0.67,1.021-0.882,1.58c0.754-0.312,1.558-0.467,2.363-0.467
	c1.389,0,2.784,0.463,3.942,1.399l3.119,2.546c2.945-1.697,6.115-2.995,9.409-3.843l0.368-2.864
	c-1.997,0.738-3.931,1.645-5.776,2.708l-3.119-2.546C75.493,158.98,74.098,158.516,72.709,158.516 M95.843,149.284
	c-0.664,0-1.307,0.104-1.91,0.3c-0.119,0.366-0.205,0.747-0.254,1.141l-0.331,2.576l4.908,0.059c3.17,0.025,5.815,2.447,6.139,5.592
	l0.4,3.918c3.194,0.898,6.238,2.221,9.083,3.943l3.02-2.321c1.137-0.878,2.483-1.31,3.822-1.31c1.627,0,3.245,0.637,4.464,1.883
	l4.417,4.518c2.221,2.271,2.371,5.814,0.373,8.286l-2.521,3.095c1.499,2.746,2.646,5.689,3.419,8.734l4.044,0.525
	c3.144,0.398,5.49,3.094,5.44,6.264l-0.057,4.697l2.391-0.244c0.445-0.047,0.875-0.139,1.287-0.272
	c0.192-0.59,0.297-1.218,0.304-1.868l0.075-6.314c0.05-3.168-2.297-5.864-5.44-6.264l-4.044-0.525
	c-0.773-3.043-1.92-5.987-3.419-8.733l2.521-3.095c1.998-2.473,1.848-6.014-0.373-8.286l-4.418-4.517
	c-1.219-1.246-2.836-1.883-4.464-1.885c-1.339,0-2.685,0.432-3.822,1.311l-3.02,2.32c-2.845-1.722-5.89-3.045-9.083-3.942
	l-0.4-3.918c-0.324-3.146-2.969-5.566-6.139-5.591l-6.314-0.075C95.909,149.284,95.876,149.284,95.843,149.284"/>
<path fill="#FF0000" d="M126.039,127.199l-6.563,6.563c-1.229,1.217-2.845,1.84-4.468,1.84c-1.377,0-2.76-0.449-3.917-1.365
	l-7.412-5.864c-3.107,1.747-6.363,3.194-9.739,4.326l-0.302,2.614c2.067-0.858,4.083-1.84,6.041-2.94l7.412,5.864
	c1.156,0.916,2.539,1.365,3.917,1.365c1.624,0,3.24-0.625,4.468-1.84l10.532-10.531
	C126.018,127.221,126.029,127.209,126.039,127.199 M140.387,93.051c-0.404,0.135-0.83,0.23-1.27,0.282l-6.021,0.694
	c-0.438,1.253-0.923,2.489-1.451,3.706l3.474-0.4C137.622,97.039,139.634,95.319,140.387,93.051 M7.142,70.812
	c-2.538,0.845-4.319,3.227-4.319,5.981v14.899c0,3.194,2.396,5.89,5.59,6.264l9.683,1.123c1.223,4.193,2.919,8.236,5.066,12.03
	l-6.114,7.711c-1.997,2.52-1.771,6.114,0.474,8.386l10.532,10.53c1.225,1.226,2.834,1.848,4.454,1.848
	c1.382,0,2.771-0.454,3.932-1.373l7.662-6.064c3.942,2.271,8.135,4.043,12.503,5.291l1.147,9.857c0.375,3.194,3.07,5.59,6.264,5.59
	h14.899c2.754,0,5.138-1.781,5.982-4.318c-0.625,0.207-1.292,0.318-1.982,0.318H68.016c-3.194,0-5.89-2.396-6.264-5.59l-1.147-9.857
	c-4.368-1.248-8.561-3.021-12.503-5.291l-7.662,6.064c-1.161,0.919-2.55,1.373-3.932,1.373c-1.618,0-3.229-0.622-4.453-1.848
	l-10.532-10.53c-2.246-2.271-2.471-5.866-0.474-8.386l6.114-7.711c-2.146-3.793-3.843-7.836-5.066-12.03l-9.683-1.123
	c-3.195-0.375-5.59-3.07-5.59-6.264V72.793C6.823,72.104,6.935,71.437,7.142,70.812 M76.076,54.775
	c-5.772,0-11.087,1.998-15.292,5.339c-0.595,0.749-1.146,1.532-1.652,2.347c3.764-2.336,8.2-3.686,12.944-3.686
	c13.577,0,24.633,11.056,24.633,24.631c0,4.745-1.35,9.181-3.686,12.945c0.815-0.506,1.599-1.058,2.347-1.652
	c3.341-4.205,5.339-9.521,5.339-15.293C100.709,65.831,89.653,54.775,76.076,54.775 M21.475,36.729l-3.953,3.953
	c-2.271,2.271-2.471,5.865-0.474,8.386l5.74,7.263c-1.04,1.876-1.967,3.81-2.777,5.79l2.642-0.302
	c1.072-3.283,2.457-6.459,4.136-9.488l-5.74-7.263C19.065,42.564,19.249,39.002,21.475,36.729 M62.632,15.346
	c-2.269,0.753-3.988,2.766-4.282,5.27l-0.361,3.1c1.215-0.518,2.449-0.992,3.699-1.421l0.662-5.679
	C62.402,16.176,62.498,15.751,62.632,15.346"/>
<path fill="#FF00FF" d="M93.94,132.698c-1.207,0.403-2.428,0.768-3.664,1.089l-0.336,2.91c1.25-0.418,2.482-0.881,3.698-1.385
	L93.94,132.698 M95.37,94.7c-0.749,0.595-1.532,1.146-2.347,1.652c-0.506,0.814-1.059,1.599-1.653,2.347
	C92.851,97.523,94.194,96.18,95.37,94.7 M133.096,94.026l-2.863,0.33c-0.334,1.238-0.715,2.462-1.137,3.67l2.549-0.293
	C132.173,96.515,132.657,95.279,133.096,94.026 M22.652,61.817l-2.642,0.302c-0.497,1.215-0.951,2.449-1.358,3.698l2.945-0.336
	C21.906,64.246,22.257,63.024,22.652,61.817 M60.784,60.114c-1.48,1.176-2.824,2.52-4,4c0.748-0.594,1.533-1.147,2.348-1.653
	C59.638,61.646,60.189,60.863,60.784,60.114 M61.688,22.294c-1.25,0.429-2.484,0.903-3.699,1.421l-0.301,2.579
	c1.207-0.415,2.428-0.787,3.664-1.118L61.688,22.294"/>
<path fill="#FFFF00" d="M107.679,124.372c-4.218,2.371-8.71,4.192-13.403,5.415l-0.336,2.911c3.375-1.132,6.631-2.579,9.739-4.326
	l7.412,5.864c1.156,0.916,2.54,1.365,3.917,1.365c1.624,0,3.24-0.625,4.468-1.84l6.563-6.563c0.004-0.004,0.009-0.01,0.013-0.014
	l-2.576,2.576c-1.229,1.217-2.845,1.84-4.468,1.84c-1.377,0-2.76-0.449-3.917-1.365L107.679,124.372 M140.707,89.61l-6.475,0.746
	c-0.334,1.238-0.715,2.462-1.137,3.67l6.021-0.694c0.439-0.052,0.865-0.147,1.27-0.282c0.209-0.625,0.319-1.292,0.319-1.982
	L140.707,89.61 M10.823,70.254l-2.41,0.275c-0.44,0.052-0.866,0.147-1.271,0.282c-0.207,0.625-0.319,1.292-0.319,1.981v14.899
	c0,3.194,2.396,5.89,5.59,6.264l9.683,1.123c1.223,4.193,2.919,8.236,5.066,12.03l-6.114,7.711c-1.997,2.52-1.771,6.114,0.474,8.386
	l10.532,10.531c1.225,1.225,2.835,1.847,4.453,1.847c1.382,0,2.771-0.454,3.932-1.373l7.662-6.065
	c3.942,2.271,8.135,4.043,12.503,5.291l1.147,9.858c0.375,3.194,3.07,5.59,6.264,5.59h14.899c0.69,0,1.357-0.112,1.982-0.319
	c0.135-0.404,0.23-0.83,0.282-1.271l0.278-2.41h-13.44c-3.194,0-5.89-2.396-6.264-5.59l-1.147-9.858
	c-4.368-1.248-8.561-3.02-12.503-5.291l-7.662,6.065c-1.161,0.919-2.55,1.373-3.932,1.373c-1.619,0-3.229-0.622-4.454-1.847
	l-10.532-10.531c-2.246-2.271-2.471-5.866-0.474-8.386l6.114-7.711c-2.146-3.793-3.843-7.836-5.066-12.03l-9.683-1.123
	c-3.195-0.375-5.59-3.07-5.59-6.264V70.254 M80.076,50.775c-7.803,0-14.775,3.654-19.292,9.339c4.205-3.341,9.52-5.339,15.292-5.339
	c13.577,0,24.633,11.056,24.633,24.631c0,5.772-1.998,11.088-5.339,15.293c5.685-4.517,9.339-11.489,9.339-19.293
	C104.709,61.831,93.653,50.775,80.076,50.775 M25.455,32.749l-3.98,3.979c-2.227,2.273-2.41,5.835-0.427,8.338l5.74,7.263
	c-1.679,3.029-3.063,6.205-4.136,9.488l2.945-0.336c1.149-4.592,2.895-9.009,5.191-13.151l-5.74-7.263
	C23.071,38.571,23.248,35.023,25.455,32.749 M66.069,15.027h-1.454c-0.69,0-1.357,0.112-1.983,0.319
	c-0.135,0.405-0.23,0.83-0.282,1.27l-0.662,5.679c1.206-0.415,2.428-0.787,3.664-1.118L66.069,15.027"/>
<path fill="#CCCCCC" d="M60.784,60.114c4.517-5.685,11.489-9.339,19.292-9.339c13.577,0,24.633,11.056,24.633,24.631
	c0,7.804-3.654,14.776-9.339,19.293c-1.176,1.48-2.52,2.823-4,4c-4.517,5.686-11.489,9.339-19.294,9.339
	c-13.575,0-24.631-11.056-24.631-24.632c0-7.804,3.653-14.775,9.339-19.292C57.96,62.634,59.304,61.291,60.784,60.114
	 M79.514,15.027H66.069l-0.717,6.15c-1.236,0.331-2.458,0.703-3.664,1.118l-0.336,2.882c-1.236,0.331-2.458,0.703-3.664,1.118
	l-0.336,2.882c-4.941,1.322-9.658,3.318-14.051,5.939l-6.862-5.44c-1.157-0.917-2.54-1.365-3.917-1.365
	c-1.624,0-3.239,0.623-4.468,1.839l-2.599,2.599c-2.207,2.274-2.384,5.822-0.407,8.318l5.74,7.263
	c-2.296,4.143-4.042,8.559-5.191,13.151l-2.945,0.336c-0.395,1.207-0.746,2.429-1.055,3.664l-2.945,0.336
	c-0.395,1.207-0.746,2.429-1.055,3.664l-6.774,0.773v13.438c0,3.194,2.396,5.89,5.59,6.264l9.683,1.123
	c1.223,4.193,2.919,8.236,5.066,12.03l-6.114,7.711c-1.997,2.52-1.771,6.114,0.474,8.386l10.532,10.53
	c1.225,1.226,2.834,1.848,4.454,1.848c1.382,0,2.771-0.454,3.932-1.373l7.662-6.065c3.942,2.271,8.135,4.043,12.503,5.292
	l1.147,9.857c0.375,3.194,3.07,5.59,6.264,5.59h13.441l0.819-7.099c1.236-0.322,2.458-0.687,3.664-1.091l0.336-2.909
	c1.236-0.322,2.458-0.687,3.664-1.089l0.336-2.911c4.693-1.224,9.185-3.044,13.403-5.415l7.412,5.863
	c1.156,0.918,2.539,1.365,3.917,1.365c1.624,0,3.24-0.623,4.468-1.839l2.576-2.575c2.229-2.273,2.413-5.836,0.431-8.342
	l-5.767-7.312c2.396-4.143,4.268-8.56,5.515-13.177l2.865-0.33c0.422-1.208,0.801-2.432,1.135-3.67l2.865-0.33
	c0.422-1.208,0.801-2.432,1.135-3.67l6.476-0.746v-13.44c0-3.194-2.396-5.89-5.589-6.263l-8.762-1.024
	c-1.196-4.566-2.995-8.934-5.29-13.027l5.39-6.813c1.997-2.521,1.772-6.114-0.476-8.385L115.476,30.15
	c-1.225-1.225-2.834-1.848-4.453-1.848c-1.382,0-2.771,0.454-3.932,1.374l-6.614,5.241c-4.292-2.521-8.885-4.442-13.702-5.74
	l-0.998-8.561C85.404,17.422,82.708,15.027,79.514,15.027"/>
<path fill="#FF0000" d="M208.895,176.039c-2.104,1.43-4.322,2.684-6.635,3.749l-0.063,1.952c0.918-0.535,1.818-1.104,2.699-1.701
	l5.664,3.744c1.061,0.699,2.26,1.039,3.448,1.039c1.78,0,3.537-0.762,4.763-2.213l2.095-2.479c-0.888,0.458-1.869,0.692-2.857,0.692
	c-1.188,0-2.388-0.34-3.448-1.039L208.895,176.039 M235.146,145.034c-0.227,0.073-0.459,0.135-0.696,0.183l-2.982,0.608
	c-0.303,1.146-0.651,2.278-1.044,3.397l0.027-0.006C232.706,148.762,234.459,147.113,235.146,145.034 M126.41,135.824
	c-2.714,0.883-4.526,3.552-4.296,6.455l0.874,10.258c0.136,1.557,0.835,2.949,1.891,3.97l0.02-0.015
	c1.138-0.879,2.483-1.311,3.822-1.311c1.627,0,3.245,0.639,4.465,1.885l1.332,1.363l1.498,0.049c0.334,0.875,0.692,1.736,1.08,2.586
	l0.506,0.52c1.049,1.071,1.635,2.425,1.752,3.816c0.515,0.869,1.058,1.724,1.627,2.562l-3.916,5.915
	c-0.236,0.355-0.431,0.729-0.586,1.112c1.008,2.149,1.809,4.401,2.396,6.71l4.044,0.525c3.145,0.398,5.49,3.094,5.439,6.264
	l-0.017,1.451c0.579,0.172,1.177,0.259,1.775,0.259c1.54,0,3.075-0.568,4.267-1.695l5.141-4.817
	c3.369,1.572,6.914,2.746,10.558,3.444l1.423,7.038c0.59,2.932,3.196,5.012,6.143,5.012c0.164,0,0.33-0.007,0.496-0.021
	l10.258-0.874c2.548-0.223,4.654-1.953,5.414-4.289c-0.451,0.148-0.924,0.246-1.414,0.289l-10.258,0.874
	c-0.166,0.013-0.332,0.021-0.496,0.021c-2.945,0-5.553-2.08-6.143-5.012l-1.423-7.038c-3.644-0.698-7.188-1.872-10.558-3.444
	l-5.141,4.817c-1.191,1.127-2.729,1.695-4.267,1.695c-1.427,0-2.854-0.487-4.019-1.472l-7.861-6.639
	c-2.422-2.045-2.92-5.564-1.174-8.21l3.918-5.915c-2.021-2.969-3.694-6.139-4.967-9.482L133,154.255
	c-3.169-0.101-5.738-2.571-6.014-5.715l-0.875-10.257C126.047,137.427,126.154,136.596,126.41,135.824 M183.05,117.791
	c-0.573,0-1.151,0.024-1.731,0.074c-3.918,0.327-7.48,1.759-10.41,3.966c-0.581,0.771-1.107,1.583-1.574,2.432
	c2.395-1.313,5.093-2.157,7.984-2.398c0.58-0.05,1.16-0.074,1.731-0.074c10.353,0,19.181,7.968,20.056,18.467
	c0.351,4.102-0.561,8.027-2.41,11.391c0.85-0.467,1.66-0.99,2.427-1.567c2.882-3.826,4.422-8.685,3.981-13.822
	C202.23,125.758,193.4,117.79,183.05,117.791 M135.738,113.573c0.389,1.998-0.201,4.128-1.73,5.658l-0.428,0.428l3.357,3.579
	c-0.635,1.431-1.196,2.891-1.684,4.374l3.03-0.617c0.653-2.655,1.542-5.249,2.653-7.756l-4.541-4.84
	C136.15,114.137,135.932,113.861,135.738,113.573 M140.738,100.667c-0.719,0.367-1.377,0.879-1.928,1.532l-5.746,6.848l1.418,1.798
	c0.117,0.147,0.226,0.299,0.328,0.453c-0.342-1.789,0.106-3.704,1.36-5.188L140.738,100.667 M167.768,86.841
	c-2.441,0.801-4.216,3.05-4.301,5.725l-0.059,1.806c1.275-0.762,2.591-1.46,3.938-2.092l0.122-3.713
	C167.486,87.965,167.59,87.387,167.768,86.841"/>
<path fill="#FF00FF" d="M133.064,109.046l-0.894,1.064c-1.254,1.484-1.702,3.399-1.36,5.188c0.465,0.707,0.773,1.48,0.928,2.275
	c0.193,0.289,0.412,0.564,0.658,0.824l1.184,1.262l0.428-0.428c1.53-1.529,2.12-3.66,1.73-5.658c-0.465-0.7-0.775-1.475-0.928-2.275
	c-0.103-0.154-0.211-0.306-0.328-0.453L133.064,109.046"/>
<path fill="#FF00FF" d="M202.26,179.787c-1.279,0.589-2.588,1.12-3.921,1.591l-0.079,2.409c1.346-0.619,2.659-1.303,3.938-2.048
	L202.26,179.787 M199.122,150.08c-0.767,0.577-1.577,1.102-2.427,1.566c-0.465,0.85-0.992,1.662-1.573,2.434
	C196.639,152.938,197.984,151.589,199.122,150.08 M231.468,145.826l-3.256,0.665c-0.204,1.12-0.452,2.233-0.744,3.335l2.956-0.604
	C230.816,148.104,231.165,146.971,231.468,145.826 M138.285,126.993l-3.03,0.618c-0.366,1.115-0.688,2.242-0.97,3.382l3.309-0.675
	C137.784,129.201,138.014,128.092,138.285,126.993 M170.908,121.831c-1.516,1.142-2.863,2.49-4,4
	c0.767-0.578,1.578-1.102,2.426-1.568C169.801,123.414,170.327,122.602,170.908,121.831 M167.346,92.279
	c-1.348,0.632-2.662,1.33-3.938,2.092l-0.063,1.908c1.279-0.601,2.588-1.142,3.922-1.624L167.346,92.279"/>
<path fill="#FF00FF" d="M136.479,174.986c-0.992,2.455-0.336,5.328,1.758,7.098l7.861,6.639c0.676,0.571,1.441,0.976,2.243,1.213
	l0.017-1.451c0.051-3.17-2.295-5.865-5.439-6.264l-4.044-0.525C138.287,179.389,137.486,177.136,136.479,174.986 M137.096,161.063
	c0.674,1.483,1.428,2.93,2.258,4.334c-0.117-1.391-0.705-2.744-1.752-3.815L137.096,161.063 M128.721,155.182
	c-1.339,0-2.684,0.43-3.822,1.31l-0.02,0.015c1.076,1.041,2.523,1.695,4.123,1.746l5.516,0.178l-1.332-1.365
	C131.966,155.818,130.348,155.182,128.721,155.182"/>
<path fill="#FFFFFF" d="M130.811,115.298c0.152,0.8,0.463,1.575,0.93,2.275C131.585,116.778,131.275,116.005,130.811,115.298"/>
<path fill="#FFFF00" d="M212.895,172.039c-3.269,2.221-6.813,4.018-10.557,5.34l-0.079,2.409c2.313-1.065,4.531-2.317,6.636-3.749
	l5.664,3.744c1.061,0.699,2.26,1.039,3.448,1.039c0.989,0,1.97-0.234,2.856-0.692l3.044-3.604c-0.614,0.197-1.257,0.297-1.901,0.297
	c-1.189,0-2.388-0.34-3.447-1.039L212.895,172.039 M235.38,141.844l-3.168,0.646c-0.204,1.121-0.452,2.234-0.744,3.335l2.982-0.608
	c0.237-0.048,0.47-0.109,0.696-0.183c0.254-0.772,0.362-1.604,0.295-2.455L235.38,141.844 M130.177,135.016l-3.071,0.625
	c-0.237,0.049-0.469,0.109-0.694,0.184c-0.255,0.771-0.363,1.604-0.296,2.455l0.874,10.258c0.274,3.145,2.845,5.615,6.014,5.715
	l7.015,0.225c1.271,3.344,2.944,6.515,4.965,9.483l-3.916,5.915c-1.748,2.645-1.25,6.165,1.172,8.21l7.861,6.64
	c1.164,0.983,2.594,1.471,4.02,1.471c1.54,0,3.074-0.568,4.268-1.695l5.141-4.816c3.369,1.571,6.912,2.746,10.557,3.443l1.423,7.038
	c0.591,2.931,3.196,5.011,6.142,5.011c0.166,0,0.33-0.006,0.498-0.02l10.256-0.874c0.49-0.044,0.964-0.142,1.416-0.289
	c0.177-0.546,0.281-1.125,0.3-1.726l0.06-1.797l-8.031,0.686c-0.166,0.013-0.332,0.02-0.496,0.02c-2.945,0-5.553-2.08-6.143-5.011
	l-1.423-7.038c-3.644-0.697-7.188-1.872-10.558-3.443l-5.141,4.816c-1.191,1.127-2.728,1.695-4.267,1.695
	c-1.425,0-2.854-0.487-4.019-1.471l-7.861-6.64c-2.422-2.045-2.92-5.565-1.174-8.21l3.918-5.915
	c-2.021-2.969-3.694-6.14-4.967-9.483l-7.014-0.225c-3.169-0.1-5.738-2.57-6.014-5.715L130.177,135.016 M187.05,113.791
	c-0.573,0-1.151,0.024-1.731,0.074c-5.943,0.496-11.075,3.54-14.41,7.966c2.93-2.207,6.494-3.639,10.41-3.966
	c0.58-0.05,1.16-0.074,1.731-0.074c10.351,0,19.181,7.968,20.054,18.467c0.44,5.139-1.1,9.996-3.981,13.822
	c5.358-4.036,8.596-10.658,7.981-17.822C206.23,121.758,197.4,113.79,187.05,113.791 M141.717,100.269
	c-0.335,0.104-0.662,0.237-0.979,0.398l-4.566,5.443c-1.254,1.484-1.701,3.398-1.361,5.188c0.467,0.707,0.774,1.48,0.93,2.275
	c0.191,0.289,0.412,0.564,0.656,0.824l4.543,4.84c-1.112,2.507-2,5.101-2.654,7.756l3.309-0.675
	c0.649-3.819,1.772-7.537,3.346-11.083l-4.543-4.84c-2.17-2.296-2.271-5.865-0.224-8.286L141.717,100.269 M171.408,86.362
	l-2.227,0.189c-0.49,0.043-0.964,0.142-1.414,0.29c-0.179,0.546-0.283,1.125-0.302,1.725l-0.122,3.713
	c1.279-0.601,2.588-1.142,3.922-1.624L171.408,86.362"/>
<path fill="#FFFFFF" d="M134.811,111.298c0.152,0.8,0.463,1.575,0.93,2.275C135.585,112.778,135.275,112.005,134.811,111.298"/>
<path fill="#CCCCCC" d="M170.908,121.831c3.335-4.426,8.467-7.47,14.41-7.966c0.58-0.05,1.16-0.074,1.731-0.074
	c10.351,0,19.181,7.968,20.054,18.467c0.613,7.165-2.623,13.787-7.981,17.822c-1.138,1.509-2.483,2.857-4,4
	c-3.334,4.426-8.468,7.47-14.41,7.965c-0.581,0.051-1.157,0.074-1.731,0.074c-10.351,0-19.181-7.969-20.056-18.467
	c-0.612-7.164,2.624-13.786,7.982-17.821C168.045,124.321,169.393,122.972,170.908,121.831 M179.936,85.658
	c-0.164,0-0.33,0.006-0.496,0.02l-8.031,0.684l-0.141,4.293c-1.334,0.481-2.644,1.023-3.922,1.624l-0.078,2.376
	c-1.334,0.481-2.644,1.023-3.922,1.624l-0.078,2.376c-3.943,1.423-7.662,3.369-11.056,5.815l-5.192-3.444
	c-1.059-0.7-2.258-1.04-3.447-1.04c-0.629,0-1.256,0.095-1.856,0.282l-1.545,1.841c-2.046,2.421-1.946,5.99,0.224,8.286l4.543,4.84
	c-1.572,3.544-2.696,7.263-3.346,11.082l-3.309,0.676c-0.271,1.099-0.501,2.208-0.691,3.324l-3.309,0.675
	c-0.271,1.099-0.501,2.208-0.691,3.325l-3.417,0.697l0.812,9.521c0.275,3.145,2.845,5.615,6.014,5.715l7.014,0.225
	c1.272,3.344,2.945,6.515,4.967,9.483l-3.918,5.915c-1.746,2.645-1.248,6.165,1.174,8.21l7.861,6.64
	c1.164,0.983,2.592,1.471,4.019,1.471c1.54,0,3.075-0.568,4.267-1.695l5.141-4.816c3.369,1.571,6.914,2.745,10.558,3.443
	l1.423,7.038c0.59,2.931,3.196,5.011,6.143,5.011c0.164,0,0.33-0.006,0.496-0.02l8.03-0.686l0.166-5.092
	c1.333-0.471,2.642-1.002,3.921-1.591l0.079-2.409c1.333-0.471,2.642-1.002,3.921-1.591l0.079-2.409
	c3.744-1.322,7.288-3.119,10.558-5.34l5.664,3.744c1.061,0.699,2.26,1.039,3.448,1.039c0.646,0,1.287-0.1,1.901-0.297l1.5-1.776
	c2.047-2.421,1.947-5.989-0.225-8.286l-4.566-4.841c1.672-3.544,2.895-7.288,3.594-11.13l3.256-0.665
	c0.293-1.103,0.54-2.214,0.744-3.335l3.256-0.665c0.293-1.103,0.54-2.214,0.744-3.335l3.168-0.646l-0.813-9.521
	c-0.274-3.145-2.846-5.615-6.014-5.715l-6.265-0.2c-1.297-3.644-3.044-7.087-5.216-10.282l3.419-5.141
	c1.797-2.645,1.298-6.189-1.123-8.236l-7.861-6.638c-1.163-0.984-2.594-1.472-4.02-1.472c-1.54,0-3.074,0.569-4.267,1.697
	l-4.343,4.067c-3.668-1.772-7.562-3.02-11.58-3.744l-1.223-5.99C185.486,87.738,182.88,85.658,179.936,85.658"/>
<path fill="#FF0000" d="M116.556,227.823c-1.728,0.94-3.512,1.741-5.352,2.399l-0.207,1.635c-0.037,0.291-0.093,0.574-0.167,0.849
	c0.581-0.28,1.156-0.574,1.726-0.884l3.495,2.82c1.158,0.937,2.553,1.399,3.941,1.399c1.573,0,3.138-0.595,4.345-1.774l4.517-4.418
	c0.217-0.211,0.416-0.437,0.597-0.67l-1.113,1.088c-1.207,1.18-2.772,1.774-4.345,1.774c-1.388,0-2.783-0.464-3.941-1.399
	L116.556,227.823 M139.98,204.666c-0.412,0.134-0.842,0.227-1.289,0.271l-1.426,0.146c-0.518,1.27-1.106,2.509-1.768,3.717
	C137.625,208.294,139.316,206.703,139.98,204.666 M52.696,189.919c-2.495,0.812-4.281,3.146-4.303,5.867l-0.075,6.313
	c-0.05,3.168,2.296,5.864,5.44,6.265l4.642,0.599c0.773,2.82,1.872,5.516,3.295,8.061l-2.995,3.693
	c-1.998,2.471-1.848,6.014,0.374,8.286l4.417,4.517c1.219,1.246,2.836,1.883,4.464,1.883c1.339,0,2.685-0.43,3.823-1.31l3.717-2.87
	c2.621,1.547,5.392,2.771,8.287,3.618l0.499,4.792c0.324,3.145,2.97,5.564,6.139,5.59l6.314,0.075c0.032,0,0.065,0.001,0.098,0.001
	c2.731,0,5.094-1.777,5.912-4.301c-0.604,0.195-1.247,0.301-1.911,0.301c-0.033,0-0.065,0-0.098-0.001l-6.314-0.075
	c-3.169-0.024-5.814-2.445-6.139-5.59l-0.499-4.792c-2.895-0.848-5.666-2.071-8.287-3.618l-3.717,2.87
	c-1.138,0.878-2.484,1.31-3.823,1.31c-1.627,0-3.245-0.637-4.464-1.883l-4.417-4.517c-2.222-2.272-2.372-5.815-0.374-8.286
	l2.995-3.693c-1.423-2.545-2.521-5.24-3.295-8.061l-4.642-0.599c-3.145-0.4-5.491-3.095-5.44-6.265l0.075-6.313
	C52.398,191.137,52.504,190.509,52.696,189.919 M98.553,178.508c-3.514,0-6.781,1.107-9.461,2.996
	c-0.56,0.795-1.051,1.643-1.464,2.532c2.107-0.979,4.456-1.528,6.925-1.528c0.062,0,0.122,0,0.184,0.001
	c9.059,0.101,16.321,7.562,16.222,16.622c-0.026,2.391-0.565,4.657-1.511,6.695c0.892-0.415,1.74-0.907,2.536-1.469
	c1.841-2.614,2.938-5.791,2.975-9.227c0.1-9.061-7.163-16.521-16.222-16.622C98.675,178.508,98.615,178.508,98.553,178.508
	 M63.228,165.402l-3.404,3.33c-2.271,2.222-2.521,5.766-0.574,8.287l2.67,3.443c-0.244,0.434-0.48,0.871-0.708,1.313
	c0.252-0.059,0.509-0.102,0.772-0.129l1.561-0.16c0.666-1.731,1.464-3.408,2.375-5.023l-2.67-3.443
	C61.488,170.739,61.524,167.622,63.228,165.402 M89.933,153.584c-1.767,0.572-3.202,1.917-3.881,3.665
	c1.139-0.556,2.305-1.056,3.494-1.494l0.132-1.03C89.728,154.331,89.814,153.95,89.933,153.584"/>
<path fill="#FF00FF" d="M111.204,230.223c-1.188,0.426-2.398,0.791-3.632,1.094l-0.367,2.906c1.233-0.44,2.442-0.947,3.625-1.516
	c0.074-0.275,0.131-0.559,0.167-0.848L111.204,230.223 M137.268,205.084l-2.718,0.277c-0.36,1.268-0.788,2.509-1.282,3.723
	l1.426-0.146c0.274-0.027,0.543-0.074,0.807-0.137C136.16,207.593,136.749,206.354,137.268,205.084 M111.984,204.357
	c-0.796,0.562-1.645,1.053-2.536,1.468c-0.413,0.89-0.904,1.737-1.464,2.532C109.536,207.264,110.891,205.91,111.984,204.357
	 M89.092,181.503c-1.552,1.093-2.908,2.448-4,4c0.797-0.562,1.645-1.053,2.536-1.468C88.042,183.145,88.532,182.298,89.092,181.503
	 M63.545,181.486l-1.561,0.16c-0.263,0.027-0.521,0.07-0.772,0.129c-0.621,1.207-1.179,2.443-1.667,3.711l2.806-0.289
	C62.679,183.934,63.08,182.697,63.545,181.486 M89.546,155.755c-1.189,0.438-2.355,0.938-3.494,1.494
	c-0.181,0.466-0.308,0.96-0.374,1.476l-0.132,1.029c1.19-0.439,2.402-0.818,3.632-1.136L89.546,155.755"/>
<path fill="#FFFF00" d="M120.556,223.823c-2.844,1.547-5.839,2.719-8.984,3.493l-0.368,2.906c1.839-0.658,3.624-1.459,5.352-2.399
	l3.495,2.819c1.158,0.937,2.553,1.4,3.941,1.4c1.573,0,3.138-0.595,4.345-1.775l1.113-1.088c0.379-0.494,0.676-1.033,0.888-1.597
	c-0.749,0.306-1.546,0.459-2.346,0.459c-1.389,0-2.783-0.464-3.941-1.399L120.556,223.823 M140.302,201.184l-1.752,0.178
	c-0.36,1.268-0.788,2.509-1.282,3.723l1.426-0.146c0.445-0.045,0.875-0.138,1.287-0.271c0.192-0.59,0.299-1.218,0.304-1.868
	L140.302,201.184 M56.374,189.4l-2.39,0.246c-0.445,0.047-0.876,0.139-1.288,0.272c-0.192,0.59-0.297,1.218-0.303,1.867
	l-0.075,6.313c-0.05,3.168,2.296,5.864,5.44,6.265l4.642,0.599c0.773,2.82,1.872,5.516,3.295,8.061l-2.995,3.693
	c-1.998,2.471-1.848,6.014,0.374,8.286l4.417,4.517c1.219,1.246,2.836,1.883,4.464,1.883c1.339,0,2.685-0.43,3.823-1.31l3.717-2.87
	c2.621,1.547,5.392,2.771,8.287,3.618l0.499,4.792c0.324,3.145,2.97,5.564,6.139,5.59l6.314,0.075c0.033,0,0.065,0.001,0.098,0.001
	c0.665,0,1.307-0.105,1.911-0.301c0.119-0.366,0.205-0.747,0.254-1.141l0.326-2.576l-4.904-0.059
	c-3.169-0.025-5.814-2.445-6.139-5.591l-0.499-4.792c-2.895-0.848-5.666-2.07-8.287-3.617l-3.717,2.869
	c-1.138,0.879-2.484,1.311-3.823,1.311c-1.627,0-3.245-0.637-4.464-1.883l-4.417-4.518c-2.222-2.271-2.372-5.816-0.374-8.286
	l2.995-3.692c-1.423-2.547-2.521-5.241-3.295-8.062l-4.642-0.599c-3.145-0.4-5.491-3.096-5.44-6.266L56.374,189.4 M102.553,174.508
	c-5.548,0-10.48,2.762-13.461,6.996c2.68-1.888,5.947-2.996,9.461-2.996c0.062,0,0.122,0,0.184,0.001
	c9.059,0.101,16.321,7.562,16.222,16.622c-0.038,3.436-1.134,6.612-2.975,9.227c4.166-2.934,6.915-7.752,6.975-13.227
	c0.1-9.061-7.163-16.521-16.222-16.622C102.675,174.508,102.615,174.508,102.553,174.508 M66.346,162.982
	c-0.718,0.297-1.392,0.732-1.98,1.309l-1.138,1.113c-1.703,2.219-1.739,5.336,0.021,7.615l2.67,3.444
	c-0.911,1.616-1.709,3.292-2.375,5.022l2.806-0.288c0.799-3.07,2.021-5.989,3.569-8.734l-2.67-3.444
	C65.876,167.242,65.596,164.956,66.346,162.982 M91.843,153.284c-0.664,0-1.307,0.104-1.91,0.3
	c-0.119,0.366-0.205,0.747-0.254,1.141l-0.132,1.03c1.19-0.44,2.403-0.819,3.633-1.136l0.169-1.317l-1.406-0.017
	C91.909,153.284,91.875,153.284,91.843,153.284"/>
<path fill="#CCCCCC" d="M89.092,181.503c2.98-4.233,7.913-6.995,13.461-6.996c0.062,0,0.122,0,0.184,0.001
	c9.059,0.1,16.321,7.563,16.222,16.622c-0.06,5.476-2.81,10.293-6.975,13.228c-1.093,1.553-2.448,2.906-4,4
	c-2.981,4.233-7.914,6.996-13.463,6.996c-0.061,0-0.121,0-0.182-0.002c-9.06-0.101-16.322-7.562-16.222-16.621
	c0.061-5.475,2.811-10.293,6.976-13.228C86.185,183.951,87.541,182.596,89.092,181.503 M93.348,153.301l-0.169,1.317
	c-1.23,0.317-2.442,0.696-3.633,1.136l-0.367,2.864c-1.23,0.317-2.442,0.696-3.632,1.136l-0.368,2.864
	c-3.294,0.849-6.463,2.146-9.409,3.843l-3.119-2.546c-1.159-0.937-2.554-1.399-3.942-1.399c-0.806,0-1.609,0.155-2.363,0.467
	c-0.75,1.973-0.469,4.259,0.903,6.035l2.67,3.444c-1.547,2.745-2.77,5.665-3.569,8.733l-2.806,0.289
	c-0.465,1.211-0.866,2.449-1.194,3.711l-2.806,0.289c-0.465,1.211-0.866,2.449-1.194,3.711l-1.977,0.205l-0.056,4.699
	c-0.05,3.168,2.296,5.864,5.44,6.264l4.642,0.6c0.773,2.82,1.872,5.516,3.295,8.061l-2.995,3.693
	c-1.998,2.471-1.848,6.014,0.374,8.286l4.417,4.517c1.219,1.246,2.836,1.883,4.464,1.883c1.339,0,2.685-0.43,3.823-1.31l3.717-2.87
	c2.621,1.547,5.392,2.771,8.287,3.618l0.499,4.792c0.324,3.145,2.97,5.564,6.139,5.59l4.904,0.06l0.249-1.968
	c1.234-0.304,2.445-0.668,3.633-1.094l0.367-2.906c1.234-0.304,2.445-0.668,3.632-1.094l0.368-2.906
	c3.145-0.773,6.14-1.945,8.984-3.492l3.495,2.82c1.158,0.936,2.553,1.399,3.941,1.399c0.799,0,1.597-0.153,2.346-0.459
	c0.742-1.97,0.458-4.247-0.91-6.019l-2.671-3.47c1.647-2.745,2.92-5.665,3.793-8.735l2.718-0.277
	c0.494-1.214,0.922-2.456,1.282-3.723l2.718-0.277c0.494-1.214,0.922-2.456,1.282-3.723l1.752-0.178l0.056-4.699
	c0.051-3.168-2.295-5.864-5.439-6.264l-4.044-0.525c-0.772-3.043-1.92-5.987-3.419-8.733l2.521-3.095
	c1.996-2.473,1.848-6.014-0.375-8.286l-4.417-4.517c-1.219-1.246-2.836-1.883-4.464-1.885c-1.339,0-2.685,0.432-3.822,1.311
	l-3.02,2.32c-2.845-1.722-5.89-3.045-9.083-3.942l-0.4-3.918c-0.324-3.146-2.969-5.566-6.139-5.591L93.348,153.301"/>
</svg>
