<?xml version="1.0" encoding="utf-8"?>
<!-- Generator: Adobe Illustrator 16.0.0, SVG Export Plug-In . SVG Version: 6.00 Build 0)  -->
<!DOCTYPE svg PUBLIC "-//W3C//DTD SVG 1.1//EN" "http://www.w3.org/Graphics/SVG/1.1/DTD/svg11.dtd">
<svg version="1.1" xmlns="http://www.w3.org/2000/svg" xmlns:xlink="http://www.w3.org/1999/xlink" x="0px" y="0px"
	 width="252.232px" height="252.26px" viewBox="0 0 252.232 252.26" enable-background="new 0 0 252.232 252.26"
	 xml:space="preserve">
<g id="Layer_2">
	<g>
	</g>
	<g>
	</g>
	<g>
	</g>
	<g>
	</g>
	<g>
	</g>
</g>
<g id="Layer_2_copy">
	<g>
	</g>
	<g>
	</g>
	<g>
	</g>
	<g>
	</g>
	<g>
	</g>
</g>
<g id="Layer_2_copy_3">
	<g>
	</g>
	<g>
	</g>
	<g>
	</g>
	<g>
	</g>
	<g>
	</g>
	<g>
		<path fill="#FF0000" d="M179.109,145.714h-17.816v2h17.417L179.109,145.714 M112.807,122.333h-2v25.381h21.104v60.316h2v-62.316
			h-21.104V122.333 M183.676,92.952h-7.053c-5.834,0-9.973,1.604-12.467,4.863c2.504-1.917,5.984-2.863,10.467-2.863h9.053V92.952
			 M142.418,76.318c-0.36,0.298-0.715,0.604-1.063,0.92c-5.992,6.584-9.443,16.194-9.443,27.766v13.329h2v-15.329
			C133.912,92.05,137.006,82.854,142.418,76.318 M203.004,40.189H55.268c-3.28,0-6.199,1.58-8.035,4.018
			c1.682-1.267,3.772-2.018,6.035-2.018h147.735c5.544,0,10.054,4.51,10.054,10.053v147.736c0,2.263-0.751,4.353-2.018,6.034
			c2.438-1.836,4.018-4.754,4.018-8.034V50.242C213.057,44.699,208.548,40.189,203.004,40.189"/>
		<path fill="#00FF00" d="M131.912,208.031h-2v2h2V208.031 M209.04,206.012c-0.385,0.29-0.79,0.553-1.215,0.785
			c-0.233,0.425-0.496,0.831-0.785,1.215C207.797,207.443,208.47,206.769,209.04,206.012 M161.293,147.714h-2v2h2V147.714
			 M131.912,118.333h-2v2h2V118.333 M164.156,97.815c-0.756,0.578-1.422,1.245-2,2c0.378-0.29,0.776-0.556,1.199-0.801
			C163.599,98.593,163.867,98.193,164.156,97.815 M47.233,44.207c-0.756,0.569-1.43,1.243-2,2c0.384-0.29,0.791-0.552,1.215-0.785
			C46.681,44.997,46.944,44.592,47.233,44.207"/>
		<path fill="#FFFF00" d="M178.71,147.714h-17.417v2h17.017L178.71,147.714 M110.807,122.333h-2v27.381h21.104v58.316h2v-60.316
			h-21.104V122.333 M183.676,94.952h-9.053c-4.482,0-7.963,0.946-10.467,2.863c-0.289,0.377-0.557,0.777-0.801,1.199
			c2.377-1.379,5.462-2.063,9.268-2.063h11.053V94.952 M141.355,77.238c-7.217,6.56-11.443,16.961-11.443,29.766v11.329h2v-13.329
			C131.912,93.432,135.363,83.823,141.355,77.238 M201.004,42.189H53.268c-2.263,0-4.353,0.751-6.035,2.018
			c-0.289,0.384-0.552,0.79-0.785,1.214c1.432-0.786,3.075-1.232,4.82-1.232h147.735c5.544,0,10.054,4.51,10.054,10.053v147.736
			c0,1.745-0.447,3.388-1.232,4.819c0.425-0.232,0.83-0.495,1.215-0.785c1.267-1.682,2.018-3.771,2.018-6.034V52.242
			C211.057,46.699,206.548,42.189,201.004,42.189"/>
		<path fill="#0000FF" d="M159.293,149.714h-2v62.316h41.711c3.281,0,6.2-1.579,8.036-4.019c-1.682,1.267-3.773,2.019-6.036,2.019
			h-41.711V149.714 M129.912,120.333h-17.104v2h17.104V120.333 M162.156,99.815c-3.259,2.495-4.863,6.633-4.863,12.465v10.052
			h26.493l-4.677,23.381h1.601l5.076-25.381h-26.493v-10.052C159.293,105.8,160.239,102.319,162.156,99.815 M185.676,67.57h-21.604
			c-8.234,0-15.313,2.758-20.716,7.668c-0.32,0.352-0.632,0.711-0.938,1.08c5.255-4.333,11.948-6.748,19.653-6.748h21.604v23.382h2
			V67.57 M45.234,46.207c-2.438,1.836-4.018,4.755-4.018,8.035v147.736c0,5.543,4.51,10.053,10.053,10.053h78.644v-2H53.268
			c-5.543,0-10.053-4.51-10.053-10.053V52.242C43.216,49.979,43.967,47.888,45.234,46.207"/>
		<path fill="#FF00FF" d="M180.71,145.714h-1.601l-0.399,2h1.6L180.71,145.714 M112.807,120.333h-2v2h2V120.333 M185.676,92.952h-2
			v2h2V92.952 M143.355,75.238c-0.694,0.631-1.362,1.298-2,2c0.348-0.316,0.702-0.623,1.063-0.92
			C142.723,75.949,143.035,75.59,143.355,75.238"/>
		<path fill="#00FFFF" d="M161.293,149.714h-2v60.316h41.711c2.263,0,4.354-0.752,6.036-2.019c0.289-0.384,0.552-0.79,0.785-1.215
			c-1.433,0.786-3.075,1.233-4.821,1.233h-41.711V149.714 M129.912,118.333h-17.104v2h17.104V118.333 M163.355,99.014
			c-0.423,0.245-0.821,0.511-1.199,0.801c-1.917,2.503-2.863,5.984-2.863,10.465v10.052h26.493l-5.076,25.381h1.6l5.477-27.381
			h-26.493v-10.052C161.293,104.475,161.975,101.391,163.355,99.014 M187.676,65.57h-21.604c-9.294,0-17.114,3.513-22.716,9.668
			c5.402-4.91,12.481-7.668,20.716-7.668h21.604v25.382h2V65.57 M46.448,45.422c-0.424,0.233-0.831,0.496-1.215,0.785
			c-1.267,1.682-2.018,3.772-2.018,6.035v147.736c0,5.543,4.51,10.053,10.053,10.053h76.644v-2H55.268
			c-5.543,0-10.053-4.51-10.053-10.053V50.242C45.216,48.496,45.663,46.854,46.448,45.422"/>
		<path fill="#FFFFFF" d="M199.004,44.189H51.268c-1.745,0-3.388,0.447-4.82,1.232c-0.786,1.432-1.233,3.075-1.233,4.82v147.736
			c0,5.543,4.51,10.053,10.053,10.053h74.644v-58.316h-21.104v-27.381h2v-2h2v-2h17.104v-11.329
			c0-12.805,4.227-23.207,11.443-29.766c0.638-0.702,1.306-1.369,2-2c5.602-6.155,13.422-9.668,22.716-9.668h21.604v27.382h-2v2h-2
			v2h-11.053c-3.806,0-6.891,0.683-9.268,2.063c-1.38,2.377-2.063,5.46-2.063,9.266v10.052h26.493l-5.477,27.381h-1.6l-0.4,2h-1.6
			l-0.4,2h-17.017v58.316h41.711c1.746,0,3.389-0.447,4.821-1.233c0.785-1.432,1.232-3.074,1.232-4.819V54.242
			C209.057,48.699,204.548,44.189,199.004,44.189"/>
	</g>
</g>
</svg>
