<?xml version="1.0" encoding="utf-8"?>
<!-- Generator: Adobe Illustrator 16.0.0, SVG Export Plug-In . SVG Version: 6.00 Build 0)  -->
<!DOCTYPE svg PUBLIC "-//W3C//DTD SVG 1.1//EN" "http://www.w3.org/Graphics/SVG/1.1/DTD/svg11.dtd">
<svg version="1.1" xmlns="http://www.w3.org/2000/svg" xmlns:xlink="http://www.w3.org/1999/xlink" x="0px" y="0px"
	 width="252.232px" height="252.26px" viewBox="0 0 252.232 252.26" enable-background="new 0 0 252.232 252.26"
	 xml:space="preserve">
<g id="Layer_2">
</g>
<g id="Layer_2_copy">
</g>
<g id="Layer_2_copy_2">
	<g>
		<path fill="#FF0000" d="M157.163,124.654c-4.354,0-8.24,1.998-10.793,5.128c2.397-1.955,5.458-3.128,8.793-3.128
			c7.688,0,13.922,6.233,13.922,13.921c0,3.336-1.173,6.397-3.129,8.796c3.13-2.554,5.129-6.441,5.129-10.796
			C171.085,130.887,164.851,124.654,157.163,124.654"/>
		<path fill="#FF0000" d="M99.376,124.654c-4.354,0-8.241,1.999-10.793,5.128c2.397-1.955,5.458-3.128,8.793-3.128
			c7.688,0,13.921,6.233,13.921,13.921c0,3.336-1.173,6.397-3.129,8.796c3.13-2.554,5.129-6.441,5.129-10.796
			C113.297,130.887,107.064,124.654,99.376,124.654"/>
		<path fill="#FF0000" d="M214.716,142.977c-0.653,0.558-1.34,1.077-2.056,1.556c0.242,1.892,0.379,3.787,0.379,5.718
			c0,12.276-5.312,23.697-14.431,33.221c10.338-9.905,16.431-22.072,16.431-35.221C215.039,146.471,214.923,144.721,214.716,142.977
			 M60.122,121.661c-0.356,0.324-0.708,0.652-1.053,0.98c-4.606,4.84-7.957,10.1-9.937,15.615c-0.919,2.539-1.576,5.121-1.882,7.748
			c-0.175,1.4-0.263,2.847-0.263,4.246c0,13.396,7.836,26.223,22.065,36.074c15.147,10.462,35.417,16.242,57.087,16.242
			c21.67,0,41.939-5.78,57.087-16.242c2.938-2.034,5.604-4.196,7.984-6.463c0.321-0.338,0.637-0.679,0.947-1.021
			c-2.106,1.912-4.42,3.745-6.932,5.484c-15.147,10.462-35.417,16.242-57.087,16.242c-21.67,0-41.94-5.78-57.087-16.242
			c-14.229-9.852-22.065-22.678-22.065-36.074c0-1.399,0.088-2.846,0.263-4.246c0.306-2.627,0.963-5.209,1.882-7.748
			C52.974,131.125,56.001,126.217,60.122,121.661 M55.826,114.915c-0.031,0.033-0.063,0.066-0.095,0.099
			c0.033-0.032,0.066-0.063,0.1-0.095C55.829,114.917,55.828,114.916,55.826,114.915 M39.946,114.382
			c-0.397,0.262-0.782,0.545-1.15,0.846c-1.992,2.437-3.191,5.563-3.191,8.975c0,4.434,2.041,8.395,5.193,11.017
			c0.386-0.9,0.8-1.792,1.244-2.675c-2.718-2.604-4.437-6.273-4.437-10.342C37.604,119.308,38.468,116.619,39.946,114.382
			 M197.905,112.364c-1.066,0.229-2.089,0.581-3.05,1.041c7.315,6.554,12.735,14.186,15.688,22.488
			c0.313-0.216,0.616-0.444,0.91-0.685c0.376-0.46,0.724-0.943,1.042-1.45C209.676,125.909,204.651,118.663,197.905,112.364
			 M122.816,88.222l-0.282,0.008c-22.02,0.963-41.809,7.617-56.343,17.818c-3.853-3.634-9.018-5.823-14.709-5.823
			c-6.427,0-12.208,2.847-16.179,7.366c3.803-3.342,8.762-5.366,14.179-5.366c5.691,0,10.856,2.188,14.709,5.823
			c14.534-10.201,34.323-16.855,56.343-17.818l1.695-0.048L122.816,88.222 M141.219,58.479l-9.521,31.751
			c22.021,0.963,41.81,7.575,56.343,17.818c3.896-3.634,9.019-5.823,14.709-5.823c11.953,0,21.671,9.85,21.671,21.977
			c0,5.593-2.066,10.696-5.474,14.574c4.581-4.026,7.474-9.958,7.474-16.574c0-12.127-9.718-21.977-21.671-21.977
			c-5.69,0-10.813,2.188-14.709,5.823c-14.533-10.244-34.322-16.855-56.343-17.818l8.843-29.488L141.219,58.479 M183.854,53.845
			c-0.41,0.248-0.803,0.521-1.179,0.815c-1.602,2.036-2.56,4.617-2.56,7.42c0,6.567,5.254,11.908,11.733,11.908
			c2.701,0,5.19-0.929,7.174-2.487c0.297-0.377,0.57-0.772,0.821-1.185c-1.755,1.062-3.805,1.672-5.995,1.672
			c-6.479,0-11.733-5.341-11.733-11.908C182.116,57.796,182.752,55.659,183.854,53.845 M138.513,45.153l-0.678,2.264l35.03,6.99
			c0.413-0.739,0.871-1.449,1.371-2.125L138.513,45.153 M193.849,40.337c-5.838,0-11.068,2.61-14.643,6.733
			c3.403-2.949,7.815-4.733,12.643-4.733c10.77,0,19.481,8.887,19.481,19.788c0,4.988-1.824,9.545-4.835,13.021
			c4.185-3.622,6.835-9.009,6.835-15.021C213.331,49.223,204.619,40.337,193.849,40.337"/>
		<path fill="#FF0000" d="M156.376,169.001c-0.088,0.087-10.594,10.595-28.237,10.682c-17.906-0.087-28.194-10.595-28.281-10.682
			l-5.517,5.429c0.004,0.005,0.01,0.01,0.016,0.016l3.5-3.444c0.087,0.087,10.375,10.595,28.281,10.682
			c17.644-0.087,28.149-10.595,28.237-10.682l5.396,5.312c1.281-1.045,2.001-1.765,2.119-1.883L156.376,169.001"/>
		<path fill="#00FF00" d="M165.956,149.37c-0.369,0.301-0.755,0.584-1.153,0.846c-0.263,0.399-0.546,0.784-0.847,1.153
			C164.688,150.773,165.358,150.103,165.956,149.37 M146.37,129.781c-0.731,0.598-1.402,1.269-2,2
			c0.37-0.301,0.754-0.583,1.154-0.846C145.786,130.536,146.069,130.151,146.37,129.781"/>
		<path fill="#FFFF00" d="M155.163,126.654c-3.335,0-6.396,1.173-8.793,3.128c-0.301,0.369-0.584,0.755-0.846,1.154
			c2.192-1.442,4.817-2.282,7.639-2.282c7.688,0,13.922,6.233,13.922,13.921c0,2.822-0.84,5.448-2.282,7.642
			c0.398-0.262,0.784-0.545,1.153-0.846c1.956-2.398,3.129-5.46,3.129-8.796C169.085,132.887,162.851,126.654,155.163,126.654"/>
		<path fill="#00FF00" d="M108.168,149.37c-0.37,0.301-0.754,0.584-1.154,0.847c-0.263,0.399-0.545,0.784-0.847,1.153
			C106.9,150.773,107.571,150.103,108.168,149.37 M88.582,129.781c-0.732,0.598-1.403,1.269-2,2.001
			c0.369-0.302,0.754-0.584,1.154-0.847C87.998,130.536,88.281,130.152,88.582,129.781"/>
		<path fill="#FFFF00" d="M97.376,126.654c-3.335,0-6.396,1.173-8.793,3.128c-0.302,0.37-0.584,0.755-0.847,1.154
			c2.193-1.442,4.819-2.282,7.64-2.282c7.688,0,13.921,6.233,13.921,13.921c0,2.822-0.84,5.448-2.283,7.643
			c0.399-0.263,0.784-0.546,1.154-0.847c1.956-2.398,3.129-5.46,3.129-8.796C111.297,132.887,105.064,126.654,97.376,126.654"/>
		<path fill="#00FF00" d="M198.608,183.471c-0.343,0.328-0.692,0.656-1.044,0.979c-0.314,0.343-0.633,0.683-0.956,1.021
			C197.294,184.815,197.961,184.148,198.608,183.471 M218.947,138.777c-0.355,0.312-0.722,0.613-1.097,0.901
			c-0.29,0.376-0.592,0.743-0.904,1.099C217.655,140.154,218.323,139.486,218.947,138.777 M55.731,115.013
			c-0.687,0.658-1.354,1.326-2.003,2.003c0.344-0.33,0.692-0.656,1.045-0.981C55.088,115.693,55.407,115.352,55.731,115.013
			 M35.303,107.592c-0.708,0.623-1.375,1.29-1.999,2c0.355-0.313,0.72-0.613,1.095-0.901
			C34.688,108.314,34.991,107.947,35.303,107.592 M206.496,75.146c-0.357,0.31-0.727,0.606-1.105,0.89
			c-0.285,0.381-0.583,0.751-0.894,1.109C205.21,76.528,205.878,75.86,206.496,75.146 M136.513,47.153l-0.678,2.264l1.322,0.264
			l0.678-2.264L136.513,47.153 M179.207,47.07c-0.713,0.617-1.381,1.286-2,2c0.358-0.31,0.727-0.606,1.105-0.89
			C178.597,47.799,178.896,47.428,179.207,47.07"/>
		<path fill="#FFFF00" d="M212.66,144.532c-0.675,0.451-1.377,0.865-2.103,1.239c0.306,2.145,0.481,4.289,0.481,6.479
			c0,11.841-4.942,22.887-13.475,32.2c0.352-0.323,0.701-0.651,1.044-0.979c9.119-9.523,14.431-20.944,14.431-33.221
			C213.039,148.32,212.902,146.424,212.66,144.532 M59.069,122.641c-5.646,5.379-9.68,11.329-11.937,17.615
			c-0.919,2.539-1.576,5.121-1.882,7.748c-0.175,1.4-0.263,2.847-0.263,4.246c0,13.396,7.836,26.223,22.065,36.074
			c15.147,10.462,35.417,16.242,57.087,16.242c21.67,0,41.939-5.78,57.087-16.242c3.79-2.625,7.128-5.461,9.984-8.463
			c-2.381,2.267-5.047,4.429-7.984,6.463c-15.147,10.462-35.417,16.242-57.087,16.242c-21.67,0-41.94-5.78-57.087-16.242
			c-14.229-9.852-22.065-22.678-22.065-36.074c0-1.399,0.088-2.846,0.263-4.246c0.306-2.627,0.963-5.209,1.882-7.748
			C51.112,132.74,54.463,127.481,59.069,122.641 M38.796,115.228c-3.162,2.583-5.191,6.538-5.191,10.975
			c0,4.858,2.451,9.149,6.129,11.733c0.325-0.914,0.68-1.819,1.064-2.717c-3.152-2.622-5.193-6.583-5.193-11.017
			C35.604,120.791,36.804,117.665,38.796,115.228 M55.831,114.918c-0.033,0.032-0.066,0.063-0.1,0.095
			c-0.324,0.338-0.644,0.679-0.958,1.022c0.381-0.35,0.767-0.696,1.158-1.041C55.898,114.969,55.865,114.944,55.831,114.918
			 M194.855,113.404c-0.896,0.428-1.736,0.949-2.51,1.547c7.573,6.654,13.177,14.447,16.198,22.94
			c1.088-0.752,2.068-1.656,2.91-2.685c-0.294,0.24-0.598,0.469-0.91,0.685C207.591,127.59,202.171,119.958,194.855,113.404
			 M122.229,90.182l-1.695,0.048c-22.02,0.963-41.809,7.617-56.343,17.818c-3.853-3.634-9.018-5.823-14.709-5.823
			c-5.417,0-10.376,2.024-14.179,5.366c-0.312,0.355-0.615,0.723-0.904,1.098c3.637-2.8,8.172-4.464,13.083-4.464
			c5.691,0,10.856,2.188,14.709,5.823c14.534-10.201,34.323-16.855,56.343-17.818l3.108-0.087L122.229,90.182 M139.898,58.215
			l-10.2,34.016c22.021,0.963,41.81,7.575,56.343,17.818c3.896-3.634,9.019-5.823,14.709-5.823c11.953,0,21.671,9.85,21.671,21.977
			c0,5.08-1.705,9.756-4.57,13.476c0.375-0.288,0.741-0.59,1.097-0.901c3.407-3.878,5.474-8.981,5.474-14.574
			c0-12.127-9.718-21.977-21.671-21.977c-5.69,0-10.813,2.188-14.709,5.823c-14.533-10.244-34.322-16.855-56.343-17.818
			l9.521-31.751L139.898,58.215 M182.676,54.66c-2.773,2.18-4.56,5.591-4.56,9.42c0,6.567,5.254,11.908,11.733,11.908
			c3.713,0,7.023-1.754,9.174-4.487c-1.983,1.559-4.473,2.487-7.174,2.487c-6.479,0-11.733-5.341-11.733-11.908
			C180.116,59.277,181.074,56.697,182.676,54.66 M137.836,47.416l-0.678,2.264l34.654,6.915c0.308-0.754,0.66-1.485,1.054-2.189
			L137.836,47.416 M191.849,42.337c-4.827,0-9.239,1.784-12.643,4.733c-0.311,0.358-0.609,0.729-0.895,1.109
			c3.229-2.414,7.218-3.843,11.537-3.843c10.77,0,19.481,8.887,19.481,19.788c0,4.473-1.467,8.6-3.94,11.911
			c0.379-0.283,0.748-0.58,1.105-0.89c3.011-3.476,4.835-8.033,4.835-13.021C211.331,51.223,202.619,42.337,191.849,42.337"/>
		<path fill="#00FF00" d="M159.772,176.313c-0.626,0.51-1.386,1.097-2.274,1.73l0.274,0.27c1.281-1.045,2.001-1.765,2.119-1.883
			L159.772,176.313 M94.357,174.446l-2.016,1.984c0.004,0.005,0.01,0.01,0.016,0.016l2.016-1.983
			C94.367,174.456,94.362,174.45,94.357,174.446"/>
		<path fill="#FFFF00" d="M154.376,171.001c-0.088,0.087-10.594,10.595-28.237,10.682c-17.906-0.087-28.194-10.595-28.281-10.682
			l-3.5,3.444c0.005,0.005,0.01,0.011,0.016,0.017l1.484-1.461c0.087,0.087,10.375,10.595,28.281,10.682
			c17.644-0.087,28.149-10.595,28.237-10.682l5.122,5.042c0.889-0.634,1.648-1.221,2.274-1.73L154.376,171.001"/>
		<path fill="#0000FF" d="M144.37,131.781c-3.129,2.553-5.128,6.44-5.128,10.793c0,7.689,6.233,13.924,13.921,13.924
			c4.354,0,8.24-1.998,10.793-5.129c-2.397,1.956-5.458,3.129-8.793,3.129c-7.688,0-13.921-6.234-13.921-13.924
			C141.242,137.24,142.415,134.179,144.37,131.781"/>
		<path fill="#00FFFF" d="M145.524,130.936c-0.4,0.263-0.784,0.545-1.154,0.846c-1.955,2.397-3.128,5.458-3.128,8.793
			c0,7.689,6.233,13.924,13.921,13.924c3.335,0,6.396-1.173,8.793-3.129c0.301-0.369,0.584-0.754,0.847-1.153
			c-2.193,1.443-4.818,2.282-7.64,2.282c-7.688,0-13.921-6.234-13.921-13.924C143.242,135.753,144.081,133.128,145.524,130.936"/>
		<path fill="#FFFFFF" d="M153.163,128.654c-2.821,0-5.446,0.84-7.639,2.282c-1.443,2.192-2.282,4.817-2.282,7.639
			c0,7.689,6.233,13.924,13.921,13.924c2.821,0,5.446-0.839,7.64-2.282c1.442-2.193,2.282-4.819,2.282-7.642
			C167.085,134.887,160.851,128.654,153.163,128.654"/>
		<path fill="#0000FF" d="M86.582,131.782c-3.129,2.553-5.128,6.439-5.128,10.792c0,7.689,6.233,13.924,13.922,13.924
			c4.353,0,8.239-1.998,10.792-5.128c-2.397,1.955-5.458,3.128-8.792,3.128c-7.689,0-13.922-6.234-13.922-13.924
			C83.454,137.24,84.627,134.179,86.582,131.782"/>
		<path fill="#00FFFF" d="M87.736,130.936c-0.399,0.263-0.785,0.545-1.154,0.847c-1.955,2.396-3.128,5.458-3.128,8.792
			c0,7.689,6.233,13.924,13.922,13.924c3.334,0,6.395-1.173,8.792-3.128c0.302-0.369,0.584-0.754,0.847-1.153
			c-2.193,1.442-4.818,2.281-7.639,2.281c-7.689,0-13.922-6.234-13.922-13.924C85.454,135.753,86.293,133.128,87.736,130.936"/>
		<path fill="#FFFFFF" d="M95.376,128.654c-2.821,0-5.447,0.84-7.64,2.282c-1.442,2.192-2.282,4.817-2.282,7.639
			c0,7.689,6.233,13.924,13.922,13.924c2.821,0,5.446-0.839,7.639-2.281c1.443-2.194,2.283-4.82,2.283-7.643
			C109.297,134.887,103.064,128.654,95.376,128.654"/>
		<path fill="#0000FF" d="M216.946,140.777c-0.722,0.634-1.485,1.221-2.286,1.756c0.02,0.148,0.037,0.296,0.056,0.444
			C215.51,142.298,216.256,141.563,216.946,140.777 M53.728,117.017c-4.914,4.709-8.875,9.933-11.687,15.527
			c0.244,0.233,0.496,0.459,0.756,0.675C45.286,127.406,48.999,121.955,53.728,117.017 M49.526,110.105
			c-3.299,0-6.338,1.169-8.73,3.123c-0.302,0.369-0.585,0.754-0.85,1.154c2.184-1.44,4.789-2.277,7.58-2.277
			c3.105,0,5.997,1.063,8.3,2.81c0.65-0.676,1.318-1.34,2.005-1.997C55.526,111.169,52.633,110.105,49.526,110.105 M202.75,110.062
			c-2.101,0-4.104,0.486-5.895,1.342c0.354,0.317,0.704,0.637,1.05,0.959c0.92-0.197,1.872-0.301,2.845-0.301
			c7.662,0,13.923,6.348,13.923,14.097c0,2.803-0.803,5.408-2.177,7.598c0.016,0.045,0.032,0.09,0.048,0.135
			c0.313-0.216,0.616-0.444,0.91-0.685c2.003-2.448,3.219-5.597,3.219-9.048C216.673,116.41,210.412,110.062,202.75,110.062
			 M33.304,109.591c-4.587,4.031-7.493,9.981-7.493,16.611c0,8.58,4.816,15.979,11.864,19.613c-0.35,2.144-0.525,4.288-0.525,6.479
			c0.088,33.185,39.007,60.151,86.988,60.151c30.254,0,56.906-10.722,72.47-26.975c-15.788,15.126-41.475,24.975-70.47,24.975
			c-47.981,0-86.9-26.967-86.988-60.151c0-2.191,0.175-4.336,0.525-6.479c-7.048-3.635-11.864-11.033-11.864-19.613
			C27.811,118.595,29.888,113.476,33.304,109.591 M126.138,97.935c-21.67,0-41.94,5.779-57.087,16.242l-0.175,0.132
			c-2.276,1.576-4.378,3.239-6.304,4.947c-0.514,0.458-1.015,0.919-1.504,1.385c-0.321,0.338-0.637,0.678-0.946,1.02
			c0.149-0.135,0.299-0.27,0.45-0.405c1.926-1.708,4.027-3.371,6.304-4.947l0.175-0.132c15.147-10.463,35.417-16.242,57.087-16.242
			c21.67,0,41.939,5.779,57.087,16.242l0.176,0.132c2.275,1.576,4.377,3.239,6.304,4.947c6.436,5.734,10.987,12.17,13.439,19
			c0.919,2.539,1.533,5.121,1.884,7.748c0.173,1.4,0.261,2.802,0.261,4.246c0,9.425-3.878,18.567-11.132,26.59
			c0.357-0.324,0.707-0.649,1.053-0.979c7.862-8.265,12.079-17.784,12.079-27.611c0-1.444-0.088-2.846-0.261-4.246
			c-0.351-2.627-0.965-5.209-1.884-7.748c-2.452-6.83-7.004-13.266-13.439-19c-1.927-1.708-4.028-3.371-6.304-4.947l-0.176-0.132
			C168.078,103.714,147.808,97.935,126.138,97.935 M143.219,56.478l-0.679,2.264l27.827,5.558
			c0.088,10.813,8.8,19.569,19.481,19.569c5.843,0,11.079-2.603,14.647-6.724c-3.401,2.945-7.817,4.724-12.647,4.724
			c-10.682,0-19.394-8.756-19.481-19.569L143.219,56.478 M191.849,50.173c-2.702,0-5.19,0.929-7.174,2.487
			c-0.297,0.377-0.571,0.772-0.821,1.185c1.755-1.062,3.805-1.672,5.995-1.672c6.479,0,11.733,5.34,11.733,11.908
			c0,2.285-0.636,4.421-1.738,6.236c0.409-0.248,0.803-0.521,1.179-0.815c1.602-2.037,2.56-4.617,2.56-7.42
			C203.583,55.513,198.328,50.173,191.849,50.173 M134.513,49.153l-11.697,39.07l1.413-0.04l11.606-38.767L134.513,49.153
			 M177.207,49.07c-1.103,0.955-2.099,2.033-2.97,3.211l0.629,0.126C175.533,51.212,176.319,50.094,177.207,49.07"/>
		<path fill="#FF00FF" d="M193.21,177.862c-0.346,0.329-0.695,0.654-1.053,0.979c-0.311,0.343-0.626,0.684-0.947,1.021
			C191.901,179.203,192.567,178.537,193.21,177.862 M214.66,142.532c-0.675,0.451-1.377,0.865-2.103,1.239
			c0.036,0.254,0.07,0.507,0.103,0.761c0.716-0.479,1.402-0.998,2.056-1.556C214.697,142.828,214.679,142.681,214.66,142.532
			 M213.454,133.207c-0.294,0.24-0.598,0.469-0.91,0.685c-0.016-0.045-0.032-0.09-0.048-0.135c-0.318,0.507-0.666,0.99-1.042,1.45
			C212.183,134.611,212.854,133.941,213.454,133.207 M42.041,132.544c-0.444,0.883-0.858,1.774-1.244,2.675
			c0.302,0.252,0.614,0.491,0.936,0.717c0.325-0.914,0.68-1.819,1.064-2.717C42.537,133.003,42.285,132.778,42.041,132.544
			 M61.068,120.641c-0.69,0.658-1.357,1.325-2,2c0.345-0.328,0.697-0.656,1.053-0.98C60.431,121.319,60.747,120.979,61.068,120.641
			 M40.796,113.228c-0.73,0.597-1.401,1.268-2,2c0.369-0.301,0.753-0.583,1.15-0.846C40.21,113.983,40.493,113.597,40.796,113.228
			 M57.831,112.918c-0.687,0.656-1.355,1.321-2.005,1.997c0.002,0.001,0.003,0.002,0.005,0.003c0.682-0.651,1.383-1.292,2.101-1.923
			C57.898,112.969,57.865,112.944,57.831,112.918 M196.855,111.404c-0.895,0.428-1.736,0.949-2.51,1.547
			c0.171,0.15,0.341,0.301,0.51,0.453c0.961-0.459,1.983-0.812,3.05-1.041C197.559,112.041,197.21,111.721,196.855,111.404
			 M124.229,88.183l-1.413,0.04l-0.587,1.96l1.413-0.04L124.229,88.183 M201.023,69.501c-0.376,0.295-0.77,0.567-1.179,0.815
			c-0.251,0.412-0.524,0.807-0.821,1.185C199.765,70.917,200.437,70.245,201.023,69.501 M141.898,56.215l-0.679,2.264l1.321,0.264
			l0.679-2.264L141.898,56.215 M184.676,52.66c-0.742,0.583-1.414,1.255-2,2c0.376-0.295,0.769-0.568,1.179-0.815
			C184.104,53.433,184.379,53.037,184.676,52.66 M174.237,52.281c-0.5,0.677-0.958,1.386-1.371,2.125l0.946,0.189
			c0.308-0.754,0.66-1.485,1.054-2.188L174.237,52.281"/>
		<path fill="#00FFFF" d="M217.85,139.678c-1.029,0.793-2.131,1.494-3.293,2.094c0.036,0.254,0.07,0.507,0.103,0.761
			c0.801-0.535,1.564-1.122,2.286-1.756C217.259,140.421,217.56,140.054,217.85,139.678 M54.773,116.036
			c-0.353,0.325-0.701,0.651-1.045,0.981c-4.729,4.938-8.442,10.389-10.931,16.202c0.302,0.252,0.614,0.491,0.936,0.717
			C46.02,127.504,49.789,121.474,54.773,116.036 M34.399,108.69c-0.375,0.289-0.74,0.589-1.095,0.901
			c-3.416,3.885-5.493,9.004-5.493,14.611c0,8.58,4.816,15.979,11.864,19.613c-0.35,2.144-0.525,4.288-0.525,6.479
			c0.088,33.185,39.007,60.151,86.988,60.151c28.995,0,54.682-9.849,70.47-24.975c0.323-0.339,0.642-0.679,0.956-1.021
			c-15.862,14.572-41.061,23.996-69.426,23.996c-47.981,0-86.9-26.967-86.988-60.151c0-2.191,0.175-4.336,0.525-6.479
			c-7.048-3.635-11.864-11.033-11.864-19.613C29.811,117.109,31.525,112.419,34.399,108.69 M51.526,108.105
			c-4.308,0-8.172,1.993-10.73,5.123c2.392-1.954,5.431-3.123,8.73-3.123c3.107,0,6,1.064,8.305,2.813
			c0.682-0.651,1.383-1.292,2.101-1.923C57.611,109.2,54.678,108.105,51.526,108.105 M204.75,108.062
			c-3.151,0-6.086,1.094-8.404,2.889c0.171,0.15,0.341,0.301,0.51,0.453c1.79-0.855,3.794-1.342,5.895-1.342
			c7.662,0,13.923,6.348,13.923,14.097c0,3.452-1.216,6.6-3.219,9.048c3.166-2.589,5.219-6.563,5.219-11.048
			C218.673,114.41,212.412,108.062,204.75,108.062 M128.138,95.935c-21.67,0-41.94,5.779-57.087,16.242l-0.175,0.132
			c-2.276,1.576-4.378,3.239-6.304,4.947c-1.238,1.103-2.407,2.232-3.504,3.385c0.489-0.466,0.99-0.928,1.504-1.385
			c1.926-1.708,4.027-3.371,6.304-4.947l0.175-0.132c15.147-10.463,35.417-16.242,57.087-16.242c21.67,0,41.939,5.779,57.087,16.242
			l0.176,0.132c2.275,1.576,4.377,3.239,6.304,4.947c6.436,5.734,10.987,12.17,13.439,19c0.919,2.539,1.533,5.121,1.884,7.748
			c0.173,1.4,0.261,2.802,0.261,4.246c0,9.827-4.217,19.347-12.079,27.611c9.146-8.711,14.079-18.981,14.079-29.611
			c0-1.444-0.088-2.846-0.261-4.246c-0.351-2.627-0.965-5.209-1.884-7.748c-2.452-6.83-7.004-13.266-13.439-19
			c-1.927-1.708-4.028-3.371-6.304-4.947l-0.176-0.132C170.078,101.714,149.808,95.935,128.138,95.935 M143.898,54.215l-0.679,2.264
			l29.148,5.822c0.088,10.813,8.8,19.569,19.481,19.569c4.83,0,9.246-1.779,12.647-4.724c0.311-0.358,0.608-0.729,0.894-1.109
			c-3.229,2.409-7.22,3.833-11.541,3.833c-10.682,0-19.394-8.756-19.481-19.569L143.898,54.215 M135.836,49.416l-11.606,38.767
			l1.413-0.04l11.516-38.462L135.836,49.416 M178.312,48.179c-0.379,0.284-0.747,0.58-1.105,0.89
			c-0.888,1.024-1.674,2.143-2.341,3.337l0.946,0.188C176.46,51.01,177.303,49.528,178.312,48.179 M193.849,48.173
			c-3.713,0-7.024,1.754-9.174,4.487c1.983-1.559,4.472-2.487,7.174-2.487c6.479,0,11.733,5.34,11.733,11.908
			c0,2.804-0.958,5.384-2.56,7.42c2.773-2.18,4.56-5.592,4.56-9.42C205.583,53.513,200.328,48.173,193.849,48.173"/>
		<path fill="#FFFFFF" d="M40.796,113.228c2.558-3.13,6.422-5.123,10.73-5.123c3.152,0,6.085,1.095,8.406,2.89
			c-0.718,0.631-1.418,1.272-2.101,1.923c0.034,0.025,0.067,0.051,0.101,0.077c-0.718,0.631-1.418,1.272-2.101,1.923
			c0.034,0.025,0.067,0.051,0.101,0.077c-0.392,0.344-0.777,0.69-1.158,1.041c-4.984,5.438-8.753,11.468-11.04,17.9
			c-0.322-0.226-0.634-0.465-0.936-0.717c-0.384,0.897-0.739,1.803-1.064,2.717c-0.322-0.226-0.634-0.465-0.936-0.717
			c-0.384,0.897-0.739,1.803-1.064,2.717c-3.678-2.584-6.129-6.875-6.129-11.733c0-4.437,2.029-8.392,5.191-10.975
			C39.394,114.496,40.065,113.825,40.796,113.228 M196.855,111.404c-0.169-0.151-0.339-0.302-0.51-0.453
			c2.318-1.795,5.253-2.889,8.404-2.889c7.662,0,13.923,6.348,13.923,14.097c0,4.485-2.053,8.459-5.219,11.048
			c-0.6,0.733-1.271,1.403-2,2c-0.842,1.028-1.822,1.933-2.91,2.685c-3.021-8.493-8.625-16.286-16.198-22.94
			c0.773-0.599,1.614-1.119,2.51-1.547c-0.169-0.151-0.339-0.302-0.51-0.453C195.119,112.353,195.961,111.832,196.855,111.404
			 M61.068,120.641c1.097-1.153,2.266-2.282,3.504-3.385c1.926-1.708,4.027-3.371,6.304-4.947l0.175-0.132
			c15.147-10.463,35.417-16.242,57.087-16.242c21.67,0,41.939,5.779,57.087,16.242l0.176,0.132c2.275,1.576,4.377,3.239,6.304,4.947
			c6.436,5.734,10.987,12.17,13.439,19c0.919,2.539,1.533,5.121,1.884,7.748c0.173,1.4,0.261,2.802,0.261,4.246
			c0,10.63-4.934,20.9-14.079,29.611c-0.643,0.676-1.309,1.342-2,2c-2.856,3.002-6.194,5.838-9.984,8.463
			c-15.147,10.462-35.417,16.242-57.087,16.242c-21.67,0-41.94-5.78-57.087-16.242c-14.229-9.852-22.065-22.678-22.065-36.074
			c0-1.399,0.088-2.846,0.263-4.246c0.306-2.627,0.963-5.209,1.882-7.748c2.257-6.286,6.292-12.236,11.937-17.615
			C59.711,121.966,60.378,121.3,61.068,120.641 M184.676,52.66c2.149-2.733,5.461-4.487,9.174-4.487
			c6.479,0,11.733,5.34,11.733,11.908c0,3.829-1.786,7.241-4.56,9.42c-0.586,0.744-1.258,1.416-2,2
			c-2.15,2.733-5.461,4.487-9.174,4.487c-6.479,0-11.733-5.341-11.733-11.908c0-3.829,1.786-7.241,4.56-9.42
			C183.261,53.916,183.933,53.244,184.676,52.66 M189.849,44.337c-4.319,0-8.308,1.429-11.537,3.843
			c-1.009,1.348-1.853,2.831-2.5,4.416l-0.946-0.188c-0.394,0.704-0.746,1.435-1.054,2.188l-0.946-0.189
			c-0.394,0.704-0.746,1.435-1.054,2.189l-34.654-6.915l-11.516,38.462l-1.413,0.04l-0.587,1.96l-1.413,0.04l-0.587,1.96
			l-3.108,0.087c-22.02,0.963-41.809,7.617-56.343,17.818c-3.853-3.634-9.018-5.823-14.709-5.823c-4.911,0-9.446,1.664-13.083,4.464
			c-2.874,3.729-4.588,8.419-4.588,13.513c0,8.58,4.816,15.979,11.864,19.613c-0.35,2.144-0.525,4.288-0.525,6.479
			c0.088,33.185,39.007,60.151,86.988,60.151c28.365,0,53.563-9.424,69.426-23.996c8.532-9.313,13.475-20.359,13.475-32.2
			c0-2.189-0.176-4.334-0.481-6.479c0.726-0.374,1.428-0.788,2.103-1.239c-0.032-0.254-0.066-0.507-0.103-0.761
			c0.726-0.374,1.428-0.788,2.103-1.239c-0.032-0.254-0.066-0.507-0.103-0.761c1.162-0.6,2.264-1.301,3.293-2.094
			c2.865-3.72,4.57-8.396,4.57-13.476c0-12.127-9.718-21.977-21.671-21.977c-5.69,0-10.813,2.188-14.709,5.823
			c-14.533-10.244-34.322-16.855-56.343-17.818l10.2-34.016l1.321,0.264l0.679-2.264l1.321,0.264l0.679-2.264l30.47,6.085
			c0.088,10.813,8.8,19.569,19.481,19.569c4.321,0,8.312-1.424,11.541-3.833c2.474-3.311,3.94-7.438,3.94-11.911
			C209.331,53.223,200.619,44.337,189.849,44.337"/>
		<path fill="#0000FF" d="M92.357,176.446l-2.016,1.984c0.525,0.524,12.959,12.915,33.798,13.002
			c20.838-0.087,33.228-12.478,33.753-13.002l-0.119-0.117c-4.412,3.597-15.486,11.052-31.634,11.119
			C105.479,189.346,93.081,177.166,92.357,176.446"/>
		<path fill="#00FFFF" d="M94.373,174.462l-2.016,1.983c0.724,0.721,13.122,12.9,33.782,12.986
			c16.147-0.067,27.222-7.522,31.634-11.119l-0.274-0.27c-5.38,3.832-15.501,9.331-29.359,9.389
			C107.616,187.346,95.246,175.328,94.373,174.462"/>
		<path fill="#FFFFFF" d="M152.376,173.001c-0.088,0.087-10.594,10.595-28.237,10.682c-17.906-0.087-28.194-10.595-28.281-10.682
			l-1.484,1.461c0.873,0.866,13.244,12.884,33.766,12.97c13.858-0.058,23.979-5.557,29.359-9.389L152.376,173.001"/>
	</g>
</g>
</svg>
