<?xml version="1.0" encoding="utf-8"?>
<!-- Generator: Adobe Illustrator 16.0.0, SVG Export Plug-In . SVG Version: 6.00 Build 0)  -->
<!DOCTYPE svg PUBLIC "-//W3C//DTD SVG 1.1//EN" "http://www.w3.org/Graphics/SVG/1.1/DTD/svg11.dtd">
<svg version="1.1" xmlns="http://www.w3.org/2000/svg" xmlns:xlink="http://www.w3.org/1999/xlink" x="0px" y="0px"
	 width="252.232px" height="252.26px" viewBox="0 0 252.232 252.26" enable-background="new 0 0 252.232 252.26"
	 xml:space="preserve">
<g id="Layer_2_copy_2" display="none">
	<path display="inline" fill="#FF0000" d="M172.218,196.24c-0.509,0.478-1.034,0.946-1.573,1.404
		c-9.42,7.985-21.14,12.633-33.256,14.617v1.647c11.401-2.155,22.354-6.72,31.256-14.265
		C169.92,198.56,171.108,197.424,172.218,196.24 M80.918,161.222l-18.656,35.091c15.401,10.801,33.685,17.618,52.579,18.871v20.254
		h18.547v-2h-16.547v-20.254c-18.894-1.253-37.178-8.07-52.579-18.871l17.296-32.533C81.344,161.595,81.131,161.408,80.918,161.222
		 M134.888,73.494c-4.655,0-10.216,1.581-14.048,4.745c-0.287,0.352-0.554,0.717-0.799,1.097c3.736-2.561,8.658-3.842,12.847-3.842
		c10.66,0,20.877,4.441,28.872,11.104l1.314-2.562C155.185,77.688,145.246,73.494,134.888,73.494 M85.434,54.226
		C75.062,64.032,68.926,78.154,68.926,95.26c0,32.424,17.989,39.532,45.307,47.305c9.329,2.666,26.428,6.884,26.428,19.1
		c0,3.487-0.955,6.39-2.564,8.747c0.402-0.282,0.792-0.581,1.165-0.894c2.109-2.536,3.399-5.8,3.399-9.854
		c0-12.216-17.1-16.434-26.428-19.1c-27.318-7.773-45.307-14.88-45.307-47.305C70.926,77.283,76.277,63.911,85.434,54.226
		 M116.842,20.822h-2v16.036c0.662-0.156,1.327-0.301,2-0.437V20.822"/>
	<path display="inline" fill="#00FF00" d="M135.388,231.438h-2v2h2V231.438 M174.218,194.24c-0.344,0.322-0.692,0.639-1.05,0.952
		c-0.31,0.354-0.627,0.703-0.95,1.048C172.913,195.589,173.578,194.923,174.218,194.24 M82.918,159.222l-1.36,2.558
		c0.214,0.186,0.428,0.368,0.644,0.552l1.356-2.552C83.344,159.595,83.131,159.408,82.918,159.222 M164.383,81.489l-1.308,2.548
		c0.23,0.186,0.459,0.373,0.686,0.562l1.314-2.562C164.846,81.853,164.615,81.67,164.383,81.489 M87.433,52.226
		c-0.685,0.647-1.352,1.315-1.999,2c0.343-0.325,0.69-0.644,1.043-0.959C86.791,52.916,87.11,52.569,87.433,52.226 M118.842,18.822
		h-2v2h2V18.822"/>
	<path display="inline" fill="#FFFF00" d="M173.168,195.192c-0.173,0.151-0.348,0.303-0.523,0.452
		c-9.938,8.424-22.435,13.133-35.256,14.92v1.697c12.116-1.984,23.836-6.632,33.256-14.617c0.539-0.458,1.064-0.927,1.573-1.404
		C172.541,195.895,172.858,195.545,173.168,195.192 M81.558,161.78l-17.296,32.533c15.401,10.801,33.685,17.618,52.579,18.871
		v20.254h16.547v-2h-14.547v-20.254c-18.894-1.253-37.178-8.07-52.579-18.871l15.939-29.981
		C81.986,162.148,81.772,161.965,81.558,161.78 M136.888,71.494c-5.551,0-12.387,2.248-16.048,6.745
		c3.832-3.164,9.393-4.745,14.048-4.745c10.357,0,20.297,4.193,28.187,10.542l1.308-2.548
		C156.608,75.448,146.945,71.494,136.888,71.494 M86.477,53.267c-0.353,0.315-0.7,0.634-1.043,0.959
		c-9.158,9.686-14.509,23.057-14.509,39.035c0,32.425,17.989,39.532,45.307,47.305c9.329,2.666,26.428,6.884,26.428,19.1
		c0,4.054-1.29,7.317-3.399,9.854c3.266-2.734,5.399-6.64,5.399-11.854c0-12.216-17.1-16.434-26.428-19.1
		c-27.318-7.773-45.307-14.88-45.307-47.305C72.926,75.849,77.906,62.86,86.477,53.267 M118.842,20.822h-2v15.599
		c0.662-0.133,1.328-0.257,2-0.371V20.822"/>
	<path display="inline" fill="#0000FF" d="M137.388,213.908c-0.665,0.125-1.332,0.243-2,0.353v17.177h2V213.908 M84.918,157.222
		l-1.36,2.558c10.747,9.293,23.414,16.765,38.002,16.765c5.694,0,11.593-1.585,15.701-5.025c0.295-0.354,0.574-0.723,0.835-1.106
		c-4.016,2.822-9.36,4.132-14.536,4.132C108.681,174.544,95.801,166.772,84.918,157.222 M120.042,79.336
		c-0.416,0.285-0.817,0.586-1.201,0.903c-1.611,1.979-2.608,4.396-2.608,7.247c0,9.772,11.772,13.548,19.321,15.991l11.105,3.331
		c23.32,6.885,41.31,18.656,41.31,45.751c0,15.063-3.271,30.49-13.751,41.681c12.069-11.307,15.751-27.698,15.751-43.681
		c0-27.095-17.989-38.866-41.31-45.751l-11.105-3.331c-7.549-2.443-19.321-6.219-19.321-15.991
		C118.233,83.141,118.906,81.092,120.042,79.336 M114.842,36.858c-10.939,2.575-20.315,7.865-27.408,15.368
		c7.272-6.875,16.626-11.629,27.408-13.805V36.858 M137.388,16.822h-18.547v2h16.547v18.517
		c15.408,1.167,32.739,6.154,45.696,13.502l-16.01,31.196c0.23,0.186,0.459,0.373,0.686,0.562l17.324-33.757
		c-12.957-7.349-30.288-12.335-45.696-13.502V16.822"/>
	<path display="inline" fill="#FF00FF" d="M137.388,212.261c-0.665,0.108-1.332,0.21-2,0.303v1.697c0.668-0.109,1.335-0.228,2-0.353
		V212.261 M139.261,169.519c-0.373,0.313-0.763,0.611-1.165,0.894c-0.261,0.384-0.54,0.752-0.835,1.106
		C137.988,170.911,138.659,170.244,139.261,169.519 M120.841,78.24c-0.737,0.608-1.41,1.275-2,2
		c0.384-0.317,0.785-0.618,1.201-0.903C120.287,78.957,120.554,78.592,120.841,78.24 M116.842,36.421
		c-0.673,0.136-1.338,0.281-2,0.437v1.563c0.661-0.133,1.328-0.257,2-0.371V36.421"/>
	<path display="inline" fill="#00FFFF" d="M135.388,214.261c-0.665,0.108-1.332,0.21-2,0.303v16.874h2V214.261 M83.558,159.78
		l-1.356,2.552c10.607,9.035,23.061,16.213,37.358,16.213c6.701,0,13.686-2.195,17.701-7.025c-4.108,3.44-10.007,5.025-15.701,5.025
		C106.972,176.544,94.305,169.073,83.558,159.78 M118.841,80.24c-2.749,2.269-4.608,5.351-4.608,9.247
		c0,9.772,11.772,13.548,19.321,15.991l11.105,3.331c23.32,6.885,41.31,18.656,41.31,45.751c0,14.599-3.071,29.539-12.801,40.633
		c0.357-0.313,0.706-0.63,1.05-0.952c10.48-11.19,13.751-26.617,13.751-41.681c0-27.095-17.989-38.866-41.31-45.751l-11.105-3.331
		c-7.549-2.443-19.321-6.219-19.321-15.991C116.233,84.635,117.229,82.219,118.841,80.24 M114.842,38.421
		c-10.782,2.176-20.136,6.93-27.408,13.805c-0.323,0.342-0.642,0.689-0.956,1.041c7.572-6.768,17.255-11.333,28.364-13.217V38.421
		 M135.388,18.822h-16.547v2h14.547v18.517c15.408,1.167,32.739,6.154,45.696,13.502l-14.702,28.648
		c0.232,0.181,0.464,0.364,0.692,0.548l16.01-31.196c-12.957-7.349-30.288-12.335-45.696-13.502V18.822"/>
	<path display="inline" fill="#CCCCCC" d="M133.388,20.822h-14.547V36.05c-0.672,0.114-1.338,0.238-2,0.371v1.629
		c-0.672,0.114-1.339,0.238-2,0.371v1.629c-11.109,1.884-20.792,6.449-28.364,13.217C77.906,62.86,72.926,75.849,72.926,91.26
		c0,32.425,17.989,39.532,45.307,47.305c9.329,2.666,26.428,6.884,26.428,19.1c0,5.214-2.134,9.119-5.399,11.854
		c-0.603,0.726-1.273,1.393-2,2c-4.016,4.83-11,7.025-17.701,7.025c-14.298,0-26.751-7.178-37.358-16.213l-15.939,29.981
		c15.401,10.801,33.685,17.618,52.579,18.871v20.254h14.547v-16.874c0.668-0.093,1.335-0.194,2-0.303v-1.697
		c0.668-0.093,1.335-0.194,2-0.303v-1.697c12.821-1.787,25.318-6.496,35.256-14.92c0.176-0.149,0.351-0.301,0.523-0.452
		c9.729-11.094,12.801-26.034,12.801-40.633c0-27.095-17.989-38.866-41.31-45.751l-11.105-3.331
		c-7.549-2.443-19.321-6.219-19.321-15.991c0-3.896,1.859-6.978,4.608-9.247c0.59-0.725,1.263-1.392,2-2
		c3.661-4.497,10.497-6.745,16.048-6.745c10.057,0,19.72,3.953,27.494,9.995l14.702-28.648
		c-12.957-7.349-30.288-12.335-45.696-13.502V20.822"/>
</g>
<g id="Layer_2">
</g>
<g id="Layer_2_copy">
</g>
<g id="Layer_2_copy_3">
	<g>
		<path fill="#FF0000" d="M210.242,173.603c-0.65,0.867-1.316,1.72-2,2.56v22.657c0.675-0.581,1.341-1.17,2-1.77V173.603
			 M69.36,153.478h-2.718c10.972,31.879,41.334,54.814,76.67,54.814c21.727,0,41.616-8.717,56.271-22.878
			c0.327-0.339,0.651-0.68,0.973-1.024c-14.549,13.584-34.021,21.902-55.243,21.902C110.718,206.292,80.893,184.314,69.36,153.478
			 M43.977,133.247H30.784l-0.889,2h14.216C44.048,134.58,44.005,133.913,43.977,133.247 M64.217,121.014h-1.867
			c-0.199,2.164-0.199,4.401-0.199,6.116c0,2.705,0,5.41,0.451,8.117h120.391l-6.326,14.23h1.111l7.215-16.23H64.602
			c-0.451-2.707-0.451-5.412-0.451-8.117C64.151,123.943,64.151,122.505,64.217,121.014 M48.247,100.782H30.784l-0.889,2h17.742
			C47.833,102.114,48.037,101.446,48.247,100.782 M86.07,69.807c-0.344,0.321-0.686,0.646-1.024,0.972
			c-8.688,8.991-15.292,19.935-19.063,32.002h131.438l-6.326,14.232h1.111l7.215-16.232H67.983
			C71.611,89.172,77.865,78.599,86.07,69.807 M145.312,27.736c-26.97,0-51.721,11.689-69.523,29.991
			c17.633-17.15,41.548-27.991,67.523-27.991c28.407,0,54.109,12.625,72.145,32.69l-5.907,13.106c0.232,0.298,0.464,0.6,0.692,0.901
			l7.215-16.007C199.422,40.361,173.719,27.736,145.312,27.736"/>
		<path fill="#00FF00" d="M208.242,198.82c-0.659,0.567-1.326,1.128-2,1.678v0.322c0.675-0.581,1.341-1.171,2-1.77V198.82
			 M208.242,175.603c-0.65,0.867-1.316,1.72-2,2.56v0.366c0.681-0.775,1.349-1.565,2-2.366V175.603 M176.667,149.478h-1.11l-0.89,2
			h1.111L176.667,149.478 M29.895,135.247h-1.111l-0.889,2h1.111L29.895,135.247 M191.095,117.014h-1.11l-0.89,2h1.111
			L191.095,117.014 M29.895,102.782h-1.111l-0.889,2h1.111L29.895,102.782 M208.851,74.644l-1.302,2.888
			c0.232,0.298,0.464,0.6,0.692,0.901l1.308-2.901C209.318,75.235,209.086,74.939,208.851,74.644 M75.789,57.726
			c-0.677,0.658-1.345,1.326-2.003,2.003c0.338-0.329,0.679-0.656,1.022-0.981C75.135,58.404,75.458,58.066,75.789,57.726"/>
		<path fill="#FFFF00" d="M208.242,176.162c-0.651,0.801-1.319,1.591-2,2.366v21.969c0.674-0.55,1.341-1.11,2-1.678V176.162
			 M66.642,153.478h-2.659c10.371,32.916,41.258,56.814,77.329,56.814c22.731,0,43.453-9.542,58.271-24.878
			c-14.654,14.161-34.544,22.878-56.271,22.878C107.976,208.292,77.615,185.357,66.642,153.478 M44.111,135.247H29.895l-0.889,2
			h15.363C44.258,136.58,44.174,135.914,44.111,135.247 M62.349,121.014h-1.748c-0.451,2.706-0.451,5.862-0.451,8.116
			c0,2.705,0,5.41,0.451,8.117h120.391l-5.437,12.23h1.11l6.326-14.23H62.602c-0.451-2.707-0.451-5.412-0.451-8.117
			C62.151,125.415,62.151,123.178,62.349,121.014 M47.637,102.782H29.895l-0.889,2h18.068
			C47.255,104.114,47.442,103.446,47.637,102.782 M85.046,70.78c-9.675,9.347-17.007,21.025-21.063,34.002h131.438l-5.437,12.232
			h1.11l6.326-14.232H65.983C69.754,90.715,76.358,79.771,85.046,70.78 M143.312,29.736c-25.976,0-49.89,10.841-67.523,27.991
			c-0.331,0.34-0.654,0.677-0.98,1.022c17.53-16.584,41.024-27.013,66.504-27.013c28.407,0,54.109,12.625,72.145,32.69
			l-4.605,10.218c0.234,0.294,0.467,0.59,0.698,0.888l5.907-13.106C197.422,42.361,171.719,29.736,143.312,29.736"/>
		<path fill="#0000FF" d="M206.242,177.603c-1.773,2.365-3.673,4.631-5.687,6.787c0.345-0.321,0.687-0.646,1.025-0.973
			c1.627-1.684,3.182-3.437,4.661-5.255V177.603 M174.667,151.478H68.642c0.23,0.669,0.471,1.339,0.718,2h104.418L174.667,151.478
			 M27.895,137.247h-1.111l-7.214,16.23h27.505c11.272,41.484,49.825,73.047,94.238,73.047c24.575,0,47.57-9.693,64.93-25.475v-0.23
			c-17.106,14.732-39.287,23.705-62.93,23.705c-44.413,0-82.966-31.563-94.238-73.047H21.57L27.895,137.247 M189.095,119.014H64.349
			c-0.061,0.666-0.104,1.338-0.133,2h123.99L189.095,119.014 M27.895,104.782h-1.111l-7.214,16.232h24.799
			c-0.451,2.706-0.451,5.411-0.451,8.116c0,1.372,0,2.744,0.059,4.117h2.134c-0.193-2.039-0.193-4.078-0.193-6.117
			c0-2.705,0-5.41,0.451-8.116H21.57L27.895,104.782 M73.786,59.729c-11.675,11.357-20.598,25.479-25.539,41.053h1.39
			C54.167,85.326,62.606,71.224,73.786,59.729 M143.312,45.969c-21.926,0-41.74,8.776-56.271,22.815
			c-0.328,0.339-0.65,0.679-0.972,1.024c14.43-13.468,33.83-21.839,55.243-21.839c28.407,0,50.05,12.85,64.93,32.465l1.308-2.901
			C192.694,58.425,171.283,45.969,143.312,45.969"/>
		<path fill="#FF00FF" d="M201.581,183.417c-0.339,0.327-0.681,0.651-1.025,0.973c-0.321,0.345-0.646,0.686-0.973,1.024
			C200.26,184.761,200.927,184.093,201.581,183.417 M68.642,151.478h-2.659c0.211,0.671,0.431,1.337,0.659,2h2.718
			C69.113,152.817,68.873,152.147,68.642,151.478 M46.111,133.247h-2.134c0.028,0.666,0.071,1.333,0.134,2h2.258
			C46.258,134.58,46.174,133.914,46.111,133.247 M64.349,119.014h-1.748c-0.108,0.647-0.19,1.32-0.252,2h1.867
			C64.246,120.352,64.288,119.679,64.349,119.014 M49.637,100.782h-1.39c-0.21,0.664-0.415,1.332-0.61,2h1.438
			C49.255,102.114,49.442,101.446,49.637,100.782 M87.042,68.783c-0.676,0.653-1.343,1.32-1.996,1.996
			c0.338-0.327,0.68-0.651,1.024-0.972C86.391,69.462,86.714,69.123,87.042,68.783"/>
		<path fill="#00FFFF" d="M206.242,178.162c-1.479,1.818-3.034,3.571-4.661,5.255c1.619-1.564,3.175-3.196,4.661-4.889V178.162
			 M175.556,149.478H67.983c0.211,0.671,0.431,1.337,0.659,2h106.024L175.556,149.478 M29.006,137.247h-1.111l-6.325,14.23h27.505
			c11.272,41.484,49.825,73.047,94.238,73.047c23.643,0,45.823-8.973,62.93-23.705v-0.322
			c-16.818,13.733-38.198,22.027-60.93,22.027c-44.413,0-82.966-31.563-94.238-73.047H23.57L29.006,137.247 M189.985,117.014H64.602
			c-0.108,0.647-0.19,1.32-0.252,2h124.746L189.985,117.014 M29.006,104.782h-1.111l-6.326,14.232h24.799
			c-0.451,2.706-0.451,5.411-0.451,8.116c0,2.039,0,4.078,0.193,6.117h2.258c-0.451-2.707-0.451-5.412-0.451-8.117
			s0-5.41,0.451-8.116H23.57L29.006,104.782 M74.808,58.748c-0.343,0.325-0.684,0.652-1.022,0.981
			c-11.18,11.495-19.619,25.597-24.149,41.053h1.438C55.323,85.002,63.642,70.553,74.808,58.748 M145.312,43.969
			c-22.949,0-43.585,9.615-58.271,24.815c14.53-14.039,34.345-22.815,56.271-22.815c27.971,0,49.382,12.457,64.237,31.563
			l1.302-2.888C194.025,56.04,172.847,43.969,145.312,43.969"/>
		<path fill="#FFFFFF" d="M141.312,31.736c-25.48,0-48.974,10.428-66.504,27.013c-11.167,11.805-19.485,26.253-23.734,42.034h-1.438
			c-0.195,0.664-0.382,1.332-0.563,2h-1.438c-0.195,0.664-0.382,1.332-0.563,2H29.006l-5.437,12.232h24.799
			c-0.451,2.706-0.451,5.411-0.451,8.116s0,5.41,0.451,8.117h-2.258c0.063,0.667,0.146,1.333,0.258,2h-2.258
			c0.063,0.667,0.146,1.333,0.258,2H29.006l-5.437,12.23h27.505c11.272,41.484,49.825,73.047,94.238,73.047
			c22.731,0,44.111-8.294,60.93-22.027v-21.969c-1.486,1.692-3.042,3.324-4.661,4.889c-0.654,0.676-1.321,1.344-1.998,1.997
			c-14.817,15.336-35.539,24.878-58.271,24.878c-36.071,0-66.958-23.898-77.329-56.814h2.659c-0.229-0.663-0.448-1.329-0.659-2
			h2.659c-0.229-0.663-0.448-1.329-0.659-2h107.573l5.437-12.23H60.602c-0.451-2.707-0.451-5.412-0.451-8.117
			c0-2.254,0-5.41,0.451-8.116h1.748c0.063-0.68,0.145-1.353,0.252-2h1.748c0.063-0.68,0.145-1.353,0.252-2h125.383l5.437-12.232
			H63.983C68.038,91.805,75.37,80.126,85.046,70.78c0.653-0.676,1.32-1.343,1.996-1.996c14.685-15.2,35.321-24.815,58.271-24.815
			c27.535,0,48.713,12.072,63.539,30.676l4.605-10.218C195.422,44.361,169.719,31.736,141.312,31.736"/>
	</g>
</g>
</svg>
