<?xml version="1.0" encoding="utf-8"?>
<!-- Generator: Adobe Illustrator 16.0.0, SVG Export Plug-In . SVG Version: 6.00 Build 0)  -->
<!DOCTYPE svg PUBLIC "-//W3C//DTD SVG 1.1//EN" "http://www.w3.org/Graphics/SVG/1.1/DTD/svg11.dtd">
<svg version="1.1" xmlns="http://www.w3.org/2000/svg" xmlns:xlink="http://www.w3.org/1999/xlink" x="0px" y="0px"
	 width="252.232px" height="252.26px" viewBox="0 -228.74 252.232 252.26" enable-background="new 0 -228.74 252.232 252.26"
	 xml:space="preserve">
<g id="Layer_1">
</g>
<g id="Layer_1_copy">
</g>
<g id="Layer_1_copy_2">
	<g>
		<path fill="#0000FF" d="M130.13-88.35v4.196l-1.899-2.085v49.218c8.358-3.681,36.131-14.865,65.317-14.865
			c11.053,0,21.104,1.636,29.974,4.885v-2.699c-8.371-2.785-17.744-4.186-27.974-4.186c-29.187,0-56.959,11.185-65.317,14.865
			V-88.24L130.13-88.35 M134.13-167.563c-0.672,0.5-1.34,1.013-2,1.535v75.678l2,2.196V-167.563 M20.147-172.879
			c-3.177,0.966-5.439,2.276-6.496,4.007c1.569-1.066,3.779-1.902,6.496-2.543V-172.879 M30.765-179.921
			c-0.726,0.206-1.395,0.404-2,0.59v133.06c8.701-3.494,18.925-5.267,30.463-5.267c27.221,0,54.401,9.626,64.816,13.768v-2.781
			c-11.601-4.456-37.19-12.986-62.816-12.986c-11.538,0-21.762,1.772-30.463,5.267V-179.921 M191.546-194.996
			c-24.356,0-45.332,7.425-62.404,22.062c-17.066-14.636-38.049-22.062-62.401-22.062c-22.74,0-39.78,6.618-40.492,6.903
			l-2.101,0.822v1.218l0.101-0.04c0.712-0.286,17.752-6.903,40.492-6.903c24.353,0,45.335,7.425,62.401,22.062
			c17.072-14.636,38.048-22.062,62.404-22.062c22.733,0,39.776,6.618,40.506,6.903l2.087,0.822v14.501
			c5.632,1.229,9.104,3.23,9.112,6.289c0,6.367,0,119.914,0,136.444h2c0,0,0-131.576,0-138.444c-0.008-3.059-3.48-5.059-9.112-6.289
			v-14.501l-2.087-0.822C231.322-188.379,214.279-194.996,191.546-194.996"/>
		<path fill="#0000FF" d="M66.698-167.939c-7.222,0-14.927,0.828-22.858,2.93l0.372,1.407c7.097-1.668,13.985-2.337,20.486-2.337
			c26.063,0,45.797,10.787,46.835,11.363l-1.29,2.321c0.428,0.218,0.662,0.346,0.688,0.36l2.602-4.681
			C112.495-157.153,92.761-167.939,66.698-167.939"/>
		<path fill="#0000FF" d="M66.703-152.797c-7.224,0-14.93,0.828-22.863,2.931l0.372,1.407c7.1-1.668,13.989-2.338,20.491-2.338
			c26.06,0,45.792,10.784,46.83,11.371l-1.287,2.309c0.426,0.217,0.659,0.344,0.686,0.357l2.602-4.667
			C112.495-142.013,92.763-152.797,66.703-152.797"/>
		<path fill="#0000FF" d="M66.69-138.557c-7.22,0-14.921,0.827-22.851,2.927l0.372,1.408c7.095-1.666,13.979-2.335,20.479-2.335
			c26.066,0,45.805,10.786,46.843,11.368l-1.288,2.314c0.427,0.217,0.66,0.345,0.687,0.359l2.602-4.673
			C112.495-127.772,92.756-138.557,66.69-138.557"/>
		<path fill="#0000FF" d="M66.708-122.963c-7.225,0-14.935,0.829-22.868,2.934l0.372,1.407c7.1-1.669,13.993-2.341,20.496-2.341
			c26.06,0,45.787,10.789,46.825,11.381l-1.287,2.31c0.426,0.216,0.659,0.344,0.686,0.357l2.602-4.667
			C112.495-112.174,92.768-122.963,66.708-122.963"/>
		<path fill="#0000FF" d="M66.68-108.502c-7.217,0-14.915,0.826-22.84,2.924l0.372,1.408c7.091-1.664,13.973-2.332,20.468-2.332
			c26.072,0,45.814,10.788,46.854,11.364l-1.291,2.326c0.429,0.218,0.663,0.347,0.689,0.362l2.602-4.688
			C112.494-97.715,92.752-108.502,66.68-108.502"/>
		<path fill="#0000FF" d="M66.697-93.656c-7.222,0-14.926,0.827-22.857,2.928l0.372,1.408c7.097-1.667,13.984-2.336,20.485-2.336
			c26.063,0,45.798,10.781,46.836,11.369l-1.287,2.31c0.426,0.216,0.659,0.343,0.686,0.357l2.602-4.667
			C112.495-82.875,92.76-93.656,66.697-93.656"/>
		<path fill="#0000FF" d="M66.708-78.768c-7.225,0-14.935,0.829-22.868,2.934l0.372,1.407c7.1-1.669,13.993-2.34,20.496-2.34
			c26.06,0,45.787,10.787,46.825,11.38l-1.285,2.302c0.425,0.216,0.658,0.343,0.684,0.357l2.602-4.66
			C112.495-67.98,92.768-78.768,66.708-78.768"/>
		<path fill="#0000FF" d="M193.182-167.543c-26.072,0-45.805,10.792-46.846,11.374l0.424,0.76
			c6.145-2.969,23.18-10.133,44.422-10.133c7.217,0,14.921,0.827,22.848,2.926l-0.748,2.822c0.459,0.113,0.916,0.229,1.376,0.352
			l1.372-5.174C208.103-166.716,200.398-167.543,193.182-167.543"/>
		<path fill="#0000FF" d="M193.164-152.397c-26.063,0-45.787,10.784-46.828,11.372l0.422,0.758
			c6.142-2.97,23.171-10.129,44.407-10.129c7.222,0,14.931,0.828,22.864,2.931l-0.749,2.829c0.459,0.113,0.917,0.23,1.377,0.353
			l1.372-5.182C208.096-151.569,200.387-152.397,193.164-152.397"/>
		<path fill="#0000FF" d="M193.188-138.167c-26.075,0-45.812,10.789-46.853,11.371l0.423,0.76
			c6.145-2.968,23.182-10.131,44.43-10.131c7.215,0,14.917,0.826,22.841,2.923l-0.749,2.823c0.459,0.113,0.917,0.229,1.377,0.352
			l1.372-5.174C208.105-137.341,200.403-138.167,193.188-138.167"/>
		<path fill="#0000FF" d="M193.158-122.562c-26.061,0-45.781,10.787-46.822,11.374l0.422,0.757
			c6.142-2.971,23.166-10.131,44.399-10.131c7.225,0,14.937,0.829,22.872,2.934l-0.748,2.822c0.459,0.113,0.916,0.229,1.376,0.352
			l1.372-5.174C208.094-121.733,200.382-122.562,193.158-122.562"/>
		<path fill="#0000FF" d="M193.181-108.102c-26.072,0-45.804,10.782-46.845,11.364l0.423,0.761
			c6.144-2.966,23.177-10.125,44.422-10.125c7.217,0,14.922,0.827,22.849,2.924l-0.749,2.83c0.459,0.113,0.917,0.229,1.377,0.352
			l1.372-5.181C208.103-107.276,200.398-108.102,193.181-108.102"/>
		<path fill="#0000FF" d="M193.175-93.255c-26.069,0-45.798,10.785-46.839,11.367l0.424,0.76
			c6.145-2.967,23.176-10.127,44.415-10.127c7.219,0,14.926,0.827,22.854,2.927l-0.748,2.823c0.458,0.113,0.916,0.229,1.376,0.352
			l1.372-5.174C208.101-92.427,200.394-93.255,193.175-93.255"/>
		<path fill="#0000FF" d="M193.182-78.375c-26.072,0-45.805,10.792-46.846,11.374l0.424,0.759
			c6.146-2.969,23.179-10.133,44.422-10.133c7.217,0,14.921,0.827,22.848,2.927l-0.748,2.822c0.459,0.113,0.916,0.23,1.376,0.352
			l1.372-5.174C208.103-77.548,200.398-78.375,193.182-78.375"/>
		<path fill="#00FF00" d="M241.251-28.038h-2c0,0.771,0,1.442,0,2h2C241.251-26.038,241.251-26.738,241.251-28.038 M124.044-88.429
			l-1.881,2.075v0.207l1.881-2.075V-88.429 M126.23-88.436v48.741c0.682,0.272,1.287,0.519,1.813,0.737v-47.486L126.23-88.436
			 M130.23-92.436v4.196l1.899,2.085v-4.196L130.23-92.436 M13.652-168.872c-0.873,0.593-1.547,1.258-2,2
			c0.448-0.305,0.949-0.59,1.499-0.858C13.263-168.129,13.431-168.51,13.652-168.872 M24.147-186.053l-2,0.782v1.217l0.101-0.039
			c0.128-0.051,0.781-0.307,1.899-0.691V-186.053"/>
		<path fill="#00FFFF" d="M128.044-86.445v47.486c-0.526-0.218-1.132-0.465-1.813-0.737v4.673
			c8.358-3.681,36.131-14.865,65.317-14.865c11.892,0,22.625,1.894,31.974,5.653v-2.768c-8.869-3.249-18.921-4.885-29.974-4.885
			c-29.187,0-56.959,11.185-65.317,14.865V-86.24L128.044-86.445 M132.13-166.028c-0.673,0.533-1.34,1.076-2,1.631v76.046
			l0.101,0.11v-4.196l1.899,2.085V-166.028 M20.147-171.415c-2.717,0.641-4.927,1.477-6.496,2.543
			c-0.221,0.362-0.389,0.743-0.501,1.142c1.827-0.89,4.197-1.582,6.997-2.105V-171.415 M28.765-179.33
			c-0.77,0.236-1.438,0.452-2,0.641V-44.27c8.701-3.494,18.925-5.267,30.463-5.267c29.201,0,58.355,11.077,66.816,14.579v-2.811
			c-10.415-4.142-37.596-13.768-64.816-13.768c-11.538,0-21.762,1.772-30.463,5.267V-179.33 M189.546-192.996
			c-24.356,0-45.332,7.425-62.404,22.062c-17.066-14.636-38.049-22.062-62.401-22.062c-22.74,0-39.78,6.618-40.492,6.903
			l-0.101,0.04v1.27c5.111-1.757,19.934-6.212,38.593-6.212c24.353,0,45.335,7.425,62.401,22.062
			c17.072-14.636,38.048-22.062,62.404-22.062c22.733,0,39.776,6.618,40.506,6.903l2.087,0.822v14.501
			c5.632,1.229,9.104,3.23,9.112,6.289c0,6.152,0,112.365,0,134.444h2c0-16.53,0-130.077,0-136.444
			c-0.008-3.059-3.48-5.059-9.112-6.289v-14.501l-2.087-0.822C229.322-186.379,212.279-192.996,189.546-192.996"/>
		<path fill="#00FF00" d="M108.906-152.913c0.33,0.173,0.542,0.29,0.627,0.337l-1.29,2.321c0.428,0.218,0.662,0.346,0.688,0.36
			l1.312-2.36C109.911-152.424,109.464-152.647,108.906-152.913 M44.212-163.602c-0.787,0.185-1.58,0.383-2.372,0.593l0.372,1.407
			c0.801-0.188,1.595-0.363,2.39-0.526L44.212-163.602"/>
		<path fill="#00FFFF" d="M64.698-165.939c-6.501,0-13.39,0.669-20.486,2.337l0.39,1.474c6.254-1.284,12.329-1.812,18.097-1.812
			c23.923,0,42.515,9.088,46.208,11.026c0.558,0.266,1.005,0.489,1.337,0.658l1.29-2.321
			C110.495-155.153,90.761-165.939,64.698-165.939"/>
		<path fill="#00FF00" d="M108.715-137.865c0.44,0.23,0.718,0.383,0.818,0.44l-1.287,2.31c0.426,0.216,0.659,0.343,0.686,0.357
			l1.314-2.357C109.877-137.304,109.363-137.559,108.715-137.865 M44.212-148.458c-0.787,0.185-1.58,0.383-2.372,0.593l0.372,1.407
			c0.801-0.188,1.595-0.363,2.39-0.526L44.212-148.458"/>
		<path fill="#00FFFF" d="M64.703-150.797c-6.502,0-13.392,0.67-20.491,2.338l0.39,1.474c6.256-1.284,12.333-1.813,18.102-1.813
			c23.533,0,41.905,8.793,46.012,10.931c0.648,0.307,1.162,0.562,1.531,0.749l1.287-2.309
			C110.495-140.013,90.763-150.797,64.703-150.797"/>
		<path fill="#00FF00" d="M108.793-123.587c0.396,0.207,0.646,0.344,0.74,0.397l-1.288,2.314c0.427,0.217,0.66,0.345,0.687,0.359
			l1.313-2.359C109.891-123.055,109.403-123.297,108.793-123.587 M44.212-134.222c-0.787,0.185-1.58,0.382-2.372,0.592l0.372,1.408
			c0.801-0.188,1.595-0.362,2.39-0.525L44.212-134.222"/>
		<path fill="#00FFFF" d="M64.69-136.557c-6.499,0-13.384,0.669-20.479,2.335l0.39,1.475c6.252-1.282,12.323-1.81,18.09-1.81
			c23.69,0,42.155,8.91,46.102,10.971c0.61,0.29,1.098,0.532,1.452,0.712l1.288-2.314C110.495-125.772,90.757-136.557,64.69-136.557
			"/>
		<path fill="#00FF00" d="M108.751-108.004c0.42,0.22,0.685,0.367,0.782,0.422l-1.287,2.31c0.426,0.216,0.659,0.343,0.686,0.357
			l1.314-2.357C109.884-107.456,109.382-107.705,108.751-108.004 M44.212-118.622c-0.787,0.185-1.58,0.383-2.372,0.593l0.372,1.407
			c0.801-0.188,1.595-0.363,2.39-0.526L44.212-118.622"/>
		<path fill="#00FFFF" d="M64.708-120.963c-6.503,0-13.396,0.671-20.496,2.341l0.39,1.474c6.256-1.285,12.337-1.814,18.106-1.814
			c23.602,0,42.009,8.849,46.043,10.958c0.631,0.299,1.133,0.548,1.495,0.732l1.287-2.31
			C110.495-110.174,90.768-120.963,64.708-120.963"/>
		<path fill="#00FF00" d="M109.004-93.424c0.274,0.145,0.453,0.243,0.529,0.286l-1.291,2.326c0.429,0.218,0.663,0.347,0.689,0.362
			l1.311-2.362C109.93-92.971,109.516-93.178,109.004-93.424 M44.212-104.17c-0.787,0.185-1.58,0.382-2.372,0.592l0.372,1.408
			c0.801-0.188,1.595-0.362,2.391-0.525L44.212-104.17"/>
		<path fill="#00FFFF" d="M64.68-106.502c-6.495,0-13.377,0.668-20.468,2.332l0.391,1.475c6.247-1.28,12.315-1.806,18.077-1.806
			c24.149,0,42.87,9.255,46.324,11.078c0.512,0.246,0.926,0.452,1.238,0.611l1.291-2.326
			C110.494-95.715,90.752-106.502,64.68-106.502"/>
		<path fill="#00FF00" d="M108.728-78.72c0.434,0.226,0.706,0.376,0.806,0.433l-1.287,2.31c0.426,0.217,0.659,0.343,0.686,0.357
			l1.314-2.357C109.879-78.164,109.369-78.417,108.728-78.72 M44.212-89.32c-0.787,0.185-1.58,0.382-2.372,0.592l0.372,1.408
			c0.801-0.188,1.595-0.363,2.39-0.526L44.212-89.32"/>
		<path fill="#00FFFF" d="M64.697-91.656c-6.501,0-13.389,0.669-20.485,2.336l0.39,1.474c6.254-1.282,12.329-1.81,18.096-1.81
			c23.561,0,41.949,8.81,46.03,10.936c0.642,0.304,1.151,0.556,1.519,0.743l1.287-2.31C110.495-80.875,90.76-91.656,64.697-91.656"
			/>
		<path fill="#00FF00" d="M108.562-63.908c0.531,0.274,0.859,0.457,0.972,0.521l-1.285,2.302c0.425,0.216,0.657,0.343,0.684,0.357
			l1.316-2.357C109.85-63.288,109.283-63.569,108.562-63.908 M44.212-74.427c-0.787,0.185-1.58,0.383-2.372,0.593l0.372,1.407
			c0.801-0.188,1.596-0.363,2.391-0.526L44.212-74.427"/>
		<path fill="#00FFFF" d="M64.708-76.768c-6.503,0-13.396,0.671-20.496,2.34l0.391,1.474c6.256-1.285,12.336-1.814,18.105-1.814
			c23.25,0,41.46,8.587,45.854,10.86c0.722,0.339,1.288,0.62,1.687,0.823l1.285-2.302C110.495-65.981,90.768-76.768,64.708-76.768"
			/>
		<path fill="#00FF00" d="M146.76-155.409c-1.397,0.675-2.23,1.132-2.424,1.24l0.424,0.759c0.69-0.333,1.52-0.721,2.477-1.145
			L146.76-155.409 M211.897-160.12l-0.616,2.327c0.458,0.113,0.916,0.229,1.376,0.352l0.624-2.352
			C212.819-159.907,212.357-160.016,211.897-160.12"/>
		<path fill="#00FFFF" d="M191.182-165.542c-21.242,0-38.277,7.164-44.422,10.133l0.477,0.855c7.552-3.345,23.09-8.988,41.945-8.988
			c7.217,0,14.921,0.827,22.848,2.926l-0.132,0.496c0.46,0.104,0.922,0.213,1.384,0.327l0.748-2.822
			C206.103-164.716,198.398-165.542,191.182-165.542"/>
		<path fill="#00FF00" d="M146.758-140.267c-1.396,0.675-2.229,1.133-2.422,1.242l0.422,0.758c0.69-0.334,1.52-0.721,2.476-1.145
			L146.758-140.267 M211.896-144.964l-0.616,2.327c0.459,0.113,0.917,0.23,1.377,0.353l0.623-2.353
			C212.819-144.75,212.355-144.86,211.896-144.964"/>
		<path fill="#00FFFF" d="M191.165-150.397c-21.236,0-38.266,7.16-44.407,10.129l0.476,0.855c7.549-3.345,23.082-8.984,41.932-8.984
			c7.222,0,14.931,0.828,22.864,2.931l-0.133,0.502c0.459,0.104,0.923,0.214,1.384,0.327l0.749-2.829
			C206.096-149.569,198.387-150.397,191.165-150.397"/>
		<path fill="#00FF00" d="M146.759-126.036c-1.396,0.674-2.23,1.132-2.423,1.24l0.423,0.76c0.691-0.333,1.52-0.72,2.477-1.144
			L146.759-126.036 M211.897-130.748l-0.617,2.327c0.459,0.113,0.917,0.229,1.377,0.352l0.623-2.352
			C212.819-130.534,212.357-130.644,211.897-130.748"/>
		<path fill="#00FFFF" d="M191.188-136.167c-21.248,0-38.285,7.163-44.43,10.131l0.477,0.856c7.553-3.344,23.095-8.987,41.953-8.987
			c7.215,0,14.917,0.826,22.841,2.923l-0.132,0.496c0.46,0.104,0.922,0.213,1.383,0.327l0.749-2.823
			C206.105-135.341,198.403-136.167,191.188-136.167"/>
		<path fill="#00FF00" d="M146.758-110.431c-1.396,0.675-2.229,1.134-2.422,1.243l0.422,0.757c0.691-0.334,1.52-0.721,2.477-1.146
			L146.758-110.431 M211.898-115.133l-0.617,2.327c0.459,0.113,0.916,0.229,1.376,0.352l0.624-2.352
			C212.82-114.92,212.357-115.029,211.898-115.133"/>
		<path fill="#00FFFF" d="M191.157-120.562c-21.233,0-38.258,7.161-44.399,10.131l0.477,0.854
			c7.549-3.346,23.079-8.986,41.923-8.986c7.225,0,14.937,0.829,22.872,2.934l-0.131,0.495c0.459,0.104,0.922,0.213,1.383,0.327
			l0.748-2.822C206.094-119.733,198.382-120.562,191.157-120.562"/>
		<path fill="#00FF00" d="M146.759-95.977c-1.396,0.674-2.23,1.131-2.423,1.239l0.423,0.761c0.69-0.334,1.519-0.72,2.476-1.144
			L146.759-95.977 M211.896-100.676l-0.616,2.327c0.459,0.113,0.917,0.229,1.377,0.352l0.623-2.352
			C212.819-100.462,212.355-100.572,211.896-100.676"/>
		<path fill="#00FFFF" d="M191.181-106.102c-21.245,0-38.278,7.159-44.422,10.125l0.476,0.856
			c7.553-3.342,23.091-8.981,41.946-8.981c7.217,0,14.922,0.827,22.849,2.924l-0.133,0.502c0.459,0.104,0.923,0.214,1.384,0.327
			l0.749-2.83C206.103-105.276,198.397-106.102,191.181-106.102"/>
		<path fill="#00FF00" d="M146.76-81.128c-1.397,0.675-2.23,1.132-2.424,1.24l0.424,0.76c0.691-0.334,1.52-0.721,2.477-1.144
			L146.76-81.128 M211.897-85.831l-0.617,2.327c0.459,0.113,0.917,0.229,1.377,0.352l0.624-2.352
			C212.819-85.618,212.357-85.727,211.897-85.831"/>
		<path fill="#00FFFF" d="M191.175-91.255c-21.239,0-38.271,7.16-44.415,10.127l0.477,0.856c7.553-3.344,23.088-8.983,41.938-8.983
			c7.219,0,14.926,0.827,22.854,2.927l-0.132,0.496c0.46,0.104,0.922,0.213,1.384,0.327l0.748-2.823
			C206.101-90.427,198.394-91.255,191.175-91.255"/>
		<path fill="#00FF00" d="M146.76-66.241c-1.397,0.675-2.23,1.133-2.424,1.241l0.424,0.759c0.691-0.334,1.521-0.721,2.478-1.145
			L146.76-66.241 M211.898-70.953l-0.617,2.327c0.459,0.113,0.916,0.23,1.376,0.352l0.624-2.352
			C212.82-70.74,212.357-70.849,211.898-70.953"/>
		<path fill="#00FFFF" d="M191.182-76.375c-21.243,0-38.276,7.164-44.422,10.133l0.478,0.855c7.553-3.345,23.091-8.988,41.944-8.988
			c7.217,0,14.921,0.827,22.848,2.927l-0.131,0.495c0.459,0.104,0.922,0.214,1.383,0.327l0.748-2.822
			C206.103-75.548,198.398-76.375,191.182-76.375"/>
		<path fill="#FF0000" d="M126.044-90.223l-1.881,2.075v-0.206l-0.119,0.131v47.672c0.722,0.277,1.39,0.539,2,0.781V-90.223
			 M11.652-166.872c-1.722,1.17-2.671,2.618-2.671,4.39c0,19.582,0,138.444,0,138.444h101.97c3.527,3.151,8.688,5.153,14.455,5.153
			c5.773,0,10.927-2.001,14.45-5.153h99.395c0,0,0-0.7,0-2h-97.395c-3.523,3.151-8.677,5.153-14.45,5.153
			c-5.768,0-10.928-2.001-14.455-5.153H10.981c0,0,0-118.862,0-138.444C10.981-165.355,11.211-166.15,11.652-166.872
			 M22.147-184.054l-2,0.783v10.392c0.631-0.192,1.299-0.37,2-0.536V-184.054 M64.74-186.393c-15.164,0-27.794,3.166-33.976,5.063
			v1.41c6.682-1.897,18.298-4.472,31.976-4.472c22.423,0,41.69,6.782,57.423,19.996v80.249l2-2.207v-80.042
			C106.431-179.611,87.163-186.393,64.74-186.393 M189.546-186.393c-21.479,0-40.063,6.219-55.416,18.365v0.465
			c14.958-11.135,32.861-16.83,53.416-16.83c16.994,0,30.887,4.009,35.976,5.703v128.989c0.674,0.224,1.34,0.457,2,0.699V-180.69
			C220.433-182.384,206.54-186.393,189.546-186.393"/>
		<path fill="#FF00FF" d="M124.044-40.551v2.781c0.758,0.301,1.427,0.574,2,0.811v-2.811
			C125.434-40.012,124.766-40.273,124.044-40.551 M223.521-49.701v2.699c0.674,0.247,1.341,0.503,2,0.768v-2.768
			C224.861-49.244,224.195-49.477,223.521-49.701 M126.044-90.429l-1.881,2.075v0.206l1.881-2.075V-90.429 M128.23-90.436v4.196
			l1.899,2.085v-4.196L128.23-90.436 M134.13-168.028c-0.673,0.533-1.34,1.076-2,1.631v0.369c0.66-0.522,1.328-1.035,2-1.535
			V-168.028 M22.147-173.415c-0.701,0.166-1.369,0.344-2,0.536v1.464c0.64-0.151,1.307-0.291,2-0.42V-173.415 M30.765-181.33
			c-0.77,0.236-1.438,0.453-2,0.641v1.359c0.605-0.186,1.274-0.384,2-0.59V-181.33"/>
		<path fill="#FFFF00" d="M128.044-92.429l-2,2.206v50.454c0.063,0.025,0.125,0.05,0.187,0.074v-48.741l1.813,1.991V-92.429
			 M13.15-167.73c-0.55,0.268-1.05,0.553-1.499,0.858c-0.44,0.722-0.671,1.517-0.671,2.39c0,19.582,0,138.444,0,138.444h101.97
			c3.527,3.151,8.688,5.153,14.455,5.153c5.773,0,10.927-2.001,14.45-5.153h97.395c0-0.558,0-1.229,0-2h-95.395
			c-3.523,3.151-8.677,5.153-14.45,5.153c-5.768,0-10.928-2.001-14.455-5.153H12.981c0,0,0-118.862,0-138.444
			C12.981-166.917,13.038-167.333,13.15-167.73 M24.147-184.784c-1.118,0.384-1.771,0.64-1.899,0.691l-0.101,0.039v10.639
			c0.64-0.151,1.307-0.291,2-0.42V-184.784 M66.74-188.393c-17.051,0-30.897,4.002-35.976,5.703v1.359
			c6.182-1.897,18.812-5.063,33.976-5.063c22.423,0,41.69,6.782,57.423,19.996v80.042l1.881-2.075v0.207l0.119-0.131v-80.043
			C108.431-181.611,89.163-188.393,66.74-188.393 M191.546-188.393c-22.42,0-41.687,6.775-57.416,19.996v0.369
			c15.353-12.146,33.938-18.365,55.416-18.365c16.994,0,30.887,4.009,35.976,5.703v131.688c0.674,0.247,1.341,0.503,2,0.768V-182.69
			C222.433-184.384,208.54-188.393,191.546-188.393"/>
		<path fill="#FFFFFF" d="M134.13-168.028v-0.369c15.729-13.221,34.996-19.996,57.416-19.996c16.994,0,30.887,4.009,35.976,5.703
			v134.456c-0.659-0.265-1.326-0.521-2-0.768v2.768c-0.659-0.265-1.326-0.521-2-0.768v2.768c-9.349-3.759-20.082-5.653-31.974-5.653
			c-29.187,0-56.959,11.185-65.317,14.865v-4.673c-0.062-0.024-0.124-0.049-0.187-0.074v2.811c-0.573-0.237-1.242-0.51-2-0.811
			v2.811c-8.461-3.501-37.615-14.579-66.816-14.579c-11.538,0-21.762,1.772-30.463,5.267V-178.69c0.562-0.188,1.23-0.405,2-0.641
			v-1.359c0.562-0.188,1.23-0.404,2-0.641v-1.359c5.078-1.701,18.925-5.703,35.976-5.703c22.423,0,41.69,6.782,57.423,19.996v80.043
			l1.881-2.075v0.206l2-2.206v5.984l0.187,0.205v-4.196l1.899,2.085v-76.046c0.66-0.555,1.327-1.099,2-1.631v-0.369
			C132.79-166.952,133.457-167.495,134.13-168.028 M187.546-190.996c-24.356,0-45.332,7.425-62.404,22.062
			c-17.066-14.636-38.049-22.062-62.401-22.062c-18.659,0-33.481,4.456-38.593,6.212v10.949c-0.693,0.13-1.36,0.27-2,0.42v1.58
			c-0.693,0.13-1.36,0.27-2,0.42v1.58c-2.8,0.523-5.17,1.215-6.997,2.105c-0.112,0.396-0.169,0.813-0.169,1.248
			c0,19.582,0,138.444,0,138.444h101.97c3.527,3.151,8.688,5.153,14.455,5.153c5.773,0,10.927-2.001,14.45-5.153h95.395
			c0-22.079,0-128.292,0-134.444c-0.008-3.059-3.48-5.059-9.112-6.289v-14.501l-2.087-0.822
			C227.322-184.379,210.279-190.996,187.546-190.996"/>
		<path fill="#FF0000" d="M42.212-161.602c-0.787,0.185-1.58,0.383-2.372,0.593l1.368,5.173c7.315-1.94,14.477-2.706,21.22-2.706
			c24.993,0,44.256,10.511,44.504,10.646l1.312-2.36c-3.656-1.861-21.439-10.286-43.815-10.286c-6.743,0-13.904,0.765-21.22,2.706
			L42.212-161.602"/>
		<path fill="#FFFF00" d="M66.428-162.541c-6.743,0-13.904,0.765-21.22,2.706l-0.606-2.292c-0.795,0.163-1.589,0.337-2.39,0.526
			l0.996,3.766c7.315-1.94,14.477-2.706,21.22-2.706c22.376,0,40.159,8.425,43.815,10.286l1.29-2.321
			c-0.085-0.047-0.297-0.164-0.627-0.337C103.32-155.577,86.772-162.541,66.428-162.541"/>
		<path fill="#FFFFFF" d="M62.698-163.939c-5.768,0-11.843,0.528-18.097,1.812l0.606,2.292c7.315-1.94,14.477-2.706,21.22-2.706
			c20.345,0,36.893,6.964,42.479,9.628C105.213-154.851,86.621-163.939,62.698-163.939"/>
		<path fill="#FF0000" d="M42.212-146.458c-0.787,0.185-1.58,0.383-2.372,0.593l1.368,5.174c7.317-1.942,14.482-2.709,21.228-2.709
			c24.99,0,44.248,10.512,44.496,10.642l1.314-2.357c-3.652-1.856-21.434-10.285-43.811-10.285c-6.745,0-13.91,0.766-21.228,2.709
			L42.212-146.458"/>
		<path fill="#FFFF00" d="M66.436-147.401c-6.744,0-13.91,0.767-21.228,2.709l-0.606-2.292c-0.795,0.163-1.589,0.338-2.39,0.526
			l0.996,3.767c7.317-1.943,14.482-2.709,21.228-2.709c22.377,0,40.158,8.429,43.811,10.285l1.287-2.31
			c-0.101-0.057-0.378-0.21-0.818-0.44C102.951-140.591,86.551-147.401,66.436-147.401"/>
		<path fill="#FFFFFF" d="M62.703-148.797c-5.769,0-11.846,0.528-18.102,1.813l0.606,2.292c7.317-1.942,14.483-2.709,21.228-2.709
			c20.115,0,36.516,6.81,42.279,9.535C104.608-140.003,86.236-148.797,62.703-148.797"/>
		<path fill="#FF0000" d="M42.212-132.222c-0.787,0.185-1.58,0.382-2.372,0.592l1.368,5.175c7.313-1.938,14.474-2.703,21.215-2.703
			c24.996,0,44.261,10.508,44.509,10.643l1.313-2.359c-3.655-1.859-21.441-10.284-43.822-10.284c-6.741,0-13.901,0.765-21.215,2.703
			L42.212-132.222"/>
		<path fill="#FFFF00" d="M66.423-133.158c-6.741,0-13.901,0.765-21.215,2.703l-0.606-2.292c-0.795,0.163-1.589,0.337-2.39,0.525
			l0.996,3.767c7.313-1.938,14.474-2.703,21.215-2.703c22.381,0,40.167,8.424,43.822,10.284l1.288-2.314
			c-0.095-0.053-0.345-0.191-0.74-0.397C103.101-126.287,86.636-133.158,66.423-133.158"/>
		<path fill="#FFFFFF" d="M62.691-134.557c-5.767,0-11.838,0.527-18.09,1.81l0.606,2.292c7.313-1.938,14.474-2.703,21.215-2.703
			c20.213,0,36.678,6.871,42.37,9.572C104.847-125.647,86.382-134.557,62.691-134.557"/>
		<path fill="#FF0000" d="M42.212-116.622c-0.787,0.185-1.58,0.383-2.372,0.593l1.368,5.174c7.313-1.94,14.474-2.706,21.215-2.706
			c24.996,0,44.261,10.516,44.509,10.645l1.314-2.357c-3.653-1.856-21.44-10.288-43.823-10.288c-6.741,0-13.901,0.766-21.215,2.706
			L42.212-116.622"/>
		<path fill="#FFFF00" d="M66.423-117.559c-6.741,0-13.901,0.765-21.215,2.705l-0.606-2.294c-0.795,0.164-1.589,0.338-2.39,0.526
			l0.996,3.768c7.313-1.94,14.474-2.706,21.215-2.706c22.383,0,40.17,8.432,43.823,10.288l1.287-2.31
			c-0.098-0.056-0.362-0.203-0.782-0.422C103.019-110.718,86.586-117.559,66.423-117.559"/>
		<path fill="#FFFFFF" d="M62.708-118.962c-5.77,0-11.851,0.529-18.106,1.814l0.606,2.294c7.313-1.94,14.474-2.705,21.215-2.705
			c20.163,0,36.596,6.842,42.328,9.556C104.717-110.114,86.31-118.962,62.708-118.962"/>
		<path fill="#FF0000" d="M42.212-102.17c-0.787,0.185-1.58,0.382-2.372,0.592l1.368,5.174c7.31-1.936,14.464-2.699,21.201-2.699
			c25.002,0,44.274,10.512,44.522,10.653l1.311-2.362c-3.659-1.866-21.45-10.292-43.833-10.292c-6.737,0-13.892,0.764-21.201,2.7
			L42.212-102.17"/>
		<path fill="#FFFF00" d="M66.409-103.104c-6.737,0-13.892,0.764-21.201,2.7l-0.605-2.292c-0.796,0.163-1.59,0.337-2.391,0.525
			l0.996,3.766c7.31-1.936,14.464-2.7,21.201-2.7c22.383,0,40.174,8.426,43.833,10.292l1.291-2.326
			c-0.076-0.042-0.255-0.141-0.529-0.286C103.514-96.054,86.882-103.104,66.409-103.104"/>
		<path fill="#FFFFFF" d="M62.68-104.502c-5.762,0-11.83,0.526-18.077,1.806l0.605,2.292c7.31-1.936,14.464-2.7,21.201-2.7
			c20.473,0,37.104,7.049,42.595,9.68C105.55-95.246,86.829-104.502,62.68-104.502"/>
		<path fill="#FF0000" d="M42.212-87.32c-0.787,0.185-1.58,0.382-2.372,0.592l1.368,5.174c7.315-1.94,14.479-2.706,21.221-2.706
			c24.993,0,44.255,10.51,44.503,10.639l1.314-2.357C104.594-77.833,86.81-86.26,64.429-86.26c-6.742,0-13.905,0.766-21.221,2.706
			L42.212-87.32"/>
		<path fill="#FFFF00" d="M66.43-88.26c-6.743,0-13.906,0.766-21.222,2.706l-0.606-2.292c-0.795,0.163-1.589,0.338-2.39,0.526
			l0.996,3.767c7.315-1.94,14.479-2.706,21.221-2.706c22.381,0,40.165,8.427,43.817,10.282l1.287-2.31
			c-0.1-0.057-0.372-0.207-0.806-0.433C102.975-81.44,86.563-88.26,66.43-88.26"/>
		<path fill="#FFFFFF" d="M62.697-89.656c-5.767,0-11.842,0.528-18.096,1.81l0.606,2.292c7.315-1.94,14.479-2.706,21.222-2.706
			c20.133,0,36.545,6.819,42.298,9.539C104.646-80.846,86.258-89.656,62.697-89.656"/>
		<path fill="#FF0000" d="M42.212-72.427c-0.787,0.185-1.58,0.383-2.372,0.593l1.368,5.167c7.315-1.94,14.478-2.706,21.221-2.706
			c24.993,0,44.255,10.511,44.503,10.646l1.316-2.357c-3.648-1.857-21.436-10.288-43.82-10.288c-6.742,0-13.904,0.766-21.22,2.706
			L42.212-72.427"/>
		<path fill="#FFFF00" d="M66.428-73.373c-6.742,0-13.904,0.766-21.22,2.706l-0.605-2.287c-0.795,0.163-1.59,0.338-2.391,0.526
			l0.996,3.76c7.315-1.94,14.478-2.706,21.22-2.706c22.385,0,40.172,8.431,43.82,10.288l1.285-2.302
			c-0.112-0.064-0.44-0.246-0.972-0.521C102.665-66.681,86.371-73.373,66.428-73.373"/>
		<path fill="#FFFFFF" d="M62.708-74.768c-5.77,0-11.85,0.529-18.105,1.814l0.605,2.287c7.315-1.94,14.478-2.706,21.22-2.706
			c19.943,0,36.237,6.692,42.134,9.465C104.168-66.181,85.958-74.768,62.708-74.768"/>
		<path fill="#FF0000" d="M191.443-160.145c-24.992,0-44.258,10.508-44.506,10.643l-2.178-3.908
			c-1.397,0.675-2.231,1.133-2.424,1.241l2.602,4.667c0.248-0.135,19.514-10.643,44.505-10.643c6.743,0,13.899,0.764,21.215,2.703
			l0.624-2.352C204.444-159.473,197.761-160.145,191.443-160.145"/>
		<path fill="#FFFF00" d="M193.443-162.145c-24.992,0-44.258,10.508-44.506,10.643l-1.701-3.052
			c-0.957,0.423-1.786,0.811-2.477,1.145l2.178,3.908c0.248-0.135,19.514-10.643,44.506-10.643c6.317,0,13.001,0.672,19.838,2.352
			l0.616-2.327C205.543-161.562,199.335-162.145,193.443-162.145"/>
		<path fill="#FFFFFF" d="M189.182-163.542c-18.855,0-34.394,5.643-41.945,8.988l1.701,3.052
			c0.248-0.135,19.514-10.643,44.506-10.643c5.892,0,12.1,0.583,18.454,2.025l0.132-0.496
			C204.103-162.715,196.398-163.542,189.182-163.542"/>
		<path fill="#FF0000" d="M191.426-144.994c-24.984,0-44.24,10.507-44.488,10.642l-2.18-3.916c-1.396,0.675-2.229,1.133-2.422,1.242
			l2.602,4.673c0.248-0.135,19.504-10.642,44.488-10.642c6.747,0,13.909,0.766,21.231,2.709l0.623-2.353
			C204.438-144.321,197.749-144.994,191.426-144.994"/>
		<path fill="#FFFF00" d="M193.426-146.994c-24.983,0-44.24,10.507-44.488,10.642l-1.704-3.061
			c-0.956,0.424-1.785,0.811-2.476,1.145l2.18,3.916c0.248-0.135,19.504-10.642,44.488-10.642c6.323,0,13.012,0.673,19.854,2.357
			l0.616-2.327C205.535-146.409,199.323-146.994,193.426-146.994"/>
		<path fill="#FFFFFF" d="M189.165-148.397c-18.85,0-34.383,5.64-41.932,8.984l1.704,3.061c0.248-0.135,19.505-10.642,44.488-10.642
			c5.897,0,12.109,0.584,18.471,2.03l0.133-0.502C204.096-147.569,196.387-148.397,189.165-148.397"/>
		<path fill="#FF0000" d="M191.45-130.772c-24.995,0-44.265,10.515-44.513,10.649l-2.179-3.914c-1.396,0.674-2.23,1.132-2.423,1.24
			l2.602,4.674c0.248-0.135,19.518-10.649,44.513-10.649c6.74,0,13.894,0.764,21.207,2.702l0.623-2.352
			C204.447-130.101,197.767-130.772,191.45-130.772"/>
		<path fill="#FFFF00" d="M193.45-132.772c-24.995,0-44.265,10.514-44.513,10.649l-1.702-3.058
			c-0.957,0.424-1.785,0.811-2.477,1.144l2.179,3.914c0.248-0.135,19.518-10.649,44.513-10.649c6.316,0,12.997,0.671,19.83,2.351
			l0.617-2.327C205.545-132.189,199.34-132.772,193.45-132.772"/>
		<path fill="#FFFFFF" d="M189.188-134.167c-18.858,0-34.4,5.643-41.953,8.987l1.702,3.058c0.248-0.135,19.518-10.649,44.513-10.649
			c5.89,0,12.095,0.583,18.447,2.024l0.132-0.496C204.105-133.341,196.403-134.167,189.188-134.167"/>
		<path fill="#FF0000" d="M191.437-115.16c-24.989,0-44.251,10.509-44.499,10.639l-2.18-3.909c-1.396,0.675-2.229,1.134-2.422,1.243
			l2.602,4.667c0.248-0.129,19.51-10.639,44.499-10.639c6.744,0,13.903,0.765,21.221,2.706l0.624-2.352
			C204.442-114.488,197.757-115.16,191.437-115.16"/>
		<path fill="#FFFF00" d="M193.437-117.16c-24.989,0-44.251,10.509-44.499,10.639l-1.703-3.055
			c-0.957,0.424-1.785,0.811-2.477,1.146l2.18,3.909c0.248-0.129,19.51-10.639,44.499-10.639c6.32,0,13.006,0.672,19.845,2.354
			l0.617-2.327C205.541-116.576,199.33-117.16,193.437-117.16"/>
		<path fill="#FFFFFF" d="M189.157-118.562c-18.844,0-34.374,5.64-41.923,8.986l1.703,3.055c0.248-0.129,19.51-10.639,44.499-10.639
			c5.894,0,12.104,0.584,18.462,2.027l0.131-0.495C204.094-117.733,196.382-118.562,189.157-118.562"/>
		<path fill="#FF0000" d="M191.443-100.7c-24.992,0-44.258,10.508-44.506,10.643l-2.179-3.92c-1.396,0.674-2.23,1.131-2.423,1.239
			l2.602,4.681c0.248-0.135,19.514-10.643,44.506-10.643c6.742,0,13.898,0.764,21.214,2.703l0.623-2.352
			C204.444-100.029,197.762-100.7,191.443-100.7"/>
		<path fill="#FFFF00" d="M193.443-102.7c-24.992,0-44.258,10.508-44.506,10.643l-1.703-3.063c-0.957,0.423-1.785,0.81-2.476,1.144
			l2.179,3.92c0.248-0.135,19.514-10.643,44.506-10.643c6.318,0,13.001,0.671,19.837,2.352l0.616-2.327
			C205.541-102.116,199.336-102.7,193.443-102.7"/>
		<path fill="#FFFFFF" d="M189.181-104.102c-18.855,0-34.394,5.639-41.946,8.981l1.703,3.063
			c0.248-0.135,19.514-10.643,44.506-10.643c5.893,0,12.098,0.583,18.453,2.024l0.133-0.502
			C204.103-103.276,196.397-104.102,189.181-104.102"/>
		<path fill="#FF0000" d="M191.441-85.856c-24.992,0-44.256,10.506-44.504,10.636l-2.178-3.907c-1.397,0.675-2.231,1.132-2.424,1.24
			l2.602,4.667c0.248-0.13,19.512-10.636,44.504-10.636c6.742,0,13.9,0.765,21.216,2.704l0.623-2.352
			C204.444-85.185,197.76-85.856,191.441-85.856"/>
		<path fill="#FFFF00" d="M193.441-87.857c-24.992,0-44.256,10.506-44.504,10.636l-1.701-3.051c-0.957,0.423-1.785,0.81-2.477,1.144
			l2.178,3.907c0.248-0.13,19.512-10.636,44.504-10.636c6.318,0,13.003,0.671,19.839,2.352l0.617-2.327
			C205.543-87.273,199.333-87.857,193.441-87.857"/>
		<path fill="#FFFFFF" d="M189.175-89.255c-18.851,0-34.386,5.639-41.938,8.983l1.701,3.051c0.248-0.13,19.512-10.636,44.504-10.636
			c5.892,0,12.102,0.584,18.456,2.025l0.132-0.496C204.101-88.427,196.394-89.255,189.175-89.255"/>
		<path fill="#FF0000" d="M191.437-70.982c-24.989,0-44.251,10.517-44.499,10.641l-2.178-3.9c-1.397,0.675-2.231,1.133-2.424,1.241
			l2.602,4.659c0.248-0.124,19.51-10.641,44.499-10.641c6.744,0,13.903,0.765,21.221,2.708l0.624-2.352
			C204.442-70.309,197.756-70.982,191.437-70.982"/>
		<path fill="#FFFF00" d="M193.437-72.982c-24.989,0-44.251,10.517-44.499,10.641l-1.7-3.045c-0.957,0.424-1.786,0.811-2.478,1.145
			l2.178,3.9c0.248-0.124,19.51-10.641,44.499-10.641c6.319,0,13.006,0.673,19.845,2.356l0.617-2.327
			C205.541-72.398,199.33-72.982,193.437-72.982"/>
		<path fill="#FFFFFF" d="M189.182-74.375c-18.854,0-34.392,5.643-41.944,8.988l1.7,3.045c0.248-0.124,19.51-10.641,44.499-10.641
			c5.894,0,12.104,0.584,18.462,2.029l0.131-0.495C204.103-73.548,196.398-74.375,189.182-74.375"/>
	</g>
</g>
</svg>
