<?xml version="1.0" encoding="utf-8"?>
<!-- Generator: Adobe Illustrator 16.0.0, SVG Export Plug-In . SVG Version: 6.00 Build 0)  -->
<!DOCTYPE svg PUBLIC "-//W3C//DTD SVG 1.1//EN" "http://www.w3.org/Graphics/SVG/1.1/DTD/svg11.dtd">
<svg version="1.1" id="Layer_1" xmlns="http://www.w3.org/2000/svg" xmlns:xlink="http://www.w3.org/1999/xlink" x="0px" y="0px"
	 width="252.232px" height="252.26px" viewBox="0 0 252.232 252.26" enable-background="new 0 0 252.232 252.26"
	 xml:space="preserve">
<g>
	<path fill="#0000FF" d="M125.545,136.881l-0.881,0.972v-0.31l-1.119,1.234v46.292c0.712,0.269,1.381,0.526,2,0.768V136.881
		 M127.73,136.563v4.196l0.814,0.895v-4.196L127.73,136.563 M11.152,60.128c-1.722,1.17-2.671,2.618-2.671,4.391
		c0,19.582,0,138.444,0,138.444h101.97c3.527,3.151,8.688,5.153,14.455,5.153c5.773,0,10.927-2.001,14.45-5.153h99.395
		c0,0,0-0.699,0-2h-97.395c-3.523,3.152-8.677,5.153-14.45,5.153c-5.767,0-10.928-2.002-14.455-5.153H10.481
		c0,0,0-118.862,0-138.444C10.481,61.645,10.712,60.85,11.152,60.128 M21.648,42.947l-2,0.782v9.718
		c0.626-0.219,1.293-0.422,2-0.611V42.947 M64.241,40.607c-14.388,0-26.494,2.849-32.976,4.761V46.8
		c6.806-1.86,17.958-4.193,30.976-4.193c22.423,0,41.69,6.782,57.423,19.996v80.25l2-2.206V60.603
		C105.931,47.389,86.664,40.607,64.241,40.607 M189.045,40.607c-21.015,0-39.258,5.952-54.416,17.585v0.511
		c14.754-10.651,32.318-16.096,52.416-16.096c16.994,0,30.888,4.009,35.977,5.703v127.666c0.673,0.213,1.34,0.435,2,0.665V46.31
		C219.932,44.616,206.039,40.607,189.045,40.607"/>
	<path fill="#0000FF" d="M41.712,65.398c-0.787,0.185-1.58,0.383-2.372,0.593l1.368,5.173c7.316-1.94,14.477-2.706,21.22-2.706
		c24.994,0,44.256,10.511,44.505,10.646l1.312-2.36c-3.657-1.861-21.439-10.286-43.816-10.286c-6.743,0-13.904,0.765-21.22,2.706
		L41.712,65.398"/>
	<path fill="#0000FF" d="M41.712,80.542c-0.788,0.185-1.58,0.383-2.372,0.593l1.368,5.174c7.318-1.943,14.483-2.709,21.228-2.709
		c24.991,0,44.248,10.512,44.497,10.642l1.314-2.357C104.094,90.029,86.313,81.6,63.936,81.6c-6.745,0-13.91,0.766-21.228,2.709
		L41.712,80.542"/>
	<path fill="#0000FF" d="M41.712,94.778c-0.787,0.185-1.58,0.382-2.372,0.592l1.368,5.175c7.314-1.938,14.473-2.703,21.214-2.703
		c24.996,0,44.262,10.508,44.51,10.642l1.313-2.358c-3.655-1.859-21.442-10.284-43.823-10.284c-6.741,0-13.9,0.765-21.214,2.703
		L41.712,94.778"/>
	<path fill="#0000FF" d="M41.712,110.378c-0.788,0.185-1.58,0.383-2.372,0.593l1.368,5.174c7.314-1.94,14.475-2.706,21.216-2.706
		c24.996,0,44.26,10.515,44.508,10.645l1.314-2.357c-3.653-1.856-21.439-10.288-43.822-10.288c-6.741,0-13.902,0.766-21.216,2.706
		L41.712,110.378"/>
	<path fill="#0000FF" d="M41.712,124.83c-0.787,0.185-1.58,0.382-2.372,0.592l1.368,5.175c7.31-1.936,14.466-2.7,21.203-2.7
		c25.002,0,44.273,10.513,44.521,10.653l1.311-2.361c-3.66-1.867-21.449-10.292-43.832-10.292c-6.738,0-13.894,0.764-21.203,2.7
		L41.712,124.83"/>
	<path fill="#0000FF" d="M41.712,139.68c-0.787,0.186-1.58,0.383-2.372,0.593l1.368,5.174c7.316-1.94,14.479-2.706,21.221-2.706
		c24.993,0,44.255,10.51,44.503,10.639l1.314-2.357c-3.653-1.854-21.437-10.281-43.817-10.281c-6.743,0-13.905,0.766-21.221,2.706
		L41.712,139.68"/>
	<path fill="#0000FF" d="M41.712,154.572c-0.788,0.186-1.581,0.384-2.373,0.594l1.368,5.167c7.316-1.94,14.477-2.706,21.22-2.706
		c24.993,0,44.256,10.512,44.505,10.646l1.316-2.357c-3.648-1.856-21.437-10.288-43.821-10.288c-6.743,0-13.904,0.766-21.22,2.706
		L41.712,154.572"/>
	<path fill="#0000FF" d="M190.944,66.855c-24.993,0-44.259,10.508-44.506,10.643l-2.178-3.908c-1.397,0.675-2.231,1.133-2.424,1.241
		l2.602,4.667c0.247-0.135,19.513-10.643,44.506-10.643c6.742,0,13.898,0.764,21.214,2.703l0.624-2.352
		C203.945,67.526,197.262,66.855,190.944,66.855"/>
	<path fill="#0000FF" d="M190.927,82.006c-24.984,0-44.242,10.508-44.489,10.642l-2.181-3.916c-1.396,0.675-2.229,1.134-2.422,1.243
		l2.603,4.673c0.247-0.135,19.505-10.642,44.489-10.642c6.747,0,13.908,0.766,21.23,2.709l0.623-2.352
		C203.938,82.679,197.251,82.006,190.927,82.006"/>
	<path fill="#0000FF" d="M190.95,96.229c-24.995,0-44.265,10.515-44.512,10.649l-2.18-3.914c-1.396,0.674-2.23,1.132-2.423,1.24
		l2.603,4.674c0.247-0.135,19.517-10.649,44.512-10.649c6.741,0,13.895,0.764,21.208,2.703l0.624-2.352
		C203.948,96.9,197.266,96.229,190.95,96.229"/>
	<path fill="#0000FF" d="M190.938,111.84c-24.99,0-44.253,10.509-44.5,10.639l-2.181-3.91c-1.396,0.675-2.229,1.134-2.422,1.243
		l2.603,4.667c0.247-0.129,19.51-10.639,44.5-10.639c6.744,0,13.902,0.765,21.22,2.706l0.624-2.352
		C203.943,112.512,197.259,111.84,190.938,111.84"/>
	<path fill="#0000FF" d="M190.944,126.301c-24.992,0-44.259,10.508-44.506,10.642l-2.18-3.92c-1.396,0.675-2.23,1.133-2.423,1.24
		l2.603,4.68c0.247-0.134,19.514-10.642,44.506-10.642c6.742,0,13.898,0.765,21.214,2.703l0.623-2.352
		C203.945,126.973,197.262,126.301,190.944,126.301"/>
	<path fill="#0000FF" d="M190.944,141.144c-24.992,0-44.259,10.507-44.506,10.637l-2.179-3.908c-1.397,0.675-2.231,1.133-2.424,1.24
		l2.603,4.668c0.247-0.13,19.514-10.637,44.506-10.637c6.742,0,13.898,0.765,21.214,2.703l0.624-2.352
		C203.946,141.815,197.262,141.144,190.944,141.144"/>
	<path fill="#0000FF" d="M190.937,156.018c-24.99,0-44.252,10.517-44.499,10.641l-2.179-3.9c-1.397,0.675-2.231,1.134-2.424,1.241
		l2.603,4.659c0.247-0.124,19.509-10.641,44.499-10.641c6.744,0,13.903,0.766,21.221,2.708l0.624-2.352
		C203.943,156.69,197.257,156.018,190.937,156.018"/>
	<path fill="#00FF00" d="M240.751,197.963h-2c0,1.204,0,2.213,0,3h2C240.751,200.963,240.751,199.901,240.751,197.963
		 M123.545,138.571l-1.881,2.075v0.206l1.881-2.075V138.571 M125.73,138.563v47.347c0.738,0.289,1.407,0.557,2,0.798V140.76
		L125.73,138.563 M130.73,133.563v6.295l0.898,0.986v-6.295L130.73,133.563 M13.86,57.688c-1.222,0.7-2.139,1.509-2.708,2.441
		c0.676-0.459,1.47-0.875,2.373-1.252C13.581,58.461,13.694,58.065,13.86,57.688 M106.156,45.774
		c6.589,3.28,12.758,7.379,18.486,12.292c0.007-0.006,0.014-0.012,0.021-0.018v-0.445C118.954,52.808,112.779,48.859,106.156,45.774
		 M24.648,40.569c-0.511,0.185-0.816,0.305-0.899,0.338l-2.101,0.822v1.218l0.101-0.04c0.162-0.065,1.17-0.458,2.899-1.026V40.569"
		/>
	<path fill="#00FFFF" d="M128.545,133.571l-3,3.31v48.956c0.063,0.025,0.124,0.049,0.186,0.073v-47.347l2,2.196v-4.196l0.814,0.895
		V133.571 M13.525,58.876c-0.903,0.376-1.697,0.793-2.373,1.252c-0.44,0.722-0.671,1.517-0.671,2.391c0,19.582,0,138.444,0,138.444
		h101.97c3.527,3.151,8.688,5.153,14.455,5.153c5.773,0,10.927-2.001,14.45-5.153h97.395c0-0.787,0-1.796,0-3h-94.395
		c-3.523,3.152-8.677,5.153-14.45,5.153c-5.767,0-10.928-2.002-14.455-5.153H13.481c0,0,0-118.862,0-138.444
		C13.481,59.3,13.496,59.086,13.525,58.876 M24.648,41.881c-1.729,0.568-2.737,0.961-2.899,1.026l-0.101,0.04v9.89
		c0.934-0.249,1.936-0.473,3-0.671V41.881 M67.241,37.607c-17.051,0-30.898,4.002-35.976,5.703v2.058
		c6.481-1.912,18.588-4.761,32.976-4.761c22.423,0,41.69,6.782,57.423,19.996v80.043l1.881-2.075v0.206l1.119-1.234V58.048
		c-0.007,0.006-0.014,0.012-0.021,0.018c-5.728-4.912-11.896-9.012-18.486-12.292C94.531,40.359,81.526,37.607,67.241,37.607
		 M192.045,37.607c-22.42,0-41.687,6.775-57.416,19.996v0.589c15.158-11.634,33.401-17.585,54.416-17.585
		c16.994,0,30.888,4.009,35.977,5.703v130.331c1.016,0.354,2.015,0.729,3,1.126V43.31C222.932,41.616,209.039,37.607,192.045,37.607
		"/>
	<path fill="#00FF00" d="M72.914,63.656c20.589,2.27,35.229,10.273,36.12,10.767l-1.29,2.321c0.428,0.218,0.663,0.346,0.688,0.36
		l1.964-3.535C106.473,71.611,91.81,64.896,72.914,63.656 M44.905,63.127c-1.183,0.26-2.371,0.548-3.565,0.864l0.372,1.407
		c1.205-0.283,2.4-0.537,3.591-0.764L44.905,63.127"/>
	<path fill="#00FFFF" d="M66.927,63.458c-6.743,0-13.904,0.765-21.22,2.706l-0.405-1.529c-1.191,0.227-2.387,0.48-3.591,0.764
		l0.996,3.766c7.316-1.94,14.477-2.706,21.22-2.706c22.377,0,40.159,8.425,43.816,10.286l1.29-2.321
		c-0.891-0.494-15.531-8.497-36.12-10.767C70.961,63.528,68.963,63.458,66.927,63.458"/>
	<path fill="#00FF00" d="M72.88,78.795c20.607,2.264,35.262,10.275,36.154,10.78l-1.288,2.31c0.427,0.217,0.66,0.344,0.686,0.357
		l1.968-3.531C106.482,86.757,91.8,80.029,72.88,78.795 M44.904,78.271c-1.183,0.26-2.371,0.548-3.564,0.864l0.372,1.407
		c1.204-0.283,2.399-0.537,3.591-0.764L44.904,78.271"/>
	<path fill="#00FFFF" d="M66.936,78.6c-6.745,0-13.91,0.766-21.228,2.709l-0.405-1.531c-1.192,0.227-2.387,0.48-3.591,0.764
		l0.996,3.767c7.318-1.943,14.483-2.709,21.228-2.709c22.377,0,40.158,8.429,43.811,10.285l1.288-2.31
		c-0.892-0.504-15.547-8.516-36.154-10.78C70.94,78.669,68.958,78.6,66.936,78.6"/>
	<path fill="#00FF00" d="M72.932,93.042c20.578,2.274,35.21,10.27,36.102,10.77l-1.289,2.314c0.427,0.217,0.661,0.344,0.687,0.358
		l1.967-3.533C106.48,100.996,91.824,94.285,72.932,93.042 M44.905,92.507c-1.183,0.26-2.371,0.547-3.565,0.863l0.372,1.408
		c1.205-0.283,2.4-0.536,3.591-0.763L44.905,92.507"/>
	<path fill="#00FFFF" d="M66.922,92.842c-6.741,0-13.901,0.765-21.214,2.703l-0.405-1.53c-1.191,0.227-2.387,0.48-3.591,0.763
		l0.996,3.767c7.314-1.938,14.473-2.703,21.214-2.703c22.381,0,40.168,8.425,43.823,10.284l1.289-2.314
		c-0.891-0.5-15.524-8.496-36.102-10.77C70.972,92.912,68.966,92.842,66.922,92.842"/>
	<path fill="#00FF00" d="M73.03,108.646c20.527,2.287,35.114,10.265,36.004,10.771l-1.288,2.31c0.426,0.216,0.66,0.343,0.686,0.357
		l1.968-3.531C106.49,116.604,91.878,109.906,73.03,108.646 M44.904,108.106c-1.183,0.26-2.371,0.548-3.564,0.865l0.372,1.407
		c1.204-0.283,2.399-0.537,3.591-0.765L44.904,108.106"/>
	<path fill="#00FFFF" d="M66.924,108.439c-6.741,0-13.903,0.766-21.216,2.706l-0.405-1.532c-1.191,0.228-2.387,0.481-3.591,0.765
		l0.996,3.767c7.314-1.94,14.475-2.706,21.216-2.706c22.383,0,40.169,8.432,43.822,10.288l1.288-2.31
		c-0.89-0.507-15.477-8.485-36.004-10.771C71.04,108.512,69,108.439,66.924,108.439"/>
	<path fill="#00FF00" d="M72.917,123.096c20.586,2.273,35.226,10.272,36.117,10.767l-1.291,2.326
		c0.429,0.218,0.664,0.347,0.689,0.361l1.963-3.537C106.47,131.051,91.809,124.34,72.917,123.096 M44.905,122.559
		c-1.183,0.26-2.371,0.547-3.565,0.863l0.372,1.408c1.205-0.282,2.4-0.536,3.592-0.762L44.905,122.559"/>
	<path fill="#00FFFF" d="M66.91,122.896c-6.738,0-13.893,0.764-21.202,2.7l-0.404-1.529c-1.192,0.227-2.387,0.48-3.592,0.762
		l0.996,3.767c7.31-1.936,14.465-2.7,21.203-2.7c22.383,0,40.172,8.424,43.832,10.292l1.291-2.326
		c-0.891-0.494-15.531-8.493-36.117-10.767C70.957,122.967,68.954,122.896,66.91,122.896"/>
	<path fill="#00FF00" d="M72.881,137.937c20.607,2.264,35.261,10.271,36.153,10.775l-1.288,2.31c0.426,0.217,0.66,0.344,0.686,0.357
		l1.968-3.531C106.48,145.895,91.799,139.171,72.881,137.937 M44.905,137.409c-1.183,0.26-2.371,0.547-3.565,0.863l0.372,1.407
		c1.205-0.282,2.4-0.536,3.592-0.763L44.905,137.409"/>
	<path fill="#00FFFF" d="M66.928,137.74c-6.743,0-13.905,0.766-21.221,2.706l-0.404-1.529c-1.192,0.227-2.387,0.48-3.592,0.763
		l0.996,3.767c7.316-1.94,14.479-2.706,21.221-2.706c22.38,0,40.165,8.427,43.817,10.281l1.288-2.31
		c-0.892-0.504-15.546-8.512-36.153-10.775C70.939,137.81,68.953,137.74,66.928,137.74"/>
	<path fill="#00FF00" d="M72.878,152.823c20.607,2.264,35.265,10.28,36.156,10.789l-1.286,2.303
		c0.425,0.217,0.658,0.344,0.684,0.357l1.971-3.531C106.488,160.787,91.801,154.059,72.878,152.823 M44.905,152.301
		c-1.183,0.261-2.372,0.549-3.565,0.865l0.373,1.406c1.204-0.283,2.4-0.537,3.592-0.765L44.905,152.301"/>
	<path fill="#00FFFF" d="M66.927,152.627c-6.743,0-13.903,0.766-21.219,2.706l-0.404-1.525c-1.192,0.228-2.388,0.481-3.592,0.765
		l0.996,3.761c7.316-1.94,14.477-2.706,21.22-2.706c22.384,0,40.172,8.432,43.821,10.288l1.286-2.303
		c-0.892-0.509-15.549-8.525-36.156-10.789C70.935,152.696,68.951,152.627,66.927,152.627"/>
	<path fill="#00FF00" d="M147.493,71.008c-2.141,0.988-3.412,1.686-3.656,1.823l0.424,0.759c0.977-0.472,2.229-1.05,3.73-1.689
		L147.493,71.008 M198.391,63.967c4.276,0.455,8.673,1.234,13.139,2.417l-0.748,2.823c0.459,0.113,0.916,0.229,1.376,0.352
		l0.933-3.518C208.077,64.856,203.148,64.209,198.391,63.967"/>
	<path fill="#00FFFF" d="M193.944,63.855c-24.993,0-44.259,10.508-44.506,10.643l-1.447-2.597c-1.501,0.639-2.754,1.217-3.73,1.689
		l2.178,3.908c0.247-0.135,19.513-10.643,44.506-10.643c6.318,0,13.001,0.671,19.838,2.352l0.748-2.823
		c-4.466-1.183-8.862-1.962-13.139-2.417C196.89,63.891,195.408,63.855,193.944,63.855"/>
	<path fill="#00FF00" d="M147.49,86.15c-2.139,0.988-3.41,1.687-3.654,1.825l0.422,0.757c0.978-0.472,2.229-1.05,3.729-1.689
		L147.49,86.15 M198.467,79.123c4.253,0.457,8.625,1.234,13.063,2.411l-0.749,2.83c0.459,0.113,0.917,0.23,1.377,0.352l0.932-3.519
		C208.101,80.016,203.202,79.368,198.467,79.123"/>
	<path fill="#00FFFF" d="M193.927,79.006c-24.984,0-44.242,10.507-44.489,10.642l-1.451-2.605c-1.501,0.639-2.752,1.217-3.729,1.689
		l2.181,3.916c0.247-0.134,19.505-10.642,44.489-10.642c6.323,0,13.011,0.673,19.854,2.357l0.749-2.83
		c-4.438-1.176-8.811-1.954-13.063-2.411C196.935,79.043,195.421,79.006,193.927,79.006"/>
	<path fill="#00FF00" d="M147.492,100.382c-2.141,0.988-3.412,1.686-3.656,1.822l0.423,0.76c0.978-0.472,2.229-1.05,3.73-1.688
		L147.492,100.382 M198.36,93.339c4.286,0.454,8.693,1.233,13.17,2.418l-0.748,2.823c0.459,0.113,0.916,0.229,1.376,0.352
		l0.933-3.518C208.065,94.226,203.128,93.579,198.36,93.339"/>
	<path fill="#00FFFF" d="M193.95,93.229c-24.995,0-44.265,10.515-44.512,10.649l-1.449-2.602c-1.501,0.638-2.753,1.216-3.73,1.688
		l2.18,3.914c0.247-0.135,19.517-10.649,44.512-10.649c6.316,0,12.998,0.671,19.832,2.351l0.748-2.823
		c-4.477-1.185-8.884-1.964-13.17-2.418C196.873,93.264,195.401,93.229,193.95,93.229"/>
	<path fill="#00FF00" d="M147.491,115.986c-2.14,0.989-3.411,1.688-3.655,1.826l0.422,0.757c0.978-0.473,2.229-1.051,3.73-1.69
		L147.491,115.986 M198.426,108.955c4.267,0.457,8.65,1.236,13.104,2.417l-0.748,2.822c0.459,0.113,0.916,0.229,1.376,0.352
		l0.933-3.519C208.088,109.845,203.174,109.198,198.426,108.955"/>
	<path fill="#00FFFF" d="M193.938,108.84c-24.989,0-44.253,10.509-44.5,10.639l-1.45-2.6c-1.501,0.639-2.753,1.218-3.73,1.69
		l2.181,3.91c0.247-0.129,19.51-10.639,44.5-10.639c6.32,0,13.005,0.672,19.844,2.354l0.748-2.822
		c-4.454-1.182-8.838-1.961-13.104-2.417C196.912,108.877,195.414,108.84,193.938,108.84"/>
	<path fill="#00FF00" d="M147.491,130.441c-2.141,0.987-3.411,1.685-3.655,1.821l0.423,0.76c0.977-0.472,2.229-1.049,3.729-1.688
		L147.491,130.441 M198.479,123.417c4.248,0.456,8.616,1.232,13.051,2.406l-0.749,2.829c0.459,0.112,0.917,0.229,1.377,0.352
		l0.932-3.518C208.107,124.309,203.209,123.663,198.479,123.417"/>
	<path fill="#00FFFF" d="M193.944,123.301c-24.992,0-44.259,10.508-44.506,10.642l-1.45-2.607c-1.501,0.639-2.753,1.216-3.729,1.688
		l2.18,3.92c0.247-0.134,19.514-10.642,44.506-10.642c6.318,0,13.001,0.672,19.837,2.352l0.749-2.829
		c-4.435-1.174-8.803-1.95-13.051-2.406C196.948,123.338,195.437,123.301,193.944,123.301"/>
	<path fill="#00FF00" d="M147.492,145.29c-2.14,0.988-3.412,1.686-3.656,1.822l0.424,0.76c0.978-0.472,2.229-1.05,3.731-1.688
		L147.492,145.29 M198.393,138.257c4.276,0.454,8.671,1.233,13.137,2.416l-0.748,2.822c0.459,0.113,0.916,0.229,1.376,0.352
		l0.933-3.518C208.077,139.145,203.15,138.498,198.393,138.257"/>
	<path fill="#00FFFF" d="M193.944,138.144c-24.992,0-44.259,10.507-44.506,10.637l-1.447-2.597
		c-1.502,0.639-2.754,1.217-3.731,1.688l2.179,3.908c0.247-0.13,19.514-10.637,44.506-10.637c6.318,0,13.002,0.672,19.838,2.352
		l0.748-2.822c-4.466-1.183-8.86-1.962-13.137-2.416C196.892,138.18,195.408,138.144,193.944,138.144"/>
	<path fill="#00FF00" d="M147.493,160.176c-2.142,0.989-3.413,1.687-3.657,1.823l0.424,0.759c0.978-0.472,2.23-1.051,3.732-1.689
		L147.493,160.176 M198.308,153.126c4.303,0.453,8.728,1.234,13.222,2.425l-0.748,2.823c0.459,0.112,0.916,0.229,1.376,0.352
		l0.933-3.519C208.049,154.014,203.091,153.365,198.308,153.126"/>
	<path fill="#00FFFF" d="M193.937,153.018c-24.99,0-44.252,10.517-44.499,10.641l-1.446-2.59c-1.502,0.639-2.755,1.218-3.732,1.689
		l2.179,3.9c0.247-0.124,19.509-10.641,44.499-10.641c6.319,0,13.006,0.673,19.845,2.356l0.748-2.823
		c-4.494-1.19-8.919-1.972-13.222-2.425C196.834,153.053,195.376,153.018,193.937,153.018"/>
	<path fill="#FF0000" d="M129.629,138.648v4.196l-1.084-1.19v45.388h-0.001c-0.253-0.104-0.524-0.216-0.813-0.334v3.27
		c8.357-3.68,36.13-14.865,65.316-14.865c11.054,0,21.104,1.637,29.975,4.887v-4.023c-8.116-2.57-17.149-3.863-26.975-3.863
		c-29.187,0-56.959,11.186-65.316,14.865v-47.119L129.629,138.648 M134.629,58.703c-1.014,0.732-2.013,1.488-3,2.269v73.578l3,3.295
		V58.703 M19.648,53.447c-2.965,1.038-4.991,2.425-5.788,4.24c1.5-0.859,3.458-1.552,5.788-2.102V53.447 M31.265,46.8
		c-1.122,0.307-2.125,0.601-3,0.869v133.06c8.7-3.494,18.925-5.267,30.463-5.267c27.223,0,54.403,9.628,64.816,13.769v-4.162
		c-12.022-4.542-36.902-12.606-61.816-12.606c-11.538,0-21.763,1.772-30.463,5.267V46.8 M192.046,31.004
		c-24.355,0-45.332,7.425-62.403,22.062c-17.066-14.636-38.05-22.062-62.401-22.062c-22.74,0-39.78,6.618-40.492,6.903l-2.101,0.822
		v1.84c3.867-1.402,19.506-6.565,39.593-6.565c24.352,0,45.335,7.426,62.401,22.062c17.071-14.637,38.048-22.062,62.403-22.062
		c22.734,0,39.777,6.617,40.506,6.903l2.088,0.822V56.23c5.632,1.229,9.104,3.23,9.111,6.289c0,6.25,0,115.808,0,135.444h3
		c0,0,0-131.576,0-138.444c-0.008-3.059-3.479-5.06-9.111-6.289V38.729l-2.088-0.822C231.823,37.621,214.78,31.004,192.046,31.004"
		/>
	<path fill="#FF00FF" d="M123.545,185.069v4.162c0.757,0.301,1.426,0.573,1.999,0.811h0.001v-4.205
		C124.926,185.596,124.257,185.338,123.545,185.069 M223.021,175.976v4.023c0.673,0.246,1.34,0.502,2,0.768v-4.126
		C224.361,176.41,223.694,176.188,223.021,175.976 M128.545,137.458v4.196l1.084,1.19v-4.196L128.545,137.458 M125.545,136.571
		l-0.881,0.972v0.31l0.881-0.972V136.571 M134.629,58.192c-1.014,0.778-2.014,1.582-3,2.411v0.369c0.987-0.781,1.986-1.537,3-2.269
		V58.192 M21.648,52.836c-0.707,0.188-1.374,0.392-2,0.611v2.138c0.639-0.151,1.306-0.291,2-0.42V52.836 M31.265,45.368
		c-1.2,0.354-2.207,0.676-3,0.942v1.359c0.875-0.269,1.878-0.562,3-0.869V45.368"/>
	<path fill="#FFFF00" d="M193.047,175.112c-29.187,0-56.959,11.186-65.316,14.865v-3.27c-0.593-0.241-1.262-0.509-2-0.798v6.067
		c8.357-3.68,36.13-14.865,65.316-14.865c11.893,0,22.625,1.895,31.975,5.654v-2.768C214.151,176.749,204.1,175.112,193.047,175.112
		 M131.629,60.972c-0.673,0.533-1.34,1.076-2,1.631v76.045l1.102,1.21v-6.295l0.898,0.986V60.972 M19.648,55.585
		c-2.331,0.55-4.289,1.243-5.788,2.102c-0.166,0.377-0.279,0.774-0.335,1.189c1.687-0.704,3.751-1.268,6.124-1.711V55.585
		 M28.265,47.669c-0.769,0.236-1.438,0.453-2,0.641v134.419c8.7-3.494,18.925-5.267,30.463-5.267
		c29.201,0,58.354,11.078,66.815,14.579h0.001v-2.811c-10.413-4.141-37.594-13.769-64.816-13.769
		c-11.538,0-21.763,1.772-30.463,5.267V47.669 M189.046,34.004c-24.355,0-45.332,7.425-62.403,22.062
		c-17.066-14.636-38.05-22.062-62.401-22.062c-20.086,0-35.726,5.164-39.593,6.565v1.312c5.866-1.929,20.03-5.877,37.593-5.877
		c16.178,0,30.871,3.278,43.916,9.771c6.623,3.084,12.798,7.033,18.507,11.829v0.445c17.067-14.625,38.037-22.044,62.382-22.044
		c22.734,0,39.777,6.617,40.506,6.903l2.088,0.822V58.23c5.632,1.229,9.104,3.23,9.111,6.289c0,6.063,0,109.345,0,133.444h2
		c0-19.636,0-129.193,0-135.444c-0.008-3.059-3.479-5.06-9.111-6.289V41.729l-2.088-0.822
		C228.823,40.621,211.78,34.004,189.046,34.004"/>
	<path fill="#FFFFFF" d="M187.046,36.004c-24.345,0-45.314,7.419-62.382,22.044v79.495l0.881-0.972v0.31l3-3.31v3.887l1.084,1.19
		V62.603c0.66-0.555,1.327-1.099,2-1.631v-0.369c0.986-0.829,1.986-1.632,3-2.411v-0.589c15.729-13.221,34.996-19.996,57.416-19.996
		c16.994,0,30.888,4.009,35.977,5.703v134.457c-0.985-0.396-1.984-0.771-3-1.126v4.126c-0.66-0.266-1.327-0.521-2-0.768v2.768
		c-9.35-3.76-20.082-5.654-31.975-5.654c-29.187,0-56.959,11.186-65.316,14.865v-6.067c-0.062-0.024-0.123-0.048-0.186-0.073v4.205
		h-0.001c-0.573-0.237-1.242-0.51-1.999-0.811v2.811h-0.001c-8.461-3.501-37.614-14.579-66.815-14.579
		c-11.538,0-21.763,1.772-30.463,5.267V48.31c0.562-0.188,1.231-0.405,2-0.641V46.31c0.793-0.266,1.8-0.588,3-0.942V43.31
		c5.077-1.701,18.925-5.703,35.976-5.703c14.285,0,27.29,2.752,38.916,8.167c-13.044-6.492-27.737-9.771-43.916-9.771
		c-17.563,0-31.727,3.948-37.593,5.877v10.284c-1.064,0.199-2.066,0.422-3,0.671v2.329c-0.694,0.13-1.361,0.27-2,0.42v1.58
		c-2.373,0.444-4.437,1.008-6.124,1.711c-0.029,0.209-0.043,0.423-0.043,0.643c0,19.582,0,138.444,0,138.444h101.97
		c3.527,3.151,8.688,5.153,14.455,5.153c5.773,0,10.927-2.001,14.45-5.153h94.395c0-24.099,0-127.38,0-133.444
		c-0.008-3.059-3.479-5.06-9.111-6.289V43.729l-2.088-0.822C226.823,42.621,209.78,36.004,187.046,36.004"/>
	<path fill="#FF0000" d="M67.199,58.061c-7.222,0-14.928,0.828-22.859,2.931l0.565,2.136c6.676-1.469,13.159-2.066,19.294-2.066
		c26.063,0,45.796,10.787,46.835,11.362l-0.637,1.146c0.648,0.324,1.003,0.517,1.036,0.535l2.602-4.681
		C112.995,68.848,93.262,58.061,67.199,58.061"/>
	<path fill="#FFFF00" d="M64.199,61.061c-6.135,0-12.619,0.598-19.294,2.066l0.398,1.508c5.832-1.112,11.499-1.574,16.896-1.574
		c3.712,0,7.296,0.219,10.715,0.596c18.896,1.24,33.559,7.955,37.483,9.913l0.637-1.146C109.995,71.848,90.262,61.061,64.199,61.061
		"/>
	<path fill="#FFFFFF" d="M62.199,63.061c-5.397,0-11.064,0.462-16.896,1.574l0.405,1.529c7.316-1.94,14.477-2.706,21.22-2.706
		c2.036,0,4.034,0.07,5.986,0.198C69.495,63.279,65.911,63.061,62.199,63.061"/>
	<path fill="#FF0000" d="M67.203,73.204c-7.224,0-14.93,0.828-22.864,2.931l0.564,2.136c6.679-1.469,13.163-2.067,19.3-2.067
		c26.06,0,45.791,10.784,46.83,11.372l-0.633,1.136c0.646,0.322,1,0.514,1.032,0.531l2.602-4.667
		C112.995,83.987,93.263,73.204,67.203,73.204"/>
	<path fill="#FFFF00" d="M64.204,76.204c-6.137,0-12.621,0.598-19.3,2.067l0.399,1.508c5.833-1.112,11.501-1.575,16.9-1.575
		c3.697,0,7.27,0.217,10.677,0.592c18.92,1.234,33.602,7.961,37.521,9.916l0.633-1.136C109.995,86.987,90.263,76.204,64.204,76.204"
		/>
	<path fill="#FFFFFF" d="M62.203,78.204c-5.399,0-11.067,0.462-16.9,1.575l0.405,1.531c7.318-1.943,14.483-2.709,21.228-2.709
		c2.022,0,4.004,0.069,5.944,0.195C69.473,78.421,65.901,78.204,62.203,78.204"/>
	<path fill="#FF0000" d="M67.191,87.443c-7.22,0-14.922,0.827-22.852,2.927l0.565,2.137c6.674-1.467,13.153-2.064,19.287-2.064
		c26.066,0,45.803,10.786,46.843,11.368l-0.635,1.14c0.647,0.322,1.001,0.515,1.033,0.533l2.602-4.673
		C112.995,98.229,93.257,87.443,67.191,87.443"/>
	<path fill="#FFFF00" d="M64.191,90.443c-6.133,0-12.613,0.597-19.287,2.064l0.398,1.508c5.83-1.11,11.492-1.572,16.888-1.572
		c3.722,0,7.313,0.22,10.741,0.599c18.892,1.244,33.548,7.955,37.467,9.91l0.635-1.14C109.994,101.229,90.257,90.443,64.191,90.443"
		/>
	<path fill="#FFFFFF" d="M62.191,92.443c-5.396,0-11.059,0.461-16.888,1.572l0.405,1.53c7.313-1.938,14.473-2.703,21.214-2.703
		c2.043,0,4.05,0.07,6.01,0.2C69.505,92.663,65.913,92.443,62.191,92.443"/>
	<path fill="#FF0000" d="M67.208,103.037c-7.224,0-14.935,0.829-22.869,2.934l0.564,2.135c6.678-1.471,13.167-2.069,19.304-2.069
		c26.06,0,45.787,10.788,46.826,11.38l-0.633,1.136c0.646,0.322,1,0.515,1.032,0.531l2.602-4.667
		C112.995,113.825,93.268,103.037,67.208,103.037"/>
	<path fill="#FFFF00" d="M64.208,106.037c-6.137,0-12.625,0.599-19.304,2.069l0.398,1.507c5.836-1.113,11.504-1.576,16.906-1.576
		c3.75,0,7.371,0.224,10.822,0.608c18.848,1.261,33.46,7.958,37.371,9.907l0.633-1.136
		C109.995,116.825,90.268,106.037,64.208,106.037"/>
	<path fill="#FFFFFF" d="M62.208,108.037c-5.401,0-11.07,0.463-16.906,1.576l0.405,1.532c7.313-1.94,14.475-2.706,21.216-2.706
		c2.076,0,4.116,0.073,6.106,0.206C69.579,108.261,65.958,108.037,62.208,108.037"/>
	<path fill="#FF0000" d="M67.18,117.498c-7.217,0-14.916,0.826-22.841,2.924l0.565,2.137c6.669-1.465,13.146-2.061,19.276-2.061
		c26.072,0,45.814,10.787,46.854,11.364l-0.639,1.15c0.649,0.324,1.005,0.519,1.037,0.537l2.602-4.688
		C112.994,128.286,93.253,117.498,67.18,117.498"/>
	<path fill="#FFFF00" d="M64.18,120.498c-6.13,0-12.606,0.596-19.276,2.061l0.399,1.508c5.825-1.108,11.484-1.569,16.877-1.569
		c3.72,0,7.31,0.219,10.736,0.598c18.892,1.244,33.554,7.955,37.479,9.917l0.639-1.15C109.994,131.285,90.252,120.498,64.18,120.498
		"/>
	<path fill="#FFFFFF" d="M62.18,122.498c-5.393,0-11.052,0.461-16.877,1.569l0.404,1.529c7.31-1.936,14.464-2.7,21.202-2.7
		c2.044,0,4.047,0.07,6.007,0.199C69.49,122.717,65.901,122.498,62.18,122.498"/>
	<path fill="#FF0000" d="M67.198,132.345c-7.222,0-14.927,0.826-22.858,2.928l0.565,2.137c6.676-1.468,13.158-2.064,19.293-2.064
		c26.063,0,45.797,10.78,46.836,11.367l-0.633,1.136c0.646,0.322,1,0.515,1.032,0.531l2.602-4.667
		C112.995,143.125,93.261,132.345,67.198,132.345"/>
	<path fill="#FFFF00" d="M64.198,135.345c-6.135,0-12.618,0.597-19.293,2.064l0.399,1.508c5.831-1.111,11.497-1.572,16.895-1.572
		c3.699,0,7.274,0.217,10.683,0.592c18.918,1.234,33.599,7.958,37.52,9.911l0.633-1.136
		C109.995,146.125,90.261,135.345,64.198,135.345"/>
	<path fill="#FFFFFF" d="M62.198,137.345c-5.398,0-11.063,0.461-16.895,1.572l0.404,1.529c7.316-1.94,14.478-2.706,21.221-2.706
		c2.024,0,4.01,0.069,5.953,0.196C69.472,137.562,65.897,137.345,62.198,137.345"/>
	<path fill="#FF0000" d="M67.209,147.232c-7.226,0-14.933,0.828-22.87,2.934l0.565,2.135c6.68-1.471,13.166-2.068,19.304-2.068
		c26.057,0,45.786,10.786,46.825,11.38l-0.63,1.129c0.644,0.321,0.997,0.514,1.029,0.531l2.602-4.66
		C112.995,158.02,93.266,147.232,67.209,147.232"/>
	<path fill="#FFFF00" d="M64.209,150.232c-6.139,0-12.624,0.598-19.304,2.068l0.399,1.507c5.836-1.113,11.504-1.575,16.905-1.575
		c3.695,0,7.263,0.217,10.668,0.591c18.923,1.235,33.61,7.964,37.526,9.918l0.63-1.129
		C109.995,161.019,90.266,150.232,64.209,150.232"/>
	<path fill="#FFFFFF" d="M62.209,152.232c-5.401,0-11.069,0.462-16.905,1.575l0.404,1.525c7.316-1.94,14.477-2.706,21.219-2.706
		c2.024,0,4.008,0.069,5.951,0.196C69.472,152.449,65.905,152.232,62.209,152.232"/>
	<path fill="#FF0000" d="M193.682,58.458c-26.072,0-45.805,10.792-46.846,11.374l0.656,1.177c6.987-3.227,23.23-9.551,43.189-9.551
		c7.217,0,14.921,0.827,22.848,2.926l-0.439,1.656c0.688,0.163,1.376,0.335,2.067,0.518l1.372-5.174
		C208.603,59.284,200.899,58.458,193.682,58.458"/>
	<path fill="#FFFF00" d="M190.682,61.458c-19.959,0-36.202,6.324-43.189,9.551l0.498,0.893c7.938-3.377,22.825-8.444,40.691-8.444
		c3.151,0,6.394,0.157,9.709,0.51c4.757,0.242,9.686,0.889,14.699,2.073l0.439-1.656C205.603,62.285,197.899,61.458,190.682,61.458"
		/>
	<path fill="#FFFFFF" d="M188.682,63.458c-17.866,0-32.754,5.067-40.691,8.444l1.447,2.597c0.247-0.135,19.513-10.643,44.506-10.643
		c1.464,0,2.946,0.036,4.447,0.112C195.076,63.615,191.834,63.458,188.682,63.458"/>
	<path fill="#FF0000" d="M193.666,73.603c-26.066,0-45.789,10.784-46.83,11.372l0.654,1.175c6.985-3.228,23.221-9.547,43.176-9.547
		c7.221,0,14.934,0.829,22.864,2.93l-0.44,1.663c0.688,0.163,1.377,0.335,2.068,0.519l1.372-5.182
		C208.599,74.431,200.886,73.603,193.666,73.603"/>
	<path fill="#FFFF00" d="M190.666,76.603c-19.955,0-36.19,6.319-43.176,9.547l0.497,0.893c7.937-3.377,22.818-8.44,40.679-8.44
		c3.18,0,6.455,0.161,9.801,0.52c4.735,0.246,9.635,0.893,14.623,2.073l0.44-1.663C205.599,77.432,197.886,76.603,190.666,76.603"/>
	<path fill="#FFFFFF" d="M188.666,78.603c-17.86,0-32.742,5.063-40.679,8.44l1.451,2.605c0.247-0.135,19.505-10.642,44.489-10.642
		c1.493,0,3.008,0.038,4.539,0.117C195.121,78.764,191.845,78.603,188.666,78.603"/>
	<path fill="#FF0000" d="M193.687,87.833c-26.075,0-45.811,10.789-46.852,11.371l0.656,1.178c6.988-3.226,23.233-9.549,43.195-9.549
		c7.216,0,14.918,0.827,22.843,2.924l-0.439,1.656c0.688,0.163,1.376,0.335,2.067,0.518l1.372-5.174
		C208.605,88.66,200.903,87.833,193.687,87.833"/>
	<path fill="#FFFF00" d="M190.687,90.833c-19.962,0-36.207,6.323-43.195,9.549l0.497,0.894c7.939-3.376,22.83-8.443,40.698-8.443
		c3.14,0,6.371,0.157,9.673,0.506c4.768,0.24,9.705,0.887,14.73,2.074l0.439-1.656C205.605,91.66,197.903,90.833,190.687,90.833"/>
	<path fill="#FFFFFF" d="M188.687,92.833c-17.868,0-32.759,5.066-40.698,8.443l1.449,2.602c0.247-0.135,19.517-10.649,44.512-10.649
		c1.451,0,2.923,0.036,4.41,0.11C195.058,92.99,191.827,92.833,188.687,92.833"/>
	<path fill="#FF0000" d="M193.657,103.438c-26.061,0-45.78,10.786-46.821,11.374l0.655,1.174c6.983-3.228,23.217-9.548,43.166-9.548
		c7.225,0,14.938,0.829,22.873,2.934l-0.439,1.655c0.688,0.163,1.376,0.335,2.067,0.519l1.372-5.174
		C208.594,104.267,200.882,103.438,193.657,103.438"/>
	<path fill="#FFFF00" d="M190.657,106.438c-19.949,0-36.183,6.32-43.166,9.548l0.497,0.893c7.935-3.377,22.814-8.441,40.669-8.441
		c3.17,0,6.434,0.16,9.769,0.517c4.748,0.243,9.662,0.89,14.665,2.073l0.439-1.655C205.594,107.267,197.882,106.438,190.657,106.438
		"/>
	<path fill="#FFFFFF" d="M188.657,108.438c-17.854,0-32.734,5.063-40.669,8.441l1.45,2.6c0.247-0.129,19.511-10.639,44.5-10.639
		c1.476,0,2.974,0.037,4.487,0.114C195.091,108.598,191.827,108.438,188.657,108.438"/>
	<path fill="#FF0000" d="M193.678,117.898c-26.072,0-45.802,10.781-46.843,11.364l0.655,1.179
		c6.988-3.225,23.229-9.543,43.188-9.543c7.217,0,14.924,0.827,22.851,2.925l-0.44,1.663c0.688,0.163,1.377,0.335,2.068,0.518
		l1.372-5.181C208.603,118.725,200.896,117.898,193.678,117.898"/>
	<path fill="#FFFF00" d="M190.679,120.898c-19.959,0-36.2,6.318-43.188,9.543l0.497,0.894c7.938-3.374,22.825-8.437,40.691-8.437
		c3.18,0,6.454,0.16,9.8,0.519c4.729,0.246,9.628,0.891,14.61,2.068l0.44-1.663C205.603,121.725,197.896,120.898,190.679,120.898"/>
	<path fill="#FFFFFF" d="M188.679,122.898c-17.866,0-32.753,5.063-40.691,8.437l1.45,2.607c0.247-0.134,19.514-10.642,44.506-10.642
		c1.493,0,3.004,0.038,4.535,0.117C195.134,123.059,191.859,122.898,188.679,122.898"/>
	<path fill="#FF0000" d="M193.675,132.745c-26.069,0-45.798,10.785-46.839,11.367l0.656,1.178
		c6.987-3.226,23.227-9.545,43.183-9.545c7.219,0,14.927,0.828,22.855,2.928l-0.439,1.656c0.688,0.162,1.376,0.334,2.067,0.518
		l1.372-5.174C208.601,133.573,200.893,132.745,193.675,132.745"/>
	<path fill="#FFFF00" d="M190.675,135.745c-19.956,0-36.195,6.319-43.183,9.545l0.499,0.894c7.938-3.375,22.822-8.438,40.684-8.438
		c3.153,0,6.402,0.158,9.719,0.512c4.757,0.241,9.684,0.888,14.697,2.072l0.439-1.656
		C205.601,136.573,197.893,135.745,190.675,135.745"/>
	<path fill="#FFFFFF" d="M188.675,137.745c-17.861,0-32.746,5.063-40.684,8.438l1.447,2.597c0.247-0.13,19.514-10.637,44.506-10.637
		c1.464,0,2.948,0.036,4.449,0.113C195.077,137.903,191.828,137.745,188.675,137.745"/>
	<path fill="#FF0000" d="M193.684,147.625c-26.076,0-45.808,10.792-46.849,11.374l0.657,1.177
		c6.989-3.228,23.231-9.551,43.191-9.551c7.215,0,14.921,0.827,22.846,2.926l-0.439,1.656c0.688,0.163,1.376,0.335,2.067,0.519
		l1.372-5.175C208.605,148.452,200.899,147.625,193.684,147.625"/>
	<path fill="#FFFF00" d="M190.684,150.625c-19.96,0-36.202,6.323-43.191,9.551l0.499,0.893c7.939-3.378,22.825-8.443,40.692-8.443
		c3.123,0,6.34,0.155,9.624,0.501c4.782,0.239,9.74,0.888,14.782,2.081l0.439-1.656
		C205.605,151.452,197.899,150.625,190.684,150.625"/>
	<path fill="#FFFFFF" d="M188.684,152.625c-17.867,0-32.753,5.065-40.692,8.443l1.446,2.59c0.247-0.124,19.509-10.641,44.499-10.641
		c1.438,0,2.896,0.035,4.371,0.108C195.024,152.78,191.807,152.625,188.684,152.625"/>
</g>
</svg>
