<?xml version="1.0" encoding="utf-8"?>
<!-- Generator: Adobe Illustrator 16.0.0, SVG Export Plug-In . SVG Version: 6.00 Build 0)  -->
<!DOCTYPE svg PUBLIC "-//W3C//DTD SVG 1.1//EN" "http://www.w3.org/Graphics/SVG/1.1/DTD/svg11.dtd">
<svg version="1.1" xmlns="http://www.w3.org/2000/svg" xmlns:xlink="http://www.w3.org/1999/xlink" x="0px" y="0px"
	 width="253.214px" height="258.285px" viewBox="0 -19.5 253.214 258.285" enable-background="new 0 -19.5 253.214 258.285"
	 xml:space="preserve">
<g id="Capa_1">
</g>
<g id="Capa_1_copy_2">
</g>
<g id="Capa_1_copy">
	<g>
		<path fill="#0000FF" d="M190.544,182.242c-0.984,0.609-1.985,1.2-3,1.772v16.703l3,2V182.242 M76.937,180.194
			c17.932,17.541,36.384,28.639,65.399,28.639c6.171,0,12.191-0.558,18.045-1.515l42.231,26.002v-4.847l-39.231-24.155
			c-5.854,0.957-11.875,1.515-18.045,1.515c-27.125,0-45.02-9.701-61.887-25.296C81.267,180.466,79.105,180.316,76.937,180.194
			 M217.573,177.902c-2.803,2.676-5.794,5.194-8.96,7.543v0.681C211.8,183.561,214.795,180.812,217.573,177.902 M139.754,69.513
			c-2.989,2.034-4.953,5.464-4.953,9.349c0,6.246,5.063,11.302,11.302,11.302c3.886,0,7.317-1.962,9.351-4.952
			c-1.811,1.232-3.997,1.952-6.351,1.952c-6.239,0-11.302-5.056-11.302-11.302C137.802,73.509,138.522,71.323,139.754,69.513
			 M94.547,69.513c-2.989,2.034-4.953,5.464-4.953,9.349c0,6.246,5.063,11.302,11.302,11.302c3.887,0,7.317-1.962,9.352-4.952
			c-1.811,1.232-3.998,1.952-6.352,1.952c-6.238,0-11.302-5.056-11.302-11.302C92.595,73.509,93.315,71.323,94.547,69.513
			 M49.34,69.513c-2.989,2.034-4.953,5.464-4.953,9.349c0,6.246,5.063,11.302,11.302,11.302c3.887,0,7.317-1.962,9.351-4.952
			c-1.811,1.232-3.997,1.952-6.351,1.952c-6.239,0-11.302-5.056-11.302-11.302C47.388,73.509,48.108,71.323,49.34,69.513
			 M209.763,61.065c0.144,2.163,0.384,4.302,0.384,6.495c0,4.792-0.459,9.486-1.138,14.12c10.141,11.875,16.207,26.499,16.207,42.39
			c0,16.426-6.422,31.548-17.208,43.617c0.532-0.476,1.056-0.958,1.572-1.447c11.645-12.313,18.635-28.031,18.635-45.17
			c0-15.891-6.065-30.515-16.207-42.39c0.678-4.634,1.138-9.328,1.138-14.12c0-0.182-0.002-0.363-0.005-0.544
			C212.042,63.008,210.916,62.025,209.763,61.065 M32.438,20.001C16.458,35.255,6.715,55.591,6.715,77.92
			c0,27.418,10.45,50.7,30.138,67.465v42.728l42.465-24.585c5.862,0.949,19.175,1.982,25.346,1.982
			c27.749,0,50.821-10.594,66.712-27.3c-15.734,14.966-37.66,24.3-63.712,24.3c-6.171,0-19.484-1.033-25.346-1.982l-42.465,24.585
			v-42.728C20.165,125.62,9.715,102.338,9.715,74.92C9.715,54.024,18.247,34.875,32.438,20.001 M107.664,4.283
			c-24.729,0-46.349,8.844-61.303,22.974c-0.484,0.512-0.96,1.031-1.427,1.555c14.877-13.283,35.857-21.529,59.73-21.529
			c37.469,0,75.345,32.045,75.345,71.579c0,18.097-6.195,34.623-17.307,47.226c0.533-0.47,1.056-0.946,1.572-1.431
			c12.005-12.784,18.734-29.938,18.734-48.795C183.009,36.328,145.133,4.283,107.664,4.283"/>
		<path fill="#00FF00" d="M202.613,223.626v4.847l3,1.847v-4.847L202.613,223.626 M193.544,179.242c-0.984,0.609-1.985,1.2-3,1.772
			v1.228c1.018-0.629,2.018-1.278,3-1.946V179.242 M79.937,177.194c1.168,1.142,2.337,2.257,3.512,3.343
			c0.79,0.025,1.582,0.041,2.378,0.041c1.32,0,2.635-0.021,3.945-0.06c-1.114-0.968-2.221-1.962-3.323-2.981
			C84.267,177.466,82.105,177.316,79.937,177.194 M220.572,174.902c-0.513,0.489-1.035,0.976-1.56,1.455
			c-0.474,0.52-0.954,1.035-1.44,1.544C218.598,176.923,219.599,175.922,220.572,174.902 M174.377,135.208
			c-0.513,0.487-1.032,0.969-1.557,1.444c-0.476,0.526-0.955,1.042-1.444,1.557C172.403,137.232,173.404,136.232,174.377,135.208
			 M68.041,82.212c-0.607,0.414-1.257,0.769-1.941,1.059c-0.29,0.684-0.646,1.334-1.059,1.941
			C66.219,84.41,67.238,83.391,68.041,82.212 M158.455,82.212c-0.607,0.413-1.257,0.769-1.941,1.059
			c-0.29,0.684-0.646,1.333-1.059,1.941C156.634,84.41,157.653,83.391,158.455,82.212 M113.248,82.212
			c-0.607,0.413-1.257,0.769-1.941,1.059c-0.29,0.684-0.646,1.333-1.059,1.941C111.427,84.41,112.446,83.391,113.248,82.212
			 M142.754,66.513c-1.179,0.802-2.198,1.821-3,3c0.607-0.413,1.257-0.769,1.94-1.06C141.985,67.77,142.341,67.12,142.754,66.513
			 M97.547,66.513c-1.179,0.802-2.198,1.821-3,3c0.607-0.414,1.257-0.769,1.94-1.06C96.778,67.77,97.134,67.12,97.547,66.513
			 M52.34,66.513c-1.178,0.802-2.197,1.821-3,3c0.607-0.414,1.256-0.769,1.94-1.06C51.571,67.77,51.927,67.12,52.34,66.513
			 M212.763,58.065c0.132,1.983,0.345,3.947,0.379,5.951c0.966,0.885,1.913,1.79,2.836,2.71c0.109-1.71,0.169-3.432,0.169-5.166
			c0-0.182-0.001-0.363-0.005-0.544C215.043,60.009,213.916,59.025,212.763,58.065 M35.438,17.002
			c-1.025,0.979-2.026,1.979-2.999,2.999c0.515-0.491,1.032-0.974,1.559-1.454C34.471,18.027,34.951,17.512,35.438,17.002"/>
		<path fill="#00FFFF" d="M89.772,180.519c-1.31,0.039-2.625,0.06-3.945,0.06c-0.796,0-1.589-0.016-2.378-0.041
			c16.868,15.595,34.762,25.296,61.887,25.296c6.171,0,12.191-0.558,18.045-1.515l39.231,24.155v-4.847l-36.231-22.308
			c-5.854,0.957-11.875,1.515-18.045,1.515C122.984,202.833,105.695,194.359,89.772,180.519 M193.544,180.295
			c-0.982,0.668-1.982,1.317-3,1.946v20.475l3,2V180.295 M219.013,176.357c-3.238,2.952-6.713,5.701-10.4,8.227v0.861
			c3.166-2.349,6.157-4.868,8.96-7.543C218.059,177.392,218.539,176.877,219.013,176.357 M141.695,68.453
			c-0.684,0.291-1.333,0.646-1.94,1.06c-1.232,1.81-1.953,3.996-1.953,6.349c0,6.246,5.063,11.302,11.302,11.302
			c2.354,0,4.541-0.72,6.351-1.952c0.413-0.607,0.769-1.257,1.059-1.941c-1.355,0.575-2.846,0.893-4.41,0.893
			c-6.239,0-11.302-5.056-11.302-11.302C140.802,71.298,141.12,69.808,141.695,68.453 M96.488,68.453
			c-0.684,0.291-1.333,0.646-1.94,1.06c-1.232,1.81-1.953,3.996-1.953,6.349c0,6.246,5.063,11.302,11.302,11.302
			c2.354,0,4.541-0.72,6.352-1.952c0.413-0.607,0.769-1.257,1.059-1.941c-1.355,0.575-2.846,0.893-4.41,0.893
			c-6.238,0-11.302-5.056-11.302-11.302C95.595,71.298,95.913,69.808,96.488,68.453 M51.281,68.453
			c-0.684,0.291-1.333,0.646-1.94,1.06c-1.232,1.81-1.953,3.996-1.953,6.349c0,6.246,5.063,11.302,11.302,11.302
			c2.354,0,4.541-0.72,6.351-1.952c0.413-0.607,0.769-1.257,1.059-1.941c-1.355,0.575-2.845,0.893-4.41,0.893
			c-6.239,0-11.302-5.056-11.302-11.302C50.388,71.298,50.706,69.808,51.281,68.453 M213.142,64.016
			c0.003,0.181,0.005,0.362,0.005,0.544c0,4.792-0.459,9.486-1.138,14.12c10.141,11.875,16.207,26.499,16.207,42.39
			c0,17.139-6.991,32.856-18.635,45.17c13.434-12.709,21.635-29.606,21.635-48.17c0-15.891-6.065-30.515-16.207-42.39
			c0.433-2.957,0.776-5.938,0.969-8.954C215.055,65.806,214.108,64.901,213.142,64.016 M33.998,18.547
			c-0.527,0.48-1.044,0.963-1.559,1.454C18.247,34.875,9.715,54.024,9.715,74.92c0,27.418,10.45,50.7,30.138,67.465v42.728
			l42.465-24.585c5.862,0.949,19.175,1.982,25.346,1.982c26.052,0,47.978-9.334,63.712-24.3c0.49-0.515,0.968-1.031,1.444-1.557
			c-15.61,14.12-36.953,22.857-62.156,22.857c-6.171,0-19.484-1.033-25.346-1.982l-42.465,24.585v-42.728
			C23.165,122.62,12.715,99.338,12.715,71.92C12.715,51.741,20.671,33.19,33.998,18.547 M110.664,1.283
			c-26.436,0-49.319,10.107-64.303,25.974c14.954-14.13,36.573-22.974,61.303-22.974c37.469,0,75.345,32.045,75.345,71.579
			c0,18.857-6.729,36.011-18.734,48.795c13.879-13.035,21.734-31.42,21.734-51.795C186.009,33.328,148.133,1.283,110.664,1.283"/>
		<path fill="#FF0000" d="M208.613,186.126c-0.982,0.791-1.981,1.563-3,2.319v37.028l3,1.847V186.126 M104.29,174.036
			c-4.106,0.331-8.258,0.542-12.462,0.542c-2.999,0-5.938-0.218-8.891-0.384c1.168,1.143,2.337,2.257,3.512,3.343
			c0.79,0.025,1.582,0.041,2.378,0.041c4.204,0,8.356-0.211,12.462-0.542c14.165,9.749,24.532,15.611,44.046,15.611
			c6.729,0,13.23-0.769,19.492-2.072l22.716,15.142v-5l-19.716-13.142c-6.261,1.304-12.763,2.072-19.492,2.072
			C128.822,189.647,118.455,183.785,104.29,174.036 M208.008,167.687c-4.347,3.892-9.2,7.361-14.464,10.328v1.228
			c4.743-2.935,9.112-6.289,13.036-10.002C207.064,168.728,207.54,168.21,208.008,167.687 M61.689,61.56
			c-3.886,0-7.315,1.964-9.35,4.953c1.81-1.232,3.997-1.953,6.35-1.953c6.239,0,11.302,5.063,11.302,11.302
			c0,2.355-0.72,4.541-1.951,6.35c2.987-2.033,4.951-5.461,4.951-9.35C72.991,66.623,67.928,61.56,61.689,61.56 M106.896,61.56
			c-3.885,0-7.315,1.964-9.349,4.953c1.81-1.232,3.996-1.953,6.349-1.953c6.239,0,11.302,5.063,11.302,11.302
			c0,2.355-0.72,4.541-1.951,6.35c2.988-2.033,4.951-5.461,4.951-9.35C118.199,66.623,113.135,61.56,106.896,61.56 M152.104,61.56
			c-3.886,0-7.315,1.964-9.35,4.953c1.81-1.232,3.997-1.953,6.35-1.953c6.238,0,11.302,5.063,11.302,11.302
			c0,2.355-0.72,4.541-1.951,6.35c2.987-2.033,4.951-5.461,4.951-9.35C163.406,66.623,158.342,61.56,152.104,61.56 M215.763,55.065
			c0.132,1.983,0.345,3.947,0.379,5.951c16.79,15.381,27.143,36.165,27.143,59.104c0,20.859-8.546,39.939-22.713,54.783
			c15.952-15.229,25.713-35.489,25.713-57.783C246.285,92.678,234.532,70.684,215.763,55.065 M44.934,28.812
			c-0.534,0.476-1.055,0.956-1.573,1.444C31.667,42.64,24.784,58.532,24.784,75.862c0,25.113,11.761,45.034,30.138,59.945v26.702
			l25.715-17.141c6.261,1.303,20.298,2.072,27.026,2.072c22.182,0,40.561-7.527,53.611-19.784c0.484-0.515,0.961-1.039,1.427-1.568
			c-12.937,11.409-30.734,18.352-52.039,18.352c-6.729,0-20.765-0.769-27.026-2.072l-25.715,17.141v-26.702
			c-18.377-14.911-30.138-34.833-30.138-59.945C27.784,56.249,34.108,40.958,44.934,28.812 M110.664-13.786
			c-30.258,0-57.272,11.971-75.227,30.788c17.894-17.081,43.609-27.788,72.227-27.788c45.034,0,90.414,38.374,90.414,85.706
			c0,23.05-8.615,44.426-23.701,60.288c16.939-16.112,26.701-38.75,26.701-63.288C201.078,24.588,155.698-13.786,110.664-13.786"/>
		<path fill="#FF00FF" d="M187.544,200.717v5l3,2v-5L187.544,200.717 M208.613,185.445c-0.983,0.729-1.984,1.443-3,2.139v0.861
			c1.019-0.756,2.018-1.528,3-2.319V185.445 M209.581,166.239c-0.517,0.489-1.04,0.971-1.572,1.447
			c-0.468,0.524-0.944,1.042-1.428,1.553C207.612,168.264,208.612,167.264,209.581,166.239 M164.275,124.657
			c-0.516,0.485-1.04,0.961-1.572,1.431c-0.466,0.529-0.943,1.053-1.427,1.568C162.31,126.686,163.309,125.686,164.275,124.657
			 M46.361,27.257c-1.032,0.975-2.033,1.976-3,3c0.518-0.489,1.039-0.968,1.573-1.444C45.401,28.288,45.877,27.769,46.361,27.257"/>
		<path fill="#FFFF00" d="M205.613,188.445c-0.983,0.729-1.984,1.443-3,2.139v33.042l3,1.847V188.445 M101.29,177.036
			c-4.106,0.331-8.258,0.542-12.462,0.542c-0.796,0-1.589-0.016-2.378-0.041c1.103,1.019,2.209,2.014,3.323,2.981
			c2.862-0.085,5.701-0.255,8.518-0.482c14.165,9.749,24.532,15.611,44.046,15.611c6.729,0,13.23-0.769,19.492-2.072l25.716,17.141
			v-5l-22.716-15.142c-6.261,1.304-12.763,2.072-19.492,2.072C125.822,192.647,115.455,186.785,101.29,177.036 M206.58,169.24
			c-3.924,3.713-8.293,7.067-13.036,10.002v1.054C198.345,177.033,202.718,173.324,206.58,169.24 M58.689,64.56
			c-2.353,0-4.54,0.72-6.35,1.953c-0.413,0.607-0.769,1.257-1.059,1.94c1.355-0.575,2.845-0.893,4.409-0.893
			c6.239,0,11.302,5.063,11.302,11.302c0,1.564-0.318,3.055-0.892,4.409c0.684-0.29,1.334-0.646,1.941-1.059
			c1.231-1.809,1.951-3.995,1.951-6.35C69.991,69.623,64.928,64.56,58.689,64.56 M103.896,64.56c-2.353,0-4.539,0.721-6.349,1.953
			c-0.414,0.607-0.769,1.257-1.06,1.94c1.355-0.575,2.845-0.893,4.409-0.893c6.239,0,11.302,5.063,11.302,11.302
			c0,1.564-0.318,3.055-0.892,4.409c0.684-0.29,1.334-0.646,1.941-1.059c1.231-1.81,1.951-3.995,1.951-6.35
			C115.199,69.623,110.135,64.56,103.896,64.56 M149.104,64.56c-2.353,0-4.54,0.721-6.35,1.953c-0.414,0.607-0.769,1.257-1.06,1.94
			c1.355-0.575,2.845-0.893,4.409-0.893c6.238,0,11.302,5.063,11.302,11.302c0,1.564-0.318,3.055-0.892,4.409
			c0.684-0.29,1.334-0.646,1.941-1.059c1.231-1.81,1.951-3.995,1.951-6.35C160.406,69.623,155.342,64.56,149.104,64.56
			 M216.142,61.016c0.003,0.181,0.005,0.363,0.005,0.544c0,1.734-0.06,3.456-0.169,5.166c15.112,15.071,24.307,34.774,24.307,56.394
			c0,20.143-7.969,38.626-21.272,53.238c0.525-0.479,1.047-0.966,1.56-1.455c14.167-14.843,22.713-33.924,22.713-54.783
			C243.285,97.18,232.932,76.396,216.142,61.016 M43.361,30.256C29.853,43.021,21.784,60.099,21.784,78.862
			c0,25.113,11.761,45.034,30.138,59.945v26.702l25.715-17.141c6.261,1.303,20.298,2.072,27.026,2.072
			c23.939,0,43.448-8.766,56.611-22.784c-13.051,12.257-31.429,19.784-53.611,19.784c-6.729,0-20.765-0.769-27.026-2.072
			l-25.715,17.141v-26.702c-18.377-14.911-30.138-34.833-30.138-59.945C24.784,58.532,31.667,42.64,43.361,30.256 M107.664-10.786
			c-28.618,0-54.333,10.708-72.227,27.788c-0.486,0.51-0.967,1.025-1.44,1.545C51.81,2.317,76.87-7.786,104.664-7.786
			c45.034,0,90.414,38.374,90.414,85.706c0,22.305-8.068,43.042-22.258,58.732c0.525-0.475,1.044-0.957,1.557-1.444
			c15.085-15.862,23.701-37.238,23.701-60.288C198.078,27.588,152.698-10.786,107.664-10.786"/>
		<path fill="#FFFFFF" d="M55.689,67.56c-1.564,0-3.054,0.318-4.409,0.893c-0.575,1.355-0.893,2.845-0.893,4.409
			c0,6.246,5.063,11.302,11.302,11.302c1.564,0,3.055-0.318,4.41-0.893c0.574-1.354,0.892-2.845,0.892-4.409
			C66.991,72.623,61.928,67.56,55.689,67.56 M100.896,67.56c-1.563,0-3.054,0.318-4.409,0.893c-0.575,1.355-0.893,2.845-0.893,4.409
			c0,6.246,5.063,11.302,11.302,11.302c1.564,0,3.055-0.318,4.41-0.893c0.574-1.354,0.892-2.845,0.892-4.409
			C112.199,72.623,107.135,67.56,100.896,67.56 M146.104,67.56c-1.564,0-3.054,0.318-4.409,0.893
			c-0.575,1.355-0.893,2.845-0.893,4.409c0,6.246,5.063,11.302,11.302,11.302c1.564,0,3.055-0.318,4.41-0.893
			c0.574-1.354,0.892-2.845,0.892-4.409C157.406,72.623,152.342,67.56,146.104,67.56 M215.978,66.726
			c-0.192,3.016-0.536,5.997-0.969,8.954c10.141,11.875,16.207,26.499,16.207,42.39c0,18.564-8.202,35.461-21.635,48.17
			c-0.968,1.024-1.969,2.025-3,3c-3.862,4.084-8.235,7.793-13.036,11.056v24.421l-3-2v5l-3-2v5l-25.716-17.141
			c-6.261,1.304-12.763,2.072-19.492,2.072c-19.514,0-29.882-5.862-44.046-15.611c-2.817,0.227-5.656,0.397-8.518,0.482
			c15.923,13.841,33.211,22.314,58.564,22.314c6.171,0,12.191-0.558,18.045-1.515l36.231,22.308v-33.042
			c1.016-0.696,2.017-1.41,3-2.139v-0.861c1.016-0.696,2.017-1.41,3-2.139v-0.861c3.687-2.526,7.162-5.275,10.4-8.227
			c13.304-14.612,21.272-33.095,21.272-53.238C240.285,101.5,231.09,81.797,215.978,66.726 M46.361,27.257
			C61.345,11.39,84.229,1.283,110.664,1.283c37.469,0,75.345,32.045,75.345,71.579c0,20.375-7.855,38.761-21.734,51.795
			c-0.966,1.029-1.965,2.028-3,2.999c-13.164,14.018-32.672,22.784-56.611,22.784c-6.729,0-20.765-0.769-27.026-2.072
			l-25.715,17.141v-26.702c-18.377-14.911-30.138-34.833-30.138-59.945c0-18.763,8.069-35.841,21.577-48.605
			C44.329,29.232,45.329,28.231,46.361,27.257 M104.664-7.786c-27.794,0-52.854,10.103-70.667,26.333
			C20.671,33.19,12.715,51.741,12.715,71.92c0,27.418,10.45,50.7,30.138,67.465v42.728l42.465-24.585
			c5.862,0.949,19.175,1.982,25.346,1.982c25.203,0,46.546-8.737,62.156-22.857c14.19-15.69,22.258-36.427,22.258-58.732
			C195.078,30.588,149.698-7.786,104.664-7.786"/>
	</g>
</g>
</svg>
