<?xml version="1.0" encoding="utf-8"?>
<!-- Generator: Adobe Illustrator 16.0.0, SVG Export Plug-In . SVG Version: 6.00 Build 0)  -->
<!DOCTYPE svg PUBLIC "-//W3C//DTD SVG 1.1//EN" "http://www.w3.org/Graphics/SVG/1.1/DTD/svg11.dtd">
<svg version="1.1" xmlns="http://www.w3.org/2000/svg" xmlns:xlink="http://www.w3.org/1999/xlink" x="0px" y="0px" width="250px"
	 height="250.78px" viewBox="-10.5 -7.5 250 250.78" enable-background="new -10.5 -7.5 250 250.78" xml:space="preserve">
<g id="Layer_1">
</g>
<g id="Layer_1_copy">
	<g id="text_1_">
	</g>
	<g id="_x31__1_">
	</g>
	<g id="_x32__1_">
	</g>
	<g id="_x33__2_">
	</g>
	<g id="_x34__1_">
	</g>
	<g id="_x35__1_">
	</g>
	<g id="_x36__1_">
	</g>
	<g id="_x37__1_">
	</g>
	<g id="_x38__1_">
	</g>
	<g id="_x39__1_">
	</g>
	<g id="_x31_0_1_">
	</g>
	<g id="_x31_1_1_">
	</g>
	<g id="_x31_2_1_">
	</g>
	<g id="_x31_3_1_">
	</g>
	<g id="_x31_4_1_">
	</g>
	<g id="_x31_5_1_">
	</g>
	<g id="_x31_6_1_">
	</g>
	<g id="_x31_7_1_">
	</g>
	<g id="_x31_8_1_">
	</g>
	<g id="_x31_9_1_">
	</g>
	<g id="_x32_0_1_">
	</g>
	<g id="_x32_1_1_">
	</g>
	<g id="_x32_2_1_">
	</g>
	<g id="_x32_3_1_">
	</g>
	<g id="_x32_4_1_">
	</g>
	<g id="_x32_5_1_">
	</g>
	<g id="_x32_6_1_">
	</g>
	<g id="_x32_7_1_">
	</g>
	<g id="_x32_8_1_">
	</g>
	<g id="_x32_9_1_">
	</g>
	<g id="_x33_0_1_">
	</g>
	<g id="_x33_1_1_">
	</g>
	<g id="_x33_2_1_">
	</g>
	<g id="_x33_3_1_">
	</g>
	<g id="_x33_4_1_">
	</g>
	<g id="_x33_5_1_">
	</g>
	<g id="_x33_6_1_">
	</g>
	<g id="_x33_7_1_">
	</g>
	<g id="_x33_8_1_">
	</g>
	<g id="_x33_9_1_">
	</g>
	<g id="_x34_0_1_">
	</g>
	<g id="_x34_1_1_">
	</g>
	<g id="_x34_2_1_">
	</g>
	<g id="_x34_3_1_">
	</g>
	<g id="_x34_4_1_">
	</g>
	<g id="_x34_5_1_">
	</g>
	<g id="_x34_6_1_">
	</g>
	<g id="_x34_7_1_">
	</g>
	<g id="_x34_8_1_">
	</g>
	<g id="_x34_9_1_">
	</g>
	<g id="_x35_0_1_">
	</g>
	<g id="_x35_2_1_">
	</g>
	<g id="_x35_3_1_">
	</g>
	<g id="_x35_4_1_">
	</g>
	<g id="_x35_5_1_">
	</g>
	<g id="_x35_6_1_">
	</g>
	<g id="_x35_7_1_">
	</g>
	<g id="_x35_8_1_">
	</g>
	<g id="_x35_9_1_">
	</g>
	<g id="_x36_0_1_">
	</g>
	<g id="_x36_1_1_">
	</g>
	<g id="_x36_2_1_">
	</g>
	<g id="_x36_3_1_">
	</g>
	<g id="_x36_4_1_">
	</g>
	<g id="_x36_5_1_">
	</g>
	<g id="_x36_6_1_">
	</g>
	<g id="_x36_7_1_">
	</g>
	<g id="_x36_8_1_">
	</g>
	<g id="_x36_9_1_">
	</g>
	<g id="_x37_0_1_">
	</g>
	<g id="_x37_1_1_">
	</g>
	<g id="_x37_2_1_">
	</g>
	<g id="_x37_3_1_">
	</g>
	<g id="_x37_4_1_">
	</g>
	<g id="_x37_5_1_">
	</g>
	<g id="_x37_6_1_">
	</g>
	<g id="_x37_7_1_">
	</g>
	<g id="_x37_8_1_">
	</g>
	<g id="_x37_9_1_">
	</g>
	<g id="_x38_0_1_">
	</g>
	<g id="_x38_1_1_">
	</g>
	<g id="_x38_2_1_">
	</g>
	<g id="_x38_3_1_">
	</g>
	<g id="_x38_4_1_">
	</g>
	<g id="_x38_5_1_">
	</g>
	<g id="_x38_6_1_">
	</g>
	<g id="_x38_7_1_">
	</g>
	<g id="_x38_8_1_">
	</g>
	<g id="_x38_9_1_">
	</g>
	<g id="_x39_0_1_">
	</g>
	<g id="_x39_1_1_">
	</g>
	<g id="_x39_2_1_">
	</g>
	<g id="_x39_3_1_">
	</g>
	<g id="_x39_4_1_">
	</g>
	<g id="_x39_5_1_">
	</g>
	<g id="_x39_6_1_">
	</g>
	<g id="_x39_7_1_">
	</g>
	<g id="_x39_8_1_">
	</g>
	<g id="_x39_9_1_">
	</g>
	<g id="_x31_00_1_">
	</g>
	<g id="_x31_01_1_">
	</g>
	<g id="_x31_02_1_">
	</g>
	<g id="_x31_03_1_">
	</g>
	<g id="_x31_04_1_">
	</g>
	<g id="_x31_05_1_">
	</g>
	<g id="_x31_06_1_">
	</g>
	<g id="_x31_07_1_">
	</g>
	<g id="_x31_08_1_">
	</g>
	<g id="_x31_09_1_">
	</g>
	<g id="_x31_10_1_">
	</g>
	<g id="_x31_11_1_">
	</g>
	<g id="_x31_12_1_">
	</g>
	<g id="_x31_13_1_">
	</g>
	<g id="_x31_14_1_">
	</g>
	<g id="_x31_15_1_">
	</g>
	<g id="_x31_16_1_">
	</g>
	<g id="_x31_17_1_">
	</g>
	<g id="_x31_18_1_">
	</g>
	<g id="_x31_19_1_">
	</g>
	<g id="_x31_20_1_">
	</g>
	<g id="_x31_21_1_">
	</g>
	<g id="_x31_22_1_">
	</g>
	<g id="_x31_23_1_">
	</g>
	<g id="_x31_24_1_">
	</g>
	<g id="_x31_25_1_">
	</g>
	<g id="_x31_26_1_">
	</g>
	<g id="_x31_27_1_">
	</g>
	<g id="_x31_28_1_">
	</g>
	<g id="_x31_29_1_">
	</g>
	<g id="_x31_30_1_">
	</g>
	<g id="_x31_31_1_">
	</g>
	<g id="_x31_32_1_">
	</g>
	<g id="_x31_33_1_">
	</g>
	<g id="_x31_34_1_">
	</g>
	<g id="_x31_35_1_">
	</g>
	<g id="_x31_36_1_">
	</g>
	<g id="_x31_37_1_">
	</g>
	<g id="_x31_38_1_">
	</g>
	<g id="_x31_39_1_">
	</g>
	<g id="_x31_40_1_">
	</g>
	<g id="_x31_41_1_">
	</g>
	<g id="_x31_42_1_">
	</g>
	<g id="_x31_43_1_">
	</g>
	<g id="_x31_44_1_">
	</g>
	<g id="_x31_45_1_">
	</g>
	<g id="_x31_46_1_">
	</g>
	<g id="_x31_47_1_">
	</g>
	<g id="_x31_48_1_">
	</g>
	<g id="_x31_49_1_">
	</g>
	<g id="_x31_50_1_">
	</g>
	<g id="_x31_51_1_">
	</g>
	<g id="_x31_52_1_">
	</g>
	<g id="_x31_53_1_">
	</g>
	<g id="_x31_54_1_">
	</g>
	<g id="_x31_55_1_">
	</g>
	<g id="_x31_56_1_">
	</g>
	<g id="_x31_57_1_">
	</g>
	<g id="_x31_58_1_">
	</g>
	<g id="_x31_59_1_">
	</g>
	<g id="_x31_60_1_">
	</g>
	<g id="_x31_61_1_">
	</g>
	<g id="_x31_62_1_">
	</g>
	<g id="_x31_63_1_">
	</g>
	<g id="_x31_64_1_">
	</g>
	<g id="_x31_65_1_">
	</g>
	<g id="_x31_66_1_">
	</g>
	<g id="_x31_67_1_">
	</g>
	<g id="_x31_68_1_">
	</g>
	<g id="_x31_69_1_">
	</g>
	<g id="_x31_70_1_">
	</g>
	<g id="_x31_71_1_">
	</g>
	<g id="_x31_72_1_">
	</g>
	<g id="_x31_73_1_">
	</g>
	<g id="_x31_74_1_">
	</g>
	<g id="_x31_75_1_">
	</g>
	<g id="_x31_76_1_">
	</g>
	<g id="_x31_77_1_">
	</g>
	<g id="_x31_78_1_">
	</g>
	<g id="_x31_79_1_">
	</g>
	<g id="_x31_80_1_">
	</g>
	<g id="_x31_81_1_">
	</g>
	<g id="_x31_82_1_">
	</g>
	<g id="_x31_83_1_">
	</g>
	<g id="_x31_84_1_">
	</g>
	<g id="_x31_85_1_">
	</g>
	<g id="_x31_86_1_">
	</g>
	<g id="_x31_87_1_">
	</g>
	<g id="_x31_88_1_">
	</g>
	<g id="_x31_89_1_">
	</g>
	<g id="_x31_90_1_">
	</g>
</g>
<g id="Layer_1_copy_2">
	<g id="text_2_">
	</g>
	<g id="_x31__2_">
	</g>
	<g id="_x32__2_">
	</g>
	<g id="_x33__3_">
	</g>
	<g id="_x34__2_">
	</g>
	<g id="_x35__2_">
	</g>
	<g id="_x36__2_">
	</g>
	<g id="_x37__2_">
	</g>
	<g id="_x38__2_">
	</g>
	<g id="_x39__2_">
	</g>
	<g id="_x31_0_2_">
	</g>
	<g id="_x31_1_2_">
	</g>
	<g id="_x31_2_2_">
	</g>
	<g id="_x31_3_2_">
	</g>
	<g id="_x31_4_2_">
	</g>
	<g id="_x31_5_2_">
	</g>
	<g id="_x31_6_2_">
	</g>
	<g id="_x31_7_2_">
	</g>
	<g id="_x31_8_2_">
	</g>
	<g id="_x31_9_2_">
	</g>
	<g id="_x32_0_2_">
	</g>
	<g id="_x32_1_2_">
	</g>
	<g id="_x32_2_2_">
	</g>
	<g id="_x32_3_2_">
	</g>
	<g id="_x32_4_2_">
	</g>
	<g id="_x32_5_2_">
	</g>
	<g id="_x32_6_2_">
	</g>
	<g id="_x32_7_2_">
	</g>
	<g id="_x32_8_2_">
	</g>
	<g id="_x32_9_2_">
	</g>
	<g id="_x33_0_2_">
	</g>
	<g id="_x33_1_2_">
	</g>
	<g id="_x33_2_2_">
	</g>
	<g id="_x33_3_2_">
	</g>
	<g id="_x33_4_2_">
	</g>
	<g id="_x33_5_2_">
	</g>
	<g id="_x33_6_2_">
	</g>
	<g id="_x33_7_2_">
	</g>
	<g id="_x33_8_2_">
	</g>
	<g id="_x33_9_2_">
	</g>
	<g id="_x34_0_2_">
	</g>
	<g id="_x34_1_2_">
	</g>
	<g id="_x34_2_2_">
	</g>
	<g id="_x34_3_2_">
	</g>
	<g id="_x34_4_2_">
	</g>
	<g id="_x34_5_2_">
	</g>
	<g id="_x34_6_2_">
	</g>
	<g id="_x34_7_2_">
	</g>
	<g id="_x34_8_2_">
	</g>
	<g id="_x34_9_2_">
	</g>
	<g id="_x35_0_2_">
	</g>
	<g id="_x35_2_2_">
	</g>
	<g id="_x35_3_2_">
	</g>
	<g id="_x35_4_2_">
	</g>
	<g id="_x35_5_2_">
	</g>
	<g id="_x35_6_2_">
	</g>
	<g id="_x35_7_2_">
	</g>
	<g id="_x35_8_2_">
	</g>
	<g id="_x35_9_2_">
	</g>
	<g id="_x36_0_2_">
	</g>
	<g id="_x36_1_2_">
	</g>
	<g id="_x36_2_2_">
	</g>
	<g id="_x36_3_2_">
	</g>
	<g id="_x36_4_2_">
	</g>
	<g id="_x36_5_2_">
	</g>
	<g id="_x36_6_2_">
	</g>
	<g id="_x36_7_2_">
	</g>
	<g id="_x36_8_2_">
	</g>
	<g id="_x36_9_2_">
	</g>
	<g id="_x37_0_2_">
	</g>
	<g id="_x37_1_2_">
	</g>
	<g id="_x37_2_2_">
	</g>
	<g id="_x37_3_2_">
	</g>
	<g id="_x37_4_2_">
	</g>
	<g id="_x37_5_2_">
	</g>
	<g id="_x37_6_2_">
	</g>
	<g id="_x37_7_2_">
	</g>
	<g id="_x37_8_2_">
	</g>
	<g id="_x37_9_2_">
	</g>
	<g id="_x38_0_2_">
	</g>
	<g id="_x38_1_2_">
	</g>
	<g id="_x38_2_2_">
	</g>
	<g id="_x38_3_2_">
	</g>
	<g id="_x38_4_2_">
	</g>
	<g id="_x38_5_2_">
	</g>
	<g id="_x38_6_2_">
	</g>
	<g id="_x38_7_2_">
	</g>
	<g id="_x38_8_2_">
	</g>
	<g id="_x38_9_2_">
	</g>
	<g id="_x39_0_2_">
	</g>
	<g id="_x39_1_2_">
	</g>
	<g id="_x39_2_2_">
	</g>
	<g id="_x39_3_2_">
	</g>
	<g id="_x39_4_2_">
	</g>
	<g id="_x39_5_2_">
	</g>
	<g id="_x39_6_2_">
	</g>
	<g id="_x39_7_2_">
	</g>
	<g id="_x39_8_2_">
	</g>
	<g id="_x39_9_2_">
	</g>
	<g id="_x31_00_2_">
	</g>
	<g id="_x31_01_2_">
	</g>
	<g id="_x31_02_2_">
	</g>
	<g id="_x31_03_2_">
	</g>
	<g id="_x31_04_2_">
	</g>
	<g id="_x31_05_2_">
	</g>
	<g id="_x31_06_2_">
	</g>
	<g id="_x31_07_2_">
	</g>
	<g id="_x31_08_2_">
	</g>
	<g id="_x31_09_2_">
	</g>
	<g id="_x31_10_2_">
	</g>
	<g id="_x31_11_2_">
	</g>
	<g id="_x31_12_2_">
	</g>
	<g id="_x31_13_2_">
	</g>
	<g id="_x31_14_2_">
	</g>
	<g id="_x31_15_2_">
	</g>
	<g id="_x31_16_2_">
	</g>
	<g id="_x31_17_2_">
	</g>
	<g id="_x31_18_2_">
	</g>
	<g id="_x31_19_2_">
	</g>
	<g id="_x31_20_2_">
	</g>
	<g id="_x31_21_2_">
	</g>
	<g id="_x31_22_2_">
	</g>
	<g id="_x31_23_2_">
	</g>
	<g id="_x31_24_2_">
	</g>
	<g id="_x31_25_2_">
	</g>
	<g id="_x31_26_2_">
	</g>
	<g id="_x31_27_2_">
	</g>
	<g id="_x31_28_2_">
	</g>
	<g id="_x31_29_2_">
	</g>
	<g id="_x31_30_2_">
	</g>
	<g id="_x31_31_2_">
	</g>
	<g id="_x31_32_2_">
	</g>
	<g id="_x31_33_2_">
	</g>
	<g id="_x31_34_2_">
	</g>
	<g id="_x31_35_2_">
	</g>
	<g id="_x31_36_2_">
	</g>
	<g id="_x31_37_2_">
	</g>
	<g id="_x31_38_2_">
	</g>
	<g id="_x31_39_2_">
	</g>
	<g id="_x31_40_2_">
	</g>
	<g id="_x31_41_2_">
	</g>
	<g id="_x31_42_2_">
	</g>
	<g id="_x31_43_2_">
	</g>
	<g id="_x31_44_2_">
	</g>
	<g id="_x31_45_2_">
	</g>
	<g id="_x31_46_2_">
	</g>
	<g id="_x31_47_2_">
	</g>
	<g id="_x31_48_2_">
	</g>
	<g id="_x31_49_2_">
	</g>
	<g id="_x31_50_2_">
	</g>
	<g id="_x31_51_2_">
	</g>
	<g id="_x31_52_2_">
	</g>
	<g id="_x31_53_2_">
	</g>
	<g id="_x31_54_2_">
	</g>
	<g id="_x31_55_2_">
	</g>
	<g id="_x31_56_2_">
	</g>
	<g id="_x31_57_2_">
	</g>
	<g id="_x31_58_2_">
	</g>
	<g id="_x31_59_2_">
	</g>
	<g id="_x31_60_2_">
	</g>
	<g id="_x31_61_2_">
	</g>
	<g id="_x31_62_2_">
	</g>
	<g id="_x31_63_2_">
	</g>
	<g id="_x31_64_2_">
	</g>
	<g id="_x31_65_2_">
	</g>
	<g id="_x31_66_2_">
	</g>
	<g id="_x31_67_2_">
	</g>
	<g id="_x31_68_2_">
	</g>
	<g id="_x31_69_2_">
	</g>
	<g id="_x31_70_2_">
	</g>
	<g id="_x31_71_2_">
	</g>
	<g id="_x31_72_2_">
	</g>
	<g id="_x31_73_2_">
	</g>
	<g id="_x31_74_2_">
	</g>
	<g id="_x31_75_2_">
	</g>
	<g id="_x31_76_2_">
	</g>
	<g id="_x31_77_2_">
	</g>
	<g id="_x31_78_2_">
	</g>
	<g id="_x31_79_2_">
	</g>
	<g id="_x31_80_2_">
	</g>
	<g id="_x31_81_2_">
	</g>
	<g id="_x31_82_2_">
	</g>
	<g id="_x31_83_2_">
	</g>
	<g id="_x31_84_2_">
	</g>
	<g id="_x31_85_2_">
	</g>
	<g id="_x31_86_2_">
	</g>
	<g id="_x31_87_2_">
	</g>
	<g id="_x31_88_2_">
	</g>
	<g id="_x31_89_2_">
	</g>
	<g id="_x31_90_2_">
	</g>
	<g>
		<path fill="#0000FF" d="M171.9,68.776c-32.98,0-65.957,0-98.938,0c-3.19,0-5.152,1.905-5.885,4.249
			c0.571-0.161,1.199-0.249,1.885-0.249c32.98,0,65.957,0,98.938,0c5.095,0,7.057,4.857,5.887,8.599
			C180.129,79.586,179.501,68.776,171.9,68.776"/>
		<path fill="#0000FF" d="M171.9,97.869c-32.98,0-65.957,0-98.938,0c-3.19,0-5.152,1.905-5.885,4.249
			c0.571-0.161,1.199-0.249,1.885-0.249c32.98,0,65.957,0,98.938,0c5.095,0,7.058,4.857,5.887,8.599
			C180.129,108.679,179.501,97.869,171.9,97.869"/>
		<path fill="#0000FF" d="M171.9,126.956c-32.98,0-65.957,0-98.938,0c-3.19,0-5.152,1.906-5.886,4.249
			c0.572-0.161,1.2-0.249,1.886-0.249c32.98,0,65.957,0,98.938,0c5.095,0,7.058,4.856,5.887,8.598
			C180.129,137.765,179.501,126.956,171.9,126.956"/>
		<path fill="#0000FF" d="M169.989,156.053c-32.981,0-65.957,0-98.938,0c-3.19,0-5.151,1.905-5.885,4.249
			c0.571-0.161,1.2-0.249,1.885-0.249c32.981,0,65.957,0,98.938,0c5.097,0,7.06,4.856,5.89,8.598
			C178.223,166.86,177.593,156.053,169.989,156.053"/>
		<path fill="#0000FF" d="M47.733,21.557h-4v196.726h143.483v-4H47.733V21.557 M177.491-1.86H42.593c-3.848,0-7.22,2.144-8.98,5.296
			c1.478-0.825,3.177-1.296,4.98-1.296h134.898l33.143,32.119V223.42c0,1.808-0.468,3.511-1.291,4.991
			c3.163-1.759,5.291-5.136,5.291-8.991V30.259L177.491-1.86"/>
		<path fill="#00FF00" d="M173.787,81.375c-0.572,0.161-1.201,0.249-1.887,0.249c-0.652,0-1.303,0-1.955,0
			c0.271,1.233,0.218,2.55-0.158,3.751C171.878,84.785,173.212,83.215,173.787,81.375 M67.078,73.025c-2.092,0.59-3.425,2.16-4,4
			c0.571-0.161,1.199-0.249,1.885-0.249c0.652,0,1.304,0,1.956,0C66.649,75.543,66.702,74.227,67.078,73.025"/>
		<path fill="#00FFFF" d="M167.9,72.776c-32.98,0-65.957,0-98.938,0c-0.686,0-1.313,0.088-1.885,0.249
			c-0.376,1.201-0.429,2.518-0.159,3.751c32.328,0,64.653,0,96.981,0c3.459,0,5.475,2.239,6.045,4.848c0.652,0,1.303,0,1.955,0
			c0.686,0,1.314-0.088,1.887-0.249C174.957,77.634,172.995,72.776,167.9,72.776"/>
		<path fill="#00FF00" d="M173.787,110.468c-0.572,0.161-1.201,0.249-1.887,0.249c-0.652,0-1.303,0-1.955,0
			c0.271,1.233,0.218,2.55-0.158,3.751C171.878,113.878,173.212,112.308,173.787,110.468 M67.078,102.118
			c-2.092,0.59-3.425,2.16-4,4c0.571-0.161,1.199-0.249,1.885-0.249c0.652,0,1.304,0,1.956,0
			C66.649,104.636,66.702,103.319,67.078,102.118"/>
		<path fill="#00FFFF" d="M167.9,101.869c-32.98,0-65.957,0-98.938,0c-0.686,0-1.313,0.088-1.885,0.249
			c-0.376,1.201-0.429,2.518-0.159,3.751c32.328,0,64.653,0,96.981,0c3.459,0,5.475,2.239,6.045,4.848c0.652,0,1.303,0,1.955,0
			c0.686,0,1.314-0.088,1.887-0.249C174.958,106.727,172.995,101.869,167.9,101.869"/>
		<path fill="#00FF00" d="M173.787,139.554c-0.572,0.161-1.201,0.249-1.887,0.249c-0.652,0-1.303,0-1.955,0
			c0.271,1.233,0.218,2.55-0.158,3.751C171.878,142.964,173.212,141.394,173.787,139.554 M67.077,131.205
			c-2.091,0.59-3.424,2.16-3.999,4c0.571-0.161,1.199-0.249,1.885-0.249c0.652,0,1.304,0,1.956,0
			C66.649,133.723,66.702,132.406,67.077,131.205"/>
		<path fill="#00FFFF" d="M167.9,130.956c-32.98,0-65.957,0-98.938,0c-0.686,0-1.313,0.088-1.886,0.249
			c-0.375,1.201-0.428,2.518-0.158,3.751c32.328,0,64.653,0,96.981,0c3.459,0,5.474,2.238,6.045,4.847c0.652,0,1.303,0,1.955,0
			c0.686,0,1.314-0.088,1.887-0.249C174.958,135.813,172.995,130.956,167.9,130.956"/>
		<path fill="#00FF00" d="M171.879,168.65c-0.573,0.162-1.203,0.25-1.89,0.25c-0.65,0-1.302,0-1.952,0
			c0.271,1.233,0.218,2.549-0.158,3.75C169.971,172.061,171.304,170.49,171.879,168.65 M65.166,160.302
			c-2.091,0.589-3.424,2.159-4,4c0.571-0.161,1.2-0.249,1.885-0.249c0.652,0,1.305,0,1.957,0
			C64.738,162.819,64.791,161.503,65.166,160.302"/>
		<path fill="#00FFFF" d="M165.989,160.053c-32.981,0-65.957,0-98.938,0c-0.685,0-1.313,0.088-1.885,0.249
			c-0.375,1.201-0.428,2.518-0.158,3.751c32.329,0,64.652,0,96.981,0c3.461,0,5.477,2.239,6.048,4.848c0.65,0,1.302,0,1.952,0
			c0.687,0,1.316-0.088,1.89-0.25C173.049,164.909,171.086,160.053,165.989,160.053"/>
		<path fill="#00FF00" d="M205.343,228.411c-0.897,0.498-1.879,0.866-2.918,1.078c-0.212,1.039-0.581,2.021-1.082,2.921
			C203.022,231.477,204.41,230.087,205.343,228.411 M33.612,3.436c-1.674,0.935-3.064,2.325-4,4
			c0.898-0.501,1.879-0.872,2.914-1.086C32.74,5.314,33.111,4.334,33.612,3.436"/>
		<path fill="#00FFFF" d="M43.733,21.557h-4v200.726h147.483v-4H43.733V21.557 M173.491,2.14H38.593
			c-1.804,0-3.503,0.471-4.98,1.296c-0.501,0.898-0.872,1.878-1.086,2.914c0.668-0.138,1.359-0.21,2.066-0.21h134.898l33.143,32.119
			V227.42c0,0.709-0.072,1.4-0.209,2.069c1.039-0.212,2.021-0.58,2.918-1.078c0.823-1.48,1.291-3.184,1.291-4.991V34.259
			L173.491,2.14"/>
		<path fill="#FF0000" d="M63.078,77.025c-6.343,1.788-5.714,12.599,1.885,12.599c32.98,0,65.957,0,98.938,0
			c3.191,0,5.153-1.906,5.887-4.249c-0.572,0.161-1.201,0.249-1.887,0.249c-32.98,0-65.957,0-98.938,0
			C63.869,85.624,61.907,80.767,63.078,77.025"/>
		<path fill="#FFFF00" d="M66.919,76.776c-0.652,0-1.304,0-1.956,0c-0.686,0-1.313,0.088-1.885,0.249
			c-1.171,3.741,0.791,8.599,5.885,8.599c32.98,0,65.957,0,98.938,0c0.686,0,1.314-0.088,1.887-0.249
			c0.376-1.201,0.429-2.518,0.158-3.751c-32.328,0-64.654,0-96.982,0C69.504,81.624,67.49,79.385,66.919,76.776"/>
		<path fill="#FFFFFF" d="M163.9,76.776c-32.328,0-64.653,0-96.981,0c0.571,2.608,2.585,4.848,6.044,4.848
			c32.328,0,64.654,0,96.982,0C169.375,79.016,167.359,76.776,163.9,76.776"/>
		<path fill="#FF0000" d="M63.078,106.118c-6.343,1.788-5.714,12.599,1.885,12.599c32.98,0,65.957,0,98.938,0
			c3.191,0,5.153-1.906,5.887-4.249c-0.572,0.161-1.201,0.249-1.887,0.249c-32.98,0-65.957,0-98.938,0
			C63.869,114.717,61.907,109.859,63.078,106.118"/>
		<path fill="#FFFF00" d="M66.919,105.869c-0.652,0-1.304,0-1.956,0c-0.686,0-1.313,0.088-1.885,0.249
			c-1.171,3.741,0.791,8.599,5.885,8.599c32.98,0,65.957,0,98.938,0c0.686,0,1.314-0.088,1.887-0.249
			c0.376-1.201,0.429-2.518,0.158-3.751c-32.328,0-64.654,0-96.982,0C69.504,110.717,67.49,108.478,66.919,105.869"/>
		<path fill="#FFFFFF" d="M163.9,105.869c-32.328,0-64.653,0-96.981,0c0.571,2.608,2.585,4.848,6.044,4.848
			c32.328,0,64.654,0,96.982,0C169.375,108.108,167.359,105.869,163.9,105.869"/>
		<path fill="#FF0000" d="M63.078,135.205c-6.343,1.788-5.714,12.598,1.885,12.598c32.98,0,65.957,0,98.938,0
			c3.191,0,5.154-1.905,5.887-4.249c-0.572,0.161-1.201,0.249-1.887,0.249c-32.98,0-65.957,0-98.938,0
			C63.869,143.803,61.907,138.946,63.078,135.205"/>
		<path fill="#FFFF00" d="M66.919,134.956c-0.652,0-1.304,0-1.956,0c-0.686,0-1.313,0.088-1.885,0.249
			c-1.171,3.741,0.791,8.598,5.885,8.598c32.98,0,65.957,0,98.938,0c0.686,0,1.314-0.088,1.887-0.249
			c0.376-1.201,0.429-2.518,0.158-3.751c-32.328,0-64.654,0-96.982,0C69.505,139.803,67.49,137.564,66.919,134.956"/>
		<path fill="#FFFFFF" d="M163.9,134.956c-32.328,0-64.653,0-96.981,0c0.571,2.608,2.586,4.847,6.044,4.847
			c32.328,0,64.654,0,96.982,0C169.374,137.194,167.359,134.956,163.9,134.956"/>
		<path fill="#FF0000" d="M61.166,164.302c-6.343,1.787-5.714,12.599,1.885,12.599c32.981,0,65.957,0,98.938,0
			c3.193,0,5.156-1.906,5.89-4.25c-0.573,0.162-1.203,0.25-1.89,0.25c-32.981,0-65.957,0-98.938,0
			C61.958,172.9,59.996,168.043,61.166,164.302"/>
		<path fill="#FFFF00" d="M65.008,164.053c-0.652,0-1.305,0-1.957,0c-0.685,0-1.313,0.088-1.885,0.249
			c-1.17,3.741,0.792,8.599,5.885,8.599c32.981,0,65.957,0,98.938,0c0.687,0,1.316-0.088,1.89-0.25
			c0.376-1.201,0.429-2.517,0.158-3.75c-32.331,0-64.655,0-96.986,0C67.593,168.9,65.578,166.661,65.008,164.053"/>
		<path fill="#FFFFFF" d="M161.989,164.053c-32.329,0-64.652,0-96.981,0c0.57,2.608,2.585,4.848,6.043,4.848
			c32.331,0,64.655,0,96.986,0C167.466,166.292,165.45,164.053,161.989,164.053"/>
		<path fill="#FF0000" d="M165.578,17.557H47.733v4h113.845v14.285c0,5.704,4.571,10.277,10.277,10.277h15.361v168.163h4V42.119
			h-15.361c-5.706,0-10.277-4.573-10.277-10.277V17.557 M29.612,7.436c-3.152,1.76-5.296,5.132-5.296,8.982V227.42
			c0,5.651,4.624,10.277,10.276,10.277h157.763c3.881,0,7.237-2.14,8.987-5.287c-1.475,0.819-3.174,1.287-4.987,1.287H38.593
			c-5.652,0-10.276-4.626-10.276-10.277V12.418C28.316,10.613,28.787,8.914,29.612,7.436"/>
		<path fill="#FF00FF" d="M191.217,214.282h-4v4h4V214.282 M47.733,17.557h-4v4h4V17.557"/>
		<path fill="#FFFF00" d="M169.578,13.557H47.733v4h117.845v14.285c0,5.704,4.571,10.277,10.277,10.277h15.361v172.163h4V38.119
			h-15.361c-5.706,0-10.277-4.573-10.277-10.277V13.557 M32.526,6.35c-1.035,0.214-2.016,0.584-2.914,1.086
			c-0.825,1.478-1.296,3.177-1.296,4.982V223.42c0,5.651,4.624,10.277,10.276,10.277h157.763c1.813,0,3.513-0.468,4.987-1.287
			c0.501-0.899,0.87-1.882,1.082-2.921c-0.668,0.137-1.359,0.208-2.069,0.208H42.593c-5.652,0-10.276-4.626-10.276-10.277V8.418
			C32.316,7.71,32.389,7.019,32.526,6.35"/>
		<path fill="#FFFFFF" d="M47.733,17.557v-4h121.845v14.285c0,5.704,4.571,10.277,10.277,10.277h15.361v176.163h-4v4h-4v4H39.733
			V21.557h4v-4H47.733 M169.491,6.14H34.593c-0.707,0-1.398,0.072-2.066,0.21c-0.138,0.668-0.21,1.36-0.21,2.068V219.42
			c0,5.651,4.624,10.277,10.276,10.277h157.763c0.71,0,1.401-0.071,2.069-0.208c0.137-0.669,0.209-1.36,0.209-2.069V38.259
			L169.491,6.14"/>
	</g>
</g>
</svg>
