<?xml version="1.0" encoding="utf-8"?>
<!-- Generator: Adobe Illustrator 16.0.0, SVG Export Plug-In . SVG Version: 6.00 Build 0)  -->
<!DOCTYPE svg PUBLIC "-//W3C//DTD SVG 1.1//EN" "http://www.w3.org/Graphics/SVG/1.1/DTD/svg11.dtd">
<svg version="1.1" xmlns="http://www.w3.org/2000/svg" xmlns:xlink="http://www.w3.org/1999/xlink" x="0px" y="0px" width="253.5px"
	 height="250.5px" viewBox="0 -218.5 253.5 250.5" enable-background="new 0 -218.5 253.5 250.5" xml:space="preserve">
<g id="Layer_1">
</g>
<g id="Layer_1_copy">
</g>
<g id="Layer_1_copy_2">
	<g>
		<path fill="#0000FF" d="M168.343-17.431c-0.495,0.388-0.967,0.76-1.371,1.082c-0.215,0.172-0.402,0.339-0.568,0.503
			c0.554-0.29,1.083-0.583,1.56-0.869C168.09-16.955,168.21-17.192,168.343-17.431 M195.155-42.233
			c-0.139,0.072-0.28,0.148-0.423,0.226c-0.068,0.307-0.137,0.627-0.2,0.943L195.155-42.233 M200.539-47.078l-0.512,0.959
			c0,0-0.855,0.355-1.872,0.885l-0.616,1.156c0.027,0.265,0.045,0.53,0.045,0.776c0,1.191-0.396,4.366-0.793,5.954
			c-0.413,1.588-1.199,4.366-1.588,5.938c-0.184,0.732-0.703,1.801-1.326,2.818c0.733-0.485,1.622-1.368,2.433-2.128
			c0.856-1.234,1.657-2.744,1.894-3.69c0.389-1.572,1.175-4.35,1.588-5.938c0.396-1.588,0.793-4.763,0.793-5.954
			C200.584-46.548,200.566-46.813,200.539-47.078 M190.025-64.186c-0.477,0.495-0.993,0.984-1.555,1.45
			c-2.373,1.977-2.391,3.961-3.572,5.557c-1.183,1.58-2.779,5.145-2.779,5.145s0.794,7.938,1.191,9.526
			c0.389,1.587-2.779,5.938-2.779,5.938l-3.572,3.581l-4.779,6.327l0.311,4.733c0.144-0.137,0.304-0.277,0.481-0.42
			c0.721-0.574,1.656-1.307,2.556-2.007l-0.348-5.306l4.779-6.327l3.572-3.581c0,0,3.168-4.351,2.779-5.938
			c-0.397-1.588-1.191-9.526-1.191-9.526s1.597-3.564,2.779-5.145C188.77-61.356,189.008-62.744,190.025-64.186 M29.243-66.709
			c0.567,1.931,1.188,3.84,1.862,5.723c0.631,0.457,1.339,0.94,2.312,1.426c2.382,1.199,1.596,0.413,4.756,3.969
			c3.179,3.557,2.782,3.557,3.572,5.557c0.785,1.985,1.981,3.953,2.778,5.16c0.798,1.191,3.172,1.969,4.358,2.771
			c1.187,0.801,3.168,1.579,4.354,1.579c1.195,0,4.768,3.573,6.749,3.97c1.983,0.397,1.983,4.366,1.983,4.366l-1.983,5.542
			l-1.593,5.947l0.44,1.313c0.161,0.027,0.312,0.039,0.452,0.039c1.009,0,1.561-0.604,2.741-0.604c0.188,0,0.389-0.029,0.595-0.08
			l-1.229-3.668l1.593-5.947l1.983-5.542c0,0,0-3.969-1.983-4.366c-1.981-0.397-5.554-3.97-6.749-3.97
			c-1.187,0-3.168-0.778-4.354-1.579c-1.187-0.802-3.561-1.581-4.358-2.771c-0.797-1.207-1.993-3.175-2.778-5.16
			c-0.79-2-0.394-2-3.572-5.557c-3.16-3.557-2.374-2.771-4.756-3.969c-2.382-1.191-3.176-2.366-5.152-3.168
			C30.443-66.06,29.81-66.369,29.243-66.709 M198.118-113.285c-0.444,0-0.542,0.197-0.542,0.197s3.168,4.755,3.168,5.942
			c0,0.997,2.511,2.558,5.441,2.558c0.558,0,1.13-0.057,1.703-0.184c0,0,2.382,4.366,3.564,5.553
			c0.067,0.068,0.126,0.136,0.176,0.204c1.042-1.023,0.769-0.726,3.054-2.238c0.058-0.039,0.115-0.077,0.172-0.115
			c0.004-0.287-0.121-0.569-0.401-0.851c-0.853-0.856-2.328-3.364-3.086-4.697c-0.962-0.414-1.864-0.619-3.081-0.619
			c-0.538,0-1.075-0.162-1.616-0.431c-1.665-0.509-2.852-1.429-2.923-2.115c-0.955-0.795-1.948-1.62-3.003-2.217
			C199.354-113.088,198.563-113.285,198.118-113.285 M96.709-117.58c-0.149,0.111-0.288,0.208-0.409,0.29
			c-0.676,0.455-2.397,1.428-3.968,2.55c-0.302,0.515-0.6,1.053-0.881,1.6c0.798-0.498,1.479-0.901,1.849-1.149
			C94.155-114.86,95.836-116.251,96.709-117.58 M33.445-133.87c-0.365,0.253-0.651,0.45-0.822,0.565
			c-0.355,0.238-0.888,0.795-1.408,1.427c-0.294,0.815-0.579,1.636-0.854,2.46c1.002-0.595,2.078-1.167,2.63-1.167
			c0.526,0,0.576,0.52-0.367,2.037c-1.259,2.014-3.154,4.822-4.574,7.113c-0.3,1.214-0.578,2.437-0.835,3.667
			c0.896-1.383,1.746-2.654,2.066-3.468c0.79-1.989,4.358-7.137,6.343-10.313c0.943-1.517,0.894-2.037,0.367-2.037
			c-0.574,0-1.715,0.62-2.749,1.239c-0.235,0.143-0.398,0.206-0.499,0.206C32.379-132.141,32.798-132.953,33.445-133.87
			 M125.599-134.308c0,0-3.95,0.377-5.538,1.171c-1.568,0.797-4.738,1.976-5.926,2.373s-4.347,0.79-4.347,0.79
			c-0.577-0.256-1.133-0.367-1.663-0.367c-0.734,0-1.418,0.213-2.04,0.55c-0.185,0.29-0.334,0.555-0.445,0.774
			c-0.338,0.693-0.83,1.233-1.278,1.752c0.248-0.05,0.502-0.077,0.764-0.077c0.53,0,1.086,0.111,1.663,0.367
			c0,0,3.159-0.393,4.347-0.79s4.357-1.576,5.926-2.373c1.588-0.794,5.538-1.171,5.538-1.171s3.119,1.247,4.307,1.247
			c1.187,0,5.057-0.695,5.057-0.695s1.795,5.748,1.795,6.946c0,1.195,1.183,2.374,3.176,3.168c1.149,0.474,4.785,1.359,8.392,1.359
			c2.521,0,5.026-0.432,6.66-1.74c0.148-0.117,0.352-0.166,0.586-0.166c1.235,0,3.375,1.353,3.375,1.353s9.907,1.985,11.495,3.171
			c1.596,1.195,4.358,1.993,5.161,3.184c0.801,1.19,3.563,4.759,3.952,5.945c0.405,1.188,2.391,5.558,2.787,7.138
			c0.397,1.583,1.588,5.549,2.771,7.534c1.184,1.993,7.932,10.709,10.313,14.679l7.146-1.19c0,0-0.794,3.556-1.588,4.755
			c-0.794,1.183-3.176,4.358-4.358,5.946c-0.666,0.877-1.447,2.002-2.418,3.168c0.085-0.077,0.174-0.153,0.266-0.23
			c0.562-0.466,1.078-0.955,1.555-1.45c0.309-0.437,0.688-0.878,1.18-1.32c0.971-1.166,1.752-2.291,2.418-3.168
			c1.183-1.588,3.564-4.764,4.358-5.946c0.794-1.199,1.588-4.755,1.588-4.755l-7.146,1.19c-2.381-3.969-9.129-12.686-10.313-14.679
			c-1.183-1.985-2.373-5.95-2.771-7.534c-0.051-0.203-0.128-0.451-0.224-0.732c-2.176-3.192-4.397-6.398-5.952-8.569
			c-0.698-0.977-2.382-3.982-3.563-4.755c-0.515-0.351-0.055-0.548,0.63-0.66c-0.967-0.484-2.017-0.97-2.791-1.55
			c-1.588-1.187-11.495-3.171-11.495-3.171s-2.14-1.353-3.375-1.353c-0.234,0-0.438,0.049-0.586,0.166
			c-1.634,1.308-4.14,1.74-6.66,1.74c-3.606,0-7.242-0.885-8.392-1.359c-1.993-0.794-3.176-1.973-3.176-3.168
			c0-1.198-1.795-6.946-1.795-6.946s-3.87,0.695-5.057,0.695C128.718-133.061,125.599-134.308,125.599-134.308 M119.512-140.958
			c-1.318,0.722-2.06,1.602-2.646,2.482c-0.211,0.317-0.55,0.804-0.964,1.378c0.341-0.078,0.675-0.185,0.989-0.331
			C117.896-138.7,118.901-140.08,119.512-140.958 M176.589-142.771c-2.548,0-5.354,0.505-5.354,0.505l-2.583,1.432
			c0.006,0.102,0.02,0.207,0.042,0.315c0.071,0.364,0.183,0.741,0.327,1.127c1.013-0.15,2.85-0.38,4.568-0.38
			c0.631,0,1.246,0.031,1.799,0.108c2.763,0.397,7.129,0.798,7.129,0.798s0.829-1.951,0.167-3.282
			c-1.378-0.146-3.011-0.331-4.296-0.516C177.835-142.74,177.22-142.771,176.589-142.771 M145.043-142.897v0.421l0.3-0.023
			L145.043-142.897 M166.262-146.589c-0.856,0.495-1.762,1.187-2.552,2.17c-0.326,0.41-0.491,0.853-0.562,1.305
			c0.714-0.002,1.373-0.047,1.759-0.176c0.47-0.152,0.919-0.305,1.389-0.482C166.175-144.638,165.954-145.653,166.262-146.589
			 M112.131-149.138l-0.199,0.14l-5.796,1.199l-0.463,0.078c-0.145,1.261-0.392,2.463-0.392,2.463v0.015l3.65-0.755l1.699-1.191
			L112.131-149.138 M43.163-155.241c-1.384,2.032-2.698,4.114-3.939,6.243c0.07,0.656,0.337,1.489,0.942,2.603
			c1.177,2.192,1.423,3.883,1.318,5.103c0.932-0.652,1.939-1.36,2.81-1.972c0.358-1.215,0.426-3.235-1.128-6.131
			C41.051-153.288,43.071-153.743,43.163-155.241 M133.349-169.321c-1.497,0.655-2.555,1.293-2.555,1.293
			c-2.774,2.779-5.554,5.156-5.554,5.156s-2.397,0.794-3.977,1.981c-0.893,0.669-2.368,1.042-3.657,1.478
			c-0.073,0.669,0.1,1.255,0.35,1.729c0.108-0.066,0.212-0.134,0.308-0.207c1.579-1.187,3.977-1.981,3.977-1.981
			s2.779-2.377,5.554-5.156c0,0,1.981-1.195,4.358-1.993c0,0,6.748,5.954,7.938,5.954c1.191,0,5.558-2.775,5.558-2.775
			s0.215-0.647,0.432-1.481c-1.177,0.647-2.432,1.256-2.989,1.256c-0.544,0-2.246-1.242-3.937-2.591
			c-1.41-0.133-5.079-0.568-5.397-1.522C133.645-168.513,133.503-168.904,133.349-169.321 M141.62-170.088
			c-0.084,0.114-0.166,0.231-0.245,0.348c0.299,0.035,0.565,0.063,0.779,0.083C141.976-169.801,141.797-169.944,141.62-170.088
			 M44.241-173.187C22.502-152.226,8.958-122.816,8.958-90.304c0,63.507,51.67,115.165,115.169,115.165
			c32.519,0,61.932-13.541,82.896-35.287c-20.726,19.984-48.9,32.287-79.896,32.287c-63.499,0-115.169-51.658-115.169-115.165
			C11.958-124.293,24.264-152.465,44.241-173.187 M144.061-173.749c0,0-0.217,0.36-0.556,0.896c0.307,0.044,0.601,0.082,0.87,0.113
			c0.035-0.052,0.071-0.104,0.107-0.156C144.231-173.408,144.061-173.749,144.061-173.749 M110.251-168.492v-0.218l0.127,0.055
			L110.251-168.492 M110.899-174.768l-0.648,0.351v5.708l-0.31-0.124l0.266,0.382l0.037-0.041v0.094l0.688,0.988l2.305,2.548
			l4.869-0.934l-4.174-4.614L110.899-174.768 M78.269-182.085c-0.739,0.652-1.55,1.438-2.43,2.387
			c-5.148,5.549-3.962,3.965-5.148,5.541c-0.28,0.374-0.474,0.682-0.64,0.96c0.622-0.825,1.585-1.903,2.934-2.89
			c0.184-0.308,0.388-0.647,0.706-1.07C74.831-178.672,73.778-177.267,78.269-182.085 M148.648-187.772
			c-1.969,0-6.732,1.81-8.327,2.211c-1.563,0.39-5.152,2.422-6.732,2.422c-0.363,0-0.77,0.159-1.18,0.404
			c-0.285,0.563-0.78,1.605-1.013,2.478c1.776-0.44,4.59-1.971,5.925-2.304c1.595-0.401,6.358-2.211,8.327-2.211
			c1.985,0,4.367,0.854,5.565,0.854s5.946,0,5.946,0l8.311-0.667c0,0,7.146,2.64,4.756,4.235c0,0,2.795,1.714,3.978,2.901
			c0.22,0.222,0.51,0.315,0.846,0.315c1.359,0,3.475-1.53,4.799-2.269c25.721,16.145,44.051,43.058,48.466,74.407
			c1.001,1.067,1.826,2.166,1.826,2.166s1.275,2.964,2.11,5.182c-1.463-35.733-20.892-66.858-49.402-84.754
			c-1.324,0.738-3.439,2.269-4.799,2.269c-0.336,0-0.626-0.094-0.846-0.315c-1.183-1.187-3.978-2.901-3.978-2.901
			c2.39-1.596-4.756-4.235-4.756-4.235l-8.311,0.667c0,0-4.748,0-5.946,0S150.634-187.772,148.648-187.772 M89.505-191.463
			c-11.344,4.367-21.73,10.627-30.79,18.411c-0.09,0.242-0.172,0.478-0.238,0.708c7.492-6.007,15.814-11.006,24.781-14.806
			c3.09-2.989,5.133-3.8,6.016-4.02C89.352-191.268,89.429-191.365,89.505-191.463"/>
		<polyline fill="#00FF00" points="107.251,-165.709 107.251,-165.492 107.378,-165.654 107.251,-165.709 		"/>
		<path fill="#00FF00" d="M210.022-13.425c-0.511,0.492-1.021,0.976-1.541,1.459c-0.48,0.517-0.969,1.033-1.459,1.541
			C208.041-11.407,209.041-12.407,210.022-13.425 M171.343-20.431c-0.495,0.388-0.967,0.76-1.371,1.082
			c-0.862,0.692-1.289,1.309-1.629,1.918c0.796-0.624,1.651-1.29,2.383-1.858C170.954-19.677,171.132-20.052,171.343-20.431
			 M197.437-44.842c-0.472,0.269-0.944,0.565-1.354,0.872l-0.927,1.737c1.017-0.53,1.872-0.885,1.872-0.885l0.512-0.959
			C197.513-44.338,197.476-44.599,197.437-44.842 M191.205-65.506c-0.491,0.442-0.871,0.884-1.18,1.32
			C190.448-64.624,190.84-65.068,191.205-65.506 M201.118-116.285c-0.444,0-0.542,0.197-0.542,0.197s3.168,4.755,3.168,5.942
			c0,0.021,0.001,0.042,0.003,0.064c1.007,0.837,1.972,1.641,2.923,2.115c0.76,0.232,1.618,0.378,2.516,0.378
			c0.558,0,1.13-0.057,1.703-0.184c0,0,0.186,0.34,0.479,0.856c0.92,0.396,1.896,0.983,3.254,1.763
			c1.079,0.612,1.919,1.286,2.637,1.927c0.665-0.707,0.835-1.351,0.195-1.992c-0.853-0.856-2.328-3.364-3.086-4.697
			c-0.962-0.414-1.864-0.619-3.081-0.619c-0.538,0-1.075-0.162-1.616-0.431c-1.665-0.509-2.852-1.429-2.923-2.115
			c-0.955-0.795-1.948-1.62-3.003-2.217C202.354-116.088,201.563-116.285,201.118-116.285 M99.709-120.58
			c-0.149,0.111-0.288,0.208-0.409,0.29c-0.397,0.268-1.157,0.715-2.035,1.266c-0.007,0.439-0.223,0.938-0.556,1.444
			C97.616-118.253,98.96-119.44,99.709-120.58 M175.195-121.63c0.192,1.681,0.192,3.37,0.192,3.37s-1.267,0-2.156,0.146
			c1.025,0.512,1.957,1.021,2.37,1.634c0.801,1.19,3.563,4.759,3.952,5.945c0.354,1.035,1.908,4.49,2.563,6.406
			c3.38,4.959,6.648,9.887,7.132,10.853c0.777,1.592,0.429,4.009,1.587,5.152c0.754,0.755,1.746,1.032,2.788,1.032
			c0.861,0,1.758-0.189,2.58-0.452c-2.976-4.27-7.182-9.785-8.093-11.319c-1.183-1.985-2.373-5.95-2.771-7.534
			c-0.051-0.203-0.128-0.451-0.224-0.732c-2.176-3.192-4.397-6.398-5.952-8.569c-0.698-0.977-2.382-3.982-3.563-4.755
			c-0.515-0.351-0.055-0.548,0.63-0.66C175.892-121.285,175.541-121.455,175.195-121.63 M111.125-133.34
			c-1.739,0-3.201,1.197-4.212,2.413c0.293,0.012,0.624,0.024,0.976,0.024c1.336,0,2.98-0.179,4.035-1.234
			c0.244-0.246,0.512-0.541,0.795-0.866C112.166-133.238,111.634-133.34,111.125-133.34 M36.445-136.87
			c-0.365,0.253-0.651,0.45-0.822,0.565c-0.539,0.361-1.488,1.458-2.178,2.435c0.576-0.4,1.35-0.94,2.175-1.518
			C35.686-135.696,36.015-136.26,36.445-136.87 M157.927-140.206l1.621,1.981c-0.366-0.453-0.913-1.188-1.312-1.959
			C158.129-140.19,158.025-140.198,157.927-140.206 M122.512-143.958c-1.318,0.722-2.06,1.602-2.646,2.482
			c-0.094,0.142-0.214,0.316-0.354,0.518c0.36-0.197,0.763-0.381,1.216-0.551C121.429-142.434,122.072-143.326,122.512-143.958
			 M179.589-145.771c-1.049,0-2.143,0.086-3.065,0.187c1.78,0.341,4.324,1.801,5.588,2.75c0.259,0.193,0.443,0.429,0.572,0.688
			c1.584,0.167,2.833,0.282,2.833,0.282s0.829-1.951,0.167-3.282c-1.378-0.146-3.011-0.331-4.296-0.516
			C180.835-145.74,180.22-145.771,179.589-145.771 M169.262-149.589c-0.856,0.495-1.762,1.187-2.552,2.17
			c-0.211,0.265-0.354,0.543-0.448,0.83c0.872-0.504,1.693-0.805,2.29-1.001c0.156-0.052,0.36-0.13,0.597-0.229
			C169.083-148.403,169.071-149.011,169.262-149.589 M139.591-151.372l0.215,2.248c0.381,0.268,0.731,0.51,0.999,0.69
			c0.563,0.381-0.73,1.615,4.238,2.818v1.977c0.552,0.351,1.108,0.719,1.589,1.042l3.683-0.28l-2.382-3.167l-0.412-0.107
			l-1.798-1.822C143.876-148.937,139.591-151.372,139.591-151.372 M115.131-152.138l-0.199,0.14l-2.819,0.583
			c0.427,0.668,0.96,1.054,0.96,1.054l-0.941,1.223l1.5-1.051L115.131-152.138 M181.051-152.189
			c-0.039,0.058-0.073,0.113-0.102,0.164c0.062-0.05,0.123-0.1,0.185-0.149L181.051-152.189 M107.244-165.492l-0.931,1.023
			l0.115,0.173l0.815-0.897V-165.492 M149.08-168.323c-0.965,0.531-1.983,1.037-2.626,1.201c-0.082,0.592-0.229,1.238-0.374,1.799
			c1.335-0.734,2.568-1.519,2.568-1.519S148.863-167.488,149.08-168.323 M106.429-170.238l-1.576,3.569l0.001,0.001l2.397,0.959
			v-4.2L106.429-170.238 M136.349-172.321c-1.497,0.655-2.555,1.293-2.555,1.293c-0.265,0.265-0.528,0.526-0.791,0.782
			c0.118,0.313,0.235,0.626,0.346,0.925c0.552-0.241,1.164-0.485,1.804-0.7c0,0,1.992,1.757,4.002,3.363
			c0.339,0.032,0.548,0.046,0.548,0.046s0.662-1.64,1.673-3.129c-1.669-0.195-4.348-0.631-4.618-1.439
			C136.645-171.513,136.503-171.904,136.349-172.321 M69.948-173.061c-0.722,0.532-1.332,1.089-1.838,1.619l0.938-0.34
			c0.081-0.085,0.154-0.167,0.222-0.248C69.394-172.244,69.616-172.608,69.948-173.061 M47.241-176.187
			c-1.019,0.982-2.018,1.981-3,3c0.511-0.492,1.021-0.976,1.541-1.459C46.263-175.163,46.752-175.679,47.241-176.187
			 M147.061-176.749c0,0-1.19,1.981-2.373,3.569c-0.069,0.093-0.139,0.188-0.205,0.284c0.028,0.058,0.058,0.117,0.087,0.179
			c0.669,0.074,1.133,0.106,1.133,0.106s0.71-1.758,1.78-3.285C147.231-176.408,147.061-176.749,147.061-176.749 M81.269-185.085
			c-0.739,0.652-1.55,1.438-2.43,2.387c-0.199,0.215-0.39,0.419-0.57,0.613c0.29-0.255,0.568-0.49,0.836-0.706
			C79.63-183.339,80.327-184.075,81.269-185.085"/>
		<path fill="#00FFFF" d="M170.726-19.289c-0.731,0.568-1.587,1.234-2.383,1.858c-0.133,0.238-0.253,0.476-0.38,0.716
			c0.763-0.458,1.39-0.896,1.762-1.268C170.183-18.445,170.482-18.874,170.726-19.289 M196.082-43.97
			c-0.625,0.467-1.104,0.958-1.222,1.417c-0.043,0.174-0.086,0.358-0.128,0.546c0.143-0.078,0.284-0.154,0.423-0.226L196.082-43.97
			 M198.155-45.233c-0.233,0.122-0.476,0.253-0.719,0.392c0.039,0.243,0.076,0.503,0.103,0.764L198.155-45.233 M203.203-52.071
			l-2.664,4.994c0.027,0.265,0.045,0.53,0.045,0.776c0,1.191-0.396,4.366-0.793,5.954c-0.413,1.588-1.199,4.366-1.588,5.938
			c-0.236,0.946-1.037,2.457-1.894,3.69c0.492-0.462,0.956-0.879,1.337-1.133c1.175-0.794,3.159-3.97,3.557-5.558
			c0.389-1.572,1.175-4.35,1.588-5.938c0.396-1.588,0.793-4.763,0.793-5.954C203.584-50.458,203.2-52.03,203.203-52.071
			 M193.025-67.186c-0.477,0.495-0.993,0.984-1.555,1.45c-0.092,0.077-0.181,0.153-0.266,0.23c-0.365,0.438-0.757,0.882-1.18,1.32
			c-1.018,1.441-1.256,2.83-2.127,4.007c-1.183,1.58-2.779,5.145-2.779,5.145s0.794,7.938,1.191,9.526
			c0.389,1.587-2.779,5.938-2.779,5.938l-3.572,3.581l-4.779,6.327l0.348,5.306c1.577-1.229,3.042-2.359,3.042-2.359l-0.39-5.947
			l4.779-6.327l3.572-3.581c0,0,3.168-4.351,2.779-5.938c-0.397-1.588-1.191-9.526-1.191-9.526s1.597-3.564,2.779-5.145
			C191.77-64.356,192.008-65.744,193.025-67.186 M27.624-72.928c0.478,2.098,1.019,4.171,1.619,6.218
			c0.566,0.34,1.2,0.649,2.021,0.981c1.977,0.802,2.771,1.977,5.152,3.168c2.382,1.199,1.596,0.413,4.756,3.969
			c3.179,3.557,2.782,3.557,3.572,5.557c0.785,1.985,1.981,3.953,2.778,5.16c0.798,1.191,3.172,1.969,4.358,2.771
			c1.187,0.801,3.168,1.579,4.354,1.579c1.195,0,4.768,3.573,6.749,3.97c1.983,0.397,1.983,4.366,1.983,4.366l-1.983,5.542
			l-1.593,5.947l1.229,3.668c1.514-0.371,3.364-1.914,3.364-1.914l-1.593-4.755l1.593-5.947l1.983-5.542c0,0,0-3.969-1.983-4.366
			c-1.981-0.397-5.554-3.97-6.749-3.97c-1.187,0-3.168-0.778-4.354-1.579c-1.187-0.802-3.561-1.581-4.358-2.771
			c-0.797-1.207-1.993-3.175-2.778-5.16c-0.79-2-0.394-2-3.572-5.557c-3.16-3.557-2.374-2.771-4.756-3.969
			c-2.382-1.191-3.176-2.366-5.152-3.168c-1.984-0.802-2.87-1.469-4.366-2.771C28.866-72.419,28.136-72.792,27.624-72.928
			 M182.117-104.129c0.096,0.281,0.173,0.529,0.224,0.732c0.397,1.583,1.588,5.549,2.771,7.534
			c1.184,1.993,7.932,10.709,10.313,14.679l7.146-1.19c0,0-0.794,3.556-1.588,4.755c-0.794,1.183-3.176,4.358-4.358,5.946
			c-0.666,0.877-1.447,2.002-2.418,3.168c0.085-0.077,0.174-0.153,0.266-0.23c2.382-1.977,3.953-4.358,5.152-5.938
			c1.183-1.588,3.564-4.764,4.358-5.946c0.794-1.199,1.588-4.755,1.588-4.755l-7.146,1.19c-0.549-0.915-1.329-2.082-2.22-3.36
			c-0.822,0.263-1.719,0.452-2.58,0.452c-1.042,0-2.034-0.276-2.788-1.032c-1.158-1.143-0.81-3.561-1.587-5.152
			C188.766-94.243,185.497-99.17,182.117-104.129 M211.367-106.916c0.758,1.333,2.233,3.841,3.086,4.697
			c0.28,0.281,0.405,0.563,0.401,0.851c1.012-0.681,1.868-1.29,2.403-1.858c-0.718-0.641-1.558-1.315-2.637-1.927
			C213.263-105.933,212.287-106.52,211.367-106.916 M203.747-110.081c0.071,0.686,1.258,1.605,2.923,2.115
			C205.719-108.44,204.754-109.244,203.747-110.081 M97.265-119.024c-1.727,1.084-3.91,2.57-4.696,3.886
			c-0.079,0.131-0.157,0.264-0.236,0.398c1.57-1.122,3.292-2.095,3.968-2.55c0.121-0.081,0.26-0.178,0.409-0.29
			C97.042-118.087,97.258-118.585,97.265-119.024 M38.99-136.585c-0.574,0-1.715,0.62-2.749,1.239
			c-0.235,0.143-0.398,0.206-0.499,0.206c-0.122,0-0.155-0.091-0.122-0.247c-0.825,0.578-1.599,1.118-2.175,1.518
			c-0.647,0.917-1.066,1.729-0.703,1.729c0.101,0,0.264-0.063,0.499-0.206c1.034-0.619,2.175-1.239,2.749-1.239
			c0.526,0,0.576,0.52-0.367,2.037c-1.984,3.176-5.553,8.324-6.343,10.313c-0.32,0.813-1.171,2.085-2.066,3.468
			c-1.278,6.125-2.021,12.446-2.178,18.913c0.694-1.676,1.572-5.748,1.302-7.129c-0.396-1.985,1.187-6.748,1.187-9.13
			s3.971-7.129,4.756-9.122c0.79-1.989,4.358-7.137,6.343-10.313C39.566-136.065,39.517-136.585,38.99-136.585 M128.599-137.308
			c0,0-3.95,0.377-5.538,1.171c-1.568,0.797-4.738,1.976-5.926,2.373s-4.347,0.79-4.347,0.79c-0.023-0.01-0.047-0.021-0.069-0.03
			c-0.283,0.326-0.551,0.62-0.795,0.866c-1.055,1.055-2.699,1.234-4.035,1.234c-0.352,0-0.683-0.013-0.976-0.024
			c-0.324,0.39-0.603,0.783-0.828,1.138c0.622-0.337,1.306-0.55,2.04-0.55c0.53,0,1.086,0.111,1.663,0.367
			c0,0,3.159-0.393,4.347-0.79s4.357-1.576,5.926-2.373c1.588-0.794,5.538-1.171,5.538-1.171s3.119,1.247,4.307,1.247
			c1.187,0,5.057-0.695,5.057-0.695s1.795,5.748,1.795,6.946c0,1.195,1.183,2.374,3.176,3.168c1.149,0.474,4.785,1.359,8.392,1.359
			c2.521,0,5.026-0.432,6.66-1.74c0.148-0.117,0.352-0.166,0.586-0.166c1.235,0,3.375,1.353,3.375,1.353s9.907,1.985,11.495,3.171
			c0.774,0.58,1.824,1.066,2.791,1.55c0.89-0.146,2.156-0.146,2.156-0.146s0-1.689-0.192-3.37c-0.636-0.322-1.253-0.659-1.755-1.035
			c-1.588-1.187-11.495-3.171-11.495-3.171s-2.14-1.353-3.375-1.353c-0.234,0-0.438,0.049-0.586,0.166
			c-1.634,1.308-4.14,1.74-6.66,1.74c-3.606,0-7.242-0.885-8.392-1.359c-1.993-0.794-3.176-1.973-3.176-3.168
			c0-1.198-1.795-6.946-1.795-6.946s-3.87,0.695-5.057,0.695C131.718-136.061,128.599-137.308,128.599-137.308 M120.728-141.51
			c-0.453,0.17-0.855,0.354-1.216,0.551c-0.61,0.878-1.615,2.258-2.62,3.529c0.379-0.175,0.729-0.405,1.032-0.708
			C118.72-138.941,119.776-140.255,120.728-141.51 M145.043-143.639v0.742l0.3,0.398l1.289-0.098
			C146.151-142.92,145.595-143.288,145.043-143.639 M176.523-145.585c-1.318,0.144-2.289,0.319-2.289,0.319l-3.564,1.976
			c0,0-2.127,0.713-2.019,2.456l2.583-1.432c0,0,2.807-0.505,5.354-0.505c0.631,0,1.246,0.031,1.799,0.108
			c1.285,0.185,2.918,0.37,4.296,0.516c-0.129-0.259-0.313-0.494-0.572-0.688C180.848-143.784,178.304-145.244,176.523-145.585
			 M169.148-147.818c-0.236,0.098-0.44,0.177-0.597,0.229c-0.597,0.196-1.418,0.497-2.29,1.001
			c-0.308,0.936-0.087,1.951,0.034,2.816c0.728-0.275,1.5-0.61,2.461-1.093C169.7-145.342,169.293-146.522,169.148-147.818
			 M112.112-151.415l-2.977,0.616l-3.47,0.583c0.17,0.517,0.119,1.523,0.007,2.495l0.463-0.078l5.796-1.199l0.199-0.14l0.941-1.223
			C113.072-150.361,112.539-150.747,112.112-151.415 M45.467-158.492c-0.788,1.069-1.556,2.152-2.304,3.251
			c-0.092,1.499-2.112,1.953,0.003,5.846c1.554,2.896,1.486,4.916,1.128,6.131c1.281-0.901,2.264-1.593,2.264-1.593
			s2.375-2.381-0.392-7.538c-2.164-3.982,0-4.367,0-5.951C46.166-158.346,45.871-158.453,45.467-158.492 M141.375-169.74
			c-1.011,1.489-1.673,3.129-1.673,3.129s-0.209-0.015-0.548-0.046c1.69,1.35,3.393,2.591,3.937,2.591
			c0.558,0,1.813-0.609,2.989-1.256c0.146-0.561,0.292-1.208,0.374-1.799c-0.141,0.036-0.263,0.056-0.363,0.056
			c-0.544,0-2.246-1.242-3.937-2.591C141.94-169.678,141.674-169.705,141.375-169.74 M133.003-170.246
			c-2.487,2.429-4.763,4.375-4.763,4.375s-2.397,0.794-3.977,1.981c-1.584,1.187-5.006,1.441-5.959,2.775
			c-0.436,0.61-0.642,1.182-0.698,1.703c1.289-0.436,2.765-0.809,3.657-1.478c1.579-1.187,3.977-1.981,3.977-1.981
			s2.779-2.377,5.554-5.156c0,0,1.058-0.638,2.555-1.293C133.238-169.62,133.121-169.933,133.003-170.246 M69.271-172.03
			c-0.067,0.08-0.141,0.162-0.222,0.248l0.107-0.039C69.156-171.822,69.193-171.896,69.271-172.03 M144.482-172.896
			c-0.036,0.052-0.072,0.104-0.107,0.156c0.066,0.008,0.132,0.016,0.194,0.022C144.54-172.779,144.511-172.839,144.482-172.896
			 M45.782-174.646c-0.52,0.483-1.03,0.967-1.541,1.459c-19.978,20.722-32.284,48.894-32.284,79.883
			c0,63.507,51.67,115.165,115.169,115.165c30.995,0,59.17-12.303,79.896-32.287c0.49-0.508,0.979-1.024,1.459-1.541
			c-20.57,19.12-48.123,30.828-78.354,30.828c-63.499,0-115.169-51.658-115.169-115.165
			C14.958-126.534,26.664-154.078,45.782-174.646 M113.899-177.768l-3.648,1.977v1.374l0.648-0.351l3.032,4.358l4.174,4.614
			l0.395-0.076l3.1-2.377l-4.668-5.161L113.899-177.768 M79.104-182.791c-0.268,0.216-0.546,0.45-0.836,0.706
			c-4.49,4.819-3.438,3.413-4.578,4.928c-0.318,0.423-0.522,0.763-0.706,1.07c0.043-0.031,0.086-0.062,0.129-0.093
			c2.783-1.993,2.39-2.397,3.577-3.978C77.592-181.355,77.124-180.729,79.104-182.791 M151.648-190.772
			c-1.969,0-6.732,1.81-8.327,2.211c-1.563,0.39-5.152,2.422-6.732,2.422c-1.576,0-3.966,2.993-3.966,2.993
			s-0.086,0.157-0.214,0.411c0.41-0.245,0.816-0.404,1.18-0.404c1.58,0,5.169-2.032,6.732-2.422
			c1.595-0.401,6.358-2.211,8.327-2.211c1.985,0,4.367,0.854,5.565,0.854s5.946,0,5.946,0l8.311-0.667c0,0,7.146,2.64,4.756,4.235
			c0,0,2.795,1.714,3.978,2.901c0.22,0.222,0.51,0.315,0.846,0.315c1.359,0,3.475-1.53,4.799-2.269
			c28.511,17.896,47.939,49.021,49.402,84.754c0.309,0.818,0.557,1.534,0.659,1.963c0.271,1.048,1.397,3.489,2.128,5.359
			c0.127-1.993,0.302-3.962,0.302-5.979c0-37.546-19.831-70.48-49.491-89.098c-1.324,0.738-3.439,2.269-4.799,2.269
			c-0.336,0-0.626-0.094-0.846-0.315c-1.183-1.187-3.978-2.901-3.978-2.901c2.39-1.596-4.756-4.235-4.756-4.235l-8.311,0.667
			c0,0-4.748,0-5.946,0S153.634-190.772,151.648-190.772 M92.505-194.463c-12.536,4.826-23.901,11.963-33.602,20.915
			c-0.064,0.168-0.129,0.334-0.188,0.497c9.06-7.784,19.446-14.044,30.79-18.411c-0.076,0.098-0.153,0.195-0.231,0.293
			c0.331-0.083,0.5-0.082,0.5-0.082S91.27-192.879,92.505-194.463"/>
		<polyline fill="#FF00FF" points="110.251,-168.709 110.251,-168.492 110.378,-168.654 110.251,-168.709 		"/>
		<path fill="#FF0000" d="M172.49-21.929c-0.554,0.527-0.878,1.015-1.147,1.499c0.388-0.304,0.789-0.618,1.185-0.926L172.49-21.929
			 M194.532-41.064l-0.505,0.946c0,0-1.104,0.458-2.295,1.111c-0.344,1.534-0.659,3.416-0.659,3.416s-1.976,4.358-2.381,5.946
			c-0.374,1.489,0.316,4.4,1.386,4.4c0.065,0,0.133-0.011,0.201-0.034c0.805-0.27,1.983-1.458,3.03-2.439
			c0.193-0.28,0.385-0.574,0.567-0.872c-0.215,0.142-0.416,0.25-0.598,0.312c-0.068,0.023-0.136,0.034-0.201,0.034
			c-1.069,0-1.76-2.911-1.386-4.4c0.405-1.588,2.381-5.946,2.381-5.946S194.275-39.797,194.532-41.064 M26.243-63.709
			c5.382,18.328,15.622,34.544,29.224,47.242c0.31,0.086,0.577,0.121,0.818,0.121c1.009,0,1.561-0.604,2.741-0.604
			c0.188,0,0.389-0.029,0.595-0.08l-0.788-2.355c-0.116-0.02-0.237-0.046-0.366-0.082C46.299-30.827,36.82-45.002,31.105-60.986
			c-0.916-0.662-1.671-1.267-2.841-1.742C27.443-63.06,26.81-63.369,26.243-63.709 M91.451-113.141
			c-0.663,0.413-1.406,0.892-2.119,1.4c-1.112,1.899-2.172,4.1-2.543,5.953c-0.393,1.981-0.393,3.569-0.393,6.339
			c0,2.774-0.397,4.366,0,6.756c0.385,2.366,4.357,8.315,5.938,10.308c1.591,1.985,3.576,4.358,5.564,5.542
			c1.969,1.199,4.756,3.572,4.756,3.572s1.009,1.518,3.029,1.518c0.506,0,1.076-0.096,1.71-0.334
			c3.188-1.191,6.351-1.191,9.138-2.779c1.857-1.049,4.418-2.29,5.915-2.29c0.745,0,1.227,0.307,1.227,1.099
			c0,1.959,1.066,3.392,2.771,3.392c0.367,0,0.765-0.066,1.187-0.208c1.467-0.494,3.53-1.43,4.807-1.43
			c0.797,0,1.288,0.365,1.136,1.43c-0.39,2.779,0.802,6.343,0.802,7.947c0,1.563-0.405,3.159,0.777,4.342
			c1.191,1.191,4.382,3.184,4.382,4.366c0,1.183,0.382,5.152,1.175,6.74c0.794,1.596,1.588,3.969,0.794,5.557
			c-0.794,1.581-2.396,5.947-2.396,5.947s-0.825,3.564-0.43,4.748c0.398,1.198,1.129,2.779,3.112,4.763
			c1.984,1.977,1.461,4.367,2.66,5.946c1.198,1.588,2.397,6.351,2.397,6.351l0.182,3.962v3.564c0,0,8.75-1.191,10.329-1.588
			c1.214-0.304,5.125-2,7.605-3.487c0.371-0.701,0.679-1.378,1.44-2.131c-2.324,1.219-5.065,2.373-6.046,2.618
			c-1.579,0.397-10.329,1.588-10.329,1.588v-3.564l-0.182-3.962c0,0-1.199-4.763-2.397-6.351c-1.199-1.579-0.676-3.969-2.66-5.946
			c-1.983-1.984-2.714-3.565-3.112-4.763c-0.396-1.184,0.43-4.748,0.43-4.748s1.603-4.366,2.396-5.947
			c0.794-1.587,0-3.961-0.794-5.557c-0.793-1.588-1.175-5.557-1.175-6.74c0-1.183-3.19-3.175-4.382-4.366
			c-1.183-1.183-0.777-2.779-0.777-4.342c0-1.604-1.191-5.168-0.802-7.947c0.152-1.064-0.339-1.43-1.136-1.43
			c-1.276,0-3.34,0.936-4.807,1.43c-0.422,0.142-0.819,0.208-1.187,0.208c-1.704,0-2.771-1.433-2.771-3.392
			c0-0.792-0.481-1.099-1.227-1.099c-1.497,0-4.058,1.24-5.915,2.29c-2.787,1.588-5.95,1.588-9.138,2.779
			c-0.634,0.239-1.204,0.334-1.71,0.334c-2.021,0-3.029-1.518-3.029-1.518s-2.787-2.374-4.756-3.572
			c-1.988-1.183-3.974-3.557-5.564-5.542c-1.581-1.993-5.554-7.942-5.938-10.308c-0.397-2.39,0-3.982,0-6.756
			c0-2.771,0-4.358,0.393-6.339C90.06-110.138,90.695-111.673,91.451-113.141 M204.118-119.285c-0.444,0-0.542,0.197-0.542,0.197
			s3.168,4.755,3.168,5.942c0,0.021,0.001,0.042,0.003,0.064c1.007,0.837,1.972,1.641,2.923,2.115
			c0.76,0.232,1.618,0.378,2.516,0.378c0.558,0,1.13-0.057,1.703-0.184c0,0,0.186,0.34,0.479,0.856
			c0.92,0.396,1.896,0.983,3.254,1.763c2.778,1.576,3.977,3.561,5.558,4.355c1.58,0.798,3.962,3.969,3.962,3.969
			s1.275,2.964,2.11,5.182c-0.144-3.497-0.458-6.947-0.937-10.347c-0.7-0.746-1.485-1.476-2.136-1.804
			c-1.581-0.794-2.779-2.779-5.558-4.355c-2.778-1.595-3.953-2.382-6.335-2.382s-4.747-3.179-7.542-4.763
			C205.354-119.088,204.563-119.285,204.118-119.285 M104.361-127.264c-0.449,0.091-0.876,0.256-1.276,0.474
			c-0.185,0.29-0.334,0.555-0.445,0.774c-0.778,1.596-2.375,2.381-2.375,3.969c0,0.445-0.217,0.951-0.556,1.466
			c1.316-0.978,3.556-3.037,3.556-4.466C103.265-125.945,103.776-126.586,104.361-127.264 M169.021-139.392
			c-0.489,0.072-0.786,0.125-0.786,0.125l-2.583,1.432c0.006,0.102,0.02,0.207,0.042,0.315c0.389,1.984,1.977,4.374,3.564,6.351
			c1.365,1.721,2.445,3.727,3.471,3.727c0.162,0,0.322-0.05,0.482-0.159c1.207-0.798,5.177-3.171,5.177-3.171
			s-0.811,2.77-0.405,4.755c0.405,1.977,0.405,4.756,0.405,4.756s-1.267,0-2.156,0.146c1.025,0.512,1.957,1.021,2.37,1.634
			c0.801,1.19,3.563,4.759,3.952,5.945c0.354,1.035,1.908,4.49,2.563,6.406c3.38,4.959,6.648,9.887,7.132,10.853
			c0.777,1.592,0.429,4.009,1.587,5.152c0.754,0.755,1.746,1.032,2.788,1.032c2.244,0,4.72-1.281,5.532-1.817
			c1.191-0.782,5.145-2.782,6.335-3.97c1.207-1.187,0.811-0.797,3.191-2.373c0.058-0.039,0.115-0.077,0.172-0.115
			c0.003-0.218-0.068-0.433-0.226-0.647c-0.043,0.042-0.089,0.088-0.138,0.135c-1.19,1.188-5.144,3.188-6.335,3.97
			c-0.813,0.537-3.288,1.817-5.532,1.817c-1.042,0-2.034-0.276-2.788-1.032c-1.158-1.143-0.81-3.561-1.587-5.152
			c-0.794-1.587-9.114-13.877-13.084-19.422c-0.698-0.977-2.382-3.982-3.563-4.755c-1.184-0.806,2.786-0.806,2.786-0.806
			s0-2.779-0.405-4.756c-0.405-1.985,0.405-4.755,0.405-4.755s-3.97,2.373-5.177,3.171c-0.16,0.109-0.32,0.159-0.482,0.159
			c-1.025,0-2.105-2.006-3.471-3.727C170.961-135.783,169.664-137.672,169.021-139.392 M142.043-139.897v0.421l0.3-0.023
			L142.043-139.897 M41.484-141.292c-1.291,0.904-2.436,1.701-2.861,1.988c-0.539,0.361-1.488,1.458-2.178,2.435
			c1.201-0.833,3.256-2.275,4.849-3.395C41.381-140.559,41.45-140.901,41.484-141.292 M159.953-143.29
			c-2.697,0-2.483,1.621-1.717,3.106c0.559,0.037,1.229,0.07,1.86,0.07c0.734,0,1.416-0.044,1.811-0.176
			c0.47-0.152,0.919-0.305,1.389-0.482c-0.101-0.721-0.271-1.545-0.147-2.341c-0.018,0-0.034,0-0.052,0
			C161.629-143.114,159.953-143.29,159.953-143.29 M105.281-145.243l-2.146,0.444l-0.463,0.078
			c-0.145,1.261-0.392,2.463-0.392,2.463v6.724c0,0,5.725,1.584,6.919,1.584c0.402,0,1.005,0.047,1.688,0.047
			c0.953,0,2.063-0.091,3.003-0.526c0.719-0.908,1.437-1.873,2.011-2.669c-0.677,0.155-1.38,0.195-2.014,0.195
			c-0.684,0-1.286-0.047-1.688-0.047c-1.194,0-6.919-1.584-6.919-1.584V-145.243 M136.875-151.217c0,0-4.669,0.798-5.863,1.195
			s-1.529,1.588-3.894,2.374c-2.39,0.798-3.462,1.985-4.252,3.171c-0.094,0.142-0.214,0.316-0.354,0.518
			c0.46-0.251,0.989-0.483,1.606-0.689c2.364-0.786,2.699-1.977,3.894-2.374s5.863-1.195,5.863-1.195s1.642,1.188,2.931,2.093
			l-0.215-2.248c0,0,4.285,2.435,6.132,3.399l-2.79-2.826l-0.127-1.325C138.517-150.029,136.875-151.217,136.875-151.217
			 M180.949-152.025c-1.167,0.949-2.418,2.127-2.898,2.836l0.083,0.015c-0.062,0.049-0.123,0.099-0.185,0.149
			c-0.159,0.286-0.144,0.462,0.128,0.462c0.075,0,0.171-0.014,0.287-0.042c0.143-0.036,0.3-0.053,0.471-0.053
			c1.741,0,4.838,1.743,6.276,2.823c0.259,0.193,0.443,0.429,0.572,0.688c1.584,0.167,2.833,0.282,2.833,0.282
			s1.183-2.783-0.405-3.97c-1.438-1.08-4.535-2.822-6.276-2.823c-0.171,0-0.328,0.017-0.471,0.053
			c-0.116,0.029-0.212,0.042-0.287,0.042C180.806-151.563,180.79-151.739,180.949-152.025 M40.163-152.241
			c-7.599,11.161-13.103,23.831-15.949,37.473c0.896-1.383,1.746-2.654,2.066-3.468c0.289-0.728,0.949-1.877,1.769-3.199
			c0.667-2.703,1.439-5.366,2.312-7.982c-0.04,0.024-0.079,0.048-0.119,0.071c-0.235,0.143-0.398,0.206-0.499,0.206
			c-0.495,0,0.464-1.51,1.473-2.737c2.16-5.975,4.849-11.699,8.009-17.12C39.05-150.634,40.098-151.172,40.163-152.241
			 M142.591-154.372l0.342,3.573l2.79,2.826c0.124,0.065,0.237,0.124,0.338,0.174c1.588,0.786,4.97,3.16,4.97,3.16l2.35,5.545
			l1.547,1.889c0.099,0.007,0.202,0.015,0.31,0.022c-0.767-1.486-0.98-3.106,1.717-3.106c0,0,0.396,0.042,0.974,0.084l-1.547-1.889
			l-2.35-5.545c0,0-3.382-2.374-4.97-3.16C147.473-151.598,142.591-154.372,142.591-154.372 M179.736-155.972
			c0,0-3.985,1.985-5.185,2.382c-1.183,0.389-3.247,1.187-4.842,3.171c-0.211,0.265-0.354,0.543-0.448,0.83
			c0.872-0.504,1.693-0.805,2.29-1.001c1.199-0.397,5.185-2.382,5.185-2.382l4.314,0.783c0.506-0.746,1.866-2.014,3.083-2.985
			L179.736-155.972 M117.956-157.684c-0.901,0.543-2.199,0.882-3.35,1.271c-0.202,1.845,1.466,3.052,1.466,3.052l-0.941,1.223
			l1.5-1.051l2.441-3.172C119.072-156.361,118.395-156.851,117.956-157.684 M104.251-162.492v-0.218l0.127,0.055L104.251-162.492
			 M104.251-166.909v4.2l-2.397-0.959l1.46,2.2l0.931-1.023v0.299l2.069-2.276l-1.46-2.2L104.251-166.909 M110.207-168.451
			l-2.963,3.259v3.905l7.861-1.508l-1.869-2.066l-2.992,0.574v-4.11L110.207-168.451 M107.899-171.768l-0.648,0.351v1.508
			l2.69,1.076L107.899-171.768 M58.477-172.344c-0.934,0.749-1.855,1.514-2.762,2.292c-0.106,0.285-0.201,0.562-0.272,0.829
			c-0.161,0.638,0.255,0.829,0.811,0.829c0.831,0,1.977-0.428,1.977-0.428l3.56,1.583l3.321-1.204
			c0.506-0.529,1.116-1.087,1.838-1.619c0.298-0.405,0.684-0.881,1.162-1.381l-3.321,1.204l-3.56-1.583c0,0-1.146,0.428-1.977,0.428
			c-0.556,0-0.972-0.191-0.811-0.829C58.453-172.263,58.465-172.303,58.477-172.344 M70.051-173.198
			c-0.035,0.046-0.069,0.092-0.103,0.137c0.013-0.009,0.024-0.018,0.036-0.026C70.006-173.124,70.028-173.16,70.051-173.198
			 M150.061-179.749c0,0-1.19,1.981-2.373,3.569c-0.069,0.093-0.139,0.188-0.205,0.284c0.605,1.234,1.679,3.461,1.96,4.3
			c0.224,0.686-0.07,2.15-0.362,3.273c1.335-0.734,2.568-1.519,2.568-1.519s1.184-3.56,0.794-4.755
			C152.045-175.783,150.061-179.749,150.061-179.749 M131.396-180.257c-0.304,0.075-0.577,0.118-0.808,0.118
			c-0.363,0-0.77,0.159-1.18,0.404c-0.549,1.086-1.876,3.948-0.613,3.948c0.122,0,0.269-0.027,0.442-0.084
			c1.087-0.367,2.348-0.573,3.429-0.573c1.271,0,2.296,0.285,2.502,0.931c0.292,0.852,0.779,2.109,1.18,3.193
			c0.552-0.241,1.164-0.485,1.804-0.7c0,0,1.653,1.459,3.468,2.932c0.022-0.031,0.045-0.062,0.067-0.092
			c0.679-0.911,1.359-1.952,1.817-2.673c-1.599-0.231-3.521-0.647-3.748-1.326c-0.405-1.199-1.184-3.156-1.588-4.334
			c-0.206-0.646-1.23-0.931-2.502-0.931c-1.081,0-2.342,0.207-3.429,0.573c-0.174,0.058-0.32,0.084-0.442,0.084
			C131.188-178.787,131.18-179.449,131.396-180.257 M86.505-188.463c-1.091,0.42-2.175,0.858-3.247,1.313
			c-0.451,0.436-0.924,0.918-1.419,1.451c-0.199,0.215-0.39,0.419-0.57,0.613c2.527-2.229,4.222-2.889,5.005-3.084
			C86.352-188.268,86.429-188.365,86.505-188.463 M130.127-211.472c-32.513,0-61.923,13.542-82.886,35.285
			c20.725-19.981,48.896-32.285,79.886-32.285c63.502,0,115.176,51.662,115.176,115.168c0,30.99-12.306,59.159-32.28,79.878
			c21.737-20.958,35.28-50.365,35.28-82.878C245.303-159.81,193.629-211.472,130.127-211.472"/>
		<polyline fill="#FF00FF" points="104.251,-162.709 104.251,-162.492 104.378,-162.654 104.251,-162.709 		"/>
		<path fill="#FF00FF" d="M167.963-16.715c-0.477,0.286-1.006,0.579-1.56,0.869c-0.762,0.753-1.069,1.43-1.44,2.131
			c0.763-0.458,1.39-0.896,1.762-1.268C167.342-15.606,167.672-16.168,167.963-16.715 M62.621-20.031
			c-0.206,0.051-0.406,0.08-0.595,0.08c-1.181,0-1.732,0.604-2.741,0.604c-0.141,0-0.291-0.012-0.452-0.039l0.788,2.355
			c1.514-0.371,3.364-1.914,3.364-1.914L62.621-20.031 M175.527-24.356c-0.899,0.701-1.835,1.434-2.556,2.007
			c-0.178,0.143-0.338,0.283-0.481,0.42l0.037,0.573c1.577-1.229,3.042-2.359,3.042-2.359L175.527-24.356 M196.31-30.719
			c-0.811,0.76-1.699,1.643-2.433,2.128c-0.183,0.298-0.374,0.592-0.567,0.872c0.492-0.462,0.956-0.879,1.337-1.133
			C195.121-29.173,195.729-29.883,196.31-30.719 M194.732-42.007c-1.281,0.703-2.662,1.63-2.872,2.454
			c-0.043,0.174-0.086,0.358-0.128,0.546c1.19-0.652,2.295-1.111,2.295-1.111l0.505-0.946
			C194.596-41.38,194.664-41.701,194.732-42.007 M200.203-49.071l-2.048,3.838c1.017-0.53,1.872-0.885,1.872-0.885l0.512-0.959
			C200.438-48.058,200.2-49.039,200.203-49.071 M194.205-68.506c-0.491,0.442-0.871,0.884-1.18,1.32
			C193.448-67.624,193.84-68.068,194.205-68.506 M24.624-69.928c0.478,2.098,1.019,4.171,1.619,6.218
			c0.566,0.34,1.2,0.649,2.021,0.981c1.17,0.475,1.925,1.08,2.841,1.742c-0.674-1.883-1.295-3.792-1.862-5.723
			c-0.801-0.481-1.468-1.026-2.345-1.789C25.866-69.419,25.136-69.792,24.624-69.928 M214.854-101.368
			c-0.057,0.038-0.114,0.077-0.172,0.115c-2.285,1.512-2.012,1.215-3.054,2.238c0.157,0.214,0.229,0.429,0.226,0.647
			C213.572-99.524,214.841-100.473,214.854-101.368 M228.314-104.995c0.479,3.4,0.793,6.851,0.937,10.347
			c0.309,0.818,0.557,1.534,0.659,1.963c0.271,1.048,1.397,3.489,2.128,5.359c0.127-1.993,0.302-3.962,0.302-5.979
			c0-1.455-0.029-2.903-0.089-4.344c-0.835-2.218-2.11-5.182-2.11-5.182S229.315-103.928,228.314-104.995 M92.332-114.741
			c-1.171,0.836-2.258,1.754-2.764,2.602c-0.079,0.131-0.157,0.264-0.236,0.398c0.713-0.509,1.456-0.987,2.119-1.4
			C91.732-113.688,92.03-114.226,92.332-114.741 M28.049-121.436c-0.819,1.322-1.479,2.472-1.769,3.199
			c-0.32,0.813-1.171,2.085-2.066,3.468c-1.278,6.125-2.021,12.446-2.178,18.913c0.694-1.676,1.572-5.748,1.302-7.129
			c-0.396-1.985,1.187-6.748,1.187-9.13c0-1.41,1.392-3.648,2.689-5.654C27.471-118.999,27.749-120.221,28.049-121.436
			 M106.085-129.79c-1.325,0.72-2.367,2.005-3,3c0.4-0.217,0.827-0.383,1.276-0.474c0.448-0.519,0.94-1.059,1.278-1.752
			C105.751-129.235,105.9-129.5,106.085-129.79 M31.215-131.878c-1.009,1.227-1.968,2.737-1.473,2.737
			c0.101,0,0.264-0.063,0.499-0.206c0.04-0.023,0.079-0.047,0.119-0.071C30.636-130.242,30.921-131.063,31.215-131.878
			 M154.927-137.206l1.621,1.981c-0.366-0.453-0.913-1.188-1.312-1.959C155.129-137.19,155.025-137.198,154.927-137.206
			 M116.892-137.429c-0.314,0.146-0.648,0.253-0.989,0.331c-0.574,0.797-1.292,1.761-2.011,2.669
			c0.379-0.175,0.729-0.405,1.032-0.708C115.491-135.71,116.191-136.543,116.892-137.429 M168.651-140.834l-0.981,0.544
			c0,0-2.127,0.713-2.019,2.456l2.583-1.432c0,0,0.297-0.054,0.786-0.125c-0.145-0.386-0.256-0.763-0.327-1.127
			C168.671-140.627,168.657-140.732,168.651-140.834 M44.294-143.264c-0.87,0.612-1.878,1.32-2.81,1.972
			c-0.034,0.391-0.104,0.733-0.19,1.028c1.281-0.901,2.264-1.593,2.264-1.593S44.015-142.315,44.294-143.264 M166.296-143.772
			c-0.47,0.177-0.919,0.33-1.389,0.482c-0.386,0.129-1.045,0.174-1.759,0.176c-0.123,0.796,0.047,1.621,0.147,2.341
			c0.728-0.275,1.5-0.61,2.461-1.093C166.437-142.208,166.415-142.918,166.296-143.772 M105.673-147.722l-3.007,0.505
			c0.17,0.517,0.119,1.523,0.007,2.495l0.463-0.078l2.146-0.444v-0.015C105.281-145.258,105.528-146.461,105.673-147.722
			 M136.591-148.372l0.215,2.248c0.381,0.268,0.731,0.51,0.999,0.69c0.563,0.381-0.73,1.615,4.238,2.818v2.718l0.3,0.398
			l4.972-0.378l-1.972-2.622l-0.3,0.023v-0.421l-0.11-0.147l-0.412-0.107l-1.798-1.822
			C140.876-145.937,136.591-148.372,136.591-148.372 M178.051-149.189c-0.039,0.058-0.073,0.113-0.102,0.164
			c0.062-0.05,0.123-0.1,0.185-0.149L178.051-149.189 M42.467-155.492c-0.788,1.069-1.556,2.152-2.304,3.251
			c-0.065,1.069-1.113,1.607-0.939,3.243c1.241-2.129,2.556-4.211,3.939-6.243c0.002-0.034,0.003-0.069,0.003-0.104
			C43.166-155.346,42.871-155.453,42.467-155.492 M117.606-159.413c-0.999,0.338-1.886,0.715-2.302,1.297
			c-0.436,0.61-0.642,1.182-0.698,1.703c1.15-0.389,2.448-0.728,3.35-1.271C117.706-158.158,117.533-158.744,117.606-159.413
			 M104.244-162.492l-0.931,1.023l0.115,0.173l0.815-0.897V-162.492 M118.105-165.796l-4.869,0.934l1.869,2.066l0.395-0.076
			l3.1-2.377L118.105-165.796 M103.429-167.238l-1.576,3.569l0.001,0.001l2.397,0.959v-4.2L103.429-167.238 M110.244-168.492
			l-0.037,0.041l0.037,0.054V-168.492 M66.948-170.061c-0.722,0.532-1.332,1.089-1.838,1.619l1.046-0.379
			C66.156-168.822,66.408-169.325,66.948-170.061 M143.505-172.854c-0.458,0.722-1.139,1.762-1.817,2.673
			c-0.022,0.03-0.045,0.061-0.067,0.092c0.177,0.144,0.355,0.288,0.534,0.431c0.339,0.032,0.548,0.046,0.548,0.046
			s0.662-1.64,1.673-3.129C144.105-172.771,143.812-172.809,143.505-172.854 M58.715-173.052c-0.952,0.818-1.889,1.652-2.812,2.503
			c-0.064,0.168-0.129,0.334-0.188,0.497c0.906-0.779,1.828-1.544,2.762-2.292C58.543-172.574,58.625-172.81,58.715-173.052
			 M110.251-174.417l-3,1.626v1.374l0.648-0.351l2.042,2.935l0.31,0.124V-174.417 M72.984-176.087
			c-1.349,0.987-2.312,2.064-2.934,2.89c-0.022,0.038-0.045,0.074-0.066,0.11c0.043-0.031,0.086-0.062,0.129-0.093
			C72.15-174.639,72.485-175.247,72.984-176.087 M132.409-182.735c-1.371,0.816-2.786,2.589-2.786,2.589s-0.086,0.157-0.214,0.411
			c0.41-0.245,0.816-0.404,1.18-0.404c0.23,0,0.504-0.043,0.808-0.118C131.629-181.13,132.124-182.172,132.409-182.735
			 M89.273-191.17c-0.883,0.22-2.926,1.031-6.016,4.02c1.072-0.455,2.156-0.893,3.247-1.313c-0.076,0.098-0.153,0.195-0.231,0.293
			c0.332-0.083,0.5-0.082,0.5-0.082S88.091-189.685,89.273-191.17"/>
		<path fill="#FFFF00" d="M172.527-21.356c-0.396,0.308-0.797,0.622-1.185,0.926c-0.211,0.378-0.389,0.754-0.617,1.142
			c1.049-0.814,1.844-1.427,1.844-1.427L172.527-21.356 M191.732-39.007c-1.281,0.703-2.662,1.63-2.872,2.454
			c-0.39,1.588-0.787,3.962-0.787,3.962s-1.976,4.358-2.381,5.946c-0.374,1.489,0.316,4.4,1.386,4.4
			c0.065,0,0.133-0.011,0.201-0.034c1.183-0.397,3.176-2.779,4.367-3.572c0.475-0.321,1.082-1.03,1.663-1.867
			c-1.047,0.982-2.226,2.169-3.03,2.439c-0.068,0.023-0.136,0.034-0.201,0.034c-1.069,0-1.76-2.911-1.386-4.4
			c0.405-1.588,2.381-5.946,2.381-5.946S191.389-37.474,191.732-39.007 M197.203-46.071l-1.121,2.101
			c0.41-0.306,0.883-0.603,1.354-0.872C197.329-45.513,197.201-46.048,197.203-46.071 M21.624-66.928
			c4.755,20.879,15.723,39.345,30.843,53.46c0.31,0.086,0.577,0.121,0.818,0.121c1.009,0,1.561-0.604,2.741-0.604
			c1.568,0,3.959-1.993,3.959-1.993l-0.364-1.086c-0.206,0.051-0.406,0.08-0.595,0.08c-1.181,0-1.732,0.604-2.741,0.604
			c-0.241,0-0.509-0.035-0.818-0.121C41.865-29.165,31.625-45.382,26.243-63.709c-0.801-0.481-1.468-1.026-2.345-1.789
			C22.866-66.419,22.136-66.792,21.624-66.928 M185.117-107.129c0.096,0.281,0.173,0.529,0.224,0.732
			c0.397,1.583,1.588,5.549,2.771,7.534c0.911,1.534,5.117,7.049,8.093,11.319c1.319-0.422,2.451-1.035,2.952-1.365
			c1.191-0.782,5.145-2.782,6.335-3.97c1.207-1.187,0.811-0.797,3.191-2.373c1.806-1.208,3.157-2.19,3.172-3.115
			c-0.057,0.038-0.114,0.077-0.172,0.115c-2.381,1.576-1.984,1.187-3.191,2.373c-1.19,1.188-5.144,3.188-6.335,3.97
			c-0.813,0.537-3.288,1.817-5.532,1.817c-1.042,0-2.034-0.276-2.788-1.032c-1.158-1.143-0.81-3.561-1.587-5.152
			C191.766-97.243,188.497-102.17,185.117-107.129 M214.367-109.916c0.758,1.333,2.233,3.841,3.086,4.697
			c0.64,0.642,0.47,1.286-0.195,1.992c1.13,1.011,1.954,1.942,2.921,2.428c1.58,0.798,3.962,3.969,3.962,3.969
			s2.389,5.553,2.77,7.145c0.271,1.048,1.397,3.489,2.128,5.359c0.127-1.993,0.302-3.962,0.302-5.979
			c0-1.455-0.029-2.903-0.089-4.344c-0.835-2.218-2.11-5.182-2.11-5.182s-2.382-3.171-3.962-3.969
			c-1.581-0.794-2.779-2.779-5.558-4.355C216.263-108.933,215.287-109.52,214.367-109.916 M89.332-111.741
			c-1.171,0.836-2.258,1.754-2.764,2.602c-1.195,1.985-2.382,4.367-2.779,6.351c-0.393,1.981-0.393,3.569-0.393,6.339
			c0,2.774-0.397,4.366,0,6.756c0.385,2.366,4.357,8.315,5.938,10.308c1.591,1.985,3.576,4.358,5.564,5.542
			c1.969,1.199,4.756,3.572,4.756,3.572s1.009,1.518,3.029,1.518c0.506,0,1.076-0.096,1.71-0.334
			c3.188-1.191,6.351-1.191,9.138-2.779c1.857-1.049,4.418-2.29,5.915-2.29c0.745,0,1.227,0.307,1.227,1.099
			c0,1.959,1.066,3.392,2.771,3.392c0.367,0,0.765-0.066,1.187-0.208c1.467-0.494,3.53-1.43,4.807-1.43
			c0.797,0,1.288,0.365,1.136,1.43c-0.39,2.779,0.802,6.343,0.802,7.947c0,1.563-0.405,3.159,0.777,4.342
			c1.191,1.191,4.382,3.184,4.382,4.366c0,1.183,0.382,5.152,1.175,6.74c0.794,1.596,1.588,3.969,0.794,5.557
			c-0.794,1.581-2.396,5.947-2.396,5.947s-0.825,3.564-0.43,4.748c0.398,1.198,1.129,2.779,3.112,4.763
			c1.984,1.977,1.461,4.367,2.66,5.946c1.198,1.588,2.397,6.351,2.397,6.351l0.182,3.962v3.564c0,0,8.75-1.191,10.329-1.588
			c1.588-0.397,7.788-3.176,9.367-4.755c0.617-0.624,0.947-1.186,1.238-1.732c-2.48,1.487-6.392,3.184-7.605,3.487
			c-1.579,0.397-10.329,1.588-10.329,1.588v-3.564l-0.182-3.962c0,0-1.199-4.763-2.397-6.351c-1.199-1.579-0.676-3.969-2.66-5.946
			c-1.983-1.984-2.714-3.565-3.112-4.763c-0.396-1.184,0.43-4.748,0.43-4.748s1.603-4.366,2.396-5.947
			c0.794-1.587,0-3.961-0.794-5.557c-0.793-1.588-1.175-5.557-1.175-6.74c0-1.183-3.19-3.175-4.382-4.366
			c-1.183-1.183-0.777-2.779-0.777-4.342c0-1.604-1.191-5.168-0.802-7.947c0.152-1.064-0.339-1.43-1.136-1.43
			c-1.276,0-3.34,0.936-4.807,1.43c-0.422,0.142-0.819,0.208-1.187,0.208c-1.704,0-2.771-1.433-2.771-3.392
			c0-0.792-0.481-1.099-1.227-1.099c-1.497,0-4.058,1.24-5.915,2.29c-2.787,1.588-5.95,1.588-9.138,2.779
			c-0.634,0.239-1.204,0.334-1.71,0.334c-2.021,0-3.029-1.518-3.029-1.518s-2.787-2.374-4.756-3.572
			c-1.988-1.183-3.974-3.557-5.564-5.542c-1.581-1.993-5.554-7.942-5.938-10.308c-0.397-2.39,0-3.982,0-6.756
			c0-2.771,0-4.358,0.393-6.339C87.16-107.641,88.22-109.841,89.332-111.741 M206.747-113.081c0.071,0.686,1.258,1.605,2.923,2.115
			C208.719-111.44,207.754-112.244,206.747-113.081 M103.085-126.79c-1.711,0.929-2.95,2.801-3.445,3.774
			c-0.778,1.596-2.375,2.381-2.375,3.969c0,0.007,0,0.015,0,0.022c0.878-0.551,1.638-0.999,2.035-1.266
			c0.121-0.081,0.26-0.178,0.409-0.29c0.339-0.515,0.556-1.021,0.556-1.466c0-1.588,1.597-2.373,2.375-3.969
			C102.751-126.235,102.9-126.5,103.085-126.79 M165.651-137.834l-0.981,0.544c0,0-2.382,0.798-1.977,2.771
			c0.389,1.984,1.977,4.374,3.564,6.351c1.365,1.721,2.445,3.727,3.471,3.727c0.162,0,0.322-0.05,0.482-0.159
			c1.207-0.798,5.177-3.171,5.177-3.171s-0.811,2.77-0.405,4.755c0.09,0.436,0.159,0.91,0.213,1.386
			c0.346,0.175,0.696,0.345,1.036,0.516c0.89-0.146,2.156-0.146,2.156-0.146s0-2.779-0.405-4.756
			c-0.405-1.985,0.405-4.755,0.405-4.755s-3.97,2.373-5.177,3.171c-0.16,0.109-0.32,0.159-0.482,0.159
			c-1.025,0-2.105-2.006-3.471-3.727c-1.588-1.978-3.176-4.367-3.564-6.351C165.671-137.627,165.657-137.732,165.651-137.834
			 M41.294-140.264c-1.593,1.12-3.647,2.561-4.849,3.395c-0.431,0.61-0.76,1.173-0.825,1.482c2.274-1.593,4.938-3.47,4.938-3.47
			S41.015-139.315,41.294-140.264 M163.296-140.772c-0.47,0.177-0.919,0.33-1.389,0.482c-0.395,0.132-1.076,0.176-1.811,0.176
			c-0.632,0-1.302-0.033-1.86-0.07c0.398,0.771,0.945,1.506,1.312,1.959l-1.621-1.981c-0.577-0.042-0.974-0.084-0.974-0.084
			c-2.697,0-2.483,1.621-1.717,3.106c0.559,0.037,1.229,0.07,1.86,0.07c0.734,0,1.416-0.044,1.811-0.176
			c1.198-0.388,2.27-0.782,3.85-1.575C163.437-139.208,163.415-139.918,163.296-140.772 M102.673-144.722l-3.007,0.505
			c0.39,1.187-0.385,4.958-0.385,4.958v6.724c0,0,5.725,1.584,6.919,1.584c0.195,0,0.438,0.011,0.713,0.022
			c1.011-1.216,2.473-2.413,4.212-2.413c0.509,0,1.041,0.103,1.594,0.337c0.374-0.433,0.773-0.92,1.173-1.426
			c-0.94,0.435-2.05,0.526-3.003,0.526c-0.684,0-1.286-0.047-1.688-0.047c-1.194,0-6.919-1.584-6.919-1.584v-6.724
			C102.281-142.258,102.528-143.461,102.673-144.722 M145.723-147.973l1.798,1.822l0.412,0.107l2.382,3.167l-3.683,0.28
			c0.806,0.541,1.398,0.957,1.398,0.957l2.35,5.545l3.168,3.87c-1.072-1.326-3.691-5.065,0.405-5.065c0,0,0.396,0.042,0.974,0.084
			l-1.547-1.889l-2.35-5.545c0,0-3.382-2.374-4.97-3.16C145.96-147.85,145.847-147.908,145.723-147.973 M133.875-148.217
			c0,0-4.669,0.798-5.863,1.195s-1.529,1.588-3.894,2.374c-0.617,0.206-1.146,0.438-1.606,0.689
			c-0.439,0.632-1.083,1.524-1.784,2.449c0.126-0.047,0.257-0.093,0.391-0.138c2.364-0.786,2.699-1.977,3.894-2.374
			s5.863-1.195,5.863-1.195s2.755,1.993,3.93,2.783c0.563,0.381-0.73,1.615,4.238,2.818v3.139l5.271-0.401l-1.972-2.622l-0.3,0.023
			v-0.421l-0.11-0.147l-0.412-0.107l-4.588-4.648l-0.127-1.325C135.517-147.029,133.875-148.217,133.875-148.217 M177.949-149.025
			c-1.795,1.459-3.788,3.462-2.872,3.462c0.075,0,0.171-0.014,0.287-0.042c0.143-0.036,0.3-0.053,0.471-0.053
			c0.212,0,0.443,0.026,0.688,0.073c0.923-0.101,2.017-0.187,3.065-0.187c0.631,0,1.246,0.031,1.799,0.108
			c1.285,0.185,2.918,0.37,4.296,0.516c-0.129-0.259-0.313-0.494-0.572-0.688c-1.438-1.08-4.535-2.822-6.276-2.823
			c-0.171,0-0.328,0.017-0.471,0.053c-0.116,0.029-0.212,0.042-0.287,0.042C177.806-148.563,177.79-148.739,177.949-149.025
			 M139.806-149.124l0.127,1.325l2.79,2.826c0.124,0.065,0.237,0.124,0.338,0.174c0.526,0.26,1.25,0.696,1.982,1.161v-1.977
			c-4.969-1.203-3.675-2.438-4.238-2.818C140.537-148.614,140.187-148.856,139.806-149.124 M39.467-152.492
			c-12.389,16.802-19.891,37.348-20.431,59.637c0.694-1.676,1.572-5.748,1.302-7.129c-0.396-1.985,1.187-6.748,1.187-9.13
			c0-1.41,1.392-3.648,2.689-5.654c2.847-13.642,8.351-26.312,15.949-37.473c0.002-0.034,0.003-0.069,0.003-0.104
			C40.166-152.346,39.871-152.453,39.467-152.492 M176.736-152.972c0,0-3.985,1.985-5.185,2.382
			c-0.597,0.196-1.418,0.497-2.29,1.001c-0.19,0.578-0.179,1.186-0.113,1.771c1.574-0.652,4.588-2.153,4.588-2.153l4.314,0.783
			c0.48-0.708,1.731-1.887,2.898-2.836c0.028-0.051,0.063-0.106,0.102-0.164L176.736-152.972 M114.606-156.413
			c-0.999,0.338-1.886,0.715-2.302,1.297c-1.104,1.549-0.734,2.853-0.192,3.701l2.819-0.583l0.199-0.14l0.941-1.223
			C116.072-153.361,114.404-154.568,114.606-156.413 M100.429-164.238l-1.576,3.569l1.576,2.374l2.885-3.173l-1.46-2.2
			L100.429-164.238 M107.244-165.192l-0.815,0.897l-0.115-0.173l-2.069,2.276v3.905l8.256-1.584l3.1-2.377l-0.494-0.547
			l-7.861,1.508V-165.192 M55.715-170.052c-0.952,0.818-1.889,1.652-2.812,2.503c-0.179,0.464-0.349,0.905-0.461,1.326
			c-0.161,0.638,0.255,0.829,0.811,0.829c0.831,0,1.977-0.428,1.977-0.428l3.56,1.583l4.367-1.583c0,0,0.606-1.211,1.954-2.621
			l-3.321,1.204l-3.56-1.583c0,0-1.146,0.428-1.977,0.428c-0.556,0-0.972-0.191-0.811-0.829
			C55.514-169.49,55.608-169.767,55.715-170.052 M107.251-171.417l-3,1.626v2.882l0.603,0.241l-0.001-0.001l1.576-3.569l0.822,0.329
			V-171.417 M69.049-171.783l-0.938,0.34c-0.479,0.5-0.864,0.977-1.162,1.381c0.055-0.04,0.109-0.08,0.165-0.119
			C68.068-170.864,68.649-171.361,69.049-171.783 M69.984-173.087c-0.012,0.009-0.023,0.018-0.036,0.026
			c-0.332,0.453-0.555,0.817-0.678,1.031C69.581-172.398,69.768-172.721,69.984-173.087 M147.482-175.896
			c-1.07,1.527-1.78,3.285-1.78,3.285s-0.464-0.032-1.133-0.106c0.616,1.26,1.605,3.322,1.873,4.122
			c0.112,0.343,0.094,0.881,0.012,1.474c0.643-0.164,1.661-0.669,2.626-1.201c0.292-1.124,0.586-2.588,0.362-3.273
			C149.161-172.435,148.088-174.663,147.482-175.896 M129.409-179.735c-1.371,0.816-2.786,2.589-2.786,2.589
			s-2.386,4.359-0.827,4.359c0.122,0,0.269-0.027,0.442-0.084c1.087-0.367,2.348-0.573,3.429-0.573c1.271,0,2.296,0.285,2.502,0.931
			c0.212,0.616,0.525,1.446,0.834,2.268c0.263-0.256,0.526-0.517,0.791-0.782c0,0,1.058-0.638,2.555-1.293
			c-0.4-1.084-0.888-2.342-1.18-3.193c-0.206-0.646-1.23-0.931-2.502-0.931c-1.081,0-2.342,0.207-3.429,0.573
			c-0.174,0.058-0.32,0.084-0.442,0.084C127.533-175.787,128.86-178.649,129.409-179.735 M86.273-188.17
			c-0.783,0.195-2.478,0.855-5.005,3.084c-0.941,1.01-1.639,1.747-2.164,2.294c3.055-2.465,4.669-2.461,4.669-2.461
			S85.091-186.685,86.273-188.17 M127.127-208.472c-30.99,0-59.161,12.304-79.886,32.285c-0.489,0.508-0.979,1.024-1.459,1.541
			c20.569-19.117,48.118-30.826,78.345-30.826c63.502,0,115.176,51.662,115.176,115.168c0,30.23-11.706,57.772-30.821,78.337
			c0.52-0.483,1.03-0.967,1.541-1.459c19.975-20.72,32.28-48.889,32.28-79.878C242.303-156.81,190.629-208.472,127.127-208.472"/>
		<path fill="#FFFFFF" d="M142.723-144.973l1.798,1.822l0.412,0.107l0.11,0.147v-0.742c-0.732-0.465-1.456-0.9-1.982-1.161
			C142.96-144.85,142.847-144.908,142.723-144.973 M136.806-146.124l0.127,1.325l4.588,4.648l0.412,0.107l0.11,0.147v-2.718
			c-4.969-1.203-3.675-2.438-4.238-2.818C137.537-145.614,137.187-145.856,136.806-146.124 M173.736-149.972
			c0,0-3.014,1.501-4.588,2.153c0.145,1.296,0.552,2.477-0.392,2.953c-0.961,0.482-1.733,0.817-2.461,1.093
			c0.119,0.854,0.141,1.564-0.539,1.907c-0.961,0.482-1.733,0.817-2.461,1.093c0.119,0.854,0.141,1.564-0.539,1.907
			c-1.58,0.793-2.651,1.187-3.85,1.575c-0.395,0.132-1.076,0.176-1.811,0.176c-0.632,0-1.302-0.033-1.86-0.07
			c0.398,0.771,0.945,1.506,1.312,1.959l-1.621-1.981c-0.577-0.042-0.974-0.084-0.974-0.084c-4.097,0-1.478,3.74-0.405,5.065
			l-3.168-3.87l-2.35-5.545c0,0-0.593-0.416-1.398-0.957l-1.289,0.098l1.972,2.622l-4.972,0.378l1.972,2.622l-5.271,0.401v-3.139
			c-4.969-1.203-3.675-2.438-4.238-2.818c-1.175-0.79-3.93-2.783-3.93-2.783s-4.669,0.798-5.863,1.195s-1.529,1.588-3.894,2.374
			c-0.134,0.045-0.265,0.091-0.391,0.138c-0.951,1.255-2.008,2.569-2.804,3.373c-0.303,0.303-0.653,0.533-1.032,0.708
			c-0.7,0.886-1.4,1.719-1.968,2.292c-0.303,0.303-0.653,0.533-1.032,0.708c-0.399,0.505-0.799,0.993-1.173,1.426
			c0.022,0.01,0.046,0.02,0.069,0.03c0,0,3.159-0.393,4.347-0.79s4.357-1.576,5.926-2.373c1.588-0.794,5.538-1.171,5.538-1.171
			s3.119,1.247,4.307,1.247c1.187,0,5.057-0.695,5.057-0.695s1.795,5.748,1.795,6.946c0,1.195,1.183,2.374,3.176,3.168
			c1.149,0.474,4.785,1.359,8.392,1.359c2.521,0,5.026-0.432,6.66-1.74c0.148-0.117,0.352-0.166,0.586-0.166
			c1.235,0,3.375,1.353,3.375,1.353s9.907,1.985,11.495,3.171c0.502,0.376,1.119,0.712,1.755,1.035
			c-0.054-0.476-0.123-0.95-0.213-1.386c-0.405-1.985,0.405-4.755,0.405-4.755s-3.97,2.373-5.177,3.171
			c-0.16,0.109-0.32,0.159-0.482,0.159c-1.025,0-2.105-2.006-3.471-3.727c-1.588-1.978-3.176-4.367-3.564-6.351
			c-0.405-1.973,1.977-2.771,1.977-2.771l0.981-0.544c-0.108-1.743,2.019-2.456,2.019-2.456l0.981-0.544
			c-0.108-1.743,2.019-2.456,2.019-2.456l3.564-1.976c0,0,0.971-0.175,2.289-0.319c-0.245-0.047-0.477-0.073-0.688-0.073
			c-0.171,0-0.328,0.017-0.471,0.053c-0.116,0.029-0.212,0.042-0.287,0.042c-0.916,0,1.077-2.003,2.872-3.462
			c0.028-0.051,0.063-0.106,0.102-0.164L173.736-149.972 M144.375-172.74c-1.011,1.489-1.673,3.129-1.673,3.129
			s-0.209-0.015-0.548-0.046c1.69,1.35,3.393,2.591,3.937,2.591c0.101,0,0.223-0.02,0.363-0.056
			c0.082-0.593,0.101-1.131-0.012-1.474c-0.268-0.8-1.257-2.862-1.873-4.122C144.507-172.725,144.441-172.732,144.375-172.74
			 M200.539-47.078l2.664-4.994c-0.003,0.041,0.381,1.613,0.381,2.77c0,1.191-0.396,4.366-0.793,5.954
			c-0.413,1.588-1.199,4.366-1.588,5.938c-0.397,1.588-2.382,4.764-3.557,5.558c-0.381,0.254-0.845,0.67-1.337,1.133
			c-0.581,0.836-1.188,1.546-1.663,1.867c-0.381,0.254-0.845,0.67-1.337,1.133c-0.581,0.837-1.188,1.546-1.663,1.867
			c-1.191,0.793-3.185,3.175-4.367,3.572c-0.068,0.023-0.136,0.034-0.201,0.034c-1.069,0-1.76-2.911-1.386-4.4
			c0.405-1.588,2.381-5.946,2.381-5.946s0.397-2.374,0.787-3.962c0.21-0.823,1.591-1.751,2.872-2.454
			c0.042-0.188,0.085-0.372,0.128-0.546c0.21-0.823,1.591-1.751,2.872-2.454c0.042-0.188,0.085-0.372,0.128-0.546
			c0.117-0.458,0.597-0.95,1.222-1.417l1.121-2.101c-0.002,0.023,0.126,0.559,0.233,1.229c0.243-0.138,0.485-0.27,0.719-0.392
			l2.048-3.838C200.2-49.039,200.438-48.058,200.539-47.078 M29.243-66.709c-0.601-2.047-1.142-4.121-1.619-6.218
			c0.512,0.135,1.242,0.508,2.274,1.429c1.496,1.302,2.382,1.969,4.366,2.771c1.977,0.802,2.771,1.977,5.152,3.168
			c2.382,1.199,1.596,0.413,4.756,3.969c3.179,3.557,2.782,3.557,3.572,5.557c0.785,1.985,1.981,3.953,2.778,5.16
			c0.798,1.191,3.172,1.969,4.358,2.771c1.187,0.801,3.168,1.579,4.354,1.579c1.195,0,4.768,3.573,6.749,3.97
			c1.983,0.397,1.983,4.366,1.983,4.366l-1.983,5.542l-1.593,5.947l1.593,4.755c0,0-1.851,1.543-3.364,1.914l0.364,1.086
			c0,0-1.851,1.543-3.364,1.914l0.364,1.086c0,0-2.391,1.993-3.959,1.993c-1.181,0-1.732,0.604-2.741,0.604
			c-0.241,0-0.509-0.035-0.818-0.121c-15.12-14.115-26.088-32.581-30.843-53.46c0.512,0.135,1.242,0.508,2.274,1.429
			c0.877,0.763,1.544,1.308,2.345,1.789c-0.601-2.047-1.142-4.121-1.619-6.218c0.512,0.135,1.242,0.508,2.274,1.429
			C27.775-67.736,28.442-67.191,29.243-66.709 M43.163-155.241c0.748-1.099,1.516-2.182,2.304-3.251
			c0.404,0.04,0.699,0.146,0.699,0.146c0,1.584-2.164,1.969,0,5.951c2.767,5.156,0.392,7.538,0.392,7.538s-0.982,0.692-2.264,1.593
			c-0.279,0.949-0.736,1.407-0.736,1.407s-0.982,0.692-2.264,1.593c-0.279,0.949-0.736,1.407-0.736,1.407s-2.663,1.877-4.938,3.47
			c-0.033,0.156,0,0.247,0.122,0.247c0.101,0,0.264-0.063,0.499-0.206c1.034-0.619,2.175-1.239,2.749-1.239
			c0.526,0,0.576,0.52-0.367,2.037c-1.984,3.176-5.553,8.324-6.343,10.313c-0.785,1.993-4.756,6.74-4.756,9.122
			s-1.583,7.145-1.187,9.13c0.271,1.381-0.607,5.453-1.302,7.129c0.156-6.467,0.899-12.788,2.178-18.913
			c-1.298,2.006-2.689,4.245-2.689,5.654c0,2.382-1.583,7.145-1.187,9.13c0.271,1.381-0.607,5.453-1.302,7.129
			c0.156-6.467,0.899-12.788,2.178-18.913c-1.298,2.006-2.689,4.245-2.689,5.654c0,2.382-1.583,7.145-1.187,9.13
			c0.271,1.381-0.607,5.453-1.302,7.129c0.54-22.289,8.042-42.834,20.431-59.637c0.404,0.04,0.699,0.146,0.699,0.146
			c0,0.035-0.001,0.07-0.003,0.104c0.748-1.099,1.516-2.182,2.304-3.251c0.404,0.04,0.699,0.146,0.699,0.146
			C43.166-155.311,43.165-155.275,43.163-155.241 M110.251-174.417v-1.374l3.648-1.977l3.032,4.358l4.668,5.161l-3.1,2.377
			l-0.395,0.076l0.494,0.547l-3.1,2.377l-0.395,0.076l0.494,0.547l-3.1,2.377l-8.256,1.584v-3.905l-0.815,0.897l-0.115-0.173
			l-2.885,3.173l-1.576-2.374l1.576-3.569l1.425,0.57l-0.001-0.001l1.576-3.569l0.822,0.329v-2.882l3-1.626v-1.374L110.251-174.417
			 M132.409-182.735c0.128-0.254,0.214-0.411,0.214-0.411s2.39-2.993,3.966-2.993c1.58,0,5.169-2.032,6.732-2.422
			c1.595-0.401,6.358-2.211,8.327-2.211c1.985,0,4.367,0.854,5.565,0.854s5.946,0,5.946,0l8.311-0.667c0,0,7.146,2.64,4.756,4.235
			c0,0,2.795,1.714,3.978,2.901c0.22,0.222,0.51,0.315,0.846,0.315c1.359,0,3.475-1.53,4.799-2.269
			c29.66,18.617,49.491,51.551,49.491,89.098c0,2.017-0.175,3.985-0.302,5.979c-0.73-1.87-1.857-4.312-2.128-5.359
			c-0.103-0.429-0.351-1.145-0.659-1.963c0.06,1.44,0.089,2.889,0.089,4.344c0,2.017-0.175,3.985-0.302,5.979
			c-0.73-1.87-1.857-4.312-2.128-5.359c-0.103-0.429-0.351-1.145-0.659-1.963c0.06,1.44,0.089,2.889,0.089,4.344
			c0,2.017-0.175,3.985-0.302,5.979c-0.73-1.87-1.857-4.312-2.128-5.359c-0.381-1.591-2.77-7.145-2.77-7.145
			s-2.382-3.171-3.962-3.969c-0.967-0.486-1.791-1.417-2.921-2.428c-0.535,0.569-1.392,1.178-2.403,1.858
			c-0.014,0.896-1.282,1.844-3,3c-0.015,0.925-1.366,1.907-3.172,3.115c-2.381,1.576-1.984,1.187-3.191,2.373
			c-1.19,1.188-5.144,3.188-6.335,3.97c-0.501,0.331-1.633,0.943-2.952,1.365c0.891,1.278,1.671,2.445,2.22,3.36l7.146-1.19
			c0,0-0.794,3.556-1.588,4.755c-0.794,1.183-3.176,4.358-4.358,5.946c-1.199,1.58-2.771,3.961-5.152,5.938
			c-0.092,0.077-0.181,0.153-0.266,0.23c-0.365,0.438-0.757,0.882-1.18,1.32c-1.018,1.441-1.256,2.83-2.127,4.007
			c-1.183,1.58-2.779,5.145-2.779,5.145s0.794,7.938,1.191,9.526c0.389,1.587-2.779,5.938-2.779,5.938l-3.572,3.581l-4.779,6.327
			l0.39,5.947c0,0-1.465,1.13-3.042,2.359l0.042,0.641c0,0-1.465,1.13-3.042,2.359l0.042,0.641c0,0-0.795,0.613-1.844,1.427
			c-0.243,0.415-0.543,0.843-1.001,1.306c-0.372,0.372-0.999,0.81-1.762,1.268c-0.291,0.547-0.621,1.109-1.238,1.732
			c-0.372,0.372-0.999,0.81-1.762,1.268c-0.291,0.547-0.621,1.109-1.238,1.732c-1.579,1.579-7.779,4.358-9.367,4.755
			c-1.579,0.397-10.329,1.588-10.329,1.588v-3.564l-0.182-3.962c0,0-1.199-4.763-2.397-6.351c-1.199-1.579-0.676-3.969-2.66-5.946
			c-1.983-1.984-2.714-3.565-3.112-4.763c-0.396-1.184,0.43-4.748,0.43-4.748s1.603-4.366,2.396-5.947
			c0.794-1.587,0-3.961-0.794-5.557c-0.793-1.588-1.175-5.557-1.175-6.74c0-1.183-3.19-3.175-4.382-4.366
			c-1.183-1.183-0.777-2.779-0.777-4.342c0-1.604-1.191-5.168-0.802-7.947c0.152-1.064-0.339-1.43-1.136-1.43
			c-1.276,0-3.34,0.936-4.807,1.43c-0.422,0.142-0.819,0.208-1.187,0.208c-1.704,0-2.771-1.433-2.771-3.392
			c0-0.792-0.481-1.099-1.227-1.099c-1.497,0-4.058,1.24-5.915,2.29c-2.787,1.588-5.95,1.588-9.138,2.779
			c-0.634,0.239-1.204,0.334-1.71,0.334c-2.021,0-3.029-1.518-3.029-1.518s-2.787-2.374-4.756-3.572
			c-1.988-1.183-3.974-3.557-5.564-5.542c-1.581-1.993-5.554-7.942-5.938-10.308c-0.397-2.39,0-3.982,0-6.756
			c0-2.771,0-4.358,0.393-6.339c0.397-1.984,1.584-4.366,2.779-6.351c0.506-0.848,1.593-1.766,2.764-2.602
			c0.079-0.134,0.157-0.267,0.236-0.398c0.506-0.848,1.593-1.766,2.764-2.602c0.079-0.134,0.157-0.267,0.236-0.398
			c0.786-1.315,2.97-2.802,4.696-3.886c0-0.007,0-0.015,0-0.022c0-1.588,1.597-2.373,2.375-3.969
			c0.495-0.974,1.734-2.846,3.445-3.774c0.633-0.995,1.675-2.28,3-3c0.226-0.355,0.504-0.748,0.828-1.138
			c-0.275-0.012-0.518-0.022-0.713-0.022c-1.194,0-6.919-1.584-6.919-1.584v-6.724c0,0,0.774-3.771,0.385-4.958l3.007-0.505
			c0.112-0.972,0.163-1.978-0.007-2.495l3.007-0.505c0.112-0.972,0.163-1.978-0.007-2.495l3.47-0.583l2.977-0.616
			c-0.542-0.848-0.912-2.152,0.192-3.701c0.416-0.583,1.303-0.959,2.302-1.297c0.057-0.521,0.263-1.093,0.698-1.703
			c0.416-0.583,1.303-0.959,2.302-1.297c0.057-0.521,0.263-1.093,0.698-1.703c0.953-1.334,4.375-1.588,5.959-2.775
			c1.579-1.187,3.977-1.981,3.977-1.981s2.275-1.946,4.763-4.375c-0.309-0.822-0.622-1.652-0.834-2.268
			c-0.206-0.646-1.23-0.931-2.502-0.931c-1.081,0-2.342,0.207-3.429,0.573c-0.174,0.058-0.32,0.084-0.442,0.084
			c-1.559,0,0.827-4.359,0.827-4.359s1.415-1.772,2.786-2.589c0.128-0.254,0.214-0.411,0.214-0.411S131.038-181.919,132.409-182.735
			 M58.715-173.052c0.06-0.163,0.124-0.328,0.188-0.497c9.7-8.951,21.065-16.088,33.602-20.915
			c-1.235,1.583-2.731,3.211-2.731,3.211s-0.169,0-0.5,0.082c-1.183,1.485-2.5,2.918-2.5,2.918s-0.168,0-0.5,0.082
			c-1.183,1.485-2.5,2.918-2.5,2.918s-1.614-0.004-4.669,2.461c-1.98,2.063-1.513,1.436-2.414,2.633
			c-1.188,1.58-0.794,1.985-3.577,3.978c-0.043,0.031-0.086,0.062-0.129,0.093c-0.499,0.841-0.834,1.449-2.871,2.907
			c-0.043,0.031-0.086,0.062-0.129,0.093c-0.217,0.367-0.403,0.689-0.714,1.057c-0.077,0.134-0.114,0.208-0.114,0.208l-0.107,0.039
			c-0.399,0.421-0.98,0.918-1.936,1.603c-0.056,0.04-0.11,0.08-0.165,0.119c-0.54,0.736-0.792,1.239-0.792,1.239l-1.046,0.379
			c-1.348,1.41-1.954,2.621-1.954,2.621l-4.367,1.583l-3.56-1.583c0,0-1.146,0.428-1.977,0.428c-0.556,0-0.972-0.191-0.811-0.829
			c0.112-0.42,0.282-0.861,0.461-1.326c0.923-0.851,1.859-1.685,2.812-2.503c0.06-0.163,0.124-0.328,0.188-0.497
			C56.826-171.399,57.763-172.233,58.715-173.052 M124.127-205.472c-30.227,0-57.775,11.709-78.345,30.826
			c-19.118,20.568-30.825,48.112-30.825,78.342c0,63.507,51.67,115.165,115.169,115.165c30.231,0,57.784-11.708,78.354-30.828
			c19.115-20.565,30.821-48.107,30.821-78.337C239.303-153.81,187.629-205.472,124.127-205.472"/>
	</g>
</g>
</svg>
