<?xml version="1.0" encoding="utf-8"?>
<!-- Generator: Adobe Illustrator 16.0.0, SVG Export Plug-In . SVG Version: 6.00 Build 0)  -->
<!DOCTYPE svg PUBLIC "-//W3C//DTD SVG 1.1//EN" "http://www.w3.org/Graphics/SVG/1.1/DTD/svg11.dtd">
<svg version="1.1" xmlns="http://www.w3.org/2000/svg" xmlns:xlink="http://www.w3.org/1999/xlink" x="0px" y="0px" width="253.5px"
	 height="250.5px" viewBox="0 -218.5 253.5 250.5" enable-background="new 0 -218.5 253.5 250.5" xml:space="preserve">
<g id="Layer_1">
</g>
<g id="Layer_1_copy">
</g>
<g id="Layer_1_copy_2">
	<g>
		<path fill="#0000FF" d="M195.615-42.467c-0.348,0.172-0.73,0.372-1.116,0.59l-1.472,2.759c0,0-0.61,0.253-1.412,0.651
			c-0.295,1.401-0.542,2.875-0.542,2.875s-1.976,4.358-2.381,5.946c-0.374,1.489,0.316,4.4,1.386,4.4
			c0.065,0,0.133-0.011,0.201-0.034c0.581-0.195,1.357-0.869,2.139-1.599c0.533-0.786,1.035-1.666,1.382-2.434
			c-0.906-0.443-1.448-2.978-1.107-4.333c0.405-1.588,2.381-5.946,2.381-5.946S195.32-41.065,195.615-42.467 M26.783-61.929
			c5.511,17.598,15.524,33.177,28.684,45.461c0.31,0.086,0.577,0.121,0.818,0.121c0.791,0,1.301-0.371,2.053-0.531l-0.945-2.821
			l0.585-2.186C47.534-32.018,39.18-44.274,33.633-57.976c-0.297-0.142-0.675-0.312-1.216-0.584
			c-2.382-1.191-3.176-2.366-5.152-3.168C27.097-61.796,26.937-61.863,26.783-61.929 M91.916-113.044
			c-0.676,0.422-1.77,1.069-2.878,1.814c-1,1.775-1.911,3.753-2.249,5.442c-0.393,1.981-0.393,3.569-0.393,6.339
			c0,2.774-0.397,4.366,0,6.756c0.385,2.366,4.357,8.315,5.938,10.308c1.591,1.985,3.576,4.358,5.564,5.542
			c1.969,1.199,4.756,3.572,4.756,3.572s1.009,1.518,3.028,1.518c0.507,0,1.077-0.096,1.711-0.334
			c3.188-1.191,6.351-1.191,9.138-2.779c1.857-1.049,4.418-2.29,5.915-2.29c0.745,0,1.227,0.308,1.227,1.099
			c0,1.959,1.066,3.392,2.771,3.392c0.367,0,0.765-0.066,1.187-0.208c1.467-0.494,3.53-1.43,4.807-1.43
			c0.798,0,1.288,0.365,1.136,1.43c-0.39,2.779,0.802,6.343,0.802,7.947c0,1.563-0.405,3.159,0.777,4.342
			c1.191,1.191,4.382,3.184,4.382,4.366c0,1.183,0.382,5.152,1.175,6.74c0.794,1.596,1.588,3.969,0.794,5.557
			c-0.794,1.581-2.396,5.947-2.396,5.947s-0.825,3.564-0.43,4.748c0.398,1.198,1.129,2.779,3.112,4.763
			c1.984,1.977,1.461,4.367,2.66,5.946c1.198,1.588,2.397,6.351,2.397,6.351l0.182,3.962v3.564c0,0,8.75-1.191,10.329-1.588
			c1.108-0.277,4.463-1.714,6.925-3.094c0.351-0.645,0.775-1.294,1.689-2.028c0.618-0.492,1.394-1.101,2.169-1.706
			c0.047-0.089,0.094-0.177,0.142-0.266c-2.462,1.38-5.816,2.817-6.925,3.094c-1.579,0.397-10.329,1.588-10.329,1.588v-3.564
			l-0.182-3.962c0,0-1.199-4.763-2.397-6.351c-1.199-1.579-0.676-3.969-2.66-5.946c-1.983-1.984-2.714-3.565-3.112-4.763
			c-0.396-1.184,0.43-4.748,0.43-4.748s1.603-4.366,2.396-5.947c0.794-1.587,0-3.961-0.794-5.557
			c-0.793-1.588-1.175-5.557-1.175-6.74c0-1.183-3.19-3.175-4.382-4.366c-1.183-1.183-0.777-2.779-0.777-4.342
			c0-1.604-1.191-5.168-0.802-7.947c0.152-1.065-0.338-1.43-1.136-1.43c-1.276,0-3.34,0.936-4.807,1.43
			c-0.422,0.142-0.819,0.208-1.187,0.208c-1.704,0-2.771-1.432-2.771-3.392c0-0.792-0.481-1.099-1.227-1.099
			c-1.497,0-4.058,1.24-5.915,2.29c-2.787,1.588-5.95,1.588-9.138,2.779c-0.634,0.239-1.204,0.334-1.711,0.334
			c-2.02,0-3.028-1.518-3.028-1.518s-2.787-2.374-4.756-3.572c-1.988-1.183-3.974-3.557-5.564-5.542
			c-1.581-1.993-5.554-7.942-5.938-10.308c-0.397-2.39,0-3.982,0-6.756c0-2.771,0-4.358,0.393-6.339
			C90.992-110.804,91.403-111.925,91.916-113.044 M205.118-120.285c-0.444,0-0.542,0.197-0.542,0.197s3.168,4.755,3.168,5.942
			c0,0.997,2.511,2.558,5.441,2.558c0.558,0,1.13-0.057,1.703-0.184c0,0,0.854,1.566,1.794,3.078
			c0.293,0.169,0.604,0.349,0.938,0.541c2.778,1.576,3.977,3.561,5.558,4.355c1.58,0.798,3.962,3.969,3.962,3.969
			s0.379,0.881,0.859,2.043c-0.281-3.494-0.733-6.939-1.351-10.328c-1.346-0.926-2.567-2.643-5.028-4.039
			c-2.778-1.595-3.953-2.382-6.335-2.382s-4.747-3.179-7.542-4.763C206.355-120.088,205.563-120.285,205.118-120.285
			 M104.125-126.34c-0.514,0-1.003,0.104-1.464,0.283c-0.007,0.014-0.015,0.028-0.021,0.042c-0.778,1.596-2.375,2.381-2.375,3.969
			c0,0.293-0.094,0.613-0.255,0.944c0.11-0.07,0.208-0.133,0.29-0.188c1.187-0.79,3.965-3.164,3.965-4.756
			c0-0.1,0.006-0.197,0.019-0.291C104.23-126.339,104.177-126.34,104.125-126.34 M106.661-130.058
			c-0.113,0.044-0.226,0.092-0.336,0.145c0.085,0.002,0.171,0.005,0.259,0.006c0.02-0.036,0.038-0.072,0.056-0.109
			C106.646-130.029,106.654-130.043,106.661-130.058 M170.818-138.703c-1.926,0.138-3.584,0.437-3.584,0.437l-1.521,0.843
			c0.42,1.965,1.982,4.31,3.545,6.255c1.365,1.721,2.445,3.727,3.471,3.727c0.162,0,0.322-0.05,0.482-0.159
			c1.207-0.798,5.177-3.171,5.177-3.171s-0.811,2.77-0.405,4.755c0.334,1.63,0.393,3.806,0.403,4.519
			c0.531,0.317,0.968,0.648,1.216,1.017c0.801,1.19,3.563,4.759,3.952,5.945c0.405,1.188,2.391,5.558,2.787,7.138
			c0.205,0.818,0.622,2.271,1.141,3.759c2.417,3.594,4.399,6.626,4.768,7.361c0.216,0.441,0.345,0.945,0.442,1.469
			c1.091,1.492,2.288,3.129,3.402,4.69c0.175,0.017,0.352,0.025,0.53,0.025c2.244,0,4.72-1.281,5.532-1.817
			c1.191-0.782,5.145-2.782,6.335-3.97c1.031-1.014,0.892-0.877,2.315-1.799c-0.06-0.181-0.175-0.36-0.354-0.54
			c-0.038-0.038-0.077-0.08-0.118-0.125c-1.565,0.956-3.425,1.938-4.179,2.433c-0.813,0.537-3.288,1.817-5.532,1.817
			c-1.042,0-2.035-0.276-2.788-1.032c-1.158-1.143-0.81-3.561-1.587-5.152c-0.794-1.587-9.114-13.877-13.084-19.422
			c-0.698-0.977-2.382-3.982-3.563-4.755c-1.184-0.806,2.786-0.806,2.786-0.806s0-2.779-0.405-4.756
			c-0.405-1.985,0.405-4.755,0.405-4.755s-3.97,2.373-5.177,3.171c-0.16,0.108-0.32,0.159-0.482,0.159
			c-1.025,0-2.105-2.006-3.471-3.727C172.376-136.266,171.494-137.491,170.818-138.703 M40.505-140.911
			c-0.394,0.273-0.702,0.485-0.882,0.606c-0.647,0.434-1.887,1.929-2.557,3.003c0.949-0.662,2.183-1.527,3.319-2.325
			C40.465-139.995,40.513-140.423,40.505-140.911 M160.953-144.29c-3.376,0-2.191,2.54-1.069,4.175c0.071,0,0.143,0.001,0.213,0.001
			c0.734,0,1.416-0.044,1.811-0.176c0.1-0.032,0.199-0.064,0.297-0.097c-0.144-0.993-0.237-2.099,0.506-3.031
			c0.205-0.255,0.418-0.491,0.636-0.708C162.111-144.168,160.953-144.29,160.953-144.29 M106.281-144.657l-3.719,0.769
			c-0.134,0.91-0.281,1.629-0.281,1.629v6.724c0,0,5.725,1.584,6.919,1.584c0.287,0,0.677,0.024,1.125,0.038
			c0.557-0.266,1.159-0.428,1.799-0.428c0.355,0,0.722,0.05,1.098,0.159c0.115-0.033,0.229-0.07,0.341-0.112
			c0.99-1.296,1.892-2.564,2.304-3.184c0.111-0.168,0.229-0.336,0.355-0.502c-0.456,0.058-0.91,0.076-1.333,0.076
			c-0.684,0-1.286-0.047-1.688-0.047c-1.194,0-6.919-1.584-6.919-1.584V-144.657 M38.786-150.167
			c-6.738,10.416-11.682,22.079-14.395,34.566c0.397-0.64,0.718-1.203,0.889-1.636c0.553-1.392,2.467-4.331,4.245-7.058
			c0.449-1.683,0.938-3.35,1.467-4.998c-0.534,0.238-1.16,0.592-1.751,0.946c-0.235,0.143-0.398,0.206-0.5,0.206
			c-0.748,0,1.837-3.465,2.882-4.164c0.119-0.08,0.294-0.2,0.512-0.35c1.769-4.926,3.896-9.683,6.35-14.24
			C37.88-148.637,38.383-149.431,38.786-150.167 M137.875-152.217c0,0-4.669,0.798-5.863,1.195s-1.529,1.588-3.894,2.374
			c-2.39,0.798-3.462,1.985-4.252,3.171c-0.2,0.3-0.515,0.752-0.897,1.286c0.346-0.163,0.727-0.316,1.149-0.458
			c2.364-0.786,2.699-1.977,3.894-2.374s5.863-1.195,5.863-1.195s0.819,0.593,1.756,1.26l-0.04-0.416c0,0,4.882,2.774,6.47,3.573
			c1.172,0.58,3.32,2.024,4.366,2.742l-1.494-1.986l-0.412-0.107l-4.588-4.648l-0.302-3.157
			C138.694-151.624,137.875-152.217,137.875-152.217 M143.591-155.372l0.342,3.573l4.588,4.648l0.412,0.107l1.494,1.986
			c0.371,0.255,0.604,0.418,0.604,0.418l2.35,5.545l2.438,2.979c0.021,0,0.043,0,0.065,0.001c-1.122-1.636-2.307-4.175,1.069-4.175
			c0,0,1.472,0.155,2.865,0.174l-2.438-2.979l-2.35-5.545c0,0-3.382-2.374-4.97-3.16
			C148.473-152.598,143.591-155.372,143.591-155.372 M180.736-156.972c0,0-3.985,1.985-5.185,2.382
			c-1.183,0.389-3.247,1.187-4.842,3.171c-0.344,0.431-0.508,0.899-0.571,1.376c0.534-0.246,1.021-0.419,1.413-0.548
			c1.199-0.397,5.185-2.382,5.185-2.382l4.397,0.798c-1.838,1.467-4.004,3.611-3.057,3.611c0.075,0,0.171-0.014,0.287-0.042
			c0.142-0.036,0.3-0.053,0.471-0.053c1.452,0,3.845,1.211,5.435,2.24c2.511,0.301,5.247,0.553,5.247,0.553s1.183-2.783-0.405-3.97
			c-1.438-1.081-4.535-2.823-6.276-2.823c-0.171,0-0.329,0.017-0.471,0.053c-0.116,0.029-0.212,0.042-0.287,0.042
			c-0.947,0,1.219-2.144,3.057-3.611L180.736-156.972 M119.338-158.097c-0.686,0.323-1.445,0.733-2.074,1.207
			c-0.666,0.499-1.655,0.833-2.65,1.151c0.189,1.46,1.459,2.378,1.459,2.378l-0.306,0.397l0.165-0.034l1.699-1.191l2.441-3.172
			C120.072-157.361,119.706-157.626,119.338-158.097 M109.286-167.338l-1.857,2.042l-0.152-0.229l-0.025,0.033v-0.072l-0.132-0.199
			l-3.69-1.476l-0.178,0.403v5.126l-0.132-0.053l0.132,0.199v-0.146l0.127,0.055l-0.102,0.13l0.152,0.229l3.815-4.196v4.204
			l6.238-1.197l-3.551-3.925L109.286-167.338 M59.416-172.862c-1.284,0.981-2.544,1.99-3.78,3.029
			c-0.074,0.208-0.141,0.412-0.193,0.611c-0.161,0.638,0.255,0.829,0.811,0.829c0.831,0,1.977-0.428,1.977-0.428l3.56,1.583
			l3.424-1.241c0.279-0.236,0.579-0.471,0.9-0.701c0.162-0.116,0.313-0.227,0.454-0.332c0.461-0.704,1.321-1.849,2.646-2.967
			l-3.424,1.241l-3.56-1.583c0,0-1.146,0.428-1.977,0.428C59.819-172.394,59.473-172.51,59.416-172.862 M136.668-180.445
			c-1.082,0-2.342,0.207-3.43,0.573c-0.174,0.058-0.32,0.084-0.442,0.084c-0.188,0-0.318-0.063-0.403-0.175
			c-1.091,0.454-2.13,0.823-2.804,0.823c-0.163,0-0.335,0.032-0.512,0.089c-0.594,1.292-1.33,3.263-0.281,3.263
			c0.122,0,0.269-0.027,0.442-0.084c1.088-0.367,2.348-0.573,3.43-0.573c1.271,0,2.295,0.285,2.501,0.931
			c0.252,0.735,0.649,1.772,1.012,2.74c0.782-0.39,1.832-0.863,2.972-1.246c0,0,1.419,1.252,3.07,2.608
			c0.498-0.77,0.838-1.336,0.838-1.336s0.249,0.498,0.589,1.194c0.293-0.528,0.645-1.098,1.038-1.625
			c0.144-0.193,0.287-0.391,0.429-0.591c-1.673-0.208-4.103-0.64-4.359-1.408c-0.405-1.199-1.184-3.156-1.588-4.334
			C138.963-180.16,137.938-180.445,136.668-180.445 M151.061-180.749c0,0-1.19,1.981-2.373,3.569
			c-0.394,0.526-0.744,1.097-1.038,1.625c0.618,1.268,1.536,3.192,1.793,3.959c0.189,0.58,0.008,1.717-0.229,2.734
			c1.612-0.82,3.436-1.979,3.436-1.979s1.184-3.56,0.794-4.755C153.045-176.783,151.061-180.749,151.061-180.749 M82.954-186.442
			c-0.193,0.08-0.386,0.161-0.578,0.242c-0.273,0.294-0.527,0.565-0.763,0.816C82.093-185.792,82.54-186.142,82.954-186.442
			 M131.127-212.472c-32.765,0-62.382,13.756-83.375,35.796c20.675-19.69,48.641-31.796,79.375-31.796
			c63.502,0,115.176,51.662,115.176,115.168c0,30.738-12.103,58.697-31.791,79.368c22.038-20.989,35.791-50.599,35.791-83.368
			C246.303-160.81,194.629-212.472,131.127-212.472"/>
		<polyline fill="#00FF00" points="107.251,-165.709 107.251,-165.563 107.276,-165.524 107.378,-165.654 107.251,-165.709 		"/>
		<polyline fill="#00FFFF" points="107.251,-165.563 107.251,-165.492 107.276,-165.524 107.251,-165.563 		"/>
		<path fill="#00FF00" d="M210.512-13.936c-0.683,0.65-1.373,1.292-2.072,1.926c-0.634,0.699-1.275,1.39-1.927,2.073
			C207.879-11.238,209.211-12.57,210.512-13.936 M171.514-20.564c-0.557,0.436-1.092,0.856-1.542,1.215
			c-0.914,0.733-1.339,1.383-1.689,2.028c0.277-0.155,0.543-0.31,0.793-0.462c0.763-0.593,1.458-1.131,1.92-1.488
			c0.222-0.252,0.401-0.496,0.556-0.732L171.514-20.564 M196.351-44.334c-0.25,0.264-0.426,0.527-0.49,0.781
			c-0.083,0.337-0.166,0.709-0.245,1.087c0.366-0.182,0.693-0.334,0.939-0.445C196.512-43.415,196.426-43.932,196.351-44.334
			 M22.165-59.978c5.359,18.438,15.634,34.75,29.302,47.51c0.31,0.086,0.577,0.121,0.819,0.121c0.365,0,0.671-0.079,0.968-0.181
			C39.271-25.381,28.464-41.642,22.165-59.978 M201.118-116.285c-0.444,0-0.542,0.197-0.542,0.197s3.168,4.755,3.168,5.942
			c0,0.997,2.511,2.558,5.441,2.558c0.558,0,1.13-0.057,1.703-0.184c0,0,0.854,1.566,1.794,3.078
			c0.293,0.168,0.604,0.349,0.938,0.541c0.948,0.538,1.712,1.123,2.37,1.693c2.192-1.482,3.593-2.624,2.462-3.758
			c-0.475-0.476-1.142-1.463-1.771-2.476c-2.141-1.232-3.302-1.841-5.396-1.841c-2.382,0-4.747-3.179-7.542-4.763
			C202.355-116.088,201.563-116.285,201.118-116.285 M100.01-121.103c-0.791,0.499-2.26,1.354-3.624,2.324
			c-0.077,0.227-0.121,0.468-0.121,0.732c0,0.293-0.094,0.613-0.255,0.944c0.11-0.07,0.208-0.133,0.29-0.188
			C97.268-117.935,99.296-119.634,100.01-121.103 M173.895-123.97c-0.047,0.657-0.037,1.343,0.088,1.954
			c0.334,1.63,0.393,3.806,0.403,4.519c0.531,0.317,0.968,0.648,1.216,1.017c0.801,1.19,3.563,4.759,3.952,5.945
			c0.405,1.188,2.391,5.558,2.787,7.138c0.205,0.818,0.622,2.271,1.141,3.759c2.417,3.594,4.399,6.626,4.768,7.361
			c0.216,0.441,0.345,0.945,0.442,1.469c1.091,1.492,2.288,3.129,3.402,4.69c0.175,0.017,0.352,0.025,0.53,0.025
			c1.975,0,4.129-0.992,5.171-1.596c-0.522-0.765-1.1-1.586-1.701-2.43c-0.846-0.083-1.634-0.38-2.258-1.006
			c-0.837-0.826-0.887-2.319-1.145-3.684c-1.673-2.289-3.095-4.238-3.58-5.056c-0.572-0.959-1.146-2.382-1.63-3.774
			c-2.802-4.165-6.186-9.084-8.316-12.061c-0.698-0.977-2.382-3.982-3.563-4.755c-1.184-0.806,2.786-0.806,2.786-0.806
			s0-0.085-0.002-0.237c-1.186-0.707-2.844-1.342-3.945-2.167C174.311-123.761,174.126-123.864,173.895-123.97 M165.998-126.183
			c1.028,1.419,1.897,2.742,2.73,2.742c0.162,0,0.322-0.05,0.482-0.159c0.431-0.285,1.212-0.77,2.04-1.275
			C169.591-125.35,167.609-125.821,165.998-126.183 M113.222-134.181c-0.771,0.224-1.599,0.278-2.333,0.278
			c-0.195,0-0.384-0.004-0.563-0.009c-1.81,0.864-3.131,2.824-3.664,3.855c0.461-0.178,0.95-0.283,1.463-0.283
			c0.354,0,0.722,0.05,1.098,0.159c0.632-0.183,1.227-0.48,1.702-0.956c0.713-0.72,1.635-1.849,2.503-2.979
			C113.358-134.14,113.289-134.161,113.222-134.181 M37.066-137.301c-0.661,0.46-1.185,0.823-1.443,0.997
			c-0.647,0.434-1.887,1.929-2.558,3.003c1.494-1.041,3.689-2.583,5.104-3.579c-0.308,0.167-0.623,0.351-0.929,0.534
			c-0.235,0.143-0.398,0.206-0.499,0.206C36.457-136.141,36.654-136.642,37.066-137.301 M138.962-137.756
			c0,0-0.371,0.067-0.919,0.159v2.121l1.568-0.119C139.259-136.805,138.962-137.756,138.962-137.756 M159.818-140.116l0.729,0.891
			c-0.188-0.233-0.425-0.541-0.664-0.89C159.861-140.115,159.84-140.115,159.818-140.116 M122.969-144.19
			c-1.61,0.76-2.452,1.737-3.103,2.714c-0.2,0.3-0.515,0.752-0.897,1.286c0.346-0.163,0.727-0.316,1.149-0.458
			c0.068-0.023,0.136-0.046,0.201-0.069C121.244-141.844,122.233-143.167,122.969-144.19 M180.589-146.771
			c-2.548,0-5.354,0.505-5.354,0.505l-0.531,0.294c-0.748,0.795-1.133,1.409-0.626,1.409c0.075,0,0.171-0.014,0.287-0.042
			c0.142-0.036,0.3-0.053,0.471-0.053c1.452,0,3.845,1.211,5.435,2.24c2.511,0.301,5.247,0.553,5.247,0.553s1.183-2.783-0.405-3.97
			c-0.239-0.18-0.524-0.378-0.842-0.583c-0.661-0.08-1.307-0.163-1.882-0.245C181.835-146.74,181.22-146.771,180.589-146.771
			 M170.139-150.042c-1.083,0.498-2.361,1.295-3.429,2.624c-0.344,0.431-0.508,0.899-0.571,1.376
			c0.534-0.246,1.022-0.419,1.413-0.548c0.548-0.181,1.677-0.694,2.741-1.197C170.195-148.483,170.036-149.274,170.139-150.042
			 M139.591-151.372l0.04,0.416c0.779,0.556,1.64,1.164,2.174,1.523c0.563,0.381-0.73,1.615,4.238,2.818v3.139l5.271-0.401
			l-0.888-1.181c-1.046-0.717-3.194-2.162-4.366-2.742C144.473-148.598,139.591-151.372,139.591-151.372 M115.767-152.964
			l-5.17,1.069c0.115,1.549,1.476,2.534,1.476,2.534l-0.306,0.397l0.165-0.034l1.699-1.191L115.767-152.964 M144.618-169.524
			c0.365,0.788,0.688,1.521,0.824,1.928c0.189,0.58,0.008,1.717-0.229,2.734c1.612-0.82,3.436-1.979,3.436-1.979
			s0.313-0.943,0.564-2.021c-0.882,0.449-1.7,0.796-2.122,0.796C146.707-168.066,145.745-168.686,144.618-169.524 M107.096-170.485
			l-1.243,2.816l1.267,1.907l0.132,0.053v-4.553L107.096-170.485 M69.235-172.499c-0.008,0.006-0.015,0.013-0.022,0.02l0.014-0.005
			C69.229-172.49,69.232-172.494,69.235-172.499 M136.181-172.774c-0.851,0.423-1.387,0.747-1.387,0.747
			c-0.979,0.981-1.96,1.913-2.818,2.707c0.068,0.183,0.138,0.366,0.205,0.546c0.782-0.39,1.832-0.863,2.972-1.246
			c0,0,2.004,1.768,4.02,3.377c0.351-0.713,0.878-1.683,1.516-2.537c0.144-0.193,0.287-0.391,0.429-0.591
			c-1.673-0.208-4.103-0.64-4.359-1.408C136.604-171.631,136.398-172.19,136.181-172.774 M47.752-176.676
			c-1.366,1.301-2.698,2.634-4,4c0.684-0.65,1.374-1.293,2.073-1.927C46.459-175.302,47.102-175.993,47.752-176.676
			 M147.061-176.749c0,0-0.919,1.529-1.944,2.978c0.903,0.113,1.586,0.16,1.586,0.16s0.357-0.885,0.947-1.944
			C147.31-176.251,147.061-176.749,147.061-176.749 M81.613-185.384c-0.83,0.707-1.756,1.587-2.774,2.686
			c-0.456,0.492-0.862,0.927-1.225,1.314c0.243-0.207,0.478-0.399,0.704-0.578C78.66-182.351,79.024-182.623,81.613-185.384
			 M186.849-186.401c-0.288,0.161-0.613,0.358-0.96,0.57c21.732,14.176,38.404,35.483,46.67,60.578
			C225.463-150.878,208.864-172.583,186.849-186.401"/>
		<path fill="#00FFFF" d="M169.075-17.783c-0.25,0.152-0.516,0.307-0.793,0.462c-0.048,0.089-0.095,0.177-0.142,0.266
			C168.456-17.301,168.771-17.546,169.075-17.783 M171.551-20.004c-0.154,0.237-0.334,0.48-0.556,0.732
			c0.357-0.276,0.574-0.444,0.574-0.444L171.551-20.004 M191.615-38.467c-1.438,0.714-3.495,1.894-3.755,2.913
			c-0.39,1.588-0.787,3.962-0.787,3.962s-1.976,4.358-2.381,5.946c-0.374,1.489,0.316,4.4,1.386,4.4
			c0.065,0,0.133-0.011,0.201-0.034c1.183-0.397,3.176-2.779,4.367-3.572c0.505-0.341,1.158-1.122,1.771-2.027
			c-0.781,0.73-1.558,1.404-2.139,1.599c-0.068,0.023-0.136,0.034-0.201,0.034c-1.069,0-1.76-2.912-1.386-4.4
			c0.405-1.588,2.381-5.946,2.381-5.946S191.32-37.065,191.615-38.467 M196.203-45.071l-1.704,3.194
			c0.386-0.218,0.769-0.417,1.116-0.59c0.079-0.378,0.162-0.75,0.245-1.087c0.064-0.254,0.24-0.517,0.49-0.781
			C196.271-44.758,196.201-45.054,196.203-45.071 M20.624-65.928c0.457,2.006,0.972,3.99,1.541,5.95
			c6.299,18.336,17.105,34.596,31.089,47.45c0.522-0.178,1.02-0.423,1.772-0.423c1.568,0,3.959-1.993,3.959-1.993l-0.647-1.934
			c-0.752,0.16-1.262,0.531-2.053,0.531c-0.241,0-0.509-0.035-0.818-0.121C42.308-28.752,32.294-44.332,26.783-61.929
			c-1.657-0.718-2.516-1.377-3.885-2.569C21.866-65.419,21.136-65.792,20.624-65.928 M210.807-97.679
			c-1.424,0.922-1.284,0.786-2.315,1.799c-1.19,1.188-5.144,3.188-6.335,3.97c-0.813,0.537-3.288,1.817-5.532,1.817
			c-0.179,0-0.355-0.008-0.53-0.025c0.602,0.843,1.179,1.665,1.701,2.43c0.143-0.082,0.264-0.157,0.361-0.222
			c1.191-0.782,5.145-2.782,6.335-3.97c1.207-1.187,0.811-0.797,3.191-2.373C209.691-95.598,211.14-96.662,210.807-97.679
			 M187.481-103.638c0.484,1.393,1.058,2.815,1.63,3.774c0.485,0.817,1.907,2.767,3.58,5.056c-0.098-0.523-0.227-1.028-0.442-1.469
			C191.881-97.012,189.898-100.044,187.481-103.638 M216.683-108.694c0.629,1.012,1.296,2,1.771,2.476
			c1.131,1.135-0.27,2.276-2.462,3.758c1.271,1.099,2.146,2.139,3.188,2.662c1.58,0.798,3.962,3.969,3.962,3.969
			s2.389,5.553,2.77,7.145c0.271,1.048,1.397,3.489,2.128,5.359c0.127-1.993,0.302-3.962,0.302-5.979
			c0-2.855-0.115-5.685-0.34-8.482c-0.48-1.162-0.859-2.043-0.859-2.043s-2.382-3.171-3.962-3.969
			c-1.581-0.794-2.779-2.779-5.558-4.355C217.287-108.345,216.976-108.525,216.683-108.694 M89.038-111.23
			c-1.42,0.956-2.862,2.075-3.47,3.091c-1.195,1.985-2.382,4.367-2.779,6.351c-0.393,1.981-0.393,3.569-0.393,6.339
			c0,2.774-0.397,4.366,0,6.756c0.385,2.366,4.357,8.315,5.938,10.308c1.591,1.985,3.576,4.358,5.564,5.542
			c1.969,1.199,4.756,3.572,4.756,3.572s1.009,1.517,3.029,1.517c0.506,0,1.076-0.095,1.71-0.334
			c3.188-1.191,6.351-1.191,9.138-2.779c1.857-1.049,4.418-2.29,5.915-2.29c0.745,0,1.227,0.307,1.227,1.099
			c0,1.959,1.066,3.392,2.771,3.392c0.367,0,0.765-0.066,1.187-0.208c1.467-0.494,3.53-1.43,4.807-1.43
			c0.797,0,1.288,0.365,1.136,1.43c-0.39,2.779,0.802,6.343,0.802,7.947c0,1.563-0.405,3.159,0.777,4.342
			c1.191,1.191,4.382,3.184,4.382,4.366c0,1.183,0.382,5.152,1.175,6.74c0.794,1.596,1.588,3.969,0.794,5.557
			c-0.794,1.581-2.396,5.947-2.396,5.947s-0.825,3.564-0.43,4.748c0.398,1.198,1.129,2.779,3.112,4.763
			c1.984,1.977,1.461,4.367,2.66,5.946c1.198,1.588,2.397,6.351,2.397,6.351l0.182,3.962v3.564c0,0,8.75-1.191,10.329-1.588
			c1.588-0.397,7.788-3.176,9.367-4.755c0.847-0.855,1.153-1.594,1.558-2.339c-2.462,1.38-5.816,2.817-6.925,3.094
			c-1.579,0.397-10.329,1.588-10.329,1.588v-3.564l-0.182-3.962c0,0-1.199-4.763-2.397-6.351c-1.199-1.579-0.676-3.969-2.66-5.946
			c-1.983-1.984-2.714-3.565-3.112-4.763c-0.396-1.184,0.43-4.748,0.43-4.748s1.603-4.366,2.396-5.947
			c0.794-1.587,0-3.961-0.794-5.557c-0.793-1.588-1.175-5.557-1.175-6.74c0-1.183-3.19-3.175-4.382-4.366
			c-1.183-1.183-0.777-2.779-0.777-4.342c0-1.604-1.191-5.168-0.802-7.947c0.152-1.065-0.338-1.43-1.136-1.43
			c-1.276,0-3.34,0.936-4.807,1.43c-0.422,0.142-0.819,0.208-1.187,0.208c-1.704,0-2.771-1.432-2.771-3.392
			c0-0.792-0.481-1.099-1.227-1.099c-1.497,0-4.058,1.24-5.915,2.29c-2.787,1.588-5.95,1.588-9.138,2.779
			c-0.634,0.239-1.204,0.334-1.711,0.334c-2.02,0-3.028-1.518-3.028-1.518s-2.787-2.374-4.756-3.572
			c-1.988-1.183-3.974-3.557-5.564-5.542c-1.581-1.993-5.554-7.942-5.938-10.308c-0.397-2.39,0-3.982,0-6.756
			c0-2.771,0-4.358,0.393-6.339C87.127-107.477,88.038-109.455,89.038-111.23 M102.661-126.058
			c-2.009,0.777-3.472,2.962-4.021,4.042c-0.649,1.331-1.867,2.098-2.254,3.237c1.364-0.97,2.833-1.825,3.624-2.324
			c0.161-0.331,0.255-0.651,0.255-0.944c0-1.588,1.597-2.373,2.375-3.969C102.646-126.029,102.654-126.043,102.661-126.058
			 M113.563-134.293c-0.112,0.042-0.226,0.079-0.341,0.112c0.067,0.02,0.137,0.042,0.205,0.065
			C113.473-134.175,113.518-134.234,113.563-134.293 M165.713-137.423l-2.043,1.133c0,0-2.382,0.798-1.977,2.771
			c0.389,1.984,1.977,4.374,3.564,6.351c0.257,0.323,0.503,0.657,0.74,0.985c1.611,0.361,3.593,0.833,5.253,1.308
			c1.493-0.914,3.137-1.896,3.137-1.896s-0.388,1.326-0.493,2.801c0.231,0.106,0.416,0.208,0.546,0.305
			c1.102,0.825,2.76,1.461,3.945,2.167c-0.011-0.713-0.069-2.888-0.403-4.519c-0.405-1.985,0.405-4.755,0.405-4.755
			s-3.97,2.373-5.177,3.171c-0.16,0.108-0.32,0.159-0.482,0.159c-1.025,0-2.105-2.006-3.471-3.727
			C167.695-133.113,166.133-135.458,165.713-137.423 M40.386-139.626c-1.137,0.798-2.37,1.663-3.319,2.325
			c-0.412,0.66-0.609,1.161-0.324,1.161c0.101,0,0.264-0.063,0.499-0.206c0.306-0.183,0.621-0.367,0.929-0.534
			c0.827-0.582,1.388-0.977,1.388-0.977S40.13-138.432,40.386-139.626 M162.204-140.387c-0.098,0.033-0.197,0.065-0.297,0.097
			c-0.395,0.132-1.076,0.176-1.811,0.176c-0.07,0-0.142,0-0.213-0.001c0.239,0.349,0.476,0.657,0.664,0.89l-0.729-0.891
			c-1.394-0.02-2.865-0.174-2.865-0.174c-3.376,0-2.191,2.54-1.069,4.175c0.071,0.001,0.143,0.001,0.213,0.001
			c0.734,0,1.416-0.044,1.811-0.176c1.198-0.388,2.27-0.782,3.85-1.575C162.594-138.288,162.367-139.266,162.204-140.387
			 M102.563-143.888l-0.427,0.088l-3.47,0.583c0.39,1.187-0.385,4.958-0.385,4.958v6.724c0,0,5.725,1.584,6.919,1.584
			c0.287,0,0.677,0.024,1.125,0.038c0.11-0.053,0.223-0.101,0.336-0.145c0.533-1.031,1.854-2.991,3.664-3.855
			c-0.448-0.014-0.838-0.038-1.125-0.038c-1.194,0-6.919-1.584-6.919-1.584v-6.724C102.281-142.258,102.429-142.978,102.563-143.888
			 M133.875-148.217c0,0-4.669,0.798-5.863,1.195s-1.529,1.588-3.894,2.374c-0.423,0.141-0.804,0.294-1.149,0.458
			c-0.735,1.023-1.725,2.346-2.649,3.473c2.184-0.785,2.533-1.919,3.692-2.304c1.194-0.397,5.863-1.195,5.863-1.195
			s2.755,1.993,3.93,2.783c0.563,0.381-0.73,1.615,4.238,2.818v1.018c0.548-0.092,0.919-0.159,0.919-0.159s0.297,0.951,0.649,2.161
			l3.703-0.282l-2.382-3.167l-0.412-0.107l-4.588-4.648l-0.302-3.157C134.694-147.624,133.875-148.217,133.875-148.217
			 M139.631-150.957l0.302,3.157l4.588,4.648l0.412,0.107l1.494,1.986c0.371,0.255,0.604,0.418,0.604,0.418l2.35,5.545l3.168,3.87
			c-1.072-1.326-3.691-5.065,0.405-5.065c0,0,1.472,0.155,2.865,0.174l-2.438-2.979l-2.35-5.545c0,0-0.232-0.163-0.604-0.418
			l0.888,1.181l-5.271,0.401v-3.139c-4.969-1.203-3.675-2.438-4.238-2.818C141.271-149.792,140.41-150.4,139.631-150.957
			 M38.467-151.492c-12.389,16.802-19.891,37.348-20.431,59.637c0.694-1.676,1.572-5.748,1.302-7.129
			c-0.396-1.985,1.187-6.748,1.187-9.13c0-1.865,2.434-5.179,3.867-7.486c2.713-12.488,7.656-24.151,14.395-34.566
			c0.202-0.37,0.38-0.725,0.38-1.179C39.166-151.346,38.871-151.453,38.467-151.492 M176.736-152.972c0,0-3.985,1.985-5.185,2.382
			c-0.392,0.128-0.879,0.302-1.413,0.548c-0.103,0.768,0.057,1.559,0.154,2.255c1.268-0.599,2.443-1.185,2.443-1.185l4.397,0.798
			c-0.854,0.682-1.78,1.511-2.431,2.202l0.531-0.294c0,0,2.807-0.505,5.354-0.505c0.631,0,1.246,0.031,1.799,0.108
			c0.575,0.083,1.221,0.166,1.882,0.245c-1.59-1.029-3.982-2.24-5.435-2.24c-0.171,0-0.329,0.017-0.471,0.053
			c-0.116,0.029-0.212,0.042-0.287,0.042c-0.947,0,1.219-2.144,3.057-3.611L176.736-152.972 M114.613-155.739
			c-1.373,0.44-2.756,0.85-3.309,1.624c-0.584,0.819-0.756,1.57-0.708,2.221l5.17-1.069l0.306-0.397
			C116.072-153.361,114.803-154.279,114.613-155.739 M107.244-165.492l-3.815,4.196l-0.152-0.229l-0.025,0.033v-0.072l-0.132-0.199
			l-3.69-1.476l-1.576,3.569l1.576,2.374l3.815-4.196v4.204l8.256-1.584l3.1-2.377l-1.117-1.235l-6.238,1.197V-165.492
			 M55.636-169.833c-1.27,1.065-2.515,2.161-3.732,3.285c-0.179,0.464-0.349,0.905-0.461,1.326
			c-0.161,0.638,0.255,0.829,0.811,0.829c0.831,0,1.977-0.428,1.977-0.428l3.56,1.583l4.367-1.583c0,0,0.933-1.863,3.057-3.658
			l-3.424,1.241l-3.56-1.583c0,0-1.146,0.428-1.977,0.428c-0.556,0-0.972-0.191-0.811-0.829
			C55.495-169.422,55.562-169.625,55.636-169.833 M106.899-170.768l-3.648,1.977v1.956l0.178-0.403l3.69,1.476l-1.267-1.907
			l1.243-2.816L106.899-170.768 M69.227-172.485l-0.014,0.005c-1.324,1.118-2.185,2.263-2.646,2.967
			C68.472-170.936,68.595-171.484,69.227-172.485 M147.649-175.555c-0.59,1.059-0.947,1.944-0.947,1.944s-0.683-0.047-1.586-0.16
			c-0.142,0.2-0.285,0.398-0.429,0.591c-0.394,0.527-0.745,1.097-1.038,1.625c0.29,0.595,0.646,1.334,0.969,2.031
			c1.127,0.839,2.089,1.458,2.473,1.458c0.422,0,1.24-0.347,2.122-0.796c0.237-1.017,0.419-2.154,0.229-2.734
			C149.186-172.363,148.268-174.288,147.649-175.555 M129.077-179.05c-1.533,0.498-3.454,2.903-3.454,2.903
			s-2.387,4.359-0.827,4.359c0.122,0,0.269-0.027,0.442-0.084c1.087-0.367,2.348-0.573,3.43-0.573c1.271,0,2.295,0.286,2.501,0.931
			c0.205,0.598,0.506,1.396,0.807,2.193c0.858-0.794,1.839-1.726,2.818-2.707c0,0,0.536-0.324,1.387-0.747
			c-0.362-0.967-0.76-2.005-1.012-2.74c-0.206-0.646-1.23-0.931-2.501-0.931c-1.082,0-2.342,0.207-3.43,0.573
			c-0.174,0.058-0.32,0.084-0.442,0.084C127.747-175.787,128.483-177.758,129.077-179.05 M85.505-187.463
			c-0.855,0.329-1.706,0.67-2.551,1.021c-0.414,0.3-0.861,0.65-1.341,1.058c-2.589,2.761-2.953,3.034-3.295,3.422
			c2.917-2.294,4.455-2.29,4.455-2.29S84.27-185.879,85.505-187.463 M127.127-208.472c-30.734,0-58.7,12.105-79.375,31.796
			c-0.65,0.683-1.293,1.375-1.927,2.073c20.452-18.55,47.583-29.869,77.302-29.869c23.131,0,44.694,6.856,62.762,18.641
			c0.347-0.212,0.672-0.41,0.96-0.57c22.016,13.818,38.614,35.523,45.71,61.148c3.727,11.315,5.744,23.402,5.744,35.949
			c0,29.722-11.314,56.845-29.863,77.294c0.699-0.634,1.39-1.276,2.072-1.926c19.688-20.671,31.791-48.63,31.791-79.368
			C242.303-156.81,190.629-208.472,127.127-208.472"/>
		<polyline fill="#FF00FF" points="103.251,-161.709 103.251,-161.563 103.276,-161.524 103.378,-161.654 103.251,-161.709 		"/>
		<polyline fill="#FFFFFF" points="103.251,-161.563 103.251,-161.492 103.276,-161.524 103.251,-161.563 		"/>
		<path fill="#FF0000" d="M200.555-46.912c-0.479,0.216-1.264,0.586-2.056,1.035l-1.472,2.759c0,0-0.18,0.075-0.473,0.207
			c0.019,0.209,0.029,0.415,0.029,0.61c0,1.191-0.396,4.366-0.793,5.954c-0.413,1.588-1.199,4.366-1.588,5.938
			c-0.078,0.314-0.219,0.689-0.403,1.097c0.09,0.043,0.183,0.067,0.278,0.067c0.065,0,0.133-0.011,0.201-0.034
			c0.581-0.195,1.357-0.87,2.139-1.599c0.815-1.202,1.559-2.625,1.785-3.531c0.389-1.572,1.175-4.35,1.588-5.938
			c0.396-1.588,0.793-4.763,0.793-5.954C200.584-46.497,200.573-46.703,200.555-46.912 M30.783-65.929
			c0.846,2.7,1.797,5.352,2.85,7.953c1.013,0.482,1.098,0.636,3.54,3.385c3.179,3.557,2.782,3.557,3.572,5.557
			c0.785,1.985,1.981,3.953,2.778,5.16c0.798,1.191,3.172,1.969,4.358,2.771c1.187,0.801,3.168,1.579,4.354,1.579
			c1.195,0,4.768,3.573,6.749,3.97c1.983,0.397,1.983,4.366,1.983,4.366l-1.983,5.542l-1.008,3.761
			c0.492,0.478,0.988,0.949,1.489,1.417c0.31,0.086,0.577,0.121,0.818,0.121c0.791,0,1.301-0.371,2.053-0.532l-0.945-2.82
			l1.593-5.947l1.983-5.542c0,0,0-3.969-1.983-4.366c-1.981-0.397-5.554-3.97-6.749-3.97c-1.187,0-3.168-0.778-4.354-1.579
			c-1.187-0.802-3.561-1.581-4.358-2.771c-0.797-1.207-1.993-3.175-2.778-5.16c-0.79-2-0.394-2-3.572-5.557
			c-3.16-3.557-2.374-2.771-4.756-3.969c-2.382-1.191-3.176-2.366-5.152-3.168C31.097-65.796,30.937-65.863,30.783-65.929
			 M197.118-112.285c-0.444,0-0.542,0.197-0.542,0.197s3.168,4.755,3.168,5.942c0,0.997,2.511,2.558,5.441,2.558
			c0.558,0,1.13-0.057,1.703-0.184c0,0,2.23,4.089,3.446,5.429c0.909-0.555,1.719-1.101,2.156-1.537
			c1.031-1.014,0.892-0.877,2.315-1.799c-0.06-0.181-0.175-0.36-0.354-0.54c-0.475-0.476-1.142-1.463-1.771-2.476
			c-2.141-1.232-3.302-1.841-5.396-1.841c-2.382,0-4.747-3.179-7.542-4.763C198.355-112.088,197.563-112.285,197.118-112.285
			 M96.01-117.103c-0.666,0.42-1.812,1.092-2.972,1.873c-0.398,0.707-0.782,1.445-1.122,2.186c0.15-0.094,0.279-0.176,0.384-0.247
			C93.268-113.935,95.296-115.634,96.01-117.103 M35.99-133.585c-0.574,0-1.715,0.62-2.749,1.239
			c-0.235,0.143-0.398,0.206-0.5,0.206c-0.284,0-0.087-0.501,0.324-1.161c-0.356,0.249-0.674,0.469-0.931,0.646
			c-0.399,1.112-0.78,2.233-1.143,3.362c0.401-0.179,0.752-0.293,0.998-0.293c0.526,0,0.576,0.52-0.367,2.037
			c-0.596,0.953-1.334,2.084-2.098,3.254c-0.412,1.55-0.791,3.116-1.134,4.694c0.397-0.64,0.718-1.203,0.889-1.636
			c0.79-1.989,4.358-7.137,6.343-10.313C36.566-133.065,36.517-133.585,35.99-133.585 M125.599-134.308c0,0-3.95,0.377-5.538,1.171
			c-1.568,0.797-4.738,1.976-5.926,2.373s-4.347,0.79-4.347,0.79c-0.191-0.084-0.38-0.154-0.566-0.208
			c-0.771,0.224-1.599,0.278-2.333,0.278c-0.104,0-0.205-0.001-0.305-0.003c-0.744,1.425-2.126,2.205-2.301,3.569
			c0.482,0.02,0.985,0.133,1.505,0.364c0,0,3.159-0.393,4.347-0.79s4.357-1.576,5.926-2.373c1.588-0.794,5.538-1.171,5.538-1.171
			s3.119,1.247,4.307,1.247c1.187,0,5.057-0.695,5.057-0.695s1.795,5.748,1.795,6.946c0,1.195,1.183,2.374,3.176,3.168
			c1.149,0.474,4.785,1.36,8.392,1.36c2.521,0,5.027-0.433,6.66-1.741c0.148-0.117,0.352-0.166,0.586-0.166
			c1.235,0,3.375,1.353,3.375,1.353s9.907,1.985,11.495,3.171c1.596,1.195,4.358,1.993,5.161,3.184
			c0.801,1.19,3.563,4.759,3.952,5.945c0.405,1.188,2.391,5.558,2.787,7.138c0.397,1.583,1.588,5.549,2.771,7.534
			c1.184,1.993,7.932,10.709,10.313,14.679l7.146-1.19c0,0-0.794,3.556-1.588,4.755c-0.794,1.183-3.176,4.358-4.358,5.946
			c-1.199,1.58-2.771,3.961-5.152,5.938c-2.373,1.977-2.391,3.961-3.572,5.557c-1.183,1.58-2.779,5.145-2.779,5.145
			s0.794,7.938,1.191,9.526c0.389,1.587-2.779,5.938-2.779,5.938l-3.572,3.581l-4.779,6.327l0.334,5.098
			c0.207-0.162,0.417-0.327,0.627-0.491c0.385-0.734,0.791-1.46,1.831-2.294c0.45-0.359,0.985-0.779,1.542-1.215l-0.334-5.098
			l4.779-6.327l3.572-3.581c0,0,3.168-4.351,2.779-5.938c-0.397-1.588-1.191-9.526-1.191-9.526s1.597-3.564,2.779-5.145
			c1.182-1.596,1.199-3.58,3.572-5.557c2.382-1.977,3.953-4.358,5.152-5.938c1.183-1.588,3.564-4.764,4.358-5.946
			c0.794-1.199,1.588-4.755,1.588-4.755l-7.146,1.19c-0.768-1.279-1.988-3.051-3.33-4.933c-0.846-0.083-1.634-0.38-2.258-1.006
			c-0.837-0.826-0.887-2.319-1.145-3.684c-1.673-2.289-3.095-4.238-3.58-5.056c-0.572-0.959-1.146-2.382-1.63-3.774
			c-2.802-4.165-6.186-9.084-8.316-12.061c-0.698-0.977-2.382-3.982-3.563-4.755c-1.184-0.806,2.786-0.806,2.786-0.806
			s0-0.085-0.002-0.237c-1.186-0.707-2.844-1.342-3.945-2.167c-1.588-1.187-11.495-3.171-11.495-3.171s-2.14-1.353-3.375-1.353
			c-0.234,0-0.438,0.049-0.586,0.166c-1.633,1.308-4.14,1.741-6.66,1.741c-3.606,0-7.242-0.886-8.392-1.36
			c-1.993-0.794-3.176-1.973-3.176-3.168c0-1.198-1.795-6.946-1.795-6.946s-3.87,0.695-5.057,0.695
			C128.718-133.061,125.599-134.308,125.599-134.308 M118.969-140.19c-1.334,0.629-2.14,1.408-2.747,2.211
			c0.454-0.058,0.91-0.155,1.341-0.314C118.073-138.961,118.56-139.622,118.969-140.19 M176.589-142.771
			c-2.548,0-5.354,0.505-5.354,0.505l-1.521,0.843c0.184,0.856,0.583,1.784,1.105,2.72c0.578-0.042,1.182-0.069,1.771-0.069
			c0.631,0,1.246,0.031,1.799,0.108c2.763,0.397,7.129,0.798,7.129,0.798s1.183-2.783-0.405-3.97
			c-0.239-0.18-0.524-0.378-0.842-0.583c-0.661-0.08-1.307-0.163-1.882-0.245C177.835-142.74,177.22-142.771,176.589-142.771
			 M166.139-146.042c-0.875,0.402-1.878,1-2.793,1.915c0.25,0.008,0.504,0.013,0.751,0.013c0.734,0,1.416-0.044,1.811-0.176
			c0.1-0.032,0.199-0.065,0.297-0.097C166.127-144.921,166.064-145.487,166.139-146.042 M111.767-148.964l-5.203,1.076
			c-0.135,0.91-0.282,1.629-0.282,1.629v1.602l1.65-0.341l1.699-1.191L111.767-148.964 M42.785-154.166
			c-1.527,2.361-2.963,4.786-4.301,7.271c0.151,0.436,0.372,0.931,0.682,1.5c0.989,1.843,1.321,3.332,1.339,4.484
			c0.985-0.684,2.505-1.749,3.881-2.715c0.265-1.239,0.188-3.144-1.22-5.769C41.622-152.235,42.281-153.246,42.785-154.166
			 M132.181-168.774c-0.85,0.423-1.387,0.747-1.387,0.747c-2.774,2.779-5.554,5.156-5.554,5.156s-2.397,0.794-3.977,1.981
			c-0.666,0.499-1.655,0.833-2.65,1.151c0.088,0.676,0.407,1.236,0.725,1.642c1.035-0.487,1.902-0.774,1.902-0.774
			s2.779-2.377,5.554-5.156c0,0,1.981-1.195,4.358-1.993c0,0,6.748,5.954,7.938,5.954c1.191,0,5.558-2.775,5.558-2.775
			s0.313-0.943,0.564-2.021c-0.882,0.449-1.7,0.796-2.122,0.796c-0.542,0-2.234-1.233-3.919-2.577
			c-0.299,0.61-0.47,1.032-0.47,1.032s-5.55-0.385-5.945-1.568C132.604-167.631,132.398-168.19,132.181-168.774 M142.223-171.413
			c-0.32,0.495-0.705,1.075-1.106,1.641c0.903,0.113,1.586,0.16,1.586,0.16s0.171-0.422,0.471-1.032
			C142.853-170.898,142.533-171.157,142.223-171.413 M43.752-172.676c-22.04,20.992-35.794,50.604-35.794,83.373
			c0,63.507,51.67,115.165,115.169,115.165c32.771,0,62.392-13.756,83.386-35.798c-20.676,19.693-48.646,31.798-79.386,31.798
			c-63.499,0-115.169-51.658-115.169-115.165C11.958-124.042,24.061-152.002,43.752-172.676 M111.251-169.492v-0.218l0.127,0.055
			L111.251-169.492 M111.251-174.263v4.553l-3.822-1.529l-0.178,0.403v0.573l2.035,2.925l1.958-2.154v4.204l6.238-1.197
			l-3.551-3.925L111.251-174.263 M77.614-181.385c-0.83,0.707-1.756,1.587-2.775,2.686c-5.148,5.549-3.962,3.965-5.148,5.541
			c-0.184,0.244-0.329,0.46-0.455,0.659c0.273-0.229,0.565-0.458,0.878-0.681c0.162-0.116,0.313-0.226,0.454-0.332
			c0.464-0.708,1.332-1.862,2.668-2.987c0.126-0.198,0.271-0.414,0.455-0.658C74.771-178.594,73.882-177.405,77.614-181.385
			 M148.648-187.772c-1.969,0-6.732,1.81-8.327,2.211c-1.563,0.39-5.152,2.422-6.732,2.422c-0.163,0-0.335,0.032-0.512,0.089
			c-0.487,1.06-1.07,2.577-0.685,3.087c1.469-0.611,3.031-1.375,3.929-1.599c1.595-0.401,6.358-2.211,8.327-2.211
			c1.985,0,4.367,0.854,5.565,0.854s5.946,0,5.946,0l8.311-0.667c0,0,7.146,2.64,4.756,4.235c0,0,2.795,1.714,3.978,2.901
			c0.22,0.222,0.51,0.315,0.846,0.315c1.359,0,3.475-1.53,4.799-2.269c24.588,15.433,42.421,40.705,47.801,70.287
			c0.174,0.119,0.349,0.225,0.529,0.316c1.58,0.798,3.962,3.969,3.962,3.969s0.379,0.881,0.859,2.043
			c-2.733-33.991-21.747-63.414-49.151-80.615c-1.324,0.738-3.439,2.269-4.799,2.269c-0.336,0-0.626-0.094-0.846-0.315
			c-1.183-1.187-3.978-2.901-3.978-2.901c2.39-1.596-4.756-4.235-4.756-4.235l-8.311,0.667c0,0-4.748,0-5.946,0
			S150.634-187.772,148.648-187.772 M86.954-190.442c-9.976,4.144-19.168,9.766-27.318,16.609c-0.074,0.208-0.141,0.412-0.193,0.611
			c-0.035,0.141-0.043,0.26-0.026,0.36c7.014-5.36,14.716-9.856,22.96-13.338c0.148-0.16,0.303-0.325,0.463-0.499
			C84.446-188.431,85.821-189.623,86.954-190.442"/>
		<polyline fill="#FF00FF" points="111.251,-169.709 111.251,-169.492 111.378,-169.654 111.251,-169.709 		"/>
		<path fill="#FF00FF" d="M168.141-17.055c-0.775,0.605-1.551,1.214-2.169,1.706c-0.914,0.733-1.339,1.383-1.689,2.028
			c1.066-0.598,1.966-1.184,2.442-1.661C167.471-15.736,167.797-16.399,168.141-17.055 M57.978-21.885l-0.585,2.186l0.945,2.821
			c0.207-0.044,0.433-0.073,0.688-0.073c1.568,0,3.959-1.993,3.959-1.993l-0.647-1.935c-0.752,0.161-1.262,0.532-2.053,0.532
			c-0.241,0-0.509-0.035-0.818-0.121C58.966-20.936,58.47-21.407,57.978-21.885 M175.514-24.564
			c-0.557,0.436-1.092,0.856-1.542,1.215c-1.04,0.834-1.446,1.56-1.831,2.294c1.715-1.339,3.429-2.66,3.429-2.66L175.514-24.564
			 M196.418-30.879c-0.781,0.729-1.558,1.404-2.139,1.599c-0.068,0.023-0.136,0.034-0.201,0.034c-0.096,0-0.188-0.023-0.278-0.067
			c-0.347,0.768-0.849,1.648-1.382,2.434c0.809-0.755,1.622-1.569,2.229-1.973C195.151-29.193,195.805-29.974,196.418-30.879
			 M194.499-41.877c-1.211,0.685-2.441,1.55-2.639,2.323c-0.083,0.337-0.166,0.709-0.245,1.087c0.802-0.398,1.412-0.651,1.412-0.651
			L194.499-41.877 M200.203-49.071l-1.704,3.194c0.792-0.448,1.576-0.818,2.056-1.035C200.466-47.944,200.2-49.038,200.203-49.071
			 M24.624-69.928c0.617,2.708,1.338,5.376,2.159,7.999c0.153,0.066,0.313,0.133,0.481,0.201c1.977,0.802,2.771,1.977,5.152,3.168
			c0.541,0.272,0.919,0.442,1.216,0.584c-1.053-2.601-2.004-5.253-2.85-7.953c-1.657-0.718-2.516-1.378-3.885-2.569
			C25.866-69.419,25.136-69.792,24.624-69.928 M214.807-101.679c-1.424,0.922-1.284,0.786-2.315,1.799
			c-0.438,0.436-1.247,0.982-2.156,1.537c0.041,0.045,0.08,0.086,0.118,0.125c0.179,0.179,0.294,0.359,0.354,0.54
			c0.242-0.157,0.529-0.345,0.876-0.574C213.691-99.598,215.14-100.662,214.807-101.679 M226.649-108.114
			c0.617,3.389,1.069,6.834,1.351,10.328c0.726,1.753,1.681,4.144,1.91,5.102c0.271,1.048,1.397,3.489,2.128,5.359
			c0.127-1.993,0.302-3.962,0.302-5.979c0-2.855-0.115-5.685-0.34-8.482c-0.48-1.162-0.859-2.043-0.859-2.043
			s-2.382-3.171-3.962-3.969C226.998-107.889,226.823-107.995,226.649-108.114 M93.038-115.229c-1.421,0.956-2.862,2.074-3.47,3.091
			c-0.178,0.295-0.355,0.599-0.53,0.909c1.108-0.745,2.202-1.392,2.878-1.814C92.256-113.784,92.64-114.523,93.038-115.229
			 M29.525-124.294c-1.778,2.728-3.692,5.667-4.245,7.058c-0.171,0.433-0.491,0.996-0.889,1.636
			c-1.388,6.385-2.191,12.984-2.355,19.745c0.694-1.676,1.572-5.748,1.302-7.129c-0.396-1.985,1.187-6.748,1.187-9.13
			c0-1.865,2.434-5.179,3.867-7.486C28.734-121.178,29.113-122.744,29.525-124.294 M106.325-129.913
			c-1.811,0.864-3.131,2.824-3.664,3.855c0.461-0.179,0.95-0.283,1.464-0.283c0.052,0,0.105,0.001,0.158,0.003
			c0.175-1.365,1.557-2.144,2.301-3.569C106.496-129.908,106.41-129.91,106.325-129.913 M32.135-132.655
			c-0.218,0.15-0.393,0.27-0.512,0.35c-1.045,0.699-3.63,4.164-2.882,4.164c0.102,0,0.265-0.063,0.5-0.206
			c0.591-0.354,1.217-0.708,1.751-0.946C31.354-130.422,31.735-131.542,32.135-132.655 M155.818-136.116l0.729,0.891
			c-0.188-0.233-0.425-0.541-0.664-0.89C155.861-136.115,155.84-136.115,155.818-136.116 M117.563-138.293
			c-0.431,0.159-0.887,0.256-1.341,0.314c-0.126,0.167-0.244,0.334-0.355,0.502c-0.412,0.619-1.313,1.887-2.304,3.184
			c0.504-0.186,0.973-0.456,1.361-0.844C115.674-135.895,116.655-137.105,117.563-138.293 M169.713-141.423l-2.043,1.133
			c0,0-2.382,0.798-1.977,2.771c0.006,0.032,0.013,0.064,0.02,0.096l1.521-0.843c0,0,1.658-0.298,3.584-0.437
			C170.296-139.639,169.896-140.566,169.713-141.423 M44.386-143.626c-1.376,0.966-2.896,2.031-3.881,2.715
			c0.008,0.488-0.04,0.917-0.119,1.285c1.694-1.19,3.172-2.231,3.172-2.231S44.13-142.432,44.386-143.626 M166.204-144.387
			c-0.098,0.032-0.197,0.065-0.297,0.097c-0.395,0.132-1.076,0.176-1.811,0.176c-0.247,0-0.501-0.005-0.751-0.013
			c-0.218,0.218-0.431,0.453-0.636,0.708c-0.743,0.932-0.649,2.038-0.506,3.031c1.083-0.359,2.104-0.75,3.553-1.478
			C166.594-142.288,166.367-143.266,166.204-144.387 M135.591-147.372l0.04,0.416c0.779,0.556,1.64,1.164,2.174,1.523
			c0.563,0.381-0.73,1.615,4.238,2.818v3.139l5.271-0.401l-0.888-1.181c-1.046-0.717-3.194-2.162-4.366-2.742
			C140.473-144.598,135.591-147.372,135.591-147.372 M106.563-147.888l-0.428,0.088l-3.47,0.583c0.22,0.668,0.069,2.156-0.104,3.329
			l3.719-0.769v-1.602C106.281-146.258,106.429-146.978,106.563-147.888 M42.467-155.492c-1.28,1.736-2.508,3.511-3.681,5.325
			c-0.403,0.736-0.906,1.53-0.302,3.272c1.338-2.485,2.773-4.91,4.301-7.271c0.203-0.37,0.381-0.726,0.381-1.18
			C43.166-155.346,42.871-155.453,42.467-155.492 M118.613-159.739c-1.373,0.44-2.756,0.85-3.309,1.624
			c-0.632,0.885-0.781,1.691-0.691,2.376c0.995-0.318,1.984-0.652,2.65-1.151c0.629-0.473,1.389-0.884,2.074-1.207
			C119.021-158.503,118.701-159.063,118.613-159.739 M103.251-166.835l-1.398,3.166l1.267,1.907l0.132,0.053V-166.835
			 M111.244-169.492l-1.958,2.154l0.646,0.928l3.551,3.925l2.018-0.387l3.1-2.377l-1.117-1.235l-6.238,1.197V-169.492
			 M66.567-169.512c-0.142,0.105-0.292,0.216-0.454,0.332c-0.321,0.229-0.621,0.464-0.9,0.701l0.943-0.342
			C66.156-168.822,66.289-169.086,66.567-169.512 M143.061-172.749c0,0-0.34,0.566-0.838,1.336c0.311,0.255,0.63,0.514,0.95,0.769
			c0.134-0.273,0.294-0.584,0.477-0.912C143.31-172.251,143.061-172.749,143.061-172.749 M59.636-173.833
			c-1.27,1.065-2.515,2.162-3.732,3.285c-0.094,0.245-0.186,0.483-0.268,0.715c1.236-1.039,2.496-2.048,3.78-3.029
			c-0.017-0.1-0.009-0.219,0.026-0.36C59.495-173.422,59.562-173.625,59.636-173.833 M110.899-174.768l-3.648,1.977v1.956
			l0.178-0.403l3.822,1.529v-4.553L110.899-174.768 M73.235-176.5c-1.336,1.125-2.204,2.279-2.668,2.987
			C72.48-174.943,72.596-175.489,73.235-176.5 M133.077-183.05c-1.533,0.498-3.454,2.903-3.454,2.903s-0.256,0.468-0.546,1.097
			c0.177-0.057,0.349-0.089,0.512-0.089c0.674,0,1.713-0.37,2.804-0.823C132.007-180.473,132.59-181.99,133.077-183.05
			 M89.505-191.463c-0.855,0.329-1.706,0.67-2.551,1.021c-1.133,0.82-2.508,2.012-4.115,3.744c-0.16,0.173-0.314,0.339-0.463,0.499
			c0.192-0.082,0.385-0.162,0.578-0.242c2.504-1.813,3.819-1.81,3.819-1.81S88.27-189.879,89.505-191.463"/>
		<path fill="#FFFF00" d="M170.995-19.271c-0.462,0.357-1.157,0.895-1.92,1.488c0.712-0.433,1.296-0.846,1.649-1.199
			C170.821-19.08,170.911-19.177,170.995-19.271 M172.141-21.055c-0.21,0.164-0.42,0.329-0.627,0.491l0.037,0.561
			C171.784-20.364,171.96-20.71,172.141-21.055 M198.499-45.877c-0.813,0.46-1.637,1.001-2.148,1.542
			c0.075,0.402,0.161,0.92,0.204,1.423c0.293-0.132,0.473-0.207,0.473-0.207L198.499-45.877 M204.203-53.071l-3.176,5.953
			c0,0-0.18,0.075-0.473,0.207c0.019,0.209,0.029,0.415,0.029,0.61c0,1.191-0.396,4.366-0.793,5.954
			c-0.413,1.588-1.199,4.366-1.588,5.938c-0.227,0.906-0.97,2.329-1.785,3.531c0.81-0.755,1.623-1.569,2.229-1.973
			c1.175-0.794,3.159-3.97,3.557-5.558c0.389-1.572,1.175-4.35,1.588-5.938c0.396-1.588,0.793-4.763,0.793-5.954
			C204.584-51.458,204.2-53.03,204.203-53.071 M28.624-73.928c0.616,2.708,1.338,5.376,2.159,7.999
			c0.153,0.066,0.313,0.133,0.481,0.201c1.977,0.802,2.771,1.977,5.152,3.168c2.382,1.199,1.596,0.413,4.756,3.969
			c3.179,3.557,2.782,3.557,3.572,5.557c0.785,1.985,1.981,3.953,2.778,5.16c0.798,1.191,3.172,1.969,4.358,2.771
			c1.187,0.801,3.168,1.579,4.354,1.579c1.195,0,4.768,3.573,6.749,3.97c1.983,0.397,1.983,4.366,1.983,4.366l-1.983,5.542
			l-1.593,5.947l0.945,2.82c0.207-0.044,0.433-0.072,0.688-0.072c1.568,0,3.959-1.993,3.959-1.993l-1.593-4.755l1.593-5.947
			l1.983-5.542c0,0,0-3.969-1.983-4.366c-1.981-0.397-5.554-3.97-6.749-3.97c-1.187,0-3.168-0.778-4.354-1.579
			c-1.187-0.802-3.561-1.581-4.358-2.771c-0.797-1.207-1.993-3.175-2.778-5.16c-0.79-2-0.394-2-3.572-5.557
			c-3.16-3.557-2.374-2.771-4.756-3.969c-2.382-1.191-3.176-2.366-5.152-3.168c-1.984-0.802-2.87-1.469-4.366-2.771
			C29.866-73.419,29.136-73.792,28.624-73.928 M197.795-87.688c-1.042,0.604-3.196,1.596-5.171,1.596
			c-0.179,0-0.355-0.008-0.53-0.025c1.342,1.882,2.563,3.654,3.33,4.933l7.146-1.19c0,0-0.794,3.556-1.588,4.755
			c-0.794,1.183-3.176,4.358-4.358,5.946c-1.199,1.58-2.771,3.961-5.152,5.938c-2.373,1.977-2.391,3.961-3.572,5.557
			c-1.183,1.58-2.779,5.145-2.779,5.145s0.794,7.938,1.191,9.526c0.389,1.587-2.779,5.938-2.779,5.938l-3.572,3.581l-4.779,6.327
			l0.334,5.098c1.896-1.486,4.056-3.151,4.056-3.151l-0.39-5.947l4.779-6.327l3.572-3.581c0,0,3.168-4.351,2.779-5.938
			c-0.397-1.588-1.191-9.526-1.191-9.526s1.597-3.564,2.779-5.145c1.182-1.596,1.199-3.58,3.572-5.557
			c2.382-1.977,3.953-4.358,5.152-5.938c1.183-1.588,3.564-4.764,4.358-5.946c0.794-1.199,1.588-4.755,1.588-4.755l-7.146,1.19
			C199-85.891,198.439-86.747,197.795-87.688 M183.481-99.638c0.484,1.393,1.058,2.815,1.63,3.774
			c0.485,0.817,1.907,2.767,3.58,5.056c-0.098-0.523-0.227-1.028-0.442-1.469C187.881-93.012,185.898-96.044,183.481-99.638
			 M212.683-104.694c0.629,1.012,1.296,2,1.771,2.476c0.179,0.179,0.294,0.359,0.354,0.54c0.242-0.157,0.529-0.345,0.876-0.574
			c0.104-0.07,0.208-0.139,0.309-0.208c-0.658-0.57-1.422-1.155-2.37-1.693C213.287-104.345,212.976-104.526,212.683-104.694
			 M96.386-118.779c-1.191,0.846-2.304,1.78-2.817,2.64c-0.178,0.295-0.355,0.599-0.53,0.909c1.16-0.781,2.306-1.453,2.972-1.873
			c0.161-0.331,0.255-0.651,0.255-0.944C96.265-118.311,96.309-118.552,96.386-118.779 M39.99-137.585
			c-0.404,0-1.089,0.307-1.82,0.705c-1.415,0.996-3.61,2.538-5.104,3.579c-0.411,0.66-0.608,1.161-0.324,1.161
			c0.102,0,0.265-0.063,0.5-0.206c1.034-0.619,2.175-1.239,2.749-1.239c0.526,0,0.576,0.52-0.367,2.037
			c-1.984,3.176-5.553,8.324-6.343,10.313c-0.171,0.433-0.491,0.996-0.889,1.636c-1.388,6.385-2.191,12.984-2.355,19.745
			c0.694-1.676,1.572-5.748,1.302-7.129c-0.396-1.985,1.187-6.748,1.187-9.13s3.971-7.129,4.756-9.122
			c0.79-1.989,4.358-7.137,6.343-10.313C40.566-137.065,40.517-137.585,39.99-137.585 M129.599-138.308c0,0-3.95,0.377-5.538,1.171
			c-1.568,0.797-4.738,1.976-5.926,2.373s-4.347,0.79-4.347,0.79c-0.121-0.054-0.242-0.101-0.361-0.143
			c-0.868,1.129-1.79,2.259-2.503,2.979c-0.476,0.476-1.07,0.773-1.702,0.956c0.187,0.054,0.375,0.124,0.566,0.208
			c0,0,3.159-0.393,4.347-0.79s4.357-1.576,5.926-2.373c1.588-0.794,5.538-1.171,5.538-1.171s3.119,1.247,4.307,1.247
			c1.187,0,5.057-0.695,5.057-0.695s1.795,5.748,1.795,6.946c0,1.195,1.183,2.374,3.176,3.168c1.149,0.474,4.785,1.36,8.392,1.36
			c2.521,0,5.027-0.433,6.66-1.741c0.148-0.117,0.352-0.166,0.586-0.166c1.235,0,3.375,1.353,3.375,1.353s9.907,1.985,11.495,3.171
			c1.102,0.825,2.76,1.461,3.945,2.167c-0.011-0.713-0.069-2.888-0.403-4.519c-0.125-0.611-0.135-1.297-0.088-1.954
			c-0.618-0.284-1.563-0.595-2.644-0.905c-0.828,0.506-1.609,0.991-2.04,1.275c-0.16,0.108-0.32,0.159-0.482,0.159
			c-0.833,0-1.702-1.323-2.73-2.742c-1.743-0.391-3.053-0.653-3.053-0.653s-2.14-1.353-3.375-1.353
			c-0.234,0-0.438,0.049-0.586,0.166c-1.633,1.308-4.14,1.74-6.66,1.74c-3.606,0-7.242-0.885-8.392-1.359
			c-1.993-0.794-3.176-1.973-3.176-3.168c0-0.711-0.632-3.022-1.146-4.786l-1.568,0.119v-2.121
			c-1.221,0.205-3.318,0.536-4.138,0.536C132.718-137.061,129.599-138.308,129.599-138.308 M120.319-140.717
			c-0.065,0.023-0.133,0.046-0.201,0.069c-0.423,0.141-0.804,0.294-1.149,0.458c-0.409,0.568-0.896,1.229-1.406,1.897
			c0.504-0.186,0.973-0.456,1.361-0.844C119.336-139.553,119.818-140.106,120.319-140.717 M174.703-145.972l-3.033,1.682
			c0,0-2.382,0.798-1.977,2.771c0.006,0.032,0.013,0.064,0.02,0.096l1.521-0.843c0,0,2.807-0.505,5.354-0.505
			c0.631,0,1.246,0.031,1.799,0.108c0.575,0.083,1.221,0.166,1.882,0.245c-1.59-1.029-3.982-2.24-5.435-2.24
			c-0.171,0-0.329,0.017-0.471,0.053c-0.116,0.029-0.212,0.042-0.287,0.042C173.57-144.563,173.955-145.176,174.703-145.972
			 M170.293-147.787c-1.064,0.503-2.193,1.016-2.741,1.197c-0.391,0.128-0.879,0.302-1.413,0.548
			c-0.074,0.555-0.012,1.121,0.065,1.655c1.083-0.359,2.104-0.75,3.553-1.478C170.44-146.211,170.414-146.926,170.293-147.787
			 M110.597-151.895l-0.461,0.095l-3.47,0.583c0.22,0.668,0.069,2.156-0.103,3.329l5.203-1.076l0.306-0.397
			C112.072-149.361,110.712-150.345,110.597-151.895 M46.467-159.492c-1.28,1.736-2.508,3.512-3.682,5.326
			c-0.504,0.92-1.163,1.931,0.381,4.771c1.408,2.625,1.484,4.53,1.22,5.769c1.694-1.19,3.172-2.231,3.172-2.231
			s2.375-2.381-0.392-7.538c-2.164-3.982,0-4.367,0-5.951C47.166-159.346,46.871-159.453,46.467-159.492 M131.976-169.321
			c-1.572,1.455-2.735,2.449-2.735,2.449s-2.397,0.794-3.977,1.981c-1.584,1.187-5.006,1.441-5.959,2.775
			c-0.632,0.886-0.781,1.691-0.691,2.376c0.995-0.318,1.984-0.652,2.65-1.151c1.579-1.187,3.977-1.981,3.977-1.981
			s2.779-2.377,5.554-5.156c0,0,0.537-0.324,1.387-0.747C132.113-168.955,132.044-169.138,131.976-169.321 M143.173-170.644
			c-0.3,0.61-0.471,1.032-0.471,1.032s-0.683-0.047-1.586-0.16c-0.142,0.2-0.285,0.398-0.429,0.591
			c-0.638,0.854-1.165,1.824-1.516,2.537c1.685,1.344,3.377,2.577,3.919,2.577c0.422,0,1.24-0.347,2.122-0.796
			c0.237-1.017,0.419-2.154,0.229-2.734c-0.136-0.407-0.459-1.14-0.824-1.928C144.154-169.87,143.663-170.252,143.173-170.644
			 M107.251-170.835l-0.155,0.35l0.155,0.223V-170.835 M70.567-173.512c-0.142,0.106-0.292,0.216-0.454,0.332
			c-0.313,0.223-0.604,0.452-0.878,0.681c-0.003,0.005-0.006,0.009-0.009,0.014l0.93-0.337
			C70.156-172.822,70.289-173.086,70.567-173.512 M45.825-174.603c-0.699,0.634-1.39,1.276-2.073,1.927
			c-19.691,20.674-31.794,48.635-31.794,79.373c0,63.507,51.67,115.165,115.169,115.165c30.739,0,58.71-12.105,79.386-31.798
			c0.651-0.683,1.293-1.374,1.927-2.073c-20.454,18.553-47.589,29.871-77.313,29.871c-29.998,0-57.355-11.529-77.873-30.389
			c-0.297,0.102-0.603,0.181-0.968,0.181c-0.242,0-0.51-0.035-0.819-0.121C37.799-25.227,27.524-41.54,22.165-59.978
			c-4.023-11.711-6.208-24.268-6.208-37.326C15.958-127.026,27.273-154.152,45.825-174.603 M114.899-178.768l-3.648,1.977v2.528
			l2.681,3.853l3.551,3.925l2.018-0.387l3.1-2.377l-4.668-5.161L114.899-178.768 M78.318-181.962
			c-0.227,0.178-0.461,0.371-0.704,0.578c-3.732,3.979-2.843,2.791-3.924,4.227c-0.184,0.244-0.329,0.46-0.455,0.658
			c0.273-0.229,0.565-0.458,0.878-0.681c2.783-1.993,2.39-2.397,3.577-3.978C78.021-181.597,78.168-181.791,78.318-181.962
			 M152.648-191.772c-1.969,0-6.732,1.81-8.327,2.211c-1.563,0.39-5.152,2.422-6.732,2.422c-1.576,0-3.966,2.993-3.966,2.993
			s-0.256,0.468-0.546,1.097c0.177-0.057,0.349-0.089,0.512-0.089c1.58,0,5.169-2.032,6.732-2.422
			c1.595-0.401,6.358-2.211,8.327-2.211c1.985,0,4.367,0.854,5.565,0.854s5.946,0,5.946,0l8.311-0.667c0,0,7.146,2.64,4.756,4.235
			c0,0,2.795,1.714,3.978,2.901c0.22,0.222,0.51,0.315,0.846,0.315c1.359,0,3.475-1.53,4.799-2.269
			c27.404,17.201,46.418,46.624,49.151,80.615c0.726,1.753,1.681,4.145,1.91,5.102c0.271,1.048,1.397,3.489,2.128,5.359
			c0.127-1.993,0.302-3.962,0.302-5.979c0-9.678-1.318-19.051-3.781-27.949c-8.266-25.095-24.938-46.402-46.67-60.578
			c-1.249,0.761-2.775,1.698-3.839,1.698c-0.336,0-0.626-0.094-0.846-0.315c-1.183-1.187-3.978-2.901-3.978-2.901
			c2.39-1.596-4.756-4.235-4.756-4.235l-8.311,0.667c0,0-4.748,0-5.946,0S154.634-191.772,152.648-191.772 M93.505-195.463
			c-12.536,4.826-23.901,11.963-33.602,20.915c-0.094,0.245-0.186,0.483-0.268,0.715c8.15-6.843,17.343-12.465,27.318-16.609
			c2.504-1.813,3.819-1.81,3.819-1.81S92.27-193.879,93.505-195.463"/>
		<path fill="#FFFFFF" d="M174.388-126.771c0,0-1.644,0.982-3.137,1.896c1.081,0.31,2.025,0.621,2.644,0.905
			C174-125.444,174.388-126.771,174.388-126.771 M129.875-144.217c0,0-4.669,0.798-5.863,1.195
			c-1.159,0.385-1.509,1.519-3.692,2.304c-0.501,0.611-0.983,1.164-1.396,1.58c-0.389,0.389-0.857,0.659-1.361,0.844
			c-0.907,1.188-1.889,2.398-2.639,3.156c-0.389,0.389-0.857,0.659-1.361,0.844c-0.045,0.059-0.09,0.118-0.136,0.177
			c0.119,0.042,0.24,0.089,0.361,0.143c0,0,3.159-0.393,4.347-0.79s4.357-1.576,5.926-2.373c1.588-0.794,5.538-1.171,5.538-1.171
			s3.119,1.247,4.307,1.247c0.819,0,2.917-0.331,4.138-0.536v-1.018c-4.969-1.203-3.675-2.438-4.238-2.818
			C132.63-142.224,129.875-144.217,129.875-144.217 M172.736-148.972c0,0-1.176,0.586-2.443,1.185
			c0.121,0.861,0.147,1.576-0.536,1.922c-1.448,0.728-2.47,1.119-3.553,1.478c0.163,1.121,0.39,2.099-0.447,2.522
			c-1.448,0.728-2.47,1.119-3.553,1.478c0.163,1.121,0.39,2.099-0.447,2.522c-1.58,0.793-2.651,1.187-3.85,1.575
			c-0.395,0.132-1.076,0.176-1.811,0.176c-0.07,0-0.142,0-0.213-0.001c0.239,0.349,0.476,0.657,0.664,0.89l-0.729-0.891
			c-1.394-0.019-2.865-0.174-2.865-0.174c-4.097,0-1.478,3.74-0.405,5.065l-3.168-3.87l-2.35-5.545c0,0-0.232-0.163-0.604-0.418
			l0.888,1.181l-5.271,0.401v-3.139c-4.969-1.203-3.675-2.438-4.238-2.818c-0.534-0.359-1.395-0.967-2.174-1.523l0.302,3.157
			l4.588,4.648l0.412,0.107l2.382,3.167l-3.703,0.282c0.514,1.763,1.146,4.075,1.146,4.786c0,1.195,1.183,2.374,3.176,3.168
			c1.149,0.474,4.785,1.359,8.392,1.359c2.521,0,5.027-0.432,6.66-1.74c0.148-0.117,0.352-0.166,0.586-0.166
			c1.235,0,3.375,1.353,3.375,1.353s1.31,0.262,3.053,0.653c-0.237-0.328-0.483-0.662-0.74-0.985
			c-1.588-1.978-3.176-4.367-3.564-6.351c-0.405-1.973,1.977-2.771,1.977-2.771l2.043-1.133c-0.007-0.032-0.014-0.064-0.02-0.096
			c-0.405-1.973,1.977-2.771,1.977-2.771l2.043-1.133c-0.007-0.032-0.014-0.064-0.02-0.096c-0.405-1.973,1.977-2.771,1.977-2.771
			l3.033-1.682c0.65-0.691,1.576-1.52,2.431-2.202L172.736-148.972 M143.649-171.555c-0.183,0.328-0.343,0.639-0.477,0.912
			c0.49,0.392,0.981,0.774,1.445,1.119C144.295-170.221,143.939-170.96,143.649-171.555 M200.555-46.912
			c0.293-0.132,0.473-0.207,0.473-0.207l3.176-5.953c-0.003,0.041,0.381,1.613,0.381,2.77c0,1.191-0.396,4.366-0.793,5.954
			c-0.413,1.588-1.199,4.366-1.588,5.938c-0.397,1.588-2.382,4.764-3.557,5.558c-0.605,0.404-1.419,1.218-2.229,1.973
			c-0.613,0.905-1.267,1.686-1.771,2.027c-0.606,0.404-1.42,1.218-2.229,1.973c-0.613,0.905-1.267,1.686-1.771,2.027
			c-1.191,0.793-3.185,3.175-4.367,3.572c-0.068,0.023-0.136,0.034-0.201,0.034c-1.069,0-1.76-2.912-1.386-4.4
			c0.405-1.588,2.381-5.946,2.381-5.946s0.397-2.374,0.787-3.962c0.26-1.02,2.316-2.199,3.755-2.913
			c0.079-0.378,0.162-0.75,0.245-1.087c0.197-0.773,1.428-1.639,2.639-2.323l1.704-3.194c-0.002,0.017,0.067,0.313,0.147,0.737
			c0.512-0.541,1.335-1.083,2.148-1.542l1.704-3.194C200.2-49.038,200.466-47.944,200.555-46.912 M42.785-154.166
			c1.174-1.814,2.401-3.59,3.682-5.326c0.404,0.04,0.699,0.146,0.699,0.146c0,1.584-2.164,1.969,0,5.951
			c2.767,5.156,0.392,7.538,0.392,7.538s-1.478,1.042-3.172,2.231c-0.256,1.194-0.828,1.769-0.828,1.769s-1.478,1.042-3.172,2.231
			c-0.256,1.194-0.828,1.769-0.828,1.769s-0.561,0.395-1.388,0.977c0.731-0.398,1.416-0.705,1.82-0.705
			c0.526,0,0.576,0.52-0.367,2.037c-1.984,3.176-5.553,8.324-6.343,10.313c-0.785,1.993-4.756,6.74-4.756,9.122
			s-1.583,7.145-1.187,9.13c0.271,1.381-0.607,5.453-1.302,7.129c0.164-6.761,0.968-13.36,2.355-19.745
			c-1.434,2.308-3.867,5.622-3.867,7.486c0,2.382-1.583,7.145-1.187,9.13c0.271,1.381-0.607,5.453-1.302,7.129
			c0.164-6.761,0.968-13.36,2.355-19.745c-1.434,2.308-3.867,5.622-3.867,7.486c0,2.382-1.583,7.145-1.187,9.13
			c0.271,1.381-0.607,5.453-1.302,7.129c0.54-22.289,8.042-42.834,20.431-59.637c0.404,0.04,0.699,0.146,0.699,0.146
			c0,0.454-0.178,0.809-0.38,1.179c1.173-1.814,2.4-3.589,3.681-5.325c0.404,0.04,0.699,0.146,0.699,0.146
			C43.166-154.892,42.988-154.536,42.785-154.166 M111.251-174.263v-2.528l3.648-1.977l3.032,4.358l4.668,5.161l-3.1,2.377
			l-2.018,0.387l1.117,1.235l-3.1,2.377l-2.018,0.387l1.117,1.235l-3.1,2.377l-8.256,1.584v-4.204l-3.815,4.196l-1.576-2.374
			l1.576-3.569l3.69,1.476l-1.267-1.907l1.398-3.166v-1.956l3.648-1.977l0.196,0.283l0.155-0.35v-1.956l3.648-1.977L111.251-174.263
			 M59.636-173.833c0.082-0.232,0.174-0.47,0.268-0.715c9.7-8.951,21.065-16.088,33.602-20.915
			c-1.235,1.583-2.731,3.211-2.731,3.211s-1.315-0.003-3.819,1.81c0.845-0.351,1.695-0.691,2.551-1.021
			c-1.235,1.583-2.731,3.211-2.731,3.211s-1.315-0.003-3.819,1.81c0.845-0.351,1.695-0.691,2.551-1.021
			c-1.235,1.583-2.731,3.211-2.731,3.211s-1.538-0.005-4.455,2.29c-0.15,0.171-0.297,0.365-0.628,0.805
			c-1.188,1.58-0.794,1.985-3.577,3.978c-0.313,0.223-0.604,0.451-0.878,0.681c-0.64,1.01-0.755,1.556-2.668,2.987
			c-0.278,0.426-0.411,0.69-0.411,0.69l-0.93,0.337c-0.632,1.001-0.755,1.549-2.659,2.973c-0.278,0.426-0.411,0.69-0.411,0.69
			l-0.943,0.342c-2.124,1.795-3.057,3.658-3.057,3.658l-4.367,1.583l-3.56-1.583c0,0-1.146,0.428-1.977,0.428
			c-0.556,0-0.972-0.191-0.811-0.829c0.112-0.42,0.282-0.861,0.461-1.326c1.218-1.124,2.463-2.22,3.732-3.285
			c0.082-0.232,0.174-0.47,0.268-0.715C57.121-171.672,58.366-172.768,59.636-173.833 M123.127-204.472
			c-29.719,0-56.85,11.319-77.302,29.869c-18.552,20.451-29.868,47.577-29.868,77.299c0,13.059,2.184,25.615,6.208,37.326
			c-0.569-1.96-1.084-3.944-1.541-5.95c0.512,0.135,1.242,0.508,2.274,1.429c1.369,1.192,2.228,1.851,3.885,2.569
			c-0.821-2.623-1.542-5.291-2.159-7.999c0.512,0.135,1.242,0.508,2.274,1.429c1.369,1.191,2.228,1.851,3.885,2.569
			c-0.821-2.623-1.543-5.291-2.159-7.999c0.512,0.135,1.242,0.508,2.274,1.429c1.496,1.302,2.382,1.969,4.366,2.771
			c1.977,0.802,2.771,1.977,5.152,3.168c2.382,1.199,1.596,0.413,4.756,3.969c3.179,3.557,2.782,3.557,3.572,5.557
			c0.785,1.985,1.981,3.953,2.778,5.16c0.798,1.191,3.172,1.969,4.358,2.771c1.187,0.801,3.168,1.579,4.354,1.579
			c1.195,0,4.768,3.573,6.749,3.97c1.983,0.397,1.983,4.366,1.983,4.366l-1.983,5.542l-1.593,5.947l1.593,4.755
			c0,0-2.391,1.993-3.959,1.993c-0.256,0-0.481,0.028-0.688,0.072l0.647,1.935c0,0-2.391,1.993-3.959,1.993
			c-0.256,0-0.481,0.028-0.688,0.073l0.647,1.934c0,0-2.391,1.993-3.959,1.993c-0.753,0-1.25,0.246-1.772,0.423
			c20.518,18.86,47.875,30.389,77.873,30.389c29.724,0,56.858-11.318,77.313-29.871c18.549-20.449,29.863-47.572,29.863-77.294
			c0-12.547-2.018-24.634-5.744-35.949c2.463,8.898,3.781,18.271,3.781,27.949c0,2.017-0.175,3.985-0.302,5.979
			c-0.73-1.87-1.857-4.312-2.128-5.359c-0.229-0.957-1.185-3.349-1.91-5.102c0.225,2.798,0.34,5.627,0.34,8.482
			c0,2.017-0.175,3.985-0.302,5.979c-0.73-1.87-1.857-4.312-2.128-5.359c-0.229-0.958-1.185-3.349-1.91-5.102
			c0.225,2.798,0.34,5.627,0.34,8.482c0,2.017-0.175,3.985-0.302,5.979c-0.73-1.87-1.857-4.312-2.128-5.359
			c-0.381-1.591-2.77-7.145-2.77-7.145s-2.382-3.171-3.962-3.969c-1.042-0.523-1.917-1.563-3.188-2.662
			c-0.101,0.068-0.204,0.138-0.309,0.208c-0.347,0.229-0.634,0.417-0.876,0.574c0.333,1.017-1.115,2.082-3.124,3.426
			c-0.347,0.229-0.634,0.417-0.876,0.574c0.333,1.017-1.115,2.082-3.124,3.426c-2.381,1.576-1.984,1.187-3.191,2.373
			c-1.19,1.188-5.144,3.188-6.335,3.97c-0.098,0.064-0.219,0.14-0.361,0.222c0.645,0.942,1.205,1.797,1.629,2.503l7.146-1.19
			c0,0-0.794,3.556-1.588,4.755c-0.794,1.183-3.176,4.358-4.358,5.946c-1.199,1.58-2.771,3.961-5.152,5.938
			c-2.373,1.977-2.391,3.961-3.572,5.557c-1.183,1.58-2.779,5.145-2.779,5.145s0.794,7.938,1.191,9.526
			c0.389,1.587-2.779,5.938-2.779,5.938l-3.572,3.581l-4.779,6.327l0.39,5.947c0,0-2.159,1.665-4.056,3.151l0.056,0.849
			c0,0-1.714,1.321-3.429,2.66c-0.181,0.345-0.356,0.691-0.59,1.051l0.019,0.289c0,0-0.217,0.167-0.574,0.444
			c-0.084,0.095-0.174,0.191-0.271,0.289c-0.354,0.353-0.938,0.766-1.649,1.199c-0.304,0.237-0.619,0.482-0.935,0.728
			c-0.344,0.656-0.67,1.319-1.416,2.073c-0.477,0.477-1.376,1.063-2.442,1.661c-0.404,0.745-0.711,1.483-1.558,2.339
			c-1.579,1.579-7.779,4.358-9.367,4.755c-1.579,0.397-10.329,1.588-10.329,1.588v-3.564l-0.182-3.962c0,0-1.199-4.763-2.397-6.351
			c-1.199-1.579-0.676-3.969-2.66-5.946c-1.983-1.984-2.714-3.565-3.112-4.763c-0.396-1.184,0.43-4.748,0.43-4.748
			s1.603-4.366,2.396-5.947c0.794-1.587,0-3.961-0.794-5.557c-0.793-1.588-1.175-5.557-1.175-6.74c0-1.183-3.19-3.175-4.382-4.366
			c-1.183-1.183-0.777-2.779-0.777-4.342c0-1.604-1.191-5.168-0.802-7.947c0.152-1.064-0.339-1.43-1.136-1.43
			c-1.276,0-3.34,0.936-4.807,1.43c-0.422,0.142-0.819,0.208-1.187,0.208c-1.704,0-2.771-1.432-2.771-3.392
			c0-0.792-0.481-1.099-1.227-1.099c-1.497,0-4.058,1.24-5.915,2.29c-2.787,1.588-5.95,1.588-9.138,2.779
			c-0.634,0.239-1.204,0.334-1.71,0.334c-2.021,0-3.029-1.517-3.029-1.517s-2.787-2.374-4.756-3.572
			c-1.988-1.183-3.974-3.557-5.564-5.542c-1.581-1.993-5.554-7.942-5.938-10.308c-0.397-2.39,0-3.982,0-6.756
			c0-2.771,0-4.358,0.393-6.339c0.397-1.984,1.584-4.366,2.779-6.351c0.607-1.017,2.05-2.135,3.47-3.091
			c0.175-0.31,0.353-0.614,0.53-0.909c0.607-1.017,2.049-2.135,3.47-3.091c0.175-0.31,0.353-0.614,0.53-0.909
			c0.514-0.86,1.626-1.794,2.817-2.64c0.387-1.139,1.604-1.906,2.254-3.237c0.55-1.08,2.013-3.265,4.021-4.042
			c0.533-1.031,1.854-2.991,3.664-3.855c-0.448-0.014-0.838-0.038-1.125-0.038c-1.194,0-6.919-1.584-6.919-1.584v-6.724
			c0,0,0.774-3.771,0.385-4.958l3.47-0.583l0.427-0.088c0.173-1.172,0.323-2.66,0.104-3.329l3.47-0.583l0.428-0.088
			c0.172-1.172,0.322-2.66,0.103-3.329l3.47-0.583l0.461-0.095c-0.048-0.651,0.124-1.402,0.708-2.221
			c0.553-0.773,1.936-1.184,3.309-1.624c-0.09-0.686,0.06-1.491,0.691-2.376c0.553-0.773,1.936-1.184,3.309-1.624
			c-0.09-0.686,0.06-1.491,0.691-2.376c0.953-1.334,4.375-1.588,5.959-2.775c1.579-1.187,3.977-1.981,3.977-1.981
			s1.163-0.995,2.735-2.449c-0.301-0.798-0.602-1.596-0.807-2.193c-0.206-0.645-1.23-0.931-2.501-0.931
			c-1.082,0-2.343,0.207-3.43,0.573c-0.174,0.058-0.32,0.084-0.442,0.084c-1.56,0,0.827-4.359,0.827-4.359s1.921-2.406,3.454-2.903
			c0.29-0.629,0.546-1.097,0.546-1.097s1.921-2.406,3.454-2.903c0.29-0.629,0.546-1.097,0.546-1.097s2.39-2.993,3.966-2.993
			c1.58,0,5.169-2.032,6.732-2.422c1.595-0.401,6.358-2.211,8.327-2.211c1.985,0,4.367,0.854,5.565,0.854s5.946,0,5.946,0
			l8.311-0.667c0,0,7.146,2.64,4.756,4.235c0,0,2.795,1.714,3.978,2.901c0.22,0.222,0.51,0.315,0.846,0.315
			c1.063,0,2.59-0.937,3.839-1.698C167.821-197.616,146.258-204.472,123.127-204.472"/>
	</g>
</g>
</svg>
