<?xml version="1.0" encoding="utf-8"?>
<!-- Generator: Adobe Illustrator 16.0.0, SVG Export Plug-In . SVG Version: 6.00 Build 0)  -->
<!DOCTYPE svg PUBLIC "-//W3C//DTD SVG 1.1//EN" "http://www.w3.org/Graphics/SVG/1.1/DTD/svg11.dtd">
<svg version="1.1" xmlns="http://www.w3.org/2000/svg" xmlns:xlink="http://www.w3.org/1999/xlink" x="0px" y="0px"
	 width="249.951px" height="250.095px" viewBox="-137.5 -260.5 249.951 250.095"
	 enable-background="new -137.5 -260.5 249.951 250.095" xml:space="preserve">
<g id="Layer_1">
</g>
<g id="Layer_1_copy">
</g>
<g id="Layer_1_copy_2">
	<g>
		<path fill="#0000FF" d="M-65.674-30.981c-2.165,1.631-3.568,4.223-3.568,7.132v8.926H37.877v-4H-66.242v-8.926
			C-66.242-28.95-66.041-30.006-65.674-30.981 M-35.463-49.558c-2.298,2.53-4.113,5.503-5.304,8.782h1.893
			C-38.26-43.943-37.087-46.905-35.463-49.558 M-127.101-104.189h-4.628c6.542,18.412,23.968,31.714,44.632,31.714
			c16.11,0,30.251-8.084,38.803-20.371c-0.172,0.158-0.347,0.315-0.521,0.47c-8.654,9.74-21.218,15.901-35.282,15.901
			C-103.231-76.475-119.59-87.881-127.101-104.189 M15.724-104.189h-4.627c6.538,18.412,23.974,31.714,44.635,31.714
			c16.104,0,30.25-8.074,38.802-20.363c-0.172,0.157-0.345,0.313-0.519,0.467C85.36-82.63,72.792-76.475,58.731-76.475
			C39.599-76.475,23.232-87.881,15.724-104.189 M-82.851-170.587l-2.255,5.976l19.779,52.422h4.509L-82.851-170.587 M59.977-170.588
			l-2.255,5.975l19.782,52.423h4.509L59.977-170.588 M-28.979-175.602h-3.484c0,5.98,3.151,11.193,7.854,14.166v100.387
			c0.952-0.707,1.955-1.354,3-1.932v-102.455C-25.227-167.723-27.926-171.335-28.979-175.602 M-88.919-186.392
			c-1.047,0.398-1.931,1.158-2.352,2.282l-27.139,71.921h1.491L-88.919-186.392 M53.907-186.393
			c-1.049,0.397-1.933,1.158-2.353,2.283L24.42-112.189h1.49L53.907-186.393 M-92.527-209.578c-2.176,1.645-3.582,4.255-3.582,7.196
			c0,4.982,4.033,9.014,9.013,9.014c3.819,0,6.966-2.409,8.271-5.766c-1.462,1.107-3.274,1.766-5.271,1.766
			c-4.98,0-9.013-4.032-9.013-9.014C-93.109-207.508-92.903-208.585-92.527-209.578 M-43.926-215.309
			c-8.033,0-15.774,3.91-22.604,7.358c-2.261,1.143-4.483,2.259-6.665,3.215c-0.813,1.029-1.838,1.875-3.016,2.461
			c-0.414,0.813-0.942,1.556-1.564,2.205c2.686-1.083,5.435-2.461,8.245-3.881c6.83-3.448,14.571-7.358,22.604-7.358
			c7.711,0,12.531,3.562,15.291,6.599c-0.104,0.767-0.231,1.535-0.231,2.328c0,8.935,7.249,16.184,16.184,16.184
			c6.194,0,11.576-3.483,14.295-8.597c-2.916,2.845-6.901,4.597-11.295,4.597c-8.935,0-16.184-7.249-16.184-16.184
			c0-0.793,0.127-1.561,0.231-2.328C-31.395-211.747-36.215-215.309-43.926-215.309 M18.561-215.309
			c-4.791,0-8.462,1.377-11.216,3.146c0.081,0.586,0.153,1.174,0.153,1.781c0,0.196-0.003,0.392-0.01,0.586
			c2.243-0.915,4.915-1.513,8.074-1.513c8.038,0,15.778,3.91,22.596,7.358c3.11,1.569,6.137,3.085,9.091,4.21
			c1.144,3.67,4.439,6.373,8.484,6.373c3.857,0,7.142-2.414,8.43-5.815c-1.51,1.14-3.39,1.815-5.43,1.815
			c-4.045,0-7.341-2.703-8.484-6.373c-2.954-1.125-5.98-2.642-9.091-4.21C34.339-211.399,26.599-215.309,18.561-215.309
			 M-15.683-246.435c0,0-10.586,13.647-10.586,19.497c0,0.685,0.067,1.351,0.195,1.993c2.102,1.109,3.904,2.406,5.44,3.737
			c0.478-0.528,0.99-1.023,1.533-1.481c-2.511-1.911-4.168-4.852-4.168-8.249c0-3.813,4.499-10.939,7.631-15.439
			C-15.668-246.416-15.683-246.435-15.683-246.435"/>
		<path fill="#00FF00" d="M40.877-22.923h-3v4h3V-22.923 M-61.3-35.834c-2.001,1.004-3.578,2.74-4.374,4.853
			c1.01-0.761,2.185-1.313,3.461-1.591C-62.119-33.736-61.8-34.838-61.3-35.834 M-29.471-56.382
			c-2.367,1.913-4.397,4.219-5.992,6.824c1.089-1.198,2.285-2.297,3.576-3.282C-31.177-54.087-30.368-55.271-29.471-56.382
			 M-123.101-108.189h-5.628c0.484,1.362,1.028,2.697,1.628,4h5.672l0.16-0.424C-121.928-105.777-122.538-106.968-123.101-108.189
			 M19.724-108.189h-5.627c0.483,1.362,1.027,2.697,1.627,4h5.678l0.158-0.418C20.898-105.773,20.287-106.966,19.724-108.189
			 M1.025-169.96c-0.255,0.182-0.516,0.356-0.781,0.524v0.492C0.517-169.272,0.777-169.611,1.025-169.96 M-80.096-177.888
			l-0.238,0.631l24.554,65.067h0.473L-80.096-177.888 M62.731-177.888l-0.239,0.634l24.549,65.064h0.481L62.731-177.888
			 M-24.979-179.602h-4.484c0,1.38,0.168,2.72,0.484,4h4.37h1.191C-24.101-176.847-24.631-178.189-24.979-179.602 M-84.814-190.671
			c-1.504,0.205-2.894,1.058-3.457,2.561l-0.648,1.718c0.574-0.218,1.197-0.327,1.82-0.327c0.259,0,0.518,0.019,0.772,0.056
			L-84.814-190.671 M58.012-190.671c-1.505,0.203-2.896,1.057-3.457,2.561l-0.647,1.717c0.572-0.217,1.194-0.326,1.816-0.326
			c0.26,0,0.52,0.019,0.775,0.057L58.012-190.671 M0.581-197.113c-0.407,0.285-0.827,0.551-1.26,0.798
			c-0.211,0.521-0.448,1.028-0.709,1.52C-0.662-195.503-0.002-196.28,0.581-197.113 M-77.774-200.069
			c-0.28,0.113-0.56,0.223-0.839,0.329c-0.064,0.206-0.135,0.408-0.212,0.607C-78.452-199.417-78.1-199.73-77.774-200.069
			 M66.784-202.326c-0.651,0.327-1.347,0.578-2.076,0.741c-0.073,0.838-0.261,1.645-0.547,2.401
			C65.258-200.012,66.16-201.087,66.784-202.326 M-88.149-214.437c-2.002,1.009-3.576,2.743-4.378,4.858
			c1.007-0.761,2.179-1.315,3.453-1.601C-88.973-212.342-88.65-213.442-88.149-214.437 M23.914-219.272
			c6.711,1.515,12.754,4.569,18.27,7.358c2.449,1.238,4.829,2.428,7.044,3.357c0.308-0.325,0.639-0.628,0.99-0.906
			c-1.663-0.775-3.35-1.623-5.062-2.487C38.723-215.205,31.467-218.87,23.914-219.272 M-39.194-219.298
			c4.921,1.255,8.7,3.612,11.56,6.089c0.391-0.431,0.803-0.84,1.237-1.226C-29.176-216.851-33.31-219.123-39.194-219.298
			 M-3.431-225.912c-0.111,0.064-0.223,0.127-0.335,0.188c0.063,0.02,0.126,0.041,0.188,0.062
			C-3.528-225.745-3.479-225.828-3.431-225.912 M-12.683-250.435c0,0-1.283,1.654-2.956,4.057c0.099,0.129,0.359,0.47,0.737,0.978
			c0.929-1.522,1.897-2.992,2.786-4.288C-12.475-250.166-12.683-250.435-12.683-250.435"/>
		<path fill="#00FFFF" d="M-62.213-32.572c-1.276,0.278-2.451,0.83-3.461,1.591c-0.367,0.976-0.568,2.031-0.568,3.132v8.926H37.877
			v-4H-62.242v-8.926C-62.242-32.093-62.232-32.334-62.213-32.572 M-31.888-52.84c-1.291,0.985-2.487,2.083-3.576,3.282
			c-1.624,2.653-2.796,5.615-3.412,8.782h3.531C-35.159-45.161-33.926-49.262-31.888-52.84 M21.56-104.607l-0.158,0.418h-5.678
			c7.509,16.309,23.875,27.714,43.008,27.714c14.061,0,26.629-6.155,35.283-15.896c-8.327,7.396-19.259,11.896-31.283,11.896
			C45.034-80.475,29.702-90.236,21.56-104.607 M-121.269-104.614l-0.16,0.424h-5.672c7.511,16.309,23.869,27.714,43.004,27.714
			c14.064,0,26.627-6.161,35.282-15.901c-8.326,7.396-19.255,11.901-31.282,11.901C-97.799-80.475-113.126-90.239-121.269-104.614
			 M-23.418-175.602h-1.191h-4.37c1.053,4.267,3.752,7.879,7.37,10.166v102.455c1.272-0.705,2.609-1.309,4-1.803v-104.652
			C-20.029-170.965-22.038-173.087-23.418-175.602 M62.492-177.254l-2.516,6.666l22.036,58.398h5.028L62.492-177.254
			 M-80.334-177.257l-2.517,6.67l22.034,58.397h5.037L-80.334-177.257 M-87.099-186.719c-0.623,0-1.247,0.109-1.82,0.327l-28,74.203
			h2.491l28.102-74.473C-86.582-186.7-86.84-186.719-87.099-186.719 M55.724-186.719c-0.622,0-1.244,0.108-1.816,0.326
			L25.91-112.189h2.491l28.098-74.473C56.243-186.7,55.983-186.719,55.724-186.719 M-89.075-211.179
			c-1.274,0.285-2.445,0.839-3.453,1.601c-0.376,0.993-0.582,2.07-0.582,3.196c0,4.982,4.033,9.014,9.013,9.014
			c1.996,0,3.809-0.658,5.271-1.766c0.077-0.199,0.148-0.401,0.212-0.607c0.279-0.106,0.559-0.216,0.839-0.329
			c0.623-0.648,1.15-1.391,1.564-2.205c-1.166,0.58-2.48,0.906-3.886,0.906c-4.98,0-9.013-4.032-9.013-9.014
			C-89.109-210.65-89.098-210.916-89.075-211.179 M-39.926-219.309c-8.033,0-15.774,3.91-22.604,7.358
			c-3.103,1.569-6.132,3.085-9.083,4.21c-0.345,1.105-0.885,2.123-1.581,3.005c2.181-0.957,4.403-2.072,6.665-3.215
			c6.83-3.448,14.571-7.358,22.604-7.358c7.711,0,12.531,3.562,15.291,6.599c-0.104,0.767-0.231,1.535-0.231,2.328
			c0,8.935,7.249,16.184,16.184,16.184c4.394,0,8.379-1.752,11.295-4.597c0.261-0.492,0.499-0.999,0.709-1.52
			c-2.361,1.347-5.093,2.117-8.004,2.117c-8.935,0-16.184-7.249-16.184-16.184c0-0.793,0.127-1.561,0.231-2.328
			c-0.514-0.565-1.099-1.149-1.761-1.725c-0.434,0.385-0.847,0.794-1.237,1.226c-2.86-2.478-6.639-4.834-11.56-6.089
			C-39.435-219.305-39.679-219.309-39.926-219.309 M22.561-219.309c-7.725,0-12.536,3.579-15.291,6.607
			c0.024,0.18,0.05,0.359,0.075,0.538c2.754-1.769,6.425-3.146,11.216-3.146c8.038,0,15.778,3.91,22.596,7.358
			c3.11,1.569,6.137,3.085,9.091,4.21c1.144,3.67,4.439,6.373,8.484,6.373c2.04,0,3.92-0.675,5.43-1.815
			c0.286-0.757,0.474-1.563,0.547-2.401c-0.636,0.142-1.297,0.217-1.977,0.217c-4.045,0-7.341-2.703-8.484-6.373
			c-1.328-0.506-2.671-1.091-4.029-1.724c-0.352,0.278-0.683,0.581-0.99,0.906c-2.215-0.929-4.595-2.119-7.044-3.357
			c-5.516-2.789-11.559-5.843-18.27-7.358C23.464-219.296,23.013-219.309,22.561-219.309 M-15.639-246.378
			c-3.132,4.5-7.631,11.626-7.631,15.439c0,3.397,1.658,6.337,4.168,8.249c1.595-1.348,3.456-2.384,5.502-3.034
			c-3.331-1.787-5.67-5.178-5.67-9.214c0-2.582,2.063-6.685,4.368-10.461C-15.279-245.908-15.54-246.249-15.639-246.378"/>
		<path fill="#FF0000" d="M-40.768-40.776h-12.548c-3.486,0-6.516,2.016-7.984,4.942c1.201-0.603,2.554-0.942,3.984-0.942h15.441
			C-41.608-38.15-41.236-39.487-40.768-40.776 M-24.609-61.049c-1.813,1.346-3.446,2.915-4.862,4.667
			c1.495-1.207,3.124-2.257,4.862-3.125V-61.049 M-118.41-112.189h-6.318c0.484,1.362,1.028,2.697,1.628,4h3.181L-118.41-112.189
			 M24.42-112.189h-6.323c0.483,1.362,1.027,2.697,1.627,4h3.187L24.42-112.189 M-86.351-167.912l-22.533,59.723h45.067l-1.509-4
			h-39.558l19.778-52.422L-86.351-167.912 M56.477-167.913l-22.538,59.723h45.074l-1.509-4H37.938l19.783-52.423L56.477-167.913
			 M0.244-168.944c-0.355,0.428-0.732,0.838-1.128,1.229c-0.769,1.427-1.739,2.729-2.872,3.872v103.06
			c10.034,3.565,17.261,12.867,17.732,24.008H31.95c4.917,0,8.927,4.01,8.927,8.927v4.926h4v-8.926c0-4.917-4.01-8.927-8.927-8.927
			H17.976c-0.471-11.141-7.698-20.443-17.732-24.008V-168.944 M8.098-183.602H0.244h-17.853h-7.854c0,1.38,0.168,2.719,0.484,4h3.37
			h17.853h7.854l0,0c0,3.599-1.139,6.92-3.073,9.642C5.296-172.999,8.098-177.959,8.098-183.602 M-80.099-194.719
			c-1.761,0-3.521,0.87-4.172,2.608l-0.543,1.439c0.236-0.032,0.476-0.048,0.715-0.048c1.761,0,3.523,0.869,4.179,2.608
			l30.159,79.921h10.3c-1.921,5.405-4.779,10.37-8.383,14.687c-0.148,0.22-0.298,0.439-0.449,0.657
			c5.729-5.241,10.177-11.872,12.832-19.344h-10.3L-75.92-192.11C-76.576-193.849-78.338-194.719-80.099-194.719 M62.724-194.719
			c-1.761,0-3.52,0.87-4.169,2.608l-0.543,1.439c0.235-0.032,0.474-0.048,0.712-0.048c1.761,0,3.524,0.869,4.182,2.608
			l30.154,79.921h10.304c-1.92,5.412-4.779,10.38-8.385,14.698c-0.146,0.219-0.295,0.437-0.445,0.653
			c5.729-5.241,10.177-11.872,12.83-19.351H97.06L66.905-192.11C66.248-193.849,64.484-194.719,62.724-194.719 M7.487-209.795
			c-1.553,0.633-2.901,1.418-4.063,2.261c0.043,0.379,0.073,0.762,0.073,1.153c0,3.447-1.078,6.643-2.916,9.269
			C4.613-199.935,7.3-204.548,7.487-209.795 M-39.926-228.235c-10.168,0-18.917,4.419-26.627,8.32
			c-2.455,1.238-4.83,2.428-7.035,3.348c-1.644-1.722-3.936-2.829-6.508-2.829c-3.522,0-6.57,2.017-8.053,4.959
			c1.218-0.614,2.595-0.959,4.053-0.959c2.572,0,4.865,1.107,6.508,2.829c2.205-0.92,4.58-2.11,7.035-3.348
			c7.71-3.901,16.458-8.32,26.627-8.32c8.892,0,15.086,3.382,19.292,7.026c0.622-0.687,1.301-1.318,2.032-1.886
			c-1.747-1.496-3.008-3.521-3.472-5.851C-29.726-226.873-34.282-228.235-39.926-228.235 M22.561-228.235
			c-8.893,0-15.081,3.382-19.292,7.026c-1.839-2.032-4.186-3.563-6.847-4.454c-0.618,1.017-1.407,1.922-2.324,2.684
			c-0.24,0.564-0.529,1.104-0.862,1.612c2.326,0.916,4.384,2.336,6.033,4.158c4.211-3.644,10.399-7.026,19.292-7.026
			c10.164,0,18.908,4.419,26.623,8.32c2.449,1.238,4.829,2.428,7.044,3.357c1.639-1.731,3.931-2.838,6.504-2.838
			c4.984,0,9.012,4.032,9.012,9.014c0,1.459-0.346,2.837-0.959,4.056c2.943-1.483,4.959-4.532,4.959-8.056
			c0-4.982-4.027-9.014-9.012-9.014c-2.573,0-4.865,1.107-6.504,2.838c-2.215-0.929-4.595-2.119-7.044-3.357
			C41.469-223.815,32.725-228.235,22.561-228.235 M-8.683-254.435c0,0-1.533,1.977-3.433,4.748
			C-9.92-246.757-2.1-235.966-2.1-230.938c0,1.837-0.486,3.544-1.332,5.027c3.151-1.831,5.332-5.136,5.332-9.027
			C1.9-240.788-8.683-254.435-8.683-254.435"/>
		<path fill="#FF00FF" d="M-38.875-40.776h-1.893c-0.468,1.289-0.841,2.625-1.107,4h2.531
			C-39.287-38.139-39.128-39.475-38.875-40.776 M-21.609-62.981c-1.045,0.578-2.048,1.225-3,1.932v1.542
			c0.968-0.483,1.969-0.91,3-1.276V-62.981 M94.979-93.491c-0.315,0.379-0.637,0.751-0.964,1.12c0.174-0.154,0.347-0.31,0.519-0.467
			C94.684-93.055,94.832-93.272,94.979-93.491 M-47.844-93.502c-0.318,0.38-0.641,0.756-0.97,1.126
			c0.174-0.155,0.349-0.312,0.521-0.47C-48.142-93.063-47.992-93.282-47.844-93.502 M-116.919-112.189h-1.491l-1.509,4h1.491
			L-116.919-112.189 M-60.817-112.189h-4.509l1.509,4h4.509L-60.817-112.189 M25.91-112.189h-1.49l-1.51,4h1.491L25.91-112.189
			 M82.013-112.189h-4.509l1.509,4h4.51L82.013-112.189 M-0.884-167.716c-0.87,0.858-1.833,1.624-2.872,2.28v1.592
			C-2.623-164.986-1.653-166.289-0.884-167.716 M-84.096-173.888l-2.254,5.976l1.245,3.301l2.255-5.976L-84.096-173.888
			 M58.731-173.888l-2.255,5.975l1.245,3.3l2.255-5.975L58.731-173.888 M-73.194-204.735c-0.812,0.356-1.618,0.69-2.419,0.995
			c-0.159,0.509-0.359,0.999-0.597,1.466C-75.032-202.86-74.007-203.706-73.194-204.735 M7.344-212.163
			c-1.686,1.083-3.028,2.312-4.075,3.462c0.053,0.389,0.111,0.776,0.155,1.167c1.162-0.842,2.51-1.627,4.063-2.261
			c0.007-0.194,0.01-0.39,0.01-0.586C7.497-210.989,7.425-211.577,7.344-212.163 M-5.902-222.979
			c-0.575,0.477-1.2,0.898-1.864,1.254c0.339,0.109,0.673,0.229,1.002,0.358C-6.432-221.875-6.142-222.414-5.902-222.979
			 M-26.074-224.945c0.464,2.33,1.726,4.354,3.472,5.851c1.479-1.151,3.167-2.046,5.003-2.629c-0.527-0.283-1.03-0.606-1.502-0.966
			c-0.543,0.458-1.055,0.954-1.533,1.481C-22.17-222.54-23.973-223.836-26.074-224.945"/>
		<path fill="#FFFF00" d="M-41.875-36.776h-15.441c-1.43,0-2.784,0.339-3.984,0.942c-0.5,0.996-0.819,2.098-0.913,3.262
			c0.611-0.133,1.247-0.204,1.897-0.204h17.972C-42.287-34.139-42.128-35.475-41.875-36.776 M-24.609-59.507
			c-1.738,0.868-3.367,1.918-4.862,3.125c-0.896,1.111-1.706,2.294-2.417,3.542c2.183-1.666,4.633-3.004,7.278-3.944V-59.507
			 M-119.919-108.189h-3.181c0.563,1.221,1.173,2.412,1.832,3.576L-119.919-108.189 M22.91-108.189h-3.187
			c0.563,1.223,1.175,2.417,1.836,3.582L22.91-108.189 M-3.756-163.844c-0.903,0.911-1.91,1.719-3,2.408v104.652
			c10.034,3.565,17.261,12.867,17.732,24.008H28.95c4.917,0,8.927,4.01,8.927,8.927v0.926h3v-4.926c0-4.917-4.01-8.927-8.927-8.927
			H13.976C13.505-47.917,6.278-57.219-3.756-60.784V-163.844 M-87.096-169.888l-24.788,65.698h49.576l-1.509-4h-45.067
			l22.533-59.723L-87.096-169.888 M55.731-169.888l-24.793,65.698h49.584l-1.51-4H33.938l22.538-59.723L55.731-169.888
			 M4.098-179.602h-7.854h-17.853h-3.37c0.349,1.413,0.878,2.755,1.562,4h16.662h7.854l0,0c0,2.857-0.718,5.54-1.982,7.886
			c0.396-0.391,0.772-0.801,1.128-1.229v-0.492c0.266-0.167,0.526-0.342,0.781-0.524C2.958-172.682,4.098-176.003,4.098-179.602
			 M-84.099-190.719c-0.239,0-0.479,0.016-0.715,0.048l-1.513,4.008c1.482,0.218,2.847,1.068,3.406,2.552l2.586,6.854l0.238-0.631
			l24.789,65.698h-0.473l3.019,8h10.3c-1.352,3.805-3.168,7.391-5.383,10.687c3.604-4.317,6.462-9.282,8.383-14.687h-10.3
			L-79.92-188.11C-80.576-189.85-82.338-190.719-84.099-190.719 M58.724-190.719c-0.238,0-0.477,0.016-0.712,0.048l-1.513,4.009
			c1.481,0.219,2.846,1.069,3.406,2.552l2.587,6.856l0.239-0.634l24.791,65.698h-0.481l3.019,8h10.304
			c-1.352,3.81-3.169,7.4-5.385,10.698c3.605-4.318,6.465-9.287,8.385-14.698H93.06L62.905-188.11
			C62.248-189.85,60.484-190.719,58.724-190.719 M3.424-207.535c-1.263,0.917-2.306,1.901-3.155,2.833
			c0.104,0.768,0.228,1.526,0.228,2.319c0,2.146-0.417,4.193-1.176,6.067c0.433-0.247,0.853-0.513,1.26-0.798
			c1.838-2.626,2.916-5.822,2.916-9.269C3.497-206.772,3.467-207.155,3.424-207.535 M-43.926-224.235
			c-10.168,0-18.917,4.419-26.627,8.32c-2.455,1.238-4.83,2.428-7.035,3.348c-1.644-1.722-3.936-2.829-6.508-2.829
			c-1.458,0-2.835,0.346-4.053,0.959c-0.501,0.994-0.824,2.095-0.925,3.258c0.636-0.142,1.299-0.217,1.979-0.217
			c2.572,0,4.865,1.107,6.508,2.829c2.205-0.92,4.58-2.11,7.035-3.348c7.71-3.901,16.458-8.32,26.627-8.32
			c2.846,0,5.416,0.347,7.732,0.937c5.884,0.175,10.018,2.447,12.797,4.864c1.659-1.473,3.624-2.599,5.797-3.29
			c-0.718-0.385-1.391-0.846-2.003-1.371c-0.73,0.568-1.41,1.199-2.032,1.886C-28.84-220.853-35.034-224.235-43.926-224.235
			 M18.561-224.235c-8.893,0-15.081,3.382-19.292,7.026c-1.649-1.822-3.707-3.242-6.033-4.158c-0.995,1.521-2.381,2.772-4.002,3.642
			c2.738,0.88,5.152,2.436,7.035,4.516c4.211-3.644,10.399-7.026,19.292-7.026c2.897,0,5.678,0.359,8.354,0.962
			c7.553,0.402,14.809,4.067,21.242,7.322c1.712,0.864,3.398,1.711,5.062,2.487c1.52-1.202,3.424-1.932,5.514-1.932
			c4.984,0,9.012,4.032,9.012,9.014c0,0.269-0.012,0.535-0.035,0.797c0.729-0.163,1.425-0.414,2.076-0.741
			c0.613-1.219,0.959-2.597,0.959-4.056c0-4.982-4.027-9.014-9.012-9.014c-2.573,0-4.865,1.107-6.504,2.838
			c-2.215-0.929-4.595-2.119-7.044-3.357C37.469-219.815,28.725-224.235,18.561-224.235 M-12.116-249.688
			c-0.888,1.296-1.856,2.765-2.786,4.288c2.448,3.292,9.802,13.586,9.802,18.461c0,1.411-0.287,2.745-0.803,3.96
			c0.917-0.762,1.707-1.667,2.324-2.684c-0.063-0.021-0.125-0.042-0.188-0.062c0.113-0.061,0.225-0.123,0.335-0.188
			c0.845-1.483,1.332-3.189,1.332-5.027C-2.1-235.966-9.92-246.757-12.116-249.688"/>
		<path fill="#FFFFFF" d="M1.098-175.602h-7.854h-16.662c1.38,2.515,3.389,4.637,5.809,6.166v104.652
			c-1.391,0.494-2.728,1.098-4,1.803v2.197c-1.031,0.366-2.032,0.793-3,1.276v2.724c-2.645,0.94-5.095,2.278-7.278,3.944
			c-2.039,3.578-3.271,7.679-3.457,12.064h-3.531c-0.253,1.301-0.412,2.637-0.469,4h-2.531c-0.253,1.301-0.412,2.637-0.469,4
			h-17.972c-0.65,0-1.286,0.07-1.897,0.204c-0.02,0.238-0.029,0.479-0.029,0.723v8.926H37.877v-0.926
			c0-4.917-4.01-8.927-8.927-8.927H10.976C10.505-43.917,3.278-53.219-6.756-56.784v-104.652c1.09-0.688,2.097-1.497,3-2.408v-1.592
			c1.039-0.656,2.002-1.421,2.872-2.28C0.379-170.063,1.098-172.745,1.098-175.602 M56.499-186.662l-28.098,74.473H25.91l-1.509,4
			H22.91l-1.351,3.582c8.143,14.371,23.475,24.132,41.172,24.132c12.024,0,22.956-4.5,31.283-11.896
			c0.327-0.369,0.648-0.741,0.964-1.12c2.216-3.298,4.033-6.889,5.385-10.698H90.06l-3.019-8h-5.028l1.51,4h-4.51l1.51,4H30.938
			l24.793-65.698l0.745,1.975l2.255-5.975l1.245,3.3l2.516-6.666l-2.587-6.856C59.345-185.593,57.98-186.443,56.499-186.662
			 M-86.327-186.663l-28.102,74.473h-2.491l-1.509,4h-1.491l-1.349,3.576c8.143,14.375,23.47,24.139,41.172,24.139
			c12.027,0,22.956-4.505,31.282-11.901c0.329-0.37,0.652-0.746,0.97-1.126c2.214-3.296,4.031-6.882,5.383-10.687h-10.3l-3.019-8
			h-5.037l1.509,4h-4.509l1.509,4h-49.576l24.788-65.698l0.746,1.976l2.254-5.976l1.246,3.301l2.517-6.67l-2.586-6.854
			C-83.48-185.594-84.844-186.445-86.327-186.663 M55.731-211.396c-2.09,0-3.994,0.73-5.514,1.932
			c1.358,0.633,2.701,1.218,4.029,1.724c1.144,3.67,4.439,6.373,8.484,6.373c0.68,0,1.341-0.075,1.977-0.217
			c0.023-0.263,0.035-0.529,0.035-0.797C64.743-207.364,60.716-211.396,55.731-211.396 M-46.926-220.235
			c-10.168,0-18.917,4.419-26.627,8.32c-2.455,1.238-4.83,2.428-7.035,3.348c-1.644-1.722-3.936-2.829-6.508-2.829
			c-0.68,0-1.342,0.075-1.979,0.217c-0.023,0.263-0.035,0.528-0.035,0.797c0,4.982,4.033,9.014,9.013,9.014
			c1.406,0,2.721-0.326,3.886-0.906c0.238-0.467,0.438-0.958,0.597-1.466c0.801-0.305,1.607-0.639,2.419-0.995
			c0.696-0.882,1.236-1.9,1.581-3.005c2.951-1.125,5.98-2.642,9.083-4.21c6.83-3.448,14.571-7.358,22.604-7.358
			c0.247,0,0.491,0.004,0.732,0.011C-41.511-219.888-44.08-220.235-46.926-220.235 M-14.901-245.4
			c-2.305,3.777-4.368,7.879-4.368,10.461c0,4.036,2.34,7.427,5.67,9.214c-2.046,0.65-3.907,1.686-5.502,3.034
			c0.472,0.36,0.975,0.683,1.502,0.966c-1.836,0.583-3.523,1.478-5.003,2.629c0.612,0.525,1.285,0.985,2.003,1.371
			c-2.173,0.691-4.138,1.817-5.797,3.29c0.662,0.575,1.248,1.159,1.761,1.725c-0.104,0.767-0.231,1.535-0.231,2.328
			c0,8.935,7.249,16.184,16.184,16.184c2.912,0,5.644-0.77,8.004-2.117c0.758-1.874,1.176-3.921,1.176-6.067
			c0-0.793-0.123-1.552-0.228-2.319c0.849-0.933,1.892-1.917,3.155-2.833c-0.044-0.39-0.102-0.777-0.155-1.167
			c1.046-1.15,2.389-2.379,4.075-3.462c-0.025-0.179-0.05-0.358-0.075-0.538c2.755-3.029,7.566-6.607,15.291-6.607
			c0.452,0,0.903,0.012,1.354,0.036c-2.676-0.604-5.456-0.962-8.354-0.962c-8.893,0-15.081,3.382-19.292,7.026
			c-1.883-2.08-4.297-3.635-7.035-4.516c1.621-0.87,3.007-2.122,4.002-3.642c-0.329-0.129-0.663-0.249-1.002-0.358
			c0.665-0.356,1.29-0.777,1.864-1.254c0.516-1.215,0.803-2.549,0.803-3.96C-5.1-231.814-12.453-242.108-14.901-245.4"/>
	</g>
</g>
</svg>
