<?xml version="1.0" encoding="utf-8"?>
<!-- Generator: Adobe Illustrator 16.0.0, SVG Export Plug-In . SVG Version: 6.00 Build 0)  -->
<!DOCTYPE svg PUBLIC "-//W3C//DTD SVG 1.1//EN" "http://www.w3.org/Graphics/SVG/1.1/DTD/svg11.dtd">
<svg version="1.1" xmlns="http://www.w3.org/2000/svg" xmlns:xlink="http://www.w3.org/1999/xlink" x="0px" y="0px"
	 width="252.232px" height="252.26px" viewBox="0 -228.74 252.232 252.26" enable-background="new 0 -228.74 252.232 252.26"
	 xml:space="preserve">
<g id="Layer_1">
</g>
<g id="Layer_1_copy">
</g>
<g id="Layer_1_copy_2">
	<g>
		<g>
			<defs>
				<polyline id="SVGID_1_" points="234.245,-196.332 15.904,-196.332 15.904,-193.332 231.245,-193.332 231.245,-40.713 
					234.245,-40.713 234.245,-196.332 				"/>
			</defs>
			<clipPath id="SVGID_2_">
				<use xlink:href="#SVGID_1_"  overflow="visible"/>
			</clipPath>
			<g clip-path="url(#SVGID_2_)">
				<path fill="#0000FF" d="M86.072-44.631H47.656v-115.248H15.904v-32.536h101.92v32.536H86.072V-44.631z"/>
				<path fill="#0000FF" d="M212.882-154.39c-7.056-5.88-16.072-9.8-25.479-9.8c-7.057,0-16.464,4.116-16.464,12.348
					c0,8.624,10.388,11.956,17.052,14.112l9.8,2.94c20.58,6.076,36.456,16.464,36.456,40.376c0,14.7-3.528,29.792-15.288,39.788
					c-11.564,9.8-27.048,13.916-41.944,13.916c-18.619,0-36.848-6.272-51.939-16.856l16.464-30.968
					c9.604,8.428,20.972,15.288,34.104,15.288c9.016,0,18.619-4.508,18.619-14.896c0-10.78-15.092-14.504-23.323-16.856
					c-24.108-6.86-39.984-13.132-39.984-41.748c0-29.988,21.364-49.587,50.96-49.587c14.896,0,33.124,4.704,46.256,12.152
					L212.882-154.39z"/>
			</g>
		</g>
		<g>
			<defs>
				<path id="SVGID_3_" d="M231.245-40.713h-4v3h4V-40.713 M15.904-193.332h-3v4h3V-193.332"/>
			</defs>
			<clipPath id="SVGID_4_">
				<use xlink:href="#SVGID_3_"  overflow="visible"/>
			</clipPath>
			<g clip-path="url(#SVGID_4_)">
				<path fill="#00FF00" d="M83.072-41.631H44.656v-115.248H12.904v-32.536h101.92v32.536H83.072V-41.631z"/>
				<path fill="#00FF00" d="M209.882-151.39c-7.056-5.88-16.072-9.8-25.479-9.8c-7.057,0-16.464,4.116-16.464,12.348
					c0,8.624,10.388,11.956,17.052,14.112l9.8,2.94c20.58,6.076,36.456,16.464,36.456,40.376c0,14.7-3.528,29.792-15.288,39.788
					c-11.564,9.8-27.048,13.916-41.944,13.916c-18.619,0-36.848-6.272-51.939-16.856l16.464-30.968
					c9.604,8.428,20.972,15.288,34.104,15.288c9.016,0,18.619-4.508,18.619-14.896c0-10.78-15.092-14.504-23.323-16.856
					c-24.108-6.86-39.984-13.132-39.984-41.748c0-29.988,21.364-49.587,50.96-49.587c14.896,0,33.124,4.704,46.256,12.152
					L209.882-151.39z"/>
			</g>
		</g>
		<g>
			<defs>
				<polyline id="SVGID_5_" points="231.245,-193.332 15.904,-193.332 15.904,-189.332 227.245,-189.332 227.245,-40.713 
					231.245,-40.713 231.245,-193.332 				"/>
			</defs>
			<clipPath id="SVGID_6_">
				<use xlink:href="#SVGID_5_"  overflow="visible"/>
			</clipPath>
			<g clip-path="url(#SVGID_6_)">
				<path fill="#0000FF" d="M86.072-44.631H47.656v-115.248H15.904v-32.536h101.92v32.536H86.072V-44.631z"/>
				<path fill="#0000FF" d="M212.882-154.39c-7.056-5.88-16.072-9.8-25.479-9.8c-7.057,0-16.464,4.116-16.464,12.348
					c0,8.624,10.388,11.956,17.052,14.112l9.8,2.94c20.58,6.076,36.456,16.464,36.456,40.376c0,14.7-3.528,29.792-15.288,39.788
					c-11.564,9.8-27.048,13.916-41.944,13.916c-18.619,0-36.848-6.272-51.939-16.856l16.464-30.968
					c9.604,8.428,20.972,15.288,34.104,15.288c9.016,0,18.619-4.508,18.619-14.896c0-10.78-15.092-14.504-23.323-16.856
					c-24.108-6.86-39.984-13.132-39.984-41.748c0-29.988,21.364-49.587,50.96-49.587c14.896,0,33.124,4.704,46.256,12.152
					L212.882-154.39z"/>
			</g>
			<g clip-path="url(#SVGID_6_)">
				<defs>
					<path id="SVGID_7_" d="M83.072-41.631H44.656v-115.248H12.904v-32.536h101.92v32.536H83.072V-41.631z M209.882-151.39
						c-7.056-5.88-16.072-9.8-25.479-9.8c-7.057,0-16.464,4.116-16.464,12.348c0,8.624,10.388,11.956,17.052,14.112l9.8,2.94
						c20.58,6.076,36.456,16.464,36.456,40.376c0,14.7-3.528,29.792-15.288,39.788c-11.564,9.8-27.048,13.916-41.944,13.916
						c-18.619,0-36.848-6.272-51.939-16.856l16.464-30.968c9.604,8.428,20.972,15.288,34.104,15.288
						c9.016,0,18.619-4.508,18.619-14.896c0-10.78-15.092-14.504-23.323-16.856c-24.108-6.86-39.984-13.132-39.984-41.748
						c0-29.988,21.364-49.587,50.96-49.587c14.896,0,33.124,4.704,46.256,12.152L209.882-151.39z"/>
				</defs>
				<clipPath id="SVGID_8_">
					<use xlink:href="#SVGID_7_"  overflow="visible"/>
				</clipPath>
				<g clip-path="url(#SVGID_8_)">
					<rect x="15.904" y="-193.332" fill="#00FF00" width="215.341" height="152.619"/>
				</g>
				<g clip-path="url(#SVGID_8_)">
					<path fill="#00FFFF" d="M86.072-44.631H47.656v-115.248H15.904v-32.536h101.92v32.536H86.072V-44.631z"/>
					<path fill="#00FFFF" d="M212.882-154.39c-7.056-5.88-16.072-9.8-25.479-9.8c-7.057,0-16.464,4.116-16.464,12.348
						c0,8.624,10.388,11.956,17.052,14.112l9.8,2.94c20.58,6.076,36.456,16.464,36.456,40.376c0,14.7-3.528,29.792-15.288,39.788
						c-11.564,9.8-27.048,13.916-41.944,13.916c-18.619,0-36.848-6.272-51.939-16.856l16.464-30.968
						c9.604,8.428,20.972,15.288,34.104,15.288c9.016,0,18.619-4.508,18.619-14.896c0-10.78-15.092-14.504-23.323-16.856
						c-24.108-6.86-39.984-13.132-39.984-41.748c0-29.988,21.364-49.587,50.96-49.587c14.896,0,33.124,4.704,46.256,12.152
						L212.882-154.39z"/>
				</g>
			</g>
		</g>
		<g>
			<defs>
				<polyline id="SVGID_9_" points="12.904,-189.332 8.904,-189.332 8.904,-33.713 227.245,-33.713 227.245,-37.713 12.904,-37.713 
					12.904,-189.332 				"/>
			</defs>
			<clipPath id="SVGID_10_">
				<use xlink:href="#SVGID_9_"  overflow="visible"/>
			</clipPath>
			<g clip-path="url(#SVGID_10_)">
				<path fill="#FF0000" d="M79.072-37.631H40.656v-115.248H8.904v-32.536h101.92v32.536H79.072V-37.631z"/>
				<path fill="#FF0000" d="M205.882-147.39c-7.056-5.88-16.072-9.8-25.479-9.8c-7.057,0-16.464,4.116-16.464,12.348
					c0,8.624,10.388,11.956,17.052,14.112l9.8,2.94c20.58,6.076,36.456,16.464,36.456,40.376c0,14.7-3.528,29.792-15.288,39.788
					c-11.564,9.8-27.048,13.916-41.944,13.916c-18.619,0-36.848-6.272-51.939-16.856l16.464-30.968
					c9.604,8.428,20.972,15.288,34.104,15.288c9.016,0,18.619-4.508,18.619-14.896c0-10.78-15.092-14.504-23.323-16.856
					c-24.108-6.86-39.984-13.132-39.984-41.748c0-29.988,21.364-49.587,50.96-49.587c14.896,0,33.124,4.704,46.256,12.152
					L205.882-147.39z"/>
			</g>
		</g>
		<g>
			<defs>
				<polyline id="SVGID_11_" points="15.904,-189.332 12.904,-189.332 12.904,-37.713 227.245,-37.713 227.245,-40.713 
					15.904,-40.713 15.904,-189.332 				"/>
			</defs>
			<clipPath id="SVGID_12_">
				<use xlink:href="#SVGID_11_"  overflow="visible"/>
			</clipPath>
			<g clip-path="url(#SVGID_12_)">
				<path fill="#00FF00" d="M83.072-41.631H44.656v-115.248H12.904v-32.536h101.92v32.536H83.072V-41.631z"/>
				<path fill="#00FF00" d="M209.882-151.39c-7.056-5.88-16.072-9.8-25.479-9.8c-7.057,0-16.464,4.116-16.464,12.348
					c0,8.624,10.388,11.956,17.052,14.112l9.8,2.94c20.58,6.076,36.456,16.464,36.456,40.376c0,14.7-3.528,29.792-15.288,39.788
					c-11.564,9.8-27.048,13.916-41.944,13.916c-18.619,0-36.848-6.272-51.939-16.856l16.464-30.968
					c9.604,8.428,20.972,15.288,34.104,15.288c9.016,0,18.619-4.508,18.619-14.896c0-10.78-15.092-14.504-23.323-16.856
					c-24.108-6.86-39.984-13.132-39.984-41.748c0-29.988,21.364-49.587,50.96-49.587c14.896,0,33.124,4.704,46.256,12.152
					L209.882-151.39z"/>
			</g>
			<g clip-path="url(#SVGID_12_)">
				<defs>
					<path id="SVGID_13_" d="M79.072-37.631H40.656v-115.248H8.904v-32.536h101.92v32.536H79.072V-37.631z M205.882-147.39
						c-7.056-5.88-16.072-9.8-25.479-9.8c-7.057,0-16.464,4.116-16.464,12.348c0,8.624,10.388,11.956,17.052,14.112l9.8,2.94
						c20.58,6.076,36.456,16.464,36.456,40.376c0,14.7-3.528,29.792-15.288,39.788c-11.564,9.8-27.048,13.916-41.944,13.916
						c-18.619,0-36.848-6.272-51.939-16.856l16.464-30.968c9.604,8.428,20.972,15.288,34.104,15.288
						c9.016,0,18.619-4.508,18.619-14.896c0-10.78-15.092-14.504-23.323-16.856c-24.108-6.86-39.984-13.132-39.984-41.748
						c0-29.988,21.364-49.587,50.96-49.587c14.896,0,33.124,4.704,46.256,12.152L205.882-147.39z"/>
				</defs>
				<clipPath id="SVGID_14_">
					<use xlink:href="#SVGID_13_"  overflow="visible"/>
				</clipPath>
				<g clip-path="url(#SVGID_14_)">
					<rect x="12.904" y="-189.332" fill="#FF0000" width="214.341" height="151.619"/>
				</g>
				<g clip-path="url(#SVGID_14_)">
					<path fill="#FFFF00" d="M83.072-41.631H44.656v-115.248H12.904v-32.536h101.92v32.536H83.072V-41.631z"/>
					<path fill="#FFFF00" d="M209.882-151.39c-7.056-5.88-16.072-9.8-25.479-9.8c-7.057,0-16.464,4.116-16.464,12.348
						c0,8.624,10.388,11.956,17.052,14.112l9.8,2.94c20.58,6.076,36.456,16.464,36.456,40.376c0,14.7-3.528,29.792-15.288,39.788
						c-11.564,9.8-27.048,13.916-41.944,13.916c-18.619,0-36.848-6.272-51.939-16.856l16.464-30.968
						c9.604,8.428,20.972,15.288,34.104,15.288c9.016,0,18.619-4.508,18.619-14.896c0-10.78-15.092-14.504-23.323-16.856
						c-24.108-6.86-39.984-13.132-39.984-41.748c0-29.988,21.364-49.587,50.96-49.587c14.896,0,33.124,4.704,46.256,12.152
						L209.882-151.39z"/>
				</g>
			</g>
		</g>
		<g>
			<defs>
				<polyline id="SVGID_15_" points="227.245,-189.332 15.904,-189.332 15.904,-40.713 227.245,-40.713 227.245,-189.332 				"/>
			</defs>
			<clipPath id="SVGID_16_">
				<use xlink:href="#SVGID_15_"  overflow="visible"/>
			</clipPath>
			<g clip-path="url(#SVGID_16_)">
				<path fill="#0000FF" d="M86.072-44.631H47.656v-115.248H15.904v-32.536h101.92v32.536H86.072V-44.631z"/>
				<path fill="#0000FF" d="M212.882-154.39c-7.056-5.88-16.072-9.8-25.479-9.8c-7.057,0-16.464,4.116-16.464,12.348
					c0,8.624,10.388,11.956,17.052,14.112l9.8,2.94c20.58,6.076,36.456,16.464,36.456,40.376c0,14.7-3.528,29.792-15.288,39.788
					c-11.564,9.8-27.048,13.916-41.944,13.916c-18.619,0-36.848-6.272-51.939-16.856l16.464-30.968
					c9.604,8.428,20.972,15.288,34.104,15.288c9.016,0,18.619-4.508,18.619-14.896c0-10.78-15.092-14.504-23.323-16.856
					c-24.108-6.86-39.984-13.132-39.984-41.748c0-29.988,21.364-49.587,50.96-49.587c14.896,0,33.124,4.704,46.256,12.152
					L212.882-154.39z"/>
			</g>
			<g clip-path="url(#SVGID_16_)">
				<defs>
					<path id="SVGID_17_" d="M83.072-41.631H44.656v-115.248H12.904v-32.536h101.92v32.536H83.072V-41.631z M209.882-151.39
						c-7.056-5.88-16.072-9.8-25.479-9.8c-7.057,0-16.464,4.116-16.464,12.348c0,8.624,10.388,11.956,17.052,14.112l9.8,2.94
						c20.58,6.076,36.456,16.464,36.456,40.376c0,14.7-3.528,29.792-15.288,39.788c-11.564,9.8-27.048,13.916-41.944,13.916
						c-18.619,0-36.848-6.272-51.939-16.856l16.464-30.968c9.604,8.428,20.972,15.288,34.104,15.288
						c9.016,0,18.619-4.508,18.619-14.896c0-10.78-15.092-14.504-23.323-16.856c-24.108-6.86-39.984-13.132-39.984-41.748
						c0-29.988,21.364-49.587,50.96-49.587c14.896,0,33.124,4.704,46.256,12.152L209.882-151.39z"/>
				</defs>
				<clipPath id="SVGID_18_">
					<use xlink:href="#SVGID_17_"  overflow="visible"/>
				</clipPath>
				<g clip-path="url(#SVGID_18_)">
					<rect x="15.904" y="-189.332" fill="#00FF00" width="211.341" height="148.619"/>
				</g>
				<g clip-path="url(#SVGID_18_)">
					<path fill="#00FFFF" d="M86.072-44.631H47.656v-115.248H15.904v-32.536h101.92v32.536H86.072V-44.631z"/>
					<path fill="#00FFFF" d="M212.882-154.39c-7.056-5.88-16.072-9.8-25.479-9.8c-7.057,0-16.464,4.116-16.464,12.348
						c0,8.624,10.388,11.956,17.052,14.112l9.8,2.94c20.58,6.076,36.456,16.464,36.456,40.376c0,14.7-3.528,29.792-15.288,39.788
						c-11.564,9.8-27.048,13.916-41.944,13.916c-18.619,0-36.848-6.272-51.939-16.856l16.464-30.968
						c9.604,8.428,20.972,15.288,34.104,15.288c9.016,0,18.619-4.508,18.619-14.896c0-10.78-15.092-14.504-23.323-16.856
						c-24.108-6.86-39.984-13.132-39.984-41.748c0-29.988,21.364-49.587,50.96-49.587c14.896,0,33.124,4.704,46.256,12.152
						L212.882-154.39z"/>
				</g>
			</g>
			<g clip-path="url(#SVGID_16_)">
				<defs>
					<path id="SVGID_19_" d="M79.072-37.631H40.656v-115.248H8.904v-32.536h101.92v32.536H79.072V-37.631z M205.882-147.39
						c-7.056-5.88-16.072-9.8-25.479-9.8c-7.057,0-16.464,4.116-16.464,12.348c0,8.624,10.388,11.956,17.052,14.112l9.8,2.94
						c20.58,6.076,36.456,16.464,36.456,40.376c0,14.7-3.528,29.792-15.288,39.788c-11.564,9.8-27.048,13.916-41.944,13.916
						c-18.619,0-36.848-6.272-51.939-16.856l16.464-30.968c9.604,8.428,20.972,15.288,34.104,15.288
						c9.016,0,18.619-4.508,18.619-14.896c0-10.78-15.092-14.504-23.323-16.856c-24.108-6.86-39.984-13.132-39.984-41.748
						c0-29.988,21.364-49.587,50.96-49.587c14.896,0,33.124,4.704,46.256,12.152L205.882-147.39z"/>
				</defs>
				<clipPath id="SVGID_20_">
					<use xlink:href="#SVGID_19_"  overflow="visible"/>
				</clipPath>
				<g clip-path="url(#SVGID_20_)">
					<rect x="15.904" y="-189.332" fill="#FF0000" width="211.341" height="148.619"/>
				</g>
				<g clip-path="url(#SVGID_20_)">
					<path fill="#FF00FF" d="M86.072-44.631H47.656v-115.248H15.904v-32.536h101.92v32.536H86.072V-44.631z"/>
					<path fill="#FF00FF" d="M212.882-154.39c-7.056-5.88-16.072-9.8-25.479-9.8c-7.057,0-16.464,4.116-16.464,12.348
						c0,8.624,10.388,11.956,17.052,14.112l9.8,2.94c20.58,6.076,36.456,16.464,36.456,40.376c0,14.7-3.528,29.792-15.288,39.788
						c-11.564,9.8-27.048,13.916-41.944,13.916c-18.619,0-36.848-6.272-51.939-16.856l16.464-30.968
						c9.604,8.428,20.972,15.288,34.104,15.288c9.016,0,18.619-4.508,18.619-14.896c0-10.78-15.092-14.504-23.323-16.856
						c-24.108-6.86-39.984-13.132-39.984-41.748c0-29.988,21.364-49.587,50.96-49.587c14.896,0,33.124,4.704,46.256,12.152
						L212.882-154.39z"/>
				</g>
				<g clip-path="url(#SVGID_20_)">
					<defs>
						<path id="SVGID_21_" d="M83.072-41.631H44.656v-115.248H12.904v-32.536h101.92v32.536H83.072V-41.631z M209.882-151.39
							c-7.056-5.88-16.072-9.8-25.479-9.8c-7.057,0-16.464,4.116-16.464,12.348c0,8.624,10.388,11.956,17.052,14.112l9.8,2.94
							c20.58,6.076,36.456,16.464,36.456,40.376c0,14.7-3.528,29.792-15.288,39.788c-11.564,9.8-27.048,13.916-41.944,13.916
							c-18.619,0-36.848-6.272-51.939-16.856l16.464-30.968c9.604,8.428,20.972,15.288,34.104,15.288
							c9.016,0,18.619-4.508,18.619-14.896c0-10.78-15.092-14.504-23.323-16.856c-24.108-6.86-39.984-13.132-39.984-41.748
							c0-29.988,21.364-49.587,50.96-49.587c14.896,0,33.124,4.704,46.256,12.152L209.882-151.39z"/>
					</defs>
					<clipPath id="SVGID_22_">
						<use xlink:href="#SVGID_21_"  overflow="visible"/>
					</clipPath>
					<g clip-path="url(#SVGID_22_)">
						<rect x="15.904" y="-189.332" fill="#FFFF00" width="211.341" height="148.619"/>
					</g>
					<g clip-path="url(#SVGID_22_)">
						<path fill="#FFFFFF" d="M86.072-44.631H47.656v-115.248H15.904v-32.536h101.92v32.536H86.072V-44.631z"/>
						<path fill="#FFFFFF" d="M212.882-154.39c-7.056-5.88-16.072-9.8-25.479-9.8c-7.057,0-16.464,4.116-16.464,12.348
							c0,8.624,10.388,11.956,17.052,14.112l9.8,2.94c20.58,6.076,36.456,16.464,36.456,40.376c0,14.7-3.528,29.792-15.288,39.788
							c-11.564,9.8-27.048,13.916-41.944,13.916c-18.619,0-36.848-6.272-51.939-16.856l16.464-30.968
							c9.604,8.428,20.972,15.288,34.104,15.288c9.016,0,18.619-4.508,18.619-14.896c0-10.78-15.092-14.504-23.323-16.856
							c-24.108-6.86-39.984-13.132-39.984-41.748c0-29.988,21.364-49.587,50.96-49.587c14.896,0,33.124,4.704,46.256,12.152
							L212.882-154.39z"/>
					</g>
				</g>
			</g>
		</g>
	</g>
</g>
</svg>
