<?xml version="1.0" encoding="utf-8"?>
<!-- Generator: Adobe Illustrator 16.0.0, SVG Export Plug-In . SVG Version: 6.00 Build 0)  -->
<!DOCTYPE svg PUBLIC "-//W3C//DTD SVG 1.1//EN" "http://www.w3.org/Graphics/SVG/1.1/DTD/svg11.dtd">
<svg version="1.1" id="Layer_1" xmlns="http://www.w3.org/2000/svg" xmlns:xlink="http://www.w3.org/1999/xlink" x="0px" y="0px"
	 width="253.214px" height="258.285px" viewBox="0 0 253.214 258.285" enable-background="new 0 0 253.214 258.285"
	 xml:space="preserve">
<g id="Capa_1">
</g>
<g id="Capa_1_copy_2">
</g>
<path fill="#FF0000" d="M148.808,177.272c-0.313,0.304-0.635,0.605-0.96,0.904c-0.648,0.707-1.327,1.406-2.04,2.096
	c2.285,8.926,9.557,15.88,17.384,16.16c0.479,0.021,0.961,0.03,1.447,0.03c11.256,0,24.281-5.397,35.94-17.753
	c-10.859,10.233-22.641,14.753-32.94,14.753c-0.486,0-0.968-0.011-1.447-0.03C158.365,193.152,151.094,186.197,148.808,177.272
	 M126.86,104.376c-6.027,0-11.417,2.389-15.796,6.191c-0.478,0.547-0.939,1.114-1.383,1.695c4.063-3.036,8.875-4.887,14.179-4.887
	c13.768,0,22.195,11.237,20.229,27.251c-0.856,7.132-3.161,14.989-7.502,20.996c0.563-0.393,1.106-0.811,1.631-1.251
	c5.233-6.172,7.929-14.896,8.871-22.745C149.055,115.613,140.627,104.376,126.86,104.376 M84.456,90.585
	c-13.844,12.875-21.838,32.984-21.838,53.595c0,28.936,22.476,52.253,47.196,52.253c16.162,0,27.676-7.233,35.035-15.257
	c-7.353,6.741-17.921,12.257-32.035,12.257c-24.721,0-47.196-23.317-47.196-52.253C65.618,122.108,72.465,103.464,84.456,90.585
	 M159.726,79.002h-2.435l-0.751,3.983c0.684,0.736,1.35,1.506,1.998,2.311L159.726,79.002 M52.939,51.011
	C32.032,71.1,19.072,100.054,19.072,133.223c0,64.333,48.603,111.531,109.005,111.531c30.059,0,55.903-8.989,75.57-19.104
	l-1.152-0.928c-19.097,9.239-43.431,17.032-71.418,17.032c-60.402,0-109.005-47.198-109.005-111.531
	C22.072,98.67,33.799,70.932,52.939,51.011 M128.546,45.099c-21.795,0-40.534,7.667-54.392,20.764
	c-0.486,0.514-0.967,1.038-1.439,1.566c13.69-12.219,31.846-19.33,52.832-19.33c24.663,0,46.645,8.602,60.425,24.903h4.009
	l-0.798,4.15c8.199,11.605,12.615,26.541,11.656,44.551c-0.896,15.585-7.733,30.716-15.192,39.924
	c0.495-0.378,0.995-0.789,1.495-1.231c8.022-8.953,15.741-25.063,16.697-41.693C206.367,71.226,171.53,45.099,128.546,45.099"/>
<path fill="#00FF00" d="M205.495,221.722c-1.39,0.672-2.809,1.338-4.253,1.992l1.253,1.008c1.413-0.684,2.797-1.375,4.152-2.072
	L205.495,221.722 M145.774,180.139c-0.301,0.347-0.608,0.692-0.925,1.037c0.326-0.299,0.646-0.601,0.959-0.903
	C145.796,180.229,145.785,180.184,145.774,180.139 M203.577,175.712c-0.511,0.481-1.022,0.95-1.537,1.405
	c-0.484,0.544-0.971,1.073-1.46,1.593C201.586,177.761,202.587,176.761,203.577,175.712 M87.455,87.586
	c-1.033,0.96-2.033,1.96-2.999,2.999c0.513-0.477,1.035-0.945,1.564-1.402C86.489,88.642,86.968,88.108,87.455,87.586
	 M162.726,76.002h-2.435l-0.565,3h2.434L162.726,76.002 M55.937,48.013c-1.019,0.979-2.018,1.978-2.998,2.998
	c0.51-0.491,1.022-0.973,1.542-1.453C54.961,49.04,55.448,48.522,55.937,48.013"/>
<path fill="#FFFF00" d="M151.774,174.139c-0.918,1.059-1.905,2.107-2.966,3.134c2.286,8.925,9.557,15.88,17.384,16.16
	c0.479,0.02,0.961,0.03,1.447,0.03c10.3,0,22.081-4.52,32.94-14.753c0.489-0.52,0.976-1.049,1.46-1.593
	c-10.427,9.243-21.585,13.346-31.4,13.346c-0.486,0-0.968-0.01-1.447-0.03C161.326,190.151,154.021,183.128,151.774,174.139
	 M129.86,101.376c-7.488,0-13.993,3.686-18.796,9.191c4.379-3.803,9.77-6.191,15.796-6.191c13.768,0,22.195,11.237,20.229,27.251
	c-0.942,7.849-3.638,16.573-8.871,22.745c7.231-6.076,10.763-16.517,11.871-25.745C152.055,112.613,143.627,101.376,129.86,101.376
	 M86.02,89.183c-0.529,0.457-1.051,0.925-1.564,1.402c-11.99,12.879-18.838,31.523-18.838,50.595
	c0,28.936,22.476,52.253,47.196,52.253c14.114,0,24.683-5.516,32.035-12.257c0.316-0.345,0.624-0.69,0.925-1.037
	c0.011,0.045,0.022,0.09,0.034,0.134c0.713-0.689,1.392-1.389,2.04-2.096c-7.354,6.741-17.922,12.256-32.034,12.256
	c-24.721,0-47.196-23.317-47.196-52.253C68.618,119.883,74.919,101.979,86.02,89.183 M162.16,79.002h-2.434l-1.188,6.294
	c0.667,0.828,1.315,1.693,1.945,2.595L162.16,79.002 M54.482,49.559c-0.52,0.48-1.032,0.962-1.542,1.453
	C33.799,70.932,22.072,98.67,22.072,130.223c0,64.333,48.603,111.531,109.005,111.531c27.987,0,52.321-7.793,71.418-17.032
	l-1.253-1.008c-18.405,8.34-41.214,15.04-67.165,15.04c-60.402,0-109.005-47.198-109.005-111.531
	C25.072,96.477,36.202,69.357,54.482,49.559 M131.546,42.099c-23.411,0-43.294,8.845-57.392,23.764
	c13.858-13.096,32.597-20.764,54.392-20.764c42.983,0,77.82,26.126,75.292,73.604c-0.956,16.63-8.675,32.74-16.697,41.693
	c8.994-7.946,18.622-25.991,19.697-44.693C209.367,68.226,174.53,42.099,131.546,42.099"/>
<path fill="#0000FF" d="M109.681,112.263c-0.553,0.414-1.093,0.849-1.618,1.305c-5.468,6.267-8.732,14.891-8.732,23.115
	c0,13.767,7.583,25.847,21.351,25.847c5.975,0,10.76-1.983,14.535-5.156c0.478-0.563,0.934-1.147,1.37-1.75
	c-3.496,2.435-7.76,3.906-12.905,3.906c-13.767,0-21.351-12.08-21.351-25.847C102.331,126.176,105.049,118.338,109.681,112.263
	 M185.971,73.002h-22.68l-0.565,3h24.254l-14.047,73.042c-1.357,6.794-4.556,18.582,2.611,18.582c0.242,0,0.495-0.014,0.762-0.041
	c2.375-0.264,5.075-1.752,7.835-4.189c0.504-0.563,1.005-1.151,1.505-1.769c-2.234,1.706-4.396,2.742-6.34,2.958
	c-0.267,0.027-0.52,0.041-0.762,0.041c-7.167,0-3.969-11.788-2.611-18.582l13.249-68.892
	C188.168,75.719,187.096,74.334,185.971,73.002 M125.927,70.473c-15.61,0-28.737,6.656-38.473,17.113
	c9.368-8.714,21.413-14.113,35.473-14.113c13.26,0,24.352,4.57,32.611,14.824l1.002-5.311
	C148.523,74.354,138.145,70.473,125.927,70.473 M72.715,67.429c-0.528,0.471-1.044,0.946-1.559,1.432
	C56.83,84.019,48.48,105.442,48.48,130.223c0,51.973,36.803,85.122,84.843,85.122c23.316,0,41.297-5.617,50.287-11.236
	l21.884,17.613c1.413-0.684,2.797-1.375,4.152-2.072l-23.036-18.541c-8.99,5.619-26.971,11.236-50.287,11.236
	c-48.04,0-84.843-33.149-84.843-85.122C51.48,103.286,59.272,82.479,72.715,67.429 M132.389,15.69
	c-30.102,0-57.076,12.157-76.452,32.323C75.052,29.647,100.81,18.69,129.389,18.69c24.724,0,47.478,7.586,66.021,24.443
	c19.101,16.856,31.464,39.049,31.464,65.738c0,23.317-6.181,44.951-17.417,59.838c-1.909,2.546-3.874,4.877-5.881,7.002
	c3.051-2.874,6.029-6.199,8.881-10.002c11.236-14.888,17.417-36.521,17.417-59.838c0-26.689-12.363-48.882-31.464-65.738
	C179.867,23.276,157.113,15.69,132.389,15.69"/>
<path fill="#FF00FF" d="M148.774,177.139c-0.301,0.347-0.609,0.693-0.926,1.038c0.325-0.299,0.646-0.601,0.96-0.904
	C148.796,177.228,148.785,177.184,148.774,177.139 M187.141,160.396c-0.5,0.442-1,0.854-1.495,1.231
	c-0.5,0.617-1.001,1.206-1.505,1.769C185.138,162.516,186.142,161.512,187.141,160.396 M138.217,154.372
	c-0.524,0.44-1.067,0.858-1.631,1.251c-0.437,0.603-0.893,1.187-1.37,1.75C136.298,156.464,137.296,155.458,138.217,154.372
	 M111.063,110.567c-1.062,0.921-2.063,1.926-3,3c0.525-0.456,1.064-0.891,1.618-1.305
	C110.124,111.681,110.585,111.115,111.063,110.567 M156.541,82.985l-1.002,5.311c0.667,0.828,1.315,1.693,1.945,2.595l1.055-5.595
	C157.89,84.491,157.224,83.721,156.541,82.985 M189.98,73.002h-4.009c1.125,1.332,2.197,2.717,3.211,4.15L189.98,73.002
	 M74.154,65.863c-1.026,0.969-2.027,1.971-2.999,2.999c0.515-0.486,1.031-0.961,1.559-1.432
	C73.187,66.901,73.668,66.376,74.154,65.863"/>
<path fill="#00FFFF" d="M108.063,113.567c-7.254,6.3-11.732,16.48-11.732,26.115c0,13.767,7.583,25.847,21.351,25.847
	c7.686,0,13.402-3.281,17.535-8.156c-3.775,3.173-8.561,5.156-14.535,5.156c-13.767,0-21.351-12.08-21.351-25.847
	C99.331,128.458,102.595,119.834,108.063,113.567 M186.98,76.002h-24.254l-0.566,3h21.82l-14.047,73.042
	c-1.357,6.794-4.556,18.582,2.611,18.582c0.242,0,0.495-0.014,0.762-0.041c3.232-0.358,7.067-2.985,10.835-7.189
	c-2.76,2.438-5.46,3.926-7.835,4.189c-0.267,0.027-0.52,0.041-0.762,0.041c-7.167,0-3.969-11.788-2.611-18.582L186.98,76.002
	 M122.927,73.473c-14.06,0-26.105,5.399-35.473,14.113c-0.487,0.522-0.966,1.056-1.435,1.597c9.129-7.886,20.62-12.71,33.908-12.71
	c14.33,0,26.128,5.338,34.557,17.419l1.055-5.595C147.279,78.043,136.187,73.473,122.927,73.473 M71.156,68.861
	C55.004,84.124,45.48,106.762,45.48,133.223c0,51.973,36.803,85.122,84.843,85.122c23.316,0,41.297-5.617,50.287-11.236
	l20.631,16.605c1.444-0.654,2.863-1.32,4.253-1.992l-21.884-17.613c-8.99,5.619-26.971,11.236-50.287,11.236
	c-48.04,0-84.843-33.149-84.843-85.122C48.48,105.442,56.83,84.019,71.156,68.861 M129.389,18.69
	c-28.579,0-54.337,10.957-73.452,29.323c-0.489,0.509-0.976,1.026-1.455,1.545C73.428,32.071,98.573,21.69,126.389,21.69
	c24.724,0,47.478,7.586,66.021,24.443c19.101,16.856,31.464,39.049,31.464,65.738c0,23.317-6.181,44.951-17.417,59.838
	c-1.442,1.924-2.918,3.725-4.418,5.407c0.515-0.455,1.026-0.924,1.537-1.405c2.007-2.125,3.972-4.456,5.881-7.002
	c11.236-14.888,17.417-36.521,17.417-59.838c0-26.689-12.363-48.882-31.464-65.738C176.867,26.276,154.113,18.69,129.389,18.69"/>
<path fill="#CCCCCC" d="M111.063,110.567c4.804-5.505,11.309-9.191,18.796-9.191c13.768,0,22.195,11.237,20.229,27.251
	c-1.108,9.229-4.64,19.669-11.871,25.745c-0.921,1.086-1.919,2.092-3.001,3.001c-4.133,4.875-9.849,8.156-17.535,8.156
	c-13.767,0-21.351-12.08-21.351-25.847c0-9.635,4.478-19.815,11.732-26.115C109,112.494,110.002,111.489,111.063,110.567
	 M126.389,21.69c-27.816,0-52.961,10.38-71.907,27.868c-18.28,19.799-29.41,46.918-29.41,77.664
	c0,64.333,48.603,111.531,109.005,111.531c25.951,0,48.76-6.7,67.165-15.04l-20.631-16.605c-8.99,5.619-26.971,11.236-50.287,11.236
	c-48.04,0-84.843-33.149-84.843-85.122c0-26.46,9.523-49.099,25.675-64.361c0.972-1.028,1.973-2.029,2.999-2.999
	c14.098-14.918,33.981-23.764,57.392-23.764c42.983,0,77.82,26.126,75.292,73.604c-1.075,18.702-10.703,36.747-19.697,44.693
	c-0.999,1.115-2.003,2.119-3,3c-3.768,4.204-7.603,6.831-10.835,7.189c-0.267,0.027-0.52,0.041-0.762,0.041
	c-7.167,0-3.969-11.788-2.611-18.582l14.047-73.042h-21.82l-1.676,8.889c-0.63-0.902-1.278-1.767-1.945-2.595l-1.055,5.595
	c-0.63-0.902-1.278-1.767-1.945-2.595l-1.055,5.595c-8.429-12.081-20.227-17.419-34.557-17.419c-13.288,0-24.778,4.824-33.908,12.71
	c-11.101,12.797-17.402,30.7-17.402,48.997c0,28.936,22.476,52.253,47.196,52.253c14.112,0,24.681-5.515,32.034-12.256
	c0.316-0.345,0.625-0.691,0.926-1.038c0.011,0.045,0.022,0.089,0.034,0.134c1.061-1.026,2.048-2.075,2.966-3.134
	c2.247,8.989,9.552,16.013,17.418,16.294c0.479,0.021,0.961,0.03,1.447,0.03c9.815,0,20.974-4.103,31.4-13.346
	c1.5-1.683,2.976-3.483,4.418-5.407c11.236-14.888,17.417-36.521,17.417-59.838c0-26.689-12.363-48.882-31.464-65.738
	C173.867,29.276,151.113,21.69,126.389,21.69"/>
</svg>
