<?xml version="1.0" encoding="utf-8"?>
<!-- Generator: Adobe Illustrator 16.0.0, SVG Export Plug-In . SVG Version: 6.00 Build 0)  -->
<!DOCTYPE svg PUBLIC "-//W3C//DTD SVG 1.1//EN" "http://www.w3.org/Graphics/SVG/1.1/DTD/svg11.dtd">
<svg version="1.1" xmlns="http://www.w3.org/2000/svg" xmlns:xlink="http://www.w3.org/1999/xlink" x="0px" y="0px"
	 width="252.232px" height="252.26px" viewBox="0 0 252.232 252.26" enable-background="new 0 0 252.232 252.26"
	 xml:space="preserve">
<g id="Layer_2">
</g>
<g id="Layer_2_copy">
</g>
<g id="Layer_2_copy_2">
	<g>
		<path fill="#FF0000" d="M137.388,213.908c-0.665,0.125-1.332,0.243-2,0.353v17.177h2V213.908 M84.918,157.222l-1.36,2.558
			c10.747,9.293,23.414,16.765,38.002,16.765c5.694,0,11.593-1.585,15.701-5.025c0.295-0.354,0.574-0.723,0.835-1.106
			c-4.016,2.822-9.36,4.132-14.536,4.132C108.681,174.544,95.801,166.772,84.918,157.222 M120.042,79.336
			c-0.416,0.285-0.817,0.586-1.201,0.903c-1.611,1.979-2.608,4.396-2.608,7.247c0,9.772,11.772,13.548,19.321,15.991l11.105,3.331
			c23.32,6.885,41.31,18.656,41.31,45.751c0,15.063-3.271,30.49-13.751,41.681c12.069-11.307,15.751-27.698,15.751-43.681
			c0-27.095-17.989-38.866-41.31-45.751l-11.105-3.331c-7.549-2.443-19.321-6.219-19.321-15.991
			C118.233,83.141,118.906,81.092,120.042,79.336 M114.842,36.858c-10.939,2.575-20.315,7.865-27.408,15.368
			c7.272-6.875,16.626-11.629,27.408-13.805V36.858 M137.388,16.822h-18.547v2h16.547v18.517
			c15.408,1.167,32.739,6.154,45.696,13.502l-16.01,31.196c0.23,0.186,0.459,0.373,0.686,0.562l17.324-33.757
			c-12.957-7.349-30.288-12.335-45.696-13.502V16.822"/>
		<path fill="#00FF00" d="M135.388,231.438h-2v2h2V231.438 M174.218,194.24c-0.344,0.322-0.692,0.639-1.05,0.952
			c-0.31,0.354-0.627,0.703-0.95,1.048C172.913,195.589,173.578,194.923,174.218,194.24 M82.918,159.222l-1.36,2.558
			c0.214,0.186,0.428,0.368,0.644,0.552l1.356-2.552C83.344,159.595,83.131,159.408,82.918,159.222 M164.383,81.489l-1.308,2.548
			c0.23,0.186,0.459,0.373,0.686,0.562l1.314-2.562C164.846,81.853,164.615,81.67,164.383,81.489 M87.433,52.226
			c-0.685,0.647-1.352,1.315-1.999,2c0.343-0.325,0.69-0.644,1.043-0.959C86.791,52.916,87.11,52.569,87.433,52.226 M118.842,18.822
			h-2v2h2V18.822"/>
		<path fill="#FFFF00" d="M135.388,214.261c-0.665,0.108-1.332,0.21-2,0.303v16.874h2V214.261 M83.558,159.78l-1.356,2.552
			c10.607,9.035,23.061,16.213,37.358,16.213c6.701,0,13.686-2.195,17.701-7.025c-4.108,3.44-10.007,5.025-15.701,5.025
			C106.972,176.544,94.305,169.073,83.558,159.78 M118.841,80.24c-2.749,2.269-4.608,5.351-4.608,9.247
			c0,9.772,11.772,13.548,19.321,15.991l11.105,3.331c23.32,6.885,41.31,18.656,41.31,45.751c0,14.599-3.071,29.539-12.801,40.633
			c0.357-0.313,0.706-0.63,1.05-0.952c10.48-11.19,13.751-26.617,13.751-41.681c0-27.095-17.989-38.866-41.31-45.751l-11.105-3.331
			c-7.549-2.443-19.321-6.219-19.321-15.991C116.233,84.635,117.229,82.219,118.841,80.24 M114.842,38.421
			c-10.782,2.176-20.136,6.93-27.408,13.805c-0.323,0.342-0.642,0.689-0.956,1.041c7.572-6.768,17.255-11.333,28.364-13.217V38.421
			 M135.388,18.822h-16.547v2h14.547v18.517c15.408,1.167,32.739,6.154,45.696,13.502l-14.702,28.648
			c0.232,0.181,0.464,0.364,0.692,0.548l16.01-31.196c-12.957-7.349-30.288-12.335-45.696-13.502V18.822"/>
		<path fill="#0000FF" d="M172.218,196.24c-0.509,0.478-1.034,0.946-1.573,1.404c-9.42,7.985-21.14,12.633-33.256,14.617v1.647
			c11.401-2.155,22.354-6.72,31.256-14.265C169.92,198.56,171.108,197.424,172.218,196.24 M80.918,161.222l-18.656,35.091
			c15.401,10.801,33.685,17.618,52.579,18.871v20.254h18.547v-2h-16.547v-20.254c-18.894-1.253-37.178-8.07-52.579-18.871
			l17.296-32.533C81.344,161.595,81.131,161.408,80.918,161.222 M134.888,73.494c-4.655,0-10.216,1.581-14.048,4.745
			c-0.287,0.352-0.554,0.717-0.799,1.097c3.736-2.561,8.658-3.842,12.847-3.842c10.66,0,20.877,4.441,28.872,11.104l1.314-2.562
			C155.185,77.688,145.246,73.494,134.888,73.494 M85.434,54.226C75.062,64.032,68.926,78.154,68.926,95.26
			c0,32.424,17.989,39.532,45.307,47.305c9.329,2.666,26.428,6.884,26.428,19.1c0,3.487-0.955,6.39-2.564,8.747
			c0.402-0.282,0.792-0.581,1.165-0.894c2.109-2.536,3.399-5.8,3.399-9.854c0-12.216-17.1-16.434-26.428-19.1
			c-27.318-7.773-45.307-14.88-45.307-47.305C70.926,77.283,76.277,63.911,85.434,54.226 M116.842,20.822h-2v16.036
			c0.662-0.156,1.327-0.301,2-0.437V20.822"/>
		<path fill="#FF00FF" d="M137.388,212.261c-0.665,0.108-1.332,0.21-2,0.303v1.697c0.668-0.109,1.335-0.228,2-0.353V212.261
			 M139.261,169.519c-0.373,0.313-0.763,0.611-1.165,0.894c-0.261,0.384-0.54,0.752-0.835,1.106
			C137.988,170.911,138.659,170.244,139.261,169.519 M120.841,78.24c-0.737,0.608-1.41,1.275-2,2
			c0.384-0.317,0.785-0.618,1.201-0.903C120.287,78.957,120.554,78.592,120.841,78.24 M116.842,36.421
			c-0.673,0.136-1.338,0.281-2,0.437v1.563c0.661-0.133,1.328-0.257,2-0.371V36.421"/>
		<path fill="#00FFFF" d="M173.168,195.192c-0.173,0.151-0.348,0.303-0.523,0.452c-9.938,8.424-22.435,13.133-35.256,14.92v1.697
			c12.116-1.984,23.836-6.632,33.256-14.617c0.539-0.458,1.064-0.927,1.573-1.404C172.541,195.895,172.858,195.545,173.168,195.192
			 M81.558,161.78l-17.296,32.533c15.401,10.801,33.685,17.618,52.579,18.871v20.254h16.547v-2h-14.547v-20.254
			c-18.894-1.253-37.178-8.07-52.579-18.871l15.939-29.981C81.986,162.148,81.772,161.965,81.558,161.78 M136.888,71.494
			c-5.551,0-12.387,2.248-16.048,6.745c3.832-3.164,9.393-4.745,14.048-4.745c10.357,0,20.297,4.193,28.187,10.542l1.308-2.548
			C156.608,75.448,146.945,71.494,136.888,71.494 M86.477,53.267c-0.353,0.315-0.7,0.634-1.043,0.959
			c-9.158,9.686-14.509,23.057-14.509,39.035c0,32.425,17.989,39.532,45.307,47.305c9.329,2.666,26.428,6.884,26.428,19.1
			c0,4.054-1.29,7.317-3.399,9.854c3.266-2.734,5.399-6.64,5.399-11.854c0-12.216-17.1-16.434-26.428-19.1
			c-27.318-7.773-45.307-14.88-45.307-47.305C72.926,75.849,77.906,62.86,86.477,53.267 M118.842,20.822h-2v15.599
			c0.662-0.133,1.328-0.257,2-0.371V20.822"/>
		<path fill="#FFFFFF" d="M133.388,20.822h-14.547V36.05c-0.672,0.114-1.338,0.238-2,0.371v1.629c-0.672,0.114-1.339,0.238-2,0.371
			v1.629c-11.109,1.884-20.792,6.449-28.364,13.217C77.906,62.86,72.926,75.849,72.926,91.26c0,32.425,17.989,39.532,45.307,47.305
			c9.329,2.666,26.428,6.884,26.428,19.1c0,5.214-2.134,9.119-5.399,11.854c-0.603,0.726-1.273,1.393-2,2
			c-4.016,4.83-11,7.025-17.701,7.025c-14.298,0-26.751-7.178-37.358-16.213l-15.939,29.981
			c15.401,10.801,33.685,17.618,52.579,18.871v20.254h14.547v-16.874c0.668-0.093,1.335-0.194,2-0.303v-1.697
			c0.668-0.093,1.335-0.194,2-0.303v-1.697c12.821-1.787,25.318-6.496,35.256-14.92c0.176-0.149,0.351-0.301,0.523-0.452
			c9.729-11.094,12.801-26.034,12.801-40.633c0-27.095-17.989-38.866-41.31-45.751l-11.105-3.331
			c-7.549-2.443-19.321-6.219-19.321-15.991c0-3.896,1.859-6.978,4.608-9.247c0.59-0.725,1.263-1.392,2-2
			c3.661-4.497,10.497-6.745,16.048-6.745c10.057,0,19.72,3.953,27.494,9.995l14.702-28.648
			c-12.957-7.349-30.288-12.335-45.696-13.502V20.822"/>
	</g>
</g>
</svg>
