<?xml version="1.0" encoding="utf-8"?>
<!-- Generator: Adobe Illustrator 16.0.0, SVG Export Plug-In . SVG Version: 6.00 Build 0)  -->
<!DOCTYPE svg PUBLIC "-//W3C//DTD SVG 1.1//EN" "http://www.w3.org/Graphics/SVG/1.1/DTD/svg11.dtd">
<svg version="1.1" xmlns="http://www.w3.org/2000/svg" xmlns:xlink="http://www.w3.org/1999/xlink" x="0px" y="0px" width="252px"
	 height="252.26px" viewBox="274.616 0 252 252.26" enable-background="new 274.616 0 252 252.26" xml:space="preserve">
<g id="Layer_1">
	<g id="Layer_1_1_">
	</g>
	<g id="Layer_1_copy">
	</g>
</g>
<g id="Layer_1_copy_2_">
	<g id="Layer_1_3_">
	</g>
	<g id="Layer_1_copy_1_">
	</g>
</g>
<g id="Layer_1_copy_2_3_">
	<g id="Layer_1_2_">
	</g>
	<g id="Layer_1_copy_4_">
	</g>
	<path fill="#FF0000" d="M391.323,92.034h-25.752v3h25.752V92.034 M292.403,62.498h-3v32.536h31.752v115.248h38.416v-3h-35.416
		V92.034h-31.752V62.498"/>
	<path fill="#FF0000" d="M415.038,166.377l-16.465,30.969c15.092,10.584,33.32,16.855,51.939,16.855
		c14.896,0,30.381-4.116,41.943-13.916c1.354-1.151,2.601-2.371,3.744-3.648c-0.245,0.219-0.492,0.435-0.744,0.648
		c-11.563,9.8-27.047,13.916-41.943,13.916c-18.619,0-36.848-6.271-51.939-16.855L416,167.211
		C415.677,166.935,415.356,166.657,415.038,166.377 M463.901,87.722c-3.823,0-8.336,1.208-11.669,3.624
		c-0.383,0.55-0.713,1.134-0.982,1.752c3.008-1.584,6.556-2.376,9.651-2.376c9.408,0,18.424,3.92,25.48,9.8l1.968-3.835
		C481.456,91.273,472.857,87.722,463.901,87.722 M419.666,71.351c-9.544,8.675-15.213,21.367-15.213,36.814
		c0,28.616,15.876,34.888,39.983,41.748c8.232,2.353,23.324,6.076,23.324,16.856c0,2.387-0.507,4.462-1.396,6.244
		c0.673-0.368,1.316-0.776,1.923-1.226c1.547-2.133,2.474-4.792,2.474-8.019c0-10.78-15.092-14.504-23.324-16.856
		c-24.107-6.859-39.983-13.132-39.983-41.748C407.453,91.413,411.945,79.846,419.666,71.351"/>
	<path fill="#00FF00" d="M362.571,204.281h-3v3h3V204.281 M394.323,89.034h-3v3h3V89.034 M295.403,59.498h-3v3h3V59.498"/>
	<path fill="#FFFF00" d="M391.323,89.034h-25.752v3h25.752V89.034 M295.403,62.498h-3v29.536h31.752v115.248h35.416v-3h-32.416
		V89.034h-31.752V62.498"/>
	<path fill="#00FF00" d="M499.2,193.637c-0.245,0.219-0.492,0.435-0.744,0.648c-0.294,0.249-0.592,0.496-0.891,0.737
		c-0.438,0.549-0.893,1.086-1.365,1.614C497.269,195.679,498.269,194.677,499.2,193.637 M418.038,163.377L416,167.211
		c0.321,0.274,0.645,0.548,0.97,0.818l2.03-3.818C418.677,163.935,418.356,163.657,418.038,163.377 M490.3,92.886l-1.95,3.8
		c0.349,0.273,0.692,0.552,1.032,0.835l1.968-3.835C491.004,93.415,490.654,93.148,490.3,92.886 M422.666,68.351
		c-1.047,0.952-2.049,1.953-3,3c0.525-0.478,1.062-0.942,1.61-1.396C421.727,69.409,422.19,68.875,422.666,68.351"/>
	<path fill="#FFFF00" d="M416,167.211l-14.427,27.135c15.092,10.584,33.32,16.855,51.939,16.855
		c14.896,0,30.381-4.116,41.943-13.916c0.252-0.214,0.499-0.43,0.744-0.648c0.473-0.528,0.927-1.065,1.365-1.614
		c-11.461,9.27-26.535,13.179-41.053,13.179c-18.619,0-36.848-6.271-51.939-16.855l12.396-23.316
		C416.644,167.759,416.321,167.485,416,167.211 M466.901,84.722c-5.169,0-11.599,2.208-14.669,6.624
		c3.333-2.416,7.846-3.624,11.669-3.624c8.956,0,17.555,3.552,24.448,8.965l1.95-3.8C483.593,87.926,475.407,84.722,466.901,84.722
		 M421.276,69.956c-0.549,0.454-1.085,0.917-1.61,1.396c-7.721,8.495-12.213,20.062-12.213,33.814
		c0,28.616,15.876,34.888,39.983,41.748c8.232,2.353,23.324,6.076,23.324,16.856c0,3.227-0.927,5.886-2.474,8.019
		c3.277-2.428,5.474-6.051,5.474-11.019c0-10.78-15.092-14.504-23.324-16.856c-24.107-6.859-39.983-13.132-39.983-41.748
		C410.453,89.26,414.409,78.279,421.276,69.956"/>
	<path fill="#0000FF" d="M365.571,95.034h-3v109.248h3V95.034 M397.323,56.498h-101.92v3h98.92v29.536h3V56.498"/>
	<polyline fill="#FF00FF" points="365.571,92.034 362.571,92.034 362.571,95.034 365.571,95.034 365.571,92.034 	"/>
	<path fill="#00FFFF" d="M362.571,95.034h-3v109.248h3V95.034 M394.323,59.498h-98.92v3h95.92v26.536h3V59.498"/>
	<polyline fill="#CCCCCC" points="391.323,62.498 295.403,62.498 295.403,89.034 327.155,89.034 327.155,204.281 359.571,204.281 
		359.571,95.034 362.571,95.034 362.571,92.034 365.571,92.034 365.571,89.034 391.323,89.034 391.323,62.498 	"/>
	<path fill="#0000FF" d="M421.038,160.377L419,164.211c9.397,8.042,20.444,14.454,33.142,14.454c4.704,0,9.568-1.228,13.146-3.877
		c0.402-0.556,0.764-1.146,1.077-1.774c-3.299,1.805-7.315,2.651-11.223,2.651C442.009,175.665,430.641,168.806,421.038,160.377
		 M451.25,93.098c-0.707,0.373-1.384,0.788-2.018,1.248c-1.122,1.613-1.796,3.521-1.796,5.724c0,8.624,10.389,11.956,17.053,14.112
		l9.799,2.94c20.58,6.076,36.457,16.464,36.457,40.375c0,13.007-2.762,26.32-11.545,36.14c11.166-9.993,14.545-24.754,14.545-39.14
		c0-23.911-15.877-34.299-36.457-40.375l-9.799-2.94c-6.664-2.156-17.053-5.488-17.053-14.112
		C450.436,95.618,450.729,94.293,451.25,93.098 M461.413,52.578c-16.022,0-29.634,5.746-38.747,15.773
		c8.982-8.166,21.397-12.773,35.747-12.773c14.896,0,33.123,4.704,46.256,12.152l-13.319,25.957
		c0.349,0.273,0.692,0.552,1.032,0.835l15.287-29.792C494.536,57.282,476.309,52.578,461.413,52.578"/>
	<path fill="#FF00FF" d="M468.287,171.788c-0.606,0.449-1.25,0.857-1.923,1.226c-0.313,0.628-0.675,1.219-1.077,1.774
		C466.435,173.938,467.451,172.939,468.287,171.788 M452.232,91.346c-1.174,0.85-2.201,1.85-3,3c0.634-0.46,1.311-0.875,2.018-1.248
		C451.519,92.479,451.849,91.896,452.232,91.346"/>
	<path fill="#00FFFF" d="M419,164.211l-2.03,3.818c9.186,7.655,19.909,13.636,32.172,13.636c6.216,0,12.71-2.143,16.146-6.877
		c-3.577,2.649-8.441,3.877-13.146,3.877C439.444,178.665,428.397,172.253,419,164.211 M449.232,94.346
		c-2.82,2.043-4.796,4.952-4.796,8.724c0,8.624,10.389,11.956,17.053,14.112l9.799,2.94c20.58,6.076,36.457,16.464,36.457,40.375
		c0,12.308-2.473,24.89-10.18,34.525c0.299-0.241,0.597-0.488,0.891-0.737c0.252-0.214,0.499-0.43,0.744-0.648
		c8.783-9.819,11.545-23.133,11.545-36.14c0-23.911-15.877-34.299-36.457-40.375l-9.799-2.94
		c-6.664-2.156-17.053-5.488-17.053-14.112C447.436,97.867,448.11,95.959,449.232,94.346 M458.413,55.578
		c-14.35,0-26.765,4.607-35.747,12.773c-0.476,0.523-0.938,1.058-1.39,1.604c8.83-7.292,20.627-11.377,34.137-11.377
		c14.896,0,33.123,4.704,46.256,12.152L490.3,92.886c0.354,0.262,0.704,0.528,1.05,0.8l13.319-25.957
		C491.536,60.282,473.309,55.578,458.413,55.578"/>
	<path fill="#CCCCCC" d="M455.413,58.578c-13.51,0-25.307,4.085-34.137,11.377c-6.867,8.323-10.823,19.304-10.823,32.21
		c0,28.616,15.876,34.888,39.983,41.748c8.232,2.353,23.324,6.076,23.324,16.856c0,4.968-2.196,8.591-5.474,11.019
		c-0.836,1.151-1.852,2.149-3,3c-3.436,4.734-9.93,6.877-16.146,6.877c-12.263,0-22.986-5.98-32.172-13.636l-12.396,23.316
		c15.092,10.584,33.32,16.855,51.939,16.855c14.518,0,29.592-3.909,41.053-13.179c7.707-9.636,10.18-22.218,10.18-34.525
		c0-23.911-15.877-34.299-36.457-40.375l-9.799-2.94c-6.664-2.156-17.053-5.488-17.053-14.112c0-3.772,1.976-6.681,4.796-8.724
		c0.799-1.15,1.826-2.15,3-3c3.07-4.416,9.5-6.624,14.669-6.624c8.506,0,16.691,3.205,23.398,8.165l11.369-22.156
		C488.536,63.282,470.309,58.578,455.413,58.578"/>
</g>
</svg>
