<?xml version="1.0" encoding="utf-8"?>
<!-- Generator: Adobe Illustrator 16.0.0, SVG Export Plug-In . SVG Version: 6.00 Build 0)  -->
<!DOCTYPE svg PUBLIC "-//W3C//DTD SVG 1.1//EN" "http://www.w3.org/Graphics/SVG/1.1/DTD/svg11.dtd">
<svg version="1.1" xmlns="http://www.w3.org/2000/svg" xmlns:xlink="http://www.w3.org/1999/xlink" x="0px" y="0px"
	 width="252.232px" height="252.26px" viewBox="0 0 252.232 252.26" enable-background="new 0 0 252.232 252.26"
	 xml:space="preserve">
<g id="Layer_2">
</g>
<g id="Layer_2_copy">
</g>
<g id="Layer_2_copy_2">
	<path fill="#FF0000" d="M125.561,174.153l-3.538,14.633l1.434,0.339l3.563-14.736C126.538,174.313,126.052,174.235,125.561,174.153
		 M104.551,169.27l-3.514,14.376l1.423,0.362l3.501-14.324C105.378,169.528,104.908,169.389,104.551,169.27 M78.298,145.033
		l-0.968,2.259l6.423,1.605c0.615,0.153,1.18,0.23,1.694,0.23c1.595,0,2.708-0.737,3.341-2.211
		c-0.401,0.141-0.848,0.211-1.341,0.211c-0.515,0-1.08-0.077-1.695-0.23L78.298,145.033 M114.737,129.585l-6.366,25.679
		c0.424,0.143,1.486,0.424,3.184,0.849c1.697,0.425,3.077,0.743,4.138,0.956c1.062,0.213,2.582,0.529,4.563,0.955
		c1.98,0.424,3.677,0.706,5.093,0.849c1.414,0.142,3.076,0.247,4.988,0.318c0.272,0.01,0.539,0.016,0.8,0.016
		c1.567,0,2.927-0.184,4.079-0.547c1.346-0.425,2.652-0.919,3.928-1.484c1.273-0.567,2.334-1.415,3.182-2.548
		c0.049-0.065,0.097-0.131,0.145-0.197c-0.413,0.287-0.855,0.535-1.326,0.745c-1.275,0.565-2.582,1.06-3.928,1.484
		c-1.151,0.363-2.512,0.547-4.078,0.547c-0.262,0-0.528-0.006-0.801-0.016c-1.912-0.071-3.574-0.177-4.988-0.318
		c-1.416-0.143-3.113-0.425-5.093-0.849c-1.981-0.426-3.501-0.742-4.563-0.955c-1.061-0.213-2.44-0.531-4.138-0.956
		c-1.698-0.425-2.759-0.706-3.184-0.849l5.803-23.405C115.297,129.676,114.818,129.585,114.737,129.585 M159.536,129.117
		c-1.128,0.456-2.338,0.824-3.629,1.104c11.744,6.084,15.352,15.493,10.822,28.226c-1.133,3.319-2.603,6.153-4.408,8.501
		c0.369-0.281,0.729-0.574,1.081-0.882c2.232-2.547,4.008-5.753,5.327-9.619C173.042,144.323,169.978,135.213,159.536,129.117
		 M123.439,94.571l-5.73,23.343c0.283,0,1.45,0.284,3.501,0.85c2.051,0.566,3.679,0.955,4.88,1.167
		c1.203,0.212,2.9,0.495,5.094,0.849c1.372,0.221,2.619,0.332,3.742,0.332c0.672,0,1.3-0.04,1.883-0.119
		c1.555-0.213,3.146-0.531,4.773-0.956c1.627-0.424,2.971-1.238,4.033-2.44c0.206-0.234,0.4-0.48,0.583-0.739
		c-0.771,0.532-1.643,0.926-2.616,1.179c-1.627,0.424-3.219,0.743-4.773,0.956c-0.583,0.08-1.211,0.119-1.883,0.119
		c-1.123,0-2.37-0.111-3.742-0.332c-2.193-0.354-3.891-0.637-5.094-0.849c-1.201-0.212-2.83-0.601-4.88-1.167
		c-2.051-0.566-3.219-0.85-3.501-0.85l5.149-20.976C124.188,94.785,123.715,94.662,123.439,94.571 M94.833,70.859l-0.56,2.36
		l13.249,3.313c2.829,0.85,5.305,1.415,7.428,1.698l0.545-2.229c-1.776-0.317-3.767-0.807-5.973-1.469L94.833,70.859 M144.044,62.77
		l-0.583,2.334l8.839,2.09l-4.881,19.312c17.402,5.659,25.184,14.572,23.344,26.739c-0.597,4.001-1.824,7.321-3.682,9.96
		c0.391-0.273,0.766-0.561,1.127-0.864c2.351-2.8,3.869-6.5,4.555-11.097c1.84-12.167-5.941-21.081-23.344-26.739l4.881-19.312
		L144.044,62.77 M123.042,57.492l-0.578,2.362l8.826,2.247l-4.668,18.675c0.85,0.282,2.334,0.671,4.457,1.166
		c2.121,0.496,3.748,0.884,4.881,1.167l0.586-2.346c-0.953-0.23-2.108-0.503-3.467-0.821c-2.123-0.495-3.607-0.884-4.457-1.166
		l4.668-18.675L123.042,57.492 M50.052,52.079c-0.765,0.746-1.521,1.504-2.269,2.277c-13.087,13.51-21.965,29.604-26.633,48.278
		c-4.67,18.676-4.386,37.067,0.848,55.177s14.607,33.707,28.12,46.795c13.511,13.086,29.603,21.963,48.279,26.632
		c8.805,2.201,17.546,3.301,26.226,3.301c9.729,0,19.379-1.383,28.951-4.148c17.989-5.201,33.5-14.485,46.534-27.852
		c-12.612,12.297-27.456,20.913-44.534,25.852c-9.571,2.766-19.222,4.148-28.951,4.148c-8.679,0-17.42-1.1-26.225-3.301
		c-18.676-4.669-34.768-13.546-48.279-26.632c-13.512-13.088-22.885-28.686-28.12-46.795s-5.518-36.5-0.848-55.177
		c4.668-18.675,13.546-34.768,26.633-48.278C49.873,52.263,49.963,52.171,50.052,52.079"/>
	<path fill="#00FF00" d="M202.109,200.535c-0.338,0.331-0.677,0.656-1.019,0.981c-0.239,0.252-0.48,0.503-0.723,0.753
		c-0.087,0.09-0.174,0.18-0.261,0.269C200.78,201.882,201.449,201.213,202.109,200.535 M127.561,172.153l-0.541,2.235
		c0.492,0.077,0.98,0.15,1.464,0.221l0.537-2.221C128.538,172.313,128.052,172.234,127.561,172.153 M106.551,167.27l-0.59,2.414
		c0.416,0.112,0.89,0.233,1.422,0.364l0.578-2.364C107.378,167.528,106.908,167.389,106.551,167.27 M144.469,152.43
		c-0.377,0.262-0.777,0.491-1.203,0.689c-0.238,0.463-0.504,0.9-0.797,1.311c0.703-0.488,1.321-1.089,1.855-1.803
		C144.374,152.562,144.422,152.496,144.469,152.43 M90.789,144.917c-0.401,0.141-0.848,0.211-1.341,0.211
		c-0.044,0-0.09-0.001-0.135-0.002l-0.253,1.013c-0.078,0.278-0.168,0.538-0.271,0.778
		C89.685,146.602,90.352,145.935,90.789,144.917 M116.737,127.585l-0.563,2.273c0.396,0.082,0.872,0.183,1.429,0.302l0.571-2.302
		C117.296,127.676,116.818,127.585,116.737,127.585 M161.536,127.117c-1.128,0.456-2.338,0.825-3.629,1.104
		c0.562,0.291,1.104,0.59,1.629,0.896c1.027-0.416,1.987-0.905,2.879-1.469C162.128,127.469,161.835,127.292,161.536,127.117
		 M148.199,114.857c-0.385,0.266-0.795,0.497-1.229,0.693c-0.228,0.465-0.483,0.901-0.771,1.307c0.518-0.358,0.99-0.778,1.417-1.261
		C147.823,115.361,148.017,115.115,148.199,114.857 M125.439,92.571l-0.581,2.367c0.355,0.081,0.767,0.17,1.233,0.269
		c0.067,0.014,0.133,0.028,0.2,0.042l0.567-2.311C126.188,92.785,125.715,92.662,125.439,92.571 M137.131,78.425l-0.585,2.338
		c0.535,0.129,1.007,0.245,1.414,0.346l0.587-2.346C138.116,78.659,137.644,78.547,137.131,78.425 M116.053,73.716l-0.559,2.285
		c0.502,0.09,0.987,0.166,1.455,0.229l0.545-2.229C117.029,73.918,116.549,73.823,116.053,73.716 M52.053,50.078
		c-0.673,0.657-1.34,1.323-2,2c0.336-0.328,0.676-0.655,1.015-0.978c0.237-0.249,0.476-0.499,0.716-0.746
		C51.873,50.263,51.963,50.17,52.053,50.078"/>
	<path fill="#FFFF00" d="M127.02,174.388l-3.563,14.736l1.435,0.339l3.592-14.854C128.001,174.538,127.512,174.465,127.02,174.388
		 M105.961,169.684l-3.501,14.324l1.422,0.362l3.501-14.322C106.851,169.917,106.377,169.796,105.961,169.684 M79.265,142.776
		l-0.968,2.258l7.456,1.864c0.615,0.153,1.18,0.23,1.695,0.23c0.493,0,0.94-0.07,1.341-0.211c0.103-0.24,0.193-0.5,0.271-0.778
		l0.253-1.013c-0.478-0.012-0.998-0.088-1.559-0.229L79.265,142.776 M116.174,129.859l-5.803,23.405
		c0.424,0.143,1.486,0.424,3.184,0.849c1.697,0.425,3.077,0.743,4.138,0.956c1.062,0.213,2.582,0.529,4.563,0.955
		c1.98,0.424,3.677,0.706,5.093,0.849c1.414,0.142,3.076,0.247,4.988,0.318c0.272,0.01,0.539,0.016,0.801,0.016
		c1.566,0,2.927-0.184,4.078-0.547c1.346-0.425,2.652-0.919,3.928-1.484c0.471-0.21,0.913-0.458,1.326-0.745
		c0.293-0.41,0.559-0.848,0.797-1.311c-0.041,0.019-0.082,0.037-0.123,0.056c-1.275,0.565-2.582,1.06-3.928,1.484
		c-1.152,0.363-2.512,0.547-4.079,0.547c-0.261,0-0.527-0.006-0.8-0.016c-1.912-0.071-3.574-0.177-4.988-0.318
		c-1.416-0.143-3.113-0.425-5.093-0.849c-1.981-0.426-3.501-0.742-4.563-0.955c-1.061-0.213-2.44-0.531-4.138-0.956
		c-1.698-0.425-2.759-0.706-3.184-0.849l5.232-21.104C117.045,130.041,116.569,129.941,116.174,129.859 M162.415,127.649
		c-0.892,0.563-1.852,1.053-2.879,1.469c10.442,6.096,13.506,15.206,9.193,27.33c-1.319,3.866-3.095,7.072-5.327,9.619
		c3.192-2.787,5.636-6.662,7.327-11.619C174.919,142.671,172.147,133.738,162.415,127.649 M124.858,94.937l-5.149,20.976
		c0.283,0,1.45,0.284,3.501,0.85c2.051,0.566,3.679,0.955,4.88,1.167c1.203,0.212,2.9,0.495,5.094,0.849
		c1.372,0.221,2.619,0.332,3.742,0.332c0.672,0,1.3-0.04,1.883-0.119c1.555-0.213,3.146-0.531,4.773-0.956
		c0.974-0.253,1.846-0.647,2.616-1.179c0.287-0.406,0.543-0.842,0.771-1.307c-0.437,0.197-0.899,0.359-1.387,0.486
		c-1.627,0.424-3.219,0.743-4.773,0.956c-0.583,0.08-1.211,0.119-1.883,0.119c-1.123,0-2.37-0.111-3.742-0.332
		c-2.193-0.354-3.891-0.637-5.094-0.849c-1.201-0.212-2.83-0.601-4.88-1.167c-2.051-0.566-3.219-0.85-3.501-0.85l4.582-18.666
		c-0.066-0.014-0.133-0.028-0.2-0.042C125.624,95.108,125.213,95.018,124.858,94.937 M95.393,68.499l-0.56,2.36l14.689,3.672
		c2.206,0.662,4.196,1.152,5.973,1.469l0.559-2.285c-1.394-0.301-2.904-0.695-4.531-1.184L95.393,68.499 M144.628,60.435
		l-0.584,2.335l10.256,2.424l-4.881,19.312c17.402,5.659,25.184,14.572,23.344,26.739c-0.686,4.597-2.204,8.296-4.555,11.097
		c3.506-2.939,5.69-7.305,6.555-13.097c1.84-12.167-5.941-21.081-23.344-26.739l4.881-19.312L144.628,60.435 M123.619,55.13
		l-0.577,2.362l10.248,2.609l-4.668,18.675c0.85,0.282,2.334,0.671,4.457,1.166c1.358,0.317,2.514,0.591,3.467,0.821l0.585-2.338
		c-0.623-0.147-1.307-0.309-2.052-0.482c-2.123-0.495-3.607-0.884-4.457-1.166l4.668-18.675L123.619,55.13 M51.068,51.101
		c-0.339,0.323-0.679,0.65-1.015,0.978c-0.09,0.092-0.18,0.185-0.269,0.277c-13.087,13.51-21.965,29.604-26.633,48.278
		c-4.67,18.676-4.386,37.067,0.848,55.177s14.607,33.707,28.12,46.795c13.511,13.086,29.603,21.963,48.279,26.632
		c8.805,2.201,17.546,3.301,26.225,3.301c9.729,0,19.38-1.383,28.951-4.148c17.078-4.938,31.922-13.555,44.534-25.852
		c0.087-0.089,0.174-0.179,0.261-0.269c0.242-0.25,0.483-0.501,0.723-0.753c-12.391,11.775-26.897,20.067-43.518,24.873
		c-9.571,2.766-19.222,4.148-28.951,4.148c-8.679,0-17.42-1.1-26.225-3.301c-18.676-4.669-34.768-13.546-48.279-26.632
		c-13.512-13.088-22.885-28.686-28.12-46.795s-5.518-36.5-0.848-55.177C29.733,80.301,38.372,64.457,51.068,51.101"/>
	<path fill="#0000FF" d="M162.321,166.948c-0.2,0.151-0.403,0.3-0.609,0.444c-4.033,2.829-8.701,4.279-14.008,4.35
		c-0.317,0.004-0.636,0.007-0.958,0.007c-5.071,0-10.8-0.534-17.185-1.597l-0.54,2.235c5.801,0.906,11.041,1.361,15.722,1.361
		c0.323,0,0.644-0.003,0.961-0.007c5.307-0.07,9.975-1.521,14.008-4.35c0.585-0.411,1.149-0.854,1.691-1.327
		C161.718,167.706,162.024,167.334,162.321,166.948 M108.551,165.27l-0.59,2.414c0.802,0.216,1.818,0.467,3.047,0.754
		c2.122,0.494,3.749,0.883,4.881,1.167l-4.67,19.102l10.238,2.418l0.566-2.339l-8.804-2.079l4.67-19.102
		c-1.133-0.284-2.759-0.673-4.881-1.167C110.885,165.942,109.4,165.554,108.551,165.27 M76.298,147.033l-4.762,11.111l15.28,3.82
		c0.99,0.142,2.404,0.496,4.244,1.061c1.839,0.565,3.183,0.92,4.032,1.063l-4.881,19.311l10.25,2.609l0.577-2.362l-8.827-2.247
		l4.881-19.311c-0.849-0.143-2.193-0.497-4.032-1.063c-1.839-0.564-3.254-0.919-4.244-1.061l-15.28-3.82l3.794-8.853L76.298,147.033
		 M118.737,125.585l-0.563,2.273c0.669,0.139,1.57,0.331,2.703,0.576c2.616,0.566,4.598,1.061,5.943,1.486
		c1.344,0.422,3.324,1.061,5.941,1.909s4.633,1.768,6.049,2.758c1.414,0.991,2.9,2.158,4.455,3.502
		c1.557,1.345,2.582,2.9,3.078,4.67c0.496,1.769,0.459,3.713-0.107,5.835c-0.401,1.466-0.988,2.745-1.766,3.835
		c0.703-0.488,1.321-1.089,1.855-1.803c0.85-1.132,1.484-2.477,1.91-4.032c0.566-2.122,0.604-4.066,0.107-5.835
		c-0.496-1.77-1.521-3.325-3.078-4.67c-1.555-1.344-3.041-2.511-4.455-3.502c-1.416-0.99-3.432-1.909-6.049-2.758
		s-4.598-1.487-5.941-1.909c-1.346-0.426-3.327-0.92-5.943-1.486C120.259,125.868,118.879,125.585,118.737,125.585 M167.081,123.206
		c-2.015,1.411-4.406,2.417-7.174,3.016c0.562,0.291,1.104,0.59,1.629,0.896c1.756-0.711,3.313-1.635,4.671-2.774
		C166.512,123.979,166.803,123.6,167.081,123.206 M101.546,111.806c0.132,0.056,0.274,0.122,0.426,0.198
		C101.868,111.9,101.726,111.834,101.546,111.806 M100.699,111.58c0.142,0.141,0.354,0.211,0.636,0.211
		c0.075,0,0.146,0.005,0.211,0.015C101.188,111.655,100.906,111.58,100.699,111.58 M127.438,90.571l-0.581,2.367
		c0.355,0.081,0.767,0.17,1.233,0.269c1.346,0.283,2.512,0.532,3.502,0.744c0.99,0.212,2.264,0.566,3.82,1.062
		c1.557,0.495,2.9,0.955,4.033,1.38c1.131,0.424,2.404,1.025,3.818,1.803c1.416,0.778,2.477,1.557,3.184,2.334
		c0.707,0.778,1.52,1.733,2.441,2.865c0.92,1.132,1.344,2.299,1.273,3.503c-0.072,1.201-0.178,2.582-0.32,4.136
		c-0.342,1.481-0.889,2.756-1.644,3.825c0.518-0.358,0.99-0.778,1.417-1.261c1.061-1.203,1.803-2.724,2.227-4.563
		c0.143-1.555,0.248-2.935,0.32-4.136c0.07-1.204-0.354-2.371-1.273-3.503c-0.922-1.131-1.734-2.086-2.441-2.865
		c-0.707-0.778-1.768-1.557-3.184-2.334c-1.414-0.777-2.688-1.379-3.818-1.803c-1.133-0.425-2.477-0.885-4.033-1.38
		c-1.557-0.495-2.83-0.849-3.82-1.062c-0.99-0.212-2.156-0.46-3.502-0.744C128.747,90.924,127.862,90.711,127.438,90.571
		 M92.833,72.859L90.422,83.02l8.277,1.911c3.961,0.99,5.8,3.254,5.518,6.791l-5.518,21.859l0,0c0.207,0,0.489,0.075,0.847,0.226
		c0.181,0.028,0.323,0.094,0.427,0.198c-0.152-0.076-0.295-0.142-0.427-0.198c-0.065-0.01-0.135-0.015-0.21-0.015
		c-0.283,0-0.495-0.07-0.636-0.211l0,0l0,0l-7.64,30.559c-0.078,0.278-0.167,0.538-0.271,0.778c1.107-0.39,1.864-1.315,2.271-2.778
		l7.64-30.559l0,0l5.518-21.859c0.282-3.537-1.557-5.8-5.518-6.791l-8.277-1.911l1.851-7.801L92.833,72.859 M142.044,64.77
		l-3.497,13.994c0.534,0.129,1.006,0.245,1.413,0.346l3.501-14.005L142.044,64.77 M121.041,59.492l-3.546,14.509
		c0.502,0.09,0.987,0.166,1.455,0.229l3.514-14.375L121.041,59.492 M127.529,18.086c-9.729,0-19.381,1.383-28.952,4.15
		c-17.985,5.198-33.493,14.479-46.524,27.842c12.609-12.293,27.451-20.908,44.524-25.842c9.571-2.767,19.223-4.15,28.952-4.15
		c8.68,0,17.42,1.101,26.226,3.302c18.674,4.668,34.768,13.546,48.277,26.633c13.51,13.087,22.885,28.685,28.119,46.794
		c5.236,18.108,5.518,36.501,0.85,55.176c-4.67,18.675-13.547,34.769-26.633,48.279c-0.086,0.089-0.172,0.177-0.259,0.266
		c0.761-0.741,1.515-1.497,2.259-2.266c13.086-13.511,21.963-29.604,26.633-48.279c4.668-18.675,4.387-37.068-0.85-55.176
		c-5.234-18.109-14.609-33.708-28.119-46.794c-13.51-13.086-29.604-21.964-48.277-26.633
		C144.949,19.186,136.209,18.086,127.529,18.086"/>
	<path fill="#FF00FF" d="M122.023,188.785l-0.566,2.339l1.435,0.339l0.565-2.339L122.023,188.785 M101.037,183.646l-0.577,2.362
		l1.422,0.362l0.578-2.362L101.037,183.646 M163.402,166.067c-0.352,0.308-0.712,0.601-1.081,0.882
		c-0.297,0.386-0.604,0.758-0.918,1.117C162.106,167.452,162.772,166.786,163.402,166.067 M77.265,144.776l-0.968,2.258l1.032,0.259
		l0.968-2.259L77.265,144.776 M168.208,122.342c-0.361,0.303-0.736,0.591-1.127,0.864c-0.277,0.394-0.568,0.773-0.874,1.137
		C166.93,123.737,167.597,123.07,168.208,122.342 M93.393,70.499l-0.56,2.36l1.44,0.36l0.56-2.36L93.393,70.499 M142.628,62.435
		l-0.584,2.335l1.417,0.334l0.583-2.334L142.628,62.435 M121.619,57.13l-0.578,2.362l1.423,0.362l0.578-2.362L121.619,57.13"/>
	<path fill="#00FFFF" d="M161.403,168.066c-0.542,0.474-1.106,0.916-1.691,1.327c-4.033,2.829-8.701,4.279-14.008,4.35
		c-0.317,0.004-0.638,0.007-0.961,0.007c-4.681,0-9.921-0.455-15.722-1.361l-0.537,2.221c5.223,0.759,9.977,1.141,14.262,1.141
		c0.322,0,0.642-0.003,0.958-0.007c5.307-0.07,9.975-1.521,14.008-4.35C159.056,170.449,160.287,169.34,161.403,168.066
		 M107.961,167.684l-0.578,2.364c0.492,0.122,1.034,0.251,1.625,0.39c2.122,0.494,3.749,0.883,4.881,1.167l-4.67,19.102
		l11.672,2.757l0.565-2.339l-10.238-2.418l4.67-19.102c-1.133-0.284-2.759-0.673-4.881-1.167
		C109.779,168.151,108.763,167.9,107.961,167.684 M75.265,146.776l-5.73,13.369l15.28,3.82c0.99,0.142,2.404,0.496,4.244,1.061
		c1.839,0.565,3.183,0.92,4.032,1.063l-4.881,19.311l11.672,2.972l0.578-2.362l-10.25-2.609l4.881-19.311
		c-0.849-0.143-2.193-0.497-4.032-1.063c-1.839-0.564-3.254-0.919-4.244-1.061l-15.28-3.82l4.762-11.111L75.265,146.776
		 M118.174,127.859l-0.571,2.302c0.386,0.083,0.81,0.174,1.273,0.274c2.616,0.566,4.598,1.061,5.943,1.486
		c1.344,0.422,3.324,1.061,5.941,1.909s4.633,1.768,6.049,2.758c1.414,0.991,2.9,2.158,4.455,3.502
		c1.557,1.345,2.582,2.9,3.078,4.67c0.496,1.769,0.459,3.713-0.107,5.835c-0.25,0.914-0.572,1.756-0.969,2.524
		c0.426-0.198,0.826-0.428,1.203-0.689c0.777-1.09,1.364-2.369,1.766-3.835c0.566-2.122,0.604-4.066,0.107-5.835
		c-0.496-1.77-1.521-3.325-3.078-4.67c-1.555-1.344-3.041-2.511-4.455-3.502c-1.416-0.99-3.432-1.909-6.049-2.758
		s-4.598-1.487-5.941-1.909c-1.345-0.426-3.327-0.92-5.943-1.486C119.743,128.19,118.843,127.997,118.174,127.859 M166.207,124.343
		c-1.358,1.139-2.915,2.063-4.671,2.774c0.299,0.175,0.592,0.352,0.879,0.531C163.856,126.739,165.121,125.636,166.207,124.343
		 M99.546,113.806c0.132,0.056,0.274,0.122,0.427,0.198C99.868,113.9,99.726,113.834,99.546,113.806 M98.699,113.58
		c0.142,0.141,0.354,0.211,0.636,0.211c0.075,0,0.146,0.005,0.21,0.015C99.188,113.655,98.906,113.58,98.699,113.58 M126.857,92.937
		l-0.567,2.311c1.261,0.266,2.361,0.5,3.302,0.702c0.99,0.212,2.264,0.566,3.82,1.062c1.557,0.495,2.9,0.955,4.033,1.38
		c1.131,0.424,2.404,1.025,3.818,1.803c1.416,0.778,2.477,1.557,3.184,2.334c0.707,0.778,1.52,1.733,2.441,2.865
		c0.92,1.132,1.344,2.299,1.273,3.503c-0.072,1.201-0.178,2.582-0.32,4.136c-0.212,0.918-0.503,1.758-0.873,2.518
		c0.435-0.196,0.845-0.427,1.229-0.693c0.755-1.069,1.302-2.344,1.644-3.825c0.143-1.555,0.248-2.935,0.32-4.136
		c0.07-1.204-0.354-2.371-1.273-3.503c-0.922-1.131-1.734-2.086-2.441-2.865c-0.707-0.778-1.768-1.557-3.184-2.334
		c-1.414-0.777-2.688-1.379-3.818-1.803c-1.133-0.425-2.477-0.885-4.033-1.38c-1.557-0.495-2.83-0.849-3.82-1.062
		c-0.99-0.212-2.156-0.46-3.502-0.744C127.624,93.108,127.213,93.018,126.857,92.937 M91.393,72.499L88.422,85.02l8.277,1.911
		c3.961,0.99,5.8,3.254,5.518,6.791l-5.518,21.859l0,0c0.207,0,0.489,0.075,0.847,0.227c0.18,0.027,0.322,0.093,0.426,0.198
		c-0.152-0.076-0.294-0.142-0.426-0.198c-0.065-0.01-0.136-0.015-0.211-0.015c-0.283,0-0.495-0.07-0.636-0.211l0,0l0,0
		l-7.387,29.546c0.045,0.001,0.091,0.002,0.135,0.002c0.493,0,0.94-0.07,1.341-0.211c0.103-0.24,0.193-0.5,0.271-0.778l7.64-30.559
		l0,0l5.518-21.859c0.282-3.537-1.557-5.8-5.518-6.791l-8.277-1.911l2.411-10.161L91.393,72.499 M140.628,64.435l-3.497,13.99
		c0.514,0.122,0.985,0.234,1.416,0.338l3.497-13.994L140.628,64.435 M119.619,59.13l-3.565,14.586
		c0.495,0.107,0.976,0.202,1.441,0.285l3.546-14.509L119.619,59.13 M125.529,20.086c-9.729,0-19.381,1.384-28.952,4.15
		c-17.073,4.935-31.915,13.549-44.524,25.842c-0.09,0.092-0.18,0.185-0.27,0.277c-0.24,0.247-0.479,0.497-0.716,0.746
		c12.389-11.774,26.892-20.063,43.509-24.865c9.571-2.767,19.223-4.15,28.952-4.15c8.68,0,17.42,1.1,26.226,3.301
		c18.674,4.668,34.768,13.546,48.277,26.633c13.51,13.087,22.885,28.685,28.119,46.794c5.236,18.108,5.518,36.501,0.85,55.176
		c-4.584,18.329-13.22,34.172-25.91,47.526c0.342-0.325,0.681-0.65,1.019-0.981c0.087-0.089,0.173-0.177,0.259-0.266
		c13.086-13.511,21.963-29.604,26.633-48.279c4.668-18.675,4.387-37.068-0.85-55.176c-5.234-18.109-14.609-33.708-28.119-46.794
		c-13.51-13.086-29.604-21.964-48.277-26.633C142.949,21.186,134.209,20.086,125.529,20.086"/>
	<path fill="#CCCCCC" d="M117.603,130.16l-5.232,21.104c0.424,0.143,1.486,0.424,3.184,0.849c1.697,0.425,3.077,0.743,4.138,0.956
		c1.062,0.213,2.582,0.529,4.563,0.955c1.98,0.424,3.677,0.706,5.093,0.849c1.414,0.142,3.076,0.247,4.988,0.318
		c0.272,0.01,0.539,0.016,0.8,0.016c1.567,0,2.927-0.184,4.079-0.547c1.346-0.425,2.652-0.919,3.928-1.484
		c0.041-0.019,0.082-0.037,0.123-0.056c0.396-0.769,0.719-1.61,0.969-2.524c0.566-2.122,0.604-4.066,0.107-5.835
		c-0.496-1.77-1.521-3.325-3.078-4.67c-1.555-1.344-3.041-2.511-4.455-3.502c-1.416-0.99-3.432-1.909-6.049-2.758
		s-4.598-1.487-5.941-1.909c-1.345-0.426-3.327-0.92-5.943-1.486C118.413,130.334,117.989,130.243,117.603,130.16 M97.546,115.806
		c0.132,0.056,0.274,0.122,0.426,0.198C97.868,115.9,97.726,115.834,97.546,115.806 M96.699,115.58
		c0.142,0.141,0.354,0.211,0.636,0.211c0.075,0,0.146,0.005,0.211,0.015C97.188,115.655,96.906,115.58,96.699,115.58 M126.29,95.248
		l-4.582,18.666c0.283,0,1.45,0.284,3.501,0.85c2.05,0.566,3.679,0.955,4.88,1.167c1.203,0.212,2.9,0.495,5.094,0.849
		c1.372,0.221,2.619,0.332,3.742,0.332c0.672,0,1.3-0.04,1.883-0.119c1.555-0.213,3.146-0.531,4.773-0.956
		c0.487-0.127,0.95-0.289,1.387-0.486c0.37-0.76,0.661-1.599,0.873-2.518c0.143-1.555,0.248-2.935,0.32-4.136
		c0.07-1.204-0.354-2.371-1.273-3.503c-0.922-1.131-1.734-2.086-2.441-2.865c-0.707-0.778-1.768-1.557-3.184-2.334
		c-1.414-0.777-2.688-1.379-3.818-1.803c-1.133-0.425-2.477-0.885-4.033-1.38c-1.557-0.495-2.83-0.849-3.82-1.062
		C128.651,95.748,127.552,95.514,126.29,95.248 M123.042,57.492l0.577-2.362l11.671,2.972l-4.668,18.675
		c0.85,0.282,2.334,0.671,4.457,1.166c0.745,0.174,1.429,0.335,2.052,0.482l3.497-13.99l1.416,0.335l0.584-2.335l1.416,0.335
		l0.584-2.335l11.672,2.759l-4.881,19.312c17.402,5.659,25.184,14.572,23.344,26.739c-0.864,5.792-3.049,10.157-6.555,13.097
		c-0.61,0.728-1.277,1.395-2.001,2.001c-1.086,1.293-2.351,2.396-3.792,3.306c9.732,6.089,12.504,15.022,8.314,26.799
		c-1.691,4.957-4.135,8.832-7.327,11.619c-0.63,0.72-1.296,1.386-1.999,1.999c-1.116,1.274-2.347,2.384-3.691,3.327
		c-4.033,2.829-8.701,4.279-14.008,4.35c-0.316,0.004-0.636,0.007-0.958,0.007c-4.285,0-9.039-0.382-14.262-1.141l-3.592,14.854
		l-1.435-0.339l-0.565,2.339l-1.435-0.339l-0.565,2.339l-11.672-2.757l4.67-19.102c-1.133-0.284-2.759-0.673-4.881-1.167
		c-0.591-0.139-1.133-0.268-1.625-0.39l-3.501,14.322l-1.422-0.362l-0.578,2.362l-1.422-0.362l-0.578,2.362l-11.672-2.972
		l4.881-19.311c-0.849-0.143-2.193-0.497-4.032-1.063c-1.839-0.564-3.254-0.919-4.244-1.061l-15.28-3.82l5.73-13.369l1.032,0.258
		l0.968-2.258l1.032,0.258l0.968-2.258l8.488,2.122c0.562,0.141,1.081,0.217,1.559,0.229l7.387-29.546l0,0l5.518-21.859
		c0.282-3.537-1.557-5.8-5.518-6.791l-8.277-1.911l2.971-12.521l1.44,0.36l0.56-2.36l1.44,0.36l0.56-2.36l16.129,4.032
		c1.627,0.489,3.138,0.883,4.531,1.184l3.565-14.586l1.422,0.362l0.578-2.362L123.042,57.492 M123.529,22.086
		c-9.729,0-19.381,1.383-28.952,4.15c-16.618,4.803-31.121,13.091-43.509,24.865c-12.696,13.356-21.334,29.2-25.917,47.533
		c-4.67,18.676-4.386,37.067,0.848,55.177s14.607,33.707,28.12,46.795c13.511,13.086,29.603,21.963,48.279,26.632
		c8.805,2.201,17.546,3.301,26.225,3.301c9.729,0,19.38-1.383,28.951-4.148c16.62-4.806,31.127-13.098,43.518-24.873
		c12.69-13.354,21.326-29.197,25.91-47.526c4.668-18.675,4.387-37.068-0.85-55.176c-5.234-18.109-14.609-33.708-28.119-46.794
		c-13.51-13.086-29.604-21.964-48.277-26.633C140.949,23.186,132.209,22.086,123.529,22.086"/>
</g>
</svg>
