<?xml version="1.0" encoding="utf-8"?>
<!-- Generator: Adobe Illustrator 16.0.0, SVG Export Plug-In . SVG Version: 6.00 Build 0)  -->
<!DOCTYPE svg PUBLIC "-//W3C//DTD SVG 1.1//EN" "http://www.w3.org/Graphics/SVG/1.1/DTD/svg11.dtd">
<svg version="1.1" id="Layer_1" xmlns="http://www.w3.org/2000/svg" xmlns:xlink="http://www.w3.org/1999/xlink" x="0px" y="0px"
	 width="249.951px" height="250.096px" viewBox="0 0 249.951 250.096" enable-background="new 0 0 249.951 250.096"
	 xml:space="preserve">
<g id="Layer_1_1_">
</g>
<g id="Layer_1_copy">
</g>
<path fill="#0000FF" d="M95.89,218.951H84.342c-3.486,0-6.516,2.016-7.984,4.941c1.201-0.603,2.554-0.941,3.984-0.941h14.441
	C95.05,221.577,95.422,220.24,95.89,218.951 M112.049,199.458c-1.417,1.161-2.712,2.463-3.862,3.887
	c1.204-0.973,2.496-1.844,3.862-2.599V199.458 M18.248,147.538H12.93c0.484,1.361,1.028,2.696,1.628,4h2.181L18.248,147.538
	 M161.078,147.538h-5.323c0.483,1.361,1.027,2.696,1.627,4h2.188L161.078,147.538 M50.807,93.139l-22.033,58.397h44.067l-1.509-4
	H32.774l19.278-51.098L50.807,93.139 M193.636,93.138l-22.039,58.398h44.074l-1.509-4h-38.565l19.283-51.1L193.636,93.138
	 M137.902,90.783c-0.938,1.127-2.021,2.132-3.22,2.983c-0.248,0.35-0.508,0.688-0.78,1.017v104.16
	c10.034,3.565,17.261,12.867,17.731,24.009h17.975c4.917,0,8.927,4.01,8.927,8.927v4.926h4v-8.926c0-4.917-4.01-8.927-8.927-8.927
	h-17.975c-0.471-11.142-7.697-20.443-17.731-24.009V90.783 M145.757,76.125h-7.854h-17.853h-7.854c0,1.38,0.168,2.719,0.484,4h3.37
	h17.853h7.854l0,0c0,3.599-1.14,6.92-3.074,9.642C142.954,86.727,145.757,81.767,145.757,76.125 M57.559,65.008
	c-1.761,0-3.521,0.87-4.172,2.608l-0.543,1.438c0.236-0.032,0.476-0.048,0.715-0.048c1.761,0,3.523,0.869,4.179,2.608l30.159,79.921
	h10.3c-2.09,5.882-5.291,11.241-9.353,15.813c5.98-5.312,10.618-12.117,13.353-19.813h-10.3L61.738,67.617
	C61.082,65.878,59.32,65.008,57.559,65.008 M200.382,65.008c-1.761,0-3.52,0.87-4.168,2.608l-0.543,1.438
	c0.234-0.032,0.473-0.048,0.711-0.048c1.762,0,3.524,0.869,4.183,2.608l30.153,79.921h10.305c-2.088,5.886-5.287,11.247-9.35,15.817
	c5.979-5.311,10.616-12.114,13.35-19.817h-10.305l-30.154-79.919C203.906,65.878,202.142,65.008,200.382,65.008 M145.154,49.552
	c-1.57,0.541-2.948,1.239-4.151,2.011c0.081,0.587,0.153,1.174,0.153,1.781c0,3.447-1.078,6.643-2.916,9.27
	C142.367,59.724,145.087,54.956,145.154,49.552 M97.732,31.492c-10.168,0-18.917,4.419-26.627,8.319
	c-2.455,1.238-4.83,2.429-7.035,3.349c-1.644-1.723-3.936-2.829-6.508-2.829c-3.522,0-6.57,2.017-8.053,4.959
	c1.218-0.614,2.595-0.959,4.053-0.959c2.572,0,4.865,1.106,6.508,2.829c2.205-0.92,4.58-2.11,7.035-3.349
	c7.71-3.9,16.458-8.319,26.627-8.319c8.892,0,15.086,3.382,19.292,7.025c0.478-0.527,0.99-1.022,1.533-1.48
	c-2.147-1.635-3.67-4.021-4.066-6.803C107.034,32.601,102.826,31.492,97.732,31.492 M160.22,31.492
	c-8.894,0-15.082,3.382-19.293,7.025c-1.838-2.032-4.186-3.563-6.847-4.454c-0.938,1.545-2.274,2.833-3.853,3.75
	c-0.049,0.084-0.098,0.167-0.147,0.25c2.661,0.891,5.007,2.422,6.847,4.454c4.211-3.644,10.399-7.025,19.293-7.025
	c10.164,0,18.908,4.419,26.623,8.319c2.448,1.238,4.828,2.429,7.043,3.357c1.64-1.731,3.932-2.838,6.504-2.838
	c4.984,0,9.013,4.031,9.013,9.014c0,1.459-0.347,2.837-0.959,4.056c2.942-1.482,4.959-4.531,4.959-8.056
	c0-4.982-4.027-9.014-9.013-9.014c-2.572,0-4.864,1.106-6.504,2.838c-2.215-0.93-4.595-2.119-7.043-3.357
	C179.128,35.912,170.384,31.492,160.22,31.492 M128.976,5.292c0,0-1.533,1.977-3.434,4.748c2.196,2.93,10.016,13.721,10.016,18.749
	c0,1.837-0.485,3.544-1.332,5.026c3.152-1.831,5.332-5.136,5.332-9.026C139.558,18.938,128.976,5.292,128.976,5.292"/>
<path fill="#00FF00" d="M178.535,236.803h-4v4h4V236.803 M76.358,223.892c-1.725,0.866-3.134,2.275-4,4
	c0.951-0.477,1.997-0.789,3.102-0.897C75.569,225.889,75.881,224.843,76.358,223.892 M108.187,203.344c-1.472,1.189-2.813,2.53-4,4
	c0.743-0.6,1.518-1.161,2.324-1.68C107.029,204.86,107.588,204.087,108.187,203.344 M231.673,167.354
	c-0.705,0.627-1.433,1.235-2.176,1.82c-0.587,0.746-1.193,1.472-1.824,2.18C229.083,170.102,230.421,168.766,231.673,167.354
	 M88.844,167.35c-0.707,0.628-1.432,1.235-2.175,1.82c-0.587,0.745-1.195,1.471-1.824,2.18
	C86.254,170.097,87.59,168.761,88.844,167.35 M14.557,151.538H8.929c0.484,1.361,1.028,2.696,1.628,4h4.672l0.567-1.503
	C15.36,153.216,14.947,152.383,14.557,151.538 M157.382,151.538h-5.627c0.483,1.361,1.027,2.696,1.627,4h4.678l0.564-1.497
	C158.187,153.219,157.772,152.385,157.382,151.538 M138.683,89.766c-0.254,0.183-0.516,0.356-0.78,0.524v0.492
	C138.175,90.455,138.435,90.116,138.683,89.766 M57.562,81.839l-0.738,1.956l24.053,63.742h1.473L57.562,81.839 M200.39,81.839
	l-0.739,1.959l24.049,63.739h1.481L200.39,81.839 M112.679,80.125h-4.484c0,1.38,0.168,2.72,0.484,4h3.37h2.191
	C113.557,82.88,113.027,81.538,112.679,80.125 M52.844,69.055c-1.504,0.205-2.894,1.058-3.457,2.562l-0.543,1.438
	c0.237-0.032,0.476-0.048,0.715-0.048c0.576,0,1.151,0.093,1.688,0.278L52.844,69.055 M195.671,69.055
	c-1.506,0.203-2.896,1.057-3.457,2.562l-0.543,1.438c0.234-0.032,0.473-0.048,0.711-0.048c0.576,0,1.153,0.093,1.691,0.279
	L195.671,69.055 M138.239,62.613c-0.798,0.56-1.648,1.048-2.543,1.456c-0.41,0.896-0.898,1.746-1.457,2.544
	C135.796,65.524,137.15,64.17,138.239,62.613 M60.464,58.992c-0.812,0.355-1.618,0.689-2.419,0.994
	c-0.159,0.51-0.359,0.999-0.597,1.467C58.626,60.867,59.651,60.02,60.464,58.992 M204.442,57.4
	c-0.947,0.478-1.989,0.791-3.092,0.908c-0.117,1.103-0.433,2.146-0.908,3.092C202.167,60.533,203.573,59.126,204.442,57.4
	 M49.509,45.29c-1.725,0.869-3.131,2.274-4,4c0.946-0.478,1.989-0.792,3.091-0.909C48.716,47.279,49.032,46.236,49.509,45.29
	 M160.413,40.419c6.775,1.501,12.869,4.582,18.43,7.393c2.448,1.238,4.828,2.429,7.043,3.357c0.418-0.442,0.879-0.843,1.377-1.195
	c-1.465-0.695-2.945-1.439-4.447-2.198C176.052,44.355,168.382,40.48,160.413,40.419 M97.732,40.418c-0.101,0-0.202,0-0.303,0.002
	c4.939,1.252,8.729,3.614,11.596,6.098c0.537-0.593,1.116-1.144,1.734-1.648C107.87,42.518,103.653,40.418,97.732,40.418
	 M134.228,33.814c-0.111,0.064-0.223,0.127-0.336,0.188c0.063,0.02,0.127,0.041,0.188,0.062
	C134.13,33.981,134.179,33.898,134.228,33.814 M124.975,9.292c0,0-1.533,1.977-3.433,4.748c0.208,0.277,0.467,0.626,0.765,1.034
	c1.062-1.786,2.203-3.527,3.235-5.034C125.183,9.56,124.975,9.292,124.975,9.292"/>
<path fill="#00FFFF" d="M94.783,222.951H80.342c-1.43,0-2.784,0.339-3.984,0.941c-0.477,0.95-0.789,1.997-0.898,3.103
	c0.291-0.029,0.585-0.043,0.883-0.043h17.972C94.371,225.588,94.53,224.252,94.783,222.951 M112.049,200.746
	c-1.366,0.755-2.658,1.626-3.862,2.599c-0.599,0.742-1.158,1.516-1.676,2.32c1.718-1.107,3.575-2.025,5.538-2.723V200.746
	 M16.739,151.538h-2.181c0.39,0.846,0.803,1.678,1.239,2.497L16.739,151.538 M159.568,151.538h-2.187
	c0.391,0.848,0.805,1.683,1.241,2.503L159.568,151.538 M133.902,94.783c-1.138,1.367-2.488,2.554-4,3.508v104.651
	c10.034,3.565,17.261,12.867,17.731,24.009h17.975c4.917,0,8.927,4.01,8.927,8.927v0.926h4v-4.926c0-4.917-4.01-8.927-8.927-8.927
	h-17.975c-0.471-11.142-7.697-20.443-17.731-24.009V94.783 M49.562,89.839l-24.788,65.698H74.35l-1.509-4H28.774l22.033-58.397
	L49.562,89.839 M192.39,89.839l-24.793,65.698h49.584l-1.51-4h-44.074l22.037-58.398L192.39,89.839 M141.757,80.125h-7.854h-17.853
	h-3.37c0.349,1.413,0.878,2.755,1.562,4h15.662h7.854l0,0c0,3.599-1.139,6.92-3.072,9.642c1.197-0.853,2.281-1.856,3.219-2.983
	v-0.492c0.266-0.167,0.525-0.342,0.781-0.524C140.616,87.045,141.757,83.723,141.757,80.125 M53.559,69.008
	c-0.239,0-0.479,0.016-0.715,0.048l-1.597,4.23c1.106,0.383,2.049,1.159,2.49,2.33l3.086,8.179l0.738-1.956l24.789,65.698h-1.473
	l3.019,8h10.3c-1.767,4.97-4.326,9.568-7.528,13.633c0.743-0.585,1.469-1.192,2.175-1.82c4.062-4.572,7.263-9.932,9.353-15.813
	h-10.3l-30.158-79.92C57.082,69.877,55.32,69.008,53.559,69.008 M196.382,69.008c-0.238,0-0.477,0.016-0.711,0.048l-1.598,4.231
	c1.105,0.383,2.048,1.158,2.49,2.329l3.087,8.182l0.739-1.959l24.791,65.698h-1.481l3.019,8h10.305
	c-1.766,4.974-4.323,9.572-7.524,13.638c0.743-0.585,1.47-1.192,2.177-1.82c4.062-4.57,7.26-9.932,9.349-15.817h-10.306
	l-30.154-79.92C199.906,69.877,198.142,69.008,196.382,69.008 M141.003,51.563c-1.687,1.083-3.029,2.313-4.076,3.462
	c0.104,0.769,0.229,1.526,0.229,2.319c0,2.399-0.521,4.677-1.459,6.725c0.895-0.408,1.745-0.896,2.543-1.455
	c1.838-2.627,2.916-5.822,2.916-9.27C141.155,52.737,141.083,52.15,141.003,51.563 M93.732,35.492
	c-10.168,0-18.917,4.419-26.627,8.319c-2.455,1.238-4.83,2.429-7.035,3.349c-1.644-1.723-3.936-2.829-6.508-2.829
	c-1.458,0-2.835,0.346-4.053,0.959c-0.477,0.945-0.792,1.988-0.909,3.091c0.316-0.034,0.637-0.051,0.962-0.051
	c2.572,0,4.865,1.106,6.508,2.829c2.205-0.92,4.58-2.11,7.035-3.349c7.71-3.9,16.458-8.319,26.627-8.319
	c2.832,0,5.39,0.343,7.697,0.928c0.101-0.001,0.202-0.002,0.303-0.002c5.921,0,10.139,2.101,13.027,4.451
	c1.549-1.268,3.34-2.244,5.3-2.867c-0.527-0.283-1.03-0.606-1.502-0.966c-0.543,0.458-1.055,0.953-1.533,1.48
	C108.818,38.874,102.624,35.492,93.732,35.492 M156.22,35.492c-8.894,0-15.082,3.382-19.293,7.025
	c-1.838-2.032-4.186-3.563-6.847-4.454c-1.005,1.654-2.463,3.013-4.188,3.938c2.738,0.88,5.152,2.436,7.035,4.516
	c4.211-3.644,10.399-7.025,19.293-7.025c2.84,0,5.567,0.345,8.193,0.927c7.969,0.062,15.639,3.937,22.4,7.356
	c1.503,0.758,2.984,1.502,4.447,2.198c1.451-1.029,3.211-1.643,5.129-1.643c4.983,0,9.012,4.031,9.012,9.014
	c0,0.326-0.018,0.647-0.051,0.964c1.103-0.117,2.145-0.431,3.092-0.908c0.613-1.219,0.959-2.597,0.959-4.056
	c0-4.982-4.027-9.014-9.012-9.014c-2.573,0-4.865,1.106-6.504,2.838c-2.215-0.929-4.596-2.119-7.045-3.357
	C175.128,39.912,166.384,35.492,156.22,35.492 M125.542,10.039c-1.033,1.507-2.173,3.248-3.235,5.034
	c2.844,3.891,9.25,13.163,9.25,17.715c0,1.837-0.485,3.544-1.332,5.026c1.58-0.917,2.914-2.205,3.854-3.75
	c-0.063-0.021-0.125-0.042-0.188-0.062c0.113-0.062,0.225-0.123,0.334-0.188c0.846-1.482,1.332-3.188,1.332-5.026
	C135.558,23.76,127.738,12.969,125.542,10.039"/>
<path fill="#FF0000" d="M72.358,227.892c-2.926,1.468-4.942,4.499-4.942,7.985v8.926h107.119v-4H71.416v-8.926
	C71.416,230.446,71.755,229.094,72.358,227.892 M104.187,207.344c-3.732,3.015-6.626,7.011-8.296,11.606h2.893
	C99.627,214.607,101.518,210.649,104.187,207.344 M10.557,155.538H4.929c6.542,18.412,23.968,31.714,44.632,31.714
	c14.064,0,26.628-6.162,35.282-15.901c-8.326,7.396-19.255,11.901-31.282,11.901C34.427,183.252,18.068,171.845,10.557,155.538
	 M153.382,155.538h-5.627c6.538,18.412,23.975,31.714,44.635,31.714c14.062,0,26.629-6.155,35.283-15.896
	c-8.326,7.396-19.259,11.896-31.283,11.896C177.257,183.252,160.89,171.845,153.382,155.538 M54.807,89.139l-2.755,7.301
	l19.279,51.098h5.509L54.807,89.139 M197.636,89.138l-2.756,7.3l19.282,51.1h5.509L197.636,89.138 M108.679,84.125h-4.484
	c0,5.979,3.151,11.192,7.854,14.166v101.167c1.244-1.02,2.582-1.927,4-2.712V94.291C112.431,92.004,109.732,88.391,108.679,84.125
	 M48.844,73.055c-1.503,0.205-2.894,1.058-3.457,2.562l-27.139,71.921h2.491L48.844,73.055 M191.671,73.055
	c-1.506,0.203-2.896,1.057-3.457,2.562l-27.136,71.921h2.49L191.671,73.055 M45.509,49.29c-2.943,1.482-4.96,4.53-4.96,8.055
	c0,4.982,4.033,9.014,9.013,9.014c3.484,0,6.409-2.005,7.886-4.905c-1.166,0.58-2.48,0.905-3.886,0.905
	c-4.98,0-9.013-4.031-9.013-9.014C44.549,51.886,44.894,50.509,45.509,49.29 M93.732,44.418c-8.033,0-15.774,3.91-22.604,7.357
	c-2.261,1.144-4.483,2.26-6.665,3.216c-0.813,1.028-1.838,1.875-3.016,2.461c-0.279,0.547-0.609,1.063-0.984,1.539
	c2.181-0.957,4.403-2.072,6.665-3.216c6.83-3.447,14.571-7.357,22.604-7.357c7.711,0,12.531,3.562,15.291,6.599
	c-0.104,0.768-0.231,1.535-0.231,2.328c0,8.935,7.249,16.184,16.184,16.184c5.488,0,10.337-2.733,13.264-6.914
	c-2.625,1.837-5.817,2.914-9.264,2.914c-8.935,0-16.184-7.249-16.184-16.184c0-0.793,0.127-1.561,0.231-2.328
	C106.263,47.979,101.443,44.418,93.732,44.418 M156.22,44.418c-4.791,0-8.463,1.377-11.217,3.146
	c0.081,0.586,0.153,1.174,0.153,1.781c0,0.069,0,0.138-0.001,0.208c2.023-0.697,4.367-1.134,7.064-1.134
	c8.039,0,15.778,3.91,22.597,7.357c3.11,1.569,6.137,3.085,9.091,4.21c1.145,3.671,4.439,6.373,8.484,6.373
	c3.523,0,6.57-2.016,8.053-4.958c-1.219,0.613-2.596,0.958-4.053,0.958c-4.045,0-7.342-2.702-8.484-6.373
	c-2.954-1.125-5.98-2.642-9.091-4.21C171.997,48.328,164.257,44.418,156.22,44.418 M120.975,13.292c0,0-10.586,13.646-10.586,19.497
	c0,0.492,0.035,0.975,0.102,1.446c2.577,1.219,4.737,2.728,6.534,4.283c0.478-0.527,0.99-1.022,1.533-1.48
	c-2.511-1.911-4.168-4.853-4.168-8.249c0-3.623,4.062-10.238,7.154-14.749C121.183,13.56,120.975,13.292,120.975,13.292"/>
<path fill="#FF00FF" d="M98.783,218.951H95.89c-0.468,1.289-0.84,2.625-1.107,4h3.531C98.371,221.588,98.53,220.252,98.783,218.951
	 M116.049,196.746c-1.418,0.785-2.756,1.692-4,2.712v1.288c1.272-0.705,2.609-1.31,4-1.804V196.746 M20.739,147.538h-2.491l-1.509,4
	h2.491L20.739,147.538 M76.841,147.538h-5.509l1.509,4h5.509L76.841,147.538 M163.568,147.538h-2.49l-1.51,4h2.491L163.568,147.538
	 M219.671,147.538h-5.509l1.509,4h5.51L219.671,147.538 M134.683,93.766c-0.254,0.183-0.516,0.356-0.78,0.524v0.492
	C134.175,94.455,134.435,94.116,134.683,93.766 M53.562,85.839l-2.754,7.301l1.245,3.301l2.755-7.301L53.562,85.839 M196.39,85.839
	l-2.756,7.3l1.246,3.3l2.754-7.3L196.39,85.839 M64.464,54.992c-0.812,0.355-1.618,0.689-2.419,0.994
	c-0.159,0.51-0.359,0.999-0.597,1.467C62.626,56.867,63.651,56.02,64.464,54.992 M145.003,47.563
	c-1.687,1.083-3.029,2.313-4.076,3.462c0.024,0.181,0.051,0.359,0.076,0.538c1.202-0.771,2.581-1.47,4.15-2.011
	c0.001-0.069,0.001-0.138,0.001-0.208C145.155,48.737,145.083,48.149,145.003,47.563 M130.228,37.814
	c-0.111,0.064-0.223,0.127-0.336,0.188c0.063,0.021,0.127,0.041,0.188,0.062C130.13,37.981,130.179,37.898,130.228,37.814
	 M110.491,34.234c0.396,2.781,1.919,5.167,4.066,6.803c1.595-1.349,3.456-2.385,5.502-3.034c-0.527-0.283-1.03-0.606-1.502-0.966
	c-0.543,0.458-1.055,0.954-1.533,1.48C115.227,36.962,113.068,35.453,110.491,34.234"/>
<path fill="#FFFF00" d="M75.459,226.995c-1.104,0.108-2.151,0.421-3.102,0.897c-0.603,1.201-0.942,2.554-0.942,3.985v8.926h103.12
	v-4H75.416v-8.926C75.416,227.58,75.43,227.285,75.459,226.995 M106.511,205.665c-0.806,0.519-1.582,1.08-2.324,1.68
	c-2.669,3.305-4.56,7.263-5.404,11.606h3.531C102.52,214.057,104.032,209.518,106.511,205.665 M158.624,154.04l-0.564,1.497h-4.678
	c7.51,16.309,23.875,27.714,43.008,27.714c12.024,0,22.957-4.5,31.283-11.896c0.631-0.708,1.237-1.435,1.824-2.18
	c-8.015,6.308-18.104,10.077-29.107,10.077C182.253,179.252,166.601,169.001,158.624,154.04 M15.797,154.034l-0.567,1.503h-4.672
	c7.511,16.309,23.869,27.714,43.004,27.714c12.027,0,22.957-4.505,31.282-11.901c0.629-0.708,1.237-1.435,1.824-2.18
	c-8.014,6.309-18.1,10.081-29.106,10.081C39.419,179.252,23.773,168.998,15.797,154.034 M114.24,84.125h-2.191h-3.37
	c1.053,4.267,3.752,7.879,7.37,10.166v102.455c1.272-0.705,2.609-1.31,4-1.804V90.291C117.629,88.761,115.62,86.639,114.24,84.125
	 M199.65,83.798l-2.017,5.341l22.037,58.398h4.027L199.65,83.798 M56.824,83.795l-2.017,5.345l22.034,58.397h4.036L56.824,83.795
	 M49.559,73.008c-0.239,0-0.479,0.016-0.715,0.048l-28.105,74.481h2.491l28.018-74.251C50.71,73.1,50.135,73.008,49.559,73.008
	 M192.382,73.008c-0.238,0-0.477,0.016-0.711,0.048l-28.103,74.482h2.491l28.014-74.25
	C193.535,73.101,192.958,73.008,192.382,73.008 M48.599,48.382c-1.102,0.117-2.145,0.432-3.091,0.909
	c-0.614,1.219-0.96,2.596-0.96,4.055c0,4.982,4.033,9.014,9.013,9.014c1.406,0,2.721-0.326,3.886-0.905
	c0.237-0.468,0.438-0.958,0.597-1.467c0.801-0.305,1.607-0.639,2.419-0.994c0.375-0.477,0.706-0.992,0.984-1.539
	c-1.166,0.58-2.48,0.905-3.886,0.905c-4.98,0-9.013-4.031-9.013-9.014C48.549,49.018,48.566,48.698,48.599,48.382 M97.429,40.42
	c-7.924,0.096-15.557,3.951-22.3,7.355c-3.103,1.569-6.132,3.085-9.083,4.21c-0.345,1.105-0.885,2.123-1.581,3.006
	c2.181-0.957,4.403-2.072,6.665-3.216c6.83-3.447,14.571-7.357,22.604-7.357c7.711,0,12.531,3.562,15.291,6.599
	c-0.104,0.768-0.231,1.535-0.231,2.328c0,8.935,7.249,16.184,16.184,16.184c3.447,0,6.64-1.077,9.264-2.914
	c0.56-0.799,1.047-1.649,1.457-2.545c-2.047,0.938-4.323,1.458-6.722,1.458c-8.935,0-16.183-7.249-16.183-16.184
	c0-0.793,0.127-1.561,0.231-2.328c-0.641-0.705-1.392-1.438-2.264-2.147c-0.618,0.505-1.198,1.056-1.734,1.648
	C106.157,44.035,102.367,41.673,97.429,40.42 M160.22,40.418c-7.726,0-12.537,3.579-15.291,6.606
	c0.023,0.181,0.049,0.359,0.074,0.538c2.754-1.769,6.426-3.146,11.217-3.146c8.037,0,15.777,3.91,22.596,7.357
	c3.109,1.569,6.137,3.085,9.091,4.21c1.144,3.67,4.438,6.373,8.483,6.373c1.459,0,2.836-0.345,4.054-0.958
	c0.478-0.946,0.791-1.989,0.907-3.092c-0.314,0.033-0.637,0.05-0.961,0.05c-4.045,0-7.34-2.703-8.483-6.373
	c-1.528-0.582-3.075-1.269-4.644-2.013c-0.498,0.354-0.959,0.753-1.377,1.195c-2.215-0.93-4.595-2.119-7.043-3.357
	c-5.561-2.811-11.653-5.892-18.43-7.393C160.349,40.419,160.283,40.418,160.22,40.418 M121.542,14.039
	c-3.092,4.511-7.154,11.126-7.154,14.749c0,3.396,1.658,6.337,4.168,8.249c1.595-1.349,3.456-2.385,5.502-3.034
	c-3.331-1.787-5.67-5.178-5.67-9.214c0-2.413,1.802-6.153,3.918-9.715C122.009,14.666,121.75,14.317,121.542,14.039"/>
<path fill="#CCCCCC" d="M137.757,84.125h-7.854H114.24c1.38,2.515,3.389,4.637,5.809,6.166v104.651
	c-1.391,0.494-2.728,1.099-4,1.804v2.196c-1.391,0.494-2.728,1.099-4,1.804v2.196c-1.963,0.697-3.819,1.615-5.538,2.723
	c-2.479,3.854-3.991,8.393-4.197,13.286h-3.531c-0.253,1.301-0.412,2.637-0.469,4h-3.531c-0.253,1.301-0.412,2.637-0.469,4H76.342
	c-0.298,0-0.592,0.015-0.883,0.043c-0.029,0.291-0.043,0.585-0.043,0.883v8.926h99.119v-0.926c0-4.917-4.01-8.927-8.927-8.927
	h-17.975c-0.471-11.141-7.697-20.442-17.731-24.008V98.291c1.512-0.955,2.862-2.141,4-3.508v-0.492
	c0.266-0.167,0.526-0.342,0.78-0.524C136.616,91.045,137.757,87.723,137.757,84.125 M194.073,73.288l-28.014,74.25h-2.491l-1.509,4
	h-2.491l-0.944,2.503c7.977,14.96,23.629,25.211,41.766,25.211c11.004,0,21.094-3.77,29.107-10.077
	c3.201-4.064,5.76-8.664,7.523-13.638h-10.303l-3.019-8h-4.028l1.51,4h-5.51l1.51,4h-49.584l24.793-65.698l1.244,3.3l2.756-7.3
	l1.244,3.3l2.017-5.341l-3.087-8.182C196.121,74.446,195.179,73.671,194.073,73.288 M51.247,73.287l-28.018,74.251h-2.491l-1.509,4
	h-2.491l-0.942,2.497c7.976,14.964,23.622,25.218,41.765,25.218c11.006,0,21.093-3.772,29.106-10.081
	c3.202-4.064,5.762-8.663,7.528-13.633h-10.3l-3.019-8H76.84l1.509,4H72.84l1.509,4H24.773l24.788-65.698l1.246,3.301l2.754-7.301
	l1.246,3.301l2.017-5.345l-3.086-8.179C53.296,74.445,52.353,73.669,51.247,73.287 M192.39,48.331c-1.918,0-3.678,0.613-5.129,1.643
	c1.568,0.744,3.115,1.431,4.645,2.013c1.145,3.671,4.439,6.373,8.484,6.373c0.324,0,0.646-0.017,0.961-0.05
	c0.033-0.316,0.051-0.638,0.051-0.964C201.401,52.362,197.374,48.331,192.39,48.331 M89.732,39.492
	c-10.168,0-18.917,4.419-26.627,8.319c-2.455,1.238-4.83,2.429-7.035,3.349c-1.644-1.723-3.936-2.829-6.508-2.829
	c-0.325,0-0.646,0.017-0.962,0.051c-0.034,0.316-0.051,0.638-0.051,0.963c0,4.982,4.033,9.014,9.013,9.014
	c1.406,0,2.721-0.325,3.886-0.905c0.238-0.468,0.438-0.958,0.597-1.467c0.801-0.305,1.607-0.639,2.419-0.994
	c0.696-0.883,1.236-1.9,1.581-3.006c2.951-1.125,5.98-2.642,9.083-4.21c6.744-3.404,14.376-7.26,22.3-7.355
	C95.121,39.835,92.563,39.492,89.732,39.492 M122.307,15.074c-2.117,3.562-3.918,7.302-3.918,9.715c0,4.036,2.34,7.427,5.67,9.214
	c-2.046,0.649-3.907,1.686-5.502,3.034c0.472,0.359,0.975,0.683,1.502,0.966c-2.046,0.649-3.907,1.687-5.502,3.034
	c0.472,0.359,0.975,0.683,1.502,0.966c-1.96,0.623-3.751,1.6-5.3,2.867c0.873,0.71,1.624,1.442,2.264,2.147
	c-0.104,0.768-0.231,1.535-0.231,2.328c0,8.936,7.249,16.184,16.184,16.184c2.397,0,4.675-0.521,6.722-1.457
	c0.937-2.049,1.459-4.326,1.459-6.726c0-0.793-0.123-1.552-0.228-2.319c1.045-1.149,2.389-2.379,4.074-3.462
	c-0.025-0.179-0.05-0.357-0.074-0.538c1.045-1.149,2.389-2.379,4.074-3.462c-0.025-0.179-0.05-0.357-0.074-0.538
	c2.754-3.028,7.565-6.606,15.291-6.606c0.063,0,0.129,0,0.193,0.001c-2.626-0.583-5.354-0.927-8.193-0.927
	c-8.894,0-15.082,3.382-19.293,7.025c-1.883-2.08-4.297-3.635-7.035-4.516c1.726-0.926,3.185-2.284,4.188-3.938
	c-0.063-0.021-0.125-0.042-0.188-0.062c0.113-0.062,0.226-0.123,0.336-0.188c0.845-1.481,1.332-3.188,1.332-5.026
	C131.558,28.236,125.151,18.965,122.307,15.074"/>
</svg>
