<?xml version="1.0" encoding="utf-8"?>
<!-- Generator: Adobe Illustrator 16.0.0, SVG Export Plug-In . SVG Version: 6.00 Build 0)  -->
<!DOCTYPE svg PUBLIC "-//W3C//DTD SVG 1.1//EN" "http://www.w3.org/Graphics/SVG/1.1/DTD/svg11.dtd">
<svg version="1.1" id="Layer_1" xmlns="http://www.w3.org/2000/svg" xmlns:xlink="http://www.w3.org/1999/xlink" x="0px" y="0px"
	 width="253.214px" height="258.285px" viewBox="0 0 253.214 258.285" enable-background="new 0 0 253.214 258.285"
	 xml:space="preserve">
<g id="Capa_1">
</g>
<g id="Capa_1_copy_2">
</g>
<path fill="#0000FF" d="M208.613,206.912c-0.982,0.791-1.98,1.563-3,2.319v37.027l3,1.848V206.912 M104.29,194.822
	c-4.106,0.331-8.258,0.542-12.462,0.542c-2.999,0-5.938-0.219-8.891-0.385c1.168,1.144,2.337,2.258,3.512,3.344
	c0.79,0.025,1.582,0.041,2.378,0.041c4.204,0,8.356-0.211,12.462-0.542c14.165,9.749,24.532,15.61,44.046,15.61
	c6.729,0,13.229-0.769,19.492-2.071l22.715,15.142v-5l-19.715-13.142c-6.262,1.304-12.764,2.071-19.492,2.071
	C128.822,210.433,118.455,204.571,104.29,194.822 M208.007,188.474c-4.346,3.892-9.199,7.36-14.463,10.328v1.228
	c4.742-2.935,9.111-6.289,13.035-10.002C207.064,189.515,207.541,188.996,208.007,188.474 M61.689,82.346
	c-3.886,0-7.315,1.964-9.35,4.953c1.81-1.232,3.997-1.953,6.35-1.953c6.239,0,11.302,5.063,11.302,11.302
	c0,2.355-0.72,4.541-1.951,6.35c2.987-2.033,4.951-5.461,4.951-9.35C72.991,87.409,67.928,82.346,61.689,82.346 M106.896,82.346
	c-3.885,0-7.315,1.964-9.349,4.953c1.81-1.232,3.996-1.953,6.349-1.953c6.239,0,11.302,5.063,11.302,11.302
	c0,2.355-0.72,4.541-1.951,6.35c2.988-2.033,4.951-5.461,4.951-9.35C118.199,87.409,113.135,82.346,106.896,82.346 M152.104,82.346
	c-3.886,0-7.315,1.964-9.351,4.953c1.811-1.232,3.998-1.953,6.351-1.953c6.237,0,11.302,5.063,11.302,11.302
	c0,2.355-0.72,4.541-1.951,6.35c2.987-2.033,4.951-5.461,4.951-9.35C163.406,87.409,158.341,82.346,152.104,82.346 M215.763,75.851
	c0.132,1.983,0.345,3.947,0.379,5.951c16.79,15.381,27.143,36.165,27.143,59.104c0,20.858-8.545,39.938-22.713,54.782
	c15.952-15.229,25.713-35.488,25.713-57.782C246.285,113.464,234.533,91.47,215.763,75.851 M44.934,49.598
	c-0.534,0.476-1.055,0.956-1.573,1.444C31.667,63.426,24.784,79.318,24.784,96.648c0,25.113,11.761,45.035,30.138,59.945v26.702
	l25.715-17.141c6.261,1.303,20.298,2.071,27.026,2.071c22.182,0,40.561-7.526,53.611-19.783c0.483-0.516,0.961-1.039,1.427-1.568
	c-12.937,11.409-30.734,18.352-52.039,18.352c-6.729,0-20.765-0.769-27.026-2.071l-25.715,17.141v-26.702
	c-18.377-14.911-30.138-34.833-30.138-59.945C27.784,77.035,34.108,61.744,44.934,49.598 M110.664,7
	C80.406,7,53.392,18.971,35.437,37.788C53.331,20.707,79.046,10,107.664,10c45.035,0,90.414,38.374,90.414,85.706
	c0,23.05-8.615,44.426-23.701,60.288c16.939-16.112,26.701-38.75,26.701-63.288C201.078,45.374,155.699,7,110.664,7"/>
<path fill="#00FF00" d="M202.613,244.412v4.847l3,1.848v-4.848L202.613,244.412 M193.544,200.028c-0.984,0.609-1.985,1.199-3,1.771
	v1.229c1.018-0.629,2.018-1.278,3-1.946V200.028 M79.937,197.979c1.168,1.143,2.337,2.258,3.512,3.344
	c0.79,0.025,1.582,0.041,2.378,0.041c1.32,0,2.635-0.021,3.945-0.061c-1.114-0.968-2.221-1.961-3.323-2.98
	C84.267,198.252,82.105,198.103,79.937,197.979 M220.572,195.688c-0.513,0.488-1.035,0.976-1.56,1.455
	c-0.474,0.52-0.954,1.035-1.44,1.543C218.598,197.709,219.599,196.708,220.572,195.688 M174.376,155.994
	c-0.513,0.487-1.031,0.969-1.557,1.444c-0.477,0.525-0.955,1.041-1.443,1.557C172.403,158.019,173.404,157.019,174.376,155.994
	 M68.041,102.998c-0.607,0.414-1.257,0.769-1.941,1.059c-0.29,0.684-0.646,1.334-1.059,1.941
	C66.219,105.196,67.238,104.177,68.041,102.998 M158.455,102.998c-0.606,0.413-1.256,0.769-1.94,1.059
	c-0.29,0.684-0.646,1.333-1.06,1.941C156.634,105.196,157.653,104.177,158.455,102.998 M113.248,102.998
	c-0.607,0.413-1.257,0.769-1.941,1.059c-0.29,0.684-0.646,1.333-1.059,1.941C111.427,105.196,112.446,104.177,113.248,102.998
	 M142.753,87.299c-1.178,0.802-2.197,1.821-3,3c0.607-0.413,1.258-0.769,1.94-1.06C141.985,88.556,142.341,87.906,142.753,87.299
	 M97.547,87.299c-1.179,0.802-2.198,1.821-3,3c0.607-0.414,1.257-0.769,1.94-1.06C96.778,88.556,97.134,87.906,97.547,87.299
	 M52.34,87.299c-1.178,0.802-2.197,1.821-3,3c0.607-0.414,1.256-0.769,1.94-1.06C51.571,88.556,51.927,87.906,52.34,87.299
	 M212.763,78.851c0.132,1.983,0.345,3.947,0.379,5.951c0.966,0.885,1.913,1.79,2.836,2.71c0.109-1.71,0.169-3.432,0.169-5.166
	c0-0.182-0.001-0.363-0.005-0.544C215.042,80.795,213.916,79.811,212.763,78.851 M35.438,37.788
	c-1.025,0.979-2.026,1.979-2.999,2.999c0.515-0.491,1.032-0.974,1.559-1.454C34.471,38.813,34.951,38.298,35.438,37.788"/>
<path fill="#00FFFF" d="M205.613,209.231c-0.982,0.729-1.984,1.443-3,2.139v33.042l3,1.847V209.231 M101.29,197.822
	c-4.106,0.331-8.258,0.542-12.462,0.542c-0.796,0-1.589-0.016-2.378-0.041c1.103,1.02,2.209,2.014,3.323,2.98
	c2.862-0.084,5.701-0.254,8.518-0.481c14.165,9.749,24.532,15.61,44.046,15.61c6.729,0,13.229-0.769,19.492-2.071l25.715,17.141v-5
	L164.83,211.36c-6.262,1.304-12.764,2.072-19.492,2.072C125.822,213.433,115.455,207.571,101.29,197.822 M206.58,190.026
	c-3.924,3.713-8.293,7.066-13.035,10.002v1.054C198.345,197.819,202.718,194.11,206.58,190.026 M58.689,85.346
	c-2.353,0-4.54,0.72-6.35,1.953c-0.413,0.607-0.769,1.257-1.059,1.94c1.355-0.575,2.845-0.893,4.409-0.893
	c6.239,0,11.302,5.063,11.302,11.302c0,1.564-0.318,3.055-0.892,4.409c0.684-0.29,1.334-0.646,1.941-1.059
	c1.231-1.809,1.951-3.995,1.951-6.35C69.991,90.409,64.928,85.346,58.689,85.346 M103.896,85.346c-2.353,0-4.539,0.721-6.349,1.953
	c-0.414,0.607-0.769,1.257-1.06,1.94c1.355-0.575,2.845-0.893,4.409-0.893c6.239,0,11.302,5.063,11.302,11.302
	c0,1.564-0.318,3.055-0.892,4.409c0.684-0.29,1.334-0.646,1.941-1.059c1.231-1.81,1.951-3.995,1.951-6.35
	C115.199,90.409,110.135,85.346,103.896,85.346 M149.104,85.346c-2.353,0-4.54,0.721-6.351,1.953
	c-0.414,0.607-0.769,1.257-1.06,1.94c1.354-0.575,2.845-0.893,4.409-0.893c6.238,0,11.302,5.063,11.302,11.302
	c0,1.564-0.317,3.055-0.892,4.409c0.684-0.29,1.334-0.646,1.941-1.059c1.23-1.81,1.95-3.995,1.95-6.35
	C160.406,90.409,155.341,85.346,149.104,85.346 M216.142,81.802c0.003,0.181,0.005,0.363,0.005,0.544
	c0,1.734-0.06,3.456-0.169,5.166c15.111,15.071,24.307,34.774,24.307,56.394c0,20.144-7.969,38.626-21.271,53.237
	c0.525-0.479,1.047-0.965,1.561-1.455c14.166-14.842,22.713-33.924,22.713-54.782C243.285,117.966,232.932,97.182,216.142,81.802
	 M43.361,51.042C29.853,63.807,21.784,80.885,21.784,99.648c0,25.113,11.761,45.035,30.138,59.945v26.702l25.715-17.141
	c6.261,1.303,20.298,2.071,27.026,2.071c23.939,0,43.448-8.766,56.611-22.783c-13.051,12.257-31.429,19.783-53.611,19.783
	c-6.729,0-20.765-0.769-27.026-2.071l-25.715,17.141v-26.702c-18.377-14.91-30.138-34.833-30.138-59.945
	C24.784,79.318,31.667,63.426,43.361,51.042 M107.664,10c-28.618,0-54.333,10.708-72.227,27.788c-0.486,0.51-0.967,1.025-1.44,1.545
	C51.81,23.103,76.87,13,104.664,13c45.035,0,90.414,38.374,90.414,85.706c0,22.305-8.068,43.042-22.258,58.732
	c0.525-0.476,1.045-0.957,1.557-1.444c15.086-15.862,23.701-37.238,23.701-60.288C198.078,48.374,152.699,10,107.664,10"/>
<path fill="#FF0000" d="M190.544,203.028c-0.984,0.609-1.985,1.199-3,1.771v16.703l3,2V203.028 M76.937,200.979
	c17.932,17.541,36.384,28.64,65.398,28.64c6.172,0,12.191-0.558,18.045-1.515l42.231,26.002v-4.848l-39.231-24.154
	c-5.854,0.957-11.875,1.515-18.045,1.515c-27.125,0-45.02-9.701-61.886-25.296C81.267,201.252,79.105,201.103,76.937,200.979
	 M217.574,198.688c-2.804,2.676-5.795,5.193-8.961,7.543v0.681C211.8,204.347,214.794,201.599,217.574,198.688 M139.753,90.299
	c-2.988,2.034-4.953,5.464-4.953,9.349c0,6.246,5.063,11.302,11.303,11.302c3.886,0,7.316-1.962,9.352-4.952
	c-1.812,1.232-3.998,1.952-6.352,1.952c-6.239,0-11.303-5.056-11.303-11.302C137.802,94.295,138.522,92.109,139.753,90.299
	 M94.547,90.299c-2.989,2.034-4.953,5.464-4.953,9.349c0,6.246,5.063,11.302,11.302,11.302c3.887,0,7.317-1.962,9.352-4.952
	c-1.811,1.232-3.998,1.952-6.352,1.952c-6.238,0-11.302-5.056-11.302-11.302C92.595,94.295,93.315,92.109,94.547,90.299
	 M49.34,90.299c-2.989,2.034-4.953,5.464-4.953,9.349c0,6.246,5.063,11.302,11.302,11.302c3.887,0,7.317-1.962,9.351-4.952
	c-1.811,1.232-3.997,1.952-6.351,1.952c-6.239,0-11.302-5.056-11.302-11.302C47.388,94.295,48.108,92.109,49.34,90.299
	 M209.763,81.851c0.145,2.163,0.384,4.302,0.384,6.495c0,4.792-0.459,9.486-1.138,14.12c10.141,11.875,16.207,26.499,16.207,42.39
	c0,16.426-6.422,31.548-17.209,43.617c0.533-0.477,1.057-0.959,1.572-1.447c11.646-12.313,18.635-28.031,18.635-45.17
	c0-15.891-6.064-30.515-16.207-42.39c0.679-4.634,1.139-9.328,1.139-14.12c0-0.182-0.002-0.363-0.005-0.544
	C212.042,83.794,210.916,82.811,209.763,81.851 M32.438,40.787C16.458,56.041,6.715,76.377,6.715,98.706
	c0,27.418,10.45,50.7,30.138,67.465v42.729l42.465-24.586c5.862,0.949,19.175,1.982,25.346,1.982c27.75,0,50.821-10.594,66.712-27.3
	c-15.734,14.966-37.66,24.3-63.712,24.3c-6.171,0-19.484-1.033-25.346-1.982l-42.465,24.586v-42.729
	C20.165,146.406,9.715,123.124,9.715,95.706C9.715,74.81,18.247,55.661,32.438,40.787 M107.664,25.069
	c-24.729,0-46.349,8.844-61.303,22.974c-0.484,0.512-0.96,1.031-1.427,1.555c14.877-13.283,35.857-21.529,59.73-21.529
	c37.468,0,75.345,32.045,75.345,71.579c0,18.097-6.195,34.624-17.307,47.226c0.532-0.47,1.055-0.945,1.571-1.431
	c12.005-12.784,18.733-29.938,18.733-48.795C183.009,57.114,145.132,25.069,107.664,25.069"/>
<path fill="#FF00FF" d="M187.544,221.503v5l3,2v-5L187.544,221.503 M208.613,206.231c-0.982,0.729-1.984,1.443-3,2.139v0.861
	c1.02-0.756,2.018-1.528,3-2.319V206.231 M209.582,187.025c-0.518,0.489-1.041,0.971-1.572,1.446
	c-0.469,0.524-0.944,1.043-1.428,1.554C207.612,189.05,208.612,188.05,209.582,187.025 M164.275,145.443
	c-0.516,0.485-1.04,0.961-1.572,1.431c-0.466,0.529-0.943,1.053-1.427,1.568C162.31,147.472,163.309,146.472,164.275,145.443
	 M46.361,48.043c-1.032,0.975-2.033,1.976-3,3c0.518-0.489,1.039-0.968,1.573-1.444C45.401,49.074,45.877,48.555,46.361,48.043"/>
<path fill="#FFFF00" d="M89.772,201.306c-1.31,0.039-2.625,0.06-3.945,0.06c-0.796,0-1.589-0.017-2.378-0.041
	c16.868,15.595,34.762,25.296,61.886,25.296c6.172,0,12.191-0.559,18.045-1.516l39.231,24.156v-4.848l-36.231-22.309
	c-5.854,0.957-11.875,1.516-18.045,1.516C122.984,223.619,105.695,215.146,89.772,201.306 M193.544,201.081
	c-0.982,0.668-1.982,1.316-3,1.946v20.475l3,2V201.081 M219.013,197.144c-3.238,2.951-6.713,5.701-10.4,8.227v0.861
	c3.166-2.35,6.157-4.868,8.961-7.543C218.059,198.179,218.539,197.663,219.013,197.144 M141.695,89.239
	c-0.684,0.291-1.333,0.646-1.939,1.06c-1.232,1.81-1.953,3.996-1.953,6.349c0,6.246,5.063,11.302,11.302,11.302
	c2.354,0,4.541-0.72,6.351-1.952c0.414-0.607,0.77-1.257,1.06-1.941c-1.354,0.575-2.847,0.893-4.41,0.893
	c-6.239,0-11.302-5.056-11.302-11.302C140.802,92.084,141.121,90.594,141.695,89.239 M96.488,89.239
	c-0.684,0.291-1.333,0.646-1.94,1.06c-1.232,1.81-1.953,3.996-1.953,6.349c0,6.246,5.063,11.302,11.302,11.302
	c2.354,0,4.541-0.72,6.352-1.952c0.413-0.607,0.769-1.257,1.059-1.941c-1.355,0.575-2.846,0.893-4.41,0.893
	c-6.238,0-11.302-5.056-11.302-11.302C95.595,92.084,95.913,90.594,96.488,89.239 M51.281,89.239
	c-0.684,0.291-1.333,0.646-1.94,1.06c-1.232,1.81-1.953,3.996-1.953,6.349c0,6.246,5.063,11.302,11.302,11.302
	c2.354,0,4.541-0.72,6.351-1.952c0.413-0.607,0.769-1.257,1.059-1.941c-1.355,0.575-2.845,0.893-4.41,0.893
	c-6.239,0-11.302-5.056-11.302-11.302C50.388,92.084,50.706,90.594,51.281,89.239 M213.142,84.802
	c0.003,0.181,0.005,0.362,0.005,0.544c0,4.792-0.459,9.486-1.138,14.12c10.141,11.875,16.207,26.499,16.207,42.39
	c0,17.139-6.991,32.855-18.635,45.17c13.434-12.709,21.635-29.606,21.635-48.171c0-15.89-6.065-30.514-16.207-42.389
	c0.433-2.957,0.775-5.938,0.969-8.954C215.055,86.592,214.108,85.687,213.142,84.802 M33.998,39.333
	c-0.527,0.48-1.044,0.963-1.559,1.454C18.247,55.661,9.715,74.81,9.715,95.706c0,27.418,10.45,50.7,30.138,67.465v42.729
	l42.465-24.586c5.862,0.949,19.175,1.982,25.346,1.982c26.052,0,47.978-9.334,63.712-24.3c0.49-0.515,0.968-1.031,1.443-1.558
	c-15.609,14.121-36.953,22.857-62.156,22.857c-6.171,0-19.484-1.033-25.346-1.982l-42.465,24.586v-42.729
	c-19.688-16.765-30.138-40.047-30.138-67.465C12.715,72.527,20.671,53.976,33.998,39.333 M110.664,22.069
	c-26.436,0-49.319,10.107-64.303,25.974c14.954-14.13,36.573-22.974,61.303-22.974c37.468,0,75.345,32.045,75.345,71.579
	c0,18.857-6.729,36.011-18.734,48.795c13.879-13.035,21.734-31.42,21.734-51.795C186.009,54.114,148.132,22.069,110.664,22.069"/>
<path fill="#CCCCCC" d="M55.689,88.346c-1.564,0-3.054,0.318-4.409,0.893c-0.575,1.355-0.893,2.845-0.893,4.409
	c0,6.246,5.063,11.302,11.302,11.302c1.564,0,3.055-0.318,4.41-0.893c0.574-1.354,0.892-2.845,0.892-4.409
	C66.991,93.409,61.928,88.346,55.689,88.346 M100.896,88.346c-1.563,0-3.054,0.318-4.409,0.893
	c-0.575,1.355-0.893,2.845-0.893,4.409c0,6.246,5.063,11.302,11.302,11.302c1.564,0,3.055-0.318,4.41-0.893
	c0.574-1.354,0.892-2.845,0.892-4.409C112.199,93.409,107.135,88.346,100.896,88.346 M146.104,88.346
	c-1.563,0-3.054,0.318-4.409,0.893c-0.574,1.355-0.893,2.845-0.893,4.409c0,6.246,5.063,11.302,11.302,11.302
	c1.563,0,3.056-0.318,4.41-0.893c0.573-1.354,0.892-2.845,0.892-4.409C157.406,93.409,152.341,88.346,146.104,88.346
	 M215.978,87.512c-0.191,3.016-0.536,5.997-0.969,8.954c10.141,11.875,16.207,26.499,16.207,42.389
	c0,18.564-8.202,35.462-21.635,48.171c-0.969,1.023-1.97,2.025-3,3c-3.863,4.084-8.235,7.793-13.037,11.056v24.421l-3-2v5l-3-2v5
	l-25.715-17.141c-6.262,1.304-12.764,2.072-19.492,2.072c-19.514,0-29.882-5.862-44.046-15.611
	c-2.817,0.227-5.656,0.396-8.518,0.482c15.923,13.84,33.211,22.313,58.564,22.313c6.17,0,12.19-0.558,18.045-1.515l36.23,22.308
	V211.37c1.016-0.695,2.018-1.41,3-2.139v-0.861c1.016-0.695,2.018-1.41,3-2.139v-0.861c3.688-2.525,7.162-5.275,10.4-8.227
	c13.304-14.612,21.271-33.096,21.271-53.238C240.285,122.286,231.089,102.583,215.978,87.512 M46.361,48.043
	c14.984-15.867,37.868-25.974,64.303-25.974c37.468,0,75.345,32.045,75.345,71.579c0,20.375-7.855,38.761-21.734,51.795
	c-0.966,1.028-1.965,2.028-3,2.999c-13.164,14.018-32.672,22.783-56.611,22.783c-6.729,0-20.765-0.769-27.026-2.071l-25.715,17.141
	v-26.702c-18.377-14.91-30.138-34.833-30.138-59.945c0-18.763,8.069-35.841,21.577-48.605
	C44.329,50.018,45.329,49.017,46.361,48.043 M104.664,13C76.87,13,51.81,23.103,33.997,39.333
	C20.671,53.976,12.715,72.527,12.715,92.706c0,27.418,10.45,50.7,30.138,67.465v42.729l42.465-24.586
	c5.862,0.949,19.175,1.982,25.346,1.982c25.203,0,46.546-8.736,62.156-22.857c14.189-15.689,22.258-36.426,22.258-58.731
	C195.078,51.374,149.699,13,104.664,13"/>
</svg>
