<?xml version="1.0" encoding="utf-8"?>
<!-- Generator: Adobe Illustrator 16.0.0, SVG Export Plug-In . SVG Version: 6.00 Build 0)  -->
<!DOCTYPE svg PUBLIC "-//W3C//DTD SVG 1.1//EN" "http://www.w3.org/Graphics/SVG/1.1/DTD/svg11.dtd">
<svg version="1.1" xmlns="http://www.w3.org/2000/svg" xmlns:xlink="http://www.w3.org/1999/xlink" x="0px" y="0px"
	 width="252.232px" height="252.26px" viewBox="0 0 252.232 252.26" enable-background="new 0 0 252.232 252.26"
	 xml:space="preserve">
<g id="Layer_2">
</g>
<g id="Layer_2_copy">
</g>
<g id="Layer_2_copy_2">
	<path fill="#FF0000" d="M166.964,168.335c-17.328,16.852-41.422,28.165-71.711,28.165c-18.919,0-36.639-5.087-51.917-13.935
		c-2.037-0.073-4.054-0.229-6.046-0.468c16.16,10.363,35.349,16.402,55.963,16.402C124.722,198.5,149.509,186.282,166.964,168.335
		 M57.235,141.631c4.499,14.033,17.271,24.375,32.568,25.292c0.978-0.631,1.939-1.283,2.884-1.958
		c-14.782-0.531-27.339-9.856-32.574-22.898C59.142,141.959,58.183,141.814,57.235,141.631 M44.44,104.751
		c-0.004,0.151-0.004,0.307-0.004,0.461c0,14.531,8.496,27.083,20.792,32.96c0.948,0.075,1.907,0.113,2.877,0.113
		c1.339,0,2.661-0.072,3.963-0.213c-14.052-4.385-24.463-17.031-25.54-32.249C45.819,105.489,45.123,105.13,44.44,104.751
		 M206.999,81.243c-1.894,1.822-3.883,3.542-5.96,5.151c0.005,0.127,0.01,0.254,0.015,0.382
		C203.135,85.044,205.12,83.195,206.999,81.243 M202.341,70.206c-0.916,0.848-1.876,1.65-2.875,2.402
		c0.171-0.023,0.343-0.047,0.514-0.071C200.802,71.796,201.59,71.018,202.341,70.206 M135.697,63.605
		c-7.204,6.668-11.713,16.206-11.713,26.797c0,1.342,0.071,2.667,0.21,3.973c0.766,0.073,1.531,0.138,2.303,0.195
		c-0.34-2.006-0.513-4.067-0.513-6.167C125.984,78.828,129.668,70.116,135.697,63.605 M49.678,60.577
		c-3.143,5.389-4.942,11.66-4.942,18.357c0,9.338,3.503,17.866,9.27,24.325c1.794,0.634,3.653,1.132,5.563,1.482
		c-7.855-6.697-12.833-16.676-12.833-27.807c0-5.608,1.262-10.917,3.517-15.659C50.061,61.044,49.868,60.81,49.678,60.577"/>
	<path fill="#00FF00" d="M39.29,180.098c1.329,0.853,2.678,1.675,4.046,2.468c0.884,0.031,1.772,0.047,2.663,0.047
		c0.982,0,1.962-0.02,2.935-0.058c-1.213-0.64-2.413-1.304-3.598-1.99C43.299,180.492,41.282,180.336,39.29,180.098
		 M168.965,166.335c-0.338,0.328-0.677,0.652-1.02,0.977c-0.324,0.344-0.651,0.685-0.981,1.023
		C167.639,167.678,168.309,167.008,168.965,166.335 M59.235,139.631c0.265,0.825,0.558,1.638,0.878,2.436
		c0.979,0.108,1.969,0.178,2.971,0.205c-0.347-0.722-0.671-1.457-0.972-2.205C61.142,139.959,60.183,139.814,59.235,139.631
		 M46.44,102.751c-0.004,0.151-0.004,0.307-0.004,0.461c0,0.878,0.031,1.749,0.092,2.612c0.766,0.363,1.545,0.7,2.339,1.011
		c-0.153-0.99-0.267-1.996-0.338-3.011C47.819,103.489,47.123,103.13,46.44,102.751 M209,79.242c-0.34,0.327-0.683,0.65-1.028,0.971
		c-0.321,0.347-0.646,0.69-0.973,1.03C207.678,80.589,208.345,79.922,209,79.242 M204.342,68.206
		c-0.347,0.321-0.699,0.635-1.059,0.942c-0.308,0.359-0.621,0.711-0.942,1.058C203.033,69.566,203.7,68.899,204.342,68.206
		 M137.693,61.609c-0.69,0.639-1.357,1.306-1.996,1.997c0.346-0.32,0.697-0.634,1.056-0.94
		C137.059,62.307,137.374,61.954,137.693,61.609 M51.678,58.577c-0.511,0.877-0.987,1.777-1.425,2.699
		c0.254,0.307,0.509,0.61,0.767,0.914c0.37-0.993,0.781-1.965,1.233-2.914C52.06,59.044,51.868,58.81,51.678,58.577"/>
	<path fill="#FFFF00" d="M167.945,167.312c-17.25,16.31-40.994,27.188-70.692,27.188c-17.453,0-33.883-4.329-48.319-11.945
		c-0.973,0.038-1.952,0.058-2.935,0.058c-0.891,0-1.779-0.016-2.663-0.047c15.278,8.848,32.998,13.935,51.917,13.935
		c30.289,0,54.383-11.313,71.711-28.165C167.294,167.996,167.621,167.656,167.945,167.312 M60.113,142.067
		c5.235,13.042,17.792,22.367,32.574,22.898c0.899-0.642,1.782-1.303,2.65-1.982c-14.213-0.261-26.454-8.649-32.253-20.711
		C62.082,142.244,61.092,142.175,60.113,142.067 M46.528,105.824c1.077,15.218,11.488,27.864,25.54,32.249
		c1.936-0.209,3.826-0.568,5.657-1.064c-14.897-2.994-26.52-15.054-28.858-30.174C48.073,106.525,47.293,106.187,46.528,105.824
		 M207.971,80.213c-2.199,2.037-4.521,3.939-6.953,5.691c0.007,0.164,0.015,0.327,0.021,0.49c2.077-1.608,4.066-3.329,5.96-5.151
		C207.326,80.903,207.65,80.56,207.971,80.213 M203.283,69.149c-1.563,1.339-3.242,2.549-5.018,3.612
		c0.401-0.048,0.801-0.099,1.2-0.153c0.999-0.751,1.959-1.554,2.875-2.402C202.662,69.86,202.975,69.508,203.283,69.149
		 M136.753,62.665c-0.358,0.307-0.71,0.621-1.056,0.94c-6.029,6.511-9.713,15.223-9.713,24.797c0,2.101,0.173,4.161,0.513,6.167
		c0.808,0.059,1.619,0.109,2.433,0.15c-0.625-2.675-0.946-5.459-0.946-8.318C127.983,77.339,131.286,69.047,136.753,62.665
		 M50.253,61.276c-2.255,4.742-3.517,10.051-3.517,15.659c0,11.131,4.977,21.11,12.833,27.807c1.763,0.323,3.569,0.519,5.408,0.578
		c-9.796-6.544-16.241-17.72-16.241-30.385c0-4.485,0.807-8.779,2.284-12.745C50.762,61.886,50.507,61.582,50.253,61.276"/>
	<path fill="#0000FF" d="M89.803,166.923c-11.475,7.396-25.137,11.689-39.804,11.689c-2.945,0-5.853-0.173-8.709-0.515
		c1.329,0.853,2.677,1.675,4.046,2.467c0.884,0.032,1.772,0.048,2.663,0.048c15.917,0,30.651-5.056,42.689-13.647
		C90.393,166.954,90.096,166.941,89.803,166.923 M61.235,137.631c0.265,0.825,0.558,1.638,0.878,2.436
		c1.31,0.145,2.64,0.22,3.992,0.22c1.339,0,2.661-0.072,3.962-0.213c-1.667-0.521-3.284-1.157-4.84-1.9
		C63.875,138.066,62.545,137.883,61.235,137.631 M48.44,100.751c-0.004,0.151-0.004,0.307-0.004,0.461
		c0,0.878,0.031,1.749,0.092,2.612c2.832,1.343,5.866,2.336,9.041,2.917c-1.265-1.078-2.456-2.242-3.563-3.482
		C52.071,102.575,50.21,101.734,48.44,100.751 M201.053,86.776c-0.662,0.551-1.333,1.091-2.015,1.618
		c0.057,1.407,0.083,2.82,0.083,4.238c0,25.635-10.365,53.353-30.157,73.703c21.09-20.51,32.157-49.22,32.157-75.703
		C201.122,89.343,201.099,88.056,201.053,86.776 M219.231,67.013c-6.031,2.683-12.49,4.56-19.252,5.524
		c-0.806,0.727-1.646,1.418-2.514,2.072c6.948-0.942,13.582-2.846,19.766-5.596l0,0l0,0c-2.436,3.646-5.194,7.074-8.231,10.229
		C212.834,75.552,216.272,71.445,219.231,67.013 M53.678,56.577c-0.511,0.877-0.987,1.777-1.425,2.699
		c17.515,21.109,43.216,35.161,72.244,37.294c-0.123-0.725-0.224-1.457-0.303-2.195C95.796,91.655,70.743,77.509,53.678,56.577
		 M164.485,49.896c-10.589,0-20.124,4.509-26.792,11.712c6.51-6.028,15.221-9.712,24.792-9.712c10.501,0,19.99,4.436,26.646,11.529
		c8.321-1.64,16.131-4.677,23.182-8.864c-1.643,5.14-4.395,9.78-7.972,13.645c4.556-4.218,8.034-9.584,9.972-15.645
		c-7.051,4.187-14.86,7.224-23.182,8.864C184.475,54.332,174.986,49.896,164.485,49.896"/>
	<path fill="#FF00FF" d="M92.687,164.965c-0.945,0.675-1.907,1.327-2.884,1.958c0.293,0.018,0.59,0.031,0.885,0.042
		c0.898-0.642,1.782-1.303,2.65-1.982C93.12,164.979,92.904,164.973,92.687,164.965 M72.068,138.073
		c-1.302,0.141-2.624,0.213-3.963,0.213c-0.971,0-1.929-0.038-2.877-0.113c1.556,0.743,3.172,1.38,4.84,1.9
		c1.936-0.209,3.826-0.568,5.657-1.064C74.482,138.759,73.261,138.447,72.068,138.073 M54.006,103.26
		c1.107,1.24,2.298,2.404,3.563,3.482c1.763,0.323,3.568,0.519,5.408,0.578c-1.187-0.793-2.325-1.654-3.408-2.578
		C57.659,104.392,55.801,103.893,54.006,103.26 M124.194,94.375c0.079,0.738,0.18,1.47,0.303,2.195
		c0.808,0.059,1.62,0.109,2.433,0.15c-0.166-0.709-0.311-1.426-0.433-2.15C125.725,94.513,124.96,94.448,124.194,94.375
		 M201.039,86.394c-0.665,0.515-1.338,1.018-2.021,1.51c0.008,0.163,0.015,0.327,0.021,0.49c0.682-0.527,1.353-1.067,2.015-1.618
		C201.049,86.649,201.044,86.522,201.039,86.394 M199.979,72.537c-0.171,0.024-0.343,0.048-0.514,0.071
		c-1.026,0.772-2.094,1.491-3.2,2.153c0.401-0.048,0.801-0.099,1.2-0.152C198.334,73.955,199.174,73.263,199.979,72.537"/>
	<path fill="#00FFFF" d="M90.688,166.965c-12.038,8.592-26.772,13.647-42.689,13.647c-0.891,0-1.779-0.016-2.663-0.048
		c1.185,0.687,2.384,1.351,3.598,1.99c15.969-0.626,30.627-6.344,42.404-15.572C91.12,166.979,90.904,166.973,90.688,166.965
		 M62.113,140.067c0.3,0.748,0.625,1.483,0.972,2.205c0.339,0.01,0.679,0.015,1.021,0.015c3.331,0,6.558-0.447,9.62-1.277
		c-1.243-0.25-2.463-0.563-3.657-0.936c-1.301,0.141-2.624,0.213-3.962,0.213C64.752,140.286,63.422,140.211,62.113,140.067
		 M48.528,103.824c0.072,1.015,0.185,2.021,0.338,3.011c3.773,1.477,7.853,2.348,12.11,2.484c-1.187-0.793-2.325-1.654-3.408-2.578
		C54.394,106.16,51.36,105.167,48.528,103.824 M199.039,88.394c-0.665,0.515-1.338,1.018-2.021,1.51
		c0.07,1.568,0.104,3.146,0.104,4.728c0,25.208-10.023,52.43-29.177,72.68c0.343-0.324,0.682-0.648,1.02-0.977
		c19.792-20.351,30.157-48.068,30.157-73.703C199.122,91.215,199.095,89.801,199.039,88.394 M217.231,69.013
		c-6.184,2.75-12.817,4.654-19.766,5.596c-1.026,0.771-2.094,1.49-3.2,2.152c7.386-0.878,14.427-2.84,20.966-5.748l0,0l0,0
		c-2.173,3.254-4.604,6.333-7.26,9.2c0.346-0.32,0.688-0.644,1.028-0.971C212.037,76.087,214.796,72.659,217.231,69.013
		 M52.253,59.276c-0.452,0.949-0.863,1.921-1.233,2.914c17.988,21.182,44.311,35.045,73.91,36.531
		c-0.166-0.709-0.31-1.426-0.433-2.15C95.469,94.436,69.768,80.385,52.253,59.276 M162.485,51.896
		c-9.571,0-18.282,3.684-24.792,9.712c-0.319,0.346-0.634,0.698-0.94,1.056c6.381-5.466,14.672-8.769,23.732-8.769
		c10.501,0,19.99,4.436,26.646,11.529c8.321-1.64,16.131-4.677,23.182-8.864c-1.496,4.679-3.91,8.945-7.03,12.587
		c0.359-0.308,0.712-0.622,1.059-0.942c3.577-3.865,6.329-8.505,7.972-13.645c-7.051,4.187-14.86,7.224-23.182,8.864
		C182.475,56.332,172.986,51.896,162.485,51.896"/>
	<path fill="#CCCCCC" d="M160.485,53.896c-9.061,0-17.352,3.302-23.732,8.769c-5.467,6.382-8.77,14.674-8.77,23.738
		c0,2.858,0.321,5.643,0.946,8.318c-0.813-0.041-1.625-0.091-2.433-0.15c0.122,0.724,0.267,1.441,0.433,2.15
		c-0.813-0.041-1.625-0.091-2.433-0.15c0.123,0.724,0.267,1.441,0.433,2.15C95.331,97.235,69.008,83.371,51.02,62.19
		c-1.477,3.966-2.284,8.259-2.284,12.745c0,12.665,6.445,23.84,16.241,30.385c-1.839-0.059-3.646-0.254-5.408-0.578
		c1.083,0.923,2.221,1.785,3.408,2.578c-1.839-0.059-3.645-0.254-5.408-0.578c1.083,0.923,2.221,1.785,3.408,2.578
		c-4.257-0.136-8.337-1.007-12.11-2.484c2.338,15.12,13.961,27.18,28.858,30.174c-1.831,0.496-3.721,0.855-5.657,1.064
		c1.194,0.373,2.414,0.686,3.657,0.936c-1.831,0.496-3.721,0.855-5.657,1.064c1.194,0.373,2.415,0.686,3.657,0.936
		c-3.062,0.83-6.289,1.277-9.62,1.277c-0.341,0-0.682-0.005-1.021-0.015c5.8,12.062,18.041,20.45,32.253,20.711
		c-0.868,0.68-1.751,1.341-2.65,1.982c0.217,0.008,0.433,0.014,0.65,0.018c-0.868,0.68-1.751,1.341-2.65,1.982
		c0.216,0.008,0.433,0.014,0.65,0.018c-11.777,9.229-26.436,14.946-42.404,15.572C63.369,190.171,79.8,194.5,97.253,194.5
		c29.698,0,53.442-10.879,70.692-27.188c19.153-20.25,29.177-47.472,29.177-72.68c0-1.582-0.033-3.16-0.104-4.728
		c0.683-0.492,1.355-0.995,2.021-1.51c-0.006-0.164-0.013-0.327-0.021-0.49c0.683-0.492,1.355-0.995,2.021-1.51
		c-0.006-0.164-0.014-0.327-0.021-0.49c2.432-1.751,4.754-3.654,6.953-5.691c2.656-2.867,5.087-5.946,7.26-9.2
		c-6.539,2.908-13.58,4.87-20.966,5.748c1.106-0.662,2.174-1.381,3.2-2.152c-0.399,0.054-0.799,0.104-1.2,0.152
		c1.106-0.662,2.174-1.381,3.2-2.153c-0.399,0.054-0.799,0.105-1.2,0.153c1.775-1.063,3.454-2.273,5.018-3.612
		c3.12-3.643,5.534-7.908,7.03-12.587c-7.051,4.187-14.86,7.224-23.182,8.864C180.475,58.332,170.986,53.896,160.485,53.896"/>
</g>
</svg>
