<?xml version="1.0" encoding="utf-8"?>
<!-- Generator: Adobe Illustrator 16.0.0, SVG Export Plug-In . SVG Version: 6.00 Build 0)  -->
<!DOCTYPE svg PUBLIC "-//W3C//DTD SVG 1.1//EN" "http://www.w3.org/Graphics/SVG/1.1/DTD/svg11.dtd">
<svg version="1.1" id="Layer_1" xmlns="http://www.w3.org/2000/svg" xmlns:xlink="http://www.w3.org/1999/xlink" x="0px" y="0px"
	 width="252.232px" height="252.26px" viewBox="0 0 252.232 252.26" enable-background="new 0 0 252.232 252.26"
	 xml:space="preserve">
<g id="Layer_1_1_">
</g>
<g id="Layer_1_copy">
</g>
<path fill="#0000FF" d="M130.13,135.646v4.197l-1.898-2.086v49.219c8.357-3.682,36.131-14.865,65.316-14.865
	c11.054,0,21.104,1.636,29.975,4.885v-2.699c-8.371-2.785-17.744-4.186-27.975-4.186c-29.187,0-56.959,11.185-65.316,14.865v-49.22
	L130.13,135.646 M134.13,56.433c-0.672,0.5-1.34,1.013-2,1.535v75.677l2,2.197V56.433 M20.147,51.117
	c-3.177,0.966-5.439,2.276-6.496,4.007c1.569-1.066,3.779-1.902,6.496-2.543V51.117 M30.765,44.075c-0.727,0.206-1.396,0.404-2,0.59
	v133.061c8.7-3.494,18.925-5.268,30.463-5.268c27.221,0,54.4,9.626,64.815,13.768v-2.78c-11.601-4.456-37.189-12.986-62.815-12.986
	c-11.538,0-21.763,1.772-30.463,5.267V44.075 M191.546,29c-24.355,0-45.332,7.425-62.403,22.062C112.076,36.426,91.093,29,66.741,29
	c-22.74,0-39.78,6.618-40.492,6.903l-2.101,0.822v1.218l0.101-0.04C24.961,37.617,42.001,31,64.741,31
	c24.353,0,45.335,7.425,62.401,22.062C144.214,38.426,165.19,31,189.546,31c22.733,0,39.776,6.618,40.506,6.903l2.088,0.822v14.501
	c5.632,1.229,9.104,3.23,9.111,6.289c0,6.367,0,119.914,0,136.444h2c0,0,0-131.576,0-138.444c-0.008-3.059-3.479-5.059-9.111-6.289
	V36.725l-2.088-0.822C231.322,35.617,214.279,29,191.546,29"/>
<path fill="#0000FF" d="M66.698,56.057c-7.222,0-14.927,0.828-22.858,2.93l0.372,1.407c7.098-1.668,13.985-2.337,20.486-2.337
	c26.063,0,45.797,10.787,46.835,11.363l-1.29,2.321c0.428,0.218,0.662,0.346,0.688,0.36l2.602-4.681
	C112.495,66.843,92.761,56.057,66.698,56.057"/>
<path fill="#0000FF" d="M66.703,71.199c-7.224,0-14.93,0.828-22.863,2.931l0.372,1.407c7.101-1.668,13.989-2.338,20.491-2.338
	c26.061,0,45.792,10.784,46.83,11.371l-1.287,2.309c0.426,0.217,0.659,0.344,0.687,0.357l2.602-4.667
	C112.495,81.983,92.763,71.199,66.703,71.199"/>
<path fill="#0000FF" d="M66.69,85.439c-7.22,0-14.921,0.827-22.852,2.927l0.372,1.408c7.096-1.666,13.979-2.335,20.479-2.335
	c26.065,0,45.805,10.786,46.843,11.368l-1.288,2.314c0.427,0.217,0.66,0.345,0.688,0.359l2.602-4.673
	C112.495,96.224,92.756,85.439,66.69,85.439"/>
<path fill="#0000FF" d="M66.708,101.033c-7.225,0-14.935,0.829-22.868,2.934l0.372,1.407c7.101-1.669,13.993-2.341,20.496-2.341
	c26.061,0,45.787,10.789,46.825,11.381l-1.287,2.31c0.426,0.216,0.659,0.344,0.687,0.357l2.602-4.667
	C112.495,111.822,92.768,101.033,66.708,101.033"/>
<path fill="#0000FF" d="M66.68,115.494c-7.218,0-14.915,0.826-22.841,2.924l0.372,1.408c7.092-1.664,13.974-2.332,20.469-2.332
	c26.071,0,45.813,10.788,46.854,11.364l-1.291,2.326c0.429,0.218,0.663,0.347,0.689,0.361l2.602-4.688
	C112.494,126.281,92.752,115.494,66.68,115.494"/>
<path fill="#0000FF" d="M66.697,130.34c-7.222,0-14.926,0.827-22.857,2.929l0.372,1.408c7.098-1.668,13.984-2.337,20.485-2.337
	c26.063,0,45.798,10.781,46.836,11.369l-1.287,2.31c0.426,0.217,0.659,0.344,0.687,0.357l2.602-4.667
	C112.495,141.121,92.76,130.34,66.697,130.34"/>
<path fill="#0000FF" d="M66.708,145.228c-7.225,0-14.935,0.83-22.868,2.935l0.372,1.407c7.101-1.67,13.993-2.34,20.496-2.34
	c26.061,0,45.787,10.787,46.825,11.379l-1.285,2.303c0.425,0.216,0.658,0.343,0.685,0.357l2.602-4.66
	C112.495,156.017,92.768,145.228,66.708,145.228"/>
<path fill="#0000FF" d="M193.182,56.453c-26.072,0-45.806,10.792-46.847,11.374l0.424,0.76c6.146-2.969,23.181-10.133,44.423-10.133
	c7.217,0,14.921,0.827,22.848,2.926l-0.748,2.822c0.459,0.113,0.916,0.229,1.376,0.352l1.372-5.174
	C208.103,57.28,200.398,56.453,193.182,56.453"/>
<path fill="#0000FF" d="M193.164,71.599c-26.063,0-45.787,10.784-46.828,11.372l0.422,0.758c6.143-2.97,23.172-10.129,44.407-10.129
	c7.223,0,14.932,0.828,22.864,2.931l-0.749,2.829c0.459,0.113,0.917,0.229,1.377,0.353l1.372-5.182
	C208.096,72.427,200.387,71.599,193.164,71.599"/>
<path fill="#0000FF" d="M193.188,85.829c-26.075,0-45.813,10.789-46.854,11.371l0.423,0.76c6.146-2.968,23.183-10.131,44.431-10.131
	c7.215,0,14.917,0.826,22.841,2.923l-0.749,2.823c0.459,0.113,0.917,0.229,1.377,0.352l1.372-5.174
	C208.105,86.655,200.403,85.829,193.188,85.829"/>
<path fill="#0000FF" d="M193.158,101.434c-26.061,0-45.781,10.787-46.822,11.374l0.422,0.757
	c6.143-2.971,23.166-10.131,44.399-10.131c7.225,0,14.937,0.829,22.872,2.934l-0.748,2.822c0.459,0.113,0.916,0.229,1.376,0.352
	l1.372-5.174C208.094,102.263,200.382,101.434,193.158,101.434"/>
<path fill="#0000FF" d="M193.181,115.894c-26.072,0-45.805,10.783-46.846,11.365l0.423,0.76
	c6.145-2.965,23.178-10.125,44.423-10.125c7.217,0,14.922,0.827,22.849,2.924l-0.749,2.83c0.459,0.113,0.917,0.229,1.377,0.352
	l1.372-5.181C208.103,116.72,200.398,115.894,193.181,115.894"/>
<path fill="#0000FF" d="M193.175,130.741c-26.068,0-45.798,10.785-46.839,11.367l0.424,0.76
	c6.146-2.967,23.177-10.127,44.415-10.127c7.22,0,14.927,0.827,22.854,2.927l-0.748,2.823c0.458,0.113,0.916,0.229,1.376,0.352
	l1.372-5.174C208.101,131.569,200.394,130.741,193.175,130.741"/>
<path fill="#0000FF" d="M193.182,145.621c-26.072,0-45.806,10.792-46.847,11.374l0.424,0.759
	c6.146-2.969,23.18-10.133,44.423-10.133c7.217,0,14.921,0.827,22.848,2.927l-0.748,2.822c0.459,0.113,0.916,0.23,1.376,0.352
	l1.372-5.174C208.103,146.448,200.398,145.621,193.182,145.621"/>
<path fill="#00FF00" d="M241.251,195.958h-2c0,0.771,0,1.441,0,2h2C241.251,197.958,241.251,197.259,241.251,195.958
	 M124.044,135.567l-1.881,2.074v0.207l1.881-2.074V135.567 M126.23,135.56v48.742c0.682,0.271,1.287,0.519,1.813,0.736v-47.486
	L126.23,135.56 M130.23,131.56v4.196l1.898,2.085v-4.195L130.23,131.56 M13.652,55.124c-0.873,0.593-1.547,1.258-2,2
	c0.448-0.305,0.949-0.59,1.499-0.858C13.263,55.867,13.431,55.486,13.652,55.124 M24.147,37.943l-2,0.782v1.217l0.101-0.039
	c0.128-0.051,0.781-0.307,1.899-0.691V37.943"/>
<path fill="#00FFFF" d="M128.044,137.552v47.485c-0.525-0.218-1.132-0.465-1.813-0.737v4.674
	c8.357-3.682,36.131-14.865,65.316-14.865c11.893,0,22.625,1.894,31.975,5.652v-2.768c-8.869-3.249-18.921-4.885-29.975-4.885
	c-29.187,0-56.959,11.185-65.316,14.865v-49.218L128.044,137.552 M132.13,57.968c-0.673,0.533-1.34,1.076-2,1.631v76.046
	l0.102,0.109v-4.195l1.898,2.084V57.968 M20.147,52.581c-2.717,0.641-4.927,1.477-6.496,2.543c-0.221,0.362-0.389,0.743-0.501,1.142
	c1.827-0.89,4.197-1.582,6.997-2.105V52.581 M28.765,44.666c-0.771,0.236-1.438,0.452-2,0.641v134.418
	c8.7-3.494,18.925-5.267,30.463-5.267c29.201,0,58.354,11.077,66.815,14.579v-2.811c-10.415-4.143-37.596-13.769-64.815-13.769
	c-11.538,0-21.763,1.772-30.463,5.267V44.666 M189.546,31c-24.355,0-45.332,7.425-62.403,22.062C110.076,38.426,89.093,31,64.741,31
	c-22.74,0-39.78,6.618-40.492,6.903l-0.101,0.04v1.27c5.11-1.757,19.934-6.212,38.593-6.212c24.354,0,45.335,7.425,62.401,22.062
	c17.071-14.636,38.048-22.062,62.403-22.062c22.733,0,39.776,6.618,40.506,6.903l2.088,0.822v14.501
	c5.632,1.229,9.104,3.23,9.111,6.289c0,6.152,0,112.365,0,134.444h2c0-16.529,0-130.077,0-136.444
	c-0.008-3.059-3.479-5.059-9.111-6.289V38.726l-2.088-0.822C229.322,37.617,212.279,31,189.546,31"/>
<path fill="#00FF00" d="M108.906,71.083c0.33,0.173,0.542,0.29,0.627,0.337l-1.29,2.321c0.428,0.218,0.662,0.346,0.688,0.36
	l1.312-2.36C109.911,71.572,109.464,71.349,108.906,71.083 M44.212,60.394c-0.787,0.185-1.58,0.383-2.372,0.593l0.372,1.407
	c0.802-0.188,1.596-0.363,2.391-0.526L44.212,60.394"/>
<path fill="#00FFFF" d="M64.698,58.057c-6.501,0-13.39,0.669-20.486,2.337l0.391,1.474c6.254-1.284,12.329-1.812,18.097-1.812
	c23.923,0,42.515,9.088,46.208,11.026c0.558,0.266,1.005,0.489,1.337,0.658l1.29-2.321C110.495,68.843,90.761,58.057,64.698,58.057"
	/>
<path fill="#00FF00" d="M108.715,86.131c0.44,0.23,0.719,0.383,0.818,0.44l-1.287,2.31c0.426,0.216,0.659,0.343,0.687,0.357
	l1.313-2.357C109.877,86.692,109.363,86.437,108.715,86.131 M44.212,75.538c-0.787,0.185-1.58,0.383-2.372,0.593l0.372,1.407
	c0.802-0.188,1.596-0.363,2.391-0.526L44.212,75.538"/>
<path fill="#00FFFF" d="M64.703,73.199c-6.502,0-13.392,0.67-20.491,2.338l0.391,1.474c6.256-1.284,12.333-1.813,18.102-1.813
	c23.533,0,41.905,8.793,46.012,10.931c0.648,0.307,1.162,0.562,1.531,0.749l1.287-2.309C110.495,83.983,90.763,73.199,64.703,73.199
	"/>
<path fill="#00FF00" d="M108.793,100.409c0.396,0.207,0.646,0.344,0.74,0.397l-1.288,2.314c0.427,0.217,0.66,0.345,0.688,0.359
	l1.313-2.359C109.891,100.941,109.403,100.699,108.793,100.409 M44.212,89.774c-0.787,0.185-1.58,0.382-2.372,0.592l0.372,1.408
	c0.802-0.188,1.596-0.362,2.391-0.525L44.212,89.774"/>
<path fill="#00FFFF" d="M64.69,87.439c-6.499,0-13.384,0.669-20.479,2.335l0.391,1.475c6.252-1.282,12.322-1.81,18.09-1.81
	c23.689,0,42.155,8.91,46.102,10.971c0.61,0.29,1.099,0.532,1.452,0.712l1.288-2.314C110.495,98.224,90.757,87.439,64.69,87.439"/>
<path fill="#00FF00" d="M108.751,115.992c0.42,0.22,0.686,0.367,0.782,0.422l-1.287,2.31c0.426,0.216,0.659,0.343,0.687,0.357
	l1.313-2.357C109.884,116.54,109.382,116.291,108.751,115.992 M44.212,105.374c-0.787,0.185-1.58,0.383-2.372,0.593l0.372,1.407
	c0.802-0.188,1.596-0.363,2.391-0.526L44.212,105.374"/>
<path fill="#00FFFF" d="M64.708,103.033c-6.503,0-13.396,0.671-20.496,2.341l0.391,1.474c6.256-1.285,12.337-1.814,18.105-1.814
	c23.603,0,42.009,8.849,46.043,10.958c0.631,0.299,1.133,0.548,1.495,0.732l1.287-2.31
	C110.495,113.822,90.768,103.033,64.708,103.033"/>
<path fill="#00FF00" d="M109.004,130.572c0.274,0.146,0.453,0.243,0.529,0.286l-1.291,2.326c0.429,0.218,0.663,0.347,0.689,0.361
	l1.311-2.361C109.93,131.024,109.516,130.818,109.004,130.572 M44.212,119.826c-0.787,0.185-1.58,0.382-2.372,0.592l0.372,1.408
	c0.802-0.188,1.596-0.362,2.392-0.525L44.212,119.826"/>
<path fill="#00FFFF" d="M64.68,117.494c-6.495,0-13.377,0.668-20.469,2.332l0.392,1.475c6.247-1.28,12.314-1.806,18.077-1.806
	c24.148,0,42.869,9.255,46.323,11.078c0.513,0.246,0.927,0.451,1.238,0.611l1.291-2.326
	C110.494,128.281,90.752,117.494,64.68,117.494"/>
<path fill="#00FF00" d="M108.728,145.276c0.434,0.226,0.706,0.376,0.806,0.433l-1.287,2.31c0.426,0.218,0.659,0.344,0.687,0.357
	l1.313-2.357C109.879,145.832,109.369,145.579,108.728,145.276 M44.212,134.677c-0.787,0.185-1.58,0.381-2.372,0.592l0.372,1.408
	c0.802-0.188,1.596-0.363,2.391-0.527L44.212,134.677"/>
<path fill="#00FFFF" d="M64.697,132.34c-6.501,0-13.389,0.669-20.485,2.337l0.391,1.473c6.254-1.281,12.329-1.81,18.096-1.81
	c23.561,0,41.949,8.81,46.03,10.937c0.642,0.304,1.15,0.556,1.519,0.742l1.287-2.31C110.495,143.121,90.76,132.34,64.697,132.34"/>
<path fill="#00FF00" d="M108.562,160.088c0.53,0.274,0.858,0.457,0.972,0.521l-1.285,2.303c0.425,0.216,0.657,0.343,0.685,0.357
	l1.315-2.357C109.85,160.708,109.283,160.427,108.562,160.088 M44.212,149.569c-0.787,0.185-1.58,0.383-2.372,0.593l0.372,1.407
	c0.802-0.188,1.597-0.363,2.392-0.526L44.212,149.569"/>
<path fill="#00FFFF" d="M64.708,147.228c-6.503,0-13.396,0.672-20.496,2.341l0.392,1.474c6.256-1.285,12.336-1.814,18.104-1.814
	c23.25,0,41.46,8.588,45.854,10.86c0.722,0.339,1.288,0.62,1.687,0.823l1.285-2.303C110.495,158.015,90.768,147.228,64.708,147.228"
	/>
<path fill="#00FF00" d="M146.76,68.587c-1.396,0.675-2.229,1.132-2.424,1.24l0.424,0.759c0.69-0.333,1.521-0.721,2.478-1.145
	L146.76,68.587 M211.897,63.876l-0.616,2.327c0.458,0.113,0.916,0.229,1.376,0.352l0.624-2.352
	C212.819,64.089,212.357,63.98,211.897,63.876"/>
<path fill="#00FFFF" d="M191.182,58.454c-21.242,0-38.277,7.164-44.423,10.133l0.478,0.855c7.552-3.345,23.09-8.988,41.945-8.988
	c7.217,0,14.921,0.827,22.848,2.926l-0.132,0.496c0.46,0.104,0.922,0.213,1.384,0.327l0.748-2.822
	C206.103,59.28,198.398,58.454,191.182,58.454"/>
<path fill="#00FF00" d="M146.758,83.729c-1.396,0.675-2.229,1.133-2.422,1.242l0.422,0.758c0.69-0.334,1.521-0.721,2.477-1.145
	L146.758,83.729 M211.896,79.032l-0.616,2.327c0.459,0.113,0.917,0.23,1.377,0.353l0.623-2.353
	C212.819,79.246,212.355,79.136,211.896,79.032"/>
<path fill="#00FFFF" d="M191.165,73.599c-21.235,0-38.266,7.16-44.407,10.129l0.477,0.855c7.549-3.345,23.082-8.984,41.932-8.984
	c7.223,0,14.932,0.828,22.864,2.931l-0.133,0.502c0.459,0.104,0.923,0.214,1.384,0.327l0.749-2.829
	C206.096,74.427,198.387,73.599,191.165,73.599"/>
<path fill="#00FF00" d="M146.759,97.96c-1.396,0.674-2.229,1.132-2.423,1.24l0.423,0.76c0.691-0.333,1.521-0.72,2.478-1.144
	L146.759,97.96 M211.897,93.248l-0.617,2.327c0.459,0.113,0.917,0.229,1.377,0.352l0.623-2.352
	C212.819,93.462,212.357,93.352,211.897,93.248"/>
<path fill="#00FFFF" d="M191.188,87.829c-21.248,0-38.285,7.163-44.431,10.131l0.478,0.856c7.553-3.344,23.095-8.987,41.953-8.987
	c7.215,0,14.917,0.826,22.841,2.923l-0.132,0.496c0.46,0.104,0.922,0.213,1.383,0.327l0.749-2.823
	C206.105,88.655,198.403,87.829,191.188,87.829"/>
<path fill="#00FF00" d="M146.758,113.565c-1.396,0.675-2.229,1.134-2.422,1.243l0.422,0.757c0.691-0.334,1.521-0.721,2.478-1.146
	L146.758,113.565 M211.898,108.863l-0.617,2.327c0.459,0.113,0.916,0.229,1.376,0.352l0.624-2.352
	C212.82,109.076,212.357,108.967,211.898,108.863"/>
<path fill="#00FFFF" d="M191.157,103.434c-21.233,0-38.258,7.161-44.399,10.131l0.478,0.854c7.549-3.346,23.079-8.986,41.923-8.986
	c7.225,0,14.938,0.829,22.872,2.934l-0.131,0.495c0.459,0.104,0.922,0.213,1.383,0.327l0.748-2.822
	C206.094,104.263,198.382,103.434,191.157,103.434"/>
<path fill="#00FF00" d="M146.759,128.019c-1.396,0.675-2.229,1.131-2.423,1.24l0.423,0.76c0.69-0.334,1.52-0.72,2.477-1.144
	L146.759,128.019 M211.896,123.32l-0.616,2.327c0.459,0.113,0.917,0.229,1.377,0.352l0.623-2.352
	C212.819,123.534,212.355,123.424,211.896,123.32"/>
<path fill="#00FFFF" d="M191.181,117.894c-21.245,0-38.278,7.159-44.423,10.125l0.477,0.856c7.553-3.342,23.091-8.981,41.946-8.981
	c7.217,0,14.922,0.827,22.849,2.924l-0.133,0.502c0.459,0.104,0.923,0.214,1.384,0.327l0.749-2.83
	C206.103,118.72,198.397,117.894,191.181,117.894"/>
<path fill="#00FF00" d="M146.76,142.868c-1.396,0.675-2.229,1.132-2.424,1.24l0.424,0.76c0.691-0.334,1.521-0.721,2.478-1.145
	L146.76,142.868 M211.897,138.165l-0.617,2.327c0.459,0.112,0.917,0.229,1.377,0.353l0.624-2.353
	C212.819,138.378,212.357,138.269,211.897,138.165"/>
<path fill="#00FFFF" d="M191.175,132.741c-21.238,0-38.271,7.16-44.415,10.127l0.478,0.855c7.553-3.344,23.088-8.982,41.938-8.982
	c7.22,0,14.927,0.827,22.854,2.927l-0.132,0.496c0.46,0.104,0.922,0.213,1.384,0.327l0.748-2.823
	C206.101,133.569,198.394,132.741,191.175,132.741"/>
<path fill="#00FF00" d="M146.76,157.755c-1.396,0.676-2.229,1.133-2.424,1.241l0.424,0.759c0.691-0.334,1.521-0.721,2.479-1.145
	L146.76,157.755 M211.898,153.043l-0.617,2.327c0.459,0.113,0.916,0.23,1.376,0.352l0.624-2.352
	C212.82,153.256,212.357,153.147,211.898,153.043"/>
<path fill="#00FFFF" d="M191.182,147.621c-21.243,0-38.276,7.164-44.423,10.133l0.479,0.855c7.553-3.345,23.091-8.988,41.944-8.988
	c7.217,0,14.921,0.827,22.848,2.927l-0.131,0.495c0.459,0.104,0.922,0.214,1.383,0.327l0.748-2.822
	C206.103,148.448,198.398,147.621,191.182,147.621"/>
<path fill="#FF0000" d="M126.044,133.772l-1.881,2.076v-0.207l-0.119,0.131v47.673c0.723,0.276,1.391,0.538,2,0.78V133.772
	 M11.652,57.124c-1.722,1.17-2.671,2.618-2.671,4.39c0,19.582,0,138.444,0,138.444h101.97c3.527,3.151,8.688,5.153,14.455,5.153
	c5.773,0,10.927-2.001,14.45-5.153h99.395c0,0,0-0.699,0-2h-97.395c-3.523,3.151-8.677,5.153-14.45,5.153
	c-5.768,0-10.928-2.001-14.455-5.153H10.981c0,0,0-118.862,0-138.444C10.981,58.641,11.211,57.846,11.652,57.124 M22.147,39.942
	l-2,0.783v10.392c0.631-0.192,1.299-0.37,2-0.536V39.942 M64.74,37.603c-15.164,0-27.794,3.166-33.976,5.063v1.41
	c6.682-1.897,18.298-4.472,31.976-4.472c22.423,0,41.69,6.782,57.423,19.996v80.249l2-2.207V57.6
	C106.431,44.385,87.163,37.603,64.74,37.603 M189.546,37.603c-21.479,0-40.063,6.219-55.416,18.365v0.465
	c14.958-11.135,32.861-16.83,53.416-16.83c16.994,0,30.888,4.009,35.977,5.703v128.989c0.674,0.224,1.34,0.457,2,0.699V43.306
	C220.433,41.612,206.54,37.603,189.546,37.603"/>
<path fill="#FF00FF" d="M124.044,183.445v2.78c0.758,0.302,1.428,0.574,2,0.812v-2.812
	C125.434,183.983,124.766,183.724,124.044,183.445 M223.521,174.295v2.699c0.674,0.247,1.341,0.503,2,0.769v-2.769
	C224.861,174.752,224.195,174.519,223.521,174.295 M126.044,133.567l-1.881,2.074v0.207l1.881-2.076V133.567 M128.23,133.56v4.196
	l1.898,2.085v-4.195L128.23,133.56 M134.13,55.968c-0.673,0.533-1.34,1.076-2,1.631v0.369c0.66-0.522,1.328-1.035,2-1.535V55.968
	 M22.147,50.581c-0.701,0.166-1.369,0.344-2,0.536v1.464c0.64-0.151,1.307-0.291,2-0.42V50.581 M30.765,42.666
	c-0.771,0.236-1.438,0.453-2,0.641v1.359c0.604-0.186,1.273-0.384,2-0.59V42.666"/>
<path fill="#FFFF00" d="M128.044,131.567l-2,2.205v50.455c0.063,0.024,0.125,0.05,0.188,0.074V135.56l1.813,1.992V131.567
	 M13.15,56.266c-0.55,0.268-1.05,0.553-1.499,0.858c-0.44,0.722-0.671,1.517-0.671,2.39c0,19.582,0,138.444,0,138.444h101.97
	c3.527,3.151,8.688,5.153,14.455,5.153c5.773,0,10.927-2.001,14.45-5.153h97.395c0-0.559,0-1.229,0-2h-95.395
	c-3.523,3.151-8.677,5.153-14.45,5.153c-5.768,0-10.928-2.001-14.455-5.153H12.981c0,0,0-118.862,0-138.444
	C12.981,57.079,13.038,56.663,13.15,56.266 M24.147,39.212c-1.118,0.384-1.771,0.64-1.899,0.691l-0.101,0.039v10.639
	c0.64-0.151,1.307-0.291,2-0.42V39.212 M66.74,35.603c-17.051,0-30.897,4.002-35.976,5.703v1.359
	c6.182-1.897,18.812-5.063,33.976-5.063c22.423,0,41.69,6.782,57.423,19.996v80.042l1.881-2.074v0.207l0.119-0.131V55.598
	C108.431,42.385,89.163,35.603,66.74,35.603 M191.546,35.603c-22.42,0-41.687,6.775-57.416,19.996v0.369
	c15.354-12.146,33.938-18.365,55.416-18.365c16.994,0,30.888,4.009,35.977,5.703v131.688c0.674,0.247,1.341,0.503,2,0.769V41.306
	C222.433,39.612,208.54,35.603,191.546,35.603"/>
<path fill="#CCCCCC" d="M134.13,55.968v-0.369c15.729-13.221,34.996-19.996,57.416-19.996c16.994,0,30.888,4.009,35.977,5.703
	v134.457c-0.659-0.266-1.326-0.521-2-0.769v2.769c-0.659-0.266-1.326-0.521-2-0.769v2.769c-9.35-3.76-20.082-5.654-31.975-5.654
	c-29.187,0-56.959,11.186-65.316,14.865v-4.672c-0.063-0.024-0.124-0.05-0.188-0.074v2.811c-0.572-0.236-1.242-0.51-2-0.811v2.811
	c-8.461-3.501-37.614-14.579-66.815-14.579c-11.538,0-21.763,1.772-30.463,5.267V45.306c0.562-0.188,1.229-0.405,2-0.641v-1.359
	c0.562-0.188,1.229-0.404,2-0.641v-1.359c5.077-1.701,18.925-5.703,35.976-5.703c22.423,0,41.69,6.782,57.423,19.996v80.042
	l1.881-2.074v0.205l2-2.205v5.984l0.188,0.204v-4.196l1.898,2.086V59.599c0.66-0.555,1.327-1.099,2-1.631v-0.369
	C132.79,57.044,133.457,56.501,134.13,55.968 M187.546,33c-24.355,0-45.332,7.425-62.403,22.062C108.076,40.426,87.093,33,62.741,33
	c-18.659,0-33.481,4.456-38.593,6.212v10.949c-0.693,0.13-1.36,0.27-2,0.42v1.58c-0.693,0.13-1.36,0.27-2,0.42v1.58
	c-2.8,0.523-5.17,1.215-6.997,2.105c-0.112,0.396-0.169,0.813-0.169,1.248c0,19.582,0,138.444,0,138.444h101.97
	c3.527,3.151,8.688,5.153,14.455,5.153c5.773,0,10.927-2.001,14.45-5.153h95.395c0-22.079,0-128.292,0-134.444
	c-0.008-3.059-3.479-5.059-9.111-6.289V40.724l-2.087-0.822C227.322,39.617,210.279,33,187.546,33"/>
<path fill="#FF0000" d="M42.212,62.394c-0.787,0.185-1.58,0.383-2.372,0.593l1.368,5.173c7.315-1.94,14.478-2.706,21.221-2.706
	c24.992,0,44.256,10.511,44.504,10.646l1.312-2.36c-3.656-1.861-21.438-10.286-43.814-10.286c-6.743,0-13.904,0.765-21.221,2.706
	L42.212,62.394"/>
<path fill="#FFFF00" d="M66.428,61.455c-6.743,0-13.904,0.765-21.221,2.706l-0.605-2.292c-0.795,0.163-1.589,0.337-2.391,0.526
	l0.996,3.766c7.315-1.94,14.478-2.706,21.221-2.706c22.376,0,40.158,8.425,43.814,10.286l1.29-2.321
	c-0.085-0.047-0.297-0.164-0.627-0.337C103.32,68.419,86.772,61.455,66.428,61.455"/>
<path fill="#CCCCCC" d="M62.698,60.057c-5.768,0-11.843,0.528-18.097,1.812l0.605,2.292c7.315-1.94,14.478-2.706,21.22-2.706
	c20.346,0,36.894,6.964,42.479,9.628C105.213,69.145,86.621,60.057,62.698,60.057"/>
<path fill="#FF0000" d="M42.212,77.538c-0.787,0.185-1.58,0.383-2.372,0.593l1.368,5.174c7.317-1.942,14.482-2.709,21.229-2.709
	c24.989,0,44.248,10.512,44.496,10.642l1.313-2.357c-3.652-1.856-21.434-10.285-43.811-10.285c-6.745,0-13.91,0.766-21.229,2.709
	L42.212,77.538"/>
<path fill="#FFFF00" d="M66.436,76.595c-6.744,0-13.91,0.767-21.229,2.709l-0.605-2.292c-0.795,0.163-1.589,0.338-2.391,0.526
	l0.996,3.767c7.317-1.943,14.482-2.709,21.229-2.709c22.377,0,40.157,8.429,43.811,10.285l1.287-2.31
	c-0.101-0.057-0.378-0.21-0.818-0.44C102.951,83.405,86.551,76.595,66.436,76.595"/>
<path fill="#CCCCCC" d="M62.703,75.199c-5.769,0-11.846,0.528-18.102,1.813l0.605,2.292c7.317-1.942,14.483-2.709,21.229-2.709
	c20.114,0,36.516,6.81,42.278,9.535C104.608,83.993,86.236,75.199,62.703,75.199"/>
<path fill="#FF0000" d="M42.212,91.774c-0.787,0.185-1.58,0.382-2.372,0.592l1.368,5.175c7.313-1.938,14.475-2.703,21.215-2.703
	c24.996,0,44.262,10.508,44.51,10.643l1.313-2.359c-3.655-1.859-21.44-10.284-43.822-10.284c-6.74,0-13.9,0.765-21.215,2.703
	L42.212,91.774"/>
<path fill="#FFFF00" d="M66.423,90.838c-6.74,0-13.9,0.765-21.215,2.703l-0.605-2.292c-0.795,0.163-1.589,0.337-2.391,0.525
	l0.996,3.767c7.313-1.938,14.475-2.703,21.215-2.703c22.382,0,40.167,8.424,43.822,10.284l1.288-2.314
	c-0.095-0.053-0.345-0.191-0.74-0.397C103.101,97.709,86.636,90.838,66.423,90.838"/>
<path fill="#CCCCCC" d="M62.691,89.439c-5.768,0-11.838,0.527-18.09,1.81l0.605,2.292c7.313-1.938,14.475-2.703,21.215-2.703
	c20.213,0,36.679,6.871,42.37,9.572C104.847,98.349,86.382,89.439,62.691,89.439"/>
<path fill="#FF0000" d="M42.212,107.374c-0.787,0.185-1.58,0.383-2.372,0.593l1.368,5.174c7.313-1.94,14.475-2.706,21.215-2.706
	c24.996,0,44.262,10.516,44.51,10.645l1.313-2.357c-3.653-1.856-21.439-10.288-43.823-10.288c-6.74,0-13.9,0.766-21.215,2.706
	L42.212,107.374"/>
<path fill="#FFFF00" d="M66.423,106.437c-6.74,0-13.9,0.765-21.215,2.705l-0.605-2.294c-0.795,0.164-1.589,0.338-2.391,0.526
	l0.996,3.768c7.313-1.94,14.475-2.706,21.215-2.706c22.384,0,40.17,8.432,43.823,10.288l1.287-2.31
	c-0.098-0.056-0.362-0.203-0.782-0.422C103.019,113.278,86.586,106.437,66.423,106.437"/>
<path fill="#CCCCCC" d="M62.708,105.034c-5.77,0-11.851,0.529-18.105,1.814l0.605,2.294c7.313-1.94,14.475-2.705,21.215-2.705
	c20.163,0,36.597,6.842,42.328,9.556C104.717,113.882,86.31,105.034,62.708,105.034"/>
<path fill="#FF0000" d="M42.212,121.826c-0.787,0.185-1.58,0.382-2.372,0.592l1.368,5.175c7.311-1.937,14.464-2.7,21.201-2.7
	c25.002,0,44.274,10.512,44.522,10.653l1.311-2.361c-3.659-1.866-21.45-10.292-43.833-10.292c-6.737,0-13.892,0.764-21.201,2.7
	L42.212,121.826"/>
<path fill="#FFFF00" d="M66.409,120.892c-6.737,0-13.892,0.764-21.201,2.7l-0.604-2.292c-0.796,0.163-1.59,0.337-2.392,0.525
	l0.996,3.766c7.311-1.936,14.464-2.7,21.201-2.7c22.383,0,40.174,8.426,43.833,10.292l1.291-2.326
	c-0.076-0.041-0.255-0.141-0.529-0.285C103.514,127.942,86.882,120.892,66.409,120.892"/>
<path fill="#CCCCCC" d="M62.68,119.494c-5.763,0-11.83,0.526-18.077,1.806l0.604,2.292c7.311-1.936,14.464-2.7,21.201-2.7
	c20.473,0,37.104,7.048,42.595,9.68C105.55,128.75,86.829,119.494,62.68,119.494"/>
<path fill="#FF0000" d="M42.212,136.677c-0.787,0.185-1.58,0.381-2.372,0.592l1.368,5.174c7.315-1.94,14.479-2.706,21.222-2.706
	c24.992,0,44.255,10.51,44.503,10.639l1.313-2.356c-3.652-1.855-21.436-10.282-43.816-10.282c-6.742,0-13.905,0.766-21.222,2.706
	L42.212,136.677"/>
<path fill="#FFFF00" d="M66.43,135.736c-6.743,0-13.906,0.766-21.223,2.706l-0.605-2.293c-0.795,0.164-1.589,0.339-2.391,0.527
	l0.996,3.767c7.315-1.94,14.479-2.706,21.222-2.706c22.381,0,40.164,8.427,43.816,10.281l1.287-2.31
	c-0.1-0.057-0.372-0.207-0.806-0.433C102.975,142.556,86.563,135.736,66.43,135.736"/>
<path fill="#CCCCCC" d="M62.697,134.34c-5.767,0-11.842,0.528-18.096,1.81l0.605,2.293c7.315-1.94,14.479-2.706,21.223-2.706
	c20.133,0,36.545,6.819,42.298,9.538C104.646,143.149,86.258,134.34,62.697,134.34"/>
<path fill="#FF0000" d="M42.212,151.569c-0.787,0.185-1.58,0.383-2.372,0.593l1.368,5.167c7.315-1.939,14.479-2.706,21.222-2.706
	c24.992,0,44.255,10.511,44.503,10.646l1.315-2.356c-3.647-1.856-21.436-10.288-43.819-10.288c-6.742,0-13.904,0.766-21.221,2.706
	L42.212,151.569"/>
<path fill="#FFFF00" d="M66.428,150.623c-6.742,0-13.904,0.767-21.221,2.706l-0.604-2.287c-0.795,0.163-1.59,0.338-2.392,0.526
	l0.996,3.76c7.315-1.94,14.479-2.706,21.221-2.706c22.385,0,40.172,8.432,43.819,10.288l1.285-2.302
	c-0.112-0.064-0.44-0.246-0.972-0.521C102.665,157.315,86.371,150.623,66.428,150.623"/>
<path fill="#CCCCCC" d="M62.708,149.228c-5.77,0-11.85,0.529-18.104,1.814l0.604,2.287c7.315-1.939,14.479-2.706,21.221-2.706
	c19.942,0,36.236,6.692,42.134,9.465C104.168,157.815,85.958,149.228,62.708,149.228"/>
<path fill="#FF0000" d="M191.443,63.851c-24.992,0-44.258,10.508-44.506,10.643l-2.179-3.908c-1.396,0.675-2.23,1.133-2.424,1.241
	l2.603,4.667c0.248-0.135,19.514-10.643,44.505-10.643c6.743,0,13.898,0.764,21.215,2.703l0.624-2.352
	C204.444,64.523,197.76,63.851,191.443,63.851"/>
<path fill="#FFFF00" d="M193.443,61.851c-24.992,0-44.258,10.508-44.506,10.643l-1.701-3.052c-0.957,0.423-1.786,0.811-2.478,1.145
	l2.179,3.908c0.248-0.135,19.514-10.643,44.506-10.643c6.316,0,13.001,0.672,19.838,2.352l0.616-2.327
	C205.543,62.434,199.335,61.851,193.443,61.851"/>
<path fill="#CCCCCC" d="M189.182,60.454c-18.855,0-34.395,5.643-41.945,8.988l1.701,3.052c0.248-0.135,19.514-10.643,44.506-10.643
	c5.892,0,12.1,0.583,18.454,2.025l0.132-0.496C204.103,61.281,196.398,60.454,189.182,60.454"/>
<path fill="#FF0000" d="M191.426,79.002c-24.983,0-44.239,10.507-44.487,10.642l-2.181-3.916c-1.396,0.675-2.229,1.133-2.422,1.242
	l2.603,4.673c0.248-0.135,19.504-10.642,44.487-10.642c6.747,0,13.909,0.766,21.231,2.709l0.623-2.353
	C204.438,79.675,197.749,79.002,191.426,79.002"/>
<path fill="#FFFF00" d="M193.426,77.002c-24.982,0-44.239,10.507-44.487,10.642l-1.704-3.061c-0.956,0.424-1.785,0.811-2.477,1.145
	l2.181,3.916c0.248-0.135,19.504-10.642,44.487-10.642c6.323,0,13.013,0.673,19.854,2.357l0.616-2.327
	C205.535,77.587,199.323,77.002,193.426,77.002"/>
<path fill="#CCCCCC" d="M189.165,75.599c-18.85,0-34.383,5.64-41.932,8.984l1.704,3.061c0.248-0.135,19.505-10.642,44.487-10.642
	c5.897,0,12.109,0.584,18.472,2.03l0.133-0.502C204.096,76.427,196.387,75.599,189.165,75.599"/>
<path fill="#FF0000" d="M191.45,93.224c-24.995,0-44.265,10.515-44.513,10.649l-2.18-3.914c-1.396,0.674-2.229,1.132-2.423,1.24
	l2.603,4.674c0.248-0.135,19.518-10.649,44.513-10.649c6.74,0,13.894,0.764,21.207,2.702l0.623-2.352
	C204.447,93.895,197.767,93.224,191.45,93.224"/>
<path fill="#FFFF00" d="M193.45,91.224c-24.995,0-44.265,10.514-44.513,10.649l-1.702-3.058c-0.957,0.424-1.785,0.811-2.478,1.144
	l2.18,3.914c0.248-0.135,19.518-10.649,44.513-10.649c6.316,0,12.997,0.671,19.83,2.351l0.617-2.327
	C205.545,91.807,199.34,91.224,193.45,91.224"/>
<path fill="#CCCCCC" d="M189.188,89.829c-18.858,0-34.4,5.643-41.953,8.987l1.702,3.058c0.248-0.135,19.518-10.649,44.513-10.649
	c5.89,0,12.095,0.583,18.447,2.024l0.132-0.496C204.105,90.655,196.403,89.829,189.188,89.829"/>
<path fill="#FF0000" d="M191.437,108.836c-24.989,0-44.251,10.509-44.499,10.639l-2.181-3.909c-1.396,0.675-2.229,1.134-2.422,1.243
	l2.603,4.667c0.248-0.129,19.51-10.639,44.499-10.639c6.744,0,13.902,0.765,21.221,2.706l0.624-2.352
	C204.442,109.508,197.757,108.836,191.437,108.836"/>
<path fill="#FFFF00" d="M193.437,106.836c-24.989,0-44.251,10.509-44.499,10.639l-1.703-3.055c-0.957,0.424-1.785,0.811-2.478,1.146
	l2.181,3.909c0.248-0.129,19.51-10.639,44.499-10.639c6.319,0,13.006,0.672,19.845,2.354l0.617-2.327
	C205.541,107.42,199.33,106.836,193.437,106.836"/>
<path fill="#CCCCCC" d="M189.157,105.434c-18.844,0-34.374,5.64-41.923,8.986l1.703,3.055c0.248-0.129,19.51-10.639,44.499-10.639
	c5.894,0,12.104,0.584,18.462,2.027l0.131-0.495C204.094,106.263,196.382,105.434,189.157,105.434"/>
<path fill="#FF0000" d="M191.443,123.296c-24.992,0-44.258,10.508-44.506,10.643l-2.18-3.92c-1.396,0.675-2.229,1.131-2.423,1.24
	l2.603,4.68c0.248-0.135,19.514-10.643,44.506-10.643c6.742,0,13.897,0.764,21.214,2.703l0.623-2.352
	C204.444,123.967,197.762,123.296,191.443,123.296"/>
<path fill="#FFFF00" d="M193.443,121.296c-24.992,0-44.258,10.508-44.506,10.643l-1.703-3.063c-0.957,0.423-1.785,0.811-2.477,1.145
	l2.18,3.92c0.248-0.135,19.514-10.644,44.506-10.644c6.317,0,13.001,0.671,19.837,2.352l0.616-2.327
	C205.541,121.88,199.336,121.296,193.443,121.296"/>
<path fill="#CCCCCC" d="M189.181,119.894c-18.855,0-34.395,5.639-41.946,8.981l1.703,3.063c0.248-0.135,19.514-10.644,44.506-10.644
	c5.893,0,12.098,0.583,18.453,2.024l0.133-0.502C204.103,120.72,196.397,119.894,189.181,119.894"/>
<path fill="#FF0000" d="M191.441,138.14c-24.992,0-44.256,10.506-44.504,10.637l-2.179-3.907c-1.396,0.675-2.23,1.132-2.424,1.239
	l2.603,4.668c0.248-0.131,19.512-10.637,44.504-10.637c6.742,0,13.899,0.766,21.216,2.705l0.623-2.353
	C204.444,138.812,197.76,138.14,191.441,138.14"/>
<path fill="#FFFF00" d="M193.441,136.14c-24.992,0-44.256,10.506-44.504,10.635l-1.701-3.051c-0.957,0.424-1.785,0.811-2.478,1.145
	l2.179,3.906c0.248-0.129,19.512-10.635,44.504-10.635c6.317,0,13.003,0.67,19.839,2.352l0.617-2.327
	C205.543,136.724,199.333,136.14,193.441,136.14"/>
<path fill="#CCCCCC" d="M189.175,134.741c-18.851,0-34.386,5.639-41.938,8.982l1.701,3.051c0.248-0.129,19.512-10.635,44.504-10.635
	c5.892,0,12.102,0.584,18.456,2.024l0.132-0.496C204.101,135.569,196.394,134.741,189.175,134.741"/>
<path fill="#FF0000" d="M191.437,153.015c-24.989,0-44.251,10.517-44.499,10.641l-2.179-3.9c-1.396,0.676-2.23,1.133-2.424,1.241
	l2.603,4.659c0.248-0.124,19.51-10.641,44.499-10.641c6.744,0,13.902,0.765,21.221,2.707l0.624-2.352
	C204.442,153.687,197.756,153.015,191.437,153.015"/>
<path fill="#FFFF00" d="M193.437,151.015c-24.989,0-44.251,10.517-44.499,10.641l-1.7-3.045c-0.957,0.424-1.786,0.811-2.479,1.145
	l2.179,3.9c0.248-0.124,19.51-10.641,44.499-10.641c6.318,0,13.006,0.672,19.845,2.355l0.617-2.327
	C205.541,151.599,199.33,151.015,193.437,151.015"/>
<path fill="#CCCCCC" d="M189.182,149.621c-18.854,0-34.393,5.644-41.944,8.987l1.7,3.046c0.248-0.124,19.51-10.642,44.499-10.642
	c5.894,0,12.104,0.584,18.462,2.029l0.131-0.495C204.103,150.448,196.398,149.621,189.182,149.621"/>
</svg>
