<?xml version="1.0" encoding="utf-8"?>
<!-- Generator: Adobe Illustrator 16.0.0, SVG Export Plug-In . SVG Version: 6.00 Build 0)  -->
<!DOCTYPE svg PUBLIC "-//W3C//DTD SVG 1.1//EN" "http://www.w3.org/Graphics/SVG/1.1/DTD/svg11.dtd">
<svg version="1.1" xmlns="http://www.w3.org/2000/svg" xmlns:xlink="http://www.w3.org/1999/xlink" x="0px" y="0px"
	 width="249.951px" height="250.095px" viewBox="-137.5 -260.5 249.951 250.095"
	 enable-background="new -137.5 -260.5 249.951 250.095" xml:space="preserve">
<g id="Layer_1">
</g>
<g id="Layer_1_copy">
</g>
<g id="Layer_1_copy_2">
	<g>
		<path fill="#0000FF" d="M-41.768-40.776h-11.548c-3.486,0-6.516,2.016-7.984,4.942c1.201-0.603,2.554-0.942,3.984-0.942h14.441
			C-42.608-38.15-42.236-39.487-41.768-40.776 M-25.609-60.269c-1.417,1.161-2.712,2.463-3.862,3.887
			c1.204-0.973,2.496-1.844,3.862-2.599V-60.269 M-119.41-112.189h-5.318c0.484,1.362,1.028,2.697,1.628,4h2.181L-119.41-112.189
			 M23.42-112.189h-5.323c0.483,1.362,1.027,2.697,1.627,4h2.187L23.42-112.189 M-86.851-166.587l-22.033,58.397h44.067l-1.509-4
			h-38.558l19.278-51.097L-86.851-166.587 M55.977-166.588l-22.038,58.398h44.074l-1.509-4H37.938l19.283-51.099L55.977-166.588
			 M0.244-168.944c-0.938,1.127-2.021,2.132-3.219,2.984c-0.248,0.349-0.508,0.688-0.781,1.016v104.161
			c10.034,3.565,17.261,12.867,17.732,24.008H31.95c4.917,0,8.927,4.01,8.927,8.927v4.926h4v-8.926c0-4.917-4.01-8.927-8.927-8.927
			H17.976c-0.471-11.141-7.698-20.443-17.732-24.008V-168.944 M8.098-183.602H0.244h-17.853h-7.854c0,1.38,0.168,2.719,0.484,4h3.37
			h17.853h7.854l0,0c0,3.599-1.139,6.92-3.073,9.642C5.296-172.999,8.098-177.959,8.098-183.602 M-80.099-194.719
			c-1.761,0-3.521,0.87-4.172,2.608l-0.543,1.439c0.236-0.032,0.476-0.048,0.715-0.048c1.761,0,3.523,0.869,4.179,2.608
			l30.159,79.921h10.3c-2.09,5.882-5.291,11.242-9.353,15.813c5.98-5.312,10.618-12.117,13.353-19.813h-10.3L-75.92-192.11
			C-76.576-193.849-78.338-194.719-80.099-194.719 M62.724-194.719c-1.761,0-3.52,0.87-4.169,2.608l-0.543,1.439
			c0.235-0.032,0.474-0.048,0.712-0.048c1.761,0,3.524,0.869,4.182,2.608l30.154,79.921h10.304
			c-2.088,5.886-5.287,11.247-9.349,15.818c5.979-5.311,10.616-12.115,13.349-19.818H97.06L66.905-192.11
			C66.248-193.849,64.484-194.719,62.724-194.719 M7.496-210.174c-1.57,0.541-2.948,1.239-4.151,2.011
			c0.081,0.587,0.153,1.174,0.153,1.781c0,3.447-1.078,6.643-2.916,9.269C4.709-200.002,7.428-204.771,7.496-210.174
			 M-39.926-228.235c-10.168,0-18.917,4.419-26.627,8.32c-2.455,1.238-4.83,2.428-7.035,3.348c-1.644-1.722-3.936-2.829-6.508-2.829
			c-3.522,0-6.57,2.017-8.053,4.959c1.218-0.614,2.595-0.959,4.053-0.959c2.572,0,4.865,1.107,6.508,2.829
			c2.205-0.92,4.58-2.11,7.035-3.348c7.71-3.901,16.458-8.32,26.627-8.32c8.892,0,15.086,3.382,19.292,7.026
			c0.478-0.528,0.99-1.023,1.533-1.481c-2.147-1.634-3.67-4.021-4.066-6.802C-30.624-227.125-34.832-228.235-39.926-228.235
			 M22.561-228.235c-8.893,0-15.081,3.382-19.292,7.026c-1.839-2.032-4.186-3.563-6.847-4.454c-0.939,1.545-2.274,2.833-3.853,3.75
			c-0.048,0.084-0.097,0.167-0.147,0.25c2.661,0.89,5.007,2.422,6.847,4.454c4.211-3.644,10.399-7.026,19.292-7.026
			c10.164,0,18.908,4.419,26.623,8.32c2.449,1.238,4.829,2.428,7.044,3.357c1.639-1.731,3.931-2.838,6.504-2.838
			c4.984,0,9.012,4.032,9.012,9.014c0,1.459-0.346,2.837-0.959,4.056c2.943-1.483,4.959-4.532,4.959-8.056
			c0-4.982-4.027-9.014-9.012-9.014c-2.573,0-4.865,1.107-6.504,2.838c-2.215-0.929-4.595-2.119-7.044-3.357
			C41.469-223.815,32.725-228.235,22.561-228.235 M-8.683-254.435c0,0-1.533,1.977-3.433,4.748
			C-9.92-246.757-2.1-235.966-2.1-230.938c0,1.837-0.486,3.544-1.332,5.027c3.151-1.831,5.332-5.136,5.332-9.027
			C1.9-240.788-8.683-254.435-8.683-254.435"/>
		<path fill="#00FF00" d="M40.877-22.923h-4v4h4V-22.923 M-61.3-35.834c-1.725,0.866-3.134,2.275-4,4
			c0.951-0.477,1.997-0.789,3.102-0.898C-62.089-33.837-61.777-34.884-61.3-35.834 M-29.471-56.382c-1.472,1.189-2.813,2.53-4,4
			c0.743-0.6,1.518-1.161,2.324-1.68C-30.629-54.866-30.07-55.64-29.471-56.382 M94.015-92.372c-0.706,0.627-1.433,1.235-2.176,1.82
			c-0.587,0.746-1.194,1.472-1.824,2.18C91.425-89.624,92.762-90.96,94.015-92.372 M-48.814-92.376
			c-0.707,0.628-1.432,1.235-2.175,1.82c-0.587,0.745-1.195,1.471-1.824,2.18C-51.404-89.629-50.068-90.965-48.814-92.376
			 M-123.101-108.189h-5.628c0.484,1.362,1.028,2.697,1.628,4h4.672l0.567-1.503C-122.298-106.511-122.711-107.344-123.101-108.189
			 M19.724-108.189h-5.627c0.483,1.362,1.027,2.697,1.627,4h4.678l0.564-1.497C20.528-106.507,20.114-107.341,19.724-108.189
			 M1.025-169.96c-0.255,0.182-0.516,0.356-0.781,0.524v0.492C0.517-169.272,0.777-169.611,1.025-169.96 M-80.096-177.888
			l-0.738,1.956l24.053,63.742h1.473L-80.096-177.888 M62.731-177.888l-0.739,1.959l24.049,63.739h1.481L62.731-177.888
			 M-24.979-179.602h-4.484c0,1.38,0.168,2.72,0.484,4h3.37h2.191C-24.101-176.847-24.631-178.189-24.979-179.602 M-84.814-190.671
			c-1.504,0.205-2.894,1.058-3.457,2.561l-0.543,1.439c0.237-0.032,0.476-0.048,0.715-0.048c0.576,0,1.151,0.093,1.688,0.278
			L-84.814-190.671 M58.012-190.671c-1.505,0.203-2.896,1.057-3.457,2.561l-0.543,1.439c0.235-0.032,0.474-0.048,0.712-0.048
			c0.576,0,1.153,0.093,1.691,0.279L58.012-190.671 M0.581-197.113c-0.798,0.559-1.649,1.047-2.543,1.456
			c-0.41,0.895-0.898,1.746-1.457,2.544C-1.863-194.202-0.508-195.557,0.581-197.113 M-77.194-200.735
			c-0.812,0.356-1.618,0.69-2.419,0.995c-0.159,0.509-0.359,0.999-0.597,1.466C-79.032-198.86-78.007-199.706-77.194-200.735
			 M66.784-202.326c-0.947,0.477-1.989,0.791-3.092,0.908c-0.117,1.102-0.432,2.145-0.908,3.092
			C64.509-199.194,65.915-200.601,66.784-202.326 M-88.149-214.437c-1.725,0.869-3.131,2.275-4,4
			c0.946-0.477,1.989-0.792,3.091-0.909C-88.942-212.447-88.626-213.49-88.149-214.437 M22.755-219.308
			c6.775,1.501,12.869,4.582,18.429,7.393c2.449,1.238,4.829,2.428,7.044,3.357c0.418-0.442,0.879-0.843,1.376-1.195
			c-1.464-0.695-2.945-1.44-4.447-2.198C38.394-215.371,30.724-219.246,22.755-219.308 M-39.926-219.309
			c-0.101,0-0.202,0-0.303,0.002c4.939,1.252,8.729,3.614,11.596,6.098c0.537-0.593,1.116-1.144,1.734-1.649
			C-29.788-217.208-34.005-219.309-39.926-219.309 M-3.431-225.912c-0.111,0.064-0.223,0.127-0.335,0.188
			c0.063,0.02,0.126,0.041,0.188,0.062C-3.528-225.745-3.479-225.828-3.431-225.912 M-12.683-250.435c0,0-1.533,1.977-3.433,4.748
			c0.208,0.278,0.467,0.626,0.765,1.034c1.062-1.786,2.203-3.527,3.235-5.034C-12.475-250.166-12.683-250.435-12.683-250.435"/>
		<path fill="#00FFFF" d="M-42.875-36.776h-14.441c-1.43,0-2.784,0.339-3.984,0.942c-0.477,0.95-0.789,1.997-0.898,3.102
			c0.291-0.029,0.585-0.043,0.883-0.043h17.972C-43.287-34.139-43.128-35.475-42.875-36.776 M-25.609-58.981
			c-1.366,0.755-2.658,1.626-3.862,2.599c-0.599,0.742-1.158,1.516-1.676,2.32c1.718-1.107,3.575-2.025,5.538-2.722V-58.981
			 M-120.919-108.189h-2.181c0.39,0.846,0.803,1.678,1.239,2.497L-120.919-108.189 M21.91-108.189h-2.187
			c0.391,0.848,0.805,1.683,1.242,2.503L21.91-108.189 M-3.756-164.944c-1.137,1.368-2.488,2.554-4,3.508v104.652
			C2.278-53.219,9.505-43.917,9.976-32.776H27.95c4.917,0,8.927,4.01,8.927,8.927v0.926h4v-4.926c0-4.917-4.01-8.927-8.927-8.927
			H13.976C13.505-47.917,6.278-57.219-3.756-60.784V-164.944 M-88.096-169.888l-24.788,65.698h49.576l-1.509-4h-44.067
			l22.033-58.397L-88.096-169.888 M54.731-169.888l-24.793,65.698h49.584l-1.51-4H33.938l22.038-58.398L54.731-169.888
			 M4.098-179.602h-7.854h-17.853h-3.37c0.349,1.413,0.878,2.755,1.562,4h15.662h7.854l0,0c0,3.599-1.139,6.92-3.073,9.642
			c1.198-0.853,2.281-1.857,3.219-2.984v-0.492c0.266-0.167,0.526-0.342,0.781-0.524C2.958-172.682,4.098-176.003,4.098-179.602
			 M-84.099-190.719c-0.239,0-0.479,0.016-0.715,0.048l-1.597,4.23c1.106,0.383,2.049,1.16,2.49,2.33l3.086,8.179l0.738-1.956
			l24.789,65.698h-1.473l3.019,8h10.3c-1.767,4.97-4.326,9.569-7.528,13.633c0.743-0.585,1.469-1.192,2.175-1.82
			c4.062-4.572,7.263-9.932,9.353-15.813h-10.3L-79.92-188.11C-80.576-189.85-82.338-190.719-84.099-190.719 M58.724-190.719
			c-0.238,0-0.477,0.016-0.712,0.048l-1.597,4.231c1.105,0.383,2.048,1.159,2.49,2.329l3.087,8.182l0.739-1.959l24.791,65.698
			h-1.481l3.019,8h10.304c-1.765,4.974-4.323,9.573-7.524,13.638c0.743-0.585,1.47-1.192,2.176-1.82
			c4.062-4.571,7.261-9.932,9.349-15.818H93.06L62.905-188.11C62.248-189.85,60.484-190.719,58.724-190.719 M3.344-208.163
			c-1.686,1.083-3.028,2.312-4.075,3.462c0.104,0.768,0.228,1.526,0.228,2.319c0,2.399-0.522,4.677-1.459,6.725
			c0.895-0.409,1.745-0.897,2.543-1.456c1.838-2.626,2.916-5.822,2.916-9.269C3.497-206.989,3.425-207.576,3.344-208.163
			 M-43.926-224.235c-10.168,0-18.917,4.419-26.627,8.32c-2.455,1.238-4.83,2.428-7.035,3.348c-1.644-1.722-3.936-2.829-6.508-2.829
			c-1.458,0-2.835,0.346-4.053,0.959c-0.477,0.946-0.792,1.989-0.909,3.091c0.316-0.034,0.637-0.051,0.962-0.051
			c2.572,0,4.865,1.107,6.508,2.829c2.205-0.92,4.58-2.11,7.035-3.348c7.71-3.901,16.458-8.32,26.627-8.32
			c2.832,0,5.39,0.343,7.697,0.928c0.101-0.001,0.202-0.002,0.303-0.002c5.921,0,10.139,2.101,13.027,4.451
			c1.549-1.267,3.34-2.244,5.3-2.867c-0.527-0.283-1.03-0.606-1.502-0.966c-0.543,0.458-1.055,0.954-1.533,1.481
			C-28.84-220.853-35.034-224.235-43.926-224.235 M18.561-224.235c-8.893,0-15.081,3.382-19.292,7.026
			c-1.839-2.032-4.186-3.563-6.847-4.454c-1.005,1.654-2.463,3.012-4.188,3.938c2.738,0.88,5.152,2.436,7.035,4.516
			c4.211-3.644,10.399-7.026,19.292-7.026c2.84,0,5.568,0.345,8.194,0.927c7.969,0.062,15.639,3.937,22.401,7.357
			c1.502,0.757,2.983,1.502,4.447,2.198c1.451-1.029,3.211-1.643,5.128-1.643c4.984,0,9.012,4.032,9.012,9.014
			c0,0.326-0.018,0.647-0.051,0.964c1.103-0.117,2.145-0.431,3.092-0.908c0.613-1.219,0.959-2.597,0.959-4.056
			c0-4.982-4.027-9.014-9.012-9.014c-2.573,0-4.865,1.107-6.504,2.838c-2.215-0.929-4.595-2.119-7.044-3.357
			C37.469-219.815,28.725-224.235,18.561-224.235 M-12.116-249.688c-1.033,1.507-2.173,3.248-3.235,5.034
			c2.844,3.891,9.251,13.164,9.251,17.715c0,1.837-0.486,3.544-1.332,5.027c1.579-0.917,2.914-2.205,3.853-3.75
			c-0.063-0.021-0.125-0.042-0.188-0.062c0.113-0.061,0.225-0.123,0.335-0.188c0.845-1.483,1.332-3.189,1.332-5.027
			C-2.1-235.966-9.92-246.757-12.116-249.688"/>
		<path fill="#FF0000" d="M-65.3-31.834c-2.926,1.468-4.942,4.499-4.942,7.985v8.926H36.877v-4H-66.242v-8.926
			C-66.242-29.28-65.903-30.633-65.3-31.834 M-33.471-52.382c-3.732,3.015-6.626,7.011-8.296,11.606h2.893
			C-38.031-45.119-36.14-49.077-33.471-52.382 M-127.101-104.189h-5.628c6.542,18.412,23.968,31.714,44.632,31.714
			c14.064,0,26.628-6.162,35.282-15.901c-8.326,7.396-19.255,11.901-31.282,11.901C-103.231-76.475-119.59-87.881-127.101-104.189
			 M15.724-104.189h-5.627c6.538,18.412,23.974,31.714,44.635,31.714c14.061,0,26.629-6.155,35.283-15.896
			c-8.327,7.396-19.259,11.896-31.283,11.896C39.599-76.475,23.232-87.881,15.724-104.189 M-82.851-170.587l-2.755,7.301
			l19.279,51.097h5.509L-82.851-170.587 M59.977-170.588l-2.755,7.3l19.282,51.099h5.509L59.977-170.588 M-28.979-175.602h-4.484
			c0,5.98,3.151,11.193,7.854,14.166v101.167c1.244-1.019,2.582-1.927,4-2.712v-102.455
			C-25.227-167.723-27.926-171.335-28.979-175.602 M-88.814-186.671c-1.503,0.205-2.894,1.058-3.457,2.561l-27.139,71.921h2.491
			L-88.814-186.671 M54.012-186.671c-1.505,0.203-2.896,1.057-3.457,2.561L23.42-112.189h2.49L54.012-186.671 M-92.149-210.437
			c-2.943,1.483-4.96,4.531-4.96,8.055c0,4.982,4.033,9.014,9.013,9.014c3.484,0,6.409-2.005,7.886-4.906
			c-1.166,0.58-2.48,0.906-3.886,0.906c-4.98,0-9.013-4.032-9.013-9.014C-93.109-207.84-92.764-209.218-92.149-210.437
			 M-43.926-215.309c-8.033,0-15.774,3.91-22.604,7.358c-2.261,1.143-4.483,2.259-6.665,3.215c-0.813,1.029-1.838,1.875-3.016,2.461
			c-0.279,0.547-0.609,1.063-0.984,1.539c2.181-0.957,4.403-2.072,6.665-3.215c6.83-3.448,14.571-7.358,22.604-7.358
			c7.711,0,12.531,3.562,15.291,6.599c-0.104,0.767-0.231,1.535-0.231,2.328c0,8.935,7.249,16.184,16.184,16.184
			c5.488,0,10.338-2.734,13.264-6.915c-2.625,1.837-5.818,2.915-9.264,2.915c-8.935,0-16.184-7.249-16.184-16.184
			c0-0.793,0.127-1.561,0.231-2.328C-31.395-211.747-36.215-215.309-43.926-215.309 M18.561-215.309
			c-4.791,0-8.462,1.377-11.216,3.146c0.081,0.586,0.153,1.174,0.153,1.781c0,0.069,0,0.138-0.001,0.208
			c2.024-0.697,4.367-1.134,7.065-1.134c8.038,0,15.778,3.91,22.596,7.358c3.11,1.569,6.137,3.085,9.091,4.21
			c1.144,3.67,4.439,6.373,8.484,6.373c3.524,0,6.57-2.016,8.053-4.958c-1.218,0.613-2.595,0.958-4.053,0.958
			c-4.045,0-7.341-2.703-8.484-6.373c-2.954-1.125-5.98-2.642-9.091-4.21C34.339-211.399,26.599-215.309,18.561-215.309
			 M-16.683-246.435c0,0-10.586,13.647-10.586,19.497c0,0.492,0.035,0.975,0.102,1.447c2.577,1.218,4.737,2.727,6.534,4.283
			c0.478-0.528,0.99-1.023,1.533-1.481c-2.511-1.911-4.168-4.852-4.168-8.249c0-3.623,4.062-10.238,7.154-14.749
			C-16.475-246.166-16.683-246.435-16.683-246.435"/>
		<path fill="#FF00FF" d="M-38.875-40.776h-2.893c-0.468,1.289-0.84,2.625-1.107,4h3.531
			C-39.287-38.139-39.128-39.475-38.875-40.776 M-21.609-62.981c-1.418,0.785-2.756,1.693-4,2.712v1.288
			c1.272-0.705,2.609-1.309,4-1.803V-62.981 M-116.919-112.189h-2.491l-1.509,4h2.491L-116.919-112.189 M-60.817-112.189h-5.509
			l1.509,4h5.509L-60.817-112.189 M25.91-112.189h-2.49l-1.51,4h2.491L25.91-112.189 M82.013-112.189h-5.509l1.509,4h5.51
			L82.013-112.189 M-2.975-165.96c-0.255,0.182-0.516,0.356-0.781,0.524v0.492C-3.483-165.272-3.223-165.611-2.975-165.96
			 M-84.096-173.888l-2.754,7.301l1.245,3.301l2.755-7.301L-84.096-173.888 M58.731-173.888l-2.755,7.3l1.245,3.3l2.755-7.3
			L58.731-173.888 M-73.194-204.735c-0.812,0.356-1.618,0.69-2.419,0.995c-0.159,0.509-0.359,0.999-0.597,1.466
			C-75.032-202.86-74.007-203.706-73.194-204.735 M7.344-212.163c-1.686,1.083-3.028,2.312-4.075,3.462
			c0.024,0.18,0.05,0.359,0.075,0.538c1.203-0.772,2.582-1.47,4.151-2.011c0.001-0.069,0.001-0.138,0.001-0.208
			C7.497-210.989,7.425-211.577,7.344-212.163 M-7.431-221.912c-0.111,0.064-0.223,0.127-0.335,0.188
			c0.063,0.021,0.126,0.041,0.188,0.062C-7.528-221.745-7.479-221.828-7.431-221.912 M-27.167-225.492
			c0.396,2.781,1.919,5.167,4.066,6.802c1.595-1.348,3.456-2.384,5.502-3.034c-0.527-0.283-1.03-0.606-1.502-0.966
			c-0.543,0.458-1.055,0.954-1.533,1.481C-22.431-222.765-24.59-224.274-27.167-225.492"/>
		<path fill="#FFFF00" d="M-62.199-32.732c-1.104,0.109-2.151,0.421-3.102,0.898c-0.603,1.201-0.942,2.554-0.942,3.985v8.926H36.877
			v-4h-99.119v-8.926C-62.242-32.147-62.228-32.442-62.199-32.732 M-31.147-54.062c-0.806,0.519-1.582,1.08-2.324,1.68
			c-2.669,3.305-4.56,7.263-5.404,11.606h3.531C-35.138-45.669-33.626-50.208-31.147-54.062 M20.966-105.687l-0.564,1.497h-4.678
			c7.509,16.309,23.875,27.714,43.008,27.714c12.024,0,22.956-4.5,31.283-11.896c0.63-0.708,1.237-1.435,1.824-2.18
			c-8.015,6.308-18.104,10.077-29.107,10.077C44.594-80.475,28.942-90.726,20.966-105.687 M-121.861-105.693l-0.567,1.503h-4.672
			c7.511,16.309,23.869,27.714,43.004,27.714c12.027,0,22.957-4.505,31.282-11.901c0.629-0.708,1.237-1.435,1.824-2.18
			c-8.014,6.309-18.1,10.081-29.106,10.081C-98.239-80.475-113.885-90.729-121.861-105.693 M-23.418-175.602h-2.191h-3.37
			c1.053,4.267,3.752,7.879,7.37,10.166v102.455c1.272-0.705,2.609-1.309,4-1.803v-104.652
			C-20.029-170.965-22.038-173.087-23.418-175.602 M61.992-175.929l-2.016,5.341l22.036,58.398h4.028L61.992-175.929
			 M-80.834-175.932l-2.017,5.345l22.034,58.397h4.036L-80.834-175.932 M-88.099-186.719c-0.239,0-0.479,0.016-0.715,0.048
			l-28.105,74.481h2.491l28.018-74.251C-86.948-186.626-87.523-186.719-88.099-186.719 M54.724-186.719
			c-0.238,0-0.477,0.016-0.712,0.048L25.91-112.189h2.491l28.014-74.25C55.877-186.625,55.3-186.719,54.724-186.719
			 M-89.059-211.345c-1.102,0.117-2.145,0.432-3.091,0.909c-0.614,1.219-0.96,2.596-0.96,4.055c0,4.982,4.033,9.014,9.013,9.014
			c1.406,0,2.721-0.327,3.886-0.906c0.237-0.467,0.438-0.958,0.597-1.466c0.801-0.305,1.607-0.639,2.419-0.995
			c0.375-0.476,0.706-0.992,0.984-1.539c-1.166,0.58-2.48,0.906-3.886,0.906c-4.98,0-9.013-4.032-9.013-9.014
			C-89.109-210.708-89.092-211.029-89.059-211.345 M-40.229-219.307c-7.924,0.096-15.557,3.951-22.3,7.356
			c-3.103,1.569-6.132,3.085-9.083,4.21c-0.345,1.105-0.885,2.123-1.581,3.005c2.181-0.957,4.403-2.072,6.665-3.215
			c6.83-3.448,14.571-7.358,22.604-7.358c7.711,0,12.531,3.562,15.291,6.599c-0.104,0.767-0.231,1.535-0.231,2.328
			c0,8.935,7.249,16.184,16.184,16.184c3.446,0,6.64-1.078,9.264-2.915c0.559-0.798,1.047-1.649,1.457-2.544
			c-2.047,0.937-4.323,1.458-6.721,1.458c-8.935,0-16.184-7.249-16.184-16.184c0-0.793,0.127-1.561,0.231-2.328
			c-0.641-0.705-1.392-1.438-2.264-2.148c-0.618,0.505-1.198,1.056-1.734,1.649C-31.501-215.692-35.291-218.054-40.229-219.307
			 M22.561-219.309c-7.725,0-12.536,3.579-15.291,6.607c0.024,0.18,0.05,0.359,0.075,0.538c2.754-1.769,6.425-3.146,11.216-3.146
			c8.038,0,15.778,3.91,22.596,7.358c3.11,1.569,6.137,3.085,9.091,4.21c1.144,3.67,4.439,6.373,8.484,6.373
			c1.458,0,2.835-0.345,4.053-0.958c0.477-0.947,0.791-1.99,0.908-3.092c-0.315,0.033-0.637,0.05-0.961,0.05
			c-4.045,0-7.341-2.703-8.484-6.373c-1.528-0.582-3.075-1.269-4.644-2.013c-0.497,0.353-0.958,0.753-1.376,1.195
			c-2.215-0.929-4.595-2.119-7.044-3.357c-5.56-2.811-11.653-5.892-18.429-7.393C22.69-219.308,22.625-219.309,22.561-219.309
			 M-16.116-245.688c-3.092,4.511-7.154,11.126-7.154,14.749c0,3.397,1.658,6.337,4.168,8.249c1.595-1.348,3.456-2.384,5.502-3.034
			c-3.331-1.787-5.67-5.178-5.67-9.214c0-2.413,1.802-6.153,3.918-9.715C-15.649-245.061-15.908-245.409-16.116-245.688"/>
		<path fill="#FFFFFF" d="M0.098-175.602h-7.854h-15.662c1.38,2.515,3.389,4.637,5.809,6.166v104.652
			c-1.391,0.494-2.728,1.098-4,1.803v2.197c-1.391,0.494-2.728,1.098-4,1.803v2.197c-1.963,0.697-3.819,1.615-5.538,2.722
			c-2.479,3.854-3.991,8.393-4.197,13.286h-3.531c-0.253,1.301-0.412,2.637-0.469,4h-3.531c-0.253,1.301-0.412,2.637-0.469,4
			h-17.972c-0.298,0-0.592,0.015-0.883,0.043c-0.029,0.291-0.043,0.585-0.043,0.883v8.926h99.119v-0.926
			c0-4.917-4.01-8.927-8.927-8.927H9.976C9.505-43.917,2.278-53.219-7.756-56.784v-104.652c1.512-0.955,2.863-2.14,4-3.508v-0.492
			c0.266-0.167,0.526-0.342,0.781-0.524C-1.042-168.682,0.098-172.003,0.098-175.602 M56.415-186.439l-28.014,74.25H25.91l-1.509,4
			H21.91l-0.944,2.503c7.977,14.96,23.628,25.211,41.766,25.211c11.004,0,21.093-3.769,29.107-10.077
			c3.201-4.064,5.76-8.664,7.524-13.638H89.06l-3.019-8h-4.028l1.51,4h-5.51l1.51,4H29.938l24.793-65.698l1.245,3.3l2.755-7.3
			l1.245,3.3l2.016-5.341l-3.087-8.182C58.463-185.28,57.521-186.056,56.415-186.439 M-86.411-186.44l-28.018,74.251h-2.491
			l-1.509,4h-2.491l-0.942,2.497c7.976,14.964,23.622,25.218,41.765,25.218c11.006,0,21.093-3.772,29.106-10.081
			c3.202-4.064,5.762-8.663,7.528-13.633h-10.3l-3.019-8h-4.036l1.509,4h-5.509l1.509,4h-49.576l24.788-65.698l1.246,3.301
			l2.754-7.301l1.246,3.301l2.017-5.345l-3.086-8.179C-84.362-185.281-85.305-186.058-86.411-186.44 M54.731-211.396
			c-1.917,0-3.677,0.614-5.128,1.643c1.568,0.744,3.115,1.431,4.644,2.013c1.144,3.67,4.439,6.373,8.484,6.373
			c0.324,0,0.646-0.017,0.961-0.05c0.033-0.317,0.051-0.638,0.051-0.964C63.743-207.364,59.716-211.396,54.731-211.396
			 M-47.926-220.235c-10.168,0-18.917,4.419-26.627,8.32c-2.455,1.238-4.83,2.428-7.035,3.348c-1.644-1.722-3.936-2.829-6.508-2.829
			c-0.325,0-0.646,0.017-0.962,0.051c-0.034,0.316-0.051,0.638-0.051,0.963c0,4.982,4.033,9.014,9.013,9.014
			c1.406,0,2.721-0.326,3.886-0.906c0.238-0.467,0.438-0.958,0.597-1.466c0.801-0.305,1.607-0.639,2.419-0.995
			c0.696-0.882,1.236-1.9,1.581-3.005c2.951-1.125,5.98-2.642,9.083-4.21c6.744-3.405,14.376-7.26,22.3-7.356
			C-42.537-219.892-45.095-220.235-47.926-220.235 M-15.351-244.653c-2.117,3.562-3.918,7.302-3.918,9.715
			c0,4.036,2.34,7.427,5.67,9.214c-2.046,0.65-3.907,1.686-5.502,3.034c0.472,0.36,0.975,0.683,1.502,0.966
			c-2.046,0.65-3.907,1.687-5.502,3.034c0.472,0.36,0.975,0.683,1.502,0.966c-1.96,0.623-3.751,1.6-5.3,2.867
			c0.873,0.71,1.624,1.443,2.264,2.148c-0.104,0.767-0.231,1.535-0.231,2.328c0,8.935,7.249,16.184,16.184,16.184
			c2.397,0,4.674-0.522,6.721-1.458c0.937-2.048,1.459-4.326,1.459-6.725c0-0.793-0.123-1.552-0.228-2.319
			c1.046-1.15,2.389-2.379,4.075-3.462c-0.025-0.179-0.05-0.358-0.075-0.538c1.046-1.15,2.389-2.379,4.075-3.462
			c-0.025-0.179-0.05-0.358-0.075-0.538c2.755-3.029,7.566-6.607,15.291-6.607c0.064,0,0.13,0,0.194,0.001
			c-2.626-0.583-5.354-0.927-8.194-0.927c-8.893,0-15.081,3.382-19.292,7.026c-1.883-2.08-4.297-3.635-7.035-4.516
			c1.725-0.926,3.184-2.284,4.188-3.938c-0.063-0.021-0.125-0.042-0.188-0.062c0.113-0.061,0.225-0.123,0.335-0.188
			c0.845-1.482,1.332-3.189,1.332-5.027C-6.1-231.49-12.507-240.762-15.351-244.653"/>
	</g>
</g>
</svg>
