<?xml version="1.0" encoding="utf-8"?>
<!-- Generator: Adobe Illustrator 16.0.0, SVG Export Plug-In . SVG Version: 6.00 Build 0)  -->
<!DOCTYPE svg PUBLIC "-//W3C//DTD SVG 1.1//EN" "http://www.w3.org/Graphics/SVG/1.1/DTD/svg11.dtd">
<svg version="1.1" id="Layer_1" xmlns="http://www.w3.org/2000/svg" xmlns:xlink="http://www.w3.org/1999/xlink" x="0px" y="0px"
	 width="252.232px" height="252.26px" viewBox="0 0 252.232 252.26" enable-background="new 0 0 252.232 252.26"
	 xml:space="preserve">
<g id="Layer_3">
</g>
<g id="Layer_3_copy">
</g>
<path fill="#FF0000" d="M57.92,59.934c-17.791,17.271-28.844,41.442-28.844,68.196c0,52.49,42.55,95.04,95.04,95.04
	c26.755,0,50.925-11.053,68.196-28.844c-17.113,16.614-40.461,26.844-66.196,26.844c-52.49,0-95.04-42.55-95.04-95.04
	C31.076,100.394,41.306,77.046,57.92,59.934 M126.116,44.63c-21.997,0-41.958,8.714-56.62,22.88
	c-0.327,0.339-0.653,0.682-0.974,1.026c14.561-13.59,34.105-21.906,55.594-21.906c45.01,0,81.5,36.49,81.5,81.5
	c0,21.488-8.315,41.033-21.905,55.594c0.345-0.32,0.688-0.646,1.025-0.974c14.166-14.663,22.88-34.623,22.88-56.62
	C207.616,81.12,171.126,44.63,126.116,44.63"/>
<path fill="#FF0000" d="M119.655,96.817c-2.048,1.417-3.39,3.783-3.39,6.462v79.76c0,4.335,3.515,7.851,7.852,7.851
	c2.68,0,5.045-1.343,6.462-3.392c-1.267,0.877-2.805,1.392-4.462,1.392c-4.336,0-7.852-3.516-7.852-7.851v-79.76
	C118.264,99.622,118.778,98.084,119.655,96.817"/>
<path fill="#FF0000" d="M119.654,70.591c-2.048,1.417-3.39,3.782-3.39,6.46c0,4.337,3.515,7.853,7.852,7.853
	c2.679,0,5.044-1.342,6.461-3.39c-1.267,0.877-2.804,1.39-4.461,1.39c-4.336,0-7.852-3.515-7.852-7.853
	C118.264,73.394,118.778,71.857,119.654,70.591"/>
<path fill="#00FF00" d="M194.311,192.327c-0.339,0.329-0.679,0.652-1.021,0.979c-0.324,0.344-0.647,0.682-0.978,1.021
	C192.99,193.669,193.654,193.005,194.311,192.327 M59.919,57.934c-0.677,0.658-1.342,1.322-2,2c0.338-0.329,0.679-0.654,1.022-0.978
	C59.265,58.612,59.59,58.272,59.919,57.934"/>
<path fill="#FFFF00" d="M58.942,58.956c-0.344,0.324-0.685,0.648-1.022,0.978c-16.613,17.113-26.844,40.46-26.844,66.196
	c0,52.49,42.55,95.04,95.04,95.04c25.735,0,49.083-10.229,66.196-26.844c0.329-0.339,0.652-0.679,0.978-1.021
	c-17.015,16.034-39.947,25.864-65.174,25.864c-52.49,0-95.04-42.55-95.04-95.04C33.076,98.903,42.906,75.971,58.942,58.956
	 M128.116,42.63c-23.013,0-43.8,9.54-58.62,24.88c14.662-14.166,34.624-22.88,56.62-22.88c45.01,0,81.5,36.49,81.5,81.5
	c0,21.997-8.714,41.957-22.88,56.62c15.34-14.819,24.88-35.606,24.88-58.62C209.616,79.12,173.126,42.63,128.116,42.63"/>
<path fill="#00FF00" d="M132.578,185.499c-0.401,0.277-0.83,0.52-1.28,0.72c-0.199,0.45-0.44,0.88-0.72,1.28
	C131.359,186.959,132.038,186.28,132.578,185.499 M121.654,94.817c-0.781,0.541-1.459,1.219-2,2c0.401-0.277,0.83-0.519,1.281-0.719
	C121.135,95.647,121.377,95.219,121.654,94.817"/>
<path fill="#FFFF00" d="M120.935,96.099c-0.451,0.2-0.879,0.441-1.281,0.719c-0.877,1.267-1.39,2.805-1.39,4.462v79.76
	c0,4.335,3.515,7.85,7.852,7.85c1.657,0,3.195-0.514,4.462-1.391c0.278-0.4,0.521-0.83,0.72-1.28
	c-0.973,0.433-2.049,0.671-3.182,0.671c-4.336,0-7.852-3.515-7.852-7.85V99.28C120.264,98.147,120.504,97.071,120.935,96.099"/>
<path fill="#00FF00" d="M132.577,79.514c-0.4,0.277-0.83,0.519-1.28,0.719c-0.199,0.451-0.44,0.879-0.72,1.281
	C131.358,80.973,132.037,80.294,132.577,79.514 M121.654,68.591c-0.781,0.541-1.46,1.219-2,2c0.401-0.278,0.83-0.519,1.281-0.719
	C121.135,69.421,121.376,68.992,121.654,68.591"/>
<path fill="#FFFF00" d="M120.935,69.872c-0.451,0.2-0.879,0.441-1.281,0.719c-0.876,1.267-1.39,2.803-1.39,4.46
	c0,4.337,3.515,7.853,7.852,7.853c1.657,0,3.194-0.513,4.461-1.39c0.278-0.401,0.521-0.83,0.72-1.281
	c-0.973,0.431-2.049,0.671-3.181,0.671c-4.336,0-7.852-3.515-7.852-7.853C120.264,71.919,120.504,70.843,120.935,69.872"/>
<path fill="#0000FF" d="M68.522,68.536c-0.344,0.322-0.688,0.647-1.026,0.974c-14.166,14.662-22.88,34.624-22.88,56.62
	c0,45.01,36.49,81.5,81.5,81.5c21.997,0,41.958-8.714,56.62-22.88c0.327-0.339,0.652-0.683,0.975-1.026
	c-14.562,13.592-34.105,21.906-55.595,21.906c-45.01,0-81.5-36.49-81.5-81.5C46.616,102.642,54.931,83.097,68.522,68.536
	 M128.116,29.09c-26.754,0-50.925,11.053-68.197,28.844C77.032,41.32,100.38,31.09,126.116,31.09c52.49,0,95.04,42.55,95.04,95.04
	c0,25.735-10.23,49.084-26.845,66.197c17.791-17.271,28.845-41.442,28.845-68.197C223.156,71.64,180.606,29.09,128.116,29.09"/>
<path fill="#FF00FF" d="M184.736,182.75c-0.339,0.327-0.682,0.651-1.025,0.974c-0.321,0.346-0.646,0.688-0.975,1.026
	C183.414,184.097,184.082,183.427,184.736,182.75 M69.496,67.51c-0.678,0.655-1.345,1.322-2,2c0.339-0.327,0.683-0.652,1.026-0.974
	C68.843,68.191,69.169,67.849,69.496,67.51"/>
<path fill="#00FFFF" d="M67.496,69.51c-15.34,14.82-24.88,35.607-24.88,58.62c0,45.01,36.49,81.5,81.5,81.5
	c23.013,0,43.8-9.54,58.62-24.88c-14.662,14.166-34.623,22.88-56.62,22.88c-45.01,0-81.5-36.49-81.5-81.5
	C44.616,104.133,53.33,84.172,67.496,69.51 M126.116,31.09c-25.736,0-49.083,10.23-66.197,26.844
	c-0.329,0.339-0.653,0.679-0.978,1.022C75.956,42.92,98.89,33.09,124.116,33.09c52.49,0,95.04,42.55,95.04,95.04
	c0,25.227-9.831,48.16-25.866,65.176c0.344-0.324,0.684-0.648,1.021-0.979c16.613-17.113,26.845-40.462,26.845-66.197
	C221.156,73.64,178.606,31.09,126.116,31.09"/>
<path fill="#CCCCCC" d="M69.496,67.51c14.82-15.34,35.607-24.88,58.62-24.88c45.01,0,81.5,36.49,81.5,81.5
	c0,23.014-9.54,43.801-24.88,58.62c-0.654,0.677-1.322,1.347-2,2c-14.82,15.34-35.607,24.88-58.62,24.88
	c-45.01,0-81.5-36.49-81.5-81.5c0-23.013,9.54-43.8,24.88-58.62C68.151,68.832,68.818,68.165,69.496,67.51 M124.116,33.09
	c-25.226,0-48.16,9.831-65.174,25.866C42.906,75.971,33.076,98.903,33.076,124.13c0,52.49,42.55,95.04,95.04,95.04
	c25.227,0,48.159-9.83,65.174-25.864c16.035-17.016,25.866-39.949,25.866-65.176C219.156,75.64,176.606,33.09,124.116,33.09"/>
<path fill="#0000FF" d="M128.116,91.428c-2.679,0-5.045,1.342-6.462,3.39c1.267-0.876,2.805-1.39,4.462-1.39
	c4.336,0,7.852,3.515,7.852,7.852v79.76c0,1.656-0.514,3.193-1.39,4.459c2.048-1.416,3.39-3.781,3.39-6.459V99.28
	C135.968,94.942,132.452,91.428,128.116,91.428"/>
<path fill="#00FFFF" d="M126.116,93.428c-1.657,0-3.195,0.513-4.462,1.39c-0.277,0.402-0.52,0.83-0.719,1.281
	c0.972-0.431,2.048-0.671,3.181-0.671c4.336,0,7.852,3.515,7.852,7.852v79.76c0,1.131-0.238,2.207-0.67,3.179
	c0.45-0.2,0.879-0.44,1.28-0.72c0.876-1.266,1.39-2.803,1.39-4.459v-79.76C133.968,96.942,130.452,93.428,126.116,93.428"/>
<path fill="#CCCCCC" d="M124.116,95.428c-1.132,0-2.208,0.24-3.181,0.671c-0.432,0.973-0.671,2.049-0.671,3.181v79.76
	c0,4.335,3.515,7.85,7.852,7.85c1.133,0,2.209-0.238,3.182-0.671c0.432-0.972,0.67-2.048,0.67-3.179v-79.76
	C131.968,98.942,128.452,95.428,124.116,95.428"/>
<path fill="#0000FF" d="M128.116,65.201c-2.68,0-5.045,1.342-6.462,3.39c1.267-0.877,2.804-1.39,4.462-1.39
	c4.336,0,7.852,3.515,7.852,7.85c0,1.658-0.514,3.195-1.391,4.463c2.049-1.417,3.391-3.783,3.391-6.463
	C135.968,68.715,132.452,65.201,128.116,65.201"/>
<path fill="#00FFFF" d="M126.116,67.201c-1.658,0-3.195,0.513-4.462,1.39c-0.278,0.401-0.52,0.83-0.719,1.281
	c0.972-0.431,2.049-0.671,3.181-0.671c4.336,0,7.852,3.515,7.852,7.85c0,1.133-0.238,2.209-0.671,3.182
	c0.45-0.2,0.88-0.441,1.28-0.719c0.877-1.268,1.391-2.805,1.391-4.463C133.968,70.715,130.452,67.201,126.116,67.201"/>
<path fill="#CCCCCC" d="M124.116,69.201c-1.132,0-2.209,0.24-3.181,0.671c-0.432,0.972-0.67,2.048-0.67,3.179
	c0,4.337,3.515,7.853,7.852,7.853c1.132,0,2.208-0.24,3.181-0.671c0.433-0.973,0.672-2.049,0.672-3.182
	C131.968,72.715,128.452,69.201,124.116,69.201"/>
</svg>
