<?xml version="1.0" encoding="utf-8"?>
<!-- Generator: Adobe Illustrator 16.0.0, SVG Export Plug-In . SVG Version: 6.00 Build 0)  -->
<!DOCTYPE svg PUBLIC "-//W3C//DTD SVG 1.1//EN" "http://www.w3.org/Graphics/SVG/1.1/DTD/svg11.dtd">
<svg version="1.1" xmlns="http://www.w3.org/2000/svg" xmlns:xlink="http://www.w3.org/1999/xlink" x="0px" y="0px"
	 width="252.232px" height="252.26px" viewBox="0 -228.74 252.232 252.26" enable-background="new 0 -228.74 252.232 252.26"
	 xml:space="preserve">
<g id="Layer_1">
</g>
<g id="Layer_1_copy">
</g>
<g id="Layer_1_copy_2">
	<g>
		<path fill="#0000FF" d="M111.824-156.878H86.072v3h25.752V-156.878 M12.905-186.414h-3v32.536h31.752v115.248h38.415v-3H44.657
			v-115.248H12.905V-186.414"/>
		<path fill="#0000FF" d="M135.539-82.534l-16.464,30.968c15.092,10.584,33.32,16.856,51.939,16.856
			c14.896,0,30.38-4.116,41.944-13.916c1.354-1.15,2.599-2.37,3.741-3.647c-0.243,0.218-0.49,0.434-0.741,0.647
			c-11.564,9.8-27.048,13.916-41.944,13.916c-18.619,0-36.848-6.272-51.939-16.856l14.426-27.134
			C136.178-81.977,135.858-82.255,135.539-82.534 M184.403-161.19c-3.822,0-8.335,1.208-11.668,3.624
			c-0.383,0.55-0.713,1.134-0.982,1.752c3.008-1.584,6.556-2.376,9.65-2.376c9.407,0,18.424,3.92,25.479,9.8l1.968-3.835
			C201.958-157.639,193.358-161.19,184.403-161.19 M140.167-177.56c-9.544,8.675-15.212,21.366-15.212,36.813
			c0,28.616,15.876,34.888,39.984,41.748c8.231,2.352,23.323,6.076,23.323,16.856c0,2.386-0.507,4.462-1.396,6.245
			c0.673-0.368,1.316-0.776,1.922-1.226c1.548-2.133,2.475-4.792,2.475-8.019c0-10.78-15.092-14.504-23.323-16.856
			c-24.108-6.86-39.984-13.132-39.984-41.748C127.955-157.497,132.448-169.065,140.167-177.56"/>
		<path fill="#00FF00" d="M83.072-44.631h-3v3h3V-44.631 M114.824-159.878h-3v3h3V-159.878 M15.905-189.414h-3v3h3V-189.414"/>
		<path fill="#00FFFF" d="M111.824-159.878H86.072v3h25.752V-159.878 M15.905-186.414h-3v29.536h31.752v115.248h35.415v-3H47.657
			v-115.248H15.905V-186.414"/>
		<path fill="#00FF00" d="M219.701-55.275c-0.243,0.218-0.491,0.435-0.742,0.648c-0.295,0.25-0.593,0.496-0.893,0.739
			c-0.438,0.548-0.894,1.086-1.366,1.614C217.771-53.231,218.771-54.234,219.701-55.275 M138.539-85.534l-2.038,3.833
			c0.321,0.275,0.645,0.548,0.97,0.819l2.03-3.819C139.178-84.977,138.858-85.255,138.539-85.534 M210.801-156.025l-1.95,3.8
			c0.349,0.273,0.693,0.552,1.032,0.835l1.968-3.835C211.505-155.497,211.155-155.763,210.801-156.025 M143.168-180.561
			c-1.048,0.953-2.049,1.954-3.001,3.001c0.524-0.477,1.063-0.944,1.611-1.396C142.229-179.503,142.692-180.038,143.168-180.561"/>
		<path fill="#00FFFF" d="M136.501-81.701l-14.426,27.134c15.092,10.584,33.32,16.856,51.939,16.856
			c14.896,0,30.38-4.116,41.944-13.916c0.251-0.213,0.498-0.429,0.741-0.647c0.473-0.528,0.928-1.066,1.366-1.614
			c-11.461,9.269-26.535,13.177-41.052,13.177c-18.619,0-36.848-6.272-51.939-16.856l12.396-23.315
			C137.146-81.153,136.822-81.426,136.501-81.701 M187.403-164.19c-5.168,0-11.597,2.208-14.668,6.624
			c3.333-2.416,7.846-3.624,11.668-3.624c8.955,0,17.555,3.551,24.447,8.965l1.95-3.8
			C204.095-160.986,195.908-164.19,187.403-164.19 M141.778-178.956c-0.548,0.452-1.087,0.919-1.611,1.396
			c-7.719,8.495-12.212,20.063-12.212,33.813c0,28.616,15.876,34.888,39.984,41.748c8.231,2.352,23.323,6.076,23.323,16.856
			c0,3.227-0.927,5.886-2.475,8.019c3.278-2.429,5.475-6.052,5.475-11.019c0-10.78-15.092-14.504-23.323-16.856
			c-24.108-6.86-39.984-13.132-39.984-41.748C130.955-159.652,134.911-170.633,141.778-178.956"/>
		<path fill="#FF0000" d="M86.072-153.878h-3v109.248h3V-153.878 M117.824-192.414H15.905v3h98.919v29.536h3V-192.414"/>
		<polyline fill="#FF00FF" points="86.072,-156.878 83.072,-156.878 83.072,-153.878 86.072,-153.878 86.072,-156.878 		"/>
		<path fill="#FFFF00" d="M83.072-153.878h-3v109.248h3V-153.878 M114.824-189.414H15.905v3h95.919v26.536h3V-189.414"/>
		<polyline fill="#FFFFFF" points="111.824,-186.414 15.905,-186.414 15.905,-159.878 47.657,-159.878 47.657,-44.631 
			80.072,-44.631 80.072,-153.878 83.072,-153.878 83.072,-156.878 86.072,-156.878 86.072,-159.878 111.824,-159.878 
			111.824,-186.414 		"/>
		<path fill="#FF0000" d="M141.539-88.534l-2.038,3.833c9.398,8.042,20.446,14.455,33.142,14.455c4.705,0,9.569-1.228,13.146-3.877
			c0.402-0.556,0.764-1.147,1.077-1.774c-3.299,1.805-7.316,2.651-11.224,2.651C162.511-73.246,151.144-80.107,141.539-88.534
			 M171.753-155.814c-0.706,0.372-1.384,0.788-2.018,1.248c-1.122,1.613-1.796,3.522-1.796,5.725
			c0,8.624,10.388,11.956,17.052,14.112l9.8,2.94c20.58,6.076,36.456,16.464,36.456,40.376c0,13.007-2.763,26.321-11.546,36.14
			c11.167-9.992,14.546-24.754,14.546-39.14c0-23.912-15.876-34.3-36.456-40.376l-9.8-2.94c-6.664-2.156-17.052-5.488-17.052-14.112
			C170.939-153.294,171.232-154.618,171.753-155.814 M181.915-196.334c-16.022,0-29.633,5.745-38.747,15.772
			c8.983-8.166,21.397-12.772,35.747-12.772c14.896,0,33.124,4.704,46.256,12.152l-13.32,25.957
			c0.349,0.273,0.692,0.552,1.032,0.835l15.288-29.792C215.039-191.63,196.811-196.334,181.915-196.334"/>
		<path fill="#FF00FF" d="M188.788-77.123c-0.605,0.449-1.249,0.857-1.922,1.226c-0.313,0.627-0.675,1.219-1.077,1.774
			C186.938-74.974,187.953-75.972,188.788-77.123 M172.735-157.567c-1.174,0.851-2.2,1.85-3,3c0.634-0.459,1.312-0.875,2.018-1.248
			C172.022-156.433,172.353-157.017,172.735-157.567"/>
		<path fill="#FFFF00" d="M139.501-84.701l-2.03,3.819c9.187,7.654,19.91,13.636,32.172,13.636c6.216,0,12.711-2.143,16.146-6.877
			c-3.577,2.649-8.441,3.877-13.146,3.877C159.947-70.246,148.899-76.659,139.501-84.701 M169.735-154.567
			c-2.82,2.044-4.796,4.952-4.796,8.725c0,8.624,10.388,11.956,17.052,14.112l9.8,2.94c20.58,6.076,36.456,16.464,36.456,40.376
			c0,12.308-2.473,24.89-10.181,34.526c0.3-0.243,0.598-0.489,0.893-0.739c0.251-0.213,0.499-0.43,0.742-0.648
			c8.783-9.818,11.546-23.133,11.546-36.14c0-23.912-15.876-34.3-36.456-40.376l-9.8-2.94c-6.664-2.156-17.052-5.488-17.052-14.112
			C167.939-151.045,168.613-152.953,169.735-154.567 M178.915-193.334c-14.35,0-26.764,4.607-35.747,12.772
			c-0.476,0.523-0.938,1.059-1.39,1.605c8.831-7.294,20.625-11.378,34.137-11.378c14.896,0,33.124,4.704,46.256,12.152
			l-11.37,22.157c0.354,0.262,0.704,0.528,1.05,0.8l13.32-25.957C212.039-188.63,193.811-193.334,178.915-193.334"/>
		<path fill="#FFFFFF" d="M175.915-190.334c-13.512,0-25.306,4.084-34.137,11.378c-6.867,8.323-10.823,19.304-10.823,32.209
			c0,28.616,15.876,34.888,39.984,41.748c8.231,2.352,23.323,6.076,23.323,16.856c0,4.967-2.196,8.59-5.475,11.019
			c-0.835,1.151-1.851,2.149-2.999,3c-3.436,4.734-9.931,6.877-16.146,6.877c-12.262,0-22.985-5.981-32.172-13.636l-12.396,23.315
			c15.092,10.584,33.32,16.856,51.939,16.856c14.517,0,29.591-3.909,41.052-13.177c7.708-9.636,10.181-22.219,10.181-34.526
			c0-23.912-15.876-34.3-36.456-40.376l-9.8-2.94c-6.664-2.156-17.052-5.488-17.052-14.112c0-3.773,1.976-6.681,4.796-8.725
			c0.8-1.15,1.826-2.149,3-3c3.071-4.416,9.5-6.624,14.668-6.624c8.505,0,16.691,3.205,23.397,8.165l11.37-22.157
			C209.039-185.63,190.811-190.334,175.915-190.334"/>
	</g>
</g>
</svg>
