<?xml version="1.0" encoding="utf-8"?>
<!-- Generator: Adobe Illustrator 16.0.0, SVG Export Plug-In . SVG Version: 6.00 Build 0)  -->
<!DOCTYPE svg PUBLIC "-//W3C//DTD SVG 1.1//EN" "http://www.w3.org/Graphics/SVG/1.1/DTD/svg11.dtd">
<svg version="1.1" xmlns="http://www.w3.org/2000/svg" xmlns:xlink="http://www.w3.org/1999/xlink" x="0px" y="0px"
	 width="250.064px" height="250.63px" viewBox="-6.265 -220.903 250.064 250.63"
	 enable-background="new -6.265 -220.903 250.064 250.63" xml:space="preserve">
<g id="Layer_1">
</g>
<g id="Layer_1_copy">
</g>
<g id="Layer_1_copy_2">
	<g>
		<path fill="#0000FF" d="M71.615-137.073h-38.03v3h35.03v35.62h3V-137.073 M89.72-137.943c-1.036,0.556-2.223,0.87-3.485,0.87h-1
			v2.728C87.176-134.888,88.788-136.204,89.72-137.943 M9.41-147.881c-2.291,1.24-3.875,3.663-3.875,6.468
			c0,4.07,3.35,7.34,7.35,7.34h4.07v115.47c0,7.63,6.319,32.421,32.649,32.79l156.641-0.41c5.769,0,10.762-2.433,14.368-6.901
			c-3.188,2.546-7.062,3.902-11.368,3.902l-156.641,0.41c-26.33-0.37-32.649-25.16-32.649-32.79v-115.47h-4.07
			c-4,0-7.35-3.27-7.35-7.34C8.535-145.67,8.853-146.85,9.41-147.881 M162.895-189.143l-50.931,0.132
			c-0.008,0.894-0.016,1.894-0.022,2.992l47.953-0.125c0.07,10.98,0.301,68.39-0.069,79.3c-0.221,5.96,4.81,13.17,14.55,26.41
			c3.42,4.65,7.13,9.75,10.92,15.28c0.498,0.735,0.994,1.476,1.489,2.22h4.97c-1.14-1.758-2.297-3.503-3.459-5.22
			c-3.79-5.53-7.5-10.63-10.92-15.28c-9.74-13.24-14.771-20.45-14.55-26.41C163.196-120.753,162.965-178.163,162.895-189.143
			 M178.188-189.856c-0.56,0.27-1.161,0.46-1.793,0.558c0.004,0.516,0.007,1.075,0.011,1.675
			C177.154-188.219,177.767-188.982,178.188-189.856 M90.689-198.34c-2.135,1.019-3.613,3.198-3.613,5.716c0,3.57,2.84,6.4,6.33,6.4
			h2.109c-0.069,4.131-0.168,18.82-0.211,34.649c0.809,1.181,1.281,2.612,1.281,4.161c0,1.556-0.479,2.994-1.299,4.178
			c-0.021,15.811,0.027,31.124,0.229,36.751c-0.06,2.458-5.254,9.817-10.28,16.66v1.118c0.234-0.333,0.465-0.662,0.69-0.988
			c5.6-7.57,12.521-16.95,12.59-19.79c-0.439-12.29-0.149-70.79,0-79.74h-2.109c-3.49,0-6.33-2.83-6.33-6.4
			C90.075-196.595,90.295-197.516,90.689-198.34"/>
		<path fill="#00FF00" d="M223.614,3.875c-0.546,0.436-1.112,0.837-1.696,1.203c-0.412,0.631-0.847,1.231-1.304,1.798
			C221.696,6.01,222.699,5.008,223.614,3.875 M92.72-140.943c-0.688,0.368-1.44,0.631-2.237,0.766
			c-0.134,0.796-0.396,1.549-0.763,2.234C90.992-138.625,92.038-139.671,92.72-140.943 M12.409-150.881
			c-1.264,0.685-2.313,1.729-3,3c0.688-0.372,1.439-0.638,2.23-0.775C11.777-149.449,12.041-150.198,12.409-150.881
			 M181.188-192.856c-0.731,0.353-1.538,0.57-2.385,0.622c-0.051,0.851-0.267,1.653-0.615,2.378
			C179.49-190.485,180.556-191.544,181.188-192.856 M93.689-201.34c-1.311,0.625-2.375,1.689-3,3
			c0.732-0.35,1.542-0.562,2.395-0.605C93.126-199.798,93.339-200.607,93.689-201.34"/>
		<path fill="#00FFFF" d="M74.615-140.073h-41.03v3h38.03v38.62h3V-140.073 M90.483-140.177c-0.405,0.069-0.822,0.104-1.248,0.104
			h-4v3h1c1.263,0,2.449-0.314,3.485-0.87C90.087-138.629,90.349-139.381,90.483-140.177 M11.64-148.656
			c-0.792,0.137-1.543,0.403-2.23,0.775c-0.557,1.031-0.875,2.211-0.875,3.468c0,4.07,3.35,7.34,7.35,7.34h4.07v115.47
			c0,7.63,6.319,32.42,32.649,32.79l156.641-0.41c4.307,0,8.181-1.355,11.368-3.902c0.457-0.567,0.892-1.167,1.304-1.798
			c-2.831,1.769-6.103,2.7-9.672,2.7L55.605,8.187c-26.33-0.37-32.649-25.16-32.649-32.79v-115.47h-4.07c-4,0-7.35-3.27-7.35-7.34
			C11.535-147.837,11.571-148.252,11.64-148.656 M165.895-192.143l-53.899,0.14c-0.011,0.777-0.021,1.786-0.031,2.992l50.931-0.132
			c0.07,10.98,0.301,68.39-0.069,79.3c-0.221,5.96,4.81,13.17,14.55,26.41c3.42,4.65,7.13,9.75,10.92,15.28
			c1.162,1.717,2.319,3.462,3.459,5.22h4.921c-1.75-2.77-3.56-5.53-5.38-8.22c-3.79-5.53-7.5-10.63-10.92-15.28
			c-9.74-13.24-14.771-20.45-14.55-26.41C166.196-123.753,165.965-181.163,165.895-192.143 M178.803-192.235
			c-0.128,0.008-0.258,0.012-0.388,0.012h-2.04c0.006,0.693,0.013,1.683,0.02,2.925c0.632-0.098,1.233-0.289,1.793-0.558
			C178.536-190.581,178.752-191.384,178.803-192.235 M93.083-198.945c-0.853,0.043-1.662,0.255-2.395,0.605
			c-0.394,0.824-0.613,1.745-0.613,2.716c0,3.57,2.84,6.4,6.33,6.4h2.109c-0.149,8.95-0.439,67.45,0,79.74
			c-0.069,2.84-6.99,12.22-12.59,19.79c-0.226,0.326-0.456,0.656-0.69,0.988v1.172c0.141-0.19,0.28-0.39,0.421-0.58
			c1.159-1.6,2.26-3.12,3.27-4.58c5.6-7.57,12.521-16.95,12.59-19.79c-0.439-12.29-0.149-70.79,0-79.74h-2.109
			c-3.49,0-6.33-2.83-6.33-6.4C93.075-198.731,93.078-198.838,93.083-198.945"/>
		<path fill="#FF0000" d="M33.585-134.073h-3v38.62h38.03v-3h-35.03V-134.073 M85.235-134.345c-0.636,0.177-1.307,0.272-2,0.272h-1
			v48.368c0.234-0.333,0.465-0.662,0.69-0.988c0.753-1.018,1.529-2.067,2.31-3.13V-134.345 M89.235-154.763h-70.35
			c-2.768,0-5.225,1.565-6.476,3.882c1.041-0.563,2.227-0.882,3.476-0.882h70.35c4.07,0,7.351,3.27,7.351,7.35
			c0,1.257-0.313,2.438-0.865,3.47c1.027-0.551,1.907-1.338,2.566-2.292c0.004-2.78,0.01-5.579,0.018-8.339
			C93.982-153.504,91.76-154.763,89.235-154.763 M111.942-186.019l-2.978,0.008c-0.137,15.862-0.233,66.029,0.101,76.168
			c0.141,5.96-4.88,13.17-14.619,26.41c-3.421,4.65-7.131,9.75-10.921,15.28c-1.81,2.69-3.63,5.45-5.38,8.22h110.609
			c-0.651-1.005-1.31-2.006-1.97-3H81.145c1.75-2.77,3.57-5.53,5.38-8.22c3.79-5.53,7.5-10.63,10.921-15.28
			c9.739-13.24,14.76-20.45,14.619-26.41C111.749-122.411,111.819-167.625,111.942-186.019 M176.406-187.623
			c-0.856,0.684-1.888,1.151-3.011,1.325c0.093,14.804,0.316,65.476-0.09,76.815c0.07,2.84,6.98,12.22,12.59,19.79
			c3.41,4.8,7.271,10.04,11.13,15.65c11.351,16.66,22.33,36.29,27.061,44.66l1.24,2.18c4.87,8.59,4.87,20.23,0.149,28.38
			c-0.57,0.968-1.191,1.868-1.861,2.698c1.875-1.498,3.513-3.409,4.861-5.698c4.721-8.15,4.721-19.79-0.149-28.38l-1.24-2.18
			c-4.73-8.37-15.71-28-27.061-44.66c-3.859-5.61-7.72-10.85-11.13-15.65c-5.609-7.57-12.52-16.95-12.59-19.79
			C176.698-123.427,176.502-171.009,176.406-187.623 M178.415-204.953h-79.01c-2.519,0-4.698,1.479-5.717,3.613
			c0.823-0.393,1.745-0.613,2.717-0.613h79.01c3.49,0,6.399,2.84,6.399,6.33c0,0.995-0.226,1.933-0.627,2.767
			c2.132-1.029,3.627-3.208,3.627-5.767C184.815-202.113,181.906-204.953,178.415-204.953"/>
		<path fill="#FF00FF" d="M191.754-62.933h-4.97c0.66,0.994,1.318,1.995,1.97,3h4.921C193.042-60.935,192.401-61.936,191.754-62.933
			 M85.235-89.823c-0.78,1.063-1.557,2.112-2.31,3.13c-0.226,0.326-0.456,0.656-0.69,0.988v1.172c0.141-0.19,0.28-0.39,0.421-0.58
			c0.9-1.242,1.765-2.437,2.579-3.592V-89.823 M71.615-98.453h-3v3h3V-98.453 M33.585-137.073h-3v3h3V-137.073 M85.235-137.073h-3v3
			h1c0.693,0,1.364-0.095,2-0.272V-137.073 M95.304-151.574c-0.008,2.761-0.014,5.56-0.018,8.339
			c0.819-1.184,1.299-2.623,1.299-4.178C96.585-148.962,96.113-150.393,95.304-151.574 M111.964-189.011l-2.969,0.008
			c-0.011,0.777-0.021,1.786-0.031,2.992l2.978-0.008C111.948-187.117,111.956-188.117,111.964-189.011 M176.395-189.298
			c-0.319,0.049-0.646,0.075-0.979,0.075h-2.04c0.006,0.693,0.013,1.683,0.02,2.925c1.123-0.174,2.154-0.641,3.011-1.325
			C176.402-188.223,176.399-188.782,176.395-189.298"/>
		<path fill="#FFFF00" d="M30.585-134.073h-3v41.62h41.03v-3h-38.03V-134.073 M82.235-134.073h-3v52.54
			c0.141-0.19,0.28-0.39,0.421-0.58c0.9-1.242,1.765-2.437,2.579-3.592V-134.073 M86.235-151.763h-70.35
			c-1.249,0-2.435,0.319-3.476,0.882c-0.369,0.684-0.633,1.432-0.769,2.225c0.406-0.07,0.821-0.107,1.245-0.107h70.35
			c4.07,0,7.351,3.27,7.351,7.35c0,0.421-0.035,0.834-0.103,1.235c0.797-0.135,1.55-0.397,2.237-0.766
			c0.552-1.032,0.865-2.212,0.865-3.47C93.585-148.493,90.305-151.763,86.235-151.763 M108.964-186.011l-2.969,0.008
			c-0.15,10.99-0.29,68.25,0.069,79.16c0.141,5.96-4.88,13.17-14.619,26.41c-3.421,4.65-7.131,9.75-10.921,15.28
			c-1.81,2.69-3.63,5.45-5.38,8.22h115.53c-0.633-1.002-1.274-2.003-1.921-3H78.145c1.75-2.77,3.57-5.53,5.38-8.22
			c3.79-5.53,7.5-10.63,10.921-15.28c9.739-13.24,14.76-20.45,14.619-26.41C108.731-119.982,108.827-170.149,108.964-186.011
			 M173.395-186.298c-0.319,0.049-0.646,0.075-0.979,0.075h-2.04c0.07,8.95,0.37,67.45-0.07,79.74c0.07,2.84,6.98,12.22,12.59,19.79
			c3.41,4.8,7.271,10.04,11.13,15.65c11.351,16.66,22.33,36.29,27.061,44.66l1.24,2.18c4.87,8.59,4.87,20.23,0.149,28.38
			c-0.181,0.307-0.367,0.607-0.558,0.9c0.584-0.365,1.15-0.767,1.696-1.203c0.67-0.83,1.291-1.73,1.861-2.698
			c4.721-8.15,4.721-19.79-0.149-28.38l-1.24-2.18c-4.73-8.37-15.71-28-27.061-44.66c-3.859-5.61-7.72-10.85-11.13-15.65
			c-5.609-7.57-12.52-16.95-12.59-19.79C173.711-120.822,173.488-171.494,173.395-186.298 M175.415-201.953h-79.01
			c-0.972,0-1.894,0.22-2.717,0.613c-0.35,0.732-0.563,1.542-0.605,2.395c0.107-0.005,0.214-0.008,0.322-0.008h79.01
			c3.49,0,6.399,2.84,6.399,6.33c0,0.13-0.004,0.26-0.012,0.389c0.847-0.051,1.653-0.269,2.385-0.622
			c0.401-0.834,0.627-1.772,0.627-2.767C181.815-199.113,178.906-201.953,175.415-201.953"/>
		<path fill="#FFFFFF" d="M33.585-137.073v-3h41.03v41.62h-3v3h-3v3h-41.03v-41.62h3v-3H33.585 M111.964-189.011
			c0.01-1.206,0.021-2.215,0.031-2.992l53.899-0.14c0.07,10.98,0.301,68.39-0.069,79.3c-0.221,5.96,4.81,13.17,14.55,26.41
			c3.42,4.65,7.13,9.75,10.92,15.28c1.82,2.69,3.63,5.45,5.38,8.22h-4.921c0.646,0.997,1.288,1.998,1.921,3h-4.921
			c0.646,0.997,1.288,1.998,1.921,3H75.145c1.75-2.77,3.57-5.53,5.38-8.22c3.79-5.53,7.5-10.63,10.921-15.28
			c9.739-13.24,14.76-20.45,14.619-26.41c-0.359-10.91-0.22-68.17-0.069-79.16l2.969-0.008c0.01-1.206,0.021-2.215,0.031-2.992
			L111.964-189.011 M172.415-198.953h-79.01c-0.108,0-0.215,0.003-0.322,0.008c-0.005,0.106-0.008,0.213-0.008,0.321
			c0,3.57,2.84,6.4,6.33,6.4h2.109c-0.149,8.95-0.439,67.45,0,79.74c-0.069,2.84-6.99,12.22-12.59,19.79
			c-1.01,1.46-2.11,2.98-3.27,4.58c-0.141,0.19-0.28,0.39-0.421,0.58v-1.172c-0.814,1.155-1.679,2.35-2.579,3.592
			c-0.141,0.19-0.28,0.39-0.421,0.58v-1.172c-0.814,1.155-1.679,2.35-2.579,3.592c-0.141,0.19-0.28,0.39-0.421,0.58v-52.54h3v-3h3
			v-3h4c0.426,0,0.843-0.036,1.248-0.104c0.067-0.401,0.103-0.814,0.103-1.235c0-4.08-3.28-7.35-7.351-7.35h-70.35
			c-0.423,0-0.839,0.037-1.245,0.107c-0.069,0.404-0.105,0.819-0.105,1.243c0,4.07,3.35,7.34,7.35,7.34h4.07v115.47
			c0,7.63,6.319,32.42,32.649,32.79l156.641-0.41c3.569,0,6.841-0.931,9.672-2.7c0.19-0.293,0.377-0.593,0.558-0.9
			c4.721-8.15,4.721-19.79-0.149-28.38l-1.24-2.18c-4.73-8.37-15.71-28-27.061-44.66c-3.859-5.61-7.72-10.85-11.13-15.65
			c-5.609-7.57-12.52-16.95-12.59-19.79c0.44-12.29,0.141-70.79,0.07-79.74h2.04c0.333,0,0.66-0.026,0.979-0.075
			c-0.007-1.242-0.014-2.232-0.02-2.925h2.04c0.333,0,0.66-0.026,0.979-0.075c-0.007-1.242-0.014-2.232-0.02-2.925h2.04
			c0.13,0,0.26-0.004,0.388-0.012c0.008-0.128,0.012-0.258,0.012-0.389C178.815-196.113,175.906-198.953,172.415-198.953"/>
	</g>
</g>
</svg>
