<?xml version="1.0" encoding="utf-8"?>
<!-- Generator: Adobe Illustrator 16.0.0, SVG Export Plug-In . SVG Version: 6.00 Build 0)  -->
<!DOCTYPE svg PUBLIC "-//W3C//DTD SVG 1.1//EN" "http://www.w3.org/Graphics/SVG/1.1/DTD/svg11.dtd">
<svg version="1.1" xmlns="http://www.w3.org/2000/svg" xmlns:xlink="http://www.w3.org/1999/xlink" x="0px" y="0px" width="250px"
	 height="250.78px" viewBox="-10.5 -7.5 250 250.78" enable-background="new -10.5 -7.5 250 250.78" xml:space="preserve">
<g id="Layer_1">
</g>
<g id="Layer_1_copy">
	<g id="text_1_">
	</g>
	<g id="_x31__1_">
	</g>
	<g id="_x32__1_">
	</g>
	<g id="_x33__2_">
	</g>
	<g id="_x34__1_">
	</g>
	<g id="_x35__1_">
	</g>
	<g id="_x36__1_">
	</g>
	<g id="_x37__1_">
	</g>
	<g id="_x38__1_">
	</g>
	<g id="_x39__1_">
	</g>
	<g id="_x31_0_1_">
	</g>
	<g id="_x31_1_1_">
	</g>
	<g id="_x31_2_1_">
	</g>
	<g id="_x31_3_1_">
	</g>
	<g id="_x31_4_1_">
	</g>
	<g id="_x31_5_1_">
	</g>
	<g id="_x31_6_1_">
	</g>
	<g id="_x31_7_1_">
	</g>
	<g id="_x31_8_1_">
	</g>
	<g id="_x31_9_1_">
	</g>
	<g id="_x32_0_1_">
	</g>
	<g id="_x32_1_1_">
	</g>
	<g id="_x32_2_1_">
	</g>
	<g id="_x32_3_1_">
	</g>
	<g id="_x32_4_1_">
	</g>
	<g id="_x32_5_1_">
	</g>
	<g id="_x32_6_1_">
	</g>
	<g id="_x32_7_1_">
	</g>
	<g id="_x32_8_1_">
	</g>
	<g id="_x32_9_1_">
	</g>
	<g id="_x33_0_1_">
	</g>
	<g id="_x33_1_1_">
	</g>
	<g id="_x33_2_1_">
	</g>
	<g id="_x33_3_1_">
	</g>
	<g id="_x33_4_1_">
	</g>
	<g id="_x33_5_1_">
	</g>
	<g id="_x33_6_1_">
	</g>
	<g id="_x33_7_1_">
	</g>
	<g id="_x33_8_1_">
	</g>
	<g id="_x33_9_1_">
	</g>
	<g id="_x34_0_1_">
	</g>
	<g id="_x34_1_1_">
	</g>
	<g id="_x34_2_1_">
	</g>
	<g id="_x34_3_1_">
	</g>
	<g id="_x34_4_1_">
	</g>
	<g id="_x34_5_1_">
	</g>
	<g id="_x34_6_1_">
	</g>
	<g id="_x34_7_1_">
	</g>
	<g id="_x34_8_1_">
	</g>
	<g id="_x34_9_1_">
	</g>
	<g id="_x35_0_1_">
	</g>
	<g id="_x35_2_1_">
	</g>
	<g id="_x35_3_1_">
	</g>
	<g id="_x35_4_1_">
	</g>
	<g id="_x35_5_1_">
	</g>
	<g id="_x35_6_1_">
	</g>
	<g id="_x35_7_1_">
	</g>
	<g id="_x35_8_1_">
	</g>
	<g id="_x35_9_1_">
	</g>
	<g id="_x36_0_1_">
	</g>
	<g id="_x36_1_1_">
	</g>
	<g id="_x36_2_1_">
	</g>
	<g id="_x36_3_1_">
	</g>
	<g id="_x36_4_1_">
	</g>
	<g id="_x36_5_1_">
	</g>
	<g id="_x36_6_1_">
	</g>
	<g id="_x36_7_1_">
	</g>
	<g id="_x36_8_1_">
	</g>
	<g id="_x36_9_1_">
	</g>
	<g id="_x37_0_1_">
	</g>
	<g id="_x37_1_1_">
	</g>
	<g id="_x37_2_1_">
	</g>
	<g id="_x37_3_1_">
	</g>
	<g id="_x37_4_1_">
	</g>
	<g id="_x37_5_1_">
	</g>
	<g id="_x37_6_1_">
	</g>
	<g id="_x37_7_1_">
	</g>
	<g id="_x37_8_1_">
	</g>
	<g id="_x37_9_1_">
	</g>
	<g id="_x38_0_1_">
	</g>
	<g id="_x38_1_1_">
	</g>
	<g id="_x38_2_1_">
	</g>
	<g id="_x38_3_1_">
	</g>
	<g id="_x38_4_1_">
	</g>
	<g id="_x38_5_1_">
	</g>
	<g id="_x38_6_1_">
	</g>
	<g id="_x38_7_1_">
	</g>
	<g id="_x38_8_1_">
	</g>
	<g id="_x38_9_1_">
	</g>
	<g id="_x39_0_1_">
	</g>
	<g id="_x39_1_1_">
	</g>
	<g id="_x39_2_1_">
	</g>
	<g id="_x39_3_1_">
	</g>
	<g id="_x39_4_1_">
	</g>
	<g id="_x39_5_1_">
	</g>
	<g id="_x39_6_1_">
	</g>
	<g id="_x39_7_1_">
	</g>
	<g id="_x39_8_1_">
	</g>
	<g id="_x39_9_1_">
	</g>
	<g id="_x31_00_1_">
	</g>
	<g id="_x31_01_1_">
	</g>
	<g id="_x31_02_1_">
	</g>
	<g id="_x31_03_1_">
	</g>
	<g id="_x31_04_1_">
	</g>
	<g id="_x31_05_1_">
	</g>
	<g id="_x31_06_1_">
	</g>
	<g id="_x31_07_1_">
	</g>
	<g id="_x31_08_1_">
	</g>
	<g id="_x31_09_1_">
	</g>
	<g id="_x31_10_1_">
	</g>
	<g id="_x31_11_1_">
	</g>
	<g id="_x31_12_1_">
	</g>
	<g id="_x31_13_1_">
	</g>
	<g id="_x31_14_1_">
	</g>
	<g id="_x31_15_1_">
	</g>
	<g id="_x31_16_1_">
	</g>
	<g id="_x31_17_1_">
	</g>
	<g id="_x31_18_1_">
	</g>
	<g id="_x31_19_1_">
	</g>
	<g id="_x31_20_1_">
	</g>
	<g id="_x31_21_1_">
	</g>
	<g id="_x31_22_1_">
	</g>
	<g id="_x31_23_1_">
	</g>
	<g id="_x31_24_1_">
	</g>
	<g id="_x31_25_1_">
	</g>
	<g id="_x31_26_1_">
	</g>
	<g id="_x31_27_1_">
	</g>
	<g id="_x31_28_1_">
	</g>
	<g id="_x31_29_1_">
	</g>
	<g id="_x31_30_1_">
	</g>
	<g id="_x31_31_1_">
	</g>
	<g id="_x31_32_1_">
	</g>
	<g id="_x31_33_1_">
	</g>
	<g id="_x31_34_1_">
	</g>
	<g id="_x31_35_1_">
	</g>
	<g id="_x31_36_1_">
	</g>
	<g id="_x31_37_1_">
	</g>
	<g id="_x31_38_1_">
	</g>
	<g id="_x31_39_1_">
	</g>
	<g id="_x31_40_1_">
	</g>
	<g id="_x31_41_1_">
	</g>
	<g id="_x31_42_1_">
	</g>
	<g id="_x31_43_1_">
	</g>
	<g id="_x31_44_1_">
	</g>
	<g id="_x31_45_1_">
	</g>
	<g id="_x31_46_1_">
	</g>
	<g id="_x31_47_1_">
	</g>
	<g id="_x31_48_1_">
	</g>
	<g id="_x31_49_1_">
	</g>
	<g id="_x31_50_1_">
	</g>
	<g id="_x31_51_1_">
	</g>
	<g id="_x31_52_1_">
	</g>
	<g id="_x31_53_1_">
	</g>
	<g id="_x31_54_1_">
	</g>
	<g id="_x31_55_1_">
	</g>
	<g id="_x31_56_1_">
	</g>
	<g id="_x31_57_1_">
	</g>
	<g id="_x31_58_1_">
	</g>
	<g id="_x31_59_1_">
	</g>
	<g id="_x31_60_1_">
	</g>
	<g id="_x31_61_1_">
	</g>
	<g id="_x31_62_1_">
	</g>
	<g id="_x31_63_1_">
	</g>
	<g id="_x31_64_1_">
	</g>
	<g id="_x31_65_1_">
	</g>
	<g id="_x31_66_1_">
	</g>
	<g id="_x31_67_1_">
	</g>
	<g id="_x31_68_1_">
	</g>
	<g id="_x31_69_1_">
	</g>
	<g id="_x31_70_1_">
	</g>
	<g id="_x31_71_1_">
	</g>
	<g id="_x31_72_1_">
	</g>
	<g id="_x31_73_1_">
	</g>
	<g id="_x31_74_1_">
	</g>
	<g id="_x31_75_1_">
	</g>
	<g id="_x31_76_1_">
	</g>
	<g id="_x31_77_1_">
	</g>
	<g id="_x31_78_1_">
	</g>
	<g id="_x31_79_1_">
	</g>
	<g id="_x31_80_1_">
	</g>
	<g id="_x31_81_1_">
	</g>
	<g id="_x31_82_1_">
	</g>
	<g id="_x31_83_1_">
	</g>
	<g id="_x31_84_1_">
	</g>
	<g id="_x31_85_1_">
	</g>
	<g id="_x31_86_1_">
	</g>
	<g id="_x31_87_1_">
	</g>
	<g id="_x31_88_1_">
	</g>
	<g id="_x31_89_1_">
	</g>
	<g id="_x31_90_1_">
	</g>
</g>
<g id="Layer_1_copy_2">
	<g id="text_2_">
	</g>
	<g id="_x31__2_">
	</g>
	<g id="_x32__2_">
	</g>
	<g id="_x33__3_">
	</g>
	<g id="_x34__2_">
	</g>
	<g id="_x35__2_">
	</g>
	<g id="_x36__2_">
	</g>
	<g id="_x37__2_">
	</g>
	<g id="_x38__2_">
	</g>
	<g id="_x39__2_">
	</g>
	<g id="_x31_0_2_">
	</g>
	<g id="_x31_1_2_">
	</g>
	<g id="_x31_2_2_">
	</g>
	<g id="_x31_3_2_">
	</g>
	<g id="_x31_4_2_">
	</g>
	<g id="_x31_5_2_">
	</g>
	<g id="_x31_6_2_">
	</g>
	<g id="_x31_7_2_">
	</g>
	<g id="_x31_8_2_">
	</g>
	<g id="_x31_9_2_">
	</g>
	<g id="_x32_0_2_">
	</g>
	<g id="_x32_1_2_">
	</g>
	<g id="_x32_2_2_">
	</g>
	<g id="_x32_3_2_">
	</g>
	<g id="_x32_4_2_">
	</g>
	<g id="_x32_5_2_">
	</g>
	<g id="_x32_6_2_">
	</g>
	<g id="_x32_7_2_">
	</g>
	<g id="_x32_8_2_">
	</g>
	<g id="_x32_9_2_">
	</g>
	<g id="_x33_0_2_">
	</g>
	<g id="_x33_1_2_">
	</g>
	<g id="_x33_2_2_">
	</g>
	<g id="_x33_3_2_">
	</g>
	<g id="_x33_4_2_">
	</g>
	<g id="_x33_5_2_">
	</g>
	<g id="_x33_6_2_">
	</g>
	<g id="_x33_7_2_">
	</g>
	<g id="_x33_8_2_">
	</g>
	<g id="_x33_9_2_">
	</g>
	<g id="_x34_0_2_">
	</g>
	<g id="_x34_1_2_">
	</g>
	<g id="_x34_2_2_">
	</g>
	<g id="_x34_3_2_">
	</g>
	<g id="_x34_4_2_">
	</g>
	<g id="_x34_5_2_">
	</g>
	<g id="_x34_6_2_">
	</g>
	<g id="_x34_7_2_">
	</g>
	<g id="_x34_8_2_">
	</g>
	<g id="_x34_9_2_">
	</g>
	<g id="_x35_0_2_">
	</g>
	<g id="_x35_2_2_">
	</g>
	<g id="_x35_3_2_">
	</g>
	<g id="_x35_4_2_">
	</g>
	<g id="_x35_5_2_">
	</g>
	<g id="_x35_6_2_">
	</g>
	<g id="_x35_7_2_">
	</g>
	<g id="_x35_8_2_">
	</g>
	<g id="_x35_9_2_">
	</g>
	<g id="_x36_0_2_">
	</g>
	<g id="_x36_1_2_">
	</g>
	<g id="_x36_2_2_">
	</g>
	<g id="_x36_3_2_">
	</g>
	<g id="_x36_4_2_">
	</g>
	<g id="_x36_5_2_">
	</g>
	<g id="_x36_6_2_">
	</g>
	<g id="_x36_7_2_">
	</g>
	<g id="_x36_8_2_">
	</g>
	<g id="_x36_9_2_">
	</g>
	<g id="_x37_0_2_">
	</g>
	<g id="_x37_1_2_">
	</g>
	<g id="_x37_2_2_">
	</g>
	<g id="_x37_3_2_">
	</g>
	<g id="_x37_4_2_">
	</g>
	<g id="_x37_5_2_">
	</g>
	<g id="_x37_6_2_">
	</g>
	<g id="_x37_7_2_">
	</g>
	<g id="_x37_8_2_">
	</g>
	<g id="_x37_9_2_">
	</g>
	<g id="_x38_0_2_">
	</g>
	<g id="_x38_1_2_">
	</g>
	<g id="_x38_2_2_">
	</g>
	<g id="_x38_3_2_">
	</g>
	<g id="_x38_4_2_">
	</g>
	<g id="_x38_5_2_">
	</g>
	<g id="_x38_6_2_">
	</g>
	<g id="_x38_7_2_">
	</g>
	<g id="_x38_8_2_">
	</g>
	<g id="_x38_9_2_">
	</g>
	<g id="_x39_0_2_">
	</g>
	<g id="_x39_1_2_">
	</g>
	<g id="_x39_2_2_">
	</g>
	<g id="_x39_3_2_">
	</g>
	<g id="_x39_4_2_">
	</g>
	<g id="_x39_5_2_">
	</g>
	<g id="_x39_6_2_">
	</g>
	<g id="_x39_7_2_">
	</g>
	<g id="_x39_8_2_">
	</g>
	<g id="_x39_9_2_">
	</g>
	<g id="_x31_00_2_">
	</g>
	<g id="_x31_01_2_">
	</g>
	<g id="_x31_02_2_">
	</g>
	<g id="_x31_03_2_">
	</g>
	<g id="_x31_04_2_">
	</g>
	<g id="_x31_05_2_">
	</g>
	<g id="_x31_06_2_">
	</g>
	<g id="_x31_07_2_">
	</g>
	<g id="_x31_08_2_">
	</g>
	<g id="_x31_09_2_">
	</g>
	<g id="_x31_10_2_">
	</g>
	<g id="_x31_11_2_">
	</g>
	<g id="_x31_12_2_">
	</g>
	<g id="_x31_13_2_">
	</g>
	<g id="_x31_14_2_">
	</g>
	<g id="_x31_15_2_">
	</g>
	<g id="_x31_16_2_">
	</g>
	<g id="_x31_17_2_">
	</g>
	<g id="_x31_18_2_">
	</g>
	<g id="_x31_19_2_">
	</g>
	<g id="_x31_20_2_">
	</g>
	<g id="_x31_21_2_">
	</g>
	<g id="_x31_22_2_">
	</g>
	<g id="_x31_23_2_">
	</g>
	<g id="_x31_24_2_">
	</g>
	<g id="_x31_25_2_">
	</g>
	<g id="_x31_26_2_">
	</g>
	<g id="_x31_27_2_">
	</g>
	<g id="_x31_28_2_">
	</g>
	<g id="_x31_29_2_">
	</g>
	<g id="_x31_30_2_">
	</g>
	<g id="_x31_31_2_">
	</g>
	<g id="_x31_32_2_">
	</g>
	<g id="_x31_33_2_">
	</g>
	<g id="_x31_34_2_">
	</g>
	<g id="_x31_35_2_">
	</g>
	<g id="_x31_36_2_">
	</g>
	<g id="_x31_37_2_">
	</g>
	<g id="_x31_38_2_">
	</g>
	<g id="_x31_39_2_">
	</g>
	<g id="_x31_40_2_">
	</g>
	<g id="_x31_41_2_">
	</g>
	<g id="_x31_42_2_">
	</g>
	<g id="_x31_43_2_">
	</g>
	<g id="_x31_44_2_">
	</g>
	<g id="_x31_45_2_">
	</g>
	<g id="_x31_46_2_">
	</g>
	<g id="_x31_47_2_">
	</g>
	<g id="_x31_48_2_">
	</g>
	<g id="_x31_49_2_">
	</g>
	<g id="_x31_50_2_">
	</g>
	<g id="_x31_51_2_">
	</g>
	<g id="_x31_52_2_">
	</g>
	<g id="_x31_53_2_">
	</g>
	<g id="_x31_54_2_">
	</g>
	<g id="_x31_55_2_">
	</g>
	<g id="_x31_56_2_">
	</g>
	<g id="_x31_57_2_">
	</g>
	<g id="_x31_58_2_">
	</g>
	<g id="_x31_59_2_">
	</g>
	<g id="_x31_60_2_">
	</g>
	<g id="_x31_61_2_">
	</g>
	<g id="_x31_62_2_">
	</g>
	<g id="_x31_63_2_">
	</g>
	<g id="_x31_64_2_">
	</g>
	<g id="_x31_65_2_">
	</g>
	<g id="_x31_66_2_">
	</g>
	<g id="_x31_67_2_">
	</g>
	<g id="_x31_68_2_">
	</g>
	<g id="_x31_69_2_">
	</g>
	<g id="_x31_70_2_">
	</g>
	<g id="_x31_71_2_">
	</g>
	<g id="_x31_72_2_">
	</g>
	<g id="_x31_73_2_">
	</g>
	<g id="_x31_74_2_">
	</g>
	<g id="_x31_75_2_">
	</g>
	<g id="_x31_76_2_">
	</g>
	<g id="_x31_77_2_">
	</g>
	<g id="_x31_78_2_">
	</g>
	<g id="_x31_79_2_">
	</g>
	<g id="_x31_80_2_">
	</g>
	<g id="_x31_81_2_">
	</g>
	<g id="_x31_82_2_">
	</g>
	<g id="_x31_83_2_">
	</g>
	<g id="_x31_84_2_">
	</g>
	<g id="_x31_85_2_">
	</g>
	<g id="_x31_86_2_">
	</g>
	<g id="_x31_87_2_">
	</g>
	<g id="_x31_88_2_">
	</g>
	<g id="_x31_89_2_">
	</g>
	<g id="_x31_90_2_">
	</g>
	<g>
		<path fill="#0000FF" d="M63.078,77.025c-6.343,1.788-5.714,12.599,1.885,12.599c32.98,0,65.957,0,98.938,0
			c3.191,0,5.153-1.906,5.887-4.249c-0.572,0.161-1.201,0.249-1.887,0.249c-32.98,0-65.957,0-98.938,0
			C63.869,85.624,61.907,80.767,63.078,77.025"/>
		<path fill="#0000FF" d="M63.078,106.118c-6.343,1.788-5.714,12.599,1.885,12.599c32.98,0,65.957,0,98.938,0
			c3.191,0,5.153-1.906,5.887-4.249c-0.572,0.161-1.201,0.249-1.887,0.249c-32.98,0-65.957,0-98.938,0
			C63.869,114.717,61.907,109.859,63.078,106.118"/>
		<path fill="#0000FF" d="M63.078,135.205c-6.343,1.788-5.714,12.598,1.885,12.598c32.98,0,65.957,0,98.938,0
			c3.191,0,5.154-1.905,5.887-4.249c-0.572,0.161-1.201,0.249-1.887,0.249c-32.98,0-65.957,0-98.938,0
			C63.869,143.803,61.907,138.946,63.078,135.205"/>
		<path fill="#0000FF" d="M61.166,164.302c-6.343,1.787-5.714,12.599,1.885,12.599c32.981,0,65.957,0,98.938,0
			c3.193,0,5.156-1.906,5.89-4.25c-0.573,0.162-1.203,0.25-1.89,0.25c-32.981,0-65.957,0-98.938,0
			C61.958,172.9,59.996,168.043,61.166,164.302"/>
		<path fill="#0000FF" d="M165.578,17.557H47.733v4h113.845v14.285c0,5.704,4.571,10.277,10.277,10.277h15.361v167.163h4V42.119
			h-15.361c-5.706,0-10.277-4.573-10.277-10.277V17.557 M29.612,7.436c-3.152,1.76-5.296,5.132-5.296,8.982V227.42
			c0,5.651,4.624,10.277,10.276,10.277h157.763c3.881,0,7.237-2.14,8.987-5.287c-1.475,0.819-3.174,1.287-4.987,1.287H38.593
			c-5.652,0-10.276-4.626-10.276-10.277V12.418C28.316,10.613,28.787,8.914,29.612,7.436"/>
		<path fill="#00FF00" d="M174.033,80.3c-0.637,0.209-1.348,0.324-2.133,0.324c-0.751,0-1.502,0-2.253,0
			c0.572,1.497,0.619,3.218,0.14,4.751C172.275,84.673,173.691,82.581,174.033,80.3 M66.831,73.101
			c-1.949,0.64-3.2,2.158-3.753,3.925c0.571-0.161,1.199-0.249,1.885-0.249c0.751,0,1.503,0,2.254,0
			C66.775,75.621,66.646,74.333,66.831,73.101"/>
		<path fill="#00FFFF" d="M67.217,76.776c-0.751,0-1.503,0-2.254,0c-0.686,0-1.313,0.088-1.885,0.249
			c-1.171,3.741,0.791,8.599,5.885,8.599c32.98,0,65.957,0,98.938,0c0.686,0,1.314-0.088,1.887-0.249
			c0.479-1.533,0.433-3.254-0.14-4.751c-32.229,0-64.455,0-96.685,0C69.956,80.624,68.041,78.933,67.217,76.776"/>
		<path fill="#00FF00" d="M174.033,109.393c-0.637,0.209-1.348,0.324-2.133,0.324c-0.751,0-1.502,0-2.253,0
			c0.572,1.497,0.619,3.218,0.14,4.751C172.275,113.766,173.691,111.674,174.033,109.393 M66.831,102.193
			c-1.949,0.64-3.2,2.158-3.753,3.925c0.571-0.161,1.199-0.249,1.885-0.249c0.751,0,1.503,0,2.254,0
			C66.775,104.714,66.646,103.426,66.831,102.193"/>
		<path fill="#00FFFF" d="M67.217,105.869c-0.751,0-1.503,0-2.254,0c-0.686,0-1.313,0.088-1.885,0.249
			c-1.171,3.741,0.791,8.599,5.885,8.599c32.98,0,65.957,0,98.938,0c0.686,0,1.314-0.088,1.887-0.249
			c0.479-1.533,0.433-3.254-0.14-4.751c-32.229,0-64.455,0-96.685,0C69.956,109.717,68.041,108.025,67.217,105.869"/>
		<path fill="#00FF00" d="M174.033,138.479c-0.637,0.209-1.348,0.324-2.133,0.324c-0.751,0-1.502,0-2.253,0
			c0.572,1.497,0.619,3.218,0.14,4.751C172.276,142.852,173.691,140.76,174.033,138.479 M66.831,131.28
			c-1.95,0.64-3.2,2.158-3.753,3.925c0.571-0.161,1.199-0.249,1.885-0.249c0.751,0,1.504,0,2.254,0
			C66.775,133.801,66.646,132.513,66.831,131.28"/>
		<path fill="#00FFFF" d="M67.217,134.956c-0.75,0-1.503,0-2.254,0c-0.686,0-1.313,0.088-1.885,0.249
			c-1.171,3.741,0.791,8.598,5.885,8.598c32.98,0,65.957,0,98.938,0c0.686,0,1.314-0.088,1.887-0.249
			c0.479-1.533,0.433-3.254-0.14-4.751c-32.229,0-64.455,0-96.685,0C69.957,138.803,68.042,137.111,67.217,134.956"/>
		<path fill="#00FF00" d="M172.125,167.575c-0.637,0.21-1.349,0.325-2.136,0.325c-0.751,0-1.499,0-2.25,0
			c0.572,1.496,0.619,3.217,0.14,4.75C170.368,171.948,171.783,169.857,172.125,167.575 M64.92,160.377
			c-1.949,0.64-3.201,2.157-3.754,3.925c0.571-0.161,1.2-0.249,1.885-0.249c0.751,0,1.504,0,2.255,0
			C64.864,162.897,64.735,161.609,64.92,160.377"/>
		<path fill="#00FFFF" d="M65.306,164.053c-0.751,0-1.504,0-2.255,0c-0.685,0-1.313,0.088-1.885,0.249
			c-1.17,3.741,0.792,8.599,5.885,8.599c32.981,0,65.957,0,98.938,0c0.687,0,1.316-0.088,1.89-0.25
			c0.479-1.533,0.433-3.254-0.14-4.75c-32.23,0-64.458,0-96.688,0C68.045,167.9,66.13,166.209,65.306,164.053"/>
		<path fill="#00FF00" d="M205.984,227.022c-1.021,0.67-2.169,1.162-3.402,1.434c-0.143,1.422-0.575,2.761-1.239,3.954
			C203.468,231.229,205.125,229.318,205.984,227.022 M32.967,3.829c-1.387,0.913-2.542,2.153-3.354,3.607
			c0.853-0.476,1.778-0.834,2.756-1.052C32.458,5.495,32.663,4.638,32.967,3.829"/>
		<path fill="#00FFFF" d="M169.578,12.557H47.733v5h117.845v14.285c0,5.704,4.571,10.277,10.277,10.277h15.361v171.163h4V37.119
			h-15.361c-5.706,0-10.277-4.573-10.277-10.277V12.557 M32.368,6.384c-0.978,0.218-1.903,0.576-2.756,1.052
			c-0.825,1.478-1.296,3.177-1.296,4.982V223.42c0,5.651,4.624,10.277,10.276,10.277h157.763c1.813,0,3.513-0.468,4.987-1.287
			c0.664-1.193,1.097-2.532,1.239-3.954c-0.717,0.158-1.461,0.241-2.227,0.241H42.593c-5.652,0-10.276-4.626-10.276-10.277V7.418
			C32.316,7.069,32.334,6.724,32.368,6.384"/>
		<path fill="#FF0000" d="M171.9,67.776c-32.98,0-65.957,0-98.938,0c-3.667,0-5.711,2.518-6.132,5.324
			c0.637-0.209,1.347-0.324,2.132-0.324c32.98,0,65.957,0,98.938,0c4.618,0,6.662,3.99,6.133,7.523
			C180.112,78.304,179.401,67.776,171.9,67.776"/>
		<path fill="#FFFF00" d="M167.9,72.776c-32.98,0-65.957,0-98.938,0c-0.785,0-1.495,0.115-2.132,0.324
			c-0.185,1.232-0.056,2.521,0.386,3.676c32.229,0,64.454,0,96.684,0c3.007,0,4.923,1.691,5.747,3.848c0.751,0,1.502,0,2.253,0
			c0.785,0,1.496-0.115,2.133-0.324C174.563,76.767,172.519,72.776,167.9,72.776"/>
		<path fill="#FFFFFF" d="M163.9,76.776c-32.229,0-64.454,0-96.684,0c0.824,2.156,2.739,3.848,5.746,3.848
			c32.229,0,64.455,0,96.685,0C168.823,78.468,166.907,76.776,163.9,76.776"/>
		<path fill="#FF0000" d="M171.9,96.869c-32.98,0-65.957,0-98.938,0c-3.667,0-5.711,2.518-6.132,5.324
			c0.637-0.209,1.347-0.324,2.132-0.324c32.98,0,65.957,0,98.938,0c4.618,0,6.662,3.99,6.133,7.523
			C180.112,107.396,179.401,96.869,171.9,96.869"/>
		<path fill="#FFFF00" d="M167.9,101.869c-32.98,0-65.957,0-98.938,0c-0.785,0-1.495,0.115-2.132,0.324
			c-0.185,1.232-0.056,2.521,0.386,3.676c32.229,0,64.454,0,96.684,0c3.007,0,4.923,1.691,5.747,3.848c0.751,0,1.502,0,2.253,0
			c0.785,0,1.496-0.115,2.133-0.324C174.563,105.859,172.519,101.869,167.9,101.869"/>
		<path fill="#FFFFFF" d="M163.9,105.869c-32.229,0-64.454,0-96.684,0c0.824,2.156,2.739,3.848,5.746,3.848
			c32.229,0,64.455,0,96.685,0C168.823,107.561,166.907,105.869,163.9,105.869"/>
		<path fill="#FF0000" d="M171.9,125.956c-32.98,0-65.957,0-98.938,0c-3.667,0-5.711,2.518-6.132,5.324
			c0.637-0.209,1.347-0.324,2.132-0.324c32.98,0,65.957,0,98.938,0c4.617,0,6.662,3.99,6.133,7.522
			C180.112,136.482,179.401,125.956,171.9,125.956"/>
		<path fill="#FFFF00" d="M167.9,130.956c-32.98,0-65.957,0-98.938,0c-0.785,0-1.495,0.115-2.132,0.324
			c-0.185,1.232-0.056,2.521,0.386,3.676c32.229,0,64.454,0,96.684,0c3.007,0,4.922,1.691,5.747,3.847c0.751,0,1.502,0,2.253,0
			c0.785,0,1.496-0.115,2.133-0.324C174.563,134.946,172.518,130.956,167.9,130.956"/>
		<path fill="#FFFFFF" d="M163.9,134.956c-32.229,0-64.454,0-96.684,0c0.825,2.155,2.74,3.847,5.746,3.847
			c32.229,0,64.455,0,96.685,0C168.822,136.647,166.907,134.956,163.9,134.956"/>
		<path fill="#FF0000" d="M169.989,155.053c-32.981,0-65.957,0-98.938,0c-3.667,0-5.711,2.518-6.131,5.324
			c0.636-0.209,1.346-0.324,2.131-0.324c32.981,0,65.957,0,98.938,0c4.62,0,6.665,3.99,6.136,7.522
			C178.204,165.577,177.492,155.053,169.989,155.053"/>
		<path fill="#FFFF00" d="M165.989,160.053c-32.981,0-65.957,0-98.938,0c-0.785,0-1.495,0.115-2.131,0.324
			c-0.185,1.232-0.056,2.521,0.386,3.676c32.23,0,64.453,0,96.684,0c3.009,0,4.925,1.691,5.75,3.848c0.751,0,1.499,0,2.25,0
			c0.787,0,1.499-0.115,2.136-0.325C172.654,164.043,170.609,160.053,165.989,160.053"/>
		<path fill="#FFFFFF" d="M161.989,164.053c-32.23,0-64.453,0-96.684,0c0.824,2.156,2.739,3.848,5.745,3.848
			c32.23,0,64.458,0,96.688,0C166.914,165.744,164.998,164.053,161.989,164.053"/>
		<path fill="#FF0000" d="M47.733,21.557h-4v196.726h143.483v-5H47.733V21.557 M177.491-2.86H42.593
			c-4.392,0-8.162,2.792-9.626,6.688c1.619-1.066,3.554-1.688,5.626-1.688h134.898l33.143,32.119V223.42
			c0,1.266-0.229,2.48-0.649,3.603c2.807-1.84,4.649-5.015,4.649-8.603V29.259L177.491-2.86"/>
		<path fill="#FF00FF" d="M191.217,213.282h-4v5h4V213.282 M47.733,17.557h-4v4h4V17.557"/>
		<path fill="#FFFF00" d="M43.733,21.557h-4v200.726h147.483v-4H43.733V21.557 M173.491,2.14H38.593
			c-2.072,0-4.007,0.622-5.626,1.688c-0.304,0.809-0.509,1.667-0.599,2.556c0.717-0.16,1.462-0.244,2.225-0.244h134.898
			l33.143,32.119V227.42c0,0.35-0.018,0.695-0.052,1.036c1.233-0.271,2.382-0.764,3.402-1.434c0.42-1.122,0.649-2.337,0.649-3.603
			V34.259L173.491,2.14"/>
		<path fill="#FFFFFF" d="M47.733,17.557v-5h121.845v14.285c0,5.704,4.571,10.277,10.277,10.277h15.361v176.163h-4v5h-4v4H39.733
			V21.557h4v-4H47.733 M169.491,6.14H34.593c-0.763,0-1.508,0.084-2.225,0.244c-0.034,0.34-0.052,0.685-0.052,1.034V218.42
			c0,5.651,4.624,10.277,10.276,10.277h157.763c0.766,0,1.51-0.083,2.227-0.241c0.034-0.341,0.052-0.687,0.052-1.036V38.259
			L169.491,6.14"/>
	</g>
</g>
</svg>
